M48
; DRILL file KiCad 10.0.6 date 2026-09-12T13:46:39
; FORMAT={-:-/ absolute / metric / decimal}
; #@! TF.CreationDate,2026-09-12T13:46:39-04:00
; #@! TF.GenerationSoftware,Kicad,Pcbnew,10.0.6
; #@! TF.FileFunction,Plated,1,2,PTH
FMAT,2
METRIC
; #@! TA.AperFunction,Plated,PTH,ComponentDrill
T1C0.800
; #@! TA.AperFunction,Plated,PTH,ComponentDrill
T2C0.900
; #@! TA.AperFunction,Plated,PTH,ComponentDrill
T3C1.200
; #@! TA.AperFunction,Plated,PTH,ComponentDrill
T4C1.300
%
G90
G05
T1
X106.94Y-106.94
X106.94Y-109.48
X106.94Y-112.02
X106.94Y-114.56
X114.56Y-106.94
X114.56Y-109.48
X114.56Y-112.02
X114.56Y-114.56
T2
X119.825Y-106.5
X122.365Y-106.5
T3
X118.7Y-111.45
X118.7Y-124.15
X122.65Y-116.221
X122.658Y-111.995
X124.05Y-121.75
X135.35Y-116.221
X135.358Y-111.995
X136.75Y-121.75
T4
X109.137Y-126.1
X109.137Y-131.1
X127.5Y-131.0
X132.5Y-131.0
M30
