%TF.GenerationSoftware,KiCad,Pcbnew,10.0.6*%
%TF.CreationDate,2026-09-09T10:43:47-04:00*%
%TF.ProjectId,acs711_current_sensor,61637337-3131-45f6-9375-7272656e745f,rev?*%
%TF.SameCoordinates,Original*%
%TF.FileFunction,Legend,Top*%
%TF.FilePolarity,Positive*%
%FSLAX46Y46*%
G04 Gerber Fmt 4.6, Leading zero omitted, Abs format (unit mm)*
G04 Created by KiCad (PCBNEW 10.0.6) date 2026-09-09 10:43:47*
%MOMM*%
%LPD*%
G01*
G04 APERTURE LIST*
%ADD10C,0.120000*%
%ADD11C,0.127000*%
%ADD12C,0.200000*%
G04 APERTURE END LIST*
%TO.C,R1*%
D10*
X119915517Y-91528589D02*
X119915517Y-92008589D01*
X119915517Y-95368589D02*
X119915517Y-94888589D01*
X130055517Y-91528589D02*
X119915517Y-91528589D01*
X130055517Y-92008589D02*
X130055517Y-91528589D01*
X130055517Y-94888589D02*
X130055517Y-95368589D01*
X130055517Y-95368589D02*
X119915517Y-95368589D01*
%TO.C,U1*%
X102440000Y-83440000D02*
X102535000Y-83440000D01*
X102440000Y-87560000D02*
X102440000Y-83440000D01*
X102535000Y-87560000D02*
X102440000Y-87560000D01*
X107465000Y-83440000D02*
X107560000Y-83440000D01*
X107560000Y-83440000D02*
X107560000Y-87560000D01*
X107560000Y-87560000D02*
X107465000Y-87560000D01*
X107470000Y-82900000D02*
X107800000Y-82660000D01*
X107800000Y-83140000D01*
X107470000Y-82900000D01*
G36*
X107800000Y-83140000D02*
G01*
X107470000Y-82900000D01*
X107800000Y-82660000D01*
X107800000Y-83140000D01*
G37*
%TO.C,C1*%
X131761252Y-97265000D02*
X131238748Y-97265000D01*
X131761252Y-98735000D02*
X131238748Y-98735000D01*
%TO.C,D2*%
X114170000Y-97455000D02*
X114170000Y-100545000D01*
X114170000Y-97455170D02*
G75*
G02*
X119720000Y-99000000I2560000J-1544830D01*
G01*
X119720000Y-99000000D02*
G75*
G02*
X114170000Y-100544830I-2990000J0D01*
G01*
X119230000Y-99000000D02*
G75*
G02*
X114230000Y-99000000I-2500000J0D01*
G01*
X114230000Y-99000000D02*
G75*
G02*
X119230000Y-99000000I2500000J0D01*
G01*
%TO.C,J1*%
D11*
X121500000Y-72000000D02*
X131500000Y-72000000D01*
X121500000Y-79600000D02*
X121500000Y-72000000D01*
X131500000Y-72000000D02*
X131500000Y-79600000D01*
X131500000Y-79600000D02*
X121500000Y-79600000D01*
D12*
X129100000Y-71000000D02*
G75*
G02*
X128900000Y-71000000I-100000J0D01*
G01*
X128900000Y-71000000D02*
G75*
G02*
X129100000Y-71000000I100000J0D01*
G01*
%TO.C,R3*%
D10*
X119930000Y-81580000D02*
X130070000Y-81580000D01*
X119930000Y-82060000D02*
X119930000Y-81580000D01*
X119930000Y-84940000D02*
X119930000Y-85420000D01*
X119930000Y-85420000D02*
X130070000Y-85420000D01*
X130070000Y-81580000D02*
X130070000Y-82060000D01*
X130070000Y-85420000D02*
X130070000Y-84940000D01*
%TO.C,R2*%
X113080000Y-76080000D02*
X113080000Y-86220000D01*
X113080000Y-86220000D02*
X113560000Y-86220000D01*
X113560000Y-76080000D02*
X113080000Y-76080000D01*
X116440000Y-76080000D02*
X116920000Y-76080000D01*
X116920000Y-76080000D02*
X116920000Y-86220000D01*
X116920000Y-86220000D02*
X116440000Y-86220000D01*
%TO.C,R5*%
X119930000Y-87080000D02*
X119930000Y-87560000D01*
X119930000Y-90920000D02*
X119930000Y-90440000D01*
X130070000Y-87080000D02*
X119930000Y-87080000D01*
X130070000Y-87560000D02*
X130070000Y-87080000D01*
X130070000Y-90440000D02*
X130070000Y-90920000D01*
X130070000Y-90920000D02*
X119930000Y-90920000D01*
%TO.C,C2*%
X118765000Y-77238748D02*
X118765000Y-77761252D01*
X120235000Y-77238748D02*
X120235000Y-77761252D01*
%TO.C,J2*%
D11*
X101079724Y-72000000D02*
X111079724Y-72000000D01*
X101079724Y-79600000D02*
X101079724Y-72000000D01*
X111079724Y-72000000D02*
X111079724Y-79600000D01*
X111079724Y-79600000D02*
X101079724Y-79600000D01*
D12*
X108679724Y-71000000D02*
G75*
G02*
X108479724Y-71000000I-100000J0D01*
G01*
X108479724Y-71000000D02*
G75*
G02*
X108679724Y-71000000I100000J0D01*
G01*
%TO.C,U2*%
D10*
X103350000Y-91360000D02*
X103350000Y-101640000D01*
X103350000Y-101640000D02*
X108650000Y-101640000D01*
X105000000Y-91360000D02*
X103350000Y-91360000D01*
X108650000Y-91360000D02*
X107000000Y-91360000D01*
X108650000Y-101640000D02*
X108650000Y-91360000D01*
X107000000Y-91360000D02*
G75*
G02*
X105000000Y-91360000I-1000000J0D01*
G01*
%TD*%
M02*
