<?xml version="1.0" standalone="no"?>
 <!DOCTYPE svg PUBLIC "-//W3C//DTD SVG 1.1//EN" 
 "http://www.w3.org/Graphics/SVG/1.1/DTD/svg11.dtd"> 
<svg
  xmlns:svg="http://www.w3.org/2000/svg"
  xmlns="http://www.w3.org/2000/svg"
  xmlns:xlink="http://www.w3.org/1999/xlink"
  xmlns:inkscape="http://www.inkscape.org/namespaces/inkscape"
  version="1.1"
  width="36.3220mm" height="33.2994mm" viewBox="0.0000 0.0000 36.3220 33.2994">
<title>SVG Image created as pcb.svg date 2026-09-12T04:16:32 </title>
  <desc>Image generated by PCBNEW </desc>
<g style="fill:#000000; fill-opacity:1.0000;stroke:#000000; stroke-opacity:1.0000;
stroke-linecap:round; stroke-linejoin:round;"
 transform="translate(0 0) scale(1 1)">
</g>
<g style="fill:none; 
stroke:#C872AB; stroke-width:0.1500; stroke-opacity:1; 
stroke-linecap:round; stroke-linejoin:round;">
<path d="M-183.1671 -81.3614
L-75.1671 -81.3614
L-75.1671 -49.3614
L-183.1671 -49.3614
L-183.1671 -81.3614
" />
<path d="M-89.5000 -60.6807
L-73.1671 -60.6807
L-73.1671 -47.3614
L-89.5000 -47.3614
L-89.5000 -60.6807
" />
<path d="M-87.5000 -58.6807
L-75.1671 -58.6807
L-75.1671 -49.3614
L-87.5000 -49.3614
L-87.5000 -58.6807
" />
<path d="M-39.5000 -58.6807
L-39.5000 -60.6807
" />
<text x="-64.5000" y="-59.0307"
textLength="1.4281" font-size="1.7333" lengthAdjust="spacingAndGlyphs"
text-anchor="start" opacity="0" stroke-opacity="0">1</text>
<g class="stroked-text"><desc>1</desc>
<path d="M-63.4108 -59.0871
L-64.1537 -59.0871
" />
<path d="M-63.7823 -59.0871
L-63.7823 -60.3871
" />
<path d="M-63.7823 -60.3871
L-63.9061 -60.2014
" />
<path d="M-63.9061 -60.2014
L-64.0299 -60.0776
" />
<path d="M-64.0299 -60.0776
L-64.1537 -60.0157
" />
</g><path d="M-39.5000 -49.3614
L-39.5000 -47.3614
" />
<text x="-64.5000" y="-47.7114"
textLength="1.4281" font-size="1.7333" lengthAdjust="spacingAndGlyphs"
text-anchor="start" opacity="0" stroke-opacity="0">1</text>
<g class="stroked-text"><desc>1</desc>
<path d="M-63.4108 -47.7678
L-64.1537 -47.7678
" />
<path d="M-63.7823 -47.7678
L-63.7823 -49.0678
" />
<path d="M-63.7823 -49.0678
L-63.9061 -48.8821
" />
<path d="M-63.9061 -48.8821
L-64.0299 -48.7583
" />
<path d="M-64.0299 -48.7583
L-64.1537 -48.6964
" />
</g><path d="M-89.5000 -10.6807
L-87.5000 -10.6807
" />
<text x="-88.5000" y="-35.0307"
textLength="1.3043" font-size="1.7333" lengthAdjust="spacingAndGlyphs"
text-anchor="middle" opacity="0" stroke-opacity="0">A</text>
<g class="stroked-text"><desc>A</desc>
<path d="M-88.8095 -35.4585
L-88.1905 -35.4585
" />
<path d="M-88.9333 -35.0871
L-88.5000 -36.3871
" />
<path d="M-88.5000 -36.3871
L-88.0667 -35.0871
" />
</g><path d="M-73.1671 -10.6807
L-75.1671 -10.6807
" />
<text x="-74.1671" y="-35.0307"
textLength="1.3043" font-size="1.7333" lengthAdjust="spacingAndGlyphs"
text-anchor="middle" opacity="0" stroke-opacity="0">A</text>
<g class="stroked-text"><desc>A</desc>
<path d="M-74.4766 -35.4585
L-73.8576 -35.4585
" />
<path d="M-74.6004 -35.0871
L-74.1671 -36.3871
" />
<path d="M-74.1671 -36.3871
L-73.7337 -35.0871
" />
</g><text x="-160.1671" y="-53.5114"
textLength="7.0071" font-size="2.0000" lengthAdjust="spacingAndGlyphs"
text-anchor="start" opacity="0" stroke-opacity="0">Date: </text>
<g class="stroked-text"><desc>Date: </desc>
<path d="M-159.7112 -53.5753
L-159.7112 -55.0753
" />
<path d="M-159.7112 -55.0753
L-159.3541 -55.0753
" />
<path d="M-159.3541 -55.0753
L-159.1398 -55.0038
" />
<path d="M-159.1398 -55.0038
L-158.9970 -54.8610
" />
<path d="M-158.9970 -54.8610
L-158.9255 -54.7181
" />
<path d="M-158.9255 -54.7181
L-158.8541 -54.4324
" />
<path d="M-158.8541 -54.4324
L-158.8541 -54.2181
" />
<path d="M-158.8541 -54.2181
L-158.9255 -53.9324
" />
<path d="M-158.9255 -53.9324
L-158.9970 -53.7895
" />
<path d="M-158.9970 -53.7895
L-159.1398 -53.6467
" />
<path d="M-159.1398 -53.6467
L-159.3541 -53.5753
" />
<path d="M-159.3541 -53.5753
L-159.7112 -53.5753
" />
<path d="M-157.5684 -53.5753
L-157.5684 -54.3610
" />
<path d="M-157.5684 -54.3610
L-157.6398 -54.5038
" />
<path d="M-157.6398 -54.5038
L-157.7827 -54.5753
" />
<path d="M-157.7827 -54.5753
L-158.0684 -54.5753
" />
<path d="M-158.0684 -54.5753
L-158.2112 -54.5038
" />
<path d="M-157.5684 -53.6467
L-157.7112 -53.5753
" />
<path d="M-157.7112 -53.5753
L-158.0684 -53.5753
" />
<path d="M-158.0684 -53.5753
L-158.2112 -53.6467
" />
<path d="M-158.2112 -53.6467
L-158.2827 -53.7895
" />
<path d="M-158.2827 -53.7895
L-158.2827 -53.9324
" />
<path d="M-158.2827 -53.9324
L-158.2112 -54.0753
" />
<path d="M-158.2112 -54.0753
L-158.0684 -54.1467
" />
<path d="M-158.0684 -54.1467
L-157.7112 -54.1467
" />
<path d="M-157.7112 -54.1467
L-157.5684 -54.2181
" />
<path d="M-157.0684 -54.5753
L-156.4970 -54.5753
" />
<path d="M-156.8541 -55.0753
L-156.8541 -53.7895
" />
<path d="M-156.8541 -53.7895
L-156.7827 -53.6467
" />
<path d="M-156.7827 -53.6467
L-156.6398 -53.5753
" />
<path d="M-156.6398 -53.5753
L-156.4970 -53.5753
" />
<path d="M-155.4255 -53.6467
L-155.5684 -53.5753
" />
<path d="M-155.5684 -53.5753
L-155.8541 -53.5753
" />
<path d="M-155.8541 -53.5753
L-155.9970 -53.6467
" />
<path d="M-155.9970 -53.6467
L-156.0684 -53.7895
" />
<path d="M-156.0684 -53.7895
L-156.0684 -54.3610
" />
<path d="M-156.0684 -54.3610
L-155.9970 -54.5038
" />
<path d="M-155.9970 -54.5038
L-155.8541 -54.5753
" />
<path d="M-155.8541 -54.5753
L-155.5684 -54.5753
" />
<path d="M-155.5684 -54.5753
L-155.4255 -54.5038
" />
<path d="M-155.4255 -54.5038
L-155.3541 -54.3610
" />
<path d="M-155.3541 -54.3610
L-155.3541 -54.2181
" />
<path d="M-155.3541 -54.2181
L-156.0684 -54.0753
" />
<path d="M-154.7112 -53.7181
L-154.6398 -53.6467
" />
<path d="M-154.6398 -53.6467
L-154.7112 -53.5753
" />
<path d="M-154.7112 -53.5753
L-154.7827 -53.6467
" />
<path d="M-154.7827 -53.6467
L-154.7112 -53.7181
" />
<path d="M-154.7112 -53.7181
L-154.7112 -53.5753
" />
<path d="M-154.7112 -54.5038
L-154.6398 -54.4324
" />
<path d="M-154.6398 -54.4324
L-154.7112 -54.3610
" />
<path d="M-154.7112 -54.3610
L-154.7827 -54.4324
" />
<path d="M-154.7827 -54.4324
L-154.7112 -54.5038
" />
<path d="M-154.7112 -54.5038
L-154.7112 -54.3610
" />
</g><path d="M-183.1671 -52.8614
L-75.1671 -52.8614
" />
<text x="-182.1671" y="-50.7114"
textLength="22.2929" font-size="2.0000" lengthAdjust="spacingAndGlyphs"
text-anchor="start" opacity="0" stroke-opacity="0">KiCad E.D.A. 10.0.5</text>
<g class="stroked-text"><desc>KiCad E.D.A. 10.0.5</desc>
<path d="M-181.7112 -50.7753
L-181.7112 -52.2753
" />
<path d="M-180.8541 -50.7753
L-181.4970 -51.6324
" />
<path d="M-180.8541 -52.2753
L-181.7112 -51.4181
" />
<path d="M-180.2112 -50.7753
L-180.2112 -51.7753
" />
<path d="M-180.2112 -52.2753
L-180.2827 -52.2038
" />
<path d="M-180.2827 -52.2038
L-180.2112 -52.1324
" />
<path d="M-180.2112 -52.1324
L-180.1398 -52.2038
" />
<path d="M-180.1398 -52.2038
L-180.2112 -52.2753
" />
<path d="M-180.2112 -52.2753
L-180.2112 -52.1324
" />
<path d="M-178.6398 -50.9181
L-178.7112 -50.8467
" />
<path d="M-178.7112 -50.8467
L-178.9255 -50.7753
" />
<path d="M-178.9255 -50.7753
L-179.0684 -50.7753
" />
<path d="M-179.0684 -50.7753
L-179.2827 -50.8467
" />
<path d="M-179.2827 -50.8467
L-179.4255 -50.9895
" />
<path d="M-179.4255 -50.9895
L-179.4970 -51.1324
" />
<path d="M-179.4970 -51.1324
L-179.5684 -51.4181
" />
<path d="M-179.5684 -51.4181
L-179.5684 -51.6324
" />
<path d="M-179.5684 -51.6324
L-179.4970 -51.9181
" />
<path d="M-179.4970 -51.9181
L-179.4255 -52.0610
" />
<path d="M-179.4255 -52.0610
L-179.2827 -52.2038
" />
<path d="M-179.2827 -52.2038
L-179.0684 -52.2753
" />
<path d="M-179.0684 -52.2753
L-178.9255 -52.2753
" />
<path d="M-178.9255 -52.2753
L-178.7112 -52.2038
" />
<path d="M-178.7112 -52.2038
L-178.6398 -52.1324
" />
<path d="M-177.3541 -50.7753
L-177.3541 -51.5610
" />
<path d="M-177.3541 -51.5610
L-177.4255 -51.7038
" />
<path d="M-177.4255 -51.7038
L-177.5684 -51.7753
" />
<path d="M-177.5684 -51.7753
L-177.8541 -51.7753
" />
<path d="M-177.8541 -51.7753
L-177.9970 -51.7038
" />
<path d="M-177.3541 -50.8467
L-177.4970 -50.7753
" />
<path d="M-177.4970 -50.7753
L-177.8541 -50.7753
" />
<path d="M-177.8541 -50.7753
L-177.9970 -50.8467
" />
<path d="M-177.9970 -50.8467
L-178.0684 -50.9895
" />
<path d="M-178.0684 -50.9895
L-178.0684 -51.1324
" />
<path d="M-178.0684 -51.1324
L-177.9970 -51.2753
" />
<path d="M-177.9970 -51.2753
L-177.8541 -51.3467
" />
<path d="M-177.8541 -51.3467
L-177.4970 -51.3467
" />
<path d="M-177.4970 -51.3467
L-177.3541 -51.4181
" />
<path d="M-175.9970 -50.7753
L-175.9970 -52.2753
" />
<path d="M-175.9970 -50.8467
L-176.1398 -50.7753
" />
<path d="M-176.1398 -50.7753
L-176.4255 -50.7753
" />
<path d="M-176.4255 -50.7753
L-176.5684 -50.8467
" />
<path d="M-176.5684 -50.8467
L-176.6398 -50.9181
" />
<path d="M-176.6398 -50.9181
L-176.7112 -51.0610
" />
<path d="M-176.7112 -51.0610
L-176.7112 -51.4895
" />
<path d="M-176.7112 -51.4895
L-176.6398 -51.6324
" />
<path d="M-176.6398 -51.6324
L-176.5684 -51.7038
" />
<path d="M-176.5684 -51.7038
L-176.4255 -51.7753
" />
<path d="M-176.4255 -51.7753
L-176.1398 -51.7753
" />
<path d="M-176.1398 -51.7753
L-175.9970 -51.7038
" />
<path d="M-174.1398 -51.5610
L-173.6398 -51.5610
" />
<path d="M-173.4255 -50.7753
L-174.1398 -50.7753
" />
<path d="M-174.1398 -50.7753
L-174.1398 -52.2753
" />
<path d="M-174.1398 -52.2753
L-173.4255 -52.2753
" />
<path d="M-172.7827 -50.9181
L-172.7112 -50.8467
" />
<path d="M-172.7112 -50.8467
L-172.7827 -50.7753
" />
<path d="M-172.7827 -50.7753
L-172.8541 -50.8467
" />
<path d="M-172.8541 -50.8467
L-172.7827 -50.9181
" />
<path d="M-172.7827 -50.9181
L-172.7827 -50.7753
" />
<path d="M-172.0684 -50.7753
L-172.0684 -52.2753
" />
<path d="M-172.0684 -52.2753
L-171.7112 -52.2753
" />
<path d="M-171.7112 -52.2753
L-171.4970 -52.2038
" />
<path d="M-171.4970 -52.2038
L-171.3541 -52.0610
" />
<path d="M-171.3541 -52.0610
L-171.2827 -51.9181
" />
<path d="M-171.2827 -51.9181
L-171.2112 -51.6324
" />
<path d="M-171.2112 -51.6324
L-171.2112 -51.4181
" />
<path d="M-171.2112 -51.4181
L-171.2827 -51.1324
" />
<path d="M-171.2827 -51.1324
L-171.3541 -50.9895
" />
<path d="M-171.3541 -50.9895
L-171.4970 -50.8467
" />
<path d="M-171.4970 -50.8467
L-171.7112 -50.7753
" />
<path d="M-171.7112 -50.7753
L-172.0684 -50.7753
" />
<path d="M-170.5684 -50.9181
L-170.4970 -50.8467
" />
<path d="M-170.4970 -50.8467
L-170.5684 -50.7753
" />
<path d="M-170.5684 -50.7753
L-170.6398 -50.8467
" />
<path d="M-170.6398 -50.8467
L-170.5684 -50.9181
" />
<path d="M-170.5684 -50.9181
L-170.5684 -50.7753
" />
<path d="M-169.9255 -51.2038
L-169.2112 -51.2038
" />
<path d="M-170.0684 -50.7753
L-169.5684 -52.2753
" />
<path d="M-169.5684 -52.2753
L-169.0684 -50.7753
" />
<path d="M-168.5684 -50.9181
L-168.4970 -50.8467
" />
<path d="M-168.4970 -50.8467
L-168.5684 -50.7753
" />
<path d="M-168.5684 -50.7753
L-168.6398 -50.8467
" />
<path d="M-168.6398 -50.8467
L-168.5684 -50.9181
" />
<path d="M-168.5684 -50.9181
L-168.5684 -50.7753
" />
<path d="M-165.9255 -50.7753
L-166.7827 -50.7753
" />
<path d="M-166.3541 -50.7753
L-166.3541 -52.2753
" />
<path d="M-166.3541 -52.2753
L-166.4970 -52.0610
" />
<path d="M-166.4970 -52.0610
L-166.6398 -51.9181
" />
<path d="M-166.6398 -51.9181
L-166.7827 -51.8467
" />
<path d="M-164.9970 -52.2753
L-164.8541 -52.2753
" />
<path d="M-164.8541 -52.2753
L-164.7112 -52.2038
" />
<path d="M-164.7112 -52.2038
L-164.6398 -52.1324
" />
<path d="M-164.6398 -52.1324
L-164.5684 -51.9895
" />
<path d="M-164.5684 -51.9895
L-164.4970 -51.7038
" />
<path d="M-164.4970 -51.7038
L-164.4970 -51.3467
" />
<path d="M-164.4970 -51.3467
L-164.5684 -51.0610
" />
<path d="M-164.5684 -51.0610
L-164.6398 -50.9181
" />
<path d="M-164.6398 -50.9181
L-164.7112 -50.8467
" />
<path d="M-164.7112 -50.8467
L-164.8541 -50.7753
" />
<path d="M-164.8541 -50.7753
L-164.9970 -50.7753
" />
<path d="M-164.9970 -50.7753
L-165.1398 -50.8467
" />
<path d="M-165.1398 -50.8467
L-165.2112 -50.9181
" />
<path d="M-165.2112 -50.9181
L-165.2827 -51.0610
" />
<path d="M-165.2827 -51.0610
L-165.3541 -51.3467
" />
<path d="M-165.3541 -51.3467
L-165.3541 -51.7038
" />
<path d="M-165.3541 -51.7038
L-165.2827 -51.9895
" />
<path d="M-165.2827 -51.9895
L-165.2112 -52.1324
" />
<path d="M-165.2112 -52.1324
L-165.1398 -52.2038
" />
<path d="M-165.1398 -52.2038
L-164.9970 -52.2753
" />
<path d="M-163.8541 -50.9181
L-163.7827 -50.8467
" />
<path d="M-163.7827 -50.8467
L-163.8541 -50.7753
" />
<path d="M-163.8541 -50.7753
L-163.9255 -50.8467
" />
<path d="M-163.9255 -50.8467
L-163.8541 -50.9181
" />
<path d="M-163.8541 -50.9181
L-163.8541 -50.7753
" />
<path d="M-162.8541 -52.2753
L-162.7112 -52.2753
" />
<path d="M-162.7112 -52.2753
L-162.5684 -52.2038
" />
<path d="M-162.5684 -52.2038
L-162.4970 -52.1324
" />
<path d="M-162.4970 -52.1324
L-162.4255 -51.9895
" />
<path d="M-162.4255 -51.9895
L-162.3541 -51.7038
" />
<path d="M-162.3541 -51.7038
L-162.3541 -51.3467
" />
<path d="M-162.3541 -51.3467
L-162.4255 -51.0610
" />
<path d="M-162.4255 -51.0610
L-162.4970 -50.9181
" />
<path d="M-162.4970 -50.9181
L-162.5684 -50.8467
" />
<path d="M-162.5684 -50.8467
L-162.7112 -50.7753
" />
<path d="M-162.7112 -50.7753
L-162.8541 -50.7753
" />
<path d="M-162.8541 -50.7753
L-162.9970 -50.8467
" />
<path d="M-162.9970 -50.8467
L-163.0684 -50.9181
" />
<path d="M-163.0684 -50.9181
L-163.1398 -51.0610
" />
<path d="M-163.1398 -51.0610
L-163.2112 -51.3467
" />
<path d="M-163.2112 -51.3467
L-163.2112 -51.7038
" />
<path d="M-163.2112 -51.7038
L-163.1398 -51.9895
" />
<path d="M-163.1398 -51.9895
L-163.0684 -52.1324
" />
<path d="M-163.0684 -52.1324
L-162.9970 -52.2038
" />
<path d="M-162.9970 -52.2038
L-162.8541 -52.2753
" />
<path d="M-161.7112 -50.9181
L-161.6398 -50.8467
" />
<path d="M-161.6398 -50.8467
L-161.7112 -50.7753
" />
<path d="M-161.7112 -50.7753
L-161.7827 -50.8467
" />
<path d="M-161.7827 -50.8467
L-161.7112 -50.9181
" />
<path d="M-161.7112 -50.9181
L-161.7112 -50.7753
" />
<path d="M-160.2827 -52.2753
L-160.9970 -52.2753
" />
<path d="M-160.9970 -52.2753
L-161.0684 -51.5610
" />
<path d="M-161.0684 -51.5610
L-160.9970 -51.6324
" />
<path d="M-160.9970 -51.6324
L-160.8541 -51.7038
" />
<path d="M-160.8541 -51.7038
L-160.4970 -51.7038
" />
<path d="M-160.4970 -51.7038
L-160.3541 -51.6324
" />
<path d="M-160.3541 -51.6324
L-160.2827 -51.5610
" />
<path d="M-160.2827 -51.5610
L-160.2112 -51.4181
" />
<path d="M-160.2112 -51.4181
L-160.2112 -51.0610
" />
<path d="M-160.2112 -51.0610
L-160.2827 -50.9181
" />
<path d="M-160.2827 -50.9181
L-160.3541 -50.8467
" />
<path d="M-160.3541 -50.8467
L-160.4970 -50.7753
" />
<path d="M-160.4970 -50.7753
L-160.8541 -50.7753
" />
<path d="M-160.8541 -50.7753
L-160.9970 -50.8467
" />
<path d="M-160.9970 -50.8467
L-161.0684 -50.9181
" />
</g><path d="M-183.1671 -55.8614
L-75.1671 -55.8614
" />
</g>
<g style="fill:none; 
stroke:#C872AB; stroke-width:0.3000; stroke-opacity:1; 
stroke-linecap:round; stroke-linejoin:round;">
<text x="-97.1671" y="-53.5114"
textLength="6.3857" font-size="2.0000" lengthAdjust="spacingAndGlyphs"
text-anchor="start" opacity="0" stroke-opacity="0">Rev: </text>
<g class="stroked-text"><desc>Rev: </desc>
<path d="M-95.7554 -53.5831
L-96.2554 -54.2973
" />
<path d="M-96.6126 -53.5831
L-96.6126 -55.0831
" />
<path d="M-96.6126 -55.0831
L-96.0411 -55.0831
" />
<path d="M-96.0411 -55.0831
L-95.8983 -55.0116
" />
<path d="M-95.8983 -55.0116
L-95.8268 -54.9402
" />
<path d="M-95.8268 -54.9402
L-95.7554 -54.7973
" />
<path d="M-95.7554 -54.7973
L-95.7554 -54.5831
" />
<path d="M-95.7554 -54.5831
L-95.8268 -54.4402
" />
<path d="M-95.8268 -54.4402
L-95.8983 -54.3688
" />
<path d="M-95.8983 -54.3688
L-96.0411 -54.2973
" />
<path d="M-96.0411 -54.2973
L-96.6126 -54.2973
" />
<path d="M-94.5411 -53.6545
L-94.6840 -53.5831
" />
<path d="M-94.6840 -53.5831
L-94.9697 -53.5831
" />
<path d="M-94.9697 -53.5831
L-95.1126 -53.6545
" />
<path d="M-95.1126 -53.6545
L-95.1840 -53.7973
" />
<path d="M-95.1840 -53.7973
L-95.1840 -54.3688
" />
<path d="M-95.1840 -54.3688
L-95.1126 -54.5116
" />
<path d="M-95.1126 -54.5116
L-94.9697 -54.5831
" />
<path d="M-94.9697 -54.5831
L-94.6840 -54.5831
" />
<path d="M-94.6840 -54.5831
L-94.5411 -54.5116
" />
<path d="M-94.5411 -54.5116
L-94.4697 -54.3688
" />
<path d="M-94.4697 -54.3688
L-94.4697 -54.2259
" />
<path d="M-94.4697 -54.2259
L-95.1840 -54.0831
" />
<path d="M-93.9697 -54.5831
L-93.6126 -53.5831
" />
<path d="M-93.6126 -53.5831
L-93.2554 -54.5831
" />
<path d="M-92.6840 -53.7259
L-92.6126 -53.6545
" />
<path d="M-92.6126 -53.6545
L-92.6840 -53.5831
" />
<path d="M-92.6840 -53.5831
L-92.7554 -53.6545
" />
<path d="M-92.7554 -53.6545
L-92.6840 -53.7259
" />
<path d="M-92.6840 -53.7259
L-92.6840 -53.5831
" />
<path d="M-92.6840 -54.5116
L-92.6126 -54.4402
" />
<path d="M-92.6126 -54.4402
L-92.6840 -54.3688
" />
<path d="M-92.6840 -54.3688
L-92.7554 -54.4402
" />
<path d="M-92.7554 -54.4402
L-92.6840 -54.5116
" />
<path d="M-92.6840 -54.5116
L-92.6840 -54.3688
" />
</g></g>
<g style="fill:none; 
stroke:#C872AB; stroke-width:0.1500; stroke-opacity:1; 
stroke-linecap:round; stroke-linejoin:round;">
<text x="-182.1671" y="-53.5114"
textLength="11.6500" font-size="2.0000" lengthAdjust="spacingAndGlyphs"
text-anchor="start" opacity="0" stroke-opacity="0">Size: User</text>
<g class="stroked-text"><desc>Size: User</desc>
<path d="M-181.7827 -53.6467
L-181.5684 -53.5753
" />
<path d="M-181.5684 -53.5753
L-181.2112 -53.5753
" />
<path d="M-181.2112 -53.5753
L-181.0684 -53.6467
" />
<path d="M-181.0684 -53.6467
L-180.9970 -53.7181
" />
<path d="M-180.9970 -53.7181
L-180.9255 -53.8610
" />
<path d="M-180.9255 -53.8610
L-180.9255 -54.0038
" />
<path d="M-180.9255 -54.0038
L-180.9970 -54.1467
" />
<path d="M-180.9970 -54.1467
L-181.0684 -54.2181
" />
<path d="M-181.0684 -54.2181
L-181.2112 -54.2895
" />
<path d="M-181.2112 -54.2895
L-181.4970 -54.3610
" />
<path d="M-181.4970 -54.3610
L-181.6398 -54.4324
" />
<path d="M-181.6398 -54.4324
L-181.7112 -54.5038
" />
<path d="M-181.7112 -54.5038
L-181.7827 -54.6467
" />
<path d="M-181.7827 -54.6467
L-181.7827 -54.7895
" />
<path d="M-181.7827 -54.7895
L-181.7112 -54.9324
" />
<path d="M-181.7112 -54.9324
L-181.6398 -55.0038
" />
<path d="M-181.6398 -55.0038
L-181.4970 -55.0753
" />
<path d="M-181.4970 -55.0753
L-181.1398 -55.0753
" />
<path d="M-181.1398 -55.0753
L-180.9255 -55.0038
" />
<path d="M-180.2827 -53.5753
L-180.2827 -54.5753
" />
<path d="M-180.2827 -55.0753
L-180.3541 -55.0038
" />
<path d="M-180.3541 -55.0038
L-180.2827 -54.9324
" />
<path d="M-180.2827 -54.9324
L-180.2112 -55.0038
" />
<path d="M-180.2112 -55.0038
L-180.2827 -55.0753
" />
<path d="M-180.2827 -55.0753
L-180.2827 -54.9324
" />
<path d="M-179.7112 -54.5753
L-178.9255 -54.5753
" />
<path d="M-178.9255 -54.5753
L-179.7112 -53.5753
" />
<path d="M-179.7112 -53.5753
L-178.9255 -53.5753
" />
<path d="M-177.7827 -53.6467
L-177.9255 -53.5753
" />
<path d="M-177.9255 -53.5753
L-178.2112 -53.5753
" />
<path d="M-178.2112 -53.5753
L-178.3541 -53.6467
" />
<path d="M-178.3541 -53.6467
L-178.4255 -53.7895
" />
<path d="M-178.4255 -53.7895
L-178.4255 -54.3610
" />
<path d="M-178.4255 -54.3610
L-178.3541 -54.5038
" />
<path d="M-178.3541 -54.5038
L-178.2112 -54.5753
" />
<path d="M-178.2112 -54.5753
L-177.9255 -54.5753
" />
<path d="M-177.9255 -54.5753
L-177.7827 -54.5038
" />
<path d="M-177.7827 -54.5038
L-177.7112 -54.3610
" />
<path d="M-177.7112 -54.3610
L-177.7112 -54.2181
" />
<path d="M-177.7112 -54.2181
L-178.4255 -54.0753
" />
<path d="M-177.0684 -53.7181
L-176.9970 -53.6467
" />
<path d="M-176.9970 -53.6467
L-177.0684 -53.5753
" />
<path d="M-177.0684 -53.5753
L-177.1398 -53.6467
" />
<path d="M-177.1398 -53.6467
L-177.0684 -53.7181
" />
<path d="M-177.0684 -53.7181
L-177.0684 -53.5753
" />
<path d="M-177.0684 -54.5038
L-176.9970 -54.4324
" />
<path d="M-176.9970 -54.4324
L-177.0684 -54.3610
" />
<path d="M-177.0684 -54.3610
L-177.1398 -54.4324
" />
<path d="M-177.1398 -54.4324
L-177.0684 -54.5038
" />
<path d="M-177.0684 -54.5038
L-177.0684 -54.3610
" />
<path d="M-175.2112 -55.0753
L-175.2112 -53.8610
" />
<path d="M-175.2112 -53.8610
L-175.1398 -53.7181
" />
<path d="M-175.1398 -53.7181
L-175.0684 -53.6467
" />
<path d="M-175.0684 -53.6467
L-174.9255 -53.5753
" />
<path d="M-174.9255 -53.5753
L-174.6398 -53.5753
" />
<path d="M-174.6398 -53.5753
L-174.4970 -53.6467
" />
<path d="M-174.4970 -53.6467
L-174.4255 -53.7181
" />
<path d="M-174.4255 -53.7181
L-174.3541 -53.8610
" />
<path d="M-174.3541 -53.8610
L-174.3541 -55.0753
" />
<path d="M-173.7112 -53.6467
L-173.5684 -53.5753
" />
<path d="M-173.5684 -53.5753
L-173.2827 -53.5753
" />
<path d="M-173.2827 -53.5753
L-173.1398 -53.6467
" />
<path d="M-173.1398 -53.6467
L-173.0684 -53.7895
" />
<path d="M-173.0684 -53.7895
L-173.0684 -53.8610
" />
<path d="M-173.0684 -53.8610
L-173.1398 -54.0038
" />
<path d="M-173.1398 -54.0038
L-173.2827 -54.0753
" />
<path d="M-173.2827 -54.0753
L-173.4970 -54.0753
" />
<path d="M-173.4970 -54.0753
L-173.6398 -54.1467
" />
<path d="M-173.6398 -54.1467
L-173.7112 -54.2895
" />
<path d="M-173.7112 -54.2895
L-173.7112 -54.3610
" />
<path d="M-173.7112 -54.3610
L-173.6398 -54.5038
" />
<path d="M-173.6398 -54.5038
L-173.4970 -54.5753
" />
<path d="M-173.4970 -54.5753
L-173.2827 -54.5753
" />
<path d="M-173.2827 -54.5753
L-173.1398 -54.5038
" />
<path d="M-171.8541 -53.6467
L-171.9970 -53.5753
" />
<path d="M-171.9970 -53.5753
L-172.2827 -53.5753
" />
<path d="M-172.2827 -53.5753
L-172.4255 -53.6467
" />
<path d="M-172.4255 -53.6467
L-172.4970 -53.7895
" />
<path d="M-172.4970 -53.7895
L-172.4970 -54.3610
" />
<path d="M-172.4970 -54.3610
L-172.4255 -54.5038
" />
<path d="M-172.4255 -54.5038
L-172.2827 -54.5753
" />
<path d="M-172.2827 -54.5753
L-171.9970 -54.5753
" />
<path d="M-171.9970 -54.5753
L-171.8541 -54.5038
" />
<path d="M-171.8541 -54.5038
L-171.7827 -54.3610
" />
<path d="M-171.7827 -54.3610
L-171.7827 -54.2181
" />
<path d="M-171.7827 -54.2181
L-172.4970 -54.0753
" />
<path d="M-171.1398 -53.5753
L-171.1398 -54.5753
" />
<path d="M-171.1398 -54.2895
L-171.0684 -54.4324
" />
<path d="M-171.0684 -54.4324
L-170.9970 -54.5038
" />
<path d="M-170.9970 -54.5038
L-170.8541 -54.5753
" />
<path d="M-170.8541 -54.5753
L-170.7112 -54.5753
" />
</g><text x="-97.1671" y="-50.7114"
textLength="8.5071" font-size="2.0000" lengthAdjust="spacingAndGlyphs"
text-anchor="start" opacity="0" stroke-opacity="0">Id: 1/1</text>
<g class="stroked-text"><desc>Id: 1/1</desc>
<path d="M-96.7112 -50.7753
L-96.7112 -52.2753
" />
<path d="M-95.3541 -50.7753
L-95.3541 -52.2753
" />
<path d="M-95.3541 -50.8467
L-95.4970 -50.7753
" />
<path d="M-95.4970 -50.7753
L-95.7827 -50.7753
" />
<path d="M-95.7827 -50.7753
L-95.9255 -50.8467
" />
<path d="M-95.9255 -50.8467
L-95.9970 -50.9181
" />
<path d="M-95.9970 -50.9181
L-96.0684 -51.0610
" />
<path d="M-96.0684 -51.0610
L-96.0684 -51.4895
" />
<path d="M-96.0684 -51.4895
L-95.9970 -51.6324
" />
<path d="M-95.9970 -51.6324
L-95.9255 -51.7038
" />
<path d="M-95.9255 -51.7038
L-95.7827 -51.7753
" />
<path d="M-95.7827 -51.7753
L-95.4970 -51.7753
" />
<path d="M-95.4970 -51.7753
L-95.3541 -51.7038
" />
<path d="M-94.6398 -50.9181
L-94.5684 -50.8467
" />
<path d="M-94.5684 -50.8467
L-94.6398 -50.7753
" />
<path d="M-94.6398 -50.7753
L-94.7112 -50.8467
" />
<path d="M-94.7112 -50.8467
L-94.6398 -50.9181
" />
<path d="M-94.6398 -50.9181
L-94.6398 -50.7753
" />
<path d="M-94.6398 -51.7038
L-94.5684 -51.6324
" />
<path d="M-94.5684 -51.6324
L-94.6398 -51.5610
" />
<path d="M-94.6398 -51.5610
L-94.7112 -51.6324
" />
<path d="M-94.7112 -51.6324
L-94.6398 -51.7038
" />
<path d="M-94.6398 -51.7038
L-94.6398 -51.5610
" />
<path d="M-91.9970 -50.7753
L-92.8541 -50.7753
" />
<path d="M-92.4255 -50.7753
L-92.4255 -52.2753
" />
<path d="M-92.4255 -52.2753
L-92.5684 -52.0610
" />
<path d="M-92.5684 -52.0610
L-92.7112 -51.9181
" />
<path d="M-92.7112 -51.9181
L-92.8541 -51.8467
" />
<path d="M-90.2827 -52.3467
L-91.5684 -50.4181
" />
<path d="M-88.9970 -50.7753
L-89.8541 -50.7753
" />
<path d="M-89.4255 -50.7753
L-89.4255 -52.2753
" />
<path d="M-89.4255 -52.2753
L-89.5684 -52.0610
" />
<path d="M-89.5684 -52.0610
L-89.7112 -51.9181
" />
<path d="M-89.7112 -51.9181
L-89.8541 -51.8467
" />
</g><path d="M-183.1671 -59.8614
L-75.1671 -59.8614
" />
</g>
<g style="fill:none; 
stroke:#C872AB; stroke-width:0.4000; stroke-opacity:1; 
stroke-linecap:round; stroke-linejoin:round;">
<text x="-182.1671" y="-57.0614"
textLength="9.6571" font-size="2.6667" lengthAdjust="spacingAndGlyphs"
text-anchor="start" opacity="0" stroke-opacity="0">Title: </text>
<g class="stroked-text"><desc>Title: </desc>
<path d="M-181.4753 -59.1569
L-180.3325 -59.1569
" />
<path d="M-181.1539 -57.1569
L-180.9039 -59.1569
" />
<path d="M-179.9158 -57.1569
L-179.7492 -58.4903
" />
<path d="M-179.6658 -59.1569
L-179.7730 -59.0617
" />
<path d="M-179.7730 -59.0617
L-179.6896 -58.9665
" />
<path d="M-179.6896 -58.9665
L-179.5825 -59.0617
" />
<path d="M-179.5825 -59.0617
L-179.6658 -59.1569
" />
<path d="M-179.6658 -59.1569
L-179.6896 -58.9665
" />
<path d="M-179.0825 -58.4903
L-178.3206 -58.4903
" />
<path d="M-178.7134 -59.1569
L-178.9277 -57.4427
" />
<path d="M-178.9277 -57.4427
L-178.8563 -57.2522
" />
<path d="M-178.8563 -57.2522
L-178.6777 -57.1569
" />
<path d="M-178.6777 -57.1569
L-178.4872 -57.1569
" />
<path d="M-177.5349 -57.1569
L-177.7134 -57.2522
" />
<path d="M-177.7134 -57.2522
L-177.7849 -57.4427
" />
<path d="M-177.7849 -57.4427
L-177.5706 -59.1569
" />
<path d="M-175.9992 -57.2522
L-176.2015 -57.1569
" />
<path d="M-176.2015 -57.1569
L-176.5825 -57.1569
" />
<path d="M-176.5825 -57.1569
L-176.7611 -57.2522
" />
<path d="M-176.7611 -57.2522
L-176.8325 -57.4427
" />
<path d="M-176.8325 -57.4427
L-176.7372 -58.2046
" />
<path d="M-176.7372 -58.2046
L-176.6182 -58.3950
" />
<path d="M-176.6182 -58.3950
L-176.4158 -58.4903
" />
<path d="M-176.4158 -58.4903
L-176.0349 -58.4903
" />
<path d="M-176.0349 -58.4903
L-175.8563 -58.3950
" />
<path d="M-175.8563 -58.3950
L-175.7849 -58.2046
" />
<path d="M-175.7849 -58.2046
L-175.8087 -58.0141
" />
<path d="M-175.8087 -58.0141
L-176.7849 -57.8236
" />
<path d="M-175.0349 -57.3474
L-174.9515 -57.2522
" />
<path d="M-174.9515 -57.2522
L-175.0587 -57.1569
" />
<path d="M-175.0587 -57.1569
L-175.1420 -57.2522
" />
<path d="M-175.1420 -57.2522
L-175.0349 -57.3474
" />
<path d="M-175.0349 -57.3474
L-175.0587 -57.1569
" />
<path d="M-174.9039 -58.3950
L-174.8206 -58.2998
" />
<path d="M-174.8206 -58.2998
L-174.9277 -58.2046
" />
<path d="M-174.9277 -58.2046
L-175.0111 -58.2998
" />
<path d="M-175.0111 -58.2998
L-174.9039 -58.3950
" />
<path d="M-174.9039 -58.3950
L-174.9277 -58.2046
" />
</g></g>
<g style="fill:none; 
stroke:#C872AB; stroke-width:0.1500; stroke-opacity:1; 
stroke-linecap:round; stroke-linejoin:round;">
<text x="-182.1671" y="-60.9114"
textLength="43.6500" font-size="2.0000" lengthAdjust="spacingAndGlyphs"
text-anchor="start" opacity="0" stroke-opacity="0">File: acs711_current_sensor.kicad_pcb</text>
<g class="stroked-text"><desc>File: acs711_current_sensor.kicad_pcb</desc>
<path d="M-181.2112 -61.7610
L-181.7112 -61.7610
" />
<path d="M-181.7112 -60.9753
L-181.7112 -62.4753
" />
<path d="M-181.7112 -62.4753
L-180.9970 -62.4753
" />
<path d="M-180.4255 -60.9753
L-180.4255 -61.9753
" />
<path d="M-180.4255 -62.4753
L-180.4970 -62.4038
" />
<path d="M-180.4970 -62.4038
L-180.4255 -62.3324
" />
<path d="M-180.4255 -62.3324
L-180.3541 -62.4038
" />
<path d="M-180.3541 -62.4038
L-180.4255 -62.4753
" />
<path d="M-180.4255 -62.4753
L-180.4255 -62.3324
" />
<path d="M-179.4970 -60.9753
L-179.6398 -61.0467
" />
<path d="M-179.6398 -61.0467
L-179.7112 -61.1895
" />
<path d="M-179.7112 -61.1895
L-179.7112 -62.4753
" />
<path d="M-178.3541 -61.0467
L-178.4970 -60.9753
" />
<path d="M-178.4970 -60.9753
L-178.7827 -60.9753
" />
<path d="M-178.7827 -60.9753
L-178.9255 -61.0467
" />
<path d="M-178.9255 -61.0467
L-178.9970 -61.1895
" />
<path d="M-178.9970 -61.1895
L-178.9970 -61.7610
" />
<path d="M-178.9970 -61.7610
L-178.9255 -61.9038
" />
<path d="M-178.9255 -61.9038
L-178.7827 -61.9753
" />
<path d="M-178.7827 -61.9753
L-178.4970 -61.9753
" />
<path d="M-178.4970 -61.9753
L-178.3541 -61.9038
" />
<path d="M-178.3541 -61.9038
L-178.2827 -61.7610
" />
<path d="M-178.2827 -61.7610
L-178.2827 -61.6181
" />
<path d="M-178.2827 -61.6181
L-178.9970 -61.4753
" />
<path d="M-177.6398 -61.1181
L-177.5684 -61.0467
" />
<path d="M-177.5684 -61.0467
L-177.6398 -60.9753
" />
<path d="M-177.6398 -60.9753
L-177.7112 -61.0467
" />
<path d="M-177.7112 -61.0467
L-177.6398 -61.1181
" />
<path d="M-177.6398 -61.1181
L-177.6398 -60.9753
" />
<path d="M-177.6398 -61.9038
L-177.5684 -61.8324
" />
<path d="M-177.5684 -61.8324
L-177.6398 -61.7610
" />
<path d="M-177.6398 -61.7610
L-177.7112 -61.8324
" />
<path d="M-177.7112 -61.8324
L-177.6398 -61.9038
" />
<path d="M-177.6398 -61.9038
L-177.6398 -61.7610
" />
<path d="M-175.1398 -60.9753
L-175.1398 -61.7610
" />
<path d="M-175.1398 -61.7610
L-175.2112 -61.9038
" />
<path d="M-175.2112 -61.9038
L-175.3541 -61.9753
" />
<path d="M-175.3541 -61.9753
L-175.6398 -61.9753
" />
<path d="M-175.6398 -61.9753
L-175.7827 -61.9038
" />
<path d="M-175.1398 -61.0467
L-175.2827 -60.9753
" />
<path d="M-175.2827 -60.9753
L-175.6398 -60.9753
" />
<path d="M-175.6398 -60.9753
L-175.7827 -61.0467
" />
<path d="M-175.7827 -61.0467
L-175.8541 -61.1895
" />
<path d="M-175.8541 -61.1895
L-175.8541 -61.3324
" />
<path d="M-175.8541 -61.3324
L-175.7827 -61.4753
" />
<path d="M-175.7827 -61.4753
L-175.6398 -61.5467
" />
<path d="M-175.6398 -61.5467
L-175.2827 -61.5467
" />
<path d="M-175.2827 -61.5467
L-175.1398 -61.6181
" />
<path d="M-173.7827 -61.0467
L-173.9255 -60.9753
" />
<path d="M-173.9255 -60.9753
L-174.2112 -60.9753
" />
<path d="M-174.2112 -60.9753
L-174.3541 -61.0467
" />
<path d="M-174.3541 -61.0467
L-174.4255 -61.1181
" />
<path d="M-174.4255 -61.1181
L-174.4970 -61.2610
" />
<path d="M-174.4970 -61.2610
L-174.4970 -61.6895
" />
<path d="M-174.4970 -61.6895
L-174.4255 -61.8324
" />
<path d="M-174.4255 -61.8324
L-174.3541 -61.9038
" />
<path d="M-174.3541 -61.9038
L-174.2112 -61.9753
" />
<path d="M-174.2112 -61.9753
L-173.9255 -61.9753
" />
<path d="M-173.9255 -61.9753
L-173.7827 -61.9038
" />
<path d="M-173.2112 -61.0467
L-173.0684 -60.9753
" />
<path d="M-173.0684 -60.9753
L-172.7827 -60.9753
" />
<path d="M-172.7827 -60.9753
L-172.6398 -61.0467
" />
<path d="M-172.6398 -61.0467
L-172.5684 -61.1895
" />
<path d="M-172.5684 -61.1895
L-172.5684 -61.2610
" />
<path d="M-172.5684 -61.2610
L-172.6398 -61.4038
" />
<path d="M-172.6398 -61.4038
L-172.7827 -61.4753
" />
<path d="M-172.7827 -61.4753
L-172.9970 -61.4753
" />
<path d="M-172.9970 -61.4753
L-173.1398 -61.5467
" />
<path d="M-173.1398 -61.5467
L-173.2112 -61.6895
" />
<path d="M-173.2112 -61.6895
L-173.2112 -61.7610
" />
<path d="M-173.2112 -61.7610
L-173.1398 -61.9038
" />
<path d="M-173.1398 -61.9038
L-172.9970 -61.9753
" />
<path d="M-172.9970 -61.9753
L-172.7827 -61.9753
" />
<path d="M-172.7827 -61.9753
L-172.6398 -61.9038
" />
<path d="M-172.0684 -62.4753
L-171.0684 -62.4753
" />
<path d="M-171.0684 -62.4753
L-171.7112 -60.9753
" />
<path d="M-169.7112 -60.9753
L-170.5684 -60.9753
" />
<path d="M-170.1398 -60.9753
L-170.1398 -62.4753
" />
<path d="M-170.1398 -62.4753
L-170.2827 -62.2610
" />
<path d="M-170.2827 -62.2610
L-170.4255 -62.1181
" />
<path d="M-170.4255 -62.1181
L-170.5684 -62.0467
" />
<path d="M-168.2827 -60.9753
L-169.1398 -60.9753
" />
<path d="M-168.7112 -60.9753
L-168.7112 -62.4753
" />
<path d="M-168.7112 -62.4753
L-168.8541 -62.2610
" />
<path d="M-168.8541 -62.2610
L-168.9970 -62.1181
" />
<path d="M-168.9970 -62.1181
L-169.1398 -62.0467
" />
<path d="M-167.9970 -60.8324
L-166.8541 -60.8324
" />
<path d="M-165.8541 -61.0467
L-165.9970 -60.9753
" />
<path d="M-165.9970 -60.9753
L-166.2827 -60.9753
" />
<path d="M-166.2827 -60.9753
L-166.4255 -61.0467
" />
<path d="M-166.4255 -61.0467
L-166.4970 -61.1181
" />
<path d="M-166.4970 -61.1181
L-166.5684 -61.2610
" />
<path d="M-166.5684 -61.2610
L-166.5684 -61.6895
" />
<path d="M-166.5684 -61.6895
L-166.4970 -61.8324
" />
<path d="M-166.4970 -61.8324
L-166.4255 -61.9038
" />
<path d="M-166.4255 -61.9038
L-166.2827 -61.9753
" />
<path d="M-166.2827 -61.9753
L-165.9970 -61.9753
" />
<path d="M-165.9970 -61.9753
L-165.8541 -61.9038
" />
<path d="M-164.5684 -61.9753
L-164.5684 -60.9753
" />
<path d="M-165.2112 -61.9753
L-165.2112 -61.1895
" />
<path d="M-165.2112 -61.1895
L-165.1398 -61.0467
" />
<path d="M-165.1398 -61.0467
L-164.9970 -60.9753
" />
<path d="M-164.9970 -60.9753
L-164.7827 -60.9753
" />
<path d="M-164.7827 -60.9753
L-164.6398 -61.0467
" />
<path d="M-164.6398 -61.0467
L-164.5684 -61.1181
" />
<path d="M-163.8541 -60.9753
L-163.8541 -61.9753
" />
<path d="M-163.8541 -61.6895
L-163.7827 -61.8324
" />
<path d="M-163.7827 -61.8324
L-163.7112 -61.9038
" />
<path d="M-163.7112 -61.9038
L-163.5684 -61.9753
" />
<path d="M-163.5684 -61.9753
L-163.4255 -61.9753
" />
<path d="M-162.9255 -60.9753
L-162.9255 -61.9753
" />
<path d="M-162.9255 -61.6895
L-162.8541 -61.8324
" />
<path d="M-162.8541 -61.8324
L-162.7827 -61.9038
" />
<path d="M-162.7827 -61.9038
L-162.6398 -61.9753
" />
<path d="M-162.6398 -61.9753
L-162.4970 -61.9753
" />
<path d="M-161.4255 -61.0467
L-161.5684 -60.9753
" />
<path d="M-161.5684 -60.9753
L-161.8541 -60.9753
" />
<path d="M-161.8541 -60.9753
L-161.9970 -61.0467
" />
<path d="M-161.9970 -61.0467
L-162.0684 -61.1895
" />
<path d="M-162.0684 -61.1895
L-162.0684 -61.7610
" />
<path d="M-162.0684 -61.7610
L-161.9970 -61.9038
" />
<path d="M-161.9970 -61.9038
L-161.8541 -61.9753
" />
<path d="M-161.8541 -61.9753
L-161.5684 -61.9753
" />
<path d="M-161.5684 -61.9753
L-161.4255 -61.9038
" />
<path d="M-161.4255 -61.9038
L-161.3541 -61.7610
" />
<path d="M-161.3541 -61.7610
L-161.3541 -61.6181
" />
<path d="M-161.3541 -61.6181
L-162.0684 -61.4753
" />
<path d="M-160.7113 -61.9753
L-160.7113 -60.9753
" />
<path d="M-160.7113 -61.8324
L-160.6398 -61.9038
" />
<path d="M-160.6398 -61.9038
L-160.4970 -61.9753
" />
<path d="M-160.4970 -61.9753
L-160.2827 -61.9753
" />
<path d="M-160.2827 -61.9753
L-160.1398 -61.9038
" />
<path d="M-160.1398 -61.9038
L-160.0684 -61.7610
" />
<path d="M-160.0684 -61.7610
L-160.0684 -60.9753
" />
<path d="M-159.5684 -61.9753
L-158.9970 -61.9753
" />
<path d="M-159.3541 -62.4753
L-159.3541 -61.1895
" />
<path d="M-159.3541 -61.1895
L-159.2827 -61.0467
" />
<path d="M-159.2827 -61.0467
L-159.1398 -60.9753
" />
<path d="M-159.1398 -60.9753
L-158.9970 -60.9753
" />
<path d="M-158.8541 -60.8324
L-157.7112 -60.8324
" />
<path d="M-157.4255 -61.0467
L-157.2827 -60.9753
" />
<path d="M-157.2827 -60.9753
L-156.9970 -60.9753
" />
<path d="M-156.9970 -60.9753
L-156.8541 -61.0467
" />
<path d="M-156.8541 -61.0467
L-156.7827 -61.1895
" />
<path d="M-156.7827 -61.1895
L-156.7827 -61.2610
" />
<path d="M-156.7827 -61.2610
L-156.8541 -61.4038
" />
<path d="M-156.8541 -61.4038
L-156.9970 -61.4753
" />
<path d="M-156.9970 -61.4753
L-157.2113 -61.4753
" />
<path d="M-157.2113 -61.4753
L-157.3541 -61.5467
" />
<path d="M-157.3541 -61.5467
L-157.4255 -61.6895
" />
<path d="M-157.4255 -61.6895
L-157.4255 -61.7610
" />
<path d="M-157.4255 -61.7610
L-157.3541 -61.9038
" />
<path d="M-157.3541 -61.9038
L-157.2113 -61.9753
" />
<path d="M-157.2113 -61.9753
L-156.9970 -61.9753
" />
<path d="M-156.9970 -61.9753
L-156.8541 -61.9038
" />
<path d="M-155.5684 -61.0467
L-155.7112 -60.9753
" />
<path d="M-155.7112 -60.9753
L-155.9970 -60.9753
" />
<path d="M-155.9970 -60.9753
L-156.1398 -61.0467
" />
<path d="M-156.1398 -61.0467
L-156.2112 -61.1895
" />
<path d="M-156.2112 -61.1895
L-156.2112 -61.7610
" />
<path d="M-156.2112 -61.7610
L-156.1398 -61.9038
" />
<path d="M-156.1398 -61.9038
L-155.9970 -61.9753
" />
<path d="M-155.9970 -61.9753
L-155.7112 -61.9753
" />
<path d="M-155.7112 -61.9753
L-155.5684 -61.9038
" />
<path d="M-155.5684 -61.9038
L-155.4970 -61.7610
" />
<path d="M-155.4970 -61.7610
L-155.4970 -61.6181
" />
<path d="M-155.4970 -61.6181
L-156.2112 -61.4753
" />
<path d="M-154.8541 -61.9753
L-154.8541 -60.9753
" />
<path d="M-154.8541 -61.8324
L-154.7827 -61.9038
" />
<path d="M-154.7827 -61.9038
L-154.6398 -61.9753
" />
<path d="M-154.6398 -61.9753
L-154.4255 -61.9753
" />
<path d="M-154.4255 -61.9753
L-154.2827 -61.9038
" />
<path d="M-154.2827 -61.9038
L-154.2113 -61.7610
" />
<path d="M-154.2113 -61.7610
L-154.2113 -60.9753
" />
<path d="M-153.5684 -61.0467
L-153.4255 -60.9753
" />
<path d="M-153.4255 -60.9753
L-153.1398 -60.9753
" />
<path d="M-153.1398 -60.9753
L-152.9970 -61.0467
" />
<path d="M-152.9970 -61.0467
L-152.9255 -61.1895
" />
<path d="M-152.9255 -61.1895
L-152.9255 -61.2610
" />
<path d="M-152.9255 -61.2610
L-152.9970 -61.4038
" />
<path d="M-152.9970 -61.4038
L-153.1398 -61.4753
" />
<path d="M-153.1398 -61.4753
L-153.3541 -61.4753
" />
<path d="M-153.3541 -61.4753
L-153.4970 -61.5467
" />
<path d="M-153.4970 -61.5467
L-153.5684 -61.6895
" />
<path d="M-153.5684 -61.6895
L-153.5684 -61.7610
" />
<path d="M-153.5684 -61.7610
L-153.4970 -61.9038
" />
<path d="M-153.4970 -61.9038
L-153.3541 -61.9753
" />
<path d="M-153.3541 -61.9753
L-153.1398 -61.9753
" />
<path d="M-153.1398 -61.9753
L-152.9970 -61.9038
" />
<path d="M-152.0684 -60.9753
L-152.2112 -61.0467
" />
<path d="M-152.2112 -61.0467
L-152.2827 -61.1181
" />
<path d="M-152.2827 -61.1181
L-152.3541 -61.2610
" />
<path d="M-152.3541 -61.2610
L-152.3541 -61.6895
" />
<path d="M-152.3541 -61.6895
L-152.2827 -61.8324
" />
<path d="M-152.2827 -61.8324
L-152.2112 -61.9038
" />
<path d="M-152.2112 -61.9038
L-152.0684 -61.9753
" />
<path d="M-152.0684 -61.9753
L-151.8541 -61.9753
" />
<path d="M-151.8541 -61.9753
L-151.7112 -61.9038
" />
<path d="M-151.7112 -61.9038
L-151.6398 -61.8324
" />
<path d="M-151.6398 -61.8324
L-151.5684 -61.6895
" />
<path d="M-151.5684 -61.6895
L-151.5684 -61.2610
" />
<path d="M-151.5684 -61.2610
L-151.6398 -61.1181
" />
<path d="M-151.6398 -61.1181
L-151.7112 -61.0467
" />
<path d="M-151.7112 -61.0467
L-151.8541 -60.9753
" />
<path d="M-151.8541 -60.9753
L-152.0684 -60.9753
" />
<path d="M-150.9255 -60.9753
L-150.9255 -61.9753
" />
<path d="M-150.9255 -61.6895
L-150.8541 -61.8324
" />
<path d="M-150.8541 -61.8324
L-150.7827 -61.9038
" />
<path d="M-150.7827 -61.9038
L-150.6398 -61.9753
" />
<path d="M-150.6398 -61.9753
L-150.4970 -61.9753
" />
<path d="M-149.9970 -61.1181
L-149.9255 -61.0467
" />
<path d="M-149.9255 -61.0467
L-149.9970 -60.9753
" />
<path d="M-149.9970 -60.9753
L-150.0684 -61.0467
" />
<path d="M-150.0684 -61.0467
L-149.9970 -61.1181
" />
<path d="M-149.9970 -61.1181
L-149.9970 -60.9753
" />
<path d="M-149.2827 -60.9753
L-149.2827 -62.4753
" />
<path d="M-149.1398 -61.5467
L-148.7112 -60.9753
" />
<path d="M-148.7112 -61.9753
L-149.2827 -61.4038
" />
<path d="M-148.0684 -60.9753
L-148.0684 -61.9753
" />
<path d="M-148.0684 -62.4753
L-148.1398 -62.4038
" />
<path d="M-148.1398 -62.4038
L-148.0684 -62.3324
" />
<path d="M-148.0684 -62.3324
L-147.9970 -62.4038
" />
<path d="M-147.9970 -62.4038
L-148.0684 -62.4753
" />
<path d="M-148.0684 -62.4753
L-148.0684 -62.3324
" />
<path d="M-146.7112 -61.0467
L-146.8541 -60.9753
" />
<path d="M-146.8541 -60.9753
L-147.1398 -60.9753
" />
<path d="M-147.1398 -60.9753
L-147.2827 -61.0467
" />
<path d="M-147.2827 -61.0467
L-147.3541 -61.1181
" />
<path d="M-147.3541 -61.1181
L-147.4255 -61.2610
" />
<path d="M-147.4255 -61.2610
L-147.4255 -61.6895
" />
<path d="M-147.4255 -61.6895
L-147.3541 -61.8324
" />
<path d="M-147.3541 -61.8324
L-147.2827 -61.9038
" />
<path d="M-147.2827 -61.9038
L-147.1398 -61.9753
" />
<path d="M-147.1398 -61.9753
L-146.8541 -61.9753
" />
<path d="M-146.8541 -61.9753
L-146.7112 -61.9038
" />
<path d="M-145.4255 -60.9753
L-145.4255 -61.7610
" />
<path d="M-145.4255 -61.7610
L-145.4970 -61.9038
" />
<path d="M-145.4970 -61.9038
L-145.6398 -61.9753
" />
<path d="M-145.6398 -61.9753
L-145.9255 -61.9753
" />
<path d="M-145.9255 -61.9753
L-146.0684 -61.9038
" />
<path d="M-145.4255 -61.0467
L-145.5684 -60.9753
" />
<path d="M-145.5684 -60.9753
L-145.9255 -60.9753
" />
<path d="M-145.9255 -60.9753
L-146.0684 -61.0467
" />
<path d="M-146.0684 -61.0467
L-146.1398 -61.1895
" />
<path d="M-146.1398 -61.1895
L-146.1398 -61.3324
" />
<path d="M-146.1398 -61.3324
L-146.0684 -61.4753
" />
<path d="M-146.0684 -61.4753
L-145.9255 -61.5467
" />
<path d="M-145.9255 -61.5467
L-145.5684 -61.5467
" />
<path d="M-145.5684 -61.5467
L-145.4255 -61.6181
" />
<path d="M-144.0684 -60.9753
L-144.0684 -62.4753
" />
<path d="M-144.0684 -61.0467
L-144.2112 -60.9753
" />
<path d="M-144.2112 -60.9753
L-144.4970 -60.9753
" />
<path d="M-144.4970 -60.9753
L-144.6398 -61.0467
" />
<path d="M-144.6398 -61.0467
L-144.7112 -61.1181
" />
<path d="M-144.7112 -61.1181
L-144.7827 -61.2610
" />
<path d="M-144.7827 -61.2610
L-144.7827 -61.6895
" />
<path d="M-144.7827 -61.6895
L-144.7112 -61.8324
" />
<path d="M-144.7112 -61.8324
L-144.6398 -61.9038
" />
<path d="M-144.6398 -61.9038
L-144.4970 -61.9753
" />
<path d="M-144.4970 -61.9753
L-144.2112 -61.9753
" />
<path d="M-144.2112 -61.9753
L-144.0684 -61.9038
" />
<path d="M-143.7112 -60.8324
L-142.5684 -60.8324
" />
<path d="M-142.2112 -61.9753
L-142.2112 -60.4753
" />
<path d="M-142.2112 -61.9038
L-142.0684 -61.9753
" />
<path d="M-142.0684 -61.9753
L-141.7827 -61.9753
" />
<path d="M-141.7827 -61.9753
L-141.6398 -61.9038
" />
<path d="M-141.6398 -61.9038
L-141.5684 -61.8324
" />
<path d="M-141.5684 -61.8324
L-141.4970 -61.6895
" />
<path d="M-141.4970 -61.6895
L-141.4970 -61.2610
" />
<path d="M-141.4970 -61.2610
L-141.5684 -61.1181
" />
<path d="M-141.5684 -61.1181
L-141.6398 -61.0467
" />
<path d="M-141.6398 -61.0467
L-141.7827 -60.9753
" />
<path d="M-141.7827 -60.9753
L-142.0684 -60.9753
" />
<path d="M-142.0684 -60.9753
L-142.2112 -61.0467
" />
<path d="M-140.2112 -61.0467
L-140.3541 -60.9753
" />
<path d="M-140.3541 -60.9753
L-140.6398 -60.9753
" />
<path d="M-140.6398 -60.9753
L-140.7827 -61.0467
" />
<path d="M-140.7827 -61.0467
L-140.8541 -61.1181
" />
<path d="M-140.8541 -61.1181
L-140.9255 -61.2610
" />
<path d="M-140.9255 -61.2610
L-140.9255 -61.6895
" />
<path d="M-140.9255 -61.6895
L-140.8541 -61.8324
" />
<path d="M-140.8541 -61.8324
L-140.7827 -61.9038
" />
<path d="M-140.7827 -61.9038
L-140.6398 -61.9753
" />
<path d="M-140.6398 -61.9753
L-140.3541 -61.9753
" />
<path d="M-140.3541 -61.9753
L-140.2112 -61.9038
" />
<path d="M-139.5684 -60.9753
L-139.5684 -62.4753
" />
<path d="M-139.5684 -61.9038
L-139.4255 -61.9753
" />
<path d="M-139.4255 -61.9753
L-139.1398 -61.9753
" />
<path d="M-139.1398 -61.9753
L-138.9970 -61.9038
" />
<path d="M-138.9970 -61.9038
L-138.9255 -61.8324
" />
<path d="M-138.9255 -61.8324
L-138.8541 -61.6895
" />
<path d="M-138.8541 -61.6895
L-138.8541 -61.2610
" />
<path d="M-138.8541 -61.2610
L-138.9255 -61.1181
" />
<path d="M-138.9255 -61.1181
L-138.9970 -61.0467
" />
<path d="M-138.9970 -61.0467
L-139.1398 -60.9753
" />
<path d="M-139.1398 -60.9753
L-139.4255 -60.9753
" />
<path d="M-139.4255 -60.9753
L-139.5684 -61.0467
" />
</g><path d="M-183.1671 -65.8614
L-75.1671 -65.8614
" />
<text x="-182.1671" y="-63.6114"
textLength="8.2214" font-size="2.0000" lengthAdjust="spacingAndGlyphs"
text-anchor="start" opacity="0" stroke-opacity="0">Sheet: </text>
<g class="stroked-text"><desc>Sheet: </desc>
<path d="M-181.7827 -63.7467
L-181.5684 -63.6753
" />
<path d="M-181.5684 -63.6753
L-181.2112 -63.6753
" />
<path d="M-181.2112 -63.6753
L-181.0684 -63.7467
" />
<path d="M-181.0684 -63.7467
L-180.9970 -63.8181
" />
<path d="M-180.9970 -63.8181
L-180.9255 -63.9610
" />
<path d="M-180.9255 -63.9610
L-180.9255 -64.1038
" />
<path d="M-180.9255 -64.1038
L-180.9970 -64.2467
" />
<path d="M-180.9970 -64.2467
L-181.0684 -64.3181
" />
<path d="M-181.0684 -64.3181
L-181.2112 -64.3895
" />
<path d="M-181.2112 -64.3895
L-181.4970 -64.4610
" />
<path d="M-181.4970 -64.4610
L-181.6398 -64.5324
" />
<path d="M-181.6398 -64.5324
L-181.7112 -64.6038
" />
<path d="M-181.7112 -64.6038
L-181.7827 -64.7467
" />
<path d="M-181.7827 -64.7467
L-181.7827 -64.8895
" />
<path d="M-181.7827 -64.8895
L-181.7112 -65.0324
" />
<path d="M-181.7112 -65.0324
L-181.6398 -65.1038
" />
<path d="M-181.6398 -65.1038
L-181.4970 -65.1753
" />
<path d="M-181.4970 -65.1753
L-181.1398 -65.1753
" />
<path d="M-181.1398 -65.1753
L-180.9255 -65.1038
" />
<path d="M-180.2827 -63.6753
L-180.2827 -65.1753
" />
<path d="M-179.6398 -63.6753
L-179.6398 -64.4610
" />
<path d="M-179.6398 -64.4610
L-179.7112 -64.6038
" />
<path d="M-179.7112 -64.6038
L-179.8541 -64.6753
" />
<path d="M-179.8541 -64.6753
L-180.0684 -64.6753
" />
<path d="M-180.0684 -64.6753
L-180.2112 -64.6038
" />
<path d="M-180.2112 -64.6038
L-180.2827 -64.5324
" />
<path d="M-178.3541 -63.7467
L-178.4970 -63.6753
" />
<path d="M-178.4970 -63.6753
L-178.7827 -63.6753
" />
<path d="M-178.7827 -63.6753
L-178.9255 -63.7467
" />
<path d="M-178.9255 -63.7467
L-178.9970 -63.8895
" />
<path d="M-178.9970 -63.8895
L-178.9970 -64.4610
" />
<path d="M-178.9970 -64.4610
L-178.9255 -64.6038
" />
<path d="M-178.9255 -64.6038
L-178.7827 -64.6753
" />
<path d="M-178.7827 -64.6753
L-178.4970 -64.6753
" />
<path d="M-178.4970 -64.6753
L-178.3541 -64.6038
" />
<path d="M-178.3541 -64.6038
L-178.2827 -64.4610
" />
<path d="M-178.2827 -64.4610
L-178.2827 -64.3181
" />
<path d="M-178.2827 -64.3181
L-178.9970 -64.1753
" />
<path d="M-177.0684 -63.7467
L-177.2112 -63.6753
" />
<path d="M-177.2112 -63.6753
L-177.4970 -63.6753
" />
<path d="M-177.4970 -63.6753
L-177.6398 -63.7467
" />
<path d="M-177.6398 -63.7467
L-177.7112 -63.8895
" />
<path d="M-177.7112 -63.8895
L-177.7112 -64.4610
" />
<path d="M-177.7112 -64.4610
L-177.6398 -64.6038
" />
<path d="M-177.6398 -64.6038
L-177.4970 -64.6753
" />
<path d="M-177.4970 -64.6753
L-177.2112 -64.6753
" />
<path d="M-177.2112 -64.6753
L-177.0684 -64.6038
" />
<path d="M-177.0684 -64.6038
L-176.9970 -64.4610
" />
<path d="M-176.9970 -64.4610
L-176.9970 -64.3181
" />
<path d="M-176.9970 -64.3181
L-177.7112 -64.1753
" />
<path d="M-176.5684 -64.6753
L-175.9970 -64.6753
" />
<path d="M-176.3541 -65.1753
L-176.3541 -63.8895
" />
<path d="M-176.3541 -63.8895
L-176.2827 -63.7467
" />
<path d="M-176.2827 -63.7467
L-176.1398 -63.6753
" />
<path d="M-176.1398 -63.6753
L-175.9970 -63.6753
" />
<path d="M-175.4970 -63.8181
L-175.4255 -63.7467
" />
<path d="M-175.4255 -63.7467
L-175.4970 -63.6753
" />
<path d="M-175.4970 -63.6753
L-175.5684 -63.7467
" />
<path d="M-175.5684 -63.7467
L-175.4970 -63.8181
" />
<path d="M-175.4970 -63.8181
L-175.4970 -63.6753
" />
<path d="M-175.4970 -64.6038
L-175.4255 -64.5324
" />
<path d="M-175.4255 -64.5324
L-175.4970 -64.4610
" />
<path d="M-175.4970 -64.4610
L-175.5684 -64.5324
" />
<path d="M-175.5684 -64.5324
L-175.4970 -64.6038
" />
<path d="M-175.4970 -64.6038
L-175.4970 -64.4610
" />
</g></g>
<g style="fill:none; 
stroke:#C872AB; stroke-width:0.3000; stroke-opacity:1; 
stroke-linecap:round; stroke-linejoin:round;">
<text x="-182.1671" y="-66.6114"
textLength="0.9000" font-size="2.0000" lengthAdjust="spacingAndGlyphs"
text-anchor="start" opacity="0" stroke-opacity="0"></text>
<g class="stroked-text"><desc></desc>
</g></g>
<g style="fill:none; 
stroke:#C872AB; stroke-width:0.1500; stroke-opacity:1; 
stroke-linecap:round; stroke-linejoin:round;">
<text x="-182.1671" y="-69.6114"
textLength="0.4500" font-size="2.0000" lengthAdjust="spacingAndGlyphs"
text-anchor="start" opacity="0" stroke-opacity="0"></text>
<g class="stroked-text"><desc></desc>
</g><text x="-182.1671" y="-72.6114"
textLength="0.4500" font-size="2.0000" lengthAdjust="spacingAndGlyphs"
text-anchor="start" opacity="0" stroke-opacity="0"></text>
<g class="stroked-text"><desc></desc>
</g><text x="-182.1671" y="-75.6114"
textLength="0.4500" font-size="2.0000" lengthAdjust="spacingAndGlyphs"
text-anchor="start" opacity="0" stroke-opacity="0"></text>
<g class="stroked-text"><desc></desc>
</g><text x="-182.1671" y="-78.6114"
textLength="0.4500" font-size="2.0000" lengthAdjust="spacingAndGlyphs"
text-anchor="start" opacity="0" stroke-opacity="0"></text>
<g class="stroked-text"><desc></desc>
</g><path d="M-163.1671 -55.8614
L-163.1671 -52.8614
" />
<path d="M-99.1671 -55.8614
L-99.1671 -49.3614
" />
</g>
<g style="fill:#C83434; fill-opacity:1.0000; stroke:none;">
<circle cx="31.8355" cy="22.7679" r="1.2000" /> 
<circle cx="19.1355" cy="22.7679" r="1.2000" /> 
<path style="fill:#C83434; fill-opacity:1.0000; stroke:none;fill-rule:evenodd;"
d="M 7.5550,11.3693
7.6124,11.3807
7.6611,11.4132
7.6936,11.4619
7.7050,11.5193
7.7050,13.1693
7.6936,13.2267
7.6611,13.2754
7.6124,13.3079
7.5550,13.3193
7.2550,13.3193
7.1976,13.3079
7.1489,13.2754
7.1164,13.2267
7.1050,13.1693
7.1050,11.5193
7.1164,11.4619
7.1489,11.4132
7.1976,11.3807
7.2550,11.3693
Z" /> 
<path style="fill:#C83434; fill-opacity:1.0000; stroke:none;fill-rule:evenodd;"
d="M 6.2850,11.3693
6.3424,11.3807
6.3911,11.4132
6.4236,11.4619
6.4350,11.5193
6.4350,13.1693
6.4236,13.2267
6.3911,13.2754
6.3424,13.3079
6.2850,13.3193
5.9850,13.3193
5.9276,13.3079
5.8789,13.2754
5.8464,13.2267
5.8350,13.1693
5.8350,11.5193
5.8464,11.4619
5.8789,11.4132
5.9276,11.3807
5.9850,11.3693
Z" /> 
<path style="fill:#C83434; fill-opacity:1.0000; stroke:none;fill-rule:evenodd;"
d="M 5.0150,11.3693
5.0724,11.3807
5.1211,11.4132
5.1536,11.4619
5.1650,11.5193
5.1650,13.1693
5.1536,13.2267
5.1211,13.2754
5.0724,13.3079
5.0150,13.3193
4.7150,13.3193
4.6576,13.3079
4.6089,13.2754
4.5764,13.2267
4.5650,13.1693
4.5650,11.5193
4.5764,11.4619
4.6089,11.4132
4.6576,11.3807
4.7150,11.3693
Z" /> 
<path style="fill:#C83434; fill-opacity:1.0000; stroke:none;fill-rule:evenodd;"
d="M 3.7450,11.3693
3.8024,11.3807
3.8511,11.4132
3.8836,11.4619
3.8950,11.5193
3.8950,13.1693
3.8836,13.2267
3.8511,13.2754
3.8024,13.3079
3.7450,13.3193
3.4450,13.3193
3.3876,13.3079
3.3389,13.2754
3.3064,13.2267
3.2950,13.1693
3.2950,11.5193
3.3064,11.4619
3.3389,11.4132
3.3876,11.3807
3.4450,11.3693
Z" /> 
<path style="fill:#C83434; fill-opacity:1.0000; stroke:none;fill-rule:evenodd;"
d="M 3.7450,16.3193
3.8024,16.3307
3.8511,16.3632
3.8836,16.4119
3.8950,16.4693
3.8950,18.1193
3.8836,18.1767
3.8511,18.2254
3.8024,18.2579
3.7450,18.2693
3.4450,18.2693
3.3876,18.2579
3.3389,18.2254
3.3064,18.1767
3.2950,18.1193
3.2950,16.4693
3.3064,16.4119
3.3389,16.3632
3.3876,16.3307
3.4450,16.3193
Z" /> 
<path style="fill:#C83434; fill-opacity:1.0000; stroke:none;fill-rule:evenodd;"
d="M 5.0150,16.3193
5.0724,16.3307
5.1211,16.3632
5.1536,16.4119
5.1650,16.4693
5.1650,18.1193
5.1536,18.1767
5.1211,18.2254
5.0724,18.2579
5.0150,18.2693
4.7150,18.2693
4.6576,18.2579
4.6089,18.2254
4.5764,18.1767
4.5650,18.1193
4.5650,16.4693
4.5764,16.4119
4.6089,16.3632
4.6576,16.3307
4.7150,16.3193
Z" /> 
<path style="fill:#C83434; fill-opacity:1.0000; stroke:none;fill-rule:evenodd;"
d="M 6.2850,16.3193
6.3424,16.3307
6.3911,16.3632
6.4236,16.4119
6.4350,16.4693
6.4350,18.1193
6.4236,18.1767
6.3911,18.2254
6.3424,18.2579
6.2850,18.2693
5.9850,18.2693
5.9276,18.2579
5.8789,18.2254
5.8464,18.1767
5.8350,18.1193
5.8350,16.4693
5.8464,16.4119
5.8789,16.3632
5.9276,16.3307
5.9850,16.3193
Z" /> 
<path style="fill:#C83434; fill-opacity:1.0000; stroke:none;fill-rule:evenodd;"
d="M 7.5550,16.3193
7.6124,16.3307
7.6611,16.3632
7.6936,16.4119
7.7050,16.4693
7.7050,18.1193
7.6936,18.1767
7.6611,18.2254
7.6124,18.2579
7.5550,18.2693
7.2550,18.2693
7.1976,18.2579
7.1489,18.2254
7.1164,18.1767
7.1050,18.1193
7.1050,16.4693
7.1164,16.4119
7.1489,16.3632
7.1976,16.3307
7.2550,16.3193
Z" /> 
<path style="fill:#C83434; fill-opacity:1.0000; stroke:none;fill-rule:evenodd;"
d="M 33.4500,27.7943
33.4310,27.8900
33.3768,27.9711
33.2957,28.0253
33.2000,28.0443
32.7000,28.0443
32.6043,28.0253
32.5232,27.9711
32.4690,27.8900
32.4500,27.7943
32.4500,26.8443
32.4690,26.7486
32.5232,26.6675
32.6043,26.6133
32.7000,26.5943
33.2000,26.5943
33.2957,26.6133
33.3768,26.6675
33.4310,26.7486
33.4500,26.8443
Z" /> 
<path style="fill:#C83434; fill-opacity:1.0000; stroke:none;fill-rule:evenodd;"
d="M 31.5500,27.7943
31.5310,27.8900
31.4768,27.9711
31.3957,28.0253
31.3000,28.0443
30.8000,28.0443
30.7043,28.0253
30.6232,27.9711
30.5690,27.8900
30.5500,27.7943
30.5500,26.8443
30.5690,26.7486
30.6232,26.6675
30.7043,26.6133
30.8000,26.5943
31.3000,26.5943
31.3957,26.6133
31.4768,26.6675
31.5310,26.7486
31.5500,26.8443
Z" /> 
<path style="fill:#C83434; fill-opacity:1.0000; stroke:none;fill-rule:evenodd;"
d="M 15.0600,29.2193
15.0600,27.4193
16.8600,27.4193
16.8600,29.2193
Z" /> 
<circle cx="18.5000" cy="28.3193" r="0.9000" /> 
<path style="fill:#C83434; fill-opacity:1.0000; stroke:none;fill-rule:evenodd;"
d="M 30.4750,3.8443
30.4750,5.7943
28.5250,5.7943
28.5250,3.8443
Z" /> 
<circle cx="24.5000" cy="4.8193" r="0.9750" /> 
<circle cx="19.1500" cy="12.8193" r="1.2000" /> 
<circle cx="31.8500" cy="12.8193" r="1.2000" /> 
<circle cx="15.5000" cy="4.1193" r="1.2000" /> 
<circle cx="15.5000" cy="16.8193" r="1.2000" /> 
<circle cx="31.8500" cy="18.3193" r="1.2000" /> 
<circle cx="19.1500" cy="18.3193" r="1.2000" /> 
<path style="fill:#C83434; fill-opacity:1.0000; stroke:none;fill-rule:evenodd;"
d="M 20.4750,5.3693
20.5707,5.3883
20.6518,5.4425
20.7060,5.5236
20.7250,5.6193
20.7250,6.1193
20.7060,6.2150
20.6518,6.2961
20.5707,6.3503
20.4750,6.3693
19.5250,6.3693
19.4293,6.3503
19.3482,6.2961
19.2940,6.2150
19.2750,6.1193
19.2750,5.6193
19.2940,5.5236
19.3482,5.4425
19.4293,5.3883
19.5250,5.3693
Z" /> 
<path style="fill:#C83434; fill-opacity:1.0000; stroke:none;fill-rule:evenodd;"
d="M 20.4750,7.2693
20.5707,7.2883
20.6518,7.3425
20.7060,7.4236
20.7250,7.5193
20.7250,8.0193
20.7060,8.1150
20.6518,8.1961
20.5707,8.2503
20.4750,8.2693
19.5250,8.2693
19.4293,8.2503
19.3482,8.1961
19.2940,8.1150
19.2750,8.0193
19.2750,7.5193
19.2940,7.4236
19.3482,7.3425
19.4293,7.2883
19.5250,7.2693
Z" /> 
<path style="fill:#C83434; fill-opacity:1.0000; stroke:none;fill-rule:evenodd;"
d="M 10.0547,3.8443
10.0547,5.7943
8.1047,5.7943
8.1047,3.8443
Z" /> 
<circle cx="4.0797" cy="4.8193" r="0.9750" /> 
<path style="fill:#C83434; fill-opacity:1.0000; stroke:none;fill-rule:evenodd;"
d="M 1.8900,21.4593
1.9090,21.3636
1.9632,21.2825
2.0443,21.2283
2.1400,21.2093
3.2400,21.2093
3.3357,21.2283
3.4168,21.2825
3.4710,21.3636
3.4900,21.4593
3.4900,22.5593
3.4710,22.6550
3.4168,22.7361
3.3357,22.7903
3.2400,22.8093
2.1400,22.8093
2.0443,22.7903
1.9632,22.7361
1.9090,22.6550
1.8900,22.5593
Z" /> 
<circle cx="2.6900" cy="24.5493" r="0.8000" /> 
<circle cx="2.6900" cy="27.0893" r="0.8000" /> 
<circle cx="2.6900" cy="29.6293" r="0.8000" /> 
<circle cx="10.3100" cy="29.6293" r="0.8000" /> 
<circle cx="10.3100" cy="27.0893" r="0.8000" /> 
<circle cx="10.3100" cy="24.5493" r="0.8000" /> 
<circle cx="10.3100" cy="22.0093" r="0.8000" /> 
</g>
<g style="fill:none; 
stroke:#C83434; stroke-width:0.5000; stroke-opacity:1; 
stroke-linecap:round; stroke-linejoin:round;">
<path d="M32.5000 9.3193
L29.9000 11.9193
" />
<path d="M11.0000 16.7693
L20.0000 7.7693
" />
<path d="M10.5000 17.3193
L11.0000 16.8193
" />
<path d="M26.5500 7.7693
L29.5000 4.8193
" />
<path d="M28.0000 4.8193
L26.0000 6.8193
" />
<path d="M32.6423 16.3693
L32.6577 16.3693
" />
<path d="M20.0000 7.7693
L26.5500 7.7693
" />
<path d="M25.5000 14.3193
L25.5000 16.4034
" />
<path d="M23.5000 6.8193
L20.7500 4.0693
" />
<path d="M20.7000 4.1193
L20.7500 4.0693
" />
<path d="M29.5000 4.8193
L31.0000 6.3193
" />
<path d="M8.7600 30.2713
L9.8080 31.3193
" />
<path d="M29.9000 11.9193
L29.9000 13.6270
" />
<path d="M10.4750 17.2943
L10.5000 17.3193
" />
<path d="M33.8000 24.0193
L31.0500 26.7693
" />
<path d="M31.0500 27.3193
L27.0500 31.3193
" />
<path d="M31.0000 6.3193
L31.0000 8.8193
" />
<path d="M29.5000 4.8193
L31.5000 4.8193
" />
<path d="M32.6577 16.3693
L33.8000 17.5116
" />
<path d="M29.9000 13.6270
L32.6423 16.3693
" />
<path d="M29.5000 7.9693
L19.1500 18.3193
" />
<path d="M15.5000 4.1193
L20.7000 4.1193
" />
<path d="M8.7600 26.0993
L8.7600 30.2713
" />
<path d="M31.0000 8.8193
L25.5000 14.3193
" />
<path d="M33.8000 17.5116
L33.8000 24.0193
" />
<path d="M32.5000 5.8193
L32.5000 9.3193
" />
<path d="M26.0000 6.8193
L23.5000 6.8193
" />
<path d="M9.8080 31.3193
L27.0500 31.3193
" />
<path d="M29.5000 4.8193
L28.0000 4.8193
" />
<path d="M11.0000 16.8193
L11.0000 16.7693
" />
<path d="M31.0500 26.7693
L31.0500 27.3193
" />
<path d="M10.3100 24.5493
L10.8777 24.5493
" />
<path d="M29.5000 4.8193
L29.5000 7.9693
" />
<path d="M25.5000 16.4034
L19.1355 22.7679
" />
<path d="M10.3100 24.5493
L8.7600 26.0993
" />
<path d="M31.5000 4.8193
L32.5000 5.8193
" />
<path d="M30.0500 4.7693
L29.5000 5.3193
" />
<path d="M7.4050 17.2943
L10.4750 17.2943
" />
<path d="M31.8355 22.7679
L24.2841 30.3193
" />
<path d="M13.5000 30.3193
L13.5000 30.2793
" />
<path d="M24.2841 30.3193
L13.5000 30.3193
" />
<path d="M10.3100 27.0893
L14.7300 27.0893
" />
<path d="M13.5000 30.2793
L10.3100 27.0893
" />
<path d="M14.7300 27.0893
L15.9600 28.3193
" />
<path d="M21.8500 28.3193
L31.8500 18.3193
" />
<path d="M18.5000 28.3193
L21.8500 28.3193
" />
<path d="M19.1500 13.1693
L19.1500 12.8193
" />
<path d="M9.9600 19.8193
L2.6900 27.0893
" />
<path d="M15.5000 16.8193
L12.5000 19.8193
" />
<path d="M15.5000 16.8193
L19.1500 13.1693
" />
<path d="M12.5000 19.8193
L9.9600 19.8193
" />
<path d="M5.0000 22.2393
L2.6900 24.5493
" />
<path d="M5.0000 19.8193
L5.0000 22.2393
" />
<path d="M6.1350 17.2943
L6.1350 18.6843
" />
<path d="M6.1350 18.6843
L5.0000 19.8193
" />
<path style="fill:#C83434; fill-opacity:1.0000; stroke:none;fill-rule:evenodd;"
d="M 35.7255,0.5055
35.7405,0.5099
35.7993,0.5477
35.8005,0.5490
35.8279,0.6039
35.8296,0.6115
35.8324,0.6378
35.8324,32.6770
35.8274,32.7119
35.8230,32.7269
35.7853,32.7857
35.7839,32.7868
35.7290,32.8143
35.7215,32.8160
35.6951,32.8188
0.6423,32.8188
0.6074,32.8138
0.5924,32.8094
0.5336,32.7716
0.5325,32.7703
0.5050,32.7154
0.5033,32.7078
0.5005,32.6815
0.5005,21.3951
0.8895,21.3951
0.8895,22.6235
0.8999,22.7557
0.8999,22.7557
0.8999,22.7557
0.9549,22.9740
0.9549,22.9740
1.0480,23.1789
1.0480,23.1789
1.0480,23.1789
1.0480,23.1789
1.1762,23.3639
1.1762,23.3640
1.1791,23.3673
1.1788,23.3675
1.1788,23.3675
1.1788,23.3675
1.1785,23.3678
1.1949,23.3898
1.2024,23.4035
1.2172,23.4718
1.2168,23.4779
1.2014,23.5295
1.2013,23.5297
1.1914,23.5446
1.1897,23.5469
1.1897,23.5469
1.1139,23.6782
1.0717,23.7512
1.0717,23.7513
1.0717,23.7513
0.9814,23.9693
0.9203,24.1973
0.8895,24.4313
0.8895,24.4313
0.8895,24.6673
0.8895,24.6673
0.9203,24.9013
0.9203,24.9013
0.9301,24.9380
0.9814,25.1293
1.0476,25.2892
1.0717,25.3474
1.0717,25.3474
1.0717,25.3474
1.0717,25.3474
1.1275,25.4439
1.1275,25.4439
1.1897,25.5518
1.1899,25.5521
1.1909,25.5533
1.3236,25.7262
1.3377,25.7495
1.3462,25.7679
1.3566,25.8370
1.3566,25.8370
1.3557,25.8431
1.3372,25.8932
1.3341,25.8980
1.3282,25.9064
1.1897,26.0868
1.1897,26.0869
1.0717,26.2912
1.0717,26.2913
0.9814,26.5093
0.9203,26.7373
0.8895,26.9713
0.8895,26.9713
0.8895,27.2073
0.8895,27.2073
0.9203,27.4413
0.9814,27.6693
1.0717,27.8874
1.0717,27.8874
1.1314,27.9907
1.1897,28.0918
1.1897,28.0918
1.1899,28.0921
1.1909,28.0933
1.3334,28.2790
1.3334,28.2790
1.3334,28.2790
1.3334,28.2790
1.3334,28.2790
1.5003,28.4459
1.5003,28.4459
1.5003,28.4459
1.6875,28.5896
1.6875,28.5896
1.8189,28.6654
1.8885,28.7056
1.8903,28.7067
1.8917,28.7075
1.8924,28.7078
2.1100,28.7979
2.3380,28.8590
2.5720,28.8898
2.5720,28.8898
2.8080,28.8898
2.8080,28.8898
3.0420,28.8590
3.2700,28.7979
3.4880,28.7076
3.6925,28.5896
3.8797,28.4459
4.0466,28.2790
4.1903,28.0918
4.3083,27.8874
4.3986,27.6693
4.4597,27.4413
4.4905,27.2073
4.4905,27.1265
4.4955,27.0915
4.4964,27.0886
4.5029,27.0663
4.5342,27.0136
8.5827,22.9651
8.6109,22.9440
8.6231,22.9373
8.6914,22.9225
8.7568,22.9469
8.7637,22.9520
8.7967,22.9892
8.8097,23.0118
8.8097,23.0118
8.9436,23.1862
8.9577,23.2095
8.9662,23.2279
8.9766,23.2970
8.9760,23.3014
8.9757,23.3031
8.9572,23.3532
8.9541,23.3580
8.9482,23.3664
8.8097,23.5468
8.8097,23.5469
8.6917,23.7512
8.6917,23.7513
8.6014,23.9693
8.5403,24.1973
8.5095,24.4313
8.5095,24.4313
8.5095,24.5121
8.5045,24.5471
8.4971,24.5723
8.4658,24.6251
7.8017,25.2892
7.7975,25.2965
7.7606,25.3474
7.7606,25.3474
7.6905,25.4439
7.6905,25.4439
7.6683,25.4873
7.6011,25.6193
7.5494,25.7783
7.5494,25.7783
7.5403,25.8065
7.5403,25.8065
7.5095,26.0009
7.5095,30.3698
7.5403,30.5642
7.5403,30.5642
7.6011,30.7514
7.6905,30.9267
7.8062,31.0860
8.8541,32.1340
8.9933,32.2731
9.1526,32.3888
9.2354,32.4310
9.3215,32.4749
9.3231,32.4758
9.3268,32.4776
9.3288,32.4786
9.3326,32.4797
9.3700,32.4919
9.4283,32.5108
9.4283,32.5108
9.4500,32.5178
9.5151,32.5390
9.7095,32.5698
9.7096,32.5698
27.1484,32.5698
27.1484,32.5698
27.3428,32.5390
27.5300,32.4782
27.7054,32.3888
27.8646,32.2731
31.0440,29.0937
31.0723,29.0726
31.0954,29.0600
31.1548,29.0448
31.3642,29.0448
31.3642,29.0448
31.4964,29.0344
31.7147,28.9794
31.9196,28.8863
32.1047,28.7581
32.2638,28.5990
32.3920,28.4139
32.4851,28.2090
32.5401,27.9907
32.5505,27.8585
32.5505,27.1065
32.5555,27.0715
32.5563,27.0688
32.5629,27.0463
32.5942,26.9936
34.7538,24.8340
34.8695,24.6747
34.9556,24.5058
34.9578,24.5016
34.9586,24.5003
34.9589,24.4993
34.9589,24.4993
35.0197,24.3121
35.0340,24.2219
35.0341,24.2214
35.0373,24.2012
35.0373,24.2012
35.0505,24.1177
35.0505,17.4132
35.0212,17.2284
35.0212,17.2284
35.0212,17.2284
35.0197,17.2188
35.0197,17.2188
35.0197,17.2188
34.9851,17.1121
34.9792,17.0942
34.9792,17.0942
34.9792,17.0942
34.9589,17.0316
34.9589,17.0316
34.9589,17.0316
34.9589,17.0316
34.9134,16.9422
34.8834,16.8834
34.8695,16.8562
34.8521,16.8323
34.7538,16.6969
34.1533,16.0964
33.4724,15.4155
33.4724,15.4155
33.4686,15.4128
33.4686,15.4127
33.4686,15.4128
33.4278,15.3831
33.4201,15.3770
33.4127,15.3707
33.4056,15.3641
31.1994,13.1580
31.1783,13.1297
31.1657,13.1066
31.1505,13.0472
31.1505,12.5065
31.1555,12.4715
31.1629,12.4463
31.1942,12.3936
32.2281,11.3597
33.4538,10.1340
33.5695,9.9747
33.6556,9.8058
33.6578,9.8016
33.6586,9.8003
33.7197,9.6121
33.7505,9.4177
33.7505,5.7209
33.7197,5.5265
33.6728,5.3822
33.6606,5.3445
33.6605,5.3444
33.6604,5.3438
33.6593,5.3401
33.6583,5.3381
33.6565,5.3344
33.6556,5.3328
33.5695,5.1639
33.5670,5.1604
33.4538,5.0047
32.3146,3.8655
32.1554,3.7498
32.1554,3.7498
32.1554,3.7498
32.1554,3.7498
32.1550,3.7496
31.9800,3.6604
31.7928,3.5996
31.7928,3.5996
31.7928,3.5996
31.5984,3.5688
31.5984,3.5688
31.5984,3.5688
31.5481,3.5688
31.5132,3.5638
31.4982,3.5594
31.4394,3.5216
31.4337,3.5150
31.4178,3.4843
31.4169,3.4849
31.4165,3.4842
31.4159,3.4846
31.4148,3.4825
31.4132,3.4785
31.4105,3.4740
31.4075,3.4685
31.3147,3.2909
31.2187,3.1732
31.2187,3.1732
31.1861,3.1332
31.1861,3.1332
31.1644,3.1155
31.0928,3.0571
31.0807,3.0395
31.0284,3.0046
30.8520,2.9125
30.8488,2.9107
30.8480,2.9104
30.7308,2.8769
30.6550,2.8552
30.6528,2.8545
30.6503,2.8541
30.6469,2.8539
30.6376,2.8531
30.5861,2.8485
30.5861,2.8485
30.5330,2.8438
30.5330,2.8438
30.5330,2.8438
28.4670,2.8438
28.4670,2.8438
28.4549,2.8438
28.4480,2.8455
28.3476,2.8544
28.1520,2.9104
28.0864,2.9446
27.9725,3.0041
27.9716,3.0046
27.9692,3.0063
27.9667,3.0086
27.8139,3.1332
27.6853,3.2909
27.5911,3.4713
27.5786,3.5150
27.5646,3.5638
27.5596,3.5813
27.5452,3.6135
27.5315,3.6351
27.4830,3.6793
27.3446,3.7498
27.2384,3.8269
27.2014,3.8538
27.1972,3.8569
27.1898,3.8610
25.5310,5.5199
25.5027,5.5410
25.4796,5.5536
25.4202,5.5688
24.0872,5.5688
24.0522,5.5638
24.0270,5.5564
23.9742,5.5251
21.7093,3.2602
21.7093,3.2601
21.7038,3.2547
21.7038,3.2547
21.5646,3.1155
21.5646,3.1155
21.5646,3.1155
21.4133,3.0055
21.4130,3.0052
21.4054,2.9998
21.4054,2.9998
21.4054,2.9998
21.4054,2.9998
21.4050,2.9996
21.3506,2.9719
21.2300,2.9104
21.0428,2.8496
21.0398,2.8491
20.8484,2.8188
20.8484,2.8188
20.8484,2.8188
20.6516,2.8188
20.6516,2.8188
20.6092,2.8255
20.4986,2.8430
20.4985,2.8430
20.4985,2.8430
20.4572,2.8496
20.4572,2.8496
20.4260,2.8597
20.4071,2.8643
20.3881,2.8673
20.3687,2.8688
17.3931,2.8688
17.3582,2.8638
17.3360,2.8573
17.2870,2.8296
17.2848,2.8276
17.2704,2.8118
17.2065,2.7285
17.1580,2.6653
17.1580,2.6653
17.1580,2.6653
17.1580,2.6653
16.9540,2.4613
16.9540,2.4613
16.9540,2.4613
16.9540,2.4613
16.7268,2.2870
16.7255,2.2859
16.7252,2.2857
16.4753,2.1415
16.4753,2.1415
16.4753,2.1415
16.2089,2.0311
16.2089,2.0311
16.2088,2.0311
15.9302,1.9565
15.9302,1.9565
15.9302,1.9565
15.9302,1.9565
15.9302,1.9565
15.9302,1.9565
15.6483,1.9193
15.6463,1.9190
15.6442,1.9188
15.6442,1.9188
15.6442,1.9188
15.3558,1.9188
15.3558,1.9188
15.3558,1.9188
15.3537,1.9190
15.3517,1.9193
15.0698,1.9565
15.0698,1.9565
15.0680,1.9569
15.0662,1.9574
14.7912,2.0311
14.7911,2.0311
14.5247,2.1415
14.5247,2.1415
14.5246,2.1415
14.2749,2.2857
14.2748,2.2857
14.2748,2.2857
14.0460,2.4613
14.0460,2.4613
14.0460,2.4613
13.8420,2.6653
13.8420,2.6653
13.8420,2.6653
13.6664,2.8941
13.6664,2.8941
13.6664,2.8942
13.5222,3.1440
13.5222,3.1440
13.5222,3.1440
13.4118,3.4104
13.4118,3.4104
13.4118,3.4104
13.4118,3.4105
13.3456,3.6575
13.3431,3.6669
13.3431,3.6669
13.3372,3.6891
13.3371,3.6891
13.3371,3.6891
13.2995,3.9751
13.2995,3.9751
13.2995,4.2635
13.2995,4.2636
13.3371,4.5495
13.3371,4.5495
13.3371,4.5495
13.3372,4.5495
13.4118,4.8282
13.4118,4.8282
13.4118,4.8282
13.4118,4.8282
13.5222,5.0946
13.5222,5.0947
13.5222,5.0947
13.6664,5.3445
13.6664,5.3445
13.6915,5.3771
13.8420,5.5733
13.8420,5.5733
13.8420,5.5733
13.8420,5.5733
13.8420,5.5733
14.0460,5.7773
14.0460,5.7773
14.0460,5.7773
14.2749,5.9529
14.2751,5.9530
14.3931,6.0211
14.5246,6.0971
14.5247,6.0971
14.6169,6.1353
14.7871,6.2058
14.7889,6.2066
14.7894,6.2068
14.7910,6.2075
14.7923,6.2078
14.7954,6.2087
14.7969,6.2090
14.8276,6.2173
15.0698,6.2822
15.3558,6.3198
15.3558,6.3198
15.6442,6.3198
15.6442,6.3198
15.9302,6.2822
16.2050,6.2085
16.2082,6.2078
16.2106,6.2068
16.2111,6.2067
16.2129,6.2058
16.4713,6.0988
16.4732,6.0981
16.4736,6.0979
16.4754,6.0971
16.4770,6.0962
16.4788,6.0951
16.7252,5.9529
16.9540,5.7773
17.1580,5.5733
17.2661,5.4325
17.2913,5.4078
17.3100,5.3942
17.3618,5.3722
17.3647,5.3716
17.3860,5.3698
20.2128,5.3698
20.2478,5.3748
20.2730,5.3822
20.3258,5.4135
21.0476,6.1353
21.0687,6.1636
21.0726,6.1708
21.0875,6.2390
21.0631,6.3045
21.0071,6.3464
20.9419,6.3522
20.9365,6.3513
20.9071,6.3421
20.8897,6.3342
20.8897,6.3342
20.6714,6.2792
20.6714,6.2792
20.6714,6.2792
20.6273,6.2757
20.6273,6.2757
20.5392,6.2688
20.5392,6.2688
20.5392,6.2688
19.4608,6.2688
19.4608,6.2688
19.3286,6.2792
19.3286,6.2792
19.3286,6.2792
19.1103,6.3342
19.1103,6.3342
18.9054,6.4273
18.9054,6.4273
18.9054,6.4273
18.9054,6.4273
18.7204,6.5555
18.7203,6.5555
18.7203,6.5555
18.7203,6.5555
18.5612,6.7146
18.5612,6.7147
18.5612,6.7147
18.5612,6.7147
18.4330,6.8997
18.4330,6.8997
18.4330,6.8997
18.4330,6.8997
18.3399,7.1046
18.3399,7.1046
18.2849,7.3229
18.2849,7.3229
18.2849,7.3229
18.2745,7.4551
18.2745,7.6571
18.2695,7.6921
18.2621,7.7173
18.2308,7.7701
10.0462,15.9547
10.0462,15.9547
10.0290,15.9783
10.0044,16.0036
9.9868,16.0172
9.9340,16.0409
9.9296,16.0417
9.9067,16.0438
8.7234,16.0438
8.6885,16.0388
8.6735,16.0344
8.6147,15.9966
8.6050,15.9854
8.5852,15.9543
8.5644,15.9071
8.5644,15.9071
8.5644,15.9071
8.4439,15.7312
8.4439,15.7312
8.4439,15.7312
8.4439,15.7311
8.2932,15.5804
8.2932,15.5804
8.2931,15.5804
8.2931,15.5804
8.2931,15.5804
8.2931,15.5804
8.1874,15.5079
8.1695,15.4860
8.1172,15.4599
8.1172,15.4599
8.1172,15.4599
8.1172,15.4599
8.1172,15.4599
7.9249,15.3750
7.9225,15.3739
7.9221,15.3737
7.9220,15.3737
7.9083,15.3705
7.9082,15.3705
7.7146,15.3250
7.7146,15.3250
7.6260,15.3188
7.6260,15.3188
7.6260,15.3188
7.1840,15.3188
7.1840,15.3188
7.1840,15.3188
7.0954,15.3250
7.0954,15.3250
7.0954,15.3250
7.0954,15.3250
6.8878,15.3738
6.8878,15.3738
6.8364,15.3965
6.8024,15.4060
6.7772,15.4093
6.7111,15.3998
6.6522,15.3738
6.6522,15.3738
6.6522,15.3738
6.4446,15.3250
6.4446,15.3250
6.4446,15.3250
6.3560,15.3188
6.3560,15.3188
6.3560,15.3188
5.9140,15.3188
5.9140,15.3188
5.9140,15.3188
5.8254,15.3250
5.8254,15.3250
5.8254,15.3250
5.8254,15.3250
5.6178,15.3738
5.6178,15.3738
5.5664,15.3965
5.5324,15.4060
5.5072,15.4093
5.4411,15.3998
5.3822,15.3738
5.3822,15.3738
5.3822,15.3738
5.1746,15.3250
5.1746,15.3250
5.1746,15.3250
5.0860,15.3188
5.0860,15.3188
5.0860,15.3188
4.6440,15.3188
4.6440,15.3188
4.6440,15.3188
4.5554,15.3250
4.5554,15.3250
4.3478,15.3738
4.3478,15.3738
4.3478,15.3738
4.1528,15.4599
4.1528,15.4599
3.9769,15.5804
3.9768,15.5804
3.9768,15.5804
3.8261,15.7311
3.8261,15.7312
3.8261,15.7312
3.7266,15.8764
3.7056,15.9071
3.6195,16.1021
3.6195,16.1021
3.6195,16.1021
3.5707,16.3097
3.5706,16.3097
3.5645,16.3983
3.5645,18.1903
3.5706,18.2789
3.5707,18.2789
3.6195,18.4865
3.6195,18.4865
3.6195,18.4865
3.6195,18.4865
3.6195,18.4865
3.7056,18.6815
3.7523,18.7498
3.7859,18.7988
3.8201,18.8486
3.8261,18.8574
3.9280,18.9594
3.9492,18.9876
3.9567,19.0013
3.9715,19.0696
3.9710,19.0762
3.9477,19.1402
3.9305,19.1639
3.9305,19.1639
3.9303,19.1643
3.8407,19.3402
3.8403,19.3416
3.8389,19.3462
3.7803,19.5265
3.7788,19.5361
3.7788,19.5361
3.7495,19.7209
3.7495,20.1212
3.7445,20.1561
3.7406,20.1694
3.7028,20.2282
3.6392,20.2572
3.6303,20.2585
3.5824,20.2560
3.5656,20.2518
3.5656,20.2518
3.4364,20.2192
3.4364,20.2192
3.3042,20.2088
3.3042,20.2088
3.3042,20.2088
2.0758,20.2088
2.0758,20.2088
1.9436,20.2192
1.9436,20.2192
1.9436,20.2192
1.7253,20.2742
1.7253,20.2742
1.5204,20.3673
1.5204,20.3673
1.5204,20.3673
1.5204,20.3673
1.3354,20.4955
1.3353,20.4955
1.3353,20.4955
1.3353,20.4955
1.1762,20.6546
1.1762,20.6547
1.1762,20.6547
1.1762,20.6547
1.0480,20.8397
1.0480,20.8397
1.0480,20.8397
1.0480,20.8397
0.9549,21.0446
0.9549,21.0446
0.8999,21.2629
0.8999,21.2629
0.8999,21.2629
0.8895,21.3951
0.5005,21.3951
0.5005,14.4337
0.5202,14.3666
0.5730,14.3209
0.6421,14.3109
0.7057,14.3399
0.7259,14.3623
0.7733,14.4296
0.7733,14.4296
0.7743,14.4308
0.7887,14.4461
0.8313,14.4914
0.8313,14.4914
0.8313,14.4914
0.9905,14.6181
0.9905,14.6181
1.0492,14.6558
1.0850,14.6768
1.1210,14.6978
1.3094,14.7746
1.3244,14.7790
1.4252,14.8010
1.4646,14.8095
1.4697,14.8103
1.4996,14.8146
1.6427,14.8248
4.8146,14.8248
4.8146,14.8248
4.8917,14.8218
5.0919,14.7858
5.1577,14.7669
5.2308,14.7429
5.4133,14.6530
5.4148,14.6521
5.4148,14.6521
5.4173,14.6506
5.4173,14.6505
5.4194,14.6492
5.4195,14.6492
5.4343,14.6399
5.5016,14.6211
5.5684,14.6416
5.5689,14.6419
5.6372,14.6876
5.8234,14.7635
5.8256,14.7644
5.8256,14.7644
5.8406,14.7688
5.8927,14.7841
5.9736,14.8042
6.0949,14.8166
6.1760,14.8248
6.1760,14.8248
9.3957,14.8248
9.3957,14.8248
9.5242,14.8166
9.5556,14.8125
9.5639,14.8114
9.7616,14.7635
9.9456,14.6768
10.0055,14.6407
10.1406,14.5433
10.2810,14.3961
10.3890,14.2236
10.4198,14.1609
10.4535,14.0847
10.5085,13.8888
11.7562,6.7147
12.4654,2.6367
12.4670,2.6271
12.4678,2.6224
12.4683,2.6188
12.4790,2.5211
12.4790,2.5211
12.4790,2.5211
12.4706,2.3179
12.4706,2.3178
12.4606,2.2487
12.4606,2.2487
12.4606,2.2487
12.4234,2.0864
12.4234,2.0864
12.3423,1.8998
12.3423,1.8998
12.2253,1.7333
12.2253,1.7333
12.2253,1.7333
12.1795,1.6805
12.0604,1.5641
12.0604,1.5641
11.8913,1.4510
11.8913,1.4510
11.7029,1.3742
11.7029,1.3742
11.6359,1.3545
11.6359,1.3545
11.6359,1.3545
11.5550,1.3344
11.5550,1.3344
11.5550,1.3344
11.3526,1.3138
11.3526,1.3138
7.1089,1.3138
7.1089,1.3138
6.9593,1.3250
6.9592,1.3250
6.9228,1.3305
6.8934,1.3354
6.6979,1.3916
6.5372,1.4759
6.4687,1.4896
6.4106,1.4692
6.3835,1.4510
6.3835,1.4510
6.3835,1.4510
6.3125,1.4221
6.1951,1.3742
6.1951,1.3742
6.1281,1.3545
6.1281,1.3545
6.1280,1.3545
6.0472,1.3344
6.0472,1.3344
6.0472,1.3344
5.8448,1.3138
5.8448,1.3138
1.7160,1.3138
1.7160,1.3138
1.6103,1.3194
1.6103,1.3194
1.6103,1.3194
1.5878,1.3218
1.5843,1.3221
1.4798,1.3388
1.4778,1.3392
1.4756,1.3397
1.4755,1.3397
1.4753,1.3397
1.4753,1.3397
1.4753,1.3397
1.4752,1.3398
1.4726,1.3403
1.4282,1.3509
1.2376,1.4221
1.1830,1.4490
1.1426,1.4701
0.9753,1.5859
0.9753,1.5859
0.9738,1.5872
0.9124,1.6442
0.7846,1.8024
0.7846,1.8024
0.7464,1.8609
0.7311,1.8868
0.6799,1.9343
0.6111,1.9466
0.5466,1.9198
0.5068,1.8624
0.5005,1.8234
0.5005,0.6423
0.5055,0.6074
0.5099,0.5924
0.5477,0.5336
0.5490,0.5325
0.6039,0.5050
0.6115,0.5033
0.6378,0.5005
35.6906,0.5005
Z" /> 
<path style="fill:#C83434; fill-opacity:1.0000; stroke:none;fill-rule:evenodd;"
d="M 11.4196,2.3390
11.4654,2.3918
11.4753,2.4610
11.4747,2.4646
9.5179,13.7166
9.4870,13.7792
9.4271,13.8153
9.3957,13.8193
6.1760,13.8193
6.1089,13.7996
6.0632,13.7468
6.0532,13.6777
6.0625,13.6452
6.1105,13.5365
6.1105,13.5365
6.1593,13.3289
6.1655,13.2403
6.1655,11.4483
6.1593,11.3597
6.1593,11.3597
6.1593,11.3597
6.1105,11.1521
6.1105,11.1521
6.1105,11.1521
6.0244,10.9571
5.9243,10.8109
5.9026,10.7445
5.9036,10.7248
6.9859,2.4273
7.0141,2.3633
7.0724,2.3248
7.1089,2.3193
11.3526,2.3193
Z" /> 
<path style="fill:#C83434; fill-opacity:1.0000; stroke:none;fill-rule:evenodd;"
d="M 5.9118,2.3390
5.9576,2.3918
5.9677,2.4593
4.9066,10.5948
4.8994,10.6744
4.8984,10.6941
4.9035,10.8572
4.9332,10.9942
4.9282,11.0639
4.9255,11.0706
4.8895,11.1521
4.8895,11.1521
4.8895,11.1521
4.8407,11.3597
4.8406,11.3597
4.8345,11.4483
4.8345,13.2403
4.8406,13.3289
4.8407,13.3289
4.8895,13.5365
4.8895,13.5365
4.9303,13.6289
4.9398,13.6629
4.9416,13.6767
4.9308,13.7457
4.8844,13.7979
4.8817,13.7995
4.8803,13.8004
4.8146,13.8193
1.6427,13.8193
1.6078,13.8143
1.5928,13.8099
1.5340,13.7721
1.5330,13.7709
1.5054,13.7156
1.5037,13.7077
1.5010,13.6809
1.5787,2.4603
1.5840,2.4254
1.5885,2.4104
1.6267,2.3519
1.6283,2.3506
1.6829,2.3236
1.6858,2.3230
1.6900,2.3220
1.7160,2.3193
5.8448,2.3193
Z" /> 
</g>
<g style="fill:#4D7FC4; fill-opacity:1.0000; stroke:none;">
<circle cx="31.8355" cy="22.7679" r="1.2000" /> 
<circle cx="19.1355" cy="22.7679" r="1.2000" /> 
<path style="fill:#4D7FC4; fill-opacity:1.0000; stroke:none;fill-rule:evenodd;"
d="M 15.0600,29.2193
15.0600,27.4193
16.8600,27.4193
16.8600,29.2193
Z" /> 
<circle cx="18.5000" cy="28.3193" r="0.9000" /> 
<path style="fill:#4D7FC4; fill-opacity:1.0000; stroke:none;fill-rule:evenodd;"
d="M 30.4750,3.8443
30.4750,5.7943
28.5250,5.7943
28.5250,3.8443
Z" /> 
<circle cx="24.5000" cy="4.8193" r="0.9750" /> 
<circle cx="19.1500" cy="12.8193" r="1.2000" /> 
<circle cx="31.8500" cy="12.8193" r="1.2000" /> 
<circle cx="15.5000" cy="4.1193" r="1.2000" /> 
<circle cx="15.5000" cy="16.8193" r="1.2000" /> 
<circle cx="31.8500" cy="18.3193" r="1.2000" /> 
<circle cx="19.1500" cy="18.3193" r="1.2000" /> 
<path style="fill:#4D7FC4; fill-opacity:1.0000; stroke:none;fill-rule:evenodd;"
d="M 10.0547,3.8443
10.0547,5.7943
8.1047,5.7943
8.1047,3.8443
Z" /> 
<circle cx="4.0797" cy="4.8193" r="0.9750" /> 
<path style="fill:#4D7FC4; fill-opacity:1.0000; stroke:none;fill-rule:evenodd;"
d="M 1.8900,21.4593
1.9090,21.3636
1.9632,21.2825
2.0443,21.2283
2.1400,21.2093
3.2400,21.2093
3.3357,21.2283
3.4168,21.2825
3.4710,21.3636
3.4900,21.4593
3.4900,22.5593
3.4710,22.6550
3.4168,22.7361
3.3357,22.7903
3.2400,22.8093
2.1400,22.8093
2.0443,22.7903
1.9632,22.7361
1.9090,22.6550
1.8900,22.5593
Z" /> 
<circle cx="2.6900" cy="24.5493" r="0.8000" /> 
<circle cx="2.6900" cy="27.0893" r="0.8000" /> 
<circle cx="2.6900" cy="29.6293" r="0.8000" /> 
<circle cx="10.3100" cy="29.6293" r="0.8000" /> 
<circle cx="10.3100" cy="27.0893" r="0.8000" /> 
<circle cx="10.3100" cy="24.5493" r="0.8000" /> 
<circle cx="10.3100" cy="22.0093" r="0.8000" /> 
</g>
<g style="fill:#FFFFFF; fill-opacity:1.0000; stroke:none;">
<circle cx="31.8355" cy="22.7679" r="0.6000" /> 
</g>
<g style="fill:#FFFFFF; fill-opacity:1.0000; stroke:none;">
<circle cx="19.1355" cy="22.7679" r="0.6000" /> 
</g>
<g style="fill:#FFFFFF; fill-opacity:1.0000; stroke:none;">
<circle cx="15.9600" cy="28.3193" r="0.4500" /> 
</g>
<g style="fill:#FFFFFF; fill-opacity:1.0000; stroke:none;">
<circle cx="18.5000" cy="28.3193" r="0.4500" /> 
</g>
<g style="fill:#FFFFFF; fill-opacity:1.0000; stroke:none;">
<circle cx="29.5000" cy="4.8193" r="0.6500" /> 
</g>
<g style="fill:#FFFFFF; fill-opacity:1.0000; stroke:none;">
<circle cx="24.5000" cy="4.8193" r="0.6500" /> 
</g>
<g style="fill:#FFFFFF; fill-opacity:1.0000; stroke:none;">
<circle cx="19.1500" cy="12.8193" r="0.6000" /> 
</g>
<g style="fill:#FFFFFF; fill-opacity:1.0000; stroke:none;">
<circle cx="31.8500" cy="12.8193" r="0.6000" /> 
</g>
<g style="fill:#FFFFFF; fill-opacity:1.0000; stroke:none;">
<circle cx="15.5000" cy="4.1193" r="0.6000" /> 
</g>
<g style="fill:#FFFFFF; fill-opacity:1.0000; stroke:none;">
<circle cx="15.5000" cy="16.8193" r="0.6000" /> 
</g>
<g style="fill:#FFFFFF; fill-opacity:1.0000; stroke:none;">
<circle cx="31.8500" cy="18.3193" r="0.6000" /> 
</g>
<g style="fill:#FFFFFF; fill-opacity:1.0000; stroke:none;">
<circle cx="19.1500" cy="18.3193" r="0.6000" /> 
</g>
<g style="fill:#FFFFFF; fill-opacity:1.0000; stroke:none;">
<circle cx="9.0797" cy="4.8193" r="0.6500" /> 
</g>
<g style="fill:#FFFFFF; fill-opacity:1.0000; stroke:none;">
<circle cx="4.0797" cy="4.8193" r="0.6500" /> 
</g>
<g style="fill:#FFFFFF; fill-opacity:1.0000; stroke:none;">
<circle cx="2.6900" cy="22.0093" r="0.4000" /> 
</g>
<g style="fill:#FFFFFF; fill-opacity:1.0000; stroke:none;">
<circle cx="2.6900" cy="24.5493" r="0.4000" /> 
</g>
<g style="fill:#FFFFFF; fill-opacity:1.0000; stroke:none;">
<circle cx="2.6900" cy="27.0893" r="0.4000" /> 
</g>
<g style="fill:#FFFFFF; fill-opacity:1.0000; stroke:none;">
<circle cx="2.6900" cy="29.6293" r="0.4000" /> 
</g>
<g style="fill:#FFFFFF; fill-opacity:1.0000; stroke:none;">
<circle cx="10.3100" cy="29.6293" r="0.4000" /> 
</g>
<g style="fill:#FFFFFF; fill-opacity:1.0000; stroke:none;">
<circle cx="10.3100" cy="27.0893" r="0.4000" /> 
</g>
<g style="fill:#FFFFFF; fill-opacity:1.0000; stroke:none;">
<circle cx="10.3100" cy="24.5493" r="0.4000" /> 
</g>
<g style="fill:#FFFFFF; fill-opacity:1.0000; stroke:none;">
<circle cx="10.3100" cy="22.0093" r="0.4000" /> 
</g> 
</svg>
