%TF.GenerationSoftware,KiCad,Pcbnew,10.0.6*%
%TF.CreationDate,2026-09-12T14:25:17-04:00*%
%TF.ProjectId,onboad,6f6e626f-6164-42e6-9b69-6361645f7063,rev?*%
%TF.SameCoordinates,Original*%
%TF.FileFunction,Copper,L1,Top*%
%TF.FilePolarity,Positive*%
%FSLAX46Y46*%
G04 Gerber Fmt 4.6, Leading zero omitted, Abs format (unit mm)*
G04 Created by KiCad (PCBNEW 10.0.6) date 2026-09-12 14:25:17*
%MOMM*%
%LPD*%
G01*
G04 APERTURE LIST*
G04 Aperture macros list*
%AMRoundRect*
0 Rectangle with rounded corners*
0 $1 Rounding radius*
0 $2 $3 $4 $5 $6 $7 $8 $9 X,Y pos of 4 corners*
0 Add a 4 corners polygon primitive as box body*
4,1,4,$2,$3,$4,$5,$6,$7,$8,$9,$2,$3,0*
0 Add four circle primitives for the rounded corners*
1,1,$1+$1,$2,$3*
1,1,$1+$1,$4,$5*
1,1,$1+$1,$6,$7*
1,1,$1+$1,$8,$9*
0 Add four rect primitives between the rounded corners*
20,1,$1+$1,$2,$3,$4,$5,0*
20,1,$1+$1,$4,$5,$6,$7,0*
20,1,$1+$1,$6,$7,$8,$9,0*
20,1,$1+$1,$8,$9,$2,$3,0*%
G04 Aperture macros list end*
%TA.AperFunction,ComponentPad*%
%ADD10C,2.400000*%
%TD*%
%TA.AperFunction,ComponentPad*%
%ADD11R,1.950000X1.950000*%
%TD*%
%TA.AperFunction,ComponentPad*%
%ADD12C,1.950000*%
%TD*%
%TA.AperFunction,ComponentPad*%
%ADD13RoundRect,0.250000X0.550000X-0.550000X0.550000X0.550000X-0.550000X0.550000X-0.550000X-0.550000X0*%
%TD*%
%TA.AperFunction,ComponentPad*%
%ADD14C,1.600000*%
%TD*%
%TA.AperFunction,SMDPad,CuDef*%
%ADD15RoundRect,0.250000X-0.475000X0.250000X-0.475000X-0.250000X0.475000X-0.250000X0.475000X0.250000X0*%
%TD*%
%TA.AperFunction,SMDPad,CuDef*%
%ADD16RoundRect,0.250000X0.475000X-0.250000X0.475000X0.250000X-0.475000X0.250000X-0.475000X-0.250000X0*%
%TD*%
%TA.AperFunction,ComponentPad*%
%ADD17C,1.800000*%
%TD*%
%TA.AperFunction,ComponentPad*%
%ADD18R,1.800000X1.800000*%
%TD*%
%TA.AperFunction,SMDPad,CuDef*%
%ADD19RoundRect,0.150000X0.825000X0.150000X-0.825000X0.150000X-0.825000X-0.150000X0.825000X-0.150000X0*%
%TD*%
%TA.AperFunction,Conductor*%
%ADD20C,0.500000*%
%TD*%
G04 APERTURE END LIST*
D10*
%TO.P,R2,1*%
%TO.N,Net-(U2-VIN+)*%
X109891237Y-102996332D03*
%TO.P,R2,2*%
%TO.N,GND*%
X122591237Y-102996332D03*
%TD*%
%TO.P,R1,2*%
%TO.N,Net-(U2-VIN+)*%
X104868664Y-103004456D03*
%TO.P,R1,1*%
%TO.N,+3V3*%
X92168664Y-103004456D03*
%TD*%
%TO.P,R3,1*%
%TO.N,Net-(D1-A)*%
X90975691Y-85212910D03*
%TO.P,R3,2*%
%TO.N,+3V3*%
X90975691Y-97912910D03*
%TD*%
D11*
%TO.P,J2,1,Pin_1_1*%
%TO.N,Current+*%
X128740000Y-95640000D03*
D12*
%TO.P,J2,2,Pin_2_2*%
%TO.N,Current-*%
X128740000Y-90640000D03*
%TD*%
D13*
%TO.P,U2,1,NC_1*%
%TO.N,unconnected-(U2-NC-Pad1)*%
X110440650Y-95713153D03*
D14*
%TO.P,U2,2,VIN-_2*%
%TO.N,Net-(U1-VIOUT)*%
X107900650Y-95713153D03*
%TO.P,U2,3,VIN+_3*%
%TO.N,Net-(U2-VIN+)*%
X105360650Y-95713153D03*
%TO.P,U2,4,VSS_4*%
%TO.N,GND*%
X102820650Y-95713153D03*
%TO.P,U2,5,NC_5*%
%TO.N,unconnected-(U2-NC-Pad5)*%
X102820650Y-88093153D03*
%TO.P,U2,6,OUT_6*%
%TO.N,Net-(D1-K)*%
X105360650Y-88093153D03*
%TO.P,U2,7,VDD_7*%
%TO.N,+3V3*%
X107900650Y-88093153D03*
%TO.P,U2,8,NC_8*%
%TO.N,unconnected-(U2-NC-Pad8)*%
X110440650Y-88093153D03*
%TD*%
D10*
%TO.P,R4,1*%
%TO.N,Net-(D1-K)*%
X96835691Y-85152910D03*
%TO.P,R4,2*%
%TO.N,+3V3*%
X96835691Y-97852910D03*
%TD*%
D15*
%TO.P,C2,1*%
%TO.N,GND*%
X114238678Y-86130801D03*
%TO.P,C2,2*%
%TO.N,+3V3*%
X114238678Y-88030801D03*
%TD*%
D16*
%TO.P,C1,1*%
%TO.N,GND*%
X116609445Y-98883868D03*
%TO.P,C1,2*%
%TO.N,+3V3*%
X116609445Y-96983868D03*
%TD*%
D11*
%TO.P,J1,1,Pin_1_1*%
%TO.N,+3V3*%
X128750000Y-84280000D03*
D12*
%TO.P,J1,2,Pin_2_2*%
%TO.N,GND*%
X128750000Y-79280000D03*
%TD*%
D17*
%TO.P,D1,2,A_2*%
%TO.N,Net-(D1-A)*%
X108227696Y-81590401D03*
D18*
%TO.P,D1,1,K_1*%
%TO.N,Net-(D1-K)*%
X108227696Y-84130401D03*
%TD*%
D19*
%TO.P,U1,8,VCC_8*%
%TO.N,+3V3*%
X116599549Y-94952770D03*
%TO.P,U1,7,VIOUT_7*%
%TO.N,Net-(U1-VIOUT)*%
X116599549Y-93682770D03*
%TO.P,U1,6,~{FAULT}_6*%
%TO.N,unconnected-(U1-~{FAULT}-Pad6)*%
X116599549Y-92412770D03*
%TO.P,U1,5,GND_5*%
%TO.N,GND*%
X116599549Y-91142770D03*
%TO.P,U1,4,IP-_4*%
%TO.N,Current-*%
X121549549Y-91142770D03*
%TO.P,U1,3,IP-_3*%
X121549549Y-92412770D03*
%TO.P,U1,2,IP+_2*%
%TO.N,Current+*%
X121549549Y-93682770D03*
%TO.P,U1,1,IP+_1*%
X121549549Y-94952770D03*
%TD*%
%TO.N,+3V3*%
D20*
X109725431Y-89917934D02*
X112351545Y-89917934D01*
X114238678Y-88030801D02*
X112351545Y-89917934D01*
X116609445Y-96983868D02*
X116609445Y-94962666D01*
X116609445Y-94962666D02*
X116599549Y-94952770D01*
%TO.N,Net-(U2-VIN+)*%
X104868664Y-103004456D02*
X104868664Y-96205139D01*
X104868664Y-96205139D02*
X105360650Y-95713153D01*
%TO.N,+3V3*%
X92168664Y-103004456D02*
X92168664Y-99105883D01*
X92168664Y-99105883D02*
X90975691Y-97912910D01*
%TO.N,Net-(D1-K)*%
X108227696Y-84130401D02*
X103442916Y-84130401D01*
X103442916Y-84130401D02*
X102420407Y-85152910D01*
%TO.N,+3V3*%
X107900650Y-88093153D02*
X109725431Y-89917934D01*
X112351545Y-89917934D02*
X115317934Y-89917934D01*
%TO.N,Net-(D1-K)*%
X105360650Y-88093153D02*
X102420407Y-85152910D01*
X102420407Y-85152910D02*
X96835691Y-85152910D01*
%TO.N,+3V3*%
X120955867Y-84280000D02*
X115317934Y-89917934D01*
X116599549Y-94952770D02*
X117581497Y-94952770D01*
X117581497Y-94952770D02*
X118324549Y-94209718D01*
X118324549Y-94209718D02*
X118324549Y-90615822D01*
X118324549Y-90615822D02*
X117626661Y-89917934D01*
X117626661Y-89917934D02*
X115317934Y-89917934D01*
%TO.N,Net-(U1-VIOUT)*%
X116599549Y-93682770D02*
X115617601Y-93682770D01*
X115617601Y-93682770D02*
X112037218Y-97263153D01*
X112037218Y-97263153D02*
X109450650Y-97263153D01*
X109450650Y-97263153D02*
X107900650Y-95713153D01*
%TO.N,+3V3*%
X96835691Y-97852910D02*
X91035691Y-97852910D01*
X91035691Y-97852910D02*
X90975691Y-97912910D01*
X128750000Y-84280000D02*
X120955867Y-84280000D01*
X115317934Y-89917934D02*
X111990650Y-93245217D01*
X111990650Y-93245217D02*
X101443384Y-93245217D01*
X101443384Y-93245217D02*
X96835691Y-97852910D01*
%TO.N,Net-(U2-VIN+)*%
X104868664Y-103004456D02*
X109883113Y-103004456D01*
%TD*%
%TA.AperFunction,Conductor*%
%TO.N,Current+*%
G36*
X132229461Y-93219948D02*
G01*
X132296394Y-93239983D01*
X132341872Y-93293026D01*
X132352647Y-93337589D01*
X132584957Y-97863026D01*
X132568735Y-97930986D01*
X132518346Y-97979388D01*
X132461881Y-97993381D01*
X119035154Y-98075767D01*
X118967995Y-98056494D01*
X118921917Y-98003972D01*
X118910395Y-97952530D01*
X118909846Y-97863026D01*
X118895099Y-95459759D01*
X118914371Y-95392607D01*
X118931406Y-95371334D01*
X119278377Y-95024364D01*
X119394073Y-94865123D01*
X119483433Y-94689744D01*
X119544258Y-94502545D01*
X119548978Y-94472744D01*
X119575049Y-94308140D01*
X119575049Y-93320933D01*
X119594734Y-93253894D01*
X119647538Y-93208139D01*
X119716696Y-93198195D01*
X119780252Y-93227220D01*
X119801349Y-93250856D01*
X119835637Y-93300911D01*
X119835642Y-93300917D01*
X119986401Y-93451676D01*
X119986407Y-93451681D01*
X120162312Y-93572179D01*
X120357364Y-93658302D01*
X120357370Y-93658303D01*
X120357372Y-93658304D01*
X120564908Y-93707117D01*
X120564913Y-93707117D01*
X120564919Y-93707119D01*
X120614151Y-93710536D01*
X120653533Y-93713270D01*
X120653537Y-93713270D01*
X122445565Y-93713270D01*
X122481008Y-93710809D01*
X122534179Y-93707119D01*
X122534185Y-93707117D01*
X122534189Y-93707117D01*
X122741725Y-93658304D01*
X122741723Y-93658304D01*
X122741734Y-93658302D01*
X122936786Y-93572179D01*
X123112691Y-93451681D01*
X123263460Y-93300912D01*
X123313579Y-93227746D01*
X123367704Y-93183564D01*
X123416523Y-93173826D01*
X132229461Y-93219948D01*
G37*
%TD.AperFunction*%
%TD*%
%TA.AperFunction,Conductor*%
%TO.N,GND*%
G36*
X103790992Y-94500738D02*
G01*
X103797304Y-94502591D01*
X103802963Y-94504252D01*
X103861743Y-94542023D01*
X103890771Y-94605577D01*
X103882310Y-94671365D01*
X103878461Y-94680503D01*
X103862565Y-94707850D01*
X103860378Y-94710700D01*
X103860376Y-94710704D01*
X103742374Y-94915086D01*
X103742366Y-94915102D01*
X103652045Y-95133152D01*
X103652035Y-95133184D01*
X103652035Y-95133185D01*
X103627475Y-95224841D01*
X103615088Y-95254747D01*
X103599318Y-95282061D01*
X103579612Y-95307741D01*
X103357147Y-95530206D01*
X103295824Y-95563691D01*
X103226132Y-95558707D01*
X103170199Y-95516835D01*
X103162082Y-95504530D01*
X103140730Y-95467547D01*
X103066256Y-95393073D01*
X103029275Y-95371722D01*
X102981060Y-95321156D01*
X102967836Y-95252549D01*
X102993804Y-95187684D01*
X103003586Y-95176662D01*
X103546572Y-94633677D01*
X103546571Y-94633674D01*
X103548917Y-94627317D01*
X103549902Y-94612005D01*
X103553023Y-94597147D01*
X103586066Y-94535589D01*
X103643284Y-94502600D01*
X103654570Y-94499676D01*
X103685657Y-94495717D01*
X103756064Y-94495717D01*
X103790992Y-94500738D01*
G37*
%TD.AperFunction*%
%TA.AperFunction,Conductor*%
G36*
X135960469Y-73864251D02*
G01*
X135975467Y-73868655D01*
X136034218Y-73906400D01*
X136035405Y-73907769D01*
X136062881Y-73962630D01*
X136064526Y-73970188D01*
X136067363Y-73996559D01*
X136067363Y-108037470D01*
X136062338Y-108072414D01*
X136057933Y-108087412D01*
X136020190Y-108146155D01*
X136018821Y-108147342D01*
X135963960Y-108174818D01*
X135956402Y-108176463D01*
X135930031Y-108179300D01*
X85570783Y-108179300D01*
X85535842Y-108174275D01*
X85520843Y-108169870D01*
X85462097Y-108132127D01*
X85460910Y-108130758D01*
X85433430Y-108075883D01*
X85431785Y-108068321D01*
X85428953Y-108041968D01*
X85428953Y-97768693D01*
X88775191Y-97768693D01*
X88775191Y-98057125D01*
X88775192Y-98057154D01*
X88812839Y-98343111D01*
X88812843Y-98343131D01*
X88871422Y-98561753D01*
X88887496Y-98621741D01*
X88887498Y-98621750D01*
X88887500Y-98621754D01*
X88887500Y-98621755D01*
X88887508Y-98621778D01*
X88997884Y-98888252D01*
X88997886Y-98888255D01*
X88997890Y-98888262D01*
X89142111Y-99138058D01*
X89142122Y-99138074D01*
X89177250Y-99183854D01*
X89317708Y-99366904D01*
X89317712Y-99366909D01*
X89317715Y-99366912D01*
X89317721Y-99366919D01*
X89317729Y-99366927D01*
X89521667Y-99570866D01*
X89521681Y-99570879D01*
X89521687Y-99570884D01*
X89724074Y-99726181D01*
X89750542Y-99746490D01*
X89750768Y-99746620D01*
X89868760Y-99814743D01*
X90000338Y-99890710D01*
X90000354Y-99890718D01*
X90119938Y-99940251D01*
X90262788Y-99999421D01*
X90264606Y-100000251D01*
X90265091Y-100000435D01*
X90266661Y-100001058D01*
X90267945Y-100001414D01*
X90271103Y-100002318D01*
X90272604Y-100002644D01*
X90303297Y-100010868D01*
X90545474Y-100075759D01*
X90792679Y-100108303D01*
X90826647Y-100117839D01*
X90840952Y-100124167D01*
X90894294Y-100169290D01*
X90894303Y-100169304D01*
X90897660Y-100174395D01*
X90916661Y-100223562D01*
X90916685Y-100223716D01*
X90918164Y-100242810D01*
X90918164Y-101111347D01*
X90913139Y-101146288D01*
X90906621Y-101168482D01*
X90878918Y-101217478D01*
X90876927Y-101219643D01*
X90861141Y-101234082D01*
X90714655Y-101346484D01*
X90714649Y-101346489D01*
X90510702Y-101550437D01*
X90510695Y-101550445D01*
X90510681Y-101550460D01*
X90335103Y-101779280D01*
X90335093Y-101779294D01*
X90335081Y-101779311D01*
X90190862Y-102029104D01*
X90190859Y-102029109D01*
X90190857Y-102029112D01*
X90080481Y-102295586D01*
X90080479Y-102295592D01*
X90080478Y-102295595D01*
X90080473Y-102295611D01*
X90072746Y-102324450D01*
X90005817Y-102574228D01*
X90005814Y-102574245D01*
X90005811Y-102574258D01*
X89968165Y-102860210D01*
X89968164Y-102860239D01*
X89968164Y-103148671D01*
X89968165Y-103148700D01*
X90004745Y-103426549D01*
X90005813Y-103434662D01*
X90005814Y-103434667D01*
X90005815Y-103434673D01*
X90078296Y-103705176D01*
X90078297Y-103705179D01*
X90078297Y-103705180D01*
X90080467Y-103713281D01*
X90080472Y-103713296D01*
X90080473Y-103713300D01*
X90080473Y-103713301D01*
X90080480Y-103713321D01*
X90190857Y-103979798D01*
X90190859Y-103979801D01*
X90190863Y-103979808D01*
X90335084Y-104229604D01*
X90335095Y-104229620D01*
X90360146Y-104262267D01*
X90510681Y-104458450D01*
X90510685Y-104458455D01*
X90510688Y-104458458D01*
X90510694Y-104458465D01*
X90510702Y-104458473D01*
X90714640Y-104662412D01*
X90714654Y-104662425D01*
X90714660Y-104662430D01*
X90932927Y-104829912D01*
X90943515Y-104838036D01*
X90943741Y-104838166D01*
X91061733Y-104906289D01*
X91193311Y-104982256D01*
X91193327Y-104982264D01*
X91326236Y-105037316D01*
X91455761Y-105090967D01*
X91457579Y-105091797D01*
X91458064Y-105091981D01*
X91459634Y-105092604D01*
X91460918Y-105092960D01*
X91464076Y-105093864D01*
X91465577Y-105094190D01*
X91496270Y-105102414D01*
X91738447Y-105167305D01*
X92024436Y-105204956D01*
X92024443Y-105204956D01*
X92312885Y-105204956D01*
X92312892Y-105204956D01*
X92598881Y-105167305D01*
X92873662Y-105093677D01*
X92876873Y-105092929D01*
X92879259Y-105091983D01*
X92879738Y-105091801D01*
X92881565Y-105090967D01*
X93139966Y-104983934D01*
X93141826Y-104983240D01*
X93142286Y-104983034D01*
X93144076Y-104982260D01*
X93145712Y-104981351D01*
X93147434Y-104980282D01*
X93393820Y-104838031D01*
X93622668Y-104662430D01*
X93826638Y-104458460D01*
X94002239Y-104229612D01*
X94146468Y-103979801D01*
X94161780Y-103942836D01*
X94161783Y-103942830D01*
X94196772Y-103858356D01*
X94255175Y-103717357D01*
X94256002Y-103715544D01*
X94256184Y-103715067D01*
X94257138Y-103712660D01*
X94257885Y-103709454D01*
X94331513Y-103434673D01*
X94369164Y-103148684D01*
X94369164Y-102860228D01*
X94331513Y-102574239D01*
X94258398Y-102301369D01*
X94258072Y-102299868D01*
X94257168Y-102296710D01*
X94256812Y-102295426D01*
X94256189Y-102293856D01*
X94256005Y-102293371D01*
X94255175Y-102291553D01*
X94155054Y-102049839D01*
X94146472Y-102029119D01*
X94146464Y-102029103D01*
X94070497Y-101897525D01*
X94002374Y-101779533D01*
X94002244Y-101779307D01*
X94002244Y-101779306D01*
X93887963Y-101630372D01*
X93826645Y-101550460D01*
X93826641Y-101550456D01*
X93826639Y-101550453D01*
X93826633Y-101550446D01*
X93622673Y-101346486D01*
X93612082Y-101338359D01*
X93612080Y-101338357D01*
X93481820Y-101238404D01*
X93457161Y-101213151D01*
X93443524Y-101194474D01*
X93421512Y-101142644D01*
X93421006Y-101139741D01*
X93419164Y-101118449D01*
X93419164Y-99245239D01*
X93424187Y-99210303D01*
X93428591Y-99195305D01*
X93466336Y-99136554D01*
X93467705Y-99135367D01*
X93522584Y-99107887D01*
X93530143Y-99106243D01*
X93556496Y-99103410D01*
X94942583Y-99103410D01*
X94977515Y-99108431D01*
X94999711Y-99114949D01*
X95048734Y-99142674D01*
X95050901Y-99144667D01*
X95065317Y-99160432D01*
X95177708Y-99306904D01*
X95177712Y-99306909D01*
X95177715Y-99306912D01*
X95177721Y-99306919D01*
X95381681Y-99510879D01*
X95381688Y-99510885D01*
X95381691Y-99510887D01*
X95381695Y-99510891D01*
X95459857Y-99570866D01*
X95459882Y-99570885D01*
X95500709Y-99602213D01*
X95610542Y-99686490D01*
X95610768Y-99686620D01*
X95679290Y-99726181D01*
X95860338Y-99830710D01*
X95860354Y-99830718D01*
X95963331Y-99873372D01*
X96122788Y-99939421D01*
X96124606Y-99940251D01*
X96125091Y-99940435D01*
X96126661Y-99941058D01*
X96127945Y-99941414D01*
X96131103Y-99942318D01*
X96132604Y-99942644D01*
X96163297Y-99950868D01*
X96405474Y-100015759D01*
X96691463Y-100053410D01*
X96691470Y-100053410D01*
X96979912Y-100053410D01*
X96979919Y-100053410D01*
X97265908Y-100015759D01*
X97540689Y-99942131D01*
X97543900Y-99941383D01*
X97546286Y-99940437D01*
X97546765Y-99940255D01*
X97548592Y-99939421D01*
X97806993Y-99832388D01*
X97808853Y-99831694D01*
X97809313Y-99831488D01*
X97811103Y-99830714D01*
X97812739Y-99829805D01*
X97814461Y-99828736D01*
X98060847Y-99686485D01*
X98289695Y-99510884D01*
X98493665Y-99306914D01*
X98669266Y-99078066D01*
X98813495Y-98828255D01*
X98858492Y-98719624D01*
X98899030Y-98621755D01*
X98922199Y-98565819D01*
X98923034Y-98563988D01*
X98923218Y-98563505D01*
X98924164Y-98561119D01*
X98924912Y-98557908D01*
X98998540Y-98283127D01*
X99036191Y-97997138D01*
X99036191Y-97708682D01*
X99013017Y-97532663D01*
X99013437Y-97497373D01*
X99017000Y-97474524D01*
X99038081Y-97422310D01*
X99039779Y-97419896D01*
X99053523Y-97403549D01*
X101437122Y-95019951D01*
X101465366Y-94998807D01*
X101471467Y-94995475D01*
X101539737Y-94980622D01*
X101605202Y-95005036D01*
X101647076Y-95060968D01*
X101652427Y-95128926D01*
X101651251Y-95134731D01*
X101640207Y-95166402D01*
X101615897Y-95214116D01*
X101615895Y-95214120D01*
X101602694Y-95254747D01*
X101552659Y-95408735D01*
X101552658Y-95408738D01*
X101552658Y-95408740D01*
X101520650Y-95610829D01*
X101520650Y-95815475D01*
X101552658Y-96017564D01*
X101552659Y-96017570D01*
X101615894Y-96212184D01*
X101637684Y-96254948D01*
X101708794Y-96394510D01*
X101708797Y-96394513D01*
X101741167Y-96439067D01*
X101741171Y-96439072D01*
X101741173Y-96439074D01*
X101741174Y-96439075D01*
X102284153Y-95896095D01*
X102345474Y-95862612D01*
X102415165Y-95867596D01*
X102471099Y-95909467D01*
X102479217Y-95921775D01*
X102500570Y-95958759D01*
X102575044Y-96033233D01*
X102575045Y-96033234D01*
X102575047Y-96033235D01*
X102612023Y-96054583D01*
X102660238Y-96105149D01*
X102673462Y-96173756D01*
X102647494Y-96238621D01*
X102637704Y-96249651D01*
X102094725Y-96792626D01*
X102094726Y-96792626D01*
X102094726Y-96792627D01*
X102139300Y-96825012D01*
X102191945Y-96851836D01*
X102321613Y-96917906D01*
X102321615Y-96917906D01*
X102321618Y-96917908D01*
X102516232Y-96981143D01*
X102718333Y-97013153D01*
X102922966Y-97013153D01*
X102922967Y-97013153D01*
X103125067Y-96981143D01*
X103319681Y-96917908D01*
X103421983Y-96865782D01*
X103455388Y-96854398D01*
X103458888Y-96853740D01*
X103469029Y-96851836D01*
X103538550Y-96858807D01*
X103593266Y-96902258D01*
X103593268Y-96902262D01*
X103595191Y-96904990D01*
X103616166Y-96956119D01*
X103616489Y-96958064D01*
X103618164Y-96978378D01*
X103618164Y-101111347D01*
X103613139Y-101146288D01*
X103606621Y-101168482D01*
X103578918Y-101217478D01*
X103576927Y-101219643D01*
X103561141Y-101234082D01*
X103414655Y-101346484D01*
X103414649Y-101346489D01*
X103210702Y-101550437D01*
X103210695Y-101550445D01*
X103210681Y-101550460D01*
X103035103Y-101779280D01*
X103035093Y-101779294D01*
X103035081Y-101779311D01*
X102890862Y-102029104D01*
X102890859Y-102029109D01*
X102890857Y-102029112D01*
X102780481Y-102295586D01*
X102780479Y-102295592D01*
X102780478Y-102295595D01*
X102780473Y-102295611D01*
X102772746Y-102324450D01*
X102705817Y-102574228D01*
X102705814Y-102574245D01*
X102705811Y-102574258D01*
X102668165Y-102860210D01*
X102668164Y-102860239D01*
X102668164Y-103148671D01*
X102668165Y-103148700D01*
X102704745Y-103426549D01*
X102705813Y-103434662D01*
X102705814Y-103434667D01*
X102705815Y-103434673D01*
X102778296Y-103705176D01*
X102778297Y-103705179D01*
X102778297Y-103705180D01*
X102780467Y-103713281D01*
X102780472Y-103713296D01*
X102780473Y-103713300D01*
X102780473Y-103713301D01*
X102780480Y-103713321D01*
X102890857Y-103979798D01*
X102890859Y-103979801D01*
X102890863Y-103979808D01*
X103035084Y-104229604D01*
X103035095Y-104229620D01*
X103060146Y-104262267D01*
X103210681Y-104458450D01*
X103210685Y-104458455D01*
X103210688Y-104458458D01*
X103210694Y-104458465D01*
X103210702Y-104458473D01*
X103414640Y-104662412D01*
X103414654Y-104662425D01*
X103414660Y-104662430D01*
X103632927Y-104829912D01*
X103643515Y-104838036D01*
X103643741Y-104838166D01*
X103761733Y-104906289D01*
X103893311Y-104982256D01*
X103893327Y-104982264D01*
X104026236Y-105037316D01*
X104155761Y-105090967D01*
X104157579Y-105091797D01*
X104158064Y-105091981D01*
X104159634Y-105092604D01*
X104160918Y-105092960D01*
X104164076Y-105093864D01*
X104165577Y-105094190D01*
X104196270Y-105102414D01*
X104438447Y-105167305D01*
X104724436Y-105204956D01*
X104724443Y-105204956D01*
X105012885Y-105204956D01*
X105012892Y-105204956D01*
X105298881Y-105167305D01*
X105573662Y-105093677D01*
X105576873Y-105092929D01*
X105579259Y-105091983D01*
X105579738Y-105091801D01*
X105581565Y-105090967D01*
X105839966Y-104983934D01*
X105841826Y-104983240D01*
X105842286Y-104983034D01*
X105844076Y-104982260D01*
X105845712Y-104981351D01*
X105847434Y-104980282D01*
X106093820Y-104838031D01*
X106322668Y-104662430D01*
X106526638Y-104458460D01*
X106634715Y-104317610D01*
X106659960Y-104292959D01*
X106678644Y-104279316D01*
X106730481Y-104257303D01*
X106733385Y-104256797D01*
X106754670Y-104254956D01*
X108004363Y-104254956D01*
X108039295Y-104259977D01*
X108061491Y-104266495D01*
X108110491Y-104294199D01*
X108112671Y-104296204D01*
X108127094Y-104311973D01*
X108233261Y-104450334D01*
X108233267Y-104450341D01*
X108437227Y-104654301D01*
X108437234Y-104654307D01*
X108437237Y-104654309D01*
X108437241Y-104654313D01*
X108492002Y-104696332D01*
X108666088Y-104829912D01*
X108666314Y-104830042D01*
X108784306Y-104898165D01*
X108915884Y-104974132D01*
X108915900Y-104974140D01*
X108937870Y-104983240D01*
X109178334Y-105082843D01*
X109180152Y-105083673D01*
X109180637Y-105083857D01*
X109182207Y-105084480D01*
X109183491Y-105084836D01*
X109186649Y-105085740D01*
X109188150Y-105086066D01*
X109212711Y-105092647D01*
X109461020Y-105159181D01*
X109747009Y-105196832D01*
X109747016Y-105196832D01*
X110035458Y-105196832D01*
X110035465Y-105196832D01*
X110321454Y-105159181D01*
X110596235Y-105085553D01*
X110599446Y-105084805D01*
X110601832Y-105083859D01*
X110602311Y-105083677D01*
X110604138Y-105082843D01*
X110862539Y-104975810D01*
X110864399Y-104975116D01*
X110864859Y-104974910D01*
X110866649Y-104974136D01*
X110868285Y-104973227D01*
X110870007Y-104972158D01*
X111116393Y-104829907D01*
X111345241Y-104654306D01*
X111549211Y-104450336D01*
X111661905Y-104303470D01*
X111711491Y-104238849D01*
X111718584Y-104229604D01*
X111724812Y-104221488D01*
X111869041Y-103971677D01*
X111880988Y-103942836D01*
X111880991Y-103942830D01*
X111917207Y-103855393D01*
X111977748Y-103709233D01*
X111978579Y-103707413D01*
X111978761Y-103706934D01*
X111979711Y-103704536D01*
X111980458Y-103701330D01*
X112054086Y-103426549D01*
X112091737Y-103140560D01*
X112091737Y-102884906D01*
X120891237Y-102884906D01*
X120891237Y-103107756D01*
X120920320Y-103328676D01*
X120920323Y-103328689D01*
X120920328Y-103328714D01*
X120964158Y-103492291D01*
X120978000Y-103543950D01*
X121024640Y-103656548D01*
X121063284Y-103749840D01*
X121063295Y-103749859D01*
X121174703Y-103942826D01*
X121174715Y-103942843D01*
X121225276Y-104008734D01*
X121225277Y-104008735D01*
X121225280Y-104008735D01*
X121908331Y-103325683D01*
X121969652Y-103292200D01*
X122039343Y-103297184D01*
X122095277Y-103339055D01*
X122103394Y-103351363D01*
X122111118Y-103364740D01*
X122222829Y-103476451D01*
X122236201Y-103484171D01*
X122284416Y-103534739D01*
X122297638Y-103603346D01*
X122271670Y-103668211D01*
X122261881Y-103679239D01*
X121578832Y-104362286D01*
X121578832Y-104362289D01*
X121644742Y-104412864D01*
X121644744Y-104412865D01*
X121837722Y-104524281D01*
X121837734Y-104524286D01*
X122043618Y-104609568D01*
X122189794Y-104648735D01*
X122258853Y-104667239D01*
X122258857Y-104667239D01*
X122258869Y-104667243D01*
X122258882Y-104667246D01*
X122479812Y-104696332D01*
X122702655Y-104696332D01*
X122702662Y-104696332D01*
X122923591Y-104667246D01*
X122923604Y-104667243D01*
X123138855Y-104609568D01*
X123344739Y-104524286D01*
X123344751Y-104524281D01*
X123537735Y-104412862D01*
X123603640Y-104362289D01*
X123603641Y-104362288D01*
X123603640Y-104362287D01*
X123603641Y-104362287D01*
X122920591Y-103679239D01*
X122887106Y-103617916D01*
X122892090Y-103548225D01*
X122933961Y-103492291D01*
X122946259Y-103484178D01*
X122959645Y-103476451D01*
X123071356Y-103364740D01*
X123079076Y-103351367D01*
X123129639Y-103303153D01*
X123198246Y-103289928D01*
X123263112Y-103315894D01*
X123274144Y-103325686D01*
X123957192Y-104008736D01*
X123957192Y-104008735D01*
X123957193Y-104008736D01*
X123957194Y-104008735D01*
X124007767Y-103942830D01*
X124119186Y-103749846D01*
X124119191Y-103749834D01*
X124204473Y-103543950D01*
X124262148Y-103328699D01*
X124262151Y-103328686D01*
X124291237Y-103107756D01*
X124291237Y-102884907D01*
X124262151Y-102663977D01*
X124262148Y-102663964D01*
X124256073Y-102641293D01*
X124235929Y-102566112D01*
X124204473Y-102448713D01*
X124119191Y-102242829D01*
X124119186Y-102242817D01*
X124007770Y-102049839D01*
X124007769Y-102049837D01*
X123957194Y-101983927D01*
X123957193Y-101983927D01*
X123957192Y-101983927D01*
X123957191Y-101983927D01*
X123274143Y-102666975D01*
X123212820Y-102700460D01*
X123143128Y-102695476D01*
X123087195Y-102653604D01*
X123079075Y-102641293D01*
X123071359Y-102627930D01*
X123071356Y-102627924D01*
X122959645Y-102516213D01*
X122952823Y-102512274D01*
X122946269Y-102508490D01*
X122898054Y-102457922D01*
X122884833Y-102389315D01*
X122910802Y-102324450D01*
X122920580Y-102313433D01*
X123603640Y-101630375D01*
X123603640Y-101630372D01*
X123537741Y-101579805D01*
X123537728Y-101579796D01*
X123344757Y-101468386D01*
X123344745Y-101468379D01*
X123251453Y-101429735D01*
X123138855Y-101383095D01*
X123138848Y-101383093D01*
X122923619Y-101325423D01*
X122923604Y-101325420D01*
X122923591Y-101325417D01*
X122923587Y-101325416D01*
X122923581Y-101325415D01*
X122702663Y-101296332D01*
X122702662Y-101296332D01*
X122479812Y-101296332D01*
X122479811Y-101296332D01*
X122258891Y-101325415D01*
X122258878Y-101325418D01*
X122258853Y-101325423D01*
X122043624Y-101383093D01*
X122043620Y-101383094D01*
X122043618Y-101383095D01*
X122043616Y-101383096D01*
X121837727Y-101468379D01*
X121837708Y-101468390D01*
X121644745Y-101579795D01*
X121578832Y-101630372D01*
X121578832Y-101630375D01*
X122261882Y-102313424D01*
X122295367Y-102374747D01*
X122290383Y-102444438D01*
X122248511Y-102500372D01*
X122236204Y-102508491D01*
X122222829Y-102516213D01*
X122222826Y-102516215D01*
X122111120Y-102627921D01*
X122111118Y-102627924D01*
X122103396Y-102641299D01*
X122052827Y-102689513D01*
X121984220Y-102702734D01*
X121919356Y-102676765D01*
X121908329Y-102666977D01*
X121225280Y-101983927D01*
X121225277Y-101983927D01*
X121174700Y-102049840D01*
X121063295Y-102242803D01*
X121063284Y-102242822D01*
X120978001Y-102448711D01*
X120977998Y-102448719D01*
X120920328Y-102663948D01*
X120920323Y-102663973D01*
X120920320Y-102663986D01*
X120891237Y-102884906D01*
X112091737Y-102884906D01*
X112091737Y-102852104D01*
X112054086Y-102566115D01*
X111983148Y-102301369D01*
X111980971Y-102293245D01*
X111980645Y-102291744D01*
X111979741Y-102288586D01*
X111979385Y-102287302D01*
X111978762Y-102285732D01*
X111978578Y-102285247D01*
X111977748Y-102283429D01*
X111880992Y-102049839D01*
X111869045Y-102020995D01*
X111869037Y-102020979D01*
X111729509Y-101779311D01*
X111724947Y-101771409D01*
X111724817Y-101771184D01*
X111724814Y-101771179D01*
X111723958Y-101770063D01*
X111723953Y-101770051D01*
X111723951Y-101770053D01*
X111696494Y-101734271D01*
X111549212Y-101542329D01*
X111549206Y-101542322D01*
X111345246Y-101338362D01*
X111345239Y-101338356D01*
X111345236Y-101338353D01*
X111345231Y-101338349D01*
X111117991Y-101163983D01*
X111116716Y-101162971D01*
X111116391Y-101162755D01*
X110866587Y-101018530D01*
X110866582Y-101018527D01*
X110866569Y-101018521D01*
X110600106Y-100908149D01*
X110600088Y-100908142D01*
X110600077Y-100908139D01*
X110321458Y-100833484D01*
X110321456Y-100833483D01*
X110321454Y-100833483D01*
X110321448Y-100833482D01*
X110321443Y-100833481D01*
X110321438Y-100833480D01*
X110039565Y-100796371D01*
X110037549Y-100796037D01*
X110035475Y-100795832D01*
X110035470Y-100795832D01*
X110035465Y-100795832D01*
X109747009Y-100795832D01*
X109747003Y-100795832D01*
X109746998Y-100795832D01*
X109744921Y-100796037D01*
X109742907Y-100796371D01*
X109461051Y-100833478D01*
X109461019Y-100833482D01*
X109459210Y-100833909D01*
X109457434Y-100834443D01*
X109182387Y-100908142D01*
X109182367Y-100908149D01*
X108915893Y-101018525D01*
X108915890Y-101018527D01*
X108915885Y-101018530D01*
X108666092Y-101162749D01*
X108666075Y-101162761D01*
X108666061Y-101162771D01*
X108437241Y-101338349D01*
X108437234Y-101338356D01*
X108437227Y-101338362D01*
X108437223Y-101338366D01*
X108437218Y-101338370D01*
X108233268Y-101542320D01*
X108233261Y-101542327D01*
X108233261Y-101542329D01*
X108118954Y-101691298D01*
X108093701Y-101715956D01*
X108075023Y-101729594D01*
X108023233Y-101751600D01*
X108020330Y-101752107D01*
X107998997Y-101753956D01*
X106761772Y-101753956D01*
X106726836Y-101748933D01*
X106704642Y-101742416D01*
X106655642Y-101714711D01*
X106653462Y-101712706D01*
X106639041Y-101696938D01*
X106575153Y-101613678D01*
X106526645Y-101550460D01*
X106526641Y-101550456D01*
X106526639Y-101550453D01*
X106526633Y-101550446D01*
X106322673Y-101346486D01*
X106312082Y-101338359D01*
X106312080Y-101338357D01*
X106181820Y-101238404D01*
X106157161Y-101213151D01*
X106143524Y-101194474D01*
X106121512Y-101142644D01*
X106121006Y-101139741D01*
X106119164Y-101118449D01*
X106119164Y-99183863D01*
X115384446Y-99183863D01*
X115394938Y-99286562D01*
X115394938Y-99286563D01*
X115394939Y-99286565D01*
X115450086Y-99452987D01*
X115450088Y-99452992D01*
X115542129Y-99602213D01*
X115666099Y-99726183D01*
X115815320Y-99818224D01*
X115815325Y-99818226D01*
X115981744Y-99873372D01*
X115981745Y-99873372D01*
X115981747Y-99873373D01*
X115981754Y-99873374D01*
X116084464Y-99883867D01*
X116359444Y-99883867D01*
X116859445Y-99883867D01*
X117134405Y-99883867D01*
X117134417Y-99883867D01*
X117134431Y-99883866D01*
X117237142Y-99873373D01*
X117403564Y-99818226D01*
X117403569Y-99818224D01*
X117552790Y-99726183D01*
X117676760Y-99602213D01*
X117768801Y-99452992D01*
X117768803Y-99452987D01*
X117823950Y-99286565D01*
X117823951Y-99286558D01*
X117834444Y-99183854D01*
X117834445Y-99183841D01*
X117834445Y-99133868D01*
X116859445Y-99133868D01*
X116859445Y-99883867D01*
X116359444Y-99883867D01*
X116359445Y-99883866D01*
X116359445Y-99133868D01*
X115384446Y-99133868D01*
X115384446Y-99183863D01*
X106119164Y-99183863D01*
X106119164Y-97443682D01*
X106124186Y-97408750D01*
X106125715Y-97403543D01*
X106129488Y-97390693D01*
X106162895Y-97335884D01*
X106170438Y-97328692D01*
X106194003Y-97311054D01*
X106363095Y-97213429D01*
X106363097Y-97213428D01*
X106421770Y-97168407D01*
X106482291Y-97121967D01*
X106537496Y-97079607D01*
X106560789Y-97065504D01*
X106579242Y-97056943D01*
X106648335Y-97046587D01*
X106654376Y-97047418D01*
X106704498Y-97065941D01*
X106707347Y-97067772D01*
X106707347Y-97067771D01*
X106709355Y-97069062D01*
X106717799Y-97075000D01*
X106839530Y-97168407D01*
X106898200Y-97213426D01*
X107029568Y-97289271D01*
X107099166Y-97329454D01*
X107100905Y-97330535D01*
X107102358Y-97331342D01*
X107103097Y-97331642D01*
X107320657Y-97421759D01*
X107548636Y-97482846D01*
X107782639Y-97513653D01*
X107863484Y-97513653D01*
X107898416Y-97518674D01*
X107923660Y-97526087D01*
X107976406Y-97557383D01*
X108636004Y-98216981D01*
X108795245Y-98332677D01*
X108845531Y-98358299D01*
X108964176Y-98418752D01*
X108965768Y-98419684D01*
X108969481Y-98421483D01*
X108971477Y-98422475D01*
X108975245Y-98423538D01*
X109070966Y-98454639D01*
X109070967Y-98454640D01*
X109070968Y-98454640D01*
X109157823Y-98482862D01*
X109352228Y-98513653D01*
X109352233Y-98513653D01*
X112135639Y-98513653D01*
X112135640Y-98513653D01*
X112330044Y-98482862D01*
X112357429Y-98473964D01*
X112517244Y-98422037D01*
X112692623Y-98332677D01*
X112851864Y-98216981D01*
X114686307Y-96382535D01*
X114714555Y-96361389D01*
X114724484Y-96355967D01*
X114792756Y-96341116D01*
X114858220Y-96365533D01*
X114900092Y-96421466D01*
X114900093Y-96421470D01*
X114900479Y-96422505D01*
X114907819Y-96476702D01*
X114907699Y-96478066D01*
X114904417Y-96497498D01*
X114894350Y-96537448D01*
X114894349Y-96537450D01*
X114883945Y-96669641D01*
X114883945Y-97298079D01*
X114894348Y-97430282D01*
X114894349Y-97430286D01*
X114894351Y-97430297D01*
X114949344Y-97648536D01*
X114949351Y-97648557D01*
X115042431Y-97853482D01*
X115042437Y-97853492D01*
X115042440Y-97853498D01*
X115042444Y-97853504D01*
X115170604Y-98038493D01*
X115170619Y-98038513D01*
X115170623Y-98038518D01*
X115170626Y-98038522D01*
X115329787Y-98197683D01*
X115329791Y-98197687D01*
X115368240Y-98224324D01*
X115394097Y-98248350D01*
X115400150Y-98255846D01*
X115403920Y-98260515D01*
X115430718Y-98325029D01*
X115431747Y-98334506D01*
X115426178Y-98386894D01*
X115394940Y-98481165D01*
X115394938Y-98481170D01*
X115384445Y-98583873D01*
X115384445Y-98583881D01*
X115384445Y-98633868D01*
X117834444Y-98633868D01*
X117834444Y-98589291D01*
X117854129Y-98522252D01*
X117906933Y-98476497D01*
X117976091Y-98466553D01*
X118039647Y-98495578D01*
X118059445Y-98517357D01*
X118166067Y-98667086D01*
X118166070Y-98667089D01*
X118212140Y-98719603D01*
X118212161Y-98719624D01*
X118331969Y-98835276D01*
X118331971Y-98835277D01*
X118331973Y-98835279D01*
X118392009Y-98874913D01*
X118501754Y-98947364D01*
X118501757Y-98947365D01*
X118501761Y-98947368D01*
X118690636Y-99022984D01*
X118757795Y-99042257D01*
X118815082Y-99056155D01*
X118838790Y-99061907D01*
X118838791Y-99061907D01*
X118838795Y-99061908D01*
X119041324Y-99081248D01*
X132468051Y-98998862D01*
X132502331Y-98998067D01*
X132703745Y-98969358D01*
X132760210Y-98955365D01*
X132872483Y-98920460D01*
X133054671Y-98829909D01*
X133214901Y-98704538D01*
X133265290Y-98656136D01*
X133375434Y-98531209D01*
X133479744Y-98356535D01*
X133546758Y-98164439D01*
X133562980Y-98096479D01*
X133578956Y-98014672D01*
X133589135Y-97811477D01*
X133356825Y-93286040D01*
X133329983Y-93101276D01*
X133319208Y-93056713D01*
X133301448Y-92992620D01*
X133221334Y-92805608D01*
X133205596Y-92782966D01*
X133105220Y-92638557D01*
X133059744Y-92585515D01*
X132941232Y-92468481D01*
X132767524Y-92350947D01*
X132768968Y-92348812D01*
X132727344Y-92307655D01*
X132712106Y-92239467D01*
X132712206Y-92238064D01*
X132726087Y-92061035D01*
X132669080Y-89593422D01*
X132654346Y-88955640D01*
X132654345Y-88955624D01*
X132654345Y-88955612D01*
X132646448Y-88850955D01*
X132643160Y-88825312D01*
X132624394Y-88722035D01*
X132622757Y-88715105D01*
X132611544Y-88671938D01*
X132536525Y-88482837D01*
X132536526Y-88482837D01*
X132508558Y-88428985D01*
X132487156Y-88389921D01*
X132487153Y-88389915D01*
X132400869Y-88270245D01*
X132396294Y-88257272D01*
X132374608Y-88232250D01*
X132373639Y-88231184D01*
X132373671Y-88231154D01*
X132369862Y-88226796D01*
X132345993Y-88199911D01*
X132332365Y-88187948D01*
X132308730Y-88163160D01*
X132148058Y-88038371D01*
X132148052Y-88038367D01*
X132148048Y-88038364D01*
X132088814Y-88001309D01*
X132072822Y-87992204D01*
X132016395Y-87960078D01*
X131849561Y-87894454D01*
X131827065Y-87885605D01*
X131812014Y-87881384D01*
X131812010Y-87881383D01*
X131812006Y-87881382D01*
X131671465Y-87852597D01*
X131666578Y-87851955D01*
X131636469Y-87848000D01*
X131636464Y-87847999D01*
X131636465Y-87847999D01*
X131503547Y-87840122D01*
X131493224Y-87839511D01*
X131493223Y-87839511D01*
X126997517Y-87894454D01*
X126995351Y-87894461D01*
X122668519Y-87871755D01*
X119448194Y-87854854D01*
X119381259Y-87834818D01*
X119335782Y-87781775D01*
X119326201Y-87712565D01*
X119355560Y-87649163D01*
X119361148Y-87643192D01*
X121424917Y-85579423D01*
X121453167Y-85558275D01*
X121476259Y-85545667D01*
X121535684Y-85530500D01*
X126701853Y-85530500D01*
X126736789Y-85535523D01*
X126751787Y-85539927D01*
X126810558Y-85577695D01*
X126816666Y-85584743D01*
X126837273Y-85622791D01*
X126838755Y-85622200D01*
X126841089Y-85628045D01*
X126935302Y-85808407D01*
X127063890Y-85966109D01*
X127130334Y-86020286D01*
X127221593Y-86094698D01*
X127401951Y-86188909D01*
X127597582Y-86244886D01*
X127716963Y-86255500D01*
X129783036Y-86255499D01*
X129902418Y-86244886D01*
X130098049Y-86188909D01*
X130278407Y-86094698D01*
X130436109Y-85966109D01*
X130564698Y-85808407D01*
X130658909Y-85628049D01*
X130714886Y-85432418D01*
X130725500Y-85313037D01*
X130725499Y-83246964D01*
X130714886Y-83127582D01*
X130661101Y-82939611D01*
X130658910Y-82931954D01*
X130658909Y-82931953D01*
X130658909Y-82931951D01*
X130564698Y-82751593D01*
X130456909Y-82619400D01*
X130456909Y-82619399D01*
X130456906Y-82619397D01*
X130443515Y-82602973D01*
X130436110Y-82593890D01*
X130373080Y-82542497D01*
X130304006Y-82486175D01*
X130295257Y-82479041D01*
X130278412Y-82465305D01*
X130278408Y-82465303D01*
X130278407Y-82465302D01*
X130102013Y-82373161D01*
X130098836Y-82371353D01*
X130098042Y-82371088D01*
X129980829Y-82337550D01*
X129904981Y-82315847D01*
X129902825Y-82315179D01*
X129900347Y-82314777D01*
X129896936Y-82314626D01*
X129887628Y-82313798D01*
X129836102Y-82309217D01*
X129836101Y-82309216D01*
X129783039Y-82304500D01*
X129783037Y-82304500D01*
X129783032Y-82304500D01*
X127716971Y-82304500D01*
X127716965Y-82304500D01*
X127704897Y-82304500D01*
X127698042Y-82306182D01*
X127597582Y-82315113D01*
X127401952Y-82371089D01*
X127311771Y-82418194D01*
X127311772Y-82418195D01*
X127222578Y-82464787D01*
X127221646Y-82465263D01*
X127219242Y-82466996D01*
X127216716Y-82469278D01*
X127063890Y-82593890D01*
X126935302Y-82751591D01*
X126841083Y-82931964D01*
X126840791Y-82932697D01*
X126830417Y-82953010D01*
X126821002Y-82967885D01*
X126768526Y-83013999D01*
X126760066Y-83017933D01*
X126707773Y-83029500D01*
X120857440Y-83029500D01*
X120663043Y-83060289D01*
X120475838Y-83121116D01*
X120300461Y-83210475D01*
X120250239Y-83246965D01*
X120153092Y-83317547D01*
X120145711Y-83321680D01*
X116101191Y-87366200D01*
X116072938Y-87387351D01*
X116060756Y-87394003D01*
X115992483Y-87408855D01*
X115927020Y-87384439D01*
X115922264Y-87380879D01*
X115883686Y-87332903D01*
X115869241Y-87301100D01*
X115869239Y-87301095D01*
X115869239Y-87301093D01*
X115818201Y-87188731D01*
X115805685Y-87161175D01*
X115805683Y-87161172D01*
X115805681Y-87161168D01*
X115726230Y-87046489D01*
X115726229Y-87046486D01*
X115682526Y-86983405D01*
X115681594Y-86981832D01*
X115678195Y-86977116D01*
X115677541Y-86976191D01*
X115518332Y-86816982D01*
X115518323Y-86816974D01*
X115479883Y-86790344D01*
X115454025Y-86766318D01*
X115444204Y-86754156D01*
X115417402Y-86689638D01*
X115416373Y-86680161D01*
X115421941Y-86627775D01*
X115453183Y-86533495D01*
X115453184Y-86533491D01*
X115463677Y-86430787D01*
X115463678Y-86430774D01*
X115463678Y-86380801D01*
X113013679Y-86380801D01*
X113013679Y-86430796D01*
X113024171Y-86533495D01*
X113024172Y-86533500D01*
X113053609Y-86622335D01*
X113059830Y-86657070D01*
X113060368Y-86672693D01*
X113043002Y-86740371D01*
X113042994Y-86740383D01*
X113038118Y-86748575D01*
X113002184Y-86787079D01*
X112959020Y-86816984D01*
X112799854Y-86976152D01*
X112799852Y-86976155D01*
X112799847Y-86976160D01*
X112671677Y-87161163D01*
X112671673Y-87161169D01*
X112671670Y-87161175D01*
X112671664Y-87161185D01*
X112578584Y-87366110D01*
X112578577Y-87366131D01*
X112523584Y-87584370D01*
X112523582Y-87584381D01*
X112523582Y-87584384D01*
X112513178Y-87716572D01*
X112513178Y-87918634D01*
X112508183Y-87935642D01*
X112508213Y-87953373D01*
X112508154Y-87953571D01*
X112500742Y-87978812D01*
X112469438Y-88031565D01*
X112464670Y-88036332D01*
X112436428Y-88057473D01*
X112425479Y-88063452D01*
X112357206Y-88078305D01*
X112291741Y-88053890D01*
X112251207Y-88001389D01*
X112247465Y-87992200D01*
X112239370Y-87961622D01*
X112233710Y-87918634D01*
X112210343Y-87741145D01*
X112210343Y-87741141D01*
X112210343Y-87741139D01*
X112149256Y-87513160D01*
X112059139Y-87295600D01*
X112058839Y-87294861D01*
X112058032Y-87293408D01*
X112056947Y-87291662D01*
X112028354Y-87242139D01*
X112016768Y-87222071D01*
X111940923Y-87090703D01*
X111940922Y-87090701D01*
X111860954Y-86986485D01*
X111797249Y-86903462D01*
X111797245Y-86903458D01*
X111797243Y-86903455D01*
X111797237Y-86903448D01*
X111630354Y-86736565D01*
X111630347Y-86736559D01*
X111630344Y-86736556D01*
X111630339Y-86736552D01*
X111444690Y-86594100D01*
X111443426Y-86593097D01*
X111443097Y-86592878D01*
X111443095Y-86592876D01*
X111352730Y-86540705D01*
X111238706Y-86474872D01*
X111238698Y-86474868D01*
X111020639Y-86384545D01*
X111006663Y-86380800D01*
X111006663Y-86380801D01*
X110800515Y-86325563D01*
X110792767Y-86322933D01*
X110784601Y-86322398D01*
X110560539Y-86292900D01*
X110558858Y-86292653D01*
X110558667Y-86292653D01*
X110558661Y-86292653D01*
X110322639Y-86292653D01*
X110322633Y-86292653D01*
X110322631Y-86292653D01*
X110316511Y-86293406D01*
X110315605Y-86293578D01*
X110088642Y-86323458D01*
X109860651Y-86384548D01*
X109642600Y-86474868D01*
X109642592Y-86474872D01*
X109438195Y-86592883D01*
X109438186Y-86592889D01*
X109263787Y-86726710D01*
X109254262Y-86730392D01*
X109240452Y-86740834D01*
X109222025Y-86749376D01*
X109152924Y-86759711D01*
X109152916Y-86759710D01*
X109152911Y-86759710D01*
X109146850Y-86758873D01*
X109096775Y-86740355D01*
X109093948Y-86738538D01*
X109093947Y-86738538D01*
X109092006Y-86737291D01*
X109083561Y-86731352D01*
X109077511Y-86726710D01*
X108904689Y-86594099D01*
X108903426Y-86593097D01*
X108903097Y-86592878D01*
X108903095Y-86592876D01*
X108812730Y-86540705D01*
X108698706Y-86474872D01*
X108698698Y-86474868D01*
X108480639Y-86384545D01*
X108466663Y-86380800D01*
X108466663Y-86380801D01*
X108260515Y-86325563D01*
X108252767Y-86322933D01*
X108244601Y-86322398D01*
X108020539Y-86292900D01*
X108018858Y-86292653D01*
X108018667Y-86292653D01*
X108018661Y-86292653D01*
X107782639Y-86292653D01*
X107782633Y-86292653D01*
X107782631Y-86292653D01*
X107776511Y-86293406D01*
X107775605Y-86293578D01*
X107548642Y-86323458D01*
X107320651Y-86384548D01*
X107102600Y-86474868D01*
X107102592Y-86474872D01*
X106898195Y-86592883D01*
X106898186Y-86592889D01*
X106723787Y-86726710D01*
X106714262Y-86730392D01*
X106700452Y-86740834D01*
X106682025Y-86749376D01*
X106612924Y-86759711D01*
X106612916Y-86759710D01*
X106612911Y-86759710D01*
X106606850Y-86758873D01*
X106556775Y-86740355D01*
X106553948Y-86738538D01*
X106553947Y-86738538D01*
X106552006Y-86737291D01*
X106543561Y-86731352D01*
X106537511Y-86726710D01*
X106364689Y-86594099D01*
X106363426Y-86593097D01*
X106363097Y-86592878D01*
X106363095Y-86592876D01*
X106272730Y-86540705D01*
X106158706Y-86474872D01*
X106158698Y-86474868D01*
X105940639Y-86384545D01*
X105926663Y-86380800D01*
X105926663Y-86380801D01*
X105720515Y-86325563D01*
X105712767Y-86322933D01*
X105704601Y-86322398D01*
X105480539Y-86292900D01*
X105478858Y-86292653D01*
X105478667Y-86292653D01*
X105478661Y-86292653D01*
X105478654Y-86292653D01*
X105397816Y-86292653D01*
X105362880Y-86287630D01*
X105337638Y-86280218D01*
X105284893Y-86248922D01*
X104641160Y-85605189D01*
X104620011Y-85576939D01*
X104614589Y-85567009D01*
X104599736Y-85498739D01*
X104624150Y-85433274D01*
X104680080Y-85391402D01*
X104683959Y-85389955D01*
X104687295Y-85388712D01*
X104730609Y-85380901D01*
X106289053Y-85380901D01*
X106323981Y-85385921D01*
X106340690Y-85390827D01*
X106397291Y-85426154D01*
X106405897Y-85435571D01*
X106424272Y-85461810D01*
X106487998Y-85583808D01*
X106616586Y-85741510D01*
X106698630Y-85808407D01*
X106774289Y-85870099D01*
X106954647Y-85964310D01*
X106954649Y-85964310D01*
X106954650Y-85964311D01*
X106960934Y-85966109D01*
X107150278Y-86020287D01*
X107269659Y-86030901D01*
X109185732Y-86030900D01*
X109305114Y-86020287D01*
X109500745Y-85964310D01*
X109681103Y-85870099D01*
X109729290Y-85830808D01*
X113013678Y-85830808D01*
X113013678Y-85830811D01*
X113013678Y-85830814D01*
X113013678Y-85880801D01*
X113988678Y-85880801D01*
X114488678Y-85880801D01*
X115463677Y-85880801D01*
X115463677Y-85830829D01*
X115463676Y-85830814D01*
X115453183Y-85728103D01*
X115398036Y-85561681D01*
X115398034Y-85561676D01*
X115305993Y-85412455D01*
X115182023Y-85288485D01*
X115032802Y-85196444D01*
X115032797Y-85196442D01*
X115032788Y-85196439D01*
X114866377Y-85141295D01*
X114866372Y-85141294D01*
X114763669Y-85130801D01*
X114763664Y-85130801D01*
X114488678Y-85130801D01*
X114488678Y-85880801D01*
X113988678Y-85880801D01*
X113988678Y-85130801D01*
X113713715Y-85130801D01*
X113713707Y-85130801D01*
X113713697Y-85130801D01*
X113713684Y-85130802D01*
X113610982Y-85141294D01*
X113610980Y-85141295D01*
X113444565Y-85196439D01*
X113444557Y-85196442D01*
X113444555Y-85196443D01*
X113444553Y-85196444D01*
X113345072Y-85257804D01*
X113295330Y-85288486D01*
X113171363Y-85412453D01*
X113157104Y-85435571D01*
X113081420Y-85558274D01*
X113079319Y-85561680D01*
X113079316Y-85561689D01*
X113024172Y-85728100D01*
X113024171Y-85728105D01*
X113013678Y-85830808D01*
X109729290Y-85830808D01*
X109838805Y-85741510D01*
X109967394Y-85583808D01*
X110061605Y-85403450D01*
X110117582Y-85207819D01*
X110128196Y-85088438D01*
X110128195Y-83172365D01*
X110117582Y-83052983D01*
X110068057Y-82879901D01*
X110062246Y-82859592D01*
X110061610Y-82857199D01*
X110060164Y-82854594D01*
X109967394Y-82676994D01*
X109931698Y-82633216D01*
X109913517Y-82602973D01*
X109907451Y-82588564D01*
X109899580Y-82519146D01*
X109901688Y-82507063D01*
X109916453Y-82466387D01*
X109935854Y-82432785D01*
X109935861Y-82432772D01*
X110031198Y-82202608D01*
X110095678Y-81961966D01*
X110128196Y-81714966D01*
X110128196Y-81465836D01*
X110095678Y-81218836D01*
X110031198Y-80978194D01*
X109935864Y-80748038D01*
X109935858Y-80748024D01*
X109811295Y-80532274D01*
X109774838Y-80484762D01*
X109774835Y-80484759D01*
X109774834Y-80484758D01*
X109659635Y-80334626D01*
X109659629Y-80334619D01*
X109483477Y-80158467D01*
X109483470Y-80158461D01*
X109483467Y-80158458D01*
X109483462Y-80158454D01*
X109285821Y-80006800D01*
X109151466Y-79929231D01*
X109070072Y-79882238D01*
X109070057Y-79882231D01*
X109070044Y-79882225D01*
X108839907Y-79786900D01*
X108839909Y-79786900D01*
X108599255Y-79722417D01*
X108356361Y-79690440D01*
X108354345Y-79690106D01*
X108352271Y-79689901D01*
X108352266Y-79689901D01*
X108352261Y-79689901D01*
X108103131Y-79689901D01*
X108103125Y-79689901D01*
X108103120Y-79689901D01*
X108101043Y-79690106D01*
X108099029Y-79690440D01*
X107856135Y-79722417D01*
X107615482Y-79786900D01*
X107385346Y-79882225D01*
X107385333Y-79882231D01*
X107385326Y-79882234D01*
X107385319Y-79882238D01*
X107385306Y-79882244D01*
X107385305Y-79882246D01*
X107169569Y-80006800D01*
X106971928Y-80158454D01*
X106971913Y-80158468D01*
X106971905Y-80158475D01*
X106795770Y-80334610D01*
X106795763Y-80334618D01*
X106795749Y-80334633D01*
X106644095Y-80532274D01*
X106577898Y-80646932D01*
X106519533Y-80748024D01*
X106519531Y-80748028D01*
X106519526Y-80748038D01*
X106519520Y-80748051D01*
X106424195Y-80978187D01*
X106359712Y-81218840D01*
X106327197Y-81465818D01*
X106327196Y-81465847D01*
X106327196Y-81714953D01*
X106327197Y-81714982D01*
X106359712Y-81961960D01*
X106424194Y-82202610D01*
X106480088Y-82337550D01*
X106519526Y-82432762D01*
X106519531Y-82432772D01*
X106519532Y-82432774D01*
X106519536Y-82432781D01*
X106537329Y-82463600D01*
X106550444Y-82496360D01*
X106554130Y-82511551D01*
X106552657Y-82542497D01*
X106553241Y-82573477D01*
X106550806Y-82581351D01*
X106546799Y-82592927D01*
X106525723Y-82630725D01*
X106518075Y-82640104D01*
X106518068Y-82640114D01*
X106487998Y-82676993D01*
X106447212Y-82755073D01*
X106447210Y-82755078D01*
X106425045Y-82797512D01*
X106404416Y-82826153D01*
X106392337Y-82838685D01*
X106372030Y-82850623D01*
X106356684Y-82864436D01*
X106345408Y-82866274D01*
X106334835Y-82872491D01*
X106322505Y-82875760D01*
X106290727Y-82879901D01*
X103344489Y-82879901D01*
X103150092Y-82910690D01*
X102962887Y-82971517D01*
X102787509Y-83060877D01*
X102733388Y-83100199D01*
X102699634Y-83124724D01*
X102640141Y-83167948D01*
X102632760Y-83172081D01*
X101951359Y-83853483D01*
X101923108Y-83874632D01*
X101900020Y-83887240D01*
X101840590Y-83902410D01*
X98728799Y-83902410D01*
X98693863Y-83897387D01*
X98671669Y-83890870D01*
X98622669Y-83863165D01*
X98620489Y-83861160D01*
X98606068Y-83845392D01*
X98539689Y-83758886D01*
X98493672Y-83698914D01*
X98493668Y-83698910D01*
X98493666Y-83698907D01*
X98493660Y-83698900D01*
X98289700Y-83494940D01*
X98289693Y-83494934D01*
X98289690Y-83494931D01*
X98289685Y-83494927D01*
X98062445Y-83320561D01*
X98061170Y-83319549D01*
X98060845Y-83319333D01*
X97813582Y-83176575D01*
X97811043Y-83175109D01*
X97811041Y-83175108D01*
X97811036Y-83175105D01*
X97811023Y-83175099D01*
X97544560Y-83064727D01*
X97544542Y-83064720D01*
X97544531Y-83064717D01*
X97265912Y-82990062D01*
X97265910Y-82990061D01*
X97265908Y-82990061D01*
X97265902Y-82990060D01*
X97265897Y-82990059D01*
X97265892Y-82990058D01*
X96984019Y-82952949D01*
X96982003Y-82952615D01*
X96979929Y-82952410D01*
X96979924Y-82952410D01*
X96979919Y-82952410D01*
X96691463Y-82952410D01*
X96691457Y-82952410D01*
X96691452Y-82952410D01*
X96689375Y-82952615D01*
X96687361Y-82952949D01*
X96405505Y-82990056D01*
X96405473Y-82990060D01*
X96403664Y-82990487D01*
X96401888Y-82991021D01*
X96170638Y-83052985D01*
X96170637Y-83052984D01*
X96126852Y-83064717D01*
X96126821Y-83064727D01*
X95860347Y-83175103D01*
X95860344Y-83175105D01*
X95860339Y-83175108D01*
X95610546Y-83319327D01*
X95610529Y-83319339D01*
X95610515Y-83319349D01*
X95381695Y-83494927D01*
X95381680Y-83494941D01*
X95381672Y-83494948D01*
X95177729Y-83698891D01*
X95177722Y-83698899D01*
X95177708Y-83698914D01*
X95002130Y-83927734D01*
X95002120Y-83927748D01*
X95002108Y-83927765D01*
X94857889Y-84177558D01*
X94857886Y-84177563D01*
X94857884Y-84177566D01*
X94747508Y-84444040D01*
X94747506Y-84444046D01*
X94747505Y-84444049D01*
X94747500Y-84444065D01*
X94720174Y-84546043D01*
X94672844Y-84722682D01*
X94672841Y-84722699D01*
X94672838Y-84722712D01*
X94635192Y-85008664D01*
X94635191Y-85008693D01*
X94635191Y-85297125D01*
X94635192Y-85297154D01*
X94672126Y-85577695D01*
X94672840Y-85583116D01*
X94672841Y-85583121D01*
X94672842Y-85583127D01*
X94747500Y-85861754D01*
X94747505Y-85861770D01*
X94747507Y-85861775D01*
X94747508Y-85861778D01*
X94772361Y-85921778D01*
X94857882Y-86128246D01*
X94857890Y-86128262D01*
X95002111Y-86378058D01*
X95002122Y-86378074D01*
X95036668Y-86423095D01*
X95177708Y-86606904D01*
X95177712Y-86606909D01*
X95177715Y-86606912D01*
X95177721Y-86606919D01*
X95381681Y-86810879D01*
X95381688Y-86810885D01*
X95381691Y-86810887D01*
X95381695Y-86810891D01*
X95459857Y-86870866D01*
X95459882Y-86870885D01*
X95606521Y-86983405D01*
X95610542Y-86986490D01*
X95610768Y-86986620D01*
X95714445Y-87046478D01*
X95860338Y-87130710D01*
X95860354Y-87130718D01*
X95993263Y-87185770D01*
X96122788Y-87239421D01*
X96124606Y-87240251D01*
X96125091Y-87240435D01*
X96126661Y-87241058D01*
X96127945Y-87241414D01*
X96131103Y-87242318D01*
X96132604Y-87242644D01*
X96163297Y-87250868D01*
X96405474Y-87315759D01*
X96691463Y-87353410D01*
X96691470Y-87353410D01*
X96979912Y-87353410D01*
X96979919Y-87353410D01*
X97265908Y-87315759D01*
X97540689Y-87242131D01*
X97543900Y-87241383D01*
X97546286Y-87240437D01*
X97546765Y-87240255D01*
X97548592Y-87239421D01*
X97806993Y-87132388D01*
X97808853Y-87131694D01*
X97809313Y-87131488D01*
X97811103Y-87130714D01*
X97812739Y-87129805D01*
X97814461Y-87128736D01*
X98060847Y-86986485D01*
X98289695Y-86810884D01*
X98493665Y-86606914D01*
X98601742Y-86466064D01*
X98626987Y-86441413D01*
X98645671Y-86427770D01*
X98697508Y-86405757D01*
X98700412Y-86405251D01*
X98721697Y-86403410D01*
X101682000Y-86403410D01*
X101716927Y-86408431D01*
X101727780Y-86411617D01*
X101786561Y-86449387D01*
X101815590Y-86512941D01*
X101805651Y-86582100D01*
X101805648Y-86582106D01*
X101804125Y-86585441D01*
X101766816Y-86632307D01*
X101630971Y-86736544D01*
X101630954Y-86736557D01*
X101630944Y-86736566D01*
X101630936Y-86736573D01*
X101464070Y-86903439D01*
X101464063Y-86903447D01*
X101464049Y-86903462D01*
X101320386Y-87090689D01*
X101320380Y-87090698D01*
X101202369Y-87295095D01*
X101202365Y-87295103D01*
X101112045Y-87513154D01*
X101050955Y-87741145D01*
X101020153Y-87975116D01*
X101020150Y-87975140D01*
X101020150Y-88211164D01*
X101020153Y-88211188D01*
X101050955Y-88445159D01*
X101112045Y-88673150D01*
X101202365Y-88891201D01*
X101202374Y-88891218D01*
X101244452Y-88964098D01*
X101244454Y-88964101D01*
X101320380Y-89095608D01*
X101320589Y-89095923D01*
X101321597Y-89097193D01*
X101464049Y-89282842D01*
X101464053Y-89282847D01*
X101464056Y-89282850D01*
X101464062Y-89282857D01*
X101464070Y-89282865D01*
X101630931Y-89449727D01*
X101630947Y-89449742D01*
X101630955Y-89449748D01*
X101818198Y-89593425D01*
X101818200Y-89593426D01*
X101949568Y-89669271D01*
X102019166Y-89709454D01*
X102020905Y-89710535D01*
X102022358Y-89711342D01*
X102023097Y-89711642D01*
X102240657Y-89801759D01*
X102468636Y-89862846D01*
X102702639Y-89893653D01*
X102702646Y-89893653D01*
X102938654Y-89893653D01*
X102938661Y-89893653D01*
X103172664Y-89862846D01*
X103400643Y-89801759D01*
X103618699Y-89711437D01*
X103823100Y-89593426D01*
X103997491Y-89459611D01*
X104020789Y-89445505D01*
X104029557Y-89441436D01*
X104039240Y-89436944D01*
X104108331Y-89426586D01*
X104114376Y-89427418D01*
X104164501Y-89445943D01*
X104169359Y-89449065D01*
X104177806Y-89455005D01*
X104358198Y-89593425D01*
X104358200Y-89593426D01*
X104489568Y-89669271D01*
X104559166Y-89709454D01*
X104560905Y-89710535D01*
X104562358Y-89711342D01*
X104563097Y-89711642D01*
X104780657Y-89801759D01*
X105008636Y-89862846D01*
X105242639Y-89893653D01*
X105242646Y-89893653D01*
X105478654Y-89893653D01*
X105478661Y-89893653D01*
X105712664Y-89862846D01*
X105940643Y-89801759D01*
X106158699Y-89711437D01*
X106363100Y-89593426D01*
X106537491Y-89459611D01*
X106560789Y-89445505D01*
X106569557Y-89441436D01*
X106579240Y-89436944D01*
X106648331Y-89426586D01*
X106654376Y-89427418D01*
X106704501Y-89445943D01*
X106709359Y-89449065D01*
X106717806Y-89455005D01*
X106898198Y-89593425D01*
X106898200Y-89593426D01*
X107029568Y-89669271D01*
X107099166Y-89709454D01*
X107100905Y-89710535D01*
X107102358Y-89711342D01*
X107103097Y-89711642D01*
X107320657Y-89801759D01*
X107548636Y-89862846D01*
X107782639Y-89893653D01*
X107863484Y-89893653D01*
X107898416Y-89898674D01*
X107923660Y-89906087D01*
X107976406Y-89937383D01*
X108910785Y-90871762D01*
X109070026Y-90987458D01*
X109146120Y-91026230D01*
X109238951Y-91073530D01*
X109240551Y-91074466D01*
X109244248Y-91076257D01*
X109246260Y-91077257D01*
X109250026Y-91078319D01*
X109345747Y-91109420D01*
X109345748Y-91109421D01*
X109345749Y-91109421D01*
X109432604Y-91137643D01*
X109627009Y-91168434D01*
X109627014Y-91168434D01*
X109823848Y-91168434D01*
X111981767Y-91168434D01*
X112016694Y-91173455D01*
X112027547Y-91176641D01*
X112086328Y-91214411D01*
X112115357Y-91277965D01*
X112105418Y-91347124D01*
X112105417Y-91347126D01*
X112102232Y-91354101D01*
X112077116Y-91390276D01*
X111521602Y-91945790D01*
X111493351Y-91966939D01*
X111470263Y-91979547D01*
X111410833Y-91994717D01*
X101344957Y-91994717D01*
X101150560Y-92025506D01*
X100963355Y-92086333D01*
X100787977Y-92175693D01*
X100697125Y-92241702D01*
X100640607Y-92282765D01*
X100633228Y-92286897D01*
X97290081Y-95630043D01*
X97261826Y-95651195D01*
X97241525Y-95662280D01*
X97187286Y-95677338D01*
X97184348Y-95677461D01*
X97162976Y-95676509D01*
X96984019Y-95652949D01*
X96982003Y-95652615D01*
X96979929Y-95652410D01*
X96979924Y-95652410D01*
X96979919Y-95652410D01*
X96691463Y-95652410D01*
X96691457Y-95652410D01*
X96691452Y-95652410D01*
X96689375Y-95652615D01*
X96687361Y-95652949D01*
X96405505Y-95690056D01*
X96405473Y-95690060D01*
X96403664Y-95690487D01*
X96401888Y-95691021D01*
X96181558Y-95750059D01*
X96181557Y-95750058D01*
X96126858Y-95764715D01*
X96126821Y-95764727D01*
X95860347Y-95875103D01*
X95860344Y-95875105D01*
X95860339Y-95875108D01*
X95610546Y-96019327D01*
X95610529Y-96019339D01*
X95610515Y-96019349D01*
X95381695Y-96194927D01*
X95381680Y-96194941D01*
X95381672Y-96194948D01*
X95177729Y-96398891D01*
X95177722Y-96398899D01*
X95177713Y-96398909D01*
X95177700Y-96398926D01*
X95069641Y-96539752D01*
X95044387Y-96564412D01*
X95025710Y-96578049D01*
X94973921Y-96600054D01*
X94971018Y-96600561D01*
X94949685Y-96602410D01*
X92822759Y-96602410D01*
X92787823Y-96597387D01*
X92765629Y-96590870D01*
X92716606Y-96563144D01*
X92714438Y-96561150D01*
X92700024Y-96545387D01*
X92633680Y-96458925D01*
X92633671Y-96458914D01*
X92633666Y-96458907D01*
X92633660Y-96458900D01*
X92429700Y-96254940D01*
X92429693Y-96254934D01*
X92429690Y-96254931D01*
X92429685Y-96254927D01*
X92202445Y-96080561D01*
X92201170Y-96079549D01*
X92200845Y-96079333D01*
X91951041Y-95935108D01*
X91951036Y-95935105D01*
X91951023Y-95935099D01*
X91684560Y-95824727D01*
X91684542Y-95824720D01*
X91684531Y-95824717D01*
X91405912Y-95750062D01*
X91405910Y-95750061D01*
X91405908Y-95750061D01*
X91405902Y-95750060D01*
X91405897Y-95750059D01*
X91405892Y-95750058D01*
X91124019Y-95712949D01*
X91122003Y-95712615D01*
X91119929Y-95712410D01*
X91119924Y-95712410D01*
X91119919Y-95712410D01*
X90831463Y-95712410D01*
X90831457Y-95712410D01*
X90831452Y-95712410D01*
X90829375Y-95712615D01*
X90827361Y-95712949D01*
X90545505Y-95750056D01*
X90545473Y-95750060D01*
X90543656Y-95750489D01*
X90541889Y-95751020D01*
X90490752Y-95764723D01*
X90490751Y-95764724D01*
X90266846Y-95824719D01*
X90266830Y-95824724D01*
X90266827Y-95824725D01*
X90266821Y-95824727D01*
X90000347Y-95935103D01*
X90000344Y-95935105D01*
X90000339Y-95935108D01*
X89750546Y-96079327D01*
X89750529Y-96079339D01*
X89750515Y-96079349D01*
X89521695Y-96254927D01*
X89521680Y-96254941D01*
X89521672Y-96254948D01*
X89317729Y-96458891D01*
X89317722Y-96458899D01*
X89317708Y-96458914D01*
X89142130Y-96687734D01*
X89142120Y-96687748D01*
X89142108Y-96687765D01*
X88997889Y-96937558D01*
X88997886Y-96937563D01*
X88997884Y-96937566D01*
X88887508Y-97204040D01*
X88887505Y-97204046D01*
X88887505Y-97204049D01*
X88887500Y-97204065D01*
X88823296Y-97443682D01*
X88820434Y-97454363D01*
X88820433Y-97454365D01*
X88812847Y-97482673D01*
X88812839Y-97482706D01*
X88812838Y-97482712D01*
X88775192Y-97768664D01*
X88775191Y-97768693D01*
X85428953Y-97768693D01*
X85428953Y-85068693D01*
X88775191Y-85068693D01*
X88775191Y-85357125D01*
X88775192Y-85357154D01*
X88809848Y-85620389D01*
X88812840Y-85643116D01*
X88812841Y-85643121D01*
X88812842Y-85643127D01*
X88887500Y-85921754D01*
X88887505Y-85921770D01*
X88887507Y-85921775D01*
X88887508Y-85921778D01*
X88997884Y-86188252D01*
X88997886Y-86188255D01*
X88997890Y-86188262D01*
X89050981Y-86280218D01*
X89137909Y-86430781D01*
X89142111Y-86438058D01*
X89142122Y-86438074D01*
X89170354Y-86474867D01*
X89317708Y-86666904D01*
X89317712Y-86666909D01*
X89317715Y-86666912D01*
X89317721Y-86666919D01*
X89317729Y-86666927D01*
X89521667Y-86870866D01*
X89521683Y-86870881D01*
X89521688Y-86870885D01*
X89750540Y-87046489D01*
X89750768Y-87046620D01*
X89827122Y-87090703D01*
X90000338Y-87190710D01*
X90000354Y-87190718D01*
X90119938Y-87240251D01*
X90262788Y-87299421D01*
X90264606Y-87300251D01*
X90265091Y-87300435D01*
X90266661Y-87301058D01*
X90267945Y-87301414D01*
X90271103Y-87302318D01*
X90272604Y-87302644D01*
X90303297Y-87310868D01*
X90545474Y-87375759D01*
X90831463Y-87413410D01*
X90831470Y-87413410D01*
X91119912Y-87413410D01*
X91119919Y-87413410D01*
X91405908Y-87375759D01*
X91680689Y-87302131D01*
X91683900Y-87301383D01*
X91686286Y-87300437D01*
X91686765Y-87300255D01*
X91688592Y-87299421D01*
X91946993Y-87192388D01*
X91948853Y-87191694D01*
X91949313Y-87191488D01*
X91951103Y-87190714D01*
X91952739Y-87189805D01*
X91954461Y-87188736D01*
X92200847Y-87046485D01*
X92429695Y-86870884D01*
X92633665Y-86666914D01*
X92809266Y-86438066D01*
X92953495Y-86188255D01*
X92978352Y-86128246D01*
X93062202Y-85925811D01*
X93063029Y-85923998D01*
X93063211Y-85923521D01*
X93064165Y-85921114D01*
X93064912Y-85917908D01*
X93138540Y-85643127D01*
X93176191Y-85357138D01*
X93176191Y-85068682D01*
X93138540Y-84782693D01*
X93065425Y-84509823D01*
X93065099Y-84508322D01*
X93064195Y-84505164D01*
X93063839Y-84503880D01*
X93063216Y-84502310D01*
X93063032Y-84501825D01*
X93062202Y-84500007D01*
X92953500Y-84237576D01*
X92953494Y-84237563D01*
X92953491Y-84237558D01*
X92953491Y-84237557D01*
X92877524Y-84105979D01*
X92809401Y-83987987D01*
X92809271Y-83987761D01*
X92809271Y-83987760D01*
X92633668Y-83758910D01*
X92633662Y-83758902D01*
X92633647Y-83758886D01*
X92429708Y-83554948D01*
X92429700Y-83554940D01*
X92429693Y-83554934D01*
X92429690Y-83554931D01*
X92429685Y-83554927D01*
X92202445Y-83380561D01*
X92201170Y-83379549D01*
X92200845Y-83379333D01*
X91951041Y-83235108D01*
X91951036Y-83235105D01*
X91951023Y-83235099D01*
X91684560Y-83124727D01*
X91684542Y-83124720D01*
X91684531Y-83124717D01*
X91405912Y-83050062D01*
X91405910Y-83050061D01*
X91405908Y-83050061D01*
X91405902Y-83050060D01*
X91405897Y-83050059D01*
X91405892Y-83050058D01*
X91124019Y-83012949D01*
X91122003Y-83012615D01*
X91119929Y-83012410D01*
X91119924Y-83012410D01*
X91119919Y-83012410D01*
X90831463Y-83012410D01*
X90831457Y-83012410D01*
X90831452Y-83012410D01*
X90829375Y-83012615D01*
X90827361Y-83012949D01*
X90545505Y-83050056D01*
X90545473Y-83050060D01*
X90543656Y-83050489D01*
X90541889Y-83051020D01*
X90490752Y-83064723D01*
X90490751Y-83064724D01*
X90266846Y-83124719D01*
X90266830Y-83124724D01*
X90266827Y-83124725D01*
X90266821Y-83124727D01*
X90000347Y-83235103D01*
X90000344Y-83235105D01*
X90000339Y-83235108D01*
X89750546Y-83379327D01*
X89750529Y-83379339D01*
X89750515Y-83379349D01*
X89521695Y-83554927D01*
X89521680Y-83554941D01*
X89521672Y-83554948D01*
X89317729Y-83758891D01*
X89317722Y-83758899D01*
X89317708Y-83758914D01*
X89142130Y-83987734D01*
X89142120Y-83987748D01*
X89142108Y-83987765D01*
X88997889Y-84237558D01*
X88997886Y-84237563D01*
X88997884Y-84237566D01*
X88887508Y-84504040D01*
X88887506Y-84504046D01*
X88887505Y-84504049D01*
X88887500Y-84504065D01*
X88860174Y-84606043D01*
X88812844Y-84782682D01*
X88812841Y-84782699D01*
X88812838Y-84782712D01*
X88775192Y-85068664D01*
X88775191Y-85068693D01*
X85428953Y-85068693D01*
X85428953Y-79163909D01*
X127275000Y-79163909D01*
X127275000Y-79396089D01*
X127295811Y-79527489D01*
X127311318Y-79625393D01*
X127383065Y-79846205D01*
X127488465Y-80053064D01*
X127545238Y-80131207D01*
X128032924Y-79643520D01*
X128094245Y-79610037D01*
X128163936Y-79615021D01*
X128219870Y-79656892D01*
X128223691Y-79662292D01*
X128245112Y-79694351D01*
X128245116Y-79694355D01*
X128245116Y-79694356D01*
X128335646Y-79784886D01*
X128367684Y-79806293D01*
X128412489Y-79859906D01*
X128421196Y-79929231D01*
X128391041Y-79992258D01*
X128386474Y-79997076D01*
X127898791Y-80484758D01*
X127898791Y-80484759D01*
X127898791Y-80484760D01*
X127976935Y-80541534D01*
X128183794Y-80646934D01*
X128404606Y-80718681D01*
X128633910Y-80755000D01*
X128866089Y-80755000D01*
X128866090Y-80755000D01*
X129095393Y-80718681D01*
X129316205Y-80646934D01*
X129523071Y-80541530D01*
X129601207Y-80484762D01*
X129601208Y-80484760D01*
X129601207Y-80484758D01*
X129113524Y-79997076D01*
X129080039Y-79935753D01*
X129085023Y-79866062D01*
X129126894Y-79810128D01*
X129132270Y-79806323D01*
X129164351Y-79784888D01*
X129254888Y-79694351D01*
X129276295Y-79662312D01*
X129329903Y-79617510D01*
X129399227Y-79608801D01*
X129462256Y-79638955D01*
X129467076Y-79643524D01*
X129954758Y-80131207D01*
X129954760Y-80131208D01*
X129954762Y-80131207D01*
X130011530Y-80053071D01*
X130116934Y-79846205D01*
X130188681Y-79625393D01*
X130225000Y-79396090D01*
X130225000Y-79163909D01*
X130188681Y-78934606D01*
X130116934Y-78713794D01*
X130011534Y-78506935D01*
X129954760Y-78428791D01*
X129954759Y-78428791D01*
X129954758Y-78428791D01*
X129467076Y-78916474D01*
X129405753Y-78949959D01*
X129336061Y-78944975D01*
X129280128Y-78903103D01*
X129276293Y-78897684D01*
X129254886Y-78865646D01*
X129164356Y-78775116D01*
X129164352Y-78775113D01*
X129164351Y-78775112D01*
X129132310Y-78753703D01*
X129087507Y-78700091D01*
X129078800Y-78630766D01*
X129108955Y-78567739D01*
X129113500Y-78562943D01*
X129601207Y-78075238D01*
X129523064Y-78018465D01*
X129316205Y-77913065D01*
X129095393Y-77841318D01*
X129095391Y-77841317D01*
X129095390Y-77841317D01*
X128919244Y-77813418D01*
X128866090Y-77805000D01*
X128866089Y-77805000D01*
X128633905Y-77805000D01*
X128404609Y-77841317D01*
X128183791Y-77913066D01*
X127976926Y-78018469D01*
X127976922Y-78018471D01*
X127898791Y-78075237D01*
X127898791Y-78075238D01*
X128386475Y-78562922D01*
X128419960Y-78624245D01*
X128414976Y-78693937D01*
X128373104Y-78749870D01*
X128367688Y-78753703D01*
X128335648Y-78775112D01*
X128335643Y-78775116D01*
X128245116Y-78865643D01*
X128245112Y-78865648D01*
X128223703Y-78897688D01*
X128170090Y-78942491D01*
X128100764Y-78951197D01*
X128037738Y-78921040D01*
X128032922Y-78916475D01*
X127545238Y-78428791D01*
X127545237Y-78428791D01*
X127488471Y-78506922D01*
X127488469Y-78506926D01*
X127383066Y-78713791D01*
X127311317Y-78934609D01*
X127275000Y-79163909D01*
X85428953Y-79163909D01*
X85428953Y-74001057D01*
X85433976Y-73966121D01*
X85438380Y-73951123D01*
X85476125Y-73892372D01*
X85477494Y-73891185D01*
X85532373Y-73863705D01*
X85539932Y-73862061D01*
X85566285Y-73859228D01*
X135925533Y-73859228D01*
X135960469Y-73864251D01*
G37*
%TD.AperFunction*%
%TD*%
%TA.AperFunction,Conductor*%
%TO.N,Current-*%
G36*
X131540500Y-88849532D02*
G01*
X131555551Y-88853753D01*
X131614785Y-88890808D01*
X131614798Y-88890823D01*
X131616238Y-88892445D01*
X131644188Y-88946262D01*
X131645825Y-88953192D01*
X131649113Y-88978835D01*
X131720855Y-92084258D01*
X131702724Y-92151734D01*
X131650991Y-92198697D01*
X131596239Y-92211120D01*
X123421801Y-92168339D01*
X123421776Y-92168340D01*
X123232388Y-92186544D01*
X123219835Y-92187751D01*
X123219828Y-92187752D01*
X123196189Y-92192467D01*
X123171010Y-92197490D01*
X123171005Y-92197491D01*
X123170986Y-92197495D01*
X123090568Y-92217010D01*
X122901679Y-92292581D01*
X122871358Y-92312588D01*
X122756430Y-92388421D01*
X122742658Y-92397508D01*
X122675861Y-92417999D01*
X122645976Y-92414714D01*
X122534188Y-92388421D01*
X122534168Y-92388419D01*
X122445569Y-92382270D01*
X122445565Y-92382270D01*
X122445561Y-92382270D01*
X120653537Y-92382270D01*
X120653533Y-92382270D01*
X120653530Y-92382270D01*
X120564928Y-92388419D01*
X120564908Y-92388421D01*
X120443768Y-92416914D01*
X120374002Y-92413101D01*
X120352720Y-92403212D01*
X120197957Y-92312588D01*
X120197953Y-92312586D01*
X120197951Y-92312585D01*
X120134395Y-92283560D01*
X120134392Y-92283559D01*
X120134388Y-92283557D01*
X120134373Y-92283551D01*
X119977683Y-92227157D01*
X119977677Y-92227155D01*
X119776867Y-92194497D01*
X119776853Y-92194497D01*
X119704188Y-92197511D01*
X119636390Y-92180622D01*
X119588486Y-92129760D01*
X119575049Y-92073618D01*
X119575049Y-90517400D01*
X119556131Y-90397959D01*
X119553378Y-90380580D01*
X119544258Y-90322996D01*
X119544257Y-90322992D01*
X119544257Y-90322991D01*
X119485683Y-90142721D01*
X119484284Y-90138108D01*
X119483878Y-90136669D01*
X119459320Y-90088472D01*
X119394073Y-89960417D01*
X119278378Y-89801177D01*
X118934262Y-89457061D01*
X118913110Y-89428805D01*
X118900503Y-89405716D01*
X118885336Y-89346291D01*
X118885336Y-88999897D01*
X118890359Y-88964961D01*
X118894763Y-88949963D01*
X118932526Y-88891196D01*
X118933764Y-88890123D01*
X118988926Y-88862594D01*
X118992843Y-88861752D01*
X118996784Y-88860905D01*
X119023476Y-88858140D01*
X122663242Y-88877241D01*
X126999478Y-88899997D01*
X127000459Y-88900008D01*
X127001094Y-88900006D01*
X127001303Y-88900007D01*
X127002413Y-88899970D01*
X131505512Y-88844936D01*
X131540500Y-88849532D01*
G37*
%TD.AperFunction*%
%TD*%
M02*
