%TF.GenerationSoftware,KiCad,Pcbnew,10.0.6*%
%TF.CreationDate,2026-09-12T11:55:15-04:00*%
%TF.ProjectId,onboad,6f6e626f-6164-42e6-9b69-6361645f7063,rev?*%
%TF.SameCoordinates,Original*%
%TF.FileFunction,Legend,Top*%
%TF.FilePolarity,Positive*%
%FSLAX46Y46*%
G04 Gerber Fmt 4.6, Leading zero omitted, Abs format (unit mm)*
G04 Created by KiCad (PCBNEW 10.0.6) date 2026-09-12 11:55:15*
%MOMM*%
%LPD*%
G01*
G04 APERTURE LIST*
%ADD10C,0.150000*%
%ADD11C,0.127000*%
%ADD12C,0.200000*%
%ADD13C,0.120000*%
G04 APERTURE END LIST*
D10*
X95128866Y-95811666D02*
X96128866Y-95811666D01*
X96128866Y-95811666D02*
X96328866Y-95878333D01*
X96328866Y-95878333D02*
X96462200Y-96011666D01*
X96462200Y-96011666D02*
X96528866Y-96211666D01*
X96528866Y-96211666D02*
X96528866Y-96345000D01*
X95262200Y-95211666D02*
X95195533Y-95144999D01*
X95195533Y-95144999D02*
X95128866Y-95011666D01*
X95128866Y-95011666D02*
X95128866Y-94678333D01*
X95128866Y-94678333D02*
X95195533Y-94544999D01*
X95195533Y-94544999D02*
X95262200Y-94478333D01*
X95262200Y-94478333D02*
X95395533Y-94411666D01*
X95395533Y-94411666D02*
X95528866Y-94411666D01*
X95528866Y-94411666D02*
X95728866Y-94478333D01*
X95728866Y-94478333D02*
X96528866Y-95278333D01*
X96528866Y-95278333D02*
X96528866Y-94411666D01*
X109003333Y-104694819D02*
X108670000Y-104218628D01*
X108431905Y-104694819D02*
X108431905Y-103694819D01*
X108431905Y-103694819D02*
X108812857Y-103694819D01*
X108812857Y-103694819D02*
X108908095Y-103742438D01*
X108908095Y-103742438D02*
X108955714Y-103790057D01*
X108955714Y-103790057D02*
X109003333Y-103885295D01*
X109003333Y-103885295D02*
X109003333Y-104028152D01*
X109003333Y-104028152D02*
X108955714Y-104123390D01*
X108955714Y-104123390D02*
X108908095Y-104171009D01*
X108908095Y-104171009D02*
X108812857Y-104218628D01*
X108812857Y-104218628D02*
X108431905Y-104218628D01*
X109384286Y-103790057D02*
X109431905Y-103742438D01*
X109431905Y-103742438D02*
X109527143Y-103694819D01*
X109527143Y-103694819D02*
X109765238Y-103694819D01*
X109765238Y-103694819D02*
X109860476Y-103742438D01*
X109860476Y-103742438D02*
X109908095Y-103790057D01*
X109908095Y-103790057D02*
X109955714Y-103885295D01*
X109955714Y-103885295D02*
X109955714Y-103980533D01*
X109955714Y-103980533D02*
X109908095Y-104123390D01*
X109908095Y-104123390D02*
X109336667Y-104694819D01*
X109336667Y-104694819D02*
X109955714Y-104694819D01*
X121723333Y-99424819D02*
X121390000Y-98948628D01*
X121151905Y-99424819D02*
X121151905Y-98424819D01*
X121151905Y-98424819D02*
X121532857Y-98424819D01*
X121532857Y-98424819D02*
X121628095Y-98472438D01*
X121628095Y-98472438D02*
X121675714Y-98520057D01*
X121675714Y-98520057D02*
X121723333Y-98615295D01*
X121723333Y-98615295D02*
X121723333Y-98758152D01*
X121723333Y-98758152D02*
X121675714Y-98853390D01*
X121675714Y-98853390D02*
X121628095Y-98901009D01*
X121628095Y-98901009D02*
X121532857Y-98948628D01*
X121532857Y-98948628D02*
X121151905Y-98948628D01*
X122675714Y-99424819D02*
X122104286Y-99424819D01*
X122390000Y-99424819D02*
X122390000Y-98424819D01*
X122390000Y-98424819D02*
X122294762Y-98567676D01*
X122294762Y-98567676D02*
X122199524Y-98662914D01*
X122199524Y-98662914D02*
X122104286Y-98710533D01*
X83750866Y-85359166D02*
X84750866Y-85359166D01*
X84750866Y-85359166D02*
X84950866Y-85425833D01*
X84950866Y-85425833D02*
X85084200Y-85559166D01*
X85084200Y-85559166D02*
X85150866Y-85759166D01*
X85150866Y-85759166D02*
X85150866Y-85892500D01*
X85150866Y-83959166D02*
X85150866Y-84759166D01*
X85150866Y-84359166D02*
X83750866Y-84359166D01*
X83750866Y-84359166D02*
X83950866Y-84492499D01*
X83950866Y-84492499D02*
X84084200Y-84625833D01*
X84084200Y-84625833D02*
X84150866Y-84759166D01*
X104593333Y-74039580D02*
X104545714Y-74087200D01*
X104545714Y-74087200D02*
X104402857Y-74134819D01*
X104402857Y-74134819D02*
X104307619Y-74134819D01*
X104307619Y-74134819D02*
X104164762Y-74087200D01*
X104164762Y-74087200D02*
X104069524Y-73991961D01*
X104069524Y-73991961D02*
X104021905Y-73896723D01*
X104021905Y-73896723D02*
X103974286Y-73706247D01*
X103974286Y-73706247D02*
X103974286Y-73563390D01*
X103974286Y-73563390D02*
X104021905Y-73372914D01*
X104021905Y-73372914D02*
X104069524Y-73277676D01*
X104069524Y-73277676D02*
X104164762Y-73182438D01*
X104164762Y-73182438D02*
X104307619Y-73134819D01*
X104307619Y-73134819D02*
X104402857Y-73134819D01*
X104402857Y-73134819D02*
X104545714Y-73182438D01*
X104545714Y-73182438D02*
X104593333Y-73230057D01*
X105545714Y-74134819D02*
X104974286Y-74134819D01*
X105260000Y-74134819D02*
X105260000Y-73134819D01*
X105260000Y-73134819D02*
X105164762Y-73277676D01*
X105164762Y-73277676D02*
X105069524Y-73372914D01*
X105069524Y-73372914D02*
X104974286Y-73420533D01*
X123883333Y-88624819D02*
X123550000Y-88148628D01*
X123311905Y-88624819D02*
X123311905Y-87624819D01*
X123311905Y-87624819D02*
X123692857Y-87624819D01*
X123692857Y-87624819D02*
X123788095Y-87672438D01*
X123788095Y-87672438D02*
X123835714Y-87720057D01*
X123835714Y-87720057D02*
X123883333Y-87815295D01*
X123883333Y-87815295D02*
X123883333Y-87958152D01*
X123883333Y-87958152D02*
X123835714Y-88053390D01*
X123835714Y-88053390D02*
X123788095Y-88101009D01*
X123788095Y-88101009D02*
X123692857Y-88148628D01*
X123692857Y-88148628D02*
X123311905Y-88148628D01*
X124740476Y-87958152D02*
X124740476Y-88624819D01*
X124502381Y-87577200D02*
X124264286Y-88291485D01*
X124264286Y-88291485D02*
X124883333Y-88291485D01*
X100404819Y-82451904D02*
X101214342Y-82451904D01*
X101214342Y-82451904D02*
X101309580Y-82404285D01*
X101309580Y-82404285D02*
X101357200Y-82356666D01*
X101357200Y-82356666D02*
X101404819Y-82261428D01*
X101404819Y-82261428D02*
X101404819Y-82070952D01*
X101404819Y-82070952D02*
X101357200Y-81975714D01*
X101357200Y-81975714D02*
X101309580Y-81928095D01*
X101309580Y-81928095D02*
X101214342Y-81880476D01*
X101214342Y-81880476D02*
X100404819Y-81880476D01*
X100500057Y-81451904D02*
X100452438Y-81404285D01*
X100452438Y-81404285D02*
X100404819Y-81309047D01*
X100404819Y-81309047D02*
X100404819Y-81070952D01*
X100404819Y-81070952D02*
X100452438Y-80975714D01*
X100452438Y-80975714D02*
X100500057Y-80928095D01*
X100500057Y-80928095D02*
X100595295Y-80880476D01*
X100595295Y-80880476D02*
X100690533Y-80880476D01*
X100690533Y-80880476D02*
X100833390Y-80928095D01*
X100833390Y-80928095D02*
X101404819Y-81499523D01*
X101404819Y-81499523D02*
X101404819Y-80880476D01*
X115331905Y-75104819D02*
X115331905Y-74104819D01*
X115331905Y-74104819D02*
X115570000Y-74104819D01*
X115570000Y-74104819D02*
X115712857Y-74152438D01*
X115712857Y-74152438D02*
X115808095Y-74247676D01*
X115808095Y-74247676D02*
X115855714Y-74342914D01*
X115855714Y-74342914D02*
X115903333Y-74533390D01*
X115903333Y-74533390D02*
X115903333Y-74676247D01*
X115903333Y-74676247D02*
X115855714Y-74866723D01*
X115855714Y-74866723D02*
X115808095Y-74961961D01*
X115808095Y-74961961D02*
X115712857Y-75057200D01*
X115712857Y-75057200D02*
X115570000Y-75104819D01*
X115570000Y-75104819D02*
X115331905Y-75104819D01*
X116855714Y-75104819D02*
X116284286Y-75104819D01*
X116570000Y-75104819D02*
X116570000Y-74104819D01*
X116570000Y-74104819D02*
X116474762Y-74247676D01*
X116474762Y-74247676D02*
X116379524Y-74342914D01*
X116379524Y-74342914D02*
X116284286Y-74390533D01*
X123823333Y-82764819D02*
X123490000Y-82288628D01*
X123251905Y-82764819D02*
X123251905Y-81764819D01*
X123251905Y-81764819D02*
X123632857Y-81764819D01*
X123632857Y-81764819D02*
X123728095Y-81812438D01*
X123728095Y-81812438D02*
X123775714Y-81860057D01*
X123775714Y-81860057D02*
X123823333Y-81955295D01*
X123823333Y-81955295D02*
X123823333Y-82098152D01*
X123823333Y-82098152D02*
X123775714Y-82193390D01*
X123775714Y-82193390D02*
X123728095Y-82241009D01*
X123728095Y-82241009D02*
X123632857Y-82288628D01*
X123632857Y-82288628D02*
X123251905Y-82288628D01*
X124156667Y-81764819D02*
X124775714Y-81764819D01*
X124775714Y-81764819D02*
X124442381Y-82145771D01*
X124442381Y-82145771D02*
X124585238Y-82145771D01*
X124585238Y-82145771D02*
X124680476Y-82193390D01*
X124680476Y-82193390D02*
X124728095Y-82241009D01*
X124728095Y-82241009D02*
X124775714Y-82336247D01*
X124775714Y-82336247D02*
X124775714Y-82574342D01*
X124775714Y-82574342D02*
X124728095Y-82669580D01*
X124728095Y-82669580D02*
X124680476Y-82717200D01*
X124680476Y-82717200D02*
X124585238Y-82764819D01*
X124585238Y-82764819D02*
X124299524Y-82764819D01*
X124299524Y-82764819D02*
X124204286Y-82717200D01*
X124204286Y-82717200D02*
X124156667Y-82669580D01*
X99953095Y-92249819D02*
X99953095Y-93059342D01*
X99953095Y-93059342D02*
X100000714Y-93154580D01*
X100000714Y-93154580D02*
X100048333Y-93202200D01*
X100048333Y-93202200D02*
X100143571Y-93249819D01*
X100143571Y-93249819D02*
X100334047Y-93249819D01*
X100334047Y-93249819D02*
X100429285Y-93202200D01*
X100429285Y-93202200D02*
X100476904Y-93154580D01*
X100476904Y-93154580D02*
X100524523Y-93059342D01*
X100524523Y-93059342D02*
X100524523Y-92249819D01*
X101524523Y-93249819D02*
X100953095Y-93249819D01*
X101238809Y-93249819D02*
X101238809Y-92249819D01*
X101238809Y-92249819D02*
X101143571Y-92392676D01*
X101143571Y-92392676D02*
X101048333Y-92487914D01*
X101048333Y-92487914D02*
X100953095Y-92535533D01*
%TO.C,J2*%
D11*
X94000000Y-91900000D02*
X94000000Y-101900000D01*
X86400000Y-91900000D02*
X94000000Y-91900000D01*
X94000000Y-101900000D02*
X86400000Y-101900000D01*
X86400000Y-101900000D02*
X86400000Y-91900000D01*
D12*
X85500000Y-94400000D02*
G75*
G02*
X85300000Y-94400000I-100000J0D01*
G01*
X85300000Y-94400000D02*
G75*
G02*
X85500000Y-94400000I100000J0D01*
G01*
%TO.C,R2*%
D13*
X114240000Y-103240000D02*
X104100000Y-103240000D01*
X114240000Y-102760000D02*
X114240000Y-103240000D01*
X114240000Y-99880000D02*
X114240000Y-99400000D01*
X114240000Y-99400000D02*
X104100000Y-99400000D01*
X104100000Y-103240000D02*
X104100000Y-102760000D01*
X104100000Y-99400000D02*
X104100000Y-99880000D01*
%TO.C,R1*%
X126960000Y-97970000D02*
X116820000Y-97970000D01*
X126960000Y-97490000D02*
X126960000Y-97970000D01*
X126960000Y-94610000D02*
X126960000Y-94130000D01*
X126960000Y-94130000D02*
X116820000Y-94130000D01*
X116820000Y-97970000D02*
X116820000Y-97490000D01*
X116820000Y-94130000D02*
X116820000Y-94610000D01*
%TO.C,J1*%
D12*
X95100000Y-85837500D02*
G75*
G02*
X94900000Y-85837500I-100000J0D01*
G01*
X94900000Y-85837500D02*
G75*
G02*
X95100000Y-85837500I100000J0D01*
G01*
D11*
X94000000Y-78337500D02*
X94000000Y-88337500D01*
X86400000Y-78337500D02*
X94000000Y-78337500D01*
X94000000Y-88337500D02*
X86400000Y-88337500D01*
X86400000Y-88337500D02*
X86400000Y-78337500D01*
%TO.C,C1*%
D13*
X104498748Y-76095000D02*
X105021252Y-76095000D01*
X104498748Y-74625000D02*
X105021252Y-74625000D01*
%TO.C,R4*%
X129120000Y-93010000D02*
X129120000Y-92530000D01*
X129120000Y-89170000D02*
X129120000Y-89650000D01*
X118980000Y-93010000D02*
X129120000Y-93010000D01*
X118980000Y-92530000D02*
X118980000Y-93010000D01*
X118980000Y-89650000D02*
X118980000Y-89170000D01*
X118980000Y-89170000D02*
X129120000Y-89170000D01*
%TO.C,U2*%
X101550000Y-83690000D02*
G75*
G02*
X101550000Y-85690000I0J-1000000D01*
G01*
X111830000Y-82040000D02*
X101550000Y-82040000D01*
X101550000Y-82040000D02*
X101550000Y-83690000D01*
X101550000Y-85690000D02*
X101550000Y-87340000D01*
X111830000Y-87340000D02*
X111830000Y-82040000D01*
X101550000Y-87340000D02*
X111830000Y-87340000D01*
%TO.C,D1*%
X118570000Y-78610000D02*
G75*
G02*
X113570000Y-78610000I-2500000J0D01*
G01*
X113570000Y-78610000D02*
G75*
G02*
X118570000Y-78610000I2500000J0D01*
G01*
X119060000Y-78610000D02*
G75*
G02*
X113510000Y-80154830I-2990000J0D01*
G01*
X113510000Y-77065170D02*
G75*
G02*
X119060000Y-78610000I2560000J-1544830D01*
G01*
X113510000Y-77065000D02*
X113510000Y-80155000D01*
%TO.C,R3*%
X118920000Y-83310000D02*
X129060000Y-83310000D01*
X118920000Y-83790000D02*
X118920000Y-83310000D01*
X118920000Y-86670000D02*
X118920000Y-87150000D01*
X118920000Y-87150000D02*
X129060000Y-87150000D01*
X129060000Y-83310000D02*
X129060000Y-83790000D01*
X129060000Y-87150000D02*
X129060000Y-86670000D01*
%TO.C,C2*%
X96275000Y-85948748D02*
X96275000Y-86471252D01*
X97745000Y-85948748D02*
X97745000Y-86471252D01*
%TO.C,U1*%
X98655000Y-93635000D02*
X102775000Y-93635000D01*
X98655000Y-93730000D02*
X98655000Y-93635000D01*
X98655000Y-98755000D02*
X98655000Y-98660000D01*
X102775000Y-93635000D02*
X102775000Y-93730000D01*
X102775000Y-98660000D02*
X102775000Y-98755000D01*
X102775000Y-98755000D02*
X98655000Y-98755000D01*
X98115000Y-93725000D02*
X97875000Y-93395000D01*
X98355000Y-93395000D01*
X98115000Y-93725000D01*
G36*
X98115000Y-93725000D02*
G01*
X97875000Y-93395000D01*
X98355000Y-93395000D01*
X98115000Y-93725000D01*
G37*
%TD*%
M02*
