%TF.GenerationSoftware,KiCad,Pcbnew,10.0.6*%
%TF.CreationDate,2026-09-12T11:55:14-04:00*%
%TF.ProjectId,onboad,6f6e626f-6164-42e6-9b69-6361645f7063,rev?*%
%TF.SameCoordinates,Original*%
%TF.FileFunction,Copper,L1,Top*%
%TF.FilePolarity,Positive*%
%FSLAX46Y46*%
G04 Gerber Fmt 4.6, Leading zero omitted, Abs format (unit mm)*
G04 Created by KiCad (PCBNEW 10.0.6) date 2026-09-12 11:55:14*
%MOMM*%
%LPD*%
G01*
G04 APERTURE LIST*
G04 Aperture macros list*
%AMRoundRect*
0 Rectangle with rounded corners*
0 $1 Rounding radius*
0 $2 $3 $4 $5 $6 $7 $8 $9 X,Y pos of 4 corners*
0 Add a 4 corners polygon primitive as box body*
4,1,4,$2,$3,$4,$5,$6,$7,$8,$9,$2,$3,0*
0 Add four circle primitives for the rounded corners*
1,1,$1+$1,$2,$3*
1,1,$1+$1,$4,$5*
1,1,$1+$1,$6,$7*
1,1,$1+$1,$8,$9*
0 Add four rect primitives between the rounded corners*
20,1,$1+$1,$2,$3,$4,$5,0*
20,1,$1+$1,$4,$5,$6,$7,0*
20,1,$1+$1,$6,$7,$8,$9,0*
20,1,$1+$1,$8,$9,$2,$3,0*%
G04 Aperture macros list end*
%TA.AperFunction,ComponentPad*%
%ADD10R,1.950000X1.950000*%
%TD*%
%TA.AperFunction,ComponentPad*%
%ADD11C,1.950000*%
%TD*%
%TA.AperFunction,ComponentPad*%
%ADD12C,2.400000*%
%TD*%
%TA.AperFunction,SMDPad,CuDef*%
%ADD13RoundRect,0.250000X-0.250000X-0.475000X0.250000X-0.475000X0.250000X0.475000X-0.250000X0.475000X0*%
%TD*%
%TA.AperFunction,ComponentPad*%
%ADD14C,1.600000*%
%TD*%
%TA.AperFunction,ComponentPad*%
%ADD15RoundRect,0.250000X0.550000X-0.550000X0.550000X0.550000X-0.550000X0.550000X-0.550000X-0.550000X0*%
%TD*%
%TA.AperFunction,ComponentPad*%
%ADD16C,1.800000*%
%TD*%
%TA.AperFunction,ComponentPad*%
%ADD17R,1.800000X1.800000*%
%TD*%
%TA.AperFunction,SMDPad,CuDef*%
%ADD18RoundRect,0.250000X-0.475000X0.250000X-0.475000X-0.250000X0.475000X-0.250000X0.475000X0.250000X0*%
%TD*%
%TA.AperFunction,SMDPad,CuDef*%
%ADD19RoundRect,0.150000X-0.825000X-0.150000X0.825000X-0.150000X0.825000X0.150000X-0.825000X0.150000X0*%
%TD*%
%TA.AperFunction,Conductor*%
%ADD20C,0.500000*%
%TD*%
G04 APERTURE END LIST*
D10*
%TO.P,J2,1,Pin_1_1*%
%TO.N,Current+*%
X89900000Y-94400000D03*
D11*
%TO.P,J2,2,Pin_2_2*%
%TO.N,Current-*%
X89900000Y-99400000D03*
%TD*%
D12*
%TO.P,R2,1*%
%TO.N,Net-(U2-VIN+)*%
X115520000Y-101320000D03*
%TO.P,R2,2*%
%TO.N,GND*%
X102820000Y-101320000D03*
%TD*%
%TO.P,R1,1*%
%TO.N,+3V3*%
X128240000Y-96050000D03*
%TO.P,R1,2*%
%TO.N,Net-(U2-VIN+)*%
X115540000Y-96050000D03*
%TD*%
D11*
%TO.P,J1,2,Pin_2_2*%
%TO.N,GND*%
X90500000Y-80837500D03*
D10*
%TO.P,J1,1,Pin_1_1*%
%TO.N,+3V3*%
X90500000Y-85837500D03*
%TD*%
D13*
%TO.P,C1,2*%
%TO.N,+3V3*%
X105710000Y-75360000D03*
%TO.P,C1,1*%
%TO.N,GND*%
X103810000Y-75360000D03*
%TD*%
D12*
%TO.P,R4,2*%
%TO.N,+3V3*%
X130400000Y-91090000D03*
%TO.P,R4,1*%
%TO.N,Net-(D1-K)*%
X117700000Y-91090000D03*
%TD*%
D14*
%TO.P,U2,8,NC_8*%
%TO.N,unconnected-(U2-NC-Pad8)*%
X102880000Y-80880000D03*
%TO.P,U2,7,VDD_7*%
%TO.N,+3V3*%
X105420000Y-80880000D03*
%TO.P,U2,6,OUT_6*%
%TO.N,Net-(D1-K)*%
X107960000Y-80880000D03*
%TO.P,U2,5,NC_5*%
%TO.N,unconnected-(U2-NC-Pad5)*%
X110500000Y-80880000D03*
%TO.P,U2,4,VSS_4*%
%TO.N,GND*%
X110500000Y-88500000D03*
%TO.P,U2,3,VIN+_3*%
%TO.N,Net-(U2-VIN+)*%
X107960000Y-88500000D03*
%TO.P,U2,2,VIN-_2*%
%TO.N,Net-(U1-VIOUT)*%
X105420000Y-88500000D03*
D15*
%TO.P,U2,1,NC_1*%
%TO.N,unconnected-(U2-NC-Pad1)*%
X102880000Y-88500000D03*
%TD*%
D16*
%TO.P,D1,2,A_2*%
%TO.N,Net-(D1-A)*%
X117340000Y-78610000D03*
D17*
%TO.P,D1,1,K_1*%
%TO.N,Net-(D1-K)*%
X114800000Y-78610000D03*
%TD*%
D12*
%TO.P,R3,1*%
%TO.N,Net-(D1-A)*%
X117640000Y-85230000D03*
%TO.P,R3,2*%
%TO.N,+3V3*%
X130340000Y-85230000D03*
%TD*%
D18*
%TO.P,C2,2*%
%TO.N,+3V3*%
X97010000Y-87160000D03*
%TO.P,C2,1*%
%TO.N,GND*%
X97010000Y-85260000D03*
%TD*%
D19*
%TO.P,U1,1,IP+_1*%
%TO.N,Current+*%
X98240000Y-94290000D03*
%TO.P,U1,2,IP+_2*%
X98240000Y-95560000D03*
%TO.P,U1,3,IP-_3*%
%TO.N,Current-*%
X98240000Y-96830000D03*
%TO.P,U1,4,IP-_4*%
X98240000Y-98100000D03*
%TO.P,U1,5,GND_5*%
%TO.N,GND*%
X103190000Y-98100000D03*
%TO.P,U1,6,~{FAULT}_6*%
%TO.N,unconnected-(U1-~{FAULT}-Pad6)*%
X103190000Y-96830000D03*
%TO.P,U1,7,VIOUT_7*%
%TO.N,Net-(U1-VIOUT)*%
X103190000Y-95560000D03*
%TO.P,U1,8,VCC_8*%
%TO.N,+3V3*%
X103190000Y-94290000D03*
%TD*%
%TO.N,Net-(U2-VIN+)*%
D20*
X115210000Y-100790000D02*
X115540000Y-100460000D01*
%TO.N,GND*%
X103190000Y-98100000D02*
X102510000Y-98780000D01*
%TO.N,Net-(U2-VIN+)*%
X115520000Y-101320000D02*
X115210000Y-101010000D01*
X115210000Y-101010000D02*
X115210000Y-100790000D01*
X115540000Y-100460000D02*
X115540000Y-96050000D01*
%TO.N,GND*%
X102510000Y-98780000D02*
X102510000Y-101010000D01*
X102510000Y-101010000D02*
X102820000Y-101320000D01*
%TO.N,+3V3*%
X105730000Y-75380000D02*
X105710000Y-75360000D01*
X105760000Y-75380000D02*
X105730000Y-75380000D01*
X105780000Y-75400000D02*
X105760000Y-75380000D01*
X130420000Y-85150000D02*
X120670000Y-75400000D01*
X120670000Y-75400000D02*
X105780000Y-75400000D01*
X130420000Y-93870000D02*
X130420000Y-85150000D01*
X128240000Y-96050000D02*
X130420000Y-93870000D01*
%TO.N,Net-(U2-VIN+)*%
X107960000Y-88500000D02*
X109510000Y-86950000D01*
X109510000Y-86950000D02*
X111142032Y-86950000D01*
X111142032Y-86950000D02*
X115300000Y-91107968D01*
X115300000Y-91107968D02*
X115300000Y-95810000D01*
X115300000Y-95810000D02*
X115540000Y-96050000D01*
%TO.N,+3V3*%
X99270000Y-90370000D02*
X99270000Y-81550000D01*
X99270000Y-81550000D02*
X103090000Y-77730000D01*
X103090000Y-77730000D02*
X105420000Y-77730000D01*
%TO.N,GND*%
X97010000Y-85260000D02*
X94262500Y-82512500D01*
X94262500Y-82512500D02*
X94262500Y-80837500D01*
%TO.N,+3V3*%
X95032500Y-90370000D02*
X97030000Y-90370000D01*
X97010000Y-87160000D02*
X97010000Y-90350000D01*
X97010000Y-90350000D02*
X97030000Y-90370000D01*
%TO.N,GND*%
X94262500Y-80837500D02*
X93817500Y-80837500D01*
%TO.N,+3V3*%
X97030000Y-90370000D02*
X99270000Y-90370000D01*
X103190000Y-94290000D02*
X99270000Y-90370000D01*
X105420000Y-77730000D02*
X105420000Y-77620000D01*
X105420000Y-77620000D02*
X105710000Y-77330000D01*
X105710000Y-77330000D02*
X105710000Y-75360000D01*
%TO.N,GND*%
X103810000Y-75360000D02*
X99740000Y-75360000D01*
X99740000Y-75360000D02*
X94262500Y-80837500D01*
%TO.N,+3V3*%
X105420000Y-77730000D02*
X105430000Y-77720000D01*
X105420000Y-80880000D02*
X105420000Y-77730000D01*
X90500000Y-85837500D02*
X95032500Y-90370000D01*
%TO.N,GND*%
X110500000Y-88500000D02*
X110500000Y-91771948D01*
X110500000Y-91771948D02*
X104171948Y-98100000D01*
X104171948Y-98100000D02*
X103190000Y-98100000D01*
%TO.N,Net-(U1-VIOUT)*%
X105420000Y-88500000D02*
X106219999Y-89299999D01*
X106219999Y-89299999D02*
X106219999Y-93951949D01*
X106219999Y-93951949D02*
X104611948Y-95560000D01*
X104611948Y-95560000D02*
X103190000Y-95560000D01*
%TO.N,Current-*%
X89900000Y-99400000D02*
X93740000Y-99400000D01*
X93740000Y-99400000D02*
X96310000Y-96830000D01*
X96310000Y-96830000D02*
X98240000Y-96830000D01*
%TO.N,Current+*%
X95132500Y-95582500D02*
X95155000Y-95560000D01*
X95155000Y-95560000D02*
X98240000Y-95560000D01*
X93950000Y-94400000D02*
X95132500Y-95582500D01*
X89900000Y-94400000D02*
X93950000Y-94400000D01*
%TO.N,Net-(D1-K)*%
X114800000Y-78610000D02*
X114800000Y-88190000D01*
X114800000Y-88190000D02*
X117700000Y-91090000D01*
%TO.N,Net-(D1-A)*%
X117640000Y-85230000D02*
X117640000Y-78910000D01*
X117640000Y-78910000D02*
X117340000Y-78610000D01*
%TO.N,Net-(D1-K)*%
X114800000Y-78610000D02*
X110230000Y-78610000D01*
X110230000Y-78610000D02*
X107960000Y-80880000D01*
%TO.N,GND*%
X93817500Y-80837500D02*
X90500000Y-80837500D01*
%TD*%
%TA.AperFunction,Conductor*%
%TO.N,GND*%
G36*
X135242606Y-70235523D02*
G01*
X135257604Y-70239927D01*
X135316355Y-70277672D01*
X135317542Y-70279041D01*
X135345018Y-70333902D01*
X135346663Y-70341460D01*
X135349500Y-70367831D01*
X135349500Y-111397670D01*
X135344475Y-111432614D01*
X135340070Y-111447612D01*
X135302327Y-111506355D01*
X135300958Y-111507542D01*
X135246097Y-111535018D01*
X135238539Y-111536663D01*
X135212168Y-111539500D01*
X80842330Y-111539500D01*
X80807389Y-111534475D01*
X80792390Y-111530070D01*
X80733644Y-111492327D01*
X80732457Y-111490958D01*
X80704977Y-111436083D01*
X80703332Y-111428521D01*
X80700500Y-111402168D01*
X80700500Y-95969698D01*
X86436535Y-95969698D01*
X86436535Y-95969711D01*
X86448553Y-96172788D01*
X86459718Y-96241767D01*
X86499854Y-96403415D01*
X86534857Y-96480217D01*
X86584226Y-96588541D01*
X86641399Y-96666904D01*
X86704143Y-96752901D01*
X86709483Y-96758848D01*
X86750819Y-96804884D01*
X86750820Y-96804885D01*
X86871976Y-96919171D01*
X87043043Y-97029296D01*
X87108500Y-97054630D01*
X87163915Y-97097185D01*
X87187526Y-97162944D01*
X87187708Y-97173222D01*
X87126843Y-99729618D01*
X87126843Y-99729619D01*
X87098179Y-100933509D01*
X87099546Y-101015070D01*
X87131690Y-101215945D01*
X87131693Y-101215960D01*
X87149546Y-101283066D01*
X87149552Y-101283085D01*
X87204808Y-101438285D01*
X87204810Y-101438289D01*
X87306848Y-101614293D01*
X87306852Y-101614298D01*
X87442228Y-101766155D01*
X87442231Y-101766158D01*
X87442234Y-101766161D01*
X87493766Y-101813344D01*
X87493777Y-101813353D01*
X87493780Y-101813355D01*
X87625491Y-101915252D01*
X87806485Y-102008150D01*
X87806489Y-102008151D01*
X87806494Y-102008154D01*
X88002489Y-102062719D01*
X88002488Y-102062719D01*
X88016261Y-102065085D01*
X88071349Y-102074552D01*
X88154014Y-102085252D01*
X88357444Y-102082386D01*
X89345595Y-101967818D01*
X89479034Y-101943128D01*
X89494179Y-101939252D01*
X89511279Y-101934878D01*
X89511323Y-101934866D01*
X89511387Y-101934850D01*
X89526268Y-101930921D01*
X89526274Y-101930918D01*
X89526282Y-101930916D01*
X89716151Y-101857897D01*
X89716150Y-101857897D01*
X89716159Y-101857894D01*
X89887463Y-101748136D01*
X89942178Y-101704684D01*
X89945509Y-101701556D01*
X90067746Y-101586744D01*
X90069269Y-101588365D01*
X90120184Y-101556382D01*
X90190050Y-101557102D01*
X90229764Y-101577635D01*
X90269865Y-101608659D01*
X90330074Y-101639562D01*
X90450857Y-101701556D01*
X90450861Y-101701557D01*
X90450866Y-101701560D01*
X90646861Y-101756125D01*
X90646860Y-101756125D01*
X90660633Y-101758491D01*
X90715721Y-101767958D01*
X90798387Y-101778658D01*
X91001816Y-101775792D01*
X101075586Y-100607818D01*
X101144441Y-100619651D01*
X101195973Y-100666834D01*
X101213816Y-100734387D01*
X101207717Y-100768434D01*
X101207814Y-100768460D01*
X101207509Y-100769597D01*
X101207289Y-100770827D01*
X101206769Y-100772359D01*
X101149091Y-100987616D01*
X101149086Y-100987641D01*
X101149083Y-100987654D01*
X101120000Y-101208574D01*
X101120000Y-101431424D01*
X101149083Y-101652344D01*
X101149086Y-101652357D01*
X101149091Y-101652382D01*
X101204158Y-101857897D01*
X101206763Y-101867618D01*
X101238038Y-101943120D01*
X101292047Y-102073508D01*
X101292058Y-102073527D01*
X101403466Y-102266494D01*
X101403478Y-102266511D01*
X101454039Y-102332402D01*
X101454040Y-102332403D01*
X101454043Y-102332403D01*
X102137093Y-101649351D01*
X102198414Y-101615868D01*
X102268105Y-101620852D01*
X102324039Y-101662723D01*
X102332158Y-101675032D01*
X102335942Y-101681586D01*
X102339881Y-101688408D01*
X102451592Y-101800119D01*
X102464964Y-101807839D01*
X102513179Y-101858407D01*
X102526401Y-101927014D01*
X102500433Y-101991879D01*
X102490644Y-102002907D01*
X101807595Y-102685954D01*
X101807595Y-102685957D01*
X101873505Y-102736532D01*
X101873507Y-102736533D01*
X102066485Y-102847949D01*
X102066497Y-102847954D01*
X102272381Y-102933236D01*
X102418557Y-102972403D01*
X102487616Y-102990907D01*
X102487620Y-102990907D01*
X102487632Y-102990911D01*
X102487645Y-102990914D01*
X102708575Y-103020000D01*
X102931418Y-103020000D01*
X102931425Y-103020000D01*
X103152354Y-102990914D01*
X103152367Y-102990911D01*
X103367618Y-102933236D01*
X103573502Y-102847954D01*
X103573514Y-102847949D01*
X103766498Y-102736530D01*
X103832403Y-102685957D01*
X103832404Y-102685956D01*
X103832403Y-102685955D01*
X103832404Y-102685955D01*
X103149354Y-102002907D01*
X103115869Y-101941584D01*
X103120853Y-101871893D01*
X103162724Y-101815959D01*
X103175022Y-101807846D01*
X103188408Y-101800119D01*
X103300119Y-101688408D01*
X103307839Y-101675035D01*
X103358402Y-101626821D01*
X103427009Y-101613596D01*
X103491875Y-101639562D01*
X103502907Y-101649354D01*
X104185955Y-102332404D01*
X104185955Y-102332403D01*
X104185956Y-102332404D01*
X104185957Y-102332403D01*
X104236530Y-102266498D01*
X104347949Y-102073514D01*
X104347954Y-102073502D01*
X104433236Y-101867618D01*
X104490911Y-101652367D01*
X104490914Y-101652354D01*
X104520000Y-101431424D01*
X104520000Y-101208575D01*
X104490914Y-100987645D01*
X104490911Y-100987632D01*
X104484836Y-100964961D01*
X104464696Y-100889793D01*
X104433236Y-100772381D01*
X104347954Y-100566497D01*
X104347949Y-100566485D01*
X104236533Y-100373507D01*
X104236532Y-100373505D01*
X104185957Y-100307595D01*
X104185956Y-100307595D01*
X104185955Y-100307595D01*
X104185954Y-100307595D01*
X103502906Y-100990643D01*
X103441583Y-101024128D01*
X103371891Y-101019144D01*
X103315958Y-100977272D01*
X103307838Y-100964961D01*
X103300122Y-100951598D01*
X103300119Y-100951592D01*
X103188408Y-100839881D01*
X103181586Y-100835942D01*
X103175032Y-100832158D01*
X103126817Y-100781590D01*
X103113596Y-100712983D01*
X103139565Y-100648118D01*
X103149343Y-100637101D01*
X103832403Y-99954043D01*
X103832403Y-99954040D01*
X103766504Y-99903473D01*
X103766491Y-99903464D01*
X103573520Y-99792054D01*
X103573508Y-99792047D01*
X103480216Y-99753403D01*
X103367618Y-99706763D01*
X103367611Y-99706761D01*
X103152382Y-99649091D01*
X103152367Y-99649088D01*
X103152354Y-99649085D01*
X103152350Y-99649084D01*
X103152344Y-99649083D01*
X102931426Y-99620000D01*
X102931425Y-99620000D01*
X102708575Y-99620000D01*
X102708574Y-99620000D01*
X102487654Y-99649083D01*
X102487641Y-99649086D01*
X102487608Y-99649093D01*
X102413037Y-99669074D01*
X102343187Y-99667411D01*
X102285325Y-99628247D01*
X102257822Y-99564019D01*
X102257581Y-99536761D01*
X102265000Y-99463806D01*
X102265000Y-99024000D01*
X102284685Y-98956961D01*
X102337489Y-98911206D01*
X102389000Y-98900000D01*
X102940000Y-98900000D01*
X102940000Y-98272329D01*
X102945023Y-98237393D01*
X102949427Y-98222395D01*
X102987172Y-98163644D01*
X102988541Y-98162457D01*
X103043420Y-98134977D01*
X103050979Y-98133333D01*
X103077332Y-98130500D01*
X103342308Y-98130500D01*
X103377235Y-98135521D01*
X103388088Y-98138707D01*
X103446869Y-98176477D01*
X103475898Y-98240031D01*
X103465959Y-98309190D01*
X103465958Y-98309192D01*
X103462773Y-98316167D01*
X103441059Y-98347442D01*
X103440000Y-98350000D01*
X103440000Y-98900000D01*
X104080629Y-98900000D01*
X104080634Y-98900000D01*
X104080649Y-98899999D01*
X104117489Y-98897100D01*
X104117495Y-98897099D01*
X104275193Y-98851283D01*
X104275196Y-98851282D01*
X104416552Y-98767685D01*
X104416561Y-98767678D01*
X104532678Y-98651561D01*
X104532685Y-98651552D01*
X104616281Y-98510198D01*
X104662100Y-98352486D01*
X104662295Y-98350001D01*
X104662295Y-98350000D01*
X104301869Y-98350000D01*
X104287516Y-98345785D01*
X104272575Y-98346490D01*
X104266939Y-98344978D01*
X104261077Y-98343257D01*
X104246075Y-98333617D01*
X104234830Y-98330315D01*
X104227157Y-98321460D01*
X104202297Y-98305485D01*
X104190016Y-98278598D01*
X104189075Y-98277511D01*
X104188870Y-98276087D01*
X104173270Y-98241931D01*
X104183211Y-98172772D01*
X104228955Y-98119972D01*
X104229731Y-98119472D01*
X104231641Y-98118245D01*
X104270297Y-98101848D01*
X104382176Y-98075534D01*
X104382174Y-98075534D01*
X104382185Y-98075532D01*
X104577237Y-97989409D01*
X104753142Y-97868911D01*
X104903911Y-97718142D01*
X105024409Y-97542237D01*
X105110532Y-97347185D01*
X105159349Y-97139630D01*
X105165500Y-97051012D01*
X105165500Y-96775236D01*
X105170522Y-96740305D01*
X105175331Y-96723925D01*
X105211113Y-96666908D01*
X105220993Y-96657970D01*
X105247883Y-96639443D01*
X105267353Y-96629524D01*
X105426594Y-96513828D01*
X107173828Y-94766594D01*
X107289523Y-94607354D01*
X107378883Y-94431974D01*
X107439708Y-94244775D01*
X107452687Y-94162826D01*
X107470499Y-94050366D01*
X107470499Y-90410816D01*
X107475522Y-90375880D01*
X107479502Y-90362326D01*
X107517277Y-90303548D01*
X107580099Y-90274632D01*
X107593423Y-90272635D01*
X107627986Y-90272326D01*
X107805932Y-90295753D01*
X107841973Y-90300498D01*
X107841989Y-90300500D01*
X107841996Y-90300500D01*
X108078004Y-90300500D01*
X108078011Y-90300500D01*
X108312014Y-90269693D01*
X108539993Y-90208606D01*
X108758049Y-90118284D01*
X108962450Y-90000273D01*
X109149699Y-89856592D01*
X109316592Y-89689699D01*
X109460273Y-89502450D01*
X109578284Y-89298049D01*
X109668606Y-89079993D01*
X109693174Y-88988301D01*
X109705558Y-88958404D01*
X109721331Y-88931085D01*
X109741029Y-88905415D01*
X109963502Y-88682942D01*
X110024823Y-88649459D01*
X110094515Y-88654443D01*
X110150448Y-88696315D01*
X110158567Y-88708624D01*
X110179915Y-88745599D01*
X110179919Y-88745604D01*
X110179920Y-88745606D01*
X110254394Y-88820080D01*
X110254395Y-88820081D01*
X110254397Y-88820082D01*
X110291373Y-88841430D01*
X110339588Y-88891996D01*
X110352812Y-88960603D01*
X110326844Y-89025468D01*
X110317054Y-89036498D01*
X109774075Y-89579473D01*
X109774076Y-89579473D01*
X109774076Y-89579474D01*
X109818650Y-89611859D01*
X109866037Y-89636004D01*
X110000963Y-89704753D01*
X110000965Y-89704753D01*
X110000968Y-89704755D01*
X110195582Y-89767990D01*
X110397683Y-89800000D01*
X110602316Y-89800000D01*
X110602317Y-89800000D01*
X110804417Y-89767990D01*
X110999031Y-89704755D01*
X111181349Y-89611859D01*
X111225921Y-89579474D01*
X110682945Y-89036498D01*
X110649460Y-88975175D01*
X110654444Y-88905483D01*
X110696316Y-88849550D01*
X110708618Y-88841434D01*
X110745606Y-88820080D01*
X110820080Y-88745606D01*
X110841430Y-88708625D01*
X110891995Y-88660411D01*
X110960602Y-88647187D01*
X111025467Y-88673154D01*
X111036496Y-88682943D01*
X111579473Y-89225921D01*
X111579475Y-89225920D01*
X111584101Y-89227628D01*
X111604817Y-89228961D01*
X111629104Y-89234063D01*
X111690661Y-89267107D01*
X111691290Y-89267732D01*
X114000573Y-91577015D01*
X114021723Y-91605267D01*
X114034331Y-91628356D01*
X114049500Y-91687785D01*
X114049500Y-94359329D01*
X114044476Y-94394268D01*
X114037064Y-94419508D01*
X114005770Y-94472250D01*
X113882028Y-94595992D01*
X113882017Y-94596004D01*
X113706439Y-94824824D01*
X113706429Y-94824838D01*
X113706417Y-94824855D01*
X113562198Y-95074648D01*
X113562196Y-95074651D01*
X113562191Y-95074661D01*
X113451822Y-95341119D01*
X113451807Y-95341159D01*
X113451806Y-95341162D01*
X113395202Y-95552417D01*
X113377153Y-95619774D01*
X113377148Y-95619796D01*
X113377147Y-95619802D01*
X113339501Y-95905754D01*
X113339500Y-95905783D01*
X113339500Y-96194215D01*
X113339501Y-96194244D01*
X113377148Y-96480204D01*
X113377149Y-96480206D01*
X113377150Y-96480211D01*
X113377151Y-96480217D01*
X113386157Y-96513828D01*
X113424349Y-96656361D01*
X113451810Y-96758848D01*
X113451817Y-96758868D01*
X113562193Y-97025342D01*
X113562195Y-97025345D01*
X113562198Y-97025350D01*
X113647572Y-97173222D01*
X113706420Y-97275148D01*
X113706431Y-97275164D01*
X113706439Y-97275174D01*
X113882017Y-97503994D01*
X113882021Y-97503999D01*
X113882024Y-97504002D01*
X113882030Y-97504009D01*
X114085990Y-97707969D01*
X114085997Y-97707975D01*
X114086010Y-97707985D01*
X114086015Y-97707989D01*
X114226840Y-97816047D01*
X114251496Y-97841296D01*
X114265136Y-97859975D01*
X114287150Y-97911795D01*
X114287656Y-97914696D01*
X114289500Y-97936003D01*
X114289500Y-99411544D01*
X114284475Y-99446485D01*
X114277957Y-99468679D01*
X114250254Y-99517675D01*
X114248263Y-99519840D01*
X114232478Y-99534279D01*
X114065984Y-99662034D01*
X113862038Y-99865981D01*
X113862031Y-99865989D01*
X113862017Y-99866004D01*
X113686439Y-100094824D01*
X113686429Y-100094838D01*
X113686417Y-100094855D01*
X113542198Y-100344648D01*
X113542195Y-100344653D01*
X113542193Y-100344656D01*
X113431817Y-100611130D01*
X113431814Y-100611136D01*
X113431814Y-100611139D01*
X113431809Y-100611155D01*
X113386142Y-100781590D01*
X113357522Y-100888401D01*
X113357509Y-100888450D01*
X113357151Y-100889782D01*
X113357150Y-100889785D01*
X113357147Y-100889802D01*
X113319501Y-101175754D01*
X113319500Y-101175783D01*
X113319500Y-101464215D01*
X113319501Y-101464244D01*
X113357148Y-101750201D01*
X113357152Y-101750221D01*
X113391688Y-101879111D01*
X113431810Y-102028848D01*
X113431817Y-102028868D01*
X113542193Y-102295342D01*
X113542195Y-102295345D01*
X113542199Y-102295352D01*
X113686420Y-102545148D01*
X113686431Y-102545164D01*
X113686439Y-102545174D01*
X113862017Y-102773994D01*
X113862021Y-102773999D01*
X113862024Y-102774002D01*
X113862030Y-102774009D01*
X114065990Y-102977969D01*
X114065997Y-102977975D01*
X114066000Y-102977977D01*
X114066004Y-102977981D01*
X114120765Y-103020000D01*
X114294851Y-103153580D01*
X114295077Y-103153710D01*
X114413069Y-103221833D01*
X114544647Y-103297800D01*
X114544663Y-103297808D01*
X114677572Y-103352860D01*
X114807097Y-103406511D01*
X114808915Y-103407341D01*
X114809400Y-103407525D01*
X114810970Y-103408148D01*
X114812254Y-103408504D01*
X114815412Y-103409408D01*
X114816913Y-103409734D01*
X114847606Y-103417958D01*
X115089783Y-103482849D01*
X115375772Y-103520500D01*
X115375779Y-103520500D01*
X115664221Y-103520500D01*
X115664228Y-103520500D01*
X115950217Y-103482849D01*
X116224998Y-103409221D01*
X116228209Y-103408473D01*
X116230595Y-103407527D01*
X116231074Y-103407345D01*
X116232901Y-103406511D01*
X116491302Y-103299478D01*
X116493162Y-103298784D01*
X116493622Y-103298578D01*
X116495412Y-103297804D01*
X116497048Y-103296895D01*
X116498770Y-103295826D01*
X116745156Y-103153575D01*
X116974004Y-102977974D01*
X117177974Y-102774004D01*
X117353575Y-102545156D01*
X117497804Y-102295345D01*
X117509751Y-102266504D01*
X117509754Y-102266498D01*
X117586014Y-102082386D01*
X117606511Y-102032901D01*
X117607342Y-102031081D01*
X117607524Y-102030602D01*
X117608474Y-102028204D01*
X117609221Y-102024998D01*
X117682849Y-101750217D01*
X117720500Y-101464228D01*
X117720500Y-101175772D01*
X117682849Y-100889783D01*
X117615141Y-100637091D01*
X117609734Y-100616913D01*
X117609408Y-100615412D01*
X117608504Y-100612254D01*
X117608148Y-100610970D01*
X117607525Y-100609400D01*
X117607341Y-100608915D01*
X117606511Y-100607097D01*
X117509755Y-100373507D01*
X117497808Y-100344663D01*
X117497800Y-100344647D01*
X117421833Y-100213069D01*
X117353710Y-100095077D01*
X117353580Y-100094851D01*
X117353580Y-100094850D01*
X117245535Y-99954043D01*
X117177981Y-99866004D01*
X117177977Y-99866000D01*
X117177975Y-99865997D01*
X117177969Y-99865990D01*
X116974009Y-99662030D01*
X116974001Y-99662022D01*
X116853156Y-99569293D01*
X116828498Y-99544041D01*
X116814859Y-99525362D01*
X116792843Y-99473512D01*
X116792336Y-99470601D01*
X116790500Y-99449344D01*
X116790500Y-97943106D01*
X116795522Y-97908173D01*
X116802040Y-97885976D01*
X116829762Y-97836957D01*
X116831764Y-97834780D01*
X116847517Y-97820376D01*
X116886616Y-97790375D01*
X116994004Y-97707974D01*
X117197974Y-97504004D01*
X117373575Y-97275156D01*
X117517804Y-97025345D01*
X117561783Y-96919171D01*
X117628185Y-96758860D01*
X117628185Y-96758857D01*
X117628191Y-96758845D01*
X117702849Y-96480217D01*
X117740500Y-96194228D01*
X117740500Y-95905772D01*
X117702849Y-95619783D01*
X117628191Y-95341155D01*
X117628190Y-95341154D01*
X117628160Y-95341040D01*
X117628017Y-95340633D01*
X117627260Y-95338905D01*
X117573222Y-95208445D01*
X117517808Y-95074663D01*
X117517800Y-95074647D01*
X117402484Y-94874915D01*
X117373710Y-94825077D01*
X117373580Y-94824851D01*
X117373580Y-94824850D01*
X117265998Y-94684647D01*
X117197975Y-94595997D01*
X117197969Y-94595990D01*
X116994009Y-94392030D01*
X116994002Y-94392024D01*
X116993999Y-94392021D01*
X116993994Y-94392017D01*
X116767137Y-94217945D01*
X116765252Y-94216437D01*
X116763887Y-94215617D01*
X116761970Y-94214585D01*
X116627936Y-94137199D01*
X116600198Y-94115386D01*
X116587216Y-94101772D01*
X116556448Y-94045423D01*
X116553991Y-94035295D01*
X116550500Y-94006074D01*
X116550500Y-93199075D01*
X116555522Y-93164142D01*
X116559433Y-93150823D01*
X116597206Y-93092046D01*
X116660758Y-93063021D01*
X116665955Y-93062274D01*
X116731046Y-93070452D01*
X116987097Y-93176511D01*
X116988915Y-93177341D01*
X116989400Y-93177525D01*
X116990970Y-93178148D01*
X116992254Y-93178504D01*
X116995412Y-93179408D01*
X116996913Y-93179734D01*
X117002556Y-93181246D01*
X117269783Y-93252849D01*
X117555772Y-93290500D01*
X117555779Y-93290500D01*
X117844221Y-93290500D01*
X117844228Y-93290500D01*
X118130217Y-93252849D01*
X118404998Y-93179221D01*
X118408209Y-93178473D01*
X118410595Y-93177527D01*
X118411074Y-93177345D01*
X118412901Y-93176511D01*
X118671302Y-93069478D01*
X118673162Y-93068784D01*
X118673622Y-93068578D01*
X118675412Y-93067804D01*
X118677048Y-93066895D01*
X118678770Y-93065826D01*
X118925156Y-92923575D01*
X119154004Y-92747974D01*
X119357974Y-92544004D01*
X119533575Y-92315156D01*
X119677804Y-92065345D01*
X119691430Y-92032450D01*
X119788185Y-91798860D01*
X119788185Y-91798857D01*
X119788191Y-91798845D01*
X119862849Y-91520217D01*
X119900500Y-91234228D01*
X119900500Y-90945772D01*
X119862849Y-90659783D01*
X119789734Y-90386913D01*
X119789408Y-90385412D01*
X119788504Y-90382254D01*
X119788148Y-90380970D01*
X119787525Y-90379400D01*
X119787341Y-90378915D01*
X119786511Y-90377097D01*
X119732860Y-90247572D01*
X119677808Y-90114663D01*
X119677800Y-90114647D01*
X119554422Y-89900952D01*
X119533710Y-89865077D01*
X119533580Y-89864851D01*
X119533580Y-89864850D01*
X119357977Y-89636000D01*
X119357971Y-89635992D01*
X119357956Y-89635976D01*
X119154017Y-89432038D01*
X119154009Y-89432030D01*
X119154002Y-89432024D01*
X119153999Y-89432021D01*
X119153994Y-89432017D01*
X118926754Y-89257651D01*
X118925479Y-89256639D01*
X118925154Y-89256423D01*
X118737801Y-89148254D01*
X118675352Y-89112199D01*
X118675350Y-89112198D01*
X118675345Y-89112195D01*
X118675332Y-89112189D01*
X118408869Y-89001817D01*
X118408851Y-89001810D01*
X118408840Y-89001807D01*
X118130221Y-88927152D01*
X118130219Y-88927151D01*
X118130217Y-88927151D01*
X118130211Y-88927150D01*
X118130206Y-88927149D01*
X118130201Y-88927148D01*
X117848328Y-88890039D01*
X117846312Y-88889705D01*
X117844238Y-88889500D01*
X117844233Y-88889500D01*
X117844228Y-88889500D01*
X117555772Y-88889500D01*
X117555771Y-88889500D01*
X117555769Y-88889500D01*
X117379756Y-88912671D01*
X117344468Y-88912252D01*
X117334935Y-88910765D01*
X117321615Y-88908688D01*
X117269397Y-88887603D01*
X117266985Y-88885907D01*
X117250628Y-88872154D01*
X116099426Y-87720952D01*
X116078274Y-87692696D01*
X116065667Y-87669607D01*
X116050500Y-87610182D01*
X116050500Y-87053280D01*
X116055521Y-87018352D01*
X116057004Y-87013301D01*
X116059036Y-87006380D01*
X116096806Y-86947601D01*
X116160360Y-86918573D01*
X116226149Y-86927034D01*
X116235293Y-86930886D01*
X116262637Y-86946783D01*
X116362886Y-87023706D01*
X116403404Y-87054797D01*
X116414851Y-87063580D01*
X116415077Y-87063710D01*
X116432294Y-87073650D01*
X116664647Y-87207800D01*
X116664663Y-87207808D01*
X116797572Y-87262860D01*
X116927097Y-87316511D01*
X116928915Y-87317341D01*
X116929400Y-87317525D01*
X116930970Y-87318148D01*
X116932254Y-87318504D01*
X116935412Y-87319408D01*
X116936913Y-87319734D01*
X116967606Y-87327958D01*
X117209783Y-87392849D01*
X117495772Y-87430500D01*
X117495779Y-87430500D01*
X117784221Y-87430500D01*
X117784228Y-87430500D01*
X118070217Y-87392849D01*
X118344998Y-87319221D01*
X118348209Y-87318473D01*
X118350595Y-87317527D01*
X118351074Y-87317345D01*
X118352901Y-87316511D01*
X118611302Y-87209478D01*
X118613162Y-87208784D01*
X118613622Y-87208578D01*
X118615412Y-87207804D01*
X118617048Y-87206895D01*
X118618770Y-87205826D01*
X118865156Y-87063575D01*
X119094004Y-86887974D01*
X119297974Y-86684004D01*
X119473575Y-86455156D01*
X119617804Y-86205345D01*
X119659222Y-86105354D01*
X119726511Y-85942901D01*
X119727338Y-85941088D01*
X119727520Y-85940611D01*
X119728474Y-85938204D01*
X119729221Y-85934998D01*
X119802849Y-85660217D01*
X119840500Y-85374228D01*
X119840500Y-85085772D01*
X119802849Y-84799783D01*
X119729734Y-84526913D01*
X119729408Y-84525412D01*
X119728504Y-84522254D01*
X119728148Y-84520970D01*
X119727525Y-84519400D01*
X119727341Y-84518915D01*
X119726511Y-84517097D01*
X119661047Y-84359052D01*
X119617808Y-84254663D01*
X119617800Y-84254647D01*
X119486239Y-84026778D01*
X119473710Y-84005077D01*
X119473580Y-84004851D01*
X119473579Y-84004850D01*
X119473576Y-84004847D01*
X119473575Y-84004844D01*
X119415063Y-83928589D01*
X119389328Y-83895050D01*
X119297981Y-83776004D01*
X119297977Y-83776000D01*
X119297975Y-83775997D01*
X119297969Y-83775990D01*
X119297960Y-83775981D01*
X119094014Y-83572034D01*
X118953156Y-83463949D01*
X118928497Y-83438695D01*
X118914860Y-83420018D01*
X118892848Y-83368188D01*
X118892342Y-83365285D01*
X118890500Y-83343993D01*
X118890500Y-79771183D01*
X118895523Y-79736248D01*
X118904003Y-79707368D01*
X118922001Y-79671950D01*
X118921340Y-79671508D01*
X118923591Y-79668137D01*
X118923599Y-79668127D01*
X119048164Y-79452373D01*
X119143502Y-79222207D01*
X119207982Y-78981565D01*
X119240500Y-78734565D01*
X119240500Y-78485435D01*
X119207982Y-78238435D01*
X119143502Y-77997793D01*
X119065728Y-77810030D01*
X119048169Y-77767638D01*
X119048162Y-77767623D01*
X118923599Y-77551873D01*
X118914855Y-77540478D01*
X118771945Y-77354232D01*
X118771941Y-77354228D01*
X118771939Y-77354225D01*
X118771933Y-77354218D01*
X118595781Y-77178066D01*
X118595774Y-77178060D01*
X118595771Y-77178057D01*
X118595766Y-77178053D01*
X118398125Y-77026399D01*
X118182373Y-76901835D01*
X118182320Y-76901809D01*
X118181686Y-76901551D01*
X118168002Y-76895883D01*
X118137645Y-76877870D01*
X118130640Y-76872225D01*
X118090794Y-76814831D01*
X118088304Y-76745005D01*
X118123960Y-76684919D01*
X118179950Y-76654998D01*
X118184938Y-76653820D01*
X118213439Y-76650500D01*
X120082834Y-76650500D01*
X120117766Y-76655521D01*
X120143010Y-76662934D01*
X120195756Y-76694230D01*
X128140157Y-84638631D01*
X128161308Y-84666884D01*
X128170326Y-84683399D01*
X128185459Y-84745779D01*
X128185211Y-84756192D01*
X128181022Y-84785327D01*
X128177159Y-84799745D01*
X128177151Y-84799782D01*
X128177149Y-84799791D01*
X128139501Y-85085754D01*
X128139500Y-85085783D01*
X128139500Y-85374215D01*
X128139501Y-85374244D01*
X128177148Y-85660201D01*
X128177152Y-85660221D01*
X128215112Y-85801892D01*
X128243916Y-85909388D01*
X128251809Y-85938844D01*
X128251809Y-85938845D01*
X128251816Y-85938865D01*
X128362193Y-86205342D01*
X128362195Y-86205345D01*
X128362199Y-86205352D01*
X128506420Y-86455148D01*
X128506431Y-86455164D01*
X128537251Y-86495330D01*
X128682017Y-86683994D01*
X128682021Y-86683999D01*
X128682024Y-86684002D01*
X128682030Y-86684009D01*
X128885990Y-86887969D01*
X128885997Y-86887975D01*
X128886000Y-86887977D01*
X128886004Y-86887981D01*
X128960985Y-86945515D01*
X129103409Y-87054800D01*
X129123057Y-87073645D01*
X129133525Y-87086168D01*
X129139272Y-87093044D01*
X129165522Y-87147274D01*
X129166893Y-87153854D01*
X129169500Y-87179147D01*
X129169500Y-89181544D01*
X129164475Y-89216485D01*
X129157957Y-89238679D01*
X129130254Y-89287675D01*
X129128263Y-89289840D01*
X129112478Y-89304279D01*
X128945984Y-89432034D01*
X128742038Y-89635981D01*
X128742031Y-89635989D01*
X128742017Y-89636004D01*
X128566439Y-89864824D01*
X128566429Y-89864838D01*
X128566417Y-89864855D01*
X128422198Y-90114648D01*
X128422195Y-90114653D01*
X128422193Y-90114656D01*
X128311817Y-90381130D01*
X128311815Y-90381136D01*
X128311814Y-90381139D01*
X128311809Y-90381155D01*
X128284483Y-90483133D01*
X128237153Y-90659772D01*
X128237150Y-90659789D01*
X128237147Y-90659802D01*
X128199501Y-90945754D01*
X128199500Y-90945783D01*
X128199500Y-91234215D01*
X128199501Y-91234244D01*
X128237148Y-91520201D01*
X128237149Y-91520206D01*
X128237150Y-91520211D01*
X128237151Y-91520217D01*
X128311809Y-91798844D01*
X128311814Y-91798860D01*
X128311816Y-91798865D01*
X128311817Y-91798868D01*
X128422193Y-92065342D01*
X128422195Y-92065345D01*
X128422199Y-92065352D01*
X128566420Y-92315148D01*
X128566431Y-92315164D01*
X128614724Y-92378101D01*
X128742017Y-92543994D01*
X128742021Y-92543999D01*
X128742024Y-92544002D01*
X128742030Y-92544009D01*
X128945990Y-92747969D01*
X128945997Y-92747975D01*
X128946000Y-92747977D01*
X128946004Y-92747981D01*
X129039392Y-92819639D01*
X129091264Y-92859442D01*
X129106841Y-92871394D01*
X129131500Y-92896647D01*
X129145138Y-92915325D01*
X129167144Y-92967115D01*
X129167651Y-92970018D01*
X129169500Y-92991351D01*
X129169500Y-93282833D01*
X129164476Y-93317770D01*
X129157064Y-93343011D01*
X129125769Y-93395755D01*
X128694390Y-93827133D01*
X128666135Y-93848285D01*
X128645834Y-93859370D01*
X128591595Y-93874428D01*
X128588657Y-93874551D01*
X128567285Y-93873599D01*
X128388328Y-93850039D01*
X128386312Y-93849705D01*
X128384238Y-93849500D01*
X128384233Y-93849500D01*
X128384228Y-93849500D01*
X128095772Y-93849500D01*
X128095766Y-93849500D01*
X128095761Y-93849500D01*
X128093684Y-93849705D01*
X128091670Y-93850039D01*
X127809814Y-93887146D01*
X127809782Y-93887150D01*
X127807973Y-93887577D01*
X127806197Y-93888111D01*
X127531150Y-93961810D01*
X127531130Y-93961817D01*
X127264656Y-94072193D01*
X127264653Y-94072195D01*
X127264648Y-94072198D01*
X127014855Y-94216417D01*
X127014851Y-94216420D01*
X127014837Y-94216430D01*
X127014824Y-94216439D01*
X126786004Y-94392017D01*
X126785989Y-94392031D01*
X126785981Y-94392038D01*
X126582038Y-94595981D01*
X126582031Y-94595989D01*
X126582017Y-94596004D01*
X126406439Y-94824824D01*
X126406429Y-94824838D01*
X126406417Y-94824855D01*
X126262198Y-95074648D01*
X126262196Y-95074651D01*
X126262191Y-95074661D01*
X126151822Y-95341119D01*
X126151807Y-95341159D01*
X126151806Y-95341162D01*
X126095202Y-95552417D01*
X126077153Y-95619774D01*
X126077148Y-95619796D01*
X126077147Y-95619802D01*
X126039501Y-95905754D01*
X126039500Y-95905783D01*
X126039500Y-96194215D01*
X126039501Y-96194244D01*
X126077148Y-96480204D01*
X126077149Y-96480206D01*
X126077150Y-96480211D01*
X126077151Y-96480217D01*
X126086157Y-96513828D01*
X126124349Y-96656361D01*
X126151810Y-96758848D01*
X126151817Y-96758868D01*
X126262193Y-97025342D01*
X126262195Y-97025345D01*
X126262198Y-97025350D01*
X126347572Y-97173222D01*
X126406420Y-97275148D01*
X126406431Y-97275164D01*
X126406439Y-97275174D01*
X126582017Y-97503994D01*
X126582021Y-97503999D01*
X126582024Y-97504002D01*
X126582030Y-97504009D01*
X126785990Y-97707969D01*
X126785997Y-97707975D01*
X126786010Y-97707985D01*
X126786015Y-97707989D01*
X126845856Y-97753906D01*
X127014522Y-97883328D01*
X127014851Y-97883580D01*
X127015077Y-97883710D01*
X127087073Y-97925277D01*
X127264647Y-98027800D01*
X127264663Y-98027808D01*
X127285720Y-98036530D01*
X127527097Y-98136511D01*
X127528915Y-98137341D01*
X127529400Y-98137525D01*
X127530970Y-98138148D01*
X127532254Y-98138504D01*
X127535412Y-98139408D01*
X127536913Y-98139734D01*
X127544273Y-98141706D01*
X127809783Y-98212849D01*
X128095772Y-98250500D01*
X128095779Y-98250500D01*
X128384221Y-98250500D01*
X128384228Y-98250500D01*
X128670217Y-98212849D01*
X128944998Y-98139221D01*
X128948209Y-98138473D01*
X128950595Y-98137527D01*
X128951074Y-98137345D01*
X128952901Y-98136511D01*
X129211302Y-98029478D01*
X129213162Y-98028784D01*
X129213622Y-98028578D01*
X129215412Y-98027804D01*
X129217048Y-98026895D01*
X129218770Y-98025826D01*
X129465156Y-97883575D01*
X129694004Y-97707974D01*
X129897974Y-97504004D01*
X130073575Y-97275156D01*
X130217804Y-97025345D01*
X130261783Y-96919171D01*
X130328185Y-96758860D01*
X130328185Y-96758857D01*
X130328191Y-96758845D01*
X130402849Y-96480217D01*
X130440500Y-96194228D01*
X130440500Y-95905772D01*
X130417326Y-95729753D01*
X130417746Y-95694463D01*
X130421309Y-95671614D01*
X130442390Y-95619400D01*
X130444088Y-95616986D01*
X130457832Y-95600639D01*
X131373829Y-94684645D01*
X131489524Y-94525405D01*
X131578884Y-94350025D01*
X131639709Y-94162826D01*
X131657521Y-94050365D01*
X131662188Y-94020901D01*
X131670500Y-93968425D01*
X131670500Y-92967760D01*
X131675522Y-92932827D01*
X131678238Y-92923578D01*
X131682040Y-92910630D01*
X131709762Y-92861611D01*
X131711764Y-92859434D01*
X131727517Y-92845029D01*
X131854004Y-92747974D01*
X132057974Y-92544004D01*
X132233575Y-92315156D01*
X132377804Y-92065345D01*
X132391430Y-92032450D01*
X132488185Y-91798860D01*
X132488185Y-91798857D01*
X132488191Y-91798845D01*
X132562849Y-91520217D01*
X132600500Y-91234228D01*
X132600500Y-90945772D01*
X132562849Y-90659783D01*
X132489734Y-90386913D01*
X132489408Y-90385412D01*
X132488504Y-90382254D01*
X132488148Y-90380970D01*
X132487525Y-90379400D01*
X132487341Y-90378915D01*
X132486511Y-90377097D01*
X132432860Y-90247572D01*
X132377808Y-90114663D01*
X132377800Y-90114647D01*
X132254422Y-89900952D01*
X132233710Y-89865077D01*
X132233580Y-89864851D01*
X132233580Y-89864850D01*
X132057977Y-89636000D01*
X132057971Y-89635992D01*
X132057956Y-89635976D01*
X131854003Y-89432024D01*
X131854001Y-89432022D01*
X131733156Y-89339293D01*
X131708498Y-89314041D01*
X131694859Y-89295362D01*
X131672843Y-89243512D01*
X131672336Y-89240601D01*
X131670500Y-89219344D01*
X131670500Y-87061720D01*
X131675523Y-87026784D01*
X131682040Y-87004590D01*
X131709741Y-86955593D01*
X131711742Y-86953418D01*
X131727515Y-86938991D01*
X131794004Y-86887974D01*
X131997974Y-86684004D01*
X132173575Y-86455156D01*
X132317804Y-86205345D01*
X132359222Y-86105354D01*
X132426511Y-85942901D01*
X132427338Y-85941088D01*
X132427520Y-85940611D01*
X132428474Y-85938204D01*
X132429221Y-85934998D01*
X132502849Y-85660217D01*
X132540500Y-85374228D01*
X132540500Y-85085772D01*
X132502849Y-84799783D01*
X132429734Y-84526913D01*
X132429408Y-84525412D01*
X132428504Y-84522254D01*
X132428148Y-84520970D01*
X132427525Y-84519400D01*
X132427341Y-84518915D01*
X132426511Y-84517097D01*
X132361047Y-84359052D01*
X132317808Y-84254663D01*
X132317800Y-84254647D01*
X132186239Y-84026778D01*
X132173710Y-84005077D01*
X132173580Y-84004851D01*
X132173579Y-84004850D01*
X132173576Y-84004847D01*
X132173575Y-84004844D01*
X132115063Y-83928589D01*
X132089328Y-83895050D01*
X131997981Y-83776004D01*
X131997977Y-83776000D01*
X131997975Y-83775997D01*
X131997969Y-83775990D01*
X131794009Y-83572030D01*
X131794002Y-83572024D01*
X131793999Y-83572021D01*
X131793994Y-83572017D01*
X131566754Y-83397651D01*
X131565479Y-83396639D01*
X131565154Y-83396423D01*
X131315350Y-83252198D01*
X131315345Y-83252195D01*
X131315332Y-83252189D01*
X131048869Y-83141817D01*
X131048851Y-83141810D01*
X131048840Y-83141807D01*
X130770221Y-83067152D01*
X130770219Y-83067151D01*
X130770217Y-83067151D01*
X130770211Y-83067150D01*
X130770206Y-83067149D01*
X130770201Y-83067148D01*
X130488328Y-83030039D01*
X130486312Y-83029705D01*
X130484238Y-83029500D01*
X130484233Y-83029500D01*
X130484228Y-83029500D01*
X130195772Y-83029500D01*
X130195769Y-83029500D01*
X130195767Y-83029500D01*
X130161141Y-83034058D01*
X130125851Y-83033638D01*
X130102998Y-83030074D01*
X130050767Y-83008979D01*
X130048360Y-83007286D01*
X130032017Y-82993543D01*
X121484648Y-74446174D01*
X121484646Y-74446172D01*
X121325405Y-74330476D01*
X121150030Y-74241117D01*
X120962826Y-74180290D01*
X120962824Y-74180289D01*
X120962822Y-74180289D01*
X120768427Y-74149500D01*
X120768422Y-74149500D01*
X120768417Y-74149500D01*
X107054503Y-74149500D01*
X107019567Y-74144477D01*
X106998902Y-74138409D01*
X106947689Y-74108619D01*
X106943550Y-74104621D01*
X106927771Y-74086050D01*
X106923822Y-74080350D01*
X106923821Y-74080349D01*
X106923819Y-74080346D01*
X106764654Y-73921181D01*
X106764653Y-73921180D01*
X106764644Y-73921173D01*
X106711108Y-73884084D01*
X106580560Y-73793640D01*
X106579691Y-73793025D01*
X106579625Y-73792992D01*
X106376790Y-73700861D01*
X106375446Y-73700220D01*
X106374682Y-73699903D01*
X106374668Y-73699899D01*
X106156429Y-73644906D01*
X106156418Y-73644904D01*
X106156414Y-73644903D01*
X106112348Y-73641436D01*
X106112347Y-73641436D01*
X106024222Y-73634500D01*
X106024217Y-73634500D01*
X106024215Y-73634500D01*
X105395791Y-73634500D01*
X105395787Y-73634500D01*
X105263584Y-73644903D01*
X105263580Y-73644904D01*
X105263569Y-73644906D01*
X105045330Y-73699899D01*
X105045309Y-73699906D01*
X104840384Y-73792986D01*
X104840374Y-73792992D01*
X104840368Y-73792995D01*
X104840362Y-73792999D01*
X104655359Y-73921169D01*
X104655354Y-73921174D01*
X104655351Y-73921176D01*
X104496184Y-74080341D01*
X104469543Y-74118795D01*
X104445517Y-74144652D01*
X104433352Y-74154475D01*
X104368828Y-74181276D01*
X104368827Y-74181276D01*
X104359353Y-74182304D01*
X104306973Y-74176734D01*
X104239799Y-74154475D01*
X104212697Y-74145494D01*
X104212695Y-74145493D01*
X104212694Y-74145493D01*
X104109991Y-74135000D01*
X104109986Y-74135000D01*
X104060000Y-74135000D01*
X104060000Y-75218170D01*
X104054975Y-75253114D01*
X104050570Y-75268112D01*
X104012827Y-75326855D01*
X104011458Y-75328042D01*
X103956597Y-75355518D01*
X103949039Y-75357163D01*
X103922668Y-75360000D01*
X103810000Y-75360000D01*
X103810000Y-75468170D01*
X103804975Y-75503114D01*
X103800570Y-75518112D01*
X103762827Y-75576855D01*
X103761458Y-75578042D01*
X103706597Y-75605518D01*
X103699039Y-75607163D01*
X103672668Y-75610000D01*
X102810001Y-75610000D01*
X102810001Y-75884995D01*
X102820493Y-75987694D01*
X102820493Y-75987695D01*
X102820494Y-75987697D01*
X102875641Y-76154119D01*
X102875643Y-76154124D01*
X102961702Y-76293647D01*
X102975766Y-76326018D01*
X102979429Y-76339405D01*
X102978136Y-76409262D01*
X102939280Y-76467331D01*
X102939268Y-76467341D01*
X102935289Y-76470661D01*
X102875247Y-76497924D01*
X102797174Y-76510290D01*
X102609971Y-76571116D01*
X102434594Y-76660475D01*
X102352511Y-76720114D01*
X102352510Y-76720114D01*
X102287224Y-76767547D01*
X102279845Y-76771679D01*
X98311680Y-80739844D01*
X98307550Y-80747220D01*
X98296819Y-80761991D01*
X98296816Y-80761995D01*
X98200474Y-80894595D01*
X98110667Y-81070855D01*
X98110265Y-81072280D01*
X98108856Y-81076924D01*
X98050291Y-81257165D01*
X98048765Y-81266806D01*
X98048764Y-81266813D01*
X98019500Y-81451577D01*
X98019500Y-84218483D01*
X98014475Y-84253424D01*
X98010564Y-84266741D01*
X97972787Y-84325517D01*
X97909229Y-84354539D01*
X97909177Y-84354546D01*
X97908514Y-84354641D01*
X97848675Y-84348475D01*
X97842395Y-84346199D01*
X97819554Y-84335160D01*
X97804128Y-84325646D01*
X97804120Y-84325641D01*
X97637699Y-84270494D01*
X97637694Y-84270493D01*
X97534991Y-84260000D01*
X97534986Y-84260000D01*
X97260000Y-84260000D01*
X97260000Y-85118170D01*
X97254975Y-85153114D01*
X97250570Y-85168112D01*
X97212827Y-85226855D01*
X97211458Y-85228042D01*
X97156597Y-85255518D01*
X97149039Y-85257163D01*
X97122668Y-85260000D01*
X97010000Y-85260000D01*
X97010000Y-85368170D01*
X97004975Y-85403114D01*
X97000570Y-85418112D01*
X96962827Y-85476855D01*
X96961458Y-85478042D01*
X96906597Y-85505518D01*
X96899039Y-85507163D01*
X96872668Y-85510000D01*
X95785001Y-85510000D01*
X95785001Y-85559995D01*
X95795493Y-85662694D01*
X95795494Y-85662699D01*
X95824931Y-85751534D01*
X95831152Y-85786269D01*
X95831690Y-85801892D01*
X95814324Y-85869570D01*
X95814316Y-85869582D01*
X95809440Y-85877774D01*
X95773506Y-85916278D01*
X95730342Y-85946183D01*
X95571176Y-86105351D01*
X95571175Y-86105353D01*
X95571173Y-86105355D01*
X95442999Y-86290362D01*
X95442995Y-86290368D01*
X95442992Y-86290374D01*
X95442986Y-86290384D01*
X95349906Y-86495309D01*
X95349899Y-86495330D01*
X95294906Y-86713569D01*
X95294904Y-86713580D01*
X95294904Y-86713583D01*
X95284500Y-86845771D01*
X95284500Y-87474211D01*
X95294903Y-87606414D01*
X95294904Y-87606418D01*
X95294906Y-87606429D01*
X95349899Y-87824668D01*
X95349906Y-87824689D01*
X95442986Y-88029614D01*
X95442992Y-88029624D01*
X95442995Y-88029630D01*
X95442999Y-88029636D01*
X95571159Y-88214625D01*
X95571180Y-88214653D01*
X95710573Y-88354046D01*
X95731723Y-88382298D01*
X95744331Y-88405387D01*
X95759500Y-88464816D01*
X95759500Y-88977670D01*
X95754475Y-89012614D01*
X95750070Y-89027612D01*
X95712327Y-89086355D01*
X95710958Y-89087542D01*
X95656097Y-89115018D01*
X95648539Y-89116663D01*
X95622168Y-89119500D01*
X95619666Y-89119500D01*
X95584730Y-89114477D01*
X95559488Y-89107065D01*
X95506743Y-89075769D01*
X92524425Y-86093451D01*
X92503273Y-86065195D01*
X92490666Y-86042106D01*
X92475499Y-85982681D01*
X92475499Y-84960007D01*
X95785000Y-84960007D01*
X95785000Y-84960013D01*
X95785000Y-85010000D01*
X96760000Y-85010000D01*
X96760000Y-84260000D01*
X96485037Y-84260000D01*
X96485029Y-84260000D01*
X96485019Y-84260000D01*
X96485006Y-84260001D01*
X96382304Y-84270493D01*
X96382302Y-84270494D01*
X96215887Y-84325638D01*
X96215879Y-84325641D01*
X96215877Y-84325642D01*
X96215875Y-84325643D01*
X96161711Y-84359052D01*
X96066652Y-84417685D01*
X95942685Y-84541652D01*
X95942684Y-84541654D01*
X95854217Y-84685082D01*
X95850641Y-84690879D01*
X95850640Y-84690884D01*
X95795494Y-84857299D01*
X95795493Y-84857304D01*
X95785000Y-84960007D01*
X92475499Y-84960007D01*
X92475499Y-84804471D01*
X92475499Y-84804464D01*
X92464886Y-84685082D01*
X92417928Y-84520970D01*
X92408910Y-84489454D01*
X92408909Y-84489453D01*
X92408909Y-84489451D01*
X92314698Y-84309093D01*
X92314695Y-84309090D01*
X92314694Y-84309087D01*
X92255356Y-84236315D01*
X92255353Y-84236312D01*
X92186109Y-84151390D01*
X92186108Y-84151389D01*
X92092807Y-84075313D01*
X92080704Y-84057667D01*
X92028404Y-84022800D01*
X91852019Y-83930665D01*
X91848836Y-83928853D01*
X91848042Y-83928588D01*
X91730829Y-83895050D01*
X91654981Y-83873347D01*
X91652825Y-83872679D01*
X91650347Y-83872277D01*
X91646936Y-83872126D01*
X91637628Y-83871298D01*
X91586102Y-83866717D01*
X91586101Y-83866716D01*
X91533039Y-83862000D01*
X91533037Y-83862000D01*
X91533032Y-83862000D01*
X89466971Y-83862000D01*
X89466965Y-83862000D01*
X89454897Y-83862000D01*
X89448042Y-83863682D01*
X89347582Y-83872613D01*
X89151952Y-83928589D01*
X89061771Y-83975694D01*
X89061772Y-83975695D01*
X88972578Y-84022287D01*
X88971646Y-84022763D01*
X88969242Y-84024496D01*
X88966716Y-84026778D01*
X88813887Y-84151392D01*
X88716774Y-84270493D01*
X88716775Y-84270494D01*
X88685302Y-84309092D01*
X88659206Y-84359051D01*
X88591089Y-84489454D01*
X88580371Y-84526913D01*
X88535848Y-84682516D01*
X88535236Y-84684492D01*
X88535113Y-84685080D01*
X88532670Y-84712562D01*
X88527607Y-84769516D01*
X88524917Y-84799780D01*
X88524916Y-84799791D01*
X88524500Y-84804467D01*
X88524500Y-86870534D01*
X88524835Y-86874589D01*
X88524921Y-86875260D01*
X88535113Y-86989916D01*
X88571440Y-87116873D01*
X88585656Y-87166559D01*
X88591090Y-87185548D01*
X88591353Y-87186336D01*
X88593161Y-87189513D01*
X88685302Y-87365907D01*
X88719977Y-87408433D01*
X88813887Y-87523606D01*
X88813888Y-87523607D01*
X88813890Y-87523609D01*
X88894078Y-87588993D01*
X88971593Y-87652198D01*
X89151951Y-87746409D01*
X89347582Y-87802386D01*
X89466963Y-87813000D01*
X90637833Y-87812999D01*
X90672765Y-87818020D01*
X90698009Y-87825433D01*
X90750755Y-87856729D01*
X94217854Y-91323828D01*
X94365534Y-91431124D01*
X94408198Y-91486453D01*
X94414177Y-91556067D01*
X94381571Y-91617861D01*
X94320732Y-91652219D01*
X94282057Y-91654988D01*
X91293715Y-91398844D01*
X91272306Y-91397240D01*
X91267077Y-91396905D01*
X91245742Y-91395763D01*
X91240453Y-91395536D01*
X91230016Y-91395202D01*
X91218479Y-91394834D01*
X91213208Y-91394723D01*
X91213186Y-91394722D01*
X91213150Y-91394722D01*
X91192047Y-91394500D01*
X91192038Y-91394500D01*
X88740134Y-91394500D01*
X88735974Y-91394722D01*
X88633132Y-91400209D01*
X88606891Y-91403018D01*
X88501011Y-91420101D01*
X88480050Y-91424642D01*
X88475652Y-91425595D01*
X88455415Y-91431123D01*
X88372227Y-91453846D01*
X88372202Y-91453853D01*
X88347169Y-91462149D01*
X88247378Y-91501236D01*
X87272761Y-91944243D01*
X87272750Y-91944248D01*
X87145938Y-92013277D01*
X87145921Y-92013286D01*
X87116048Y-92032449D01*
X87116047Y-92032450D01*
X87000517Y-92118851D01*
X87000506Y-92118860D01*
X86992641Y-92125674D01*
X86992516Y-92125782D01*
X86988603Y-92129172D01*
X86928051Y-92186215D01*
X86801302Y-92345372D01*
X86763544Y-92404128D01*
X86721434Y-92476041D01*
X86644662Y-92664439D01*
X86640256Y-92679445D01*
X86609757Y-92819639D01*
X86604734Y-92854577D01*
X86594500Y-92997671D01*
X86594500Y-94819729D01*
X86593254Y-94837265D01*
X86465154Y-95733968D01*
X86465154Y-95733969D01*
X86445998Y-95868053D01*
X86444783Y-95876840D01*
X86444512Y-95878865D01*
X86436535Y-95969698D01*
X80700500Y-95969698D01*
X80700500Y-80721409D01*
X89025000Y-80721409D01*
X89025000Y-80953590D01*
X89032036Y-80998011D01*
X89045811Y-81084989D01*
X89061318Y-81182893D01*
X89133065Y-81403705D01*
X89238465Y-81610564D01*
X89295238Y-81688707D01*
X89782924Y-81201020D01*
X89844245Y-81167537D01*
X89913936Y-81172521D01*
X89969870Y-81214392D01*
X89973691Y-81219792D01*
X89995112Y-81251851D01*
X89995116Y-81251855D01*
X89995116Y-81251856D01*
X90085646Y-81342386D01*
X90117684Y-81363793D01*
X90162489Y-81417406D01*
X90171196Y-81486731D01*
X90141041Y-81549758D01*
X90136474Y-81554576D01*
X89648791Y-82042258D01*
X89648791Y-82042259D01*
X89648791Y-82042260D01*
X89726935Y-82099034D01*
X89933794Y-82204434D01*
X90154606Y-82276181D01*
X90383910Y-82312500D01*
X90616089Y-82312500D01*
X90616090Y-82312500D01*
X90845393Y-82276181D01*
X91066205Y-82204434D01*
X91273071Y-82099030D01*
X91351207Y-82042262D01*
X91351208Y-82042260D01*
X91351207Y-82042258D01*
X90863524Y-81554576D01*
X90830039Y-81493253D01*
X90835023Y-81423562D01*
X90876894Y-81367628D01*
X90882270Y-81363823D01*
X90914351Y-81342388D01*
X91004888Y-81251851D01*
X91026295Y-81219812D01*
X91079903Y-81175010D01*
X91149227Y-81166301D01*
X91212256Y-81196455D01*
X91217076Y-81201024D01*
X91704758Y-81688707D01*
X91704760Y-81688708D01*
X91704762Y-81688707D01*
X91761530Y-81610571D01*
X91866934Y-81403705D01*
X91938681Y-81182893D01*
X91975000Y-80953590D01*
X91975000Y-80721409D01*
X91938681Y-80492106D01*
X91866934Y-80271294D01*
X91761534Y-80064435D01*
X91704760Y-79986291D01*
X91704759Y-79986291D01*
X91704758Y-79986291D01*
X91217076Y-80473974D01*
X91155753Y-80507459D01*
X91086061Y-80502475D01*
X91030128Y-80460603D01*
X91026293Y-80455184D01*
X91004886Y-80423146D01*
X90914356Y-80332616D01*
X90914352Y-80332613D01*
X90914351Y-80332612D01*
X90882310Y-80311203D01*
X90837507Y-80257591D01*
X90828800Y-80188266D01*
X90858955Y-80125239D01*
X90863500Y-80120443D01*
X91351207Y-79632738D01*
X91273064Y-79575965D01*
X91066205Y-79470565D01*
X90845393Y-79398818D01*
X90845391Y-79398817D01*
X90845390Y-79398817D01*
X90635978Y-79365650D01*
X90616090Y-79362500D01*
X90616089Y-79362500D01*
X90383905Y-79362500D01*
X90154609Y-79398817D01*
X90154606Y-79398818D01*
X89955058Y-79463656D01*
X89933791Y-79470566D01*
X89726926Y-79575969D01*
X89726922Y-79575971D01*
X89648791Y-79632737D01*
X89648791Y-79632738D01*
X90136475Y-80120422D01*
X90169960Y-80181745D01*
X90164976Y-80251437D01*
X90123104Y-80307370D01*
X90117688Y-80311203D01*
X90085648Y-80332612D01*
X90085643Y-80332616D01*
X89995116Y-80423143D01*
X89995112Y-80423148D01*
X89973703Y-80455188D01*
X89920090Y-80499991D01*
X89850764Y-80508697D01*
X89787738Y-80478540D01*
X89782922Y-80473975D01*
X89295238Y-79986291D01*
X89295237Y-79986291D01*
X89238471Y-80064422D01*
X89238469Y-80064426D01*
X89133066Y-80271291D01*
X89061317Y-80492109D01*
X89045811Y-80590011D01*
X89025000Y-80721409D01*
X80700500Y-80721409D01*
X80700500Y-74835007D01*
X102810000Y-74835007D01*
X102810000Y-74835013D01*
X102810000Y-75110000D01*
X103560000Y-75110000D01*
X103560000Y-74135000D01*
X103559999Y-74134999D01*
X103510048Y-74134999D01*
X103510021Y-74135000D01*
X103509983Y-74135003D01*
X103407308Y-74145493D01*
X103407300Y-74145494D01*
X103240887Y-74200638D01*
X103240879Y-74200641D01*
X103240877Y-74200642D01*
X103240875Y-74200643D01*
X103175257Y-74241117D01*
X103091652Y-74292685D01*
X102967685Y-74416652D01*
X102875641Y-74565879D01*
X102875638Y-74565888D01*
X102820494Y-74732299D01*
X102820493Y-74732304D01*
X102810000Y-74835007D01*
X80700500Y-74835007D01*
X80700500Y-70372329D01*
X80705523Y-70337393D01*
X80709927Y-70322395D01*
X80747672Y-70263644D01*
X80749041Y-70262457D01*
X80803920Y-70234977D01*
X80811479Y-70233333D01*
X80837832Y-70230500D01*
X135207670Y-70230500D01*
X135242606Y-70235523D01*
G37*
%TD.AperFunction*%
%TD*%
%TA.AperFunction,Conductor*%
%TO.N,Current-*%
G36*
X101155927Y-96631134D02*
G01*
X101202489Y-96683228D01*
X101214500Y-96736468D01*
X101214500Y-97051015D01*
X101220650Y-97139624D01*
X101220652Y-97139639D01*
X101269465Y-97347175D01*
X101269468Y-97347186D01*
X101299373Y-97414915D01*
X101308444Y-97484194D01*
X101299373Y-97515085D01*
X101269468Y-97582813D01*
X101269465Y-97582824D01*
X101220652Y-97790360D01*
X101220650Y-97790375D01*
X101214500Y-97878984D01*
X101214500Y-98321015D01*
X101220650Y-98409624D01*
X101220652Y-98409640D01*
X101264026Y-98594052D01*
X101265794Y-98641837D01*
X101259500Y-98681581D01*
X101259500Y-99463806D01*
X101239815Y-99530845D01*
X101187011Y-99576600D01*
X101149781Y-99586981D01*
X90886012Y-100776983D01*
X90817152Y-100765150D01*
X90765620Y-100717967D01*
X90747777Y-100650414D01*
X90748113Y-100644078D01*
X90751207Y-100604759D01*
X90147488Y-100001041D01*
X90207890Y-99976022D01*
X90314351Y-99904888D01*
X90404888Y-99814351D01*
X90476022Y-99707890D01*
X90501041Y-99647489D01*
X91104760Y-100251208D01*
X91104762Y-100251207D01*
X91161530Y-100173071D01*
X91266934Y-99966205D01*
X91338681Y-99745393D01*
X91375000Y-99516090D01*
X91375000Y-99283909D01*
X91338681Y-99054606D01*
X91266934Y-98833794D01*
X91161534Y-98626935D01*
X91104760Y-98548791D01*
X91104759Y-98548791D01*
X90501041Y-99152510D01*
X90476022Y-99092110D01*
X90404888Y-98985649D01*
X90314351Y-98895112D01*
X90207890Y-98823978D01*
X90147487Y-98798957D01*
X90596445Y-98350001D01*
X96767704Y-98350001D01*
X96767899Y-98352486D01*
X96813718Y-98510198D01*
X96897314Y-98651552D01*
X96897321Y-98651561D01*
X97013438Y-98767678D01*
X97013447Y-98767685D01*
X97154803Y-98851282D01*
X97154806Y-98851283D01*
X97312504Y-98897099D01*
X97312510Y-98897100D01*
X97349350Y-98899999D01*
X97349366Y-98900000D01*
X97990000Y-98900000D01*
X98490000Y-98900000D01*
X99130634Y-98900000D01*
X99130649Y-98899999D01*
X99167489Y-98897100D01*
X99167495Y-98897099D01*
X99325193Y-98851283D01*
X99325196Y-98851282D01*
X99466552Y-98767685D01*
X99466561Y-98767678D01*
X99582678Y-98651561D01*
X99582685Y-98651552D01*
X99666281Y-98510198D01*
X99712100Y-98352486D01*
X99712295Y-98350001D01*
X99712295Y-98350000D01*
X98490000Y-98350000D01*
X98490000Y-98900000D01*
X97990000Y-98900000D01*
X97990000Y-98350000D01*
X96767705Y-98350000D01*
X96767704Y-98350001D01*
X90596445Y-98350001D01*
X90728471Y-98217975D01*
X90751207Y-98195238D01*
X90673064Y-98138465D01*
X90466205Y-98033065D01*
X90245393Y-97961318D01*
X90016090Y-97925000D01*
X89783910Y-97925000D01*
X89554606Y-97961318D01*
X89333794Y-98033065D01*
X89126925Y-98138470D01*
X89048791Y-98195237D01*
X89048791Y-98195238D01*
X89652511Y-98798958D01*
X89592110Y-98823978D01*
X89485649Y-98895112D01*
X89395112Y-98985649D01*
X89323978Y-99092110D01*
X89298958Y-99152511D01*
X88695238Y-98548791D01*
X88695237Y-98548791D01*
X88638470Y-98626925D01*
X88533065Y-98833794D01*
X88461318Y-99054606D01*
X88425000Y-99283909D01*
X88425000Y-99516090D01*
X88461318Y-99745393D01*
X88533065Y-99966205D01*
X88638465Y-100173064D01*
X88695238Y-100251207D01*
X89298958Y-99647487D01*
X89323978Y-99707890D01*
X89395112Y-99814351D01*
X89485649Y-99904888D01*
X89592110Y-99976022D01*
X89652510Y-100001041D01*
X89048791Y-100604759D01*
X89048791Y-100604760D01*
X89126935Y-100661534D01*
X89271805Y-100735349D01*
X89322601Y-100783323D01*
X89339396Y-100851144D01*
X89316859Y-100917279D01*
X89262144Y-100960731D01*
X89229791Y-100969009D01*
X88241640Y-101083577D01*
X88172780Y-101071744D01*
X88121248Y-101024561D01*
X88103394Y-100957450D01*
X88132058Y-99753553D01*
X88197196Y-97017726D01*
X88218471Y-96951179D01*
X88272349Y-96906693D01*
X88317717Y-96896730D01*
X94582515Y-96722707D01*
X94642250Y-96736174D01*
X94652474Y-96741384D01*
X94803361Y-96790410D01*
X94839673Y-96802209D01*
X95034078Y-96833000D01*
X95034083Y-96833000D01*
X95230922Y-96833000D01*
X95363338Y-96812027D01*
X95382736Y-96810500D01*
X97054552Y-96810500D01*
X97082941Y-96813793D01*
X97131913Y-96825312D01*
X97174353Y-96835294D01*
X97235104Y-96869805D01*
X97267554Y-96931682D01*
X97261399Y-97001280D01*
X97218594Y-97056502D01*
X97152728Y-97079815D01*
X97145962Y-97080000D01*
X96767705Y-97080000D01*
X96767704Y-97080001D01*
X96767899Y-97082486D01*
X96813718Y-97240198D01*
X96897314Y-97381552D01*
X96902100Y-97387722D01*
X96899753Y-97389542D01*
X96926564Y-97438642D01*
X96921580Y-97508334D01*
X96900541Y-97541069D01*
X96902100Y-97542278D01*
X96897314Y-97548447D01*
X96813718Y-97689801D01*
X96767899Y-97847513D01*
X96767704Y-97849998D01*
X96767705Y-97850000D01*
X97990000Y-97850000D01*
X97990000Y-97080000D01*
X97982181Y-97072181D01*
X97948696Y-97010858D01*
X97953680Y-96941166D01*
X97995552Y-96885233D01*
X98061016Y-96860816D01*
X98069862Y-96860500D01*
X98410138Y-96860500D01*
X98477177Y-96880185D01*
X98522932Y-96932989D01*
X98532876Y-97002147D01*
X98503851Y-97065703D01*
X98497819Y-97072181D01*
X98490000Y-97080000D01*
X98490000Y-97850000D01*
X99712295Y-97850000D01*
X99712295Y-97849998D01*
X99712100Y-97847513D01*
X99666281Y-97689801D01*
X99582685Y-97548447D01*
X99577900Y-97542278D01*
X99580252Y-97540453D01*
X99553445Y-97491405D01*
X99558402Y-97421712D01*
X99579465Y-97388936D01*
X99577900Y-97387722D01*
X99582685Y-97381552D01*
X99666281Y-97240198D01*
X99712100Y-97082486D01*
X99712295Y-97080001D01*
X99712295Y-97080000D01*
X99334039Y-97080000D01*
X99267000Y-97060315D01*
X99221245Y-97007511D01*
X99211301Y-96938353D01*
X99240326Y-96874797D01*
X99299104Y-96837023D01*
X99305649Y-96835294D01*
X99432176Y-96805534D01*
X99432174Y-96805534D01*
X99432185Y-96805532D01*
X99627237Y-96719409D01*
X99723956Y-96653155D01*
X99787334Y-96632502D01*
X101088593Y-96612483D01*
X101155927Y-96631134D01*
G37*
%TD.AperFunction*%
%TD*%
%TA.AperFunction,Conductor*%
%TO.N,Current+*%
G36*
X91197309Y-92400111D02*
G01*
X91202669Y-92400341D01*
X91207890Y-92400676D01*
X94700000Y-92700000D01*
X98699997Y-92700000D01*
X98700000Y-92700000D01*
X99176232Y-92548813D01*
X99211043Y-92543031D01*
X99224927Y-92542729D01*
X99292379Y-92560951D01*
X99339271Y-92612745D01*
X99345234Y-92625084D01*
X99355968Y-92659058D01*
X99410000Y-92990002D01*
X99638972Y-93447946D01*
X99650102Y-93481437D01*
X99652105Y-93492567D01*
X99644606Y-93562033D01*
X99600741Y-93616417D01*
X99534437Y-93638453D01*
X99534422Y-93638453D01*
X99533876Y-93638473D01*
X99532368Y-93638526D01*
X99464895Y-93621334D01*
X99325199Y-93538718D01*
X99325196Y-93538717D01*
X99325165Y-93538707D01*
X99167505Y-93492902D01*
X99167501Y-93492901D01*
X99167495Y-93492900D01*
X99167489Y-93492899D01*
X99156963Y-93492070D01*
X99130654Y-93490000D01*
X99130649Y-93490000D01*
X98490000Y-93490000D01*
X98490000Y-94040000D01*
X99712294Y-94040000D01*
X99712295Y-94040000D01*
X99722972Y-94028449D01*
X99750366Y-94006210D01*
X99762283Y-93999082D01*
X99829918Y-93981561D01*
X99896281Y-94003381D01*
X99901129Y-94006721D01*
X99941690Y-94053380D01*
X99998588Y-94167177D01*
X100005103Y-94182786D01*
X100010502Y-94198697D01*
X100014833Y-94215054D01*
X100257703Y-95474016D01*
X100251074Y-95543570D01*
X100207892Y-95598499D01*
X100141869Y-95621363D01*
X100137856Y-95621489D01*
X99771885Y-95627120D01*
X99771846Y-95627122D01*
X99674629Y-95633338D01*
X99674614Y-95633340D01*
X99625732Y-95643947D01*
X99556043Y-95638925D01*
X99549364Y-95636206D01*
X99434895Y-95585664D01*
X99432515Y-95584545D01*
X99432095Y-95584446D01*
X99432004Y-95584424D01*
X99418282Y-95581184D01*
X99418179Y-95581173D01*
X99323003Y-95558787D01*
X99290162Y-95545908D01*
X99284851Y-95542892D01*
X99236276Y-95492670D01*
X99222564Y-95424159D01*
X99248068Y-95359111D01*
X99304691Y-95318177D01*
X99307733Y-95317100D01*
X99349093Y-95310000D01*
X99712295Y-95310000D01*
X99712295Y-95309996D01*
X99712294Y-95309995D01*
X99712100Y-95307513D01*
X99666281Y-95149801D01*
X99604114Y-95044682D01*
X99602945Y-95040076D01*
X99602147Y-95040513D01*
X99570907Y-94983354D01*
X99556025Y-94915139D01*
X99556151Y-94913357D01*
X99575526Y-94855065D01*
X99579465Y-94848936D01*
X99579464Y-94848935D01*
X99594702Y-94825225D01*
X99594969Y-94822928D01*
X99602391Y-94808230D01*
X99604124Y-94805300D01*
X99666281Y-94700198D01*
X99712100Y-94542486D01*
X99712295Y-94540001D01*
X99712295Y-94540000D01*
X98490000Y-94540000D01*
X98490000Y-95309999D01*
X98491491Y-95313600D01*
X98506360Y-95333461D01*
X98511781Y-95343388D01*
X98526635Y-95411661D01*
X98502221Y-95477126D01*
X98446289Y-95518999D01*
X98446285Y-95519001D01*
X98439097Y-95521682D01*
X98395763Y-95529500D01*
X98087692Y-95529500D01*
X98052757Y-95524477D01*
X98041903Y-95521290D01*
X97983125Y-95483516D01*
X97954100Y-95419960D01*
X97964040Y-95350811D01*
X97967230Y-95343824D01*
X97988940Y-95312557D01*
X97990000Y-95309999D01*
X97990000Y-94540000D01*
X96767705Y-94540000D01*
X96767703Y-94540000D01*
X96767898Y-94542480D01*
X96767898Y-94542483D01*
X96767899Y-94542486D01*
X96813718Y-94700198D01*
X96813719Y-94700199D01*
X96875875Y-94805300D01*
X96877049Y-94809928D01*
X96877876Y-94809477D01*
X96909115Y-94866688D01*
X96923966Y-94934961D01*
X96923966Y-94934963D01*
X96923837Y-94936766D01*
X96904468Y-94994957D01*
X96885296Y-95024787D01*
X96885032Y-95027068D01*
X96877611Y-95041763D01*
X96813719Y-95149799D01*
X96767899Y-95307514D01*
X96767898Y-95307519D01*
X96767703Y-95309996D01*
X96767704Y-95309999D01*
X96767705Y-95310000D01*
X97128132Y-95310000D01*
X97163049Y-95315018D01*
X97166924Y-95316155D01*
X97168910Y-95316738D01*
X97227694Y-95354503D01*
X97256728Y-95418055D01*
X97246795Y-95487215D01*
X97201048Y-95540025D01*
X97201035Y-95540034D01*
X97198351Y-95541759D01*
X97159702Y-95558151D01*
X97146833Y-95561178D01*
X97131913Y-95564687D01*
X97108795Y-95570124D01*
X97089921Y-95574564D01*
X97075822Y-95577032D01*
X97061671Y-95578674D01*
X97047379Y-95579500D01*
X96211573Y-95579500D01*
X96017176Y-95610289D01*
X95829971Y-95671116D01*
X95654594Y-95760475D01*
X95625908Y-95781318D01*
X95560101Y-95804798D01*
X95553022Y-95805000D01*
X95382726Y-95805000D01*
X95303845Y-95808099D01*
X95284416Y-95809628D01*
X95206041Y-95818906D01*
X95169028Y-95824769D01*
X95161426Y-95825973D01*
X95142030Y-95827500D01*
X95122967Y-95827500D01*
X95103570Y-95825973D01*
X95084771Y-95822995D01*
X95065856Y-95818454D01*
X95018076Y-95802930D01*
X94936787Y-95776517D01*
X94936565Y-95776559D01*
X94909606Y-95770766D01*
X94863394Y-95755294D01*
X94863373Y-95755289D01*
X94803659Y-95741826D01*
X94757501Y-95732550D01*
X94757497Y-95732549D01*
X94757494Y-95732549D01*
X94581406Y-95719571D01*
X94554596Y-95717595D01*
X94554595Y-95717595D01*
X94466612Y-95720038D01*
X91428387Y-95804433D01*
X91360827Y-95786618D01*
X91313623Y-95735105D01*
X91301763Y-95666249D01*
X91316379Y-95621713D01*
X91316221Y-95621639D01*
X91316833Y-95620330D01*
X91317287Y-95618950D01*
X91318339Y-95617106D01*
X91318350Y-95617093D01*
X91318354Y-95617086D01*
X91368596Y-95482379D01*
X91368598Y-95482372D01*
X91370069Y-95468689D01*
X91374998Y-95422860D01*
X91375000Y-95422827D01*
X91375000Y-94650000D01*
X90664101Y-94650000D01*
X90597062Y-94630315D01*
X90551307Y-94577511D01*
X90541363Y-94508353D01*
X90542483Y-94501810D01*
X90550000Y-94464017D01*
X90550000Y-94335982D01*
X90542483Y-94298190D01*
X90548712Y-94228599D01*
X90591575Y-94173422D01*
X90657465Y-94150178D01*
X90664101Y-94150000D01*
X91375000Y-94150000D01*
X91375000Y-94039996D01*
X96767703Y-94039996D01*
X96767704Y-94039999D01*
X96767705Y-94040000D01*
X97990000Y-94040000D01*
X97990000Y-93490000D01*
X97349344Y-93490000D01*
X97317772Y-93492484D01*
X97312510Y-93492899D01*
X97312504Y-93492900D01*
X97312497Y-93492901D01*
X97312493Y-93492902D01*
X97154833Y-93538707D01*
X97154802Y-93538717D01*
X97154799Y-93538718D01*
X97013452Y-93622310D01*
X97013447Y-93622313D01*
X97013436Y-93622322D01*
X96897321Y-93738437D01*
X96897312Y-93738449D01*
X96875709Y-93774979D01*
X96813718Y-93879801D01*
X96767899Y-94037513D01*
X96767899Y-94037514D01*
X96767898Y-94037519D01*
X96767703Y-94039996D01*
X91375000Y-94039996D01*
X91375000Y-93377172D01*
X91374998Y-93377138D01*
X91368598Y-93317628D01*
X91368596Y-93317621D01*
X91368596Y-93317620D01*
X91318354Y-93182913D01*
X91318350Y-93182906D01*
X91232190Y-93067812D01*
X91232187Y-93067809D01*
X91232185Y-93067807D01*
X91128251Y-92990002D01*
X91117093Y-92981649D01*
X91117086Y-92981645D01*
X91026181Y-92947740D01*
X90982377Y-92931402D01*
X90982370Y-92931400D01*
X90922852Y-92925000D01*
X90922844Y-92925000D01*
X90150000Y-92925000D01*
X90150000Y-93635899D01*
X90130315Y-93702938D01*
X90077511Y-93748693D01*
X90008353Y-93758637D01*
X90001810Y-93757517D01*
X89996541Y-93756469D01*
X89964019Y-93750000D01*
X89964018Y-93750000D01*
X89835982Y-93750000D01*
X89835981Y-93750000D01*
X89798190Y-93757517D01*
X89728599Y-93751288D01*
X89673422Y-93708425D01*
X89650178Y-93642535D01*
X89650000Y-93635899D01*
X89650000Y-92925000D01*
X88877155Y-92925000D01*
X88877146Y-92925000D01*
X88817628Y-92931400D01*
X88817621Y-92931402D01*
X88682910Y-92981646D01*
X88682907Y-92981648D01*
X88567813Y-93067807D01*
X88567807Y-93067813D01*
X88481648Y-93182907D01*
X88481646Y-93182910D01*
X88431402Y-93317621D01*
X88431400Y-93317628D01*
X88425000Y-93377146D01*
X88425000Y-93377155D01*
X88425000Y-94150000D01*
X89135899Y-94150000D01*
X89202938Y-94169685D01*
X89248693Y-94222489D01*
X89258637Y-94291647D01*
X89257517Y-94298190D01*
X89250000Y-94335982D01*
X89250000Y-94464017D01*
X89257517Y-94501810D01*
X89251288Y-94571401D01*
X89208425Y-94626578D01*
X89142535Y-94649822D01*
X89135899Y-94650000D01*
X88425000Y-94650000D01*
X88425000Y-95422852D01*
X88431400Y-95482370D01*
X88431402Y-95482377D01*
X88435241Y-95492670D01*
X88481645Y-95617086D01*
X88481649Y-95617093D01*
X88522091Y-95671116D01*
X88535620Y-95689188D01*
X88560037Y-95754652D01*
X88545186Y-95822925D01*
X88495781Y-95872331D01*
X88439796Y-95887451D01*
X88289812Y-95891617D01*
X88289803Y-95891617D01*
X88289797Y-95891618D01*
X88102044Y-95914632D01*
X88102038Y-95914633D01*
X88102032Y-95914634D01*
X88056685Y-95924592D01*
X87989804Y-95941706D01*
X87989801Y-95941707D01*
X87801330Y-96018339D01*
X87633040Y-96130741D01*
X87566359Y-96151607D01*
X87498982Y-96133109D01*
X87452302Y-96081121D01*
X87441139Y-96012149D01*
X87441401Y-96010190D01*
X87460547Y-95876174D01*
X87600000Y-94900000D01*
X87600000Y-92997674D01*
X87605023Y-92962738D01*
X87609427Y-92947740D01*
X87647197Y-92888967D01*
X87650921Y-92885739D01*
X87658931Y-92878799D01*
X87688818Y-92859628D01*
X88663466Y-92416606D01*
X88688515Y-92408305D01*
X88713888Y-92402809D01*
X88740134Y-92400000D01*
X91192038Y-92400000D01*
X91197309Y-92400111D01*
G37*
%TD.AperFunction*%
%TD*%
M02*
