M48
; DRILL file KiCad 10.0.6 date 2026-09-12T14:25:19
; FORMAT={-:-/ absolute / metric / decimal}
; #@! TF.CreationDate,2026-09-12T14:25:19-04:00
; #@! TF.GenerationSoftware,Kicad,Pcbnew,10.0.6
; #@! TF.FileFunction,Plated,1,2,PTH
FMAT,2
METRIC
; #@! TA.AperFunction,Plated,PTH,ComponentDrill
T1C0.800
; #@! TA.AperFunction,Plated,PTH,ComponentDrill
T2C0.900
; #@! TA.AperFunction,Plated,PTH,ComponentDrill
T3C1.200
; #@! TA.AperFunction,Plated,PTH,ComponentDrill
T4C1.300
%
G90
G05
T1
X102.821Y-88.093
X102.821Y-95.713
X105.361Y-88.093
X105.361Y-95.713
X107.901Y-88.093
X107.901Y-95.713
X110.441Y-88.093
X110.441Y-95.713
T2
X108.228Y-81.59
X108.228Y-84.13
T3
X90.976Y-85.213
X90.976Y-97.913
X92.169Y-103.004
X96.836Y-85.153
X96.836Y-97.853
X104.869Y-103.004
X109.891Y-102.996
X122.591Y-102.996
T4
X128.74Y-90.64
X128.74Y-95.64
X128.75Y-79.28
X128.75Y-84.28
M30
