%TF.GenerationSoftware,KiCad,Pcbnew,10.0.6*%
%TF.CreationDate,2026-09-12T20:13:12-04:00*%
%TF.ProjectId,onboad,6f6e626f-6164-42e6-9b69-6361645f7063,rev?*%
%TF.SameCoordinates,Original*%
%TF.FileFunction,Copper,L1,Top*%
%TF.FilePolarity,Positive*%
%FSLAX46Y46*%
G04 Gerber Fmt 4.6, Leading zero omitted, Abs format (unit mm)*
G04 Created by KiCad (PCBNEW 10.0.6) date 2026-09-12 20:13:12*
%MOMM*%
%LPD*%
G01*
G04 APERTURE LIST*
G04 Aperture macros list*
%AMRoundRect*
0 Rectangle with rounded corners*
0 $1 Rounding radius*
0 $2 $3 $4 $5 $6 $7 $8 $9 X,Y pos of 4 corners*
0 Add a 4 corners polygon primitive as box body*
4,1,4,$2,$3,$4,$5,$6,$7,$8,$9,$2,$3,0*
0 Add four circle primitives for the rounded corners*
1,1,$1+$1,$2,$3*
1,1,$1+$1,$4,$5*
1,1,$1+$1,$6,$7*
1,1,$1+$1,$8,$9*
0 Add four rect primitives between the rounded corners*
20,1,$1+$1,$2,$3,$4,$5,0*
20,1,$1+$1,$4,$5,$6,$7,0*
20,1,$1+$1,$6,$7,$8,$9,0*
20,1,$1+$1,$8,$9,$2,$3,0*%
G04 Aperture macros list end*
%TA.AperFunction,SMDPad,CuDef*%
%ADD10RoundRect,0.250000X0.475000X-0.250000X0.475000X0.250000X-0.475000X0.250000X-0.475000X-0.250000X0*%
%TD*%
%TA.AperFunction,SMDPad,CuDef*%
%ADD11RoundRect,0.150000X0.825000X0.150000X-0.825000X0.150000X-0.825000X-0.150000X0.825000X-0.150000X0*%
%TD*%
%TA.AperFunction,ComponentPad*%
%ADD12RoundRect,0.250000X0.550000X-0.550000X0.550000X0.550000X-0.550000X0.550000X-0.550000X-0.550000X0*%
%TD*%
%TA.AperFunction,ComponentPad*%
%ADD13C,1.600000*%
%TD*%
%TA.AperFunction,ComponentPad*%
%ADD14C,2.400000*%
%TD*%
%TA.AperFunction,ComponentPad*%
%ADD15R,1.950000X1.950000*%
%TD*%
%TA.AperFunction,ComponentPad*%
%ADD16C,1.950000*%
%TD*%
%TA.AperFunction,ComponentPad*%
%ADD17R,1.800000X1.800000*%
%TD*%
%TA.AperFunction,ComponentPad*%
%ADD18C,1.800000*%
%TD*%
%TA.AperFunction,Conductor*%
%ADD19C,0.500000*%
%TD*%
G04 APERTURE END LIST*
D10*
%TO.P,C2,1*%
%TO.N,GND*%
X110590900Y-93836070D03*
%TO.P,C2,2*%
%TO.N,+3V3*%
X110590900Y-91936070D03*
%TD*%
%TO.P,C1,1*%
%TO.N,GND*%
X116632608Y-100103682D03*
%TO.P,C1,2*%
%TO.N,+3V3*%
X116632608Y-98203682D03*
%TD*%
D11*
%TO.P,U1,1,IP+_1*%
%TO.N,Current+*%
X121549549Y-94952770D03*
%TO.P,U1,2,IP+_2*%
X121549549Y-93682770D03*
%TO.P,U1,3,IP-_3*%
%TO.N,Current-*%
X121549549Y-92412770D03*
%TO.P,U1,4,IP-_4*%
X121549549Y-91142770D03*
%TO.P,U1,5,GND_5*%
%TO.N,GND*%
X116599549Y-91142770D03*
%TO.P,U1,6,~{FAULT}_6*%
%TO.N,unconnected-(U1-~{FAULT}-Pad6)*%
X116599549Y-92412770D03*
%TO.P,U1,7,VIOUT_7*%
%TO.N,Net-(U1-VIOUT)*%
X116599549Y-93682770D03*
%TO.P,U1,8,VCC_8*%
%TO.N,+3V3*%
X116599549Y-94952770D03*
%TD*%
D12*
%TO.P,U2,1,NC_1*%
%TO.N,unconnected-(U2-NC-Pad1)*%
X106552836Y-95657543D03*
D13*
%TO.P,U2,2,VIN-_2*%
%TO.N,Net-(U1-VIOUT)*%
X104012836Y-95657543D03*
%TO.P,U2,3,VIN+_3*%
%TO.N,Net-(U2-VIN+)*%
X101472836Y-95657543D03*
%TO.P,U2,4,VSS_4*%
%TO.N,GND*%
X98932836Y-95657543D03*
%TO.P,U2,5,NC_5*%
%TO.N,unconnected-(U2-NC-Pad5)*%
X98932836Y-88037543D03*
%TO.P,U2,6,OUT_6*%
%TO.N,Net-(D1-K)*%
X101472836Y-88037543D03*
%TO.P,U2,7,VDD_7*%
%TO.N,+3V3*%
X104012836Y-88037543D03*
%TO.P,U2,8,NC_8*%
%TO.N,unconnected-(U2-NC-Pad8)*%
X106552836Y-88037543D03*
%TD*%
D14*
%TO.P,R2,1*%
%TO.N,Net-(U2-VIN+)*%
X105692597Y-103984259D03*
%TO.P,R2,2*%
%TO.N,GND*%
X118392597Y-103984259D03*
%TD*%
%TO.P,R4,1*%
%TO.N,Net-(D1-K)*%
X92947877Y-85097300D03*
%TO.P,R4,2*%
%TO.N,+3V3*%
X92947877Y-97797300D03*
%TD*%
D15*
%TO.P,J1,1,Pin_1_1*%
%TO.N,+3V3*%
X128770662Y-82092729D03*
D16*
%TO.P,J1,2,Pin_2_2*%
%TO.N,GND*%
X128770662Y-77092729D03*
%TD*%
D14*
%TO.P,R3,1*%
%TO.N,Net-(D1-A)*%
X87087877Y-85157300D03*
%TO.P,R3,2*%
%TO.N,+3V3*%
X87087877Y-97857300D03*
%TD*%
D17*
%TO.P,D1,1,K_1*%
%TO.N,Net-(D1-K)*%
X104339882Y-84074791D03*
D18*
%TO.P,D1,2,A_2*%
%TO.N,Net-(D1-A)*%
X104339882Y-81534791D03*
%TD*%
D15*
%TO.P,J2,1,Pin_1_1*%
%TO.N,Current+*%
X128740000Y-95640000D03*
D16*
%TO.P,J2,2,Pin_2_2*%
%TO.N,Current-*%
X128740000Y-90640000D03*
%TD*%
D14*
%TO.P,R1,1*%
%TO.N,+3V3*%
X87970024Y-103992383D03*
%TO.P,R1,2*%
%TO.N,Net-(U2-VIN+)*%
X100670024Y-103992383D03*
%TD*%
%TO.N,+3V3*%
D19*
X108463731Y-89862324D02*
X111430120Y-89862324D01*
X87970024Y-103992383D02*
X89920024Y-105942383D01*
X90602739Y-78884721D02*
X115991707Y-78884721D01*
X110590900Y-91936070D02*
X111430120Y-91096850D01*
X87147877Y-97797300D02*
X87087877Y-97857300D01*
X85137877Y-84349583D02*
X90602739Y-78884721D01*
X115991707Y-78884721D02*
X119199715Y-82092729D01*
X119199715Y-82092729D02*
X111430120Y-89862324D01*
X128770662Y-82092729D02*
X119199715Y-82092729D01*
X89920024Y-105942383D02*
X108168907Y-105942383D01*
X87087877Y-97857300D02*
X85137877Y-95907300D01*
X85137877Y-95907300D02*
X85137877Y-84349583D01*
X92947877Y-97797300D02*
X87147877Y-97797300D01*
X104012836Y-88037543D02*
X105837617Y-89862324D01*
X105837617Y-89862324D02*
X108463731Y-89862324D01*
X116632608Y-94985829D02*
X116599549Y-94952770D01*
X111430120Y-91096850D02*
X111430120Y-89862324D01*
X88280850Y-99050273D02*
X87087877Y-97857300D01*
X116632608Y-98203682D02*
X116632608Y-94985829D01*
X88280850Y-102948846D02*
X88280850Y-99050273D01*
X115907608Y-98203682D02*
X116632608Y-98203682D01*
X108168907Y-105942383D02*
X115907608Y-98203682D01*
%TO.N,Net-(U1-VIOUT)*%
X112092828Y-97207543D02*
X115617601Y-93682770D01*
X115617601Y-93682770D02*
X116599549Y-93682770D01*
X105562836Y-97207543D02*
X112092828Y-97207543D01*
X104012836Y-95657543D02*
X105562836Y-97207543D01*
%TO.N,Net-(U2-VIN+)*%
X100670024Y-96460355D02*
X101472836Y-95657543D01*
X100670024Y-103992383D02*
X100670024Y-96460355D01*
X100670024Y-103992383D02*
X105684473Y-103992383D01*
%TO.N,Net-(D1-K)*%
X99555102Y-84074791D02*
X98532593Y-85097300D01*
X104339882Y-84074791D02*
X99555102Y-84074791D01*
X98532593Y-85097300D02*
X92947877Y-85097300D01*
X101472836Y-88037543D02*
X98532593Y-85097300D01*
%TO.N,Net-(D1-A)*%
X104339882Y-81534791D02*
X90710386Y-81534791D01*
X90710386Y-81534791D02*
X87087877Y-85157300D01*
%TD*%
%TA.AperFunction,Conductor*%
%TO.N,Current-*%
G36*
X131540500Y-88849532D02*
G01*
X131555551Y-88853753D01*
X131614785Y-88890808D01*
X131614798Y-88890823D01*
X131616238Y-88892445D01*
X131644188Y-88946262D01*
X131645825Y-88953192D01*
X131649113Y-88978835D01*
X131720855Y-92084258D01*
X131702724Y-92151734D01*
X131650991Y-92198697D01*
X131596239Y-92211120D01*
X123421801Y-92168339D01*
X123421776Y-92168340D01*
X123232388Y-92186544D01*
X123219835Y-92187751D01*
X123219828Y-92187752D01*
X123196189Y-92192467D01*
X123171010Y-92197490D01*
X123171005Y-92197491D01*
X123170986Y-92197495D01*
X123090568Y-92217010D01*
X122901679Y-92292581D01*
X122797964Y-92361015D01*
X122756430Y-92388421D01*
X122742658Y-92397508D01*
X122675861Y-92417999D01*
X122645976Y-92414714D01*
X122534188Y-92388421D01*
X122534168Y-92388419D01*
X122445569Y-92382270D01*
X122445565Y-92382270D01*
X122445561Y-92382270D01*
X120653537Y-92382270D01*
X120653533Y-92382270D01*
X120653530Y-92382270D01*
X120564928Y-92388419D01*
X120564908Y-92388421D01*
X120466501Y-92411567D01*
X120396735Y-92407754D01*
X120368622Y-92393561D01*
X120361025Y-92388421D01*
X120213710Y-92288744D01*
X120025707Y-92210984D01*
X120016278Y-92208161D01*
X119958768Y-92190946D01*
X119878004Y-92170377D01*
X119877987Y-92170374D01*
X119675701Y-92148734D01*
X119675705Y-92148734D01*
X119011557Y-92145259D01*
X119009700Y-92145265D01*
X118942603Y-92125778D01*
X118896693Y-92073108D01*
X118885336Y-92021266D01*
X118885336Y-88999897D01*
X118890359Y-88964961D01*
X118894763Y-88949963D01*
X118932526Y-88891196D01*
X118933764Y-88890123D01*
X118988926Y-88862594D01*
X118992843Y-88861752D01*
X118996784Y-88860905D01*
X119023476Y-88858140D01*
X122663242Y-88877241D01*
X126999478Y-88899997D01*
X127000459Y-88900008D01*
X127001094Y-88900006D01*
X127001303Y-88900007D01*
X127002413Y-88899970D01*
X131505512Y-88844936D01*
X131540500Y-88849532D01*
G37*
%TD.AperFunction*%
%TD*%
%TA.AperFunction,Conductor*%
%TO.N,GND*%
G36*
X135960469Y-71756966D02*
G01*
X135975467Y-71761370D01*
X136034218Y-71799115D01*
X136035405Y-71800484D01*
X136062881Y-71855345D01*
X136064526Y-71862903D01*
X136067363Y-71889274D01*
X136067363Y-108752895D01*
X136062338Y-108787839D01*
X136057933Y-108802837D01*
X136020190Y-108861580D01*
X136018821Y-108862767D01*
X135963960Y-108890243D01*
X135956402Y-108891888D01*
X135930031Y-108894725D01*
X80683615Y-108894725D01*
X80648674Y-108889700D01*
X80633675Y-108885295D01*
X80574929Y-108847552D01*
X80573742Y-108846183D01*
X80546262Y-108791308D01*
X80544617Y-108783746D01*
X80541785Y-108757393D01*
X80541785Y-84251160D01*
X83887377Y-84251160D01*
X83887377Y-96005727D01*
X83911269Y-96156574D01*
X83918167Y-96200126D01*
X83933920Y-96248608D01*
X83978993Y-96387328D01*
X83978996Y-96387335D01*
X84035529Y-96498284D01*
X84035529Y-96498286D01*
X84035530Y-96498286D01*
X84068353Y-96562705D01*
X84184049Y-96721946D01*
X84184051Y-96721948D01*
X84865010Y-97402907D01*
X84886162Y-97431162D01*
X84897247Y-97451463D01*
X84912305Y-97505702D01*
X84912428Y-97508640D01*
X84911476Y-97530012D01*
X84887377Y-97713070D01*
X84887377Y-98001515D01*
X84887378Y-98001544D01*
X84925025Y-98287501D01*
X84925029Y-98287521D01*
X84983608Y-98506143D01*
X84999682Y-98566131D01*
X84999694Y-98566168D01*
X85110070Y-98832642D01*
X85110072Y-98832645D01*
X85110075Y-98832650D01*
X85253603Y-99081247D01*
X85254297Y-99082448D01*
X85254308Y-99082464D01*
X85271417Y-99104761D01*
X85429894Y-99311294D01*
X85429898Y-99311299D01*
X85429901Y-99311302D01*
X85429907Y-99311309D01*
X85633867Y-99515269D01*
X85633874Y-99515275D01*
X85633877Y-99515277D01*
X85633881Y-99515281D01*
X85647065Y-99525397D01*
X85738067Y-99595225D01*
X85784532Y-99630879D01*
X85862728Y-99690880D01*
X85862954Y-99691010D01*
X85980946Y-99759133D01*
X86112524Y-99835100D01*
X86112540Y-99835108D01*
X86232124Y-99884641D01*
X86374974Y-99943811D01*
X86376792Y-99944641D01*
X86377277Y-99944825D01*
X86378847Y-99945448D01*
X86380131Y-99945804D01*
X86383289Y-99946708D01*
X86384790Y-99947034D01*
X86415483Y-99955258D01*
X86657660Y-100020149D01*
X86904865Y-100052693D01*
X86938833Y-100062229D01*
X86953138Y-100068557D01*
X87006480Y-100113680D01*
X87006489Y-100113694D01*
X87009846Y-100118785D01*
X87028847Y-100167952D01*
X87028871Y-100168106D01*
X87030350Y-100187200D01*
X87030350Y-101904562D01*
X87025326Y-101939500D01*
X87020024Y-101957555D01*
X86986621Y-102012357D01*
X86979082Y-102019546D01*
X86955509Y-102037193D01*
X86744872Y-102158805D01*
X86744854Y-102158817D01*
X86744852Y-102158818D01*
X86516028Y-102334400D01*
X86516013Y-102334414D01*
X86516005Y-102334421D01*
X86312062Y-102538364D01*
X86312055Y-102538372D01*
X86312041Y-102538387D01*
X86136463Y-102767207D01*
X86136453Y-102767221D01*
X86136441Y-102767238D01*
X85992222Y-103017031D01*
X85992219Y-103017036D01*
X85992217Y-103017039D01*
X85881841Y-103283513D01*
X85881839Y-103283519D01*
X85881838Y-103283522D01*
X85881833Y-103283538D01*
X85874106Y-103312377D01*
X85807177Y-103562155D01*
X85807174Y-103562172D01*
X85807171Y-103562185D01*
X85769525Y-103848137D01*
X85769524Y-103848166D01*
X85769524Y-104136598D01*
X85769525Y-104136627D01*
X85807172Y-104422584D01*
X85807173Y-104422589D01*
X85807174Y-104422594D01*
X85807175Y-104422600D01*
X85877983Y-104686860D01*
X85879095Y-104691008D01*
X85879095Y-104691009D01*
X85881829Y-104701214D01*
X85881840Y-104701248D01*
X85992217Y-104967725D01*
X85992219Y-104967728D01*
X85992223Y-104967735D01*
X86136444Y-105217531D01*
X86136455Y-105217547D01*
X86136463Y-105217557D01*
X86312041Y-105446377D01*
X86312045Y-105446382D01*
X86312048Y-105446385D01*
X86312054Y-105446392D01*
X86312062Y-105446400D01*
X86516000Y-105650339D01*
X86516014Y-105650352D01*
X86516020Y-105650357D01*
X86560199Y-105684257D01*
X86744875Y-105825963D01*
X86745101Y-105826093D01*
X86863093Y-105894216D01*
X86994671Y-105970183D01*
X86994687Y-105970191D01*
X87127596Y-106025243D01*
X87257121Y-106078894D01*
X87258939Y-106079724D01*
X87259424Y-106079908D01*
X87260994Y-106080531D01*
X87262278Y-106080887D01*
X87265436Y-106081791D01*
X87266937Y-106082117D01*
X87297630Y-106090341D01*
X87539807Y-106155232D01*
X87825796Y-106192883D01*
X87825803Y-106192883D01*
X88114252Y-106192883D01*
X88114253Y-106192883D01*
X88226178Y-106178147D01*
X88290268Y-106169709D01*
X88325559Y-106170129D01*
X88348407Y-106173692D01*
X88400619Y-106194773D01*
X88403027Y-106196466D01*
X88419390Y-106210223D01*
X88966195Y-106757028D01*
X88966196Y-106757029D01*
X89105378Y-106896211D01*
X89264619Y-107011907D01*
X89439995Y-107101265D01*
X89440003Y-107101269D01*
X89524247Y-107128641D01*
X89561743Y-107140823D01*
X89570866Y-107144189D01*
X89578532Y-107147364D01*
X89585049Y-107148397D01*
X89602257Y-107153988D01*
X89627197Y-107162092D01*
X89674916Y-107169649D01*
X89699939Y-107173613D01*
X89700038Y-107173628D01*
X89700100Y-107173638D01*
X89821602Y-107192883D01*
X89821607Y-107192883D01*
X108267328Y-107192883D01*
X108267329Y-107192883D01*
X108461733Y-107162092D01*
X108522563Y-107142327D01*
X108522564Y-107142327D01*
X108648928Y-107101269D01*
X108648930Y-107101267D01*
X108648933Y-107101267D01*
X108824312Y-107011907D01*
X108983553Y-106896211D01*
X112006930Y-103872833D01*
X116692597Y-103872833D01*
X116692597Y-104095683D01*
X116721680Y-104316603D01*
X116721683Y-104316616D01*
X116721688Y-104316641D01*
X116775796Y-104518575D01*
X116779360Y-104531877D01*
X116821677Y-104634036D01*
X116864644Y-104737767D01*
X116864655Y-104737786D01*
X116976063Y-104930753D01*
X116976075Y-104930770D01*
X117026636Y-104996661D01*
X117026637Y-104996662D01*
X117026640Y-104996662D01*
X117709691Y-104313610D01*
X117771012Y-104280127D01*
X117840703Y-104285111D01*
X117896637Y-104326982D01*
X117904754Y-104339290D01*
X117912478Y-104352667D01*
X118024189Y-104464378D01*
X118037561Y-104472098D01*
X118085776Y-104522666D01*
X118098998Y-104591273D01*
X118073030Y-104656138D01*
X118063241Y-104667166D01*
X117380192Y-105350213D01*
X117380192Y-105350216D01*
X117446102Y-105400791D01*
X117446104Y-105400792D01*
X117639082Y-105512208D01*
X117639094Y-105512213D01*
X117844978Y-105597495D01*
X117991154Y-105636662D01*
X118060213Y-105655166D01*
X118060217Y-105655166D01*
X118060229Y-105655170D01*
X118060242Y-105655173D01*
X118281172Y-105684259D01*
X118504015Y-105684259D01*
X118504022Y-105684259D01*
X118724951Y-105655173D01*
X118724964Y-105655170D01*
X118940215Y-105597495D01*
X119146099Y-105512213D01*
X119146111Y-105512208D01*
X119339095Y-105400789D01*
X119405000Y-105350216D01*
X119405001Y-105350215D01*
X119405000Y-105350214D01*
X119405001Y-105350214D01*
X118721951Y-104667166D01*
X118688466Y-104605843D01*
X118693450Y-104536152D01*
X118735321Y-104480218D01*
X118747619Y-104472105D01*
X118761005Y-104464378D01*
X118872716Y-104352667D01*
X118880436Y-104339294D01*
X118930999Y-104291080D01*
X118999606Y-104277855D01*
X119064472Y-104303821D01*
X119075504Y-104313613D01*
X119758552Y-104996663D01*
X119758552Y-104996662D01*
X119758553Y-104996663D01*
X119758554Y-104996662D01*
X119809127Y-104930757D01*
X119920546Y-104737773D01*
X119920551Y-104737761D01*
X120005833Y-104531877D01*
X120063508Y-104316626D01*
X120063511Y-104316613D01*
X120092597Y-104095683D01*
X120092597Y-103872834D01*
X120063511Y-103651904D01*
X120063508Y-103651891D01*
X120057433Y-103629220D01*
X120037289Y-103554039D01*
X120005833Y-103436640D01*
X119920551Y-103230756D01*
X119920546Y-103230744D01*
X119809130Y-103037766D01*
X119809129Y-103037764D01*
X119758554Y-102971854D01*
X119758553Y-102971854D01*
X119758552Y-102971854D01*
X119758551Y-102971854D01*
X119075503Y-103654902D01*
X119014180Y-103688387D01*
X118944488Y-103683403D01*
X118888555Y-103641531D01*
X118880435Y-103629220D01*
X118872719Y-103615857D01*
X118872716Y-103615851D01*
X118761005Y-103504140D01*
X118754183Y-103500201D01*
X118747629Y-103496417D01*
X118699414Y-103445849D01*
X118686193Y-103377242D01*
X118712162Y-103312377D01*
X118721940Y-103301360D01*
X119405000Y-102618302D01*
X119405000Y-102618299D01*
X119339101Y-102567732D01*
X119339088Y-102567723D01*
X119146117Y-102456313D01*
X119146105Y-102456306D01*
X119050552Y-102416726D01*
X118940215Y-102371022D01*
X118940208Y-102371020D01*
X118724979Y-102313350D01*
X118724964Y-102313347D01*
X118724951Y-102313344D01*
X118724947Y-102313343D01*
X118724941Y-102313342D01*
X118504023Y-102284259D01*
X118504022Y-102284259D01*
X118281172Y-102284259D01*
X118281171Y-102284259D01*
X118060251Y-102313342D01*
X118060238Y-102313345D01*
X118060213Y-102313350D01*
X117844984Y-102371020D01*
X117844980Y-102371021D01*
X117844978Y-102371022D01*
X117844976Y-102371023D01*
X117639087Y-102456306D01*
X117639068Y-102456317D01*
X117446105Y-102567722D01*
X117380192Y-102618299D01*
X117380192Y-102618302D01*
X118063242Y-103301351D01*
X118096727Y-103362674D01*
X118091743Y-103432365D01*
X118049871Y-103488299D01*
X118037564Y-103496418D01*
X118024189Y-103504140D01*
X118024186Y-103504142D01*
X117912480Y-103615848D01*
X117912478Y-103615851D01*
X117904756Y-103629226D01*
X117854187Y-103677440D01*
X117785580Y-103690661D01*
X117720716Y-103664692D01*
X117709689Y-103654904D01*
X117026640Y-102971854D01*
X117026637Y-102971854D01*
X116976060Y-103037767D01*
X116864655Y-103230730D01*
X116864644Y-103230749D01*
X116779361Y-103436638D01*
X116779358Y-103436646D01*
X116721688Y-103651875D01*
X116721683Y-103651900D01*
X116721680Y-103651913D01*
X116692597Y-103872833D01*
X112006930Y-103872833D01*
X115252217Y-100627544D01*
X115280470Y-100606395D01*
X115292649Y-100599745D01*
X115360922Y-100584894D01*
X115426384Y-100609311D01*
X115426395Y-100609319D01*
X115429221Y-100611435D01*
X115464796Y-100653259D01*
X115465551Y-100654704D01*
X115472278Y-100670581D01*
X115472400Y-100670536D01*
X115473243Y-100672783D01*
X115473248Y-100672798D01*
X115473251Y-100672806D01*
X115473252Y-100672807D01*
X115473256Y-100672815D01*
X115565289Y-100822023D01*
X115565292Y-100822027D01*
X115689262Y-100945997D01*
X115838483Y-101038038D01*
X115838488Y-101038040D01*
X116004907Y-101093186D01*
X116004908Y-101093186D01*
X116004910Y-101093187D01*
X116004917Y-101093188D01*
X116107627Y-101103681D01*
X116382607Y-101103681D01*
X116882608Y-101103681D01*
X117157568Y-101103681D01*
X117157580Y-101103681D01*
X117157594Y-101103680D01*
X117260305Y-101093187D01*
X117426727Y-101038040D01*
X117426732Y-101038038D01*
X117575953Y-100945997D01*
X117699923Y-100822027D01*
X117791964Y-100672806D01*
X117791966Y-100672801D01*
X117847113Y-100506379D01*
X117847114Y-100506372D01*
X117857607Y-100403668D01*
X117857608Y-100403655D01*
X117857608Y-100353682D01*
X116882608Y-100353682D01*
X116882608Y-101103681D01*
X116382607Y-101103681D01*
X116382608Y-101103680D01*
X116382608Y-100245511D01*
X116387631Y-100210575D01*
X116392035Y-100195577D01*
X116401677Y-100180568D01*
X116402293Y-100178472D01*
X116403942Y-100177042D01*
X116429780Y-100136826D01*
X116431149Y-100135639D01*
X116486028Y-100108159D01*
X116493587Y-100106515D01*
X116519940Y-100103682D01*
X116632608Y-100103682D01*
X116632608Y-99995511D01*
X116637631Y-99960575D01*
X116637757Y-99960148D01*
X116642035Y-99945576D01*
X116679780Y-99886826D01*
X116681149Y-99885639D01*
X116736028Y-99858159D01*
X116743587Y-99856515D01*
X116769940Y-99853682D01*
X117857607Y-99853682D01*
X117857607Y-99803714D01*
X117857607Y-99803710D01*
X117857606Y-99803695D01*
X117847114Y-99700986D01*
X117833784Y-99660760D01*
X117817675Y-99612147D01*
X117811454Y-99577411D01*
X117810916Y-99561786D01*
X117828281Y-99494114D01*
X117833162Y-99485912D01*
X117869100Y-99447402D01*
X117912262Y-99417501D01*
X118071427Y-99258336D01*
X118199615Y-99073308D01*
X118253280Y-98955158D01*
X118298924Y-98902266D01*
X118365923Y-98882444D01*
X118433003Y-98901992D01*
X118434493Y-98902960D01*
X118501756Y-98947365D01*
X118501761Y-98947368D01*
X118690636Y-99022984D01*
X118757795Y-99042257D01*
X118815082Y-99056155D01*
X118838790Y-99061907D01*
X118838791Y-99061907D01*
X118838795Y-99061908D01*
X119041324Y-99081248D01*
X132468051Y-98998862D01*
X132502331Y-98998067D01*
X132703745Y-98969358D01*
X132760210Y-98955365D01*
X132872483Y-98920460D01*
X133054671Y-98829909D01*
X133214901Y-98704538D01*
X133265290Y-98656136D01*
X133375434Y-98531209D01*
X133479744Y-98356535D01*
X133546758Y-98164439D01*
X133562980Y-98096479D01*
X133578956Y-98014672D01*
X133589135Y-97811477D01*
X133356825Y-93286040D01*
X133329983Y-93101276D01*
X133319208Y-93056713D01*
X133301448Y-92992620D01*
X133300635Y-92990723D01*
X133260623Y-92897322D01*
X133221334Y-92805608D01*
X133221332Y-92805605D01*
X133105220Y-92638557D01*
X133059744Y-92585515D01*
X132941232Y-92468481D01*
X132767524Y-92350947D01*
X132768968Y-92348812D01*
X132727344Y-92307655D01*
X132712106Y-92239467D01*
X132712206Y-92238064D01*
X132726087Y-92061035D01*
X132670522Y-89655828D01*
X132654346Y-88955640D01*
X132654345Y-88955624D01*
X132654345Y-88955612D01*
X132646448Y-88850955D01*
X132643160Y-88825312D01*
X132624394Y-88722035D01*
X132622757Y-88715105D01*
X132614071Y-88681668D01*
X132611545Y-88671942D01*
X132611540Y-88671928D01*
X132536525Y-88482837D01*
X132536526Y-88482837D01*
X132534150Y-88478263D01*
X132508571Y-88429010D01*
X132508570Y-88429009D01*
X132508558Y-88428985D01*
X132487156Y-88389921D01*
X132487153Y-88389915D01*
X132400869Y-88270245D01*
X132396294Y-88257272D01*
X132374608Y-88232250D01*
X132373639Y-88231184D01*
X132373671Y-88231154D01*
X132369862Y-88226796D01*
X132345993Y-88199911D01*
X132332365Y-88187948D01*
X132308730Y-88163160D01*
X132148058Y-88038371D01*
X132148052Y-88038367D01*
X132148048Y-88038364D01*
X132088814Y-88001309D01*
X132069706Y-87990430D01*
X132016395Y-87960078D01*
X131849561Y-87894454D01*
X131827065Y-87885605D01*
X131812014Y-87881384D01*
X131812010Y-87881383D01*
X131812006Y-87881382D01*
X131671465Y-87852597D01*
X131666578Y-87851955D01*
X131636469Y-87848000D01*
X131636464Y-87847999D01*
X131636465Y-87847999D01*
X131503547Y-87840122D01*
X131493224Y-87839511D01*
X131493223Y-87839511D01*
X126997517Y-87894454D01*
X126995351Y-87894461D01*
X122668519Y-87871755D01*
X119028761Y-87852653D01*
X119028725Y-87852654D01*
X118919882Y-87857991D01*
X118919876Y-87857991D01*
X118893185Y-87860756D01*
X118893178Y-87860756D01*
X118785496Y-87877854D01*
X118781790Y-87878650D01*
X118781783Y-87878653D01*
X118777621Y-87879547D01*
X118752573Y-87885570D01*
X118730228Y-87890943D01*
X118730225Y-87890943D01*
X118730221Y-87890945D01*
X118539943Y-87962902D01*
X118539923Y-87962911D01*
X118484781Y-87990430D01*
X118464256Y-88001304D01*
X118441640Y-88013285D01*
X118441637Y-88013286D01*
X118441635Y-88013288D01*
X118441627Y-88013293D01*
X118275220Y-88130288D01*
X118275197Y-88130306D01*
X118273970Y-88131370D01*
X118213910Y-88187948D01*
X118213354Y-88188472D01*
X118213350Y-88188476D01*
X118213350Y-88188477D01*
X118086618Y-88347624D01*
X118086608Y-88347638D01*
X118048866Y-88406374D01*
X118006771Y-88478261D01*
X117929998Y-88666662D01*
X117925592Y-88681668D01*
X117895093Y-88821862D01*
X117890070Y-88856800D01*
X117879836Y-88999894D01*
X117879836Y-90289468D01*
X117860151Y-90356507D01*
X117807347Y-90402262D01*
X117738189Y-90412206D01*
X117692716Y-90396201D01*
X117684745Y-90391487D01*
X117684714Y-90391477D01*
X117527054Y-90345672D01*
X117527050Y-90345671D01*
X117527044Y-90345670D01*
X117527038Y-90345669D01*
X117516512Y-90344840D01*
X117490203Y-90342770D01*
X117490198Y-90342770D01*
X116849549Y-90342770D01*
X116849549Y-90970440D01*
X116844524Y-91005384D01*
X116840119Y-91020382D01*
X116802376Y-91079125D01*
X116801007Y-91080312D01*
X116746146Y-91107788D01*
X116738588Y-91109433D01*
X116712217Y-91112270D01*
X116447241Y-91112270D01*
X116412306Y-91107247D01*
X116401452Y-91104060D01*
X116342674Y-91066286D01*
X116313649Y-91002730D01*
X116323589Y-90933581D01*
X116326779Y-90926594D01*
X116348489Y-90895327D01*
X116349549Y-90892769D01*
X116349549Y-90342770D01*
X115708899Y-90342770D01*
X115708893Y-90342770D01*
X115677321Y-90345254D01*
X115672059Y-90345669D01*
X115672053Y-90345670D01*
X115672046Y-90345671D01*
X115672042Y-90345672D01*
X115514382Y-90391477D01*
X115514351Y-90391487D01*
X115514348Y-90391488D01*
X115373001Y-90475080D01*
X115372996Y-90475083D01*
X115372985Y-90475092D01*
X115256870Y-90591207D01*
X115256861Y-90591219D01*
X115173268Y-90732569D01*
X115127448Y-90890284D01*
X115127447Y-90890289D01*
X115127252Y-90892766D01*
X115127253Y-90892769D01*
X115127254Y-90892770D01*
X115487680Y-90892770D01*
X115522597Y-90897788D01*
X115526472Y-90898925D01*
X115528458Y-90899508D01*
X115587242Y-90937273D01*
X115616276Y-91000825D01*
X115606343Y-91069985D01*
X115560596Y-91122795D01*
X115560593Y-91122797D01*
X115557908Y-91124523D01*
X115519246Y-91140922D01*
X115407378Y-91167233D01*
X115407369Y-91167235D01*
X115407365Y-91167237D01*
X115343883Y-91195266D01*
X115343884Y-91195267D01*
X115224191Y-91248115D01*
X115224187Y-91248118D01*
X115212310Y-91253362D01*
X115212309Y-91253362D01*
X115212306Y-91253364D01*
X115036408Y-91373857D01*
X115036395Y-91373868D01*
X115036387Y-91373875D01*
X114885654Y-91524608D01*
X114885647Y-91524616D01*
X114885636Y-91524629D01*
X114792935Y-91659957D01*
X114792934Y-91659956D01*
X114765141Y-91700529D01*
X114743695Y-91749103D01*
X114742304Y-91752253D01*
X114742301Y-91752260D01*
X114679014Y-91895590D01*
X114679011Y-91895603D01*
X114630200Y-92103129D01*
X114630198Y-92103149D01*
X114624049Y-92191751D01*
X114624049Y-92633788D01*
X114630197Y-92722376D01*
X114630200Y-92722406D01*
X114630200Y-92722407D01*
X114644444Y-92782966D01*
X114647553Y-92818126D01*
X114646470Y-92837933D01*
X114627531Y-92897322D01*
X114622895Y-92904671D01*
X114605700Y-92926193D01*
X111623780Y-95908116D01*
X111595529Y-95929265D01*
X111572441Y-95941873D01*
X111513011Y-95957043D01*
X108495166Y-95957043D01*
X108460225Y-95952018D01*
X108445226Y-95947613D01*
X108386480Y-95909870D01*
X108385293Y-95908501D01*
X108357817Y-95853640D01*
X108357379Y-95851630D01*
X108356171Y-95846076D01*
X108353335Y-95819720D01*
X108353335Y-95043334D01*
X108353334Y-95043319D01*
X108342932Y-94911131D01*
X108329920Y-94859494D01*
X108287933Y-94692864D01*
X108287932Y-94692861D01*
X108270777Y-94655093D01*
X108225048Y-94554416D01*
X108194844Y-94487919D01*
X108194838Y-94487910D01*
X108180931Y-94467837D01*
X108137529Y-94405189D01*
X108066661Y-94302897D01*
X108066658Y-94302893D01*
X108066655Y-94302889D01*
X108066654Y-94302888D01*
X108066650Y-94302883D01*
X107907945Y-94144178D01*
X107907941Y-94144175D01*
X107907490Y-94143724D01*
X107907486Y-94143721D01*
X107907481Y-94143717D01*
X107897260Y-94136636D01*
X107896889Y-94136379D01*
X107896821Y-94136331D01*
X107896437Y-94136065D01*
X109365901Y-94136065D01*
X109376393Y-94238764D01*
X109376393Y-94238765D01*
X109376394Y-94238767D01*
X109397004Y-94300963D01*
X109415752Y-94357543D01*
X109431541Y-94405189D01*
X109431543Y-94405194D01*
X109523584Y-94554415D01*
X109647554Y-94678385D01*
X109796775Y-94770426D01*
X109796780Y-94770428D01*
X109963199Y-94825574D01*
X109963200Y-94825574D01*
X109963202Y-94825575D01*
X109963209Y-94825576D01*
X110065919Y-94836069D01*
X110340899Y-94836069D01*
X110840900Y-94836069D01*
X111115860Y-94836069D01*
X111115872Y-94836069D01*
X111115886Y-94836068D01*
X111218597Y-94825575D01*
X111385019Y-94770428D01*
X111385024Y-94770426D01*
X111534245Y-94678385D01*
X111658215Y-94554415D01*
X111750256Y-94405194D01*
X111750258Y-94405189D01*
X111805405Y-94238767D01*
X111805406Y-94238760D01*
X111815899Y-94136056D01*
X111815900Y-94136043D01*
X111815900Y-94086070D01*
X110840900Y-94086070D01*
X110840900Y-94836069D01*
X110340899Y-94836069D01*
X110340900Y-94836068D01*
X110340900Y-94086070D01*
X109365901Y-94086070D01*
X109365901Y-94136065D01*
X107896437Y-94136065D01*
X107723447Y-94016218D01*
X107722529Y-94015569D01*
X107722483Y-94015546D01*
X107722466Y-94015538D01*
X107722462Y-94015536D01*
X107671548Y-93992410D01*
X107616506Y-93967409D01*
X107517521Y-93922447D01*
X107517504Y-93922442D01*
X107299265Y-93867449D01*
X107299254Y-93867447D01*
X107299250Y-93867446D01*
X107255184Y-93863979D01*
X107255183Y-93863979D01*
X107167058Y-93857043D01*
X107167053Y-93857043D01*
X107167051Y-93857043D01*
X105938627Y-93857043D01*
X105938623Y-93857043D01*
X105806420Y-93867446D01*
X105806416Y-93867447D01*
X105806405Y-93867449D01*
X105588166Y-93922442D01*
X105588145Y-93922449D01*
X105383220Y-94015529D01*
X105383210Y-94015535D01*
X105383204Y-94015538D01*
X105383198Y-94015542D01*
X105198187Y-94143719D01*
X105198182Y-94143722D01*
X105198167Y-94143735D01*
X105197569Y-94144293D01*
X105197304Y-94144483D01*
X105196501Y-94145180D01*
X105196438Y-94145107D01*
X105195856Y-94145527D01*
X105195530Y-94145781D01*
X105195521Y-94145769D01*
X105172499Y-94162368D01*
X105158626Y-94169942D01*
X105090352Y-94184789D01*
X105090351Y-94184789D01*
X105084258Y-94184352D01*
X105032763Y-94168987D01*
X105032632Y-94168914D01*
X105017516Y-94158981D01*
X105016876Y-94158490D01*
X105015294Y-94157276D01*
X105015290Y-94157273D01*
X105015286Y-94157270D01*
X105015281Y-94157267D01*
X105015280Y-94157266D01*
X105015277Y-94157264D01*
X104891965Y-94086070D01*
X104810892Y-94039262D01*
X104810887Y-94039259D01*
X104592833Y-93948938D01*
X104493967Y-93922447D01*
X104372701Y-93889953D01*
X104364953Y-93887323D01*
X104356787Y-93886788D01*
X104132725Y-93857290D01*
X104131044Y-93857043D01*
X104130853Y-93857043D01*
X104130847Y-93857043D01*
X103894825Y-93857043D01*
X103894819Y-93857043D01*
X103894817Y-93857043D01*
X103888697Y-93857796D01*
X103887791Y-93857968D01*
X103660828Y-93887848D01*
X103432837Y-93948938D01*
X103214786Y-94039258D01*
X103214778Y-94039262D01*
X103010381Y-94157273D01*
X103010372Y-94157279D01*
X102835973Y-94291100D01*
X102826448Y-94294782D01*
X102812638Y-94305224D01*
X102794211Y-94313766D01*
X102725110Y-94324101D01*
X102725102Y-94324100D01*
X102725097Y-94324100D01*
X102719036Y-94323263D01*
X102668961Y-94304745D01*
X102666134Y-94302928D01*
X102666133Y-94302928D01*
X102664192Y-94301681D01*
X102655747Y-94295742D01*
X102649697Y-94291100D01*
X102476875Y-94158489D01*
X102475612Y-94157487D01*
X102475283Y-94157268D01*
X102475281Y-94157266D01*
X102393793Y-94110220D01*
X102393791Y-94110218D01*
X102270901Y-94039267D01*
X102270884Y-94039258D01*
X102052833Y-93948938D01*
X101953967Y-93922447D01*
X101832701Y-93889953D01*
X101824953Y-93887323D01*
X101816787Y-93886788D01*
X101592725Y-93857290D01*
X101591044Y-93857043D01*
X101590853Y-93857043D01*
X101590847Y-93857043D01*
X101354825Y-93857043D01*
X101354819Y-93857043D01*
X101354817Y-93857043D01*
X101348697Y-93857796D01*
X101347791Y-93857968D01*
X101120828Y-93887848D01*
X100892837Y-93948938D01*
X100674786Y-94039258D01*
X100674778Y-94039262D01*
X100470381Y-94157273D01*
X100470372Y-94157279D01*
X100283145Y-94300942D01*
X100283130Y-94300956D01*
X100283122Y-94300963D01*
X100116256Y-94467829D01*
X100116249Y-94467837D01*
X100116235Y-94467852D01*
X99972572Y-94655079D01*
X99972566Y-94655088D01*
X99854555Y-94859485D01*
X99854552Y-94859492D01*
X99764231Y-95077542D01*
X99764221Y-95077574D01*
X99764221Y-95077575D01*
X99739661Y-95169231D01*
X99727274Y-95199137D01*
X99711504Y-95226451D01*
X99691798Y-95252131D01*
X99469333Y-95474596D01*
X99408010Y-95508081D01*
X99338318Y-95503097D01*
X99282385Y-95461225D01*
X99274266Y-95448917D01*
X99252916Y-95411937D01*
X99178442Y-95337463D01*
X99141461Y-95316112D01*
X99093246Y-95265546D01*
X99080022Y-95196939D01*
X99105990Y-95132074D01*
X99115772Y-95121052D01*
X99658758Y-94578067D01*
X99658757Y-94578066D01*
X99658756Y-94578065D01*
X99658755Y-94578064D01*
X99658750Y-94578060D01*
X99614196Y-94545690D01*
X99614193Y-94545687D01*
X99549034Y-94512487D01*
X99431867Y-94452787D01*
X99237253Y-94389552D01*
X99237247Y-94389551D01*
X99035158Y-94357543D01*
X99035153Y-94357543D01*
X98830519Y-94357543D01*
X98830514Y-94357543D01*
X98628423Y-94389551D01*
X98628421Y-94389551D01*
X98628418Y-94389552D01*
X98531111Y-94421169D01*
X98433799Y-94452788D01*
X98251476Y-94545688D01*
X98206913Y-94578065D01*
X98206913Y-94578066D01*
X98206913Y-94578067D01*
X98539977Y-94911131D01*
X98749891Y-95121044D01*
X98783376Y-95182367D01*
X98778392Y-95252058D01*
X98736521Y-95307992D01*
X98724210Y-95316112D01*
X98687233Y-95337460D01*
X98687228Y-95337464D01*
X98612757Y-95411935D01*
X98612751Y-95411943D01*
X98591404Y-95448917D01*
X98540837Y-95497132D01*
X98472229Y-95510354D01*
X98407365Y-95484386D01*
X98396337Y-95474597D01*
X97853360Y-94931620D01*
X97853359Y-94931620D01*
X97853358Y-94931620D01*
X97820981Y-94976183D01*
X97728081Y-95158506D01*
X97701412Y-95240586D01*
X97664845Y-95353125D01*
X97664844Y-95353128D01*
X97664844Y-95353130D01*
X97632836Y-95555219D01*
X97632836Y-95759865D01*
X97662573Y-95947613D01*
X97664845Y-95961960D01*
X97728080Y-96156574D01*
X97784828Y-96267948D01*
X97820980Y-96338900D01*
X97820983Y-96338903D01*
X97853353Y-96383457D01*
X97853357Y-96383462D01*
X97853359Y-96383464D01*
X97853360Y-96383465D01*
X98396339Y-95840485D01*
X98457660Y-95807002D01*
X98527351Y-95811986D01*
X98583285Y-95853857D01*
X98591403Y-95866165D01*
X98612756Y-95903149D01*
X98687230Y-95977623D01*
X98687231Y-95977624D01*
X98687233Y-95977625D01*
X98724209Y-95998973D01*
X98772424Y-96049539D01*
X98785648Y-96118146D01*
X98759680Y-96183011D01*
X98749890Y-96194041D01*
X98206911Y-96737016D01*
X98206912Y-96737016D01*
X98206912Y-96737017D01*
X98251486Y-96769402D01*
X98337622Y-96813290D01*
X98433799Y-96862296D01*
X98433801Y-96862296D01*
X98433804Y-96862298D01*
X98628418Y-96925533D01*
X98830519Y-96957543D01*
X99035152Y-96957543D01*
X99035153Y-96957543D01*
X99237249Y-96925533D01*
X99237252Y-96925532D01*
X99237256Y-96925530D01*
X99237263Y-96925529D01*
X99237446Y-96925468D01*
X99240256Y-96924555D01*
X99275013Y-96918540D01*
X99288896Y-96918143D01*
X99356469Y-96935902D01*
X99403714Y-96987375D01*
X99406800Y-96993651D01*
X99419524Y-97048364D01*
X99419524Y-102099274D01*
X99414499Y-102134215D01*
X99407981Y-102156409D01*
X99380278Y-102205405D01*
X99378287Y-102207570D01*
X99362501Y-102222009D01*
X99216015Y-102334411D01*
X99216009Y-102334416D01*
X99012062Y-102538364D01*
X99012055Y-102538372D01*
X99012041Y-102538387D01*
X98836463Y-102767207D01*
X98836453Y-102767221D01*
X98836441Y-102767238D01*
X98692222Y-103017031D01*
X98692219Y-103017036D01*
X98692217Y-103017039D01*
X98581841Y-103283513D01*
X98581839Y-103283519D01*
X98581838Y-103283522D01*
X98581833Y-103283538D01*
X98574106Y-103312377D01*
X98507177Y-103562155D01*
X98507174Y-103562172D01*
X98507171Y-103562185D01*
X98469525Y-103848137D01*
X98469524Y-103848166D01*
X98469524Y-104136598D01*
X98469525Y-104136627D01*
X98507172Y-104422584D01*
X98507176Y-104422604D01*
X98531678Y-104514048D01*
X98531681Y-104514058D01*
X98532891Y-104518575D01*
X98537079Y-104553608D01*
X98536749Y-104567483D01*
X98515476Y-104634036D01*
X98461604Y-104678520D01*
X98453787Y-104681868D01*
X98404967Y-104691883D01*
X90507190Y-104691883D01*
X90472254Y-104686860D01*
X90447012Y-104679448D01*
X90394267Y-104648152D01*
X90192888Y-104446773D01*
X90171739Y-104418522D01*
X90160653Y-104398221D01*
X90145591Y-104343950D01*
X90145468Y-104340996D01*
X90146421Y-104319680D01*
X90170524Y-104136611D01*
X90170524Y-103848155D01*
X90132873Y-103562166D01*
X90059758Y-103289296D01*
X90059432Y-103287795D01*
X90058528Y-103284637D01*
X90058172Y-103283353D01*
X90057549Y-103281783D01*
X90057365Y-103281298D01*
X90056535Y-103279480D01*
X89956414Y-103037766D01*
X89947832Y-103017046D01*
X89947824Y-103017030D01*
X89871857Y-102885452D01*
X89803734Y-102767460D01*
X89803604Y-102767234D01*
X89803604Y-102767233D01*
X89658840Y-102578573D01*
X89628005Y-102538387D01*
X89628001Y-102538383D01*
X89627999Y-102538380D01*
X89627993Y-102538373D01*
X89580276Y-102490656D01*
X89559124Y-102462400D01*
X89546517Y-102439311D01*
X89531350Y-102379886D01*
X89531350Y-99189629D01*
X89536373Y-99154693D01*
X89540777Y-99139695D01*
X89578522Y-99080944D01*
X89579891Y-99079757D01*
X89634770Y-99052277D01*
X89642329Y-99050633D01*
X89668682Y-99047800D01*
X91054769Y-99047800D01*
X91089701Y-99052821D01*
X91111897Y-99059339D01*
X91160920Y-99087064D01*
X91163087Y-99089057D01*
X91177503Y-99104822D01*
X91289894Y-99251294D01*
X91289898Y-99251299D01*
X91289901Y-99251302D01*
X91289907Y-99251309D01*
X91493867Y-99455269D01*
X91493874Y-99455275D01*
X91493877Y-99455277D01*
X91493881Y-99455281D01*
X91572048Y-99515260D01*
X91572068Y-99515275D01*
X91698314Y-99612147D01*
X91722728Y-99630880D01*
X91722954Y-99631010D01*
X91826643Y-99690875D01*
X91972524Y-99775100D01*
X91972540Y-99775108D01*
X92041534Y-99803686D01*
X92234974Y-99883811D01*
X92236792Y-99884641D01*
X92237277Y-99884825D01*
X92238847Y-99885448D01*
X92240131Y-99885804D01*
X92243289Y-99886708D01*
X92244790Y-99887034D01*
X92275483Y-99895258D01*
X92517660Y-99960149D01*
X92803649Y-99997800D01*
X92803656Y-99997800D01*
X93092098Y-99997800D01*
X93092105Y-99997800D01*
X93378094Y-99960149D01*
X93652875Y-99886521D01*
X93656086Y-99885773D01*
X93658472Y-99884827D01*
X93658951Y-99884645D01*
X93660778Y-99883811D01*
X93919179Y-99776778D01*
X93921039Y-99776084D01*
X93921499Y-99775878D01*
X93923289Y-99775104D01*
X93924925Y-99774195D01*
X93926647Y-99773126D01*
X94173033Y-99630875D01*
X94401881Y-99455274D01*
X94605851Y-99251304D01*
X94781452Y-99022456D01*
X94925681Y-98772645D01*
X94976443Y-98650095D01*
X95034388Y-98510201D01*
X95035215Y-98508388D01*
X95035397Y-98507911D01*
X95036351Y-98505504D01*
X95037098Y-98502298D01*
X95110726Y-98227517D01*
X95148377Y-97941528D01*
X95148377Y-97653072D01*
X95110726Y-97367083D01*
X95037611Y-97094213D01*
X95037285Y-97092712D01*
X95036381Y-97089554D01*
X95036025Y-97088270D01*
X95035402Y-97086700D01*
X95035218Y-97086215D01*
X95034388Y-97084397D01*
X94961880Y-96909346D01*
X94925685Y-96821963D01*
X94925677Y-96821947D01*
X94849710Y-96690369D01*
X94781587Y-96572377D01*
X94781457Y-96572151D01*
X94781457Y-96572150D01*
X94651886Y-96403290D01*
X94605858Y-96343304D01*
X94605854Y-96343300D01*
X94605852Y-96343297D01*
X94605846Y-96343290D01*
X94401886Y-96139330D01*
X94401879Y-96139324D01*
X94401876Y-96139321D01*
X94401871Y-96139317D01*
X94174631Y-95964951D01*
X94173356Y-95963939D01*
X94173031Y-95963723D01*
X93923227Y-95819498D01*
X93923222Y-95819495D01*
X93923209Y-95819489D01*
X93656746Y-95709117D01*
X93656728Y-95709110D01*
X93656717Y-95709107D01*
X93378098Y-95634452D01*
X93378096Y-95634451D01*
X93378094Y-95634451D01*
X93378088Y-95634450D01*
X93378083Y-95634449D01*
X93378078Y-95634448D01*
X93096205Y-95597339D01*
X93094189Y-95597005D01*
X93092115Y-95596800D01*
X93092110Y-95596800D01*
X93092105Y-95596800D01*
X92803649Y-95596800D01*
X92803643Y-95596800D01*
X92803638Y-95596800D01*
X92801561Y-95597005D01*
X92799547Y-95597339D01*
X92517691Y-95634446D01*
X92517659Y-95634450D01*
X92515852Y-95634877D01*
X92514069Y-95635413D01*
X92309298Y-95690281D01*
X92309297Y-95690280D01*
X92239044Y-95709105D01*
X92239007Y-95709117D01*
X91972533Y-95819493D01*
X91972530Y-95819495D01*
X91972525Y-95819498D01*
X91722732Y-95963717D01*
X91722715Y-95963729D01*
X91722701Y-95963739D01*
X91493881Y-96139317D01*
X91493866Y-96139331D01*
X91493858Y-96139338D01*
X91289915Y-96343281D01*
X91289908Y-96343289D01*
X91289899Y-96343299D01*
X91289886Y-96343316D01*
X91181827Y-96484142D01*
X91156573Y-96508802D01*
X91137896Y-96522439D01*
X91086107Y-96544444D01*
X91083204Y-96544951D01*
X91061871Y-96546800D01*
X88934945Y-96546800D01*
X88900009Y-96541777D01*
X88877815Y-96535260D01*
X88828792Y-96507534D01*
X88826624Y-96505540D01*
X88812210Y-96489777D01*
X88745866Y-96403315D01*
X88745862Y-96403310D01*
X88745852Y-96403297D01*
X88745846Y-96403290D01*
X88541886Y-96199330D01*
X88541879Y-96199324D01*
X88541876Y-96199321D01*
X88541871Y-96199317D01*
X88314631Y-96024951D01*
X88313356Y-96023939D01*
X88313031Y-96023723D01*
X88115833Y-95909870D01*
X88063229Y-95879499D01*
X88063227Y-95879498D01*
X88063222Y-95879495D01*
X88063209Y-95879489D01*
X87796746Y-95769117D01*
X87796728Y-95769110D01*
X87796717Y-95769107D01*
X87518098Y-95694452D01*
X87518096Y-95694451D01*
X87518094Y-95694451D01*
X87518088Y-95694450D01*
X87518083Y-95694449D01*
X87518078Y-95694448D01*
X87236205Y-95657339D01*
X87234189Y-95657005D01*
X87232115Y-95656800D01*
X87232110Y-95656800D01*
X87232105Y-95656800D01*
X86943649Y-95656800D01*
X86943648Y-95656800D01*
X86943646Y-95656800D01*
X86767633Y-95679971D01*
X86732345Y-95679552D01*
X86722812Y-95678065D01*
X86709492Y-95675988D01*
X86657274Y-95654903D01*
X86654862Y-95653207D01*
X86638505Y-95639454D01*
X86437303Y-95438252D01*
X86416151Y-95409996D01*
X86403544Y-95386907D01*
X86388377Y-95327482D01*
X86388377Y-87427423D01*
X86393399Y-87392490D01*
X86397310Y-87379171D01*
X86435083Y-87320394D01*
X86498635Y-87291369D01*
X86507057Y-87290158D01*
X86556791Y-87293120D01*
X86657660Y-87320149D01*
X86943649Y-87357800D01*
X86943656Y-87357800D01*
X87232098Y-87357800D01*
X87232105Y-87357800D01*
X87518094Y-87320149D01*
X87792875Y-87246521D01*
X87796086Y-87245773D01*
X87798472Y-87244827D01*
X87798951Y-87244645D01*
X87800778Y-87243811D01*
X88059179Y-87136778D01*
X88061039Y-87136084D01*
X88061499Y-87135878D01*
X88063289Y-87135104D01*
X88064925Y-87134195D01*
X88066647Y-87133126D01*
X88313033Y-86990875D01*
X88541881Y-86815274D01*
X88745851Y-86611304D01*
X88921452Y-86382456D01*
X89065681Y-86132645D01*
X89090538Y-86072636D01*
X89174388Y-85870201D01*
X89175215Y-85868388D01*
X89175397Y-85867911D01*
X89176351Y-85865504D01*
X89177098Y-85862298D01*
X89250726Y-85587517D01*
X89288377Y-85301528D01*
X89288377Y-85013072D01*
X89265203Y-84837053D01*
X89265623Y-84801763D01*
X89269186Y-84778914D01*
X89290267Y-84726700D01*
X89291965Y-84724286D01*
X89305709Y-84707939D01*
X91179436Y-82834214D01*
X91207686Y-82813066D01*
X91230778Y-82800458D01*
X91290203Y-82785291D01*
X92138155Y-82785291D01*
X92173082Y-82790312D01*
X92181714Y-82792846D01*
X92240495Y-82830616D01*
X92269524Y-82894170D01*
X92259585Y-82963329D01*
X92219311Y-83012405D01*
X92215156Y-83015401D01*
X92190084Y-83029382D01*
X91972569Y-83119478D01*
X91972529Y-83119496D01*
X91722732Y-83263717D01*
X91722715Y-83263729D01*
X91722701Y-83263739D01*
X91493881Y-83439317D01*
X91493866Y-83439331D01*
X91493858Y-83439338D01*
X91289915Y-83643281D01*
X91289908Y-83643289D01*
X91289894Y-83643304D01*
X91114316Y-83872124D01*
X91114306Y-83872138D01*
X91114294Y-83872155D01*
X90970075Y-84121948D01*
X90970072Y-84121953D01*
X90970070Y-84121956D01*
X90859694Y-84388430D01*
X90859692Y-84388436D01*
X90859691Y-84388439D01*
X90859686Y-84388455D01*
X90832360Y-84490433D01*
X90785030Y-84667072D01*
X90785027Y-84667089D01*
X90785024Y-84667102D01*
X90747378Y-84953054D01*
X90747377Y-84953083D01*
X90747377Y-85241515D01*
X90747378Y-85241544D01*
X90785025Y-85527504D01*
X90785026Y-85527506D01*
X90785027Y-85527511D01*
X90785028Y-85527517D01*
X90790940Y-85549579D01*
X90827467Y-85685900D01*
X90859687Y-85806148D01*
X90859694Y-85806168D01*
X90885269Y-85867911D01*
X90970068Y-86072636D01*
X90970076Y-86072652D01*
X91114297Y-86322448D01*
X91114308Y-86322464D01*
X91148854Y-86367485D01*
X91289894Y-86551294D01*
X91289898Y-86551299D01*
X91289901Y-86551302D01*
X91289907Y-86551309D01*
X91493867Y-86755269D01*
X91493874Y-86755275D01*
X91493877Y-86755277D01*
X91493881Y-86755281D01*
X91572068Y-86815275D01*
X91722728Y-86930880D01*
X91722954Y-86931010D01*
X91826631Y-86990868D01*
X91972524Y-87075100D01*
X91972540Y-87075108D01*
X92105449Y-87130160D01*
X92234974Y-87183811D01*
X92236792Y-87184641D01*
X92237277Y-87184825D01*
X92238847Y-87185448D01*
X92240131Y-87185804D01*
X92243289Y-87186708D01*
X92244790Y-87187034D01*
X92275483Y-87195258D01*
X92517660Y-87260149D01*
X92803649Y-87297800D01*
X92803656Y-87297800D01*
X93092098Y-87297800D01*
X93092105Y-87297800D01*
X93378094Y-87260149D01*
X93652875Y-87186521D01*
X93656086Y-87185773D01*
X93658472Y-87184827D01*
X93658951Y-87184645D01*
X93660778Y-87183811D01*
X93919179Y-87076778D01*
X93921039Y-87076084D01*
X93921499Y-87075878D01*
X93923289Y-87075104D01*
X93924925Y-87074195D01*
X93926647Y-87073126D01*
X94173033Y-86930875D01*
X94401881Y-86755274D01*
X94605851Y-86551304D01*
X94713928Y-86410454D01*
X94739173Y-86385803D01*
X94757857Y-86372160D01*
X94809694Y-86350147D01*
X94812598Y-86349641D01*
X94833883Y-86347800D01*
X97794186Y-86347800D01*
X97829113Y-86352821D01*
X97839966Y-86356007D01*
X97898747Y-86393777D01*
X97927776Y-86457331D01*
X97917837Y-86526490D01*
X97917834Y-86526496D01*
X97916311Y-86529831D01*
X97879002Y-86576697D01*
X97743157Y-86680934D01*
X97743140Y-86680947D01*
X97743130Y-86680956D01*
X97743122Y-86680963D01*
X97576256Y-86847829D01*
X97576249Y-86847837D01*
X97576235Y-86847852D01*
X97432572Y-87035079D01*
X97432566Y-87035088D01*
X97314555Y-87239485D01*
X97314551Y-87239493D01*
X97224231Y-87457544D01*
X97163141Y-87685535D01*
X97132339Y-87919506D01*
X97132336Y-87919530D01*
X97132336Y-88155554D01*
X97132339Y-88155578D01*
X97157623Y-88347638D01*
X97163142Y-88389553D01*
X97177571Y-88443404D01*
X97224231Y-88617540D01*
X97314551Y-88835591D01*
X97314560Y-88835608D01*
X97385511Y-88958497D01*
X97385513Y-88958500D01*
X97432559Y-89039988D01*
X97432561Y-89039990D01*
X97432780Y-89040319D01*
X97433783Y-89041583D01*
X97576235Y-89227232D01*
X97576239Y-89227237D01*
X97576242Y-89227240D01*
X97576248Y-89227247D01*
X97576256Y-89227255D01*
X97743117Y-89394117D01*
X97743133Y-89394132D01*
X97743141Y-89394138D01*
X97930384Y-89537815D01*
X97930386Y-89537816D01*
X98061754Y-89613661D01*
X98131352Y-89653844D01*
X98133091Y-89654925D01*
X98134544Y-89655732D01*
X98135283Y-89656032D01*
X98352843Y-89746149D01*
X98580822Y-89807236D01*
X98814825Y-89838043D01*
X98814832Y-89838043D01*
X99050840Y-89838043D01*
X99050847Y-89838043D01*
X99284850Y-89807236D01*
X99512829Y-89746149D01*
X99730885Y-89655827D01*
X99935286Y-89537816D01*
X100109677Y-89404001D01*
X100132975Y-89389895D01*
X100141743Y-89385826D01*
X100151426Y-89381334D01*
X100220517Y-89370976D01*
X100226562Y-89371808D01*
X100276687Y-89390333D01*
X100281545Y-89393455D01*
X100289992Y-89399395D01*
X100470384Y-89537815D01*
X100470386Y-89537816D01*
X100601754Y-89613661D01*
X100671352Y-89653844D01*
X100673091Y-89654925D01*
X100674544Y-89655732D01*
X100675283Y-89656032D01*
X100892843Y-89746149D01*
X101120822Y-89807236D01*
X101354825Y-89838043D01*
X101354832Y-89838043D01*
X101590840Y-89838043D01*
X101590847Y-89838043D01*
X101824850Y-89807236D01*
X102052829Y-89746149D01*
X102270885Y-89655827D01*
X102475286Y-89537816D01*
X102649677Y-89404001D01*
X102672975Y-89389895D01*
X102681743Y-89385826D01*
X102691426Y-89381334D01*
X102760517Y-89370976D01*
X102766562Y-89371808D01*
X102816687Y-89390333D01*
X102821545Y-89393455D01*
X102829992Y-89399395D01*
X103010384Y-89537815D01*
X103010386Y-89537816D01*
X103141754Y-89613661D01*
X103211352Y-89653844D01*
X103213091Y-89654925D01*
X103214544Y-89655732D01*
X103215283Y-89656032D01*
X103432843Y-89746149D01*
X103660822Y-89807236D01*
X103894825Y-89838043D01*
X103975670Y-89838043D01*
X104010602Y-89843064D01*
X104035846Y-89850477D01*
X104088592Y-89881773D01*
X105022971Y-90816152D01*
X105182212Y-90931848D01*
X105247785Y-90965259D01*
X105357590Y-91021208D01*
X105357596Y-91021210D01*
X105361879Y-91023004D01*
X105361679Y-91023480D01*
X105389383Y-91037586D01*
X105390205Y-91038173D01*
X105396541Y-91036957D01*
X105422980Y-91042454D01*
X105459324Y-91054263D01*
X105544790Y-91082033D01*
X105739195Y-91112824D01*
X105739200Y-91112824D01*
X108365314Y-91112824D01*
X108793807Y-91112824D01*
X108828739Y-91117845D01*
X108842058Y-91121756D01*
X108900836Y-91159530D01*
X108929862Y-91223085D01*
X108929863Y-91223092D01*
X108931144Y-91232004D01*
X108928647Y-91279944D01*
X108875803Y-91489657D01*
X108865400Y-91621841D01*
X108865400Y-92250281D01*
X108875803Y-92382484D01*
X108875804Y-92382488D01*
X108875806Y-92382499D01*
X108930799Y-92600738D01*
X108930806Y-92600759D01*
X109023886Y-92805684D01*
X109023892Y-92805694D01*
X109023895Y-92805700D01*
X109023899Y-92805706D01*
X109152059Y-92990695D01*
X109152074Y-92990715D01*
X109152078Y-92990720D01*
X109152081Y-92990724D01*
X109259212Y-93097855D01*
X109259213Y-93097856D01*
X109311243Y-93149887D01*
X109311246Y-93149889D01*
X109349695Y-93176526D01*
X109375552Y-93200552D01*
X109381605Y-93208048D01*
X109385375Y-93212717D01*
X109412173Y-93277231D01*
X109413202Y-93286708D01*
X109407633Y-93339096D01*
X109376395Y-93433367D01*
X109376393Y-93433372D01*
X109365900Y-93536075D01*
X109365900Y-93536083D01*
X109365900Y-93586070D01*
X111815899Y-93586070D01*
X111815899Y-93536098D01*
X111815898Y-93536083D01*
X111805406Y-93433374D01*
X111775967Y-93344535D01*
X111769746Y-93309799D01*
X111769208Y-93294174D01*
X111786573Y-93226502D01*
X111791454Y-93218300D01*
X111827391Y-93179791D01*
X111870554Y-93149889D01*
X112029719Y-92990724D01*
X112157907Y-92805696D01*
X112250996Y-92600753D01*
X112305996Y-92382482D01*
X112316400Y-92250287D01*
X112316399Y-92048233D01*
X112321420Y-92013305D01*
X112328833Y-91988059D01*
X112360133Y-91935309D01*
X112383942Y-91911502D01*
X112383942Y-91911501D01*
X112383948Y-91911496D01*
X112499644Y-91752255D01*
X112499648Y-91752245D01*
X112501575Y-91749103D01*
X112519625Y-91726207D01*
X112520572Y-91725259D01*
X112520354Y-91723230D01*
X112531897Y-91688952D01*
X112589004Y-91576875D01*
X112649829Y-91389676D01*
X112667095Y-91280665D01*
X112671419Y-91253362D01*
X112680620Y-91195271D01*
X112680620Y-90449489D01*
X112685642Y-90414556D01*
X112689252Y-90402262D01*
X112693054Y-90389311D01*
X112724348Y-90336569D01*
X119668765Y-83392152D01*
X119697015Y-83371004D01*
X119720107Y-83358396D01*
X119779532Y-83343229D01*
X126722515Y-83343229D01*
X126757451Y-83348252D01*
X126772449Y-83352656D01*
X126831218Y-83390421D01*
X126837420Y-83397577D01*
X126861351Y-83439574D01*
X126862014Y-83441564D01*
X126863823Y-83444742D01*
X126955964Y-83621136D01*
X127084552Y-83778838D01*
X127117327Y-83805562D01*
X127143761Y-83827116D01*
X127164426Y-83843966D01*
X127242255Y-83907427D01*
X127422613Y-84001638D01*
X127618244Y-84057615D01*
X127737625Y-84068229D01*
X129803698Y-84068228D01*
X129923080Y-84057615D01*
X130118711Y-84001638D01*
X130299069Y-83907427D01*
X130456771Y-83778838D01*
X130585360Y-83621136D01*
X130679571Y-83440778D01*
X130735548Y-83245147D01*
X130746162Y-83125766D01*
X130746161Y-81059693D01*
X130735548Y-80940311D01*
X130681763Y-80752340D01*
X130679572Y-80744683D01*
X130679571Y-80744682D01*
X130679571Y-80744680D01*
X130585360Y-80564322D01*
X130533346Y-80500532D01*
X130456771Y-80406619D01*
X130456769Y-80406617D01*
X130456768Y-80406616D01*
X130306748Y-80284292D01*
X130306747Y-80284291D01*
X130299069Y-80278031D01*
X130299068Y-80278030D01*
X130183046Y-80217426D01*
X130122675Y-80185890D01*
X130119498Y-80184082D01*
X130118704Y-80183817D01*
X130001491Y-80150279D01*
X129925643Y-80128576D01*
X129923487Y-80127908D01*
X129921009Y-80127506D01*
X129917598Y-80127355D01*
X129908290Y-80126527D01*
X129856764Y-80121946D01*
X129856763Y-80121945D01*
X129803701Y-80117229D01*
X129803699Y-80117229D01*
X129803694Y-80117229D01*
X127737633Y-80117229D01*
X127737627Y-80117229D01*
X127725559Y-80117229D01*
X127718704Y-80118911D01*
X127618244Y-80127842D01*
X127422613Y-80183818D01*
X127389543Y-80201092D01*
X127389544Y-80201093D01*
X127243195Y-80277539D01*
X127242309Y-80277991D01*
X127239904Y-80279725D01*
X127237378Y-80282007D01*
X127084552Y-80406619D01*
X126955967Y-80564317D01*
X126955965Y-80564319D01*
X126861745Y-80744693D01*
X126861453Y-80745426D01*
X126851079Y-80765739D01*
X126841664Y-80780614D01*
X126789188Y-80826728D01*
X126780728Y-80830662D01*
X126728435Y-80842229D01*
X119786881Y-80842229D01*
X119751945Y-80837206D01*
X119726703Y-80829794D01*
X119673958Y-80798498D01*
X116806355Y-77930895D01*
X116806353Y-77930893D01*
X116647112Y-77815197D01*
X116471737Y-77725838D01*
X116284533Y-77665011D01*
X116284531Y-77665010D01*
X116284529Y-77665010D01*
X116090134Y-77634221D01*
X116090129Y-77634221D01*
X116090124Y-77634221D01*
X90701156Y-77634221D01*
X90504322Y-77634221D01*
X90504317Y-77634221D01*
X90504312Y-77634221D01*
X90309915Y-77665010D01*
X90122710Y-77725837D01*
X89947333Y-77815196D01*
X89877695Y-77865793D01*
X89877694Y-77865793D01*
X89799963Y-77922268D01*
X89792584Y-77926400D01*
X84179557Y-83539427D01*
X84175425Y-83546806D01*
X84134362Y-83603324D01*
X84068349Y-83694181D01*
X83978998Y-83869541D01*
X83978991Y-83869557D01*
X83949400Y-83960633D01*
X83949400Y-83960634D01*
X83918167Y-84056758D01*
X83918167Y-84056759D01*
X83887377Y-84251160D01*
X80541785Y-84251160D01*
X80541785Y-76976638D01*
X127295662Y-76976638D01*
X127295662Y-77208818D01*
X127316473Y-77340218D01*
X127331980Y-77438122D01*
X127403727Y-77658934D01*
X127509127Y-77865793D01*
X127565900Y-77943936D01*
X128053586Y-77456249D01*
X128114907Y-77422766D01*
X128184598Y-77427750D01*
X128240532Y-77469621D01*
X128244353Y-77475021D01*
X128265774Y-77507080D01*
X128265778Y-77507084D01*
X128265778Y-77507085D01*
X128356308Y-77597615D01*
X128388346Y-77619022D01*
X128433151Y-77672635D01*
X128441858Y-77741960D01*
X128411703Y-77804987D01*
X128407136Y-77809805D01*
X127919453Y-78297487D01*
X127919453Y-78297488D01*
X127919453Y-78297489D01*
X127997597Y-78354263D01*
X128204456Y-78459663D01*
X128425268Y-78531410D01*
X128654572Y-78567729D01*
X128886751Y-78567729D01*
X128886752Y-78567729D01*
X129116055Y-78531410D01*
X129336867Y-78459663D01*
X129543733Y-78354259D01*
X129621869Y-78297491D01*
X129621870Y-78297489D01*
X129621869Y-78297487D01*
X129134186Y-77809805D01*
X129100701Y-77748482D01*
X129105685Y-77678791D01*
X129147556Y-77622857D01*
X129152932Y-77619052D01*
X129185013Y-77597617D01*
X129275550Y-77507080D01*
X129296957Y-77475041D01*
X129350565Y-77430239D01*
X129419889Y-77421530D01*
X129482918Y-77451684D01*
X129487738Y-77456253D01*
X129975420Y-77943936D01*
X129975422Y-77943937D01*
X129975424Y-77943936D01*
X130032192Y-77865800D01*
X130137596Y-77658934D01*
X130209343Y-77438122D01*
X130245662Y-77208819D01*
X130245662Y-76976638D01*
X130209343Y-76747335D01*
X130137596Y-76526523D01*
X130032196Y-76319664D01*
X129975422Y-76241520D01*
X129975421Y-76241520D01*
X129975420Y-76241520D01*
X129487738Y-76729203D01*
X129426415Y-76762688D01*
X129356723Y-76757704D01*
X129300790Y-76715832D01*
X129296955Y-76710413D01*
X129275548Y-76678375D01*
X129185018Y-76587845D01*
X129185014Y-76587842D01*
X129185013Y-76587841D01*
X129152972Y-76566432D01*
X129108169Y-76512820D01*
X129099462Y-76443495D01*
X129129617Y-76380468D01*
X129134162Y-76375672D01*
X129621869Y-75887967D01*
X129543726Y-75831194D01*
X129336867Y-75725794D01*
X129116055Y-75654047D01*
X129116053Y-75654046D01*
X129116052Y-75654046D01*
X128939906Y-75626147D01*
X128886752Y-75617729D01*
X128886751Y-75617729D01*
X128654567Y-75617729D01*
X128425271Y-75654046D01*
X128204453Y-75725795D01*
X127997588Y-75831198D01*
X127997584Y-75831200D01*
X127919453Y-75887966D01*
X127919453Y-75887967D01*
X128407137Y-76375651D01*
X128440622Y-76436974D01*
X128435638Y-76506666D01*
X128393766Y-76562599D01*
X128388350Y-76566432D01*
X128356310Y-76587841D01*
X128356305Y-76587845D01*
X128265778Y-76678372D01*
X128265774Y-76678377D01*
X128244365Y-76710417D01*
X128190752Y-76755220D01*
X128121426Y-76763926D01*
X128058400Y-76733769D01*
X128053584Y-76729204D01*
X127565900Y-76241520D01*
X127565899Y-76241520D01*
X127509133Y-76319651D01*
X127509131Y-76319655D01*
X127403728Y-76526520D01*
X127331979Y-76747338D01*
X127295662Y-76976638D01*
X80541785Y-76976638D01*
X80541785Y-71893772D01*
X80546808Y-71858836D01*
X80551212Y-71843838D01*
X80588957Y-71785087D01*
X80590326Y-71783900D01*
X80645205Y-71756420D01*
X80652764Y-71754776D01*
X80679117Y-71751943D01*
X135925533Y-71751943D01*
X135960469Y-71756966D01*
G37*
%TD.AperFunction*%
%TD*%
%TA.AperFunction,Conductor*%
%TO.N,Current+*%
G36*
X119670439Y-93154221D02*
G01*
X119737372Y-93174256D01*
X119772087Y-93208141D01*
X119835635Y-93300909D01*
X119835642Y-93300917D01*
X119986401Y-93451676D01*
X119986407Y-93451681D01*
X120162312Y-93572179D01*
X120357364Y-93658302D01*
X120357370Y-93658303D01*
X120357372Y-93658304D01*
X120564908Y-93707117D01*
X120564913Y-93707117D01*
X120564919Y-93707119D01*
X120614151Y-93710536D01*
X120653533Y-93713270D01*
X120653537Y-93713270D01*
X122445565Y-93713270D01*
X122481008Y-93710809D01*
X122534179Y-93707119D01*
X122534185Y-93707117D01*
X122534189Y-93707117D01*
X122741725Y-93658304D01*
X122741723Y-93658304D01*
X122741734Y-93658302D01*
X122936786Y-93572179D01*
X123112691Y-93451681D01*
X123263460Y-93300912D01*
X123313579Y-93227746D01*
X123367704Y-93183564D01*
X123416523Y-93173826D01*
X132229461Y-93219948D01*
X132296394Y-93239983D01*
X132341872Y-93293026D01*
X132352647Y-93337589D01*
X132584957Y-97863026D01*
X132568735Y-97930986D01*
X132518346Y-97979388D01*
X132461881Y-97993381D01*
X119035154Y-98075767D01*
X118967995Y-98056494D01*
X118921917Y-98003972D01*
X118910395Y-97952530D01*
X118909846Y-97863026D01*
X118881697Y-93275503D01*
X118900970Y-93208346D01*
X118953492Y-93162268D01*
X119006342Y-93150746D01*
X119670439Y-93154221D01*
G37*
%TD.AperFunction*%
%TD*%
M02*
