%TF.GenerationSoftware,KiCad,Pcbnew,10.0.6*%
%TF.CreationDate,2026-09-12T14:25:17-04:00*%
%TF.ProjectId,onboad,6f6e626f-6164-42e6-9b69-6361645f7063,rev?*%
%TF.SameCoordinates,Original*%
%TF.FileFunction,Legend,Top*%
%TF.FilePolarity,Positive*%
%FSLAX46Y46*%
G04 Gerber Fmt 4.6, Leading zero omitted, Abs format (unit mm)*
G04 Created by KiCad (PCBNEW 10.0.6) date 2026-09-12 14:25:17*
%MOMM*%
%LPD*%
G01*
G04 APERTURE LIST*
%ADD10C,0.150000*%
%ADD11C,0.120000*%
G04 APERTURE END LIST*
D10*
X115289025Y-98100534D02*
X115336645Y-98148153D01*
X115336645Y-98148153D02*
X115384264Y-98291010D01*
X115384264Y-98291010D02*
X115384264Y-98386248D01*
X115384264Y-98386248D02*
X115336645Y-98529105D01*
X115336645Y-98529105D02*
X115241406Y-98624343D01*
X115241406Y-98624343D02*
X115146168Y-98671962D01*
X115146168Y-98671962D02*
X114955692Y-98719581D01*
X114955692Y-98719581D02*
X114812835Y-98719581D01*
X114812835Y-98719581D02*
X114622359Y-98671962D01*
X114622359Y-98671962D02*
X114527121Y-98624343D01*
X114527121Y-98624343D02*
X114431883Y-98529105D01*
X114431883Y-98529105D02*
X114384264Y-98386248D01*
X114384264Y-98386248D02*
X114384264Y-98291010D01*
X114384264Y-98291010D02*
X114431883Y-98148153D01*
X114431883Y-98148153D02*
X114479502Y-98100534D01*
X115384264Y-97148153D02*
X115384264Y-97719581D01*
X115384264Y-97433867D02*
X114384264Y-97433867D01*
X114384264Y-97433867D02*
X114527121Y-97529105D01*
X114527121Y-97529105D02*
X114622359Y-97624343D01*
X114622359Y-97624343D02*
X114669978Y-97719581D01*
X118312644Y-95902589D02*
X118312644Y-96712112D01*
X118312644Y-96712112D02*
X118360263Y-96807350D01*
X118360263Y-96807350D02*
X118407882Y-96854970D01*
X118407882Y-96854970D02*
X118503120Y-96902589D01*
X118503120Y-96902589D02*
X118693596Y-96902589D01*
X118693596Y-96902589D02*
X118788834Y-96854970D01*
X118788834Y-96854970D02*
X118836453Y-96807350D01*
X118836453Y-96807350D02*
X118884072Y-96712112D01*
X118884072Y-96712112D02*
X118884072Y-95902589D01*
X119884072Y-96902589D02*
X119312644Y-96902589D01*
X119598358Y-96902589D02*
X119598358Y-95902589D01*
X119598358Y-95902589D02*
X119503120Y-96045446D01*
X119503120Y-96045446D02*
X119407882Y-96140684D01*
X119407882Y-96140684D02*
X119312644Y-96188303D01*
%TO.C,C2*%
D11*
X113503678Y-86819549D02*
X113503678Y-87342053D01*
X114973678Y-86819549D02*
X114973678Y-87342053D01*
%TO.C,C1*%
X115874445Y-98195120D02*
X115874445Y-97672616D01*
X117344445Y-98195120D02*
X117344445Y-97672616D01*
%TO.C,U1*%
X121674549Y-95517770D02*
X121914549Y-95847770D01*
X121434549Y-95847770D01*
X121674549Y-95517770D01*
G36*
X121914549Y-95847770D02*
G01*
X121434549Y-95847770D01*
X121674549Y-95517770D01*
X121914549Y-95847770D01*
G37*
X117014549Y-90487770D02*
X121134549Y-90487770D01*
X117014549Y-90582770D02*
X117014549Y-90487770D01*
X117014549Y-95607770D02*
X117014549Y-95512770D01*
X121134549Y-90487770D02*
X121134549Y-90582770D01*
X121134549Y-95512770D02*
X121134549Y-95607770D01*
X121134549Y-95607770D02*
X117014549Y-95607770D01*
%TD*%
M02*
