%TF.GenerationSoftware,KiCad,Pcbnew,10.0.6*%
%TF.CreationDate,2026-09-12T20:13:12-04:00*%
%TF.ProjectId,onboad,6f6e626f-6164-42e6-9b69-6361645f7063,rev?*%
%TF.SameCoordinates,Original*%
%TF.FileFunction,Legend,Bot*%
%TF.FilePolarity,Positive*%
%FSLAX46Y46*%
G04 Gerber Fmt 4.6, Leading zero omitted, Abs format (unit mm)*
G04 Created by KiCad (PCBNEW 10.0.6) date 2026-09-12 20:13:12*
%MOMM*%
%LPD*%
G01*
G04 APERTURE LIST*
%ADD10C,0.150000*%
%ADD11C,0.120000*%
%ADD12C,0.127000*%
%ADD13C,0.200000*%
G04 APERTURE END LIST*
D10*
X107937655Y-88085638D02*
X108747178Y-88085638D01*
X108747178Y-88085638D02*
X108842416Y-88133257D01*
X108842416Y-88133257D02*
X108890036Y-88180876D01*
X108890036Y-88180876D02*
X108937655Y-88276114D01*
X108937655Y-88276114D02*
X108937655Y-88466590D01*
X108937655Y-88466590D02*
X108890036Y-88561828D01*
X108890036Y-88561828D02*
X108842416Y-88609447D01*
X108842416Y-88609447D02*
X108747178Y-88657066D01*
X108747178Y-88657066D02*
X107937655Y-88657066D01*
X108032893Y-89085638D02*
X107985274Y-89133257D01*
X107985274Y-89133257D02*
X107937655Y-89228495D01*
X107937655Y-89228495D02*
X107937655Y-89466590D01*
X107937655Y-89466590D02*
X107985274Y-89561828D01*
X107985274Y-89561828D02*
X108032893Y-89609447D01*
X108032893Y-89609447D02*
X108128131Y-89657066D01*
X108128131Y-89657066D02*
X108223369Y-89657066D01*
X108223369Y-89657066D02*
X108366226Y-89609447D01*
X108366226Y-89609447D02*
X108937655Y-89038019D01*
X108937655Y-89038019D02*
X108937655Y-89657066D01*
X112209263Y-107359078D02*
X112542596Y-106882887D01*
X112780691Y-107359078D02*
X112780691Y-106359078D01*
X112780691Y-106359078D02*
X112399739Y-106359078D01*
X112399739Y-106359078D02*
X112304501Y-106406697D01*
X112304501Y-106406697D02*
X112256882Y-106454316D01*
X112256882Y-106454316D02*
X112209263Y-106549554D01*
X112209263Y-106549554D02*
X112209263Y-106692411D01*
X112209263Y-106692411D02*
X112256882Y-106787649D01*
X112256882Y-106787649D02*
X112304501Y-106835268D01*
X112304501Y-106835268D02*
X112399739Y-106882887D01*
X112399739Y-106882887D02*
X112780691Y-106882887D01*
X111828310Y-106454316D02*
X111780691Y-106406697D01*
X111780691Y-106406697D02*
X111685453Y-106359078D01*
X111685453Y-106359078D02*
X111447358Y-106359078D01*
X111447358Y-106359078D02*
X111352120Y-106406697D01*
X111352120Y-106406697D02*
X111304501Y-106454316D01*
X111304501Y-106454316D02*
X111256882Y-106549554D01*
X111256882Y-106549554D02*
X111256882Y-106644792D01*
X111256882Y-106644792D02*
X111304501Y-106787649D01*
X111304501Y-106787649D02*
X111875929Y-107359078D01*
X111875929Y-107359078D02*
X111256882Y-107359078D01*
X90482696Y-91280633D02*
X90006505Y-90947300D01*
X90482696Y-90709205D02*
X89482696Y-90709205D01*
X89482696Y-90709205D02*
X89482696Y-91090157D01*
X89482696Y-91090157D02*
X89530315Y-91185395D01*
X89530315Y-91185395D02*
X89577934Y-91233014D01*
X89577934Y-91233014D02*
X89673172Y-91280633D01*
X89673172Y-91280633D02*
X89816029Y-91280633D01*
X89816029Y-91280633D02*
X89911267Y-91233014D01*
X89911267Y-91233014D02*
X89958886Y-91185395D01*
X89958886Y-91185395D02*
X90006505Y-91090157D01*
X90006505Y-91090157D02*
X90006505Y-90709205D01*
X89816029Y-92137776D02*
X90482696Y-92137776D01*
X89435077Y-91899681D02*
X90149362Y-91661586D01*
X90149362Y-91661586D02*
X90149362Y-92280633D01*
X133999528Y-80681062D02*
X134999528Y-80681062D01*
X134999528Y-80681062D02*
X135199528Y-80614395D01*
X135199528Y-80614395D02*
X135332862Y-80481062D01*
X135332862Y-80481062D02*
X135399528Y-80281062D01*
X135399528Y-80281062D02*
X135399528Y-80147729D01*
X135399528Y-82081062D02*
X135399528Y-81281062D01*
X135399528Y-81681062D02*
X133999528Y-81681062D01*
X133999528Y-81681062D02*
X134199528Y-81547729D01*
X134199528Y-81547729D02*
X134332862Y-81414396D01*
X134332862Y-81414396D02*
X134399528Y-81281062D01*
X84622696Y-91340633D02*
X84146505Y-91007300D01*
X84622696Y-90769205D02*
X83622696Y-90769205D01*
X83622696Y-90769205D02*
X83622696Y-91150157D01*
X83622696Y-91150157D02*
X83670315Y-91245395D01*
X83670315Y-91245395D02*
X83717934Y-91293014D01*
X83717934Y-91293014D02*
X83813172Y-91340633D01*
X83813172Y-91340633D02*
X83956029Y-91340633D01*
X83956029Y-91340633D02*
X84051267Y-91293014D01*
X84051267Y-91293014D02*
X84098886Y-91245395D01*
X84098886Y-91245395D02*
X84146505Y-91150157D01*
X84146505Y-91150157D02*
X84146505Y-90769205D01*
X83622696Y-91673967D02*
X83622696Y-92293014D01*
X83622696Y-92293014D02*
X84003648Y-91959681D01*
X84003648Y-91959681D02*
X84003648Y-92102538D01*
X84003648Y-92102538D02*
X84051267Y-92197776D01*
X84051267Y-92197776D02*
X84098886Y-92245395D01*
X84098886Y-92245395D02*
X84194124Y-92293014D01*
X84194124Y-92293014D02*
X84432219Y-92293014D01*
X84432219Y-92293014D02*
X84527457Y-92245395D01*
X84527457Y-92245395D02*
X84575077Y-92197776D01*
X84575077Y-92197776D02*
X84622696Y-92102538D01*
X84622696Y-92102538D02*
X84622696Y-91816824D01*
X84622696Y-91816824D02*
X84575077Y-91721586D01*
X84575077Y-91721586D02*
X84527457Y-91673967D01*
X108754701Y-82066696D02*
X107754701Y-82066696D01*
X107754701Y-82066696D02*
X107754701Y-82304791D01*
X107754701Y-82304791D02*
X107802320Y-82447648D01*
X107802320Y-82447648D02*
X107897558Y-82542886D01*
X107897558Y-82542886D02*
X107992796Y-82590505D01*
X107992796Y-82590505D02*
X108183272Y-82638124D01*
X108183272Y-82638124D02*
X108326129Y-82638124D01*
X108326129Y-82638124D02*
X108516605Y-82590505D01*
X108516605Y-82590505D02*
X108611843Y-82542886D01*
X108611843Y-82542886D02*
X108707082Y-82447648D01*
X108707082Y-82447648D02*
X108754701Y-82304791D01*
X108754701Y-82304791D02*
X108754701Y-82066696D01*
X108754701Y-83590505D02*
X108754701Y-83019077D01*
X108754701Y-83304791D02*
X107754701Y-83304791D01*
X107754701Y-83304791D02*
X107897558Y-83209553D01*
X107897558Y-83209553D02*
X107992796Y-83114315D01*
X107992796Y-83114315D02*
X108040415Y-83019077D01*
X133968866Y-94228333D02*
X134968866Y-94228333D01*
X134968866Y-94228333D02*
X135168866Y-94161666D01*
X135168866Y-94161666D02*
X135302200Y-94028333D01*
X135302200Y-94028333D02*
X135368866Y-93828333D01*
X135368866Y-93828333D02*
X135368866Y-93695000D01*
X134102200Y-94828333D02*
X134035533Y-94895000D01*
X134035533Y-94895000D02*
X133968866Y-95028333D01*
X133968866Y-95028333D02*
X133968866Y-95361667D01*
X133968866Y-95361667D02*
X134035533Y-95495000D01*
X134035533Y-95495000D02*
X134102200Y-95561667D01*
X134102200Y-95561667D02*
X134235533Y-95628333D01*
X134235533Y-95628333D02*
X134368866Y-95628333D01*
X134368866Y-95628333D02*
X134568866Y-95561667D01*
X134568866Y-95561667D02*
X135368866Y-94761667D01*
X135368866Y-94761667D02*
X135368866Y-95628333D01*
X94486690Y-107367202D02*
X94820023Y-106891011D01*
X95058118Y-107367202D02*
X95058118Y-106367202D01*
X95058118Y-106367202D02*
X94677166Y-106367202D01*
X94677166Y-106367202D02*
X94581928Y-106414821D01*
X94581928Y-106414821D02*
X94534309Y-106462440D01*
X94534309Y-106462440D02*
X94486690Y-106557678D01*
X94486690Y-106557678D02*
X94486690Y-106700535D01*
X94486690Y-106700535D02*
X94534309Y-106795773D01*
X94534309Y-106795773D02*
X94581928Y-106843392D01*
X94581928Y-106843392D02*
X94677166Y-106891011D01*
X94677166Y-106891011D02*
X95058118Y-106891011D01*
X93534309Y-107367202D02*
X94105737Y-107367202D01*
X93820023Y-107367202D02*
X93820023Y-106367202D01*
X93820023Y-106367202D02*
X93915261Y-106510059D01*
X93915261Y-106510059D02*
X94010499Y-106605297D01*
X94010499Y-106605297D02*
X94105737Y-106652916D01*
%TO.C,U2*%
D11*
X97602836Y-89197543D02*
X107882836Y-89197543D01*
X97602836Y-94497543D02*
X97602836Y-89197543D01*
X107882836Y-89197543D02*
X107882836Y-90847543D01*
X107882836Y-92847543D02*
X107882836Y-94497543D01*
X107882836Y-94497543D02*
X97602836Y-94497543D01*
X107882836Y-92847543D02*
G75*
G02*
X107882836Y-90847543I0J1000000D01*
G01*
%TO.C,R2*%
X106972597Y-102064259D02*
X117112597Y-102064259D01*
X106972597Y-102544259D02*
X106972597Y-102064259D01*
X106972597Y-105424259D02*
X106972597Y-105904259D01*
X106972597Y-105904259D02*
X117112597Y-105904259D01*
X117112597Y-102064259D02*
X117112597Y-102544259D01*
X117112597Y-105904259D02*
X117112597Y-105424259D01*
%TO.C,R4*%
X91027877Y-86377300D02*
X91027877Y-96517300D01*
X91027877Y-96517300D02*
X91507877Y-96517300D01*
X91507877Y-86377300D02*
X91027877Y-86377300D01*
X94387877Y-86377300D02*
X94867877Y-86377300D01*
X94867877Y-86377300D02*
X94867877Y-96517300D01*
X94867877Y-96517300D02*
X94387877Y-96517300D01*
%TO.C,J1*%
D12*
X125270662Y-74592729D02*
X125270662Y-84592729D01*
X125270662Y-84592729D02*
X132870662Y-84592729D01*
X132870662Y-74592729D02*
X125270662Y-74592729D01*
X132870662Y-84592729D02*
X132870662Y-74592729D01*
D13*
X124370662Y-82092729D02*
G75*
G02*
X124170662Y-82092729I-100000J0D01*
G01*
X124170662Y-82092729D02*
G75*
G02*
X124370662Y-82092729I100000J0D01*
G01*
%TO.C,R3*%
D11*
X85167877Y-86437300D02*
X85167877Y-96577300D01*
X85167877Y-96577300D02*
X85647877Y-96577300D01*
X85647877Y-86437300D02*
X85167877Y-86437300D01*
X88527877Y-86437300D02*
X89007877Y-86437300D01*
X89007877Y-86437300D02*
X89007877Y-96577300D01*
X89007877Y-96577300D02*
X88527877Y-96577300D01*
%TO.C,D1*%
X105884882Y-85364791D02*
X102794882Y-85364791D01*
X102795052Y-85364791D02*
G75*
G02*
X104339882Y-79814791I1544830J2560000D01*
G01*
X104339882Y-79814791D02*
G75*
G02*
X105884712Y-85364791I0J-2990000D01*
G01*
X106839882Y-82804791D02*
G75*
G02*
X101839882Y-82804791I-2500000J0D01*
G01*
X101839882Y-82804791D02*
G75*
G02*
X106839882Y-82804791I2500000J0D01*
G01*
%TO.C,J2*%
D12*
X125240000Y-88140000D02*
X125240000Y-98140000D01*
X125240000Y-98140000D02*
X132840000Y-98140000D01*
X132840000Y-88140000D02*
X125240000Y-88140000D01*
X132840000Y-98140000D02*
X132840000Y-88140000D01*
D13*
X124340000Y-95640000D02*
G75*
G02*
X124140000Y-95640000I-100000J0D01*
G01*
X124140000Y-95640000D02*
G75*
G02*
X124340000Y-95640000I100000J0D01*
G01*
%TO.C,R1*%
D11*
X89250024Y-102072383D02*
X99390024Y-102072383D01*
X89250024Y-102552383D02*
X89250024Y-102072383D01*
X89250024Y-105432383D02*
X89250024Y-105912383D01*
X89250024Y-105912383D02*
X99390024Y-105912383D01*
X99390024Y-102072383D02*
X99390024Y-102552383D01*
X99390024Y-105912383D02*
X99390024Y-105432383D01*
%TD*%
M02*
