M48
; DRILL file KiCad 10.0.6 date 2026-09-12T13:46:24
; FORMAT={-:-/ absolute / metric / decimal}
; #@! TF.CreationDate,2026-09-12T13:46:24-04:00
; #@! TF.GenerationSoftware,Kicad,Pcbnew,10.0.6
; #@! TF.FileFunction,Plated,1,2,PTH
FMAT,2
METRIC
; #@! TA.AperFunction,Plated,PTH,ComponentDrill
T1C0.800
; #@! TA.AperFunction,Plated,PTH,ComponentDrill
T2C0.900
; #@! TA.AperFunction,Plated,PTH,ComponentDrill
T3C1.200
; #@! TA.AperFunction,Plated,PTH,ComponentDrill
T4C1.300
%
G90
G05
T1
X145.185Y-67.19
X145.185Y-69.73
X145.185Y-72.27
X145.185Y-74.81
X152.805Y-67.19
X152.805Y-69.73
X152.805Y-72.27
X152.805Y-74.81
T2
X133.725Y-72.5
X136.265Y-72.5
T3
X124.0Y-62.65
X124.0Y-75.35
X126.65Y-83.0
X133.995Y-52.15
X133.995Y-64.85
X139.35Y-83.0
X145.65Y-83.0
X158.35Y-83.0
T4
X138.0Y-37.337
X143.0Y-37.337
X153.0Y-37.337
X158.0Y-37.337
M30
