%TF.GenerationSoftware,KiCad,Pcbnew,10.0.6*%
%TF.CreationDate,2026-09-08T22:18:04-04:00*%
%TF.ProjectId,onboarding_project,6f6e626f-6172-4646-996e-675f70726f6a,rev?*%
%TF.SameCoordinates,Original*%
%TF.FileFunction,Legend,Bot*%
%TF.FilePolarity,Positive*%
%FSLAX46Y46*%
G04 Gerber Fmt 4.6, Leading zero omitted, Abs format (unit mm)*
G04 Created by KiCad (PCBNEW 10.0.6) date 2026-09-08 22:18:04*
%MOMM*%
%LPD*%
G01*
G04 APERTURE LIST*
%ADD10C,0.150000*%
%ADD11C,0.120000*%
%ADD12C,0.127000*%
%ADD13C,0.200000*%
G04 APERTURE END LIST*
D10*
X163968094Y-126994819D02*
X163968094Y-125994819D01*
X163968094Y-125994819D02*
X163729999Y-125994819D01*
X163729999Y-125994819D02*
X163587142Y-126042438D01*
X163587142Y-126042438D02*
X163491904Y-126137676D01*
X163491904Y-126137676D02*
X163444285Y-126232914D01*
X163444285Y-126232914D02*
X163396666Y-126423390D01*
X163396666Y-126423390D02*
X163396666Y-126566247D01*
X163396666Y-126566247D02*
X163444285Y-126756723D01*
X163444285Y-126756723D02*
X163491904Y-126851961D01*
X163491904Y-126851961D02*
X163587142Y-126947200D01*
X163587142Y-126947200D02*
X163729999Y-126994819D01*
X163729999Y-126994819D02*
X163968094Y-126994819D01*
X162444285Y-126994819D02*
X163015713Y-126994819D01*
X162729999Y-126994819D02*
X162729999Y-125994819D01*
X162729999Y-125994819D02*
X162825237Y-126137676D01*
X162825237Y-126137676D02*
X162920475Y-126232914D01*
X162920475Y-126232914D02*
X163015713Y-126280533D01*
X159374819Y-130333333D02*
X158898628Y-130000000D01*
X159374819Y-129761905D02*
X158374819Y-129761905D01*
X158374819Y-129761905D02*
X158374819Y-130142857D01*
X158374819Y-130142857D02*
X158422438Y-130238095D01*
X158422438Y-130238095D02*
X158470057Y-130285714D01*
X158470057Y-130285714D02*
X158565295Y-130333333D01*
X158565295Y-130333333D02*
X158708152Y-130333333D01*
X158708152Y-130333333D02*
X158803390Y-130285714D01*
X158803390Y-130285714D02*
X158851009Y-130238095D01*
X158851009Y-130238095D02*
X158898628Y-130142857D01*
X158898628Y-130142857D02*
X158898628Y-129761905D01*
X158708152Y-131190476D02*
X159374819Y-131190476D01*
X158327200Y-130952381D02*
X159041485Y-130714286D01*
X159041485Y-130714286D02*
X159041485Y-131333333D01*
X175951904Y-122624819D02*
X175951904Y-123434342D01*
X175951904Y-123434342D02*
X175904285Y-123529580D01*
X175904285Y-123529580D02*
X175856666Y-123577200D01*
X175856666Y-123577200D02*
X175761428Y-123624819D01*
X175761428Y-123624819D02*
X175570952Y-123624819D01*
X175570952Y-123624819D02*
X175475714Y-123577200D01*
X175475714Y-123577200D02*
X175428095Y-123529580D01*
X175428095Y-123529580D02*
X175380476Y-123434342D01*
X175380476Y-123434342D02*
X175380476Y-122624819D01*
X174951904Y-122720057D02*
X174904285Y-122672438D01*
X174904285Y-122672438D02*
X174809047Y-122624819D01*
X174809047Y-122624819D02*
X174570952Y-122624819D01*
X174570952Y-122624819D02*
X174475714Y-122672438D01*
X174475714Y-122672438D02*
X174428095Y-122720057D01*
X174428095Y-122720057D02*
X174380476Y-122815295D01*
X174380476Y-122815295D02*
X174380476Y-122910533D01*
X174380476Y-122910533D02*
X174428095Y-123053390D01*
X174428095Y-123053390D02*
X174999523Y-123624819D01*
X174999523Y-123624819D02*
X174380476Y-123624819D01*
X164874819Y-117333333D02*
X164398628Y-117000000D01*
X164874819Y-116761905D02*
X163874819Y-116761905D01*
X163874819Y-116761905D02*
X163874819Y-117142857D01*
X163874819Y-117142857D02*
X163922438Y-117238095D01*
X163922438Y-117238095D02*
X163970057Y-117285714D01*
X163970057Y-117285714D02*
X164065295Y-117333333D01*
X164065295Y-117333333D02*
X164208152Y-117333333D01*
X164208152Y-117333333D02*
X164303390Y-117285714D01*
X164303390Y-117285714D02*
X164351009Y-117238095D01*
X164351009Y-117238095D02*
X164398628Y-117142857D01*
X164398628Y-117142857D02*
X164398628Y-116761905D01*
X163874819Y-117666667D02*
X163874819Y-118285714D01*
X163874819Y-118285714D02*
X164255771Y-117952381D01*
X164255771Y-117952381D02*
X164255771Y-118095238D01*
X164255771Y-118095238D02*
X164303390Y-118190476D01*
X164303390Y-118190476D02*
X164351009Y-118238095D01*
X164351009Y-118238095D02*
X164446247Y-118285714D01*
X164446247Y-118285714D02*
X164684342Y-118285714D01*
X164684342Y-118285714D02*
X164779580Y-118238095D01*
X164779580Y-118238095D02*
X164827200Y-118190476D01*
X164827200Y-118190476D02*
X164874819Y-118095238D01*
X164874819Y-118095238D02*
X164874819Y-117809524D01*
X164874819Y-117809524D02*
X164827200Y-117714286D01*
X164827200Y-117714286D02*
X164779580Y-117666667D01*
X182521666Y-98250866D02*
X182521666Y-99250866D01*
X182521666Y-99250866D02*
X182588333Y-99450866D01*
X182588333Y-99450866D02*
X182721666Y-99584200D01*
X182721666Y-99584200D02*
X182921666Y-99650866D01*
X182921666Y-99650866D02*
X183055000Y-99650866D01*
X181921666Y-98384200D02*
X181854999Y-98317533D01*
X181854999Y-98317533D02*
X181721666Y-98250866D01*
X181721666Y-98250866D02*
X181388333Y-98250866D01*
X181388333Y-98250866D02*
X181254999Y-98317533D01*
X181254999Y-98317533D02*
X181188333Y-98384200D01*
X181188333Y-98384200D02*
X181121666Y-98517533D01*
X181121666Y-98517533D02*
X181121666Y-98650866D01*
X181121666Y-98650866D02*
X181188333Y-98850866D01*
X181188333Y-98850866D02*
X181988333Y-99650866D01*
X181988333Y-99650866D02*
X181121666Y-99650866D01*
X170521666Y-98088366D02*
X170521666Y-99088366D01*
X170521666Y-99088366D02*
X170588333Y-99288366D01*
X170588333Y-99288366D02*
X170721666Y-99421700D01*
X170721666Y-99421700D02*
X170921666Y-99488366D01*
X170921666Y-99488366D02*
X171055000Y-99488366D01*
X169121666Y-99488366D02*
X169921666Y-99488366D01*
X169521666Y-99488366D02*
X169521666Y-98088366D01*
X169521666Y-98088366D02*
X169654999Y-98288366D01*
X169654999Y-98288366D02*
X169788333Y-98421700D01*
X169788333Y-98421700D02*
X169921666Y-98488366D01*
X183866666Y-139034819D02*
X184199999Y-138558628D01*
X184438094Y-139034819D02*
X184438094Y-138034819D01*
X184438094Y-138034819D02*
X184057142Y-138034819D01*
X184057142Y-138034819D02*
X183961904Y-138082438D01*
X183961904Y-138082438D02*
X183914285Y-138130057D01*
X183914285Y-138130057D02*
X183866666Y-138225295D01*
X183866666Y-138225295D02*
X183866666Y-138368152D01*
X183866666Y-138368152D02*
X183914285Y-138463390D01*
X183914285Y-138463390D02*
X183961904Y-138511009D01*
X183961904Y-138511009D02*
X184057142Y-138558628D01*
X184057142Y-138558628D02*
X184438094Y-138558628D01*
X182914285Y-139034819D02*
X183485713Y-139034819D01*
X183199999Y-139034819D02*
X183199999Y-138034819D01*
X183199999Y-138034819D02*
X183295237Y-138177676D01*
X183295237Y-138177676D02*
X183390475Y-138272914D01*
X183390475Y-138272914D02*
X183485713Y-138320533D01*
X165666666Y-139034819D02*
X165999999Y-138558628D01*
X166238094Y-139034819D02*
X166238094Y-138034819D01*
X166238094Y-138034819D02*
X165857142Y-138034819D01*
X165857142Y-138034819D02*
X165761904Y-138082438D01*
X165761904Y-138082438D02*
X165714285Y-138130057D01*
X165714285Y-138130057D02*
X165666666Y-138225295D01*
X165666666Y-138225295D02*
X165666666Y-138368152D01*
X165666666Y-138368152D02*
X165714285Y-138463390D01*
X165714285Y-138463390D02*
X165761904Y-138511009D01*
X165761904Y-138511009D02*
X165857142Y-138558628D01*
X165857142Y-138558628D02*
X166238094Y-138558628D01*
X165285713Y-138130057D02*
X165238094Y-138082438D01*
X165238094Y-138082438D02*
X165142856Y-138034819D01*
X165142856Y-138034819D02*
X164904761Y-138034819D01*
X164904761Y-138034819D02*
X164809523Y-138082438D01*
X164809523Y-138082438D02*
X164761904Y-138130057D01*
X164761904Y-138130057D02*
X164714285Y-138225295D01*
X164714285Y-138225295D02*
X164714285Y-138320533D01*
X164714285Y-138320533D02*
X164761904Y-138463390D01*
X164761904Y-138463390D02*
X165333332Y-139034819D01*
X165333332Y-139034819D02*
X164714285Y-139034819D01*
%TO.C,D1*%
D11*
X165790000Y-128955000D02*
X165790000Y-132045000D01*
X160240000Y-130500000D02*
G75*
G02*
X165790000Y-128955170I2990000J0D01*
G01*
X165790000Y-132044830D02*
G75*
G02*
X160240000Y-130500000I-2560000J1544830D01*
G01*
X165730000Y-130500000D02*
G75*
G02*
X160730000Y-130500000I-2500000J0D01*
G01*
X160730000Y-130500000D02*
G75*
G02*
X165730000Y-130500000I2500000J0D01*
G01*
%TO.C,R4*%
X154080000Y-125430000D02*
X154560000Y-125430000D01*
X154080000Y-135570000D02*
X154080000Y-125430000D01*
X154560000Y-135570000D02*
X154080000Y-135570000D01*
X157440000Y-135570000D02*
X157920000Y-135570000D01*
X157920000Y-125430000D02*
X157440000Y-125430000D01*
X157920000Y-135570000D02*
X157920000Y-125430000D01*
%TO.C,U2*%
X172540000Y-124170000D02*
X174190000Y-124170000D01*
X172540000Y-134450000D02*
X172540000Y-124170000D01*
X176190000Y-124170000D02*
X177840000Y-124170000D01*
X177840000Y-124170000D02*
X177840000Y-134450000D01*
X177840000Y-134450000D02*
X172540000Y-134450000D01*
X176190000Y-124170000D02*
G75*
G02*
X174190000Y-124170000I-1000000J0D01*
G01*
%TO.C,R3*%
X159580000Y-112430000D02*
X160060000Y-112430000D01*
X159580000Y-122570000D02*
X159580000Y-112430000D01*
X160060000Y-122570000D02*
X159580000Y-122570000D01*
X162940000Y-122570000D02*
X163420000Y-122570000D01*
X163420000Y-112430000D02*
X162940000Y-112430000D01*
X163420000Y-122570000D02*
X163420000Y-112430000D01*
%TO.C,J2*%
D12*
X175500000Y-100900000D02*
X175500000Y-108500000D01*
X175500000Y-108500000D02*
X185500000Y-108500000D01*
X185500000Y-100900000D02*
X175500000Y-100900000D01*
X185500000Y-108500000D02*
X185500000Y-100900000D01*
D13*
X183100000Y-109500000D02*
G75*
G02*
X182900000Y-109500000I-100000J0D01*
G01*
X182900000Y-109500000D02*
G75*
G02*
X183100000Y-109500000I100000J0D01*
G01*
%TO.C,J1*%
D12*
X163500000Y-100737500D02*
X163500000Y-108337500D01*
X163500000Y-108337500D02*
X173500000Y-108337500D01*
X173500000Y-100737500D02*
X163500000Y-100737500D01*
X173500000Y-108337500D02*
X173500000Y-100737500D01*
D13*
X171100000Y-109337500D02*
G75*
G02*
X170900000Y-109337500I-100000J0D01*
G01*
X170900000Y-109337500D02*
G75*
G02*
X171100000Y-109337500I100000J0D01*
G01*
%TO.C,R1*%
D11*
X178630000Y-139580000D02*
X178630000Y-140060000D01*
X178630000Y-143420000D02*
X178630000Y-142940000D01*
X188770000Y-139580000D02*
X178630000Y-139580000D01*
X188770000Y-140060000D02*
X188770000Y-139580000D01*
X188770000Y-142940000D02*
X188770000Y-143420000D01*
X188770000Y-143420000D02*
X178630000Y-143420000D01*
%TO.C,R2*%
X160430000Y-139580000D02*
X160430000Y-140060000D01*
X160430000Y-143420000D02*
X160430000Y-142940000D01*
X170570000Y-139580000D02*
X160430000Y-139580000D01*
X170570000Y-140060000D02*
X170570000Y-139580000D01*
X170570000Y-142940000D02*
X170570000Y-143420000D01*
X170570000Y-143420000D02*
X160430000Y-143420000D01*
%TD*%
M02*
