%TF.GenerationSoftware,KiCad,Pcbnew,10.0.6*%
%TF.CreationDate,2026-09-08T22:18:16-04:00*%
%TF.ProjectId,onboarding_project,6f6e626f-6172-4646-996e-675f70726f6a,rev?*%
%TF.SameCoordinates,Original*%
%TF.FileFunction,Copper,L1,Top*%
%TF.FilePolarity,Positive*%
%FSLAX46Y46*%
G04 Gerber Fmt 4.6, Leading zero omitted, Abs format (unit mm)*
G04 Created by KiCad (PCBNEW 10.0.6) date 2026-09-08 22:18:16*
%MOMM*%
%LPD*%
G01*
G04 APERTURE LIST*
G04 Aperture macros list*
%AMRoundRect*
0 Rectangle with rounded corners*
0 $1 Rounding radius*
0 $2 $3 $4 $5 $6 $7 $8 $9 X,Y pos of 4 corners*
0 Add a 4 corners polygon primitive as box body*
4,1,4,$2,$3,$4,$5,$6,$7,$8,$9,$2,$3,0*
0 Add four circle primitives for the rounded corners*
1,1,$1+$1,$2,$3*
1,1,$1+$1,$4,$5*
1,1,$1+$1,$6,$7*
1,1,$1+$1,$8,$9*
0 Add four rect primitives between the rounded corners*
20,1,$1+$1,$2,$3,$4,$5,0*
20,1,$1+$1,$4,$5,$6,$7,0*
20,1,$1+$1,$6,$7,$8,$9,0*
20,1,$1+$1,$8,$9,$2,$3,0*%
G04 Aperture macros list end*
%TA.AperFunction,SMDPad,CuDef*%
%ADD10RoundRect,0.150000X-0.150000X0.825000X-0.150000X-0.825000X0.150000X-0.825000X0.150000X0.825000X0*%
%TD*%
%TA.AperFunction,SMDPad,CuDef*%
%ADD11RoundRect,0.250000X-0.250000X-0.475000X0.250000X-0.475000X0.250000X0.475000X-0.250000X0.475000X0*%
%TD*%
%TA.AperFunction,ComponentPad*%
%ADD12R,1.800000X1.800000*%
%TD*%
%TA.AperFunction,ComponentPad*%
%ADD13C,1.800000*%
%TD*%
%TA.AperFunction,ComponentPad*%
%ADD14C,2.400000*%
%TD*%
%TA.AperFunction,ComponentPad*%
%ADD15RoundRect,0.250000X0.550000X0.550000X-0.550000X0.550000X-0.550000X-0.550000X0.550000X-0.550000X0*%
%TD*%
%TA.AperFunction,ComponentPad*%
%ADD16C,1.600000*%
%TD*%
%TA.AperFunction,ComponentPad*%
%ADD17R,1.950000X1.950000*%
%TD*%
%TA.AperFunction,ComponentPad*%
%ADD18C,1.950000*%
%TD*%
%TA.AperFunction,Conductor*%
%ADD19C,0.500000*%
%TD*%
G04 APERTURE END LIST*
D10*
%TO.P,U1,1,IP+_1*%
%TO.N,Current+*%
X182405000Y-113525000D03*
%TO.P,U1,2,IP+_2*%
X181135000Y-113525000D03*
%TO.P,U1,3,IP-_3*%
%TO.N,Current-*%
X179865000Y-113525000D03*
%TO.P,U1,4,IP-_4*%
X178595000Y-113525000D03*
%TO.P,U1,5,GND_5*%
%TO.N,GND*%
X178595000Y-118475000D03*
%TO.P,U1,6,~{FAULT}_6*%
%TO.N,unconnected-(U1-~{FAULT}-Pad6)*%
X179865000Y-118475000D03*
%TO.P,U1,7,VIOUT_7*%
%TO.N,Net-(U1-VIOUT)*%
X181135000Y-118475000D03*
%TO.P,U1,8,VCC_8*%
%TO.N,+3V3*%
X182405000Y-118475000D03*
%TD*%
D11*
%TO.P,C1,1*%
%TO.N,+3V3*%
X184025000Y-121257500D03*
%TO.P,C1,2*%
%TO.N,GND*%
X185925000Y-121257500D03*
%TD*%
%TO.P,C2,1*%
%TO.N,GND*%
X166550000Y-125500000D03*
%TO.P,C2,2*%
%TO.N,+3V3*%
X168450000Y-125500000D03*
%TD*%
D12*
%TO.P,D1,1,K_1*%
%TO.N,Net-(D1-K)*%
X164500000Y-130500000D03*
D13*
%TO.P,D1,2,A_2*%
%TO.N,Net-(D1-A)*%
X161960000Y-130500000D03*
%TD*%
D14*
%TO.P,R4,1*%
%TO.N,Net-(D1-A)*%
X156000000Y-136850000D03*
%TO.P,R4,2*%
%TO.N,+3V3*%
X156000000Y-124150000D03*
%TD*%
D15*
%TO.P,U2,1,NC_1*%
%TO.N,unconnected-(U2-NC-Pad1)*%
X179000000Y-125500000D03*
D16*
%TO.P,U2,2,VIN-_2*%
%TO.N,Net-(U1-VIOUT)*%
X179000000Y-128040000D03*
%TO.P,U2,3,VIN+_3*%
%TO.N,Net-(U2-VIN+)*%
X179000000Y-130580000D03*
%TO.P,U2,4,VSS_4*%
%TO.N,GND*%
X179000000Y-133120000D03*
%TO.P,U2,5,NC_5*%
%TO.N,unconnected-(U2-NC-Pad5)*%
X171380000Y-133120000D03*
%TO.P,U2,6,OUT_6*%
%TO.N,Net-(D1-K)*%
X171380000Y-130580000D03*
%TO.P,U2,7,VDD_7*%
%TO.N,+3V3*%
X171380000Y-128040000D03*
%TO.P,U2,8,NC_8*%
%TO.N,unconnected-(U2-NC-Pad8)*%
X171380000Y-125500000D03*
%TD*%
D14*
%TO.P,R3,1*%
%TO.N,Net-(D1-K)*%
X161500000Y-123850000D03*
%TO.P,R3,2*%
%TO.N,+3V3*%
X161500000Y-111150000D03*
%TD*%
D17*
%TO.P,J2,1,Pin_1_1*%
%TO.N,Current+*%
X183000000Y-105000000D03*
D18*
%TO.P,J2,2,Pin_2_2*%
%TO.N,Current-*%
X178000000Y-105000000D03*
%TD*%
D17*
%TO.P,J1,1,Pin_1_1*%
%TO.N,+3V3*%
X171000000Y-104837500D03*
D18*
%TO.P,J1,2,Pin_2_2*%
%TO.N,GND*%
X166000000Y-104837500D03*
%TD*%
D14*
%TO.P,R1,1*%
%TO.N,+3V3*%
X190050000Y-141500000D03*
%TO.P,R1,2*%
%TO.N,Net-(U2-VIN+)*%
X177350000Y-141500000D03*
%TD*%
%TO.P,R2,1*%
%TO.N,Net-(U2-VIN+)*%
X171850000Y-141500000D03*
%TO.P,R2,2*%
%TO.N,GND*%
X159150000Y-141500000D03*
%TD*%
%TO.N,+3V3*%
D19*
X168450000Y-125500000D02*
X168840000Y-125500000D01*
X168450000Y-125500000D02*
X168450000Y-113450000D01*
X182405000Y-118475000D02*
X182405000Y-117493052D01*
X182405000Y-117493052D02*
X180411948Y-115500000D01*
X184025000Y-121257500D02*
X184025000Y-128025000D01*
X182405000Y-118475000D02*
X182405000Y-119637500D01*
X156000000Y-116650000D02*
X161500000Y-111150000D01*
X190050000Y-134050000D02*
X190050000Y-141500000D01*
X182405000Y-119637500D02*
X184025000Y-121257500D01*
X164687500Y-111150000D02*
X161500000Y-111150000D01*
X184025000Y-128025000D02*
X190050000Y-134050000D01*
X168840000Y-125500000D02*
X171380000Y-128040000D01*
X171000000Y-104837500D02*
X168418750Y-107418750D01*
X170500000Y-115500000D02*
X168450000Y-113450000D01*
X168450000Y-113450000D02*
X168450000Y-107450000D01*
X156000000Y-124150000D02*
X156000000Y-116650000D01*
X180411948Y-115500000D02*
X170500000Y-115500000D01*
X168450000Y-107450000D02*
X168418750Y-107418750D01*
X168418750Y-107418750D02*
X164687500Y-111150000D01*
%TO.N,Net-(D1-A)*%
X156000000Y-136460000D02*
X156000000Y-136850000D01*
X161960000Y-130500000D02*
X156000000Y-136460000D01*
%TO.N,Net-(D1-K)*%
X161500000Y-123850000D02*
X161500000Y-127500000D01*
X171300000Y-130500000D02*
X171380000Y-130580000D01*
X161500000Y-127500000D02*
X164500000Y-130500000D01*
X164500000Y-130500000D02*
X171300000Y-130500000D01*
%TO.N,Net-(U2-VIN+)*%
X177350000Y-141500000D02*
X181000000Y-137850000D01*
X181000000Y-137850000D02*
X181000000Y-132580000D01*
X181000000Y-132580000D02*
X179000000Y-130580000D01*
X174000000Y-141500000D02*
X177350000Y-141500000D01*
X171850000Y-141500000D02*
X174000000Y-141500000D01*
%TO.N,Net-(U1-VIOUT)*%
X181135000Y-125905000D02*
X181135000Y-118475000D01*
X179000000Y-128040000D02*
X181135000Y-125905000D01*
%TD*%
%TA.AperFunction,Conductor*%
%TO.N,Current+*%
G36*
X185893106Y-100005023D02*
G01*
X185908104Y-100009427D01*
X185966855Y-100047172D01*
X185968042Y-100048541D01*
X185995518Y-100103402D01*
X185997163Y-100110960D01*
X186000000Y-100137331D01*
X186000000Y-114858170D01*
X185994975Y-114893114D01*
X185990570Y-114908112D01*
X185952827Y-114966855D01*
X185951458Y-114968042D01*
X185896597Y-114995518D01*
X185889039Y-114997163D01*
X185862668Y-115000000D01*
X181749614Y-115000000D01*
X181714678Y-114994977D01*
X181689436Y-114987565D01*
X181636691Y-114956269D01*
X181226596Y-114546174D01*
X181222889Y-114543008D01*
X181223499Y-114542293D01*
X181204846Y-114524161D01*
X181192640Y-114508331D01*
X181168250Y-114451270D01*
X181166891Y-114442338D01*
X181165784Y-114423163D01*
X181165500Y-114423163D01*
X181165500Y-112628984D01*
X181159645Y-112544625D01*
X181159546Y-112541789D01*
X181159434Y-112540578D01*
X181158914Y-112538175D01*
X181158733Y-112537262D01*
X181158063Y-112534899D01*
X181144847Y-112478712D01*
X181148659Y-112408946D01*
X181176866Y-112363657D01*
X181255179Y-112283520D01*
X181368308Y-112114424D01*
X181445083Y-111926017D01*
X181464768Y-111858978D01*
X181484917Y-111778094D01*
X181505500Y-111575688D01*
X181505500Y-100124000D01*
X181525185Y-100056961D01*
X181577989Y-100011206D01*
X181629500Y-100000000D01*
X185858170Y-100000000D01*
X185893106Y-100005023D01*
G37*
%TD.AperFunction*%
%TD*%
%TA.AperFunction,Conductor*%
%TO.N,Current-*%
G36*
X180443039Y-100019685D02*
G01*
X180488794Y-100072489D01*
X180500000Y-100124000D01*
X180500000Y-111575688D01*
X180480315Y-111642727D01*
X180427511Y-111688482D01*
X180426096Y-111689118D01*
X180422776Y-111690584D01*
X180422762Y-111690591D01*
X180246858Y-111811088D01*
X180246852Y-111811093D01*
X180096093Y-111961852D01*
X180096088Y-111961858D01*
X179975592Y-112137761D01*
X179889467Y-112332817D01*
X179889465Y-112332823D01*
X179840652Y-112540359D01*
X179840650Y-112540375D01*
X179834500Y-112628984D01*
X179834500Y-114125500D01*
X179814815Y-114192539D01*
X179762011Y-114238294D01*
X179710500Y-114249500D01*
X175124000Y-114249500D01*
X175056961Y-114229815D01*
X175011206Y-114177011D01*
X175000000Y-114125500D01*
X175000000Y-100124000D01*
X175019685Y-100056961D01*
X175072489Y-100011206D01*
X175124000Y-100000000D01*
X180376000Y-100000000D01*
X180443039Y-100019685D01*
G37*
%TD.AperFunction*%
%TD*%
%TA.AperFunction,Conductor*%
%TO.N,GND*%
G36*
X193392606Y-98505523D02*
G01*
X193407604Y-98509927D01*
X193466355Y-98547672D01*
X193467542Y-98549041D01*
X193495018Y-98603902D01*
X193496663Y-98611460D01*
X193499500Y-98637831D01*
X193499500Y-145857670D01*
X193494475Y-145892614D01*
X193490070Y-145907612D01*
X193452327Y-145966355D01*
X193450958Y-145967542D01*
X193396097Y-145995018D01*
X193388539Y-145996663D01*
X193362168Y-145999500D01*
X152142330Y-145999500D01*
X152107389Y-145994475D01*
X152092390Y-145990070D01*
X152033644Y-145952327D01*
X152032457Y-145950958D01*
X152004977Y-145896083D01*
X152003332Y-145888521D01*
X152000500Y-145862168D01*
X152000500Y-141388574D01*
X157450000Y-141388574D01*
X157450000Y-141611424D01*
X157479083Y-141832344D01*
X157479086Y-141832357D01*
X157479091Y-141832382D01*
X157522921Y-141995959D01*
X157536763Y-142047618D01*
X157583403Y-142160216D01*
X157622047Y-142253508D01*
X157622058Y-142253527D01*
X157733466Y-142446494D01*
X157733478Y-142446511D01*
X157784039Y-142512402D01*
X157784040Y-142512403D01*
X157784043Y-142512403D01*
X158467094Y-141829351D01*
X158528415Y-141795868D01*
X158598106Y-141800852D01*
X158654040Y-141842723D01*
X158662157Y-141855031D01*
X158669881Y-141868408D01*
X158781592Y-141980119D01*
X158794964Y-141987839D01*
X158843179Y-142038407D01*
X158856401Y-142107014D01*
X158830433Y-142171879D01*
X158820644Y-142182907D01*
X158137595Y-142865954D01*
X158137595Y-142865957D01*
X158203505Y-142916532D01*
X158203507Y-142916533D01*
X158396485Y-143027949D01*
X158396497Y-143027954D01*
X158602381Y-143113236D01*
X158748557Y-143152403D01*
X158817616Y-143170907D01*
X158817620Y-143170907D01*
X158817632Y-143170911D01*
X158817645Y-143170914D01*
X159038575Y-143200000D01*
X159261418Y-143200000D01*
X159261425Y-143200000D01*
X159482354Y-143170914D01*
X159482367Y-143170911D01*
X159697618Y-143113236D01*
X159903502Y-143027954D01*
X159903514Y-143027949D01*
X160096498Y-142916530D01*
X160162403Y-142865957D01*
X160162404Y-142865956D01*
X160162403Y-142865955D01*
X160162404Y-142865955D01*
X159479354Y-142182907D01*
X159445869Y-142121584D01*
X159450853Y-142051893D01*
X159492724Y-141995959D01*
X159505022Y-141987846D01*
X159518408Y-141980119D01*
X159630119Y-141868408D01*
X159637839Y-141855035D01*
X159688402Y-141806821D01*
X159757009Y-141793596D01*
X159821875Y-141819562D01*
X159832907Y-141829354D01*
X160515955Y-142512404D01*
X160515955Y-142512403D01*
X160515956Y-142512404D01*
X160515957Y-142512403D01*
X160566530Y-142446498D01*
X160677949Y-142253514D01*
X160677954Y-142253502D01*
X160763236Y-142047618D01*
X160820911Y-141832367D01*
X160820914Y-141832354D01*
X160850000Y-141611424D01*
X160850000Y-141388575D01*
X160820914Y-141167645D01*
X160820911Y-141167632D01*
X160814836Y-141144961D01*
X160789562Y-141050633D01*
X160763236Y-140952381D01*
X160677954Y-140746497D01*
X160677949Y-140746485D01*
X160566533Y-140553507D01*
X160566532Y-140553505D01*
X160515957Y-140487595D01*
X160515956Y-140487595D01*
X160515955Y-140487595D01*
X160515954Y-140487595D01*
X159832906Y-141170643D01*
X159771583Y-141204128D01*
X159701891Y-141199144D01*
X159645958Y-141157272D01*
X159637838Y-141144961D01*
X159630122Y-141131598D01*
X159630119Y-141131592D01*
X159518408Y-141019881D01*
X159511586Y-141015942D01*
X159505032Y-141012158D01*
X159456817Y-140961590D01*
X159443596Y-140892983D01*
X159469565Y-140828118D01*
X159479343Y-140817101D01*
X160162403Y-140134043D01*
X160162403Y-140134040D01*
X160096504Y-140083473D01*
X160096491Y-140083464D01*
X159903520Y-139972054D01*
X159903508Y-139972047D01*
X159810216Y-139933403D01*
X159697618Y-139886763D01*
X159697611Y-139886761D01*
X159482382Y-139829091D01*
X159482367Y-139829088D01*
X159482354Y-139829085D01*
X159482350Y-139829084D01*
X159482344Y-139829083D01*
X159261426Y-139800000D01*
X159261425Y-139800000D01*
X159038575Y-139800000D01*
X159038574Y-139800000D01*
X158817654Y-139829083D01*
X158817641Y-139829086D01*
X158817616Y-139829091D01*
X158602387Y-139886761D01*
X158602383Y-139886762D01*
X158602381Y-139886763D01*
X158602379Y-139886764D01*
X158396490Y-139972047D01*
X158396471Y-139972058D01*
X158203508Y-140083463D01*
X158137595Y-140134040D01*
X158137595Y-140134043D01*
X158820645Y-140817092D01*
X158854130Y-140878415D01*
X158849146Y-140948106D01*
X158807274Y-141004040D01*
X158794967Y-141012159D01*
X158781592Y-141019881D01*
X158781589Y-141019883D01*
X158669883Y-141131589D01*
X158669881Y-141131592D01*
X158662159Y-141144967D01*
X158611590Y-141193181D01*
X158542983Y-141206402D01*
X158478119Y-141180433D01*
X158467092Y-141170645D01*
X157784043Y-140487595D01*
X157784040Y-140487595D01*
X157733463Y-140553508D01*
X157622058Y-140746471D01*
X157622047Y-140746490D01*
X157536764Y-140952379D01*
X157536761Y-140952387D01*
X157479091Y-141167616D01*
X157479086Y-141167641D01*
X157479083Y-141167654D01*
X157450000Y-141388574D01*
X152000500Y-141388574D01*
X152000500Y-124005783D01*
X153799500Y-124005783D01*
X153799500Y-124294215D01*
X153799501Y-124294244D01*
X153837148Y-124580201D01*
X153837149Y-124580206D01*
X153837150Y-124580211D01*
X153837151Y-124580217D01*
X153837152Y-124580219D01*
X153902832Y-124825343D01*
X153902839Y-124825369D01*
X153911809Y-124858844D01*
X153911814Y-124858860D01*
X153911816Y-124858864D01*
X153911817Y-124858868D01*
X154022193Y-125125342D01*
X154022195Y-125125345D01*
X154022198Y-125125350D01*
X154125347Y-125304009D01*
X154166420Y-125375148D01*
X154166431Y-125375164D01*
X154171668Y-125381989D01*
X154342017Y-125603994D01*
X154342021Y-125603999D01*
X154342024Y-125604002D01*
X154342030Y-125604009D01*
X154342038Y-125604017D01*
X154545976Y-125807956D01*
X154545992Y-125807971D01*
X154546000Y-125807977D01*
X154774851Y-125983580D01*
X154775077Y-125983710D01*
X154846569Y-126024986D01*
X155024647Y-126127800D01*
X155024653Y-126127803D01*
X155024663Y-126127808D01*
X155287097Y-126236511D01*
X155288915Y-126237341D01*
X155289400Y-126237525D01*
X155290970Y-126238148D01*
X155292254Y-126238504D01*
X155295412Y-126239408D01*
X155296913Y-126239734D01*
X155321840Y-126246413D01*
X155569783Y-126312849D01*
X155855772Y-126350500D01*
X155855779Y-126350500D01*
X156144221Y-126350500D01*
X156144228Y-126350500D01*
X156430217Y-126312849D01*
X156704998Y-126239221D01*
X156708209Y-126238473D01*
X156710595Y-126237527D01*
X156711074Y-126237345D01*
X156712901Y-126236511D01*
X156971302Y-126129478D01*
X156973162Y-126128784D01*
X156973622Y-126128578D01*
X156975412Y-126127804D01*
X156977048Y-126126895D01*
X156978770Y-126125826D01*
X157225156Y-125983575D01*
X157454004Y-125807974D01*
X157657974Y-125604004D01*
X157833575Y-125375156D01*
X157977804Y-125125345D01*
X157998590Y-125075164D01*
X158082617Y-124872302D01*
X158086508Y-124862909D01*
X158087338Y-124861089D01*
X158087520Y-124860611D01*
X158088474Y-124858204D01*
X158089221Y-124854998D01*
X158162849Y-124580217D01*
X158200500Y-124294228D01*
X158200500Y-124005772D01*
X158162849Y-123719783D01*
X158089734Y-123446913D01*
X158089408Y-123445412D01*
X158088504Y-123442254D01*
X158088148Y-123440970D01*
X158087525Y-123439400D01*
X158087341Y-123438915D01*
X158086511Y-123437097D01*
X157977809Y-123174666D01*
X157977803Y-123174653D01*
X157977800Y-123174648D01*
X157977800Y-123174647D01*
X157901833Y-123043069D01*
X157833710Y-122925077D01*
X157833580Y-122924851D01*
X157833580Y-122924850D01*
X157657977Y-122696000D01*
X157657971Y-122695992D01*
X157657956Y-122695976D01*
X157454014Y-122492034D01*
X157313156Y-122383949D01*
X157288497Y-122358695D01*
X157274860Y-122340018D01*
X157252848Y-122288188D01*
X157252342Y-122285285D01*
X157250500Y-122263993D01*
X157250500Y-117237164D01*
X157255522Y-117202231D01*
X157256111Y-117200226D01*
X157262934Y-117176986D01*
X157294228Y-117124244D01*
X161045611Y-113372860D01*
X161073861Y-113351713D01*
X161078925Y-113348948D01*
X161094163Y-113340627D01*
X161148430Y-113325567D01*
X161151385Y-113325444D01*
X161172700Y-113326397D01*
X161343991Y-113348948D01*
X161343992Y-113348949D01*
X161347448Y-113349404D01*
X161355756Y-113350498D01*
X161355772Y-113350500D01*
X161355779Y-113350500D01*
X161644221Y-113350500D01*
X161644228Y-113350500D01*
X161930217Y-113312849D01*
X162204998Y-113239221D01*
X162208209Y-113238473D01*
X162210595Y-113237527D01*
X162211074Y-113237345D01*
X162212901Y-113236511D01*
X162471302Y-113129478D01*
X162473162Y-113128784D01*
X162473622Y-113128578D01*
X162475412Y-113127804D01*
X162477048Y-113126895D01*
X162478770Y-113125826D01*
X162725156Y-112983575D01*
X162954004Y-112807974D01*
X163157974Y-112604004D01*
X163266051Y-112463154D01*
X163291296Y-112438503D01*
X163309980Y-112424860D01*
X163361817Y-112402847D01*
X163364721Y-112402341D01*
X163386006Y-112400500D01*
X164785921Y-112400500D01*
X164785922Y-112400500D01*
X164980326Y-112369709D01*
X165167526Y-112308884D01*
X165342905Y-112219524D01*
X165502146Y-112103828D01*
X166975214Y-110630759D01*
X167003457Y-110609615D01*
X167013391Y-110604191D01*
X167081661Y-110589338D01*
X167147126Y-110613752D01*
X167188999Y-110669684D01*
X167189001Y-110669688D01*
X167191682Y-110676876D01*
X167199500Y-110720210D01*
X167199500Y-124177726D01*
X167194475Y-124212667D01*
X167190564Y-124225984D01*
X167152787Y-124284760D01*
X167089232Y-124313781D01*
X167082463Y-124314754D01*
X167025817Y-124309722D01*
X166952707Y-124285496D01*
X166952694Y-124285493D01*
X166952699Y-124285493D01*
X166849993Y-124275000D01*
X166849986Y-124275000D01*
X166800000Y-124275000D01*
X166800000Y-126724999D01*
X166849960Y-126724999D01*
X166849972Y-126724999D01*
X166849986Y-126724998D01*
X166952697Y-126714505D01*
X167041534Y-126685067D01*
X167076267Y-126678847D01*
X167091895Y-126678309D01*
X167159566Y-126695674D01*
X167167770Y-126700556D01*
X167206278Y-126736493D01*
X167236180Y-126779653D01*
X167236181Y-126779654D01*
X167319686Y-126863159D01*
X167395347Y-126938820D01*
X167395361Y-126938830D01*
X167399538Y-126941724D01*
X167399537Y-126941724D01*
X167399543Y-126941727D01*
X167421620Y-126957022D01*
X167580367Y-127067003D01*
X167580371Y-127067005D01*
X167580374Y-127067007D01*
X167785317Y-127160096D01*
X167785321Y-127160097D01*
X167785323Y-127160097D01*
X167785397Y-127160123D01*
X167785532Y-127160150D01*
X167917777Y-127193473D01*
X168001716Y-127214625D01*
X168003768Y-127215176D01*
X168005649Y-127215366D01*
X168008406Y-127215475D01*
X168135783Y-127225500D01*
X168727836Y-127225499D01*
X168762770Y-127230522D01*
X168788007Y-127237932D01*
X168840754Y-127269228D01*
X169530573Y-127959047D01*
X169551723Y-127987299D01*
X169564331Y-128010388D01*
X169579500Y-128069817D01*
X169579500Y-128158011D01*
X169579503Y-128158035D01*
X169610305Y-128392006D01*
X169671395Y-128619997D01*
X169761716Y-128838051D01*
X169881760Y-129045972D01*
X169881467Y-129046140D01*
X169891500Y-129065456D01*
X169892513Y-129068074D01*
X169896458Y-129078278D01*
X169902270Y-129147905D01*
X169869516Y-129209622D01*
X169812192Y-129242949D01*
X169802597Y-129245460D01*
X169771204Y-129249500D01*
X166438643Y-129249500D01*
X166403708Y-129244477D01*
X166387003Y-129239572D01*
X166330409Y-129204251D01*
X166321800Y-129194832D01*
X166303423Y-129168590D01*
X166239698Y-129046593D01*
X166215958Y-129017479D01*
X166111109Y-128888890D01*
X166111107Y-128888888D01*
X166111106Y-128888887D01*
X166017807Y-128812813D01*
X166005704Y-128795167D01*
X165953404Y-128760300D01*
X165836935Y-128699462D01*
X165777013Y-128668161D01*
X165773836Y-128666353D01*
X165773042Y-128666088D01*
X165655829Y-128632550D01*
X165579981Y-128610847D01*
X165577825Y-128610179D01*
X165575347Y-128609777D01*
X165571936Y-128609626D01*
X165504631Y-128603642D01*
X165504631Y-128603641D01*
X165458038Y-128599500D01*
X165458037Y-128599500D01*
X165458033Y-128599500D01*
X164437166Y-128599500D01*
X164402230Y-128594477D01*
X164376988Y-128587065D01*
X164324243Y-128555769D01*
X162799426Y-127030952D01*
X162778274Y-127002696D01*
X162765667Y-126979607D01*
X162750500Y-126920182D01*
X162750500Y-126024995D01*
X165550001Y-126024995D01*
X165560493Y-126127694D01*
X165560493Y-126127695D01*
X165560494Y-126127697D01*
X165561088Y-126129489D01*
X165597619Y-126239734D01*
X165615641Y-126294119D01*
X165615643Y-126294124D01*
X165707684Y-126443345D01*
X165831654Y-126567315D01*
X165980875Y-126659356D01*
X165980880Y-126659358D01*
X166147299Y-126714504D01*
X166147300Y-126714504D01*
X166147302Y-126714505D01*
X166147309Y-126714506D01*
X166250019Y-126724999D01*
X166299999Y-126724998D01*
X166300000Y-126724998D01*
X166300000Y-125750000D01*
X165550001Y-125750000D01*
X165550001Y-126024995D01*
X162750500Y-126024995D01*
X162750500Y-125743088D01*
X162752117Y-125737580D01*
X162751100Y-125737550D01*
X162751185Y-125734688D01*
X162755295Y-125713009D01*
X162755518Y-125708169D01*
X162756063Y-125706312D01*
X162756539Y-125706451D01*
X162758442Y-125696418D01*
X162761343Y-125688348D01*
X162761346Y-125688339D01*
X162762247Y-125685270D01*
X162792429Y-125633643D01*
X162792756Y-125633309D01*
X162806046Y-125621505D01*
X162833731Y-125600262D01*
X162954004Y-125507974D01*
X163157974Y-125304004D01*
X163333575Y-125075156D01*
X163391397Y-124975007D01*
X165550000Y-124975007D01*
X165550000Y-124975013D01*
X165550000Y-125250000D01*
X166300000Y-125250000D01*
X166300000Y-124275000D01*
X166299999Y-124274999D01*
X166250048Y-124274999D01*
X166250021Y-124275000D01*
X166249983Y-124275003D01*
X166147308Y-124285493D01*
X166147300Y-124285494D01*
X165980887Y-124340638D01*
X165980879Y-124340641D01*
X165980877Y-124340642D01*
X165980875Y-124340643D01*
X165901609Y-124389535D01*
X165831652Y-124432685D01*
X165707685Y-124556652D01*
X165706325Y-124558857D01*
X165618064Y-124701951D01*
X165615641Y-124705879D01*
X165615638Y-124705888D01*
X165560494Y-124872299D01*
X165560493Y-124872304D01*
X165550000Y-124975007D01*
X163391397Y-124975007D01*
X163442914Y-124885777D01*
X163477800Y-124825352D01*
X163477808Y-124825336D01*
X163567870Y-124607903D01*
X163586508Y-124562909D01*
X163587343Y-124561078D01*
X163587527Y-124560595D01*
X163588473Y-124558209D01*
X163589221Y-124554998D01*
X163662849Y-124280217D01*
X163700500Y-123994228D01*
X163700500Y-123705772D01*
X163662849Y-123419783D01*
X163589734Y-123146913D01*
X163589408Y-123145412D01*
X163588504Y-123142254D01*
X163588148Y-123140970D01*
X163587525Y-123139400D01*
X163587341Y-123138915D01*
X163586511Y-123137097D01*
X163477809Y-122874666D01*
X163477803Y-122874653D01*
X163477800Y-122874648D01*
X163477800Y-122874647D01*
X163374653Y-122695992D01*
X163333710Y-122625077D01*
X163333580Y-122624851D01*
X163333580Y-122624850D01*
X163224349Y-122482498D01*
X163157989Y-122396015D01*
X163157980Y-122396004D01*
X163157975Y-122395997D01*
X163157969Y-122395990D01*
X162954009Y-122192030D01*
X162954002Y-122192024D01*
X162953999Y-122192021D01*
X162953994Y-122192017D01*
X162726754Y-122017651D01*
X162725479Y-122016639D01*
X162725154Y-122016423D01*
X162475350Y-121872198D01*
X162475345Y-121872195D01*
X162475332Y-121872189D01*
X162208869Y-121761817D01*
X162208851Y-121761810D01*
X162208840Y-121761807D01*
X161930221Y-121687152D01*
X161930219Y-121687151D01*
X161930217Y-121687151D01*
X161930211Y-121687150D01*
X161930206Y-121687149D01*
X161930201Y-121687148D01*
X161648328Y-121650039D01*
X161646312Y-121649705D01*
X161644238Y-121649500D01*
X161644233Y-121649500D01*
X161644228Y-121649500D01*
X161355772Y-121649500D01*
X161355766Y-121649500D01*
X161355761Y-121649500D01*
X161353684Y-121649705D01*
X161351670Y-121650039D01*
X161069814Y-121687146D01*
X161069782Y-121687150D01*
X161067973Y-121687577D01*
X161066197Y-121688111D01*
X160791150Y-121761810D01*
X160791130Y-121761817D01*
X160524656Y-121872193D01*
X160524653Y-121872195D01*
X160524648Y-121872198D01*
X160274855Y-122016417D01*
X160274838Y-122016429D01*
X160274824Y-122016439D01*
X160046004Y-122192017D01*
X160045989Y-122192031D01*
X160045981Y-122192038D01*
X159842038Y-122395981D01*
X159842032Y-122395988D01*
X159842017Y-122396004D01*
X159666439Y-122624824D01*
X159666429Y-122624838D01*
X159666417Y-122624855D01*
X159522198Y-122874648D01*
X159522195Y-122874653D01*
X159522193Y-122874656D01*
X159411817Y-123141130D01*
X159411815Y-123141136D01*
X159411814Y-123141139D01*
X159411809Y-123141155D01*
X159402831Y-123174663D01*
X159337153Y-123419772D01*
X159337150Y-123419789D01*
X159337147Y-123419802D01*
X159299501Y-123705754D01*
X159299500Y-123705783D01*
X159299500Y-123994215D01*
X159299501Y-123994244D01*
X159337148Y-124280201D01*
X159337152Y-124280221D01*
X159395383Y-124497544D01*
X159411805Y-124558831D01*
X159411807Y-124558840D01*
X159411809Y-124558844D01*
X159411809Y-124558845D01*
X159411817Y-124558868D01*
X159522193Y-124825342D01*
X159522194Y-124825343D01*
X159522195Y-124825345D01*
X159522199Y-124825352D01*
X159666420Y-125075148D01*
X159666431Y-125075164D01*
X159666432Y-125075165D01*
X159842017Y-125303994D01*
X159842021Y-125303999D01*
X159842024Y-125304002D01*
X159842030Y-125304009D01*
X160045990Y-125507969D01*
X160045997Y-125507975D01*
X160046010Y-125507985D01*
X160046015Y-125507989D01*
X160186840Y-125616047D01*
X160211496Y-125641296D01*
X160225136Y-125659975D01*
X160247150Y-125711795D01*
X160247656Y-125714696D01*
X160249500Y-125736003D01*
X160249500Y-127598427D01*
X160280289Y-127792822D01*
X160341116Y-127980028D01*
X160341119Y-127980035D01*
X160368095Y-128032976D01*
X160368095Y-128032978D01*
X160368096Y-128032978D01*
X160430476Y-128155405D01*
X160546172Y-128314646D01*
X160546174Y-128314648D01*
X160930988Y-128699462D01*
X160952139Y-128727715D01*
X160958791Y-128739897D01*
X160973643Y-128808170D01*
X160949227Y-128873635D01*
X160949221Y-128873643D01*
X160945461Y-128878665D01*
X160915775Y-128900883D01*
X160918117Y-128903935D01*
X160704232Y-129068053D01*
X160704217Y-129068067D01*
X160704209Y-129068074D01*
X160528074Y-129244209D01*
X160528067Y-129244217D01*
X160528053Y-129244232D01*
X160376399Y-129441873D01*
X160298075Y-129577536D01*
X160251837Y-129657623D01*
X160251833Y-129657630D01*
X160251830Y-129657637D01*
X160251824Y-129657650D01*
X160156499Y-129887786D01*
X160092016Y-130128439D01*
X160059501Y-130375417D01*
X160059500Y-130375446D01*
X160059500Y-130562833D01*
X160054476Y-130597770D01*
X160047064Y-130623011D01*
X160015769Y-130675755D01*
X156090952Y-134600573D01*
X156062701Y-134621722D01*
X156039613Y-134634330D01*
X155980183Y-134649500D01*
X155855761Y-134649500D01*
X155853684Y-134649705D01*
X155851670Y-134650039D01*
X155569814Y-134687146D01*
X155569782Y-134687150D01*
X155567973Y-134687577D01*
X155566197Y-134688111D01*
X155378967Y-134738280D01*
X155291150Y-134761810D01*
X155291130Y-134761817D01*
X155024656Y-134872193D01*
X155024653Y-134872195D01*
X155024648Y-134872198D01*
X154774855Y-135016417D01*
X154774838Y-135016429D01*
X154774824Y-135016439D01*
X154546004Y-135192017D01*
X154545989Y-135192031D01*
X154545981Y-135192038D01*
X154342038Y-135395981D01*
X154342031Y-135395989D01*
X154342017Y-135396004D01*
X154166439Y-135624824D01*
X154166429Y-135624838D01*
X154166417Y-135624855D01*
X154022198Y-135874648D01*
X154022195Y-135874653D01*
X154022193Y-135874656D01*
X153911817Y-136141130D01*
X153911815Y-136141136D01*
X153911814Y-136141139D01*
X153911809Y-136141155D01*
X153893466Y-136209612D01*
X153837153Y-136419772D01*
X153837150Y-136419789D01*
X153837147Y-136419802D01*
X153799501Y-136705754D01*
X153799500Y-136705783D01*
X153799500Y-136994215D01*
X153799501Y-136994244D01*
X153837148Y-137280204D01*
X153837149Y-137280206D01*
X153837150Y-137280211D01*
X153837151Y-137280217D01*
X153855234Y-137347702D01*
X153911809Y-137558844D01*
X153911814Y-137558860D01*
X153911816Y-137558865D01*
X153911817Y-137558868D01*
X154022193Y-137825342D01*
X154022195Y-137825345D01*
X154022199Y-137825352D01*
X154166420Y-138075148D01*
X154166431Y-138075164D01*
X154166439Y-138075174D01*
X154342017Y-138303994D01*
X154342021Y-138303999D01*
X154342024Y-138304002D01*
X154342030Y-138304009D01*
X154342038Y-138304017D01*
X154545976Y-138507956D01*
X154545990Y-138507969D01*
X154545996Y-138507974D01*
X154750175Y-138664646D01*
X154774851Y-138683580D01*
X154775077Y-138683710D01*
X154893069Y-138751833D01*
X155024647Y-138827800D01*
X155024663Y-138827808D01*
X155157572Y-138882860D01*
X155287097Y-138936511D01*
X155288915Y-138937341D01*
X155289400Y-138937525D01*
X155290970Y-138938148D01*
X155292254Y-138938504D01*
X155295412Y-138939408D01*
X155296913Y-138939734D01*
X155327606Y-138947958D01*
X155569783Y-139012849D01*
X155855772Y-139050500D01*
X155855779Y-139050500D01*
X156144221Y-139050500D01*
X156144228Y-139050500D01*
X156430217Y-139012849D01*
X156704998Y-138939221D01*
X156708209Y-138938473D01*
X156710595Y-138937527D01*
X156711074Y-138937345D01*
X156712901Y-138936511D01*
X156971302Y-138829478D01*
X156973162Y-138828784D01*
X156973622Y-138828578D01*
X156975412Y-138827804D01*
X156977048Y-138826895D01*
X156978770Y-138825826D01*
X157225156Y-138683575D01*
X157454004Y-138507974D01*
X157657974Y-138304004D01*
X157833575Y-138075156D01*
X157977804Y-137825345D01*
X158088182Y-137558868D01*
X158088185Y-137558860D01*
X158088185Y-137558857D01*
X158088191Y-137558845D01*
X158162849Y-137280217D01*
X158200500Y-136994228D01*
X158200500Y-136705772D01*
X158162849Y-136419783D01*
X158111147Y-136226830D01*
X158106958Y-136191787D01*
X158107406Y-136172982D01*
X158125489Y-136111399D01*
X158130910Y-136102505D01*
X158149107Y-136079364D01*
X161779049Y-132449423D01*
X161807299Y-132428275D01*
X161830391Y-132415667D01*
X161889816Y-132400500D01*
X162084558Y-132400500D01*
X162084565Y-132400500D01*
X162331565Y-132367982D01*
X162572207Y-132303502D01*
X162753137Y-132228557D01*
X162798321Y-132209842D01*
X162801523Y-132208647D01*
X162803266Y-132207759D01*
X162805803Y-132206183D01*
X162833203Y-132190364D01*
X162865958Y-132177250D01*
X162881152Y-132173564D01*
X162950937Y-132176884D01*
X162962531Y-132180897D01*
X163000327Y-132201972D01*
X163046593Y-132239698D01*
X163226951Y-132333909D01*
X163422582Y-132389886D01*
X163541963Y-132400500D01*
X165458036Y-132400499D01*
X165577418Y-132389886D01*
X165773049Y-132333909D01*
X165953407Y-132239698D01*
X166111109Y-132111109D01*
X166239698Y-131953407D01*
X166302652Y-131832886D01*
X166323271Y-131804256D01*
X166335358Y-131791715D01*
X166392869Y-131757906D01*
X166405206Y-131754636D01*
X166436969Y-131750500D01*
X169892097Y-131750500D01*
X169927028Y-131755522D01*
X169938997Y-131759036D01*
X169997776Y-131796808D01*
X170026803Y-131860363D01*
X170018342Y-131926148D01*
X170014493Y-131935286D01*
X169998593Y-131962638D01*
X169879736Y-132117535D01*
X169879730Y-132117545D01*
X169761719Y-132321942D01*
X169761715Y-132321950D01*
X169671395Y-132540001D01*
X169610305Y-132767992D01*
X169579503Y-133001963D01*
X169579500Y-133001987D01*
X169579500Y-133238011D01*
X169579503Y-133238035D01*
X169610305Y-133472006D01*
X169671395Y-133699997D01*
X169761715Y-133918048D01*
X169761724Y-133918065D01*
X169832675Y-134040954D01*
X169832677Y-134040957D01*
X169879723Y-134122445D01*
X169879725Y-134122447D01*
X169879944Y-134122776D01*
X169880947Y-134124040D01*
X170023399Y-134309689D01*
X170023403Y-134309694D01*
X170023406Y-134309697D01*
X170023412Y-134309704D01*
X170190295Y-134476587D01*
X170190302Y-134476593D01*
X170190315Y-134476603D01*
X170190320Y-134476607D01*
X170300306Y-134561001D01*
X170300307Y-134561002D01*
X170377539Y-134620265D01*
X170377542Y-134620267D01*
X170377550Y-134620273D01*
X170493383Y-134687149D01*
X170493384Y-134687150D01*
X170578503Y-134736294D01*
X170580241Y-134737374D01*
X170581710Y-134738189D01*
X170582427Y-134738481D01*
X170800007Y-134828606D01*
X171027986Y-134889693D01*
X171261989Y-134920500D01*
X171261996Y-134920500D01*
X171498004Y-134920500D01*
X171498011Y-134920500D01*
X171732014Y-134889693D01*
X171959993Y-134828606D01*
X172178049Y-134738284D01*
X172382450Y-134620273D01*
X172569699Y-134476592D01*
X172736592Y-134309699D01*
X172880273Y-134122450D01*
X172998284Y-133918049D01*
X173088606Y-133699993D01*
X173149693Y-133472014D01*
X173180500Y-133238011D01*
X173180500Y-133001989D01*
X173149693Y-132767986D01*
X173088606Y-132540007D01*
X172998481Y-132322427D01*
X172998189Y-132321710D01*
X172997376Y-132320245D01*
X172996294Y-132318503D01*
X172978205Y-132287173D01*
X172932589Y-132208164D01*
X172880273Y-132117550D01*
X172751697Y-131949986D01*
X172746453Y-131943151D01*
X172732352Y-131919860D01*
X172723792Y-131901410D01*
X172713433Y-131832318D01*
X172714268Y-131826257D01*
X172732788Y-131776152D01*
X172735900Y-131771309D01*
X172741842Y-131762858D01*
X172788812Y-131701643D01*
X172788814Y-131701641D01*
X172880273Y-131582450D01*
X172998284Y-131378049D01*
X173088606Y-131159993D01*
X173149693Y-130932014D01*
X173180500Y-130698011D01*
X173180500Y-130461989D01*
X173149693Y-130227986D01*
X173088606Y-130000007D01*
X172998489Y-129782447D01*
X172998189Y-129781708D01*
X172997382Y-129780255D01*
X172996297Y-129778509D01*
X172956118Y-129708918D01*
X172880273Y-129577550D01*
X172880272Y-129577548D01*
X172776165Y-129441873D01*
X172746459Y-129403159D01*
X172732352Y-129379860D01*
X172723792Y-129361410D01*
X172713433Y-129292318D01*
X172714268Y-129286257D01*
X172732788Y-129236152D01*
X172735900Y-129231309D01*
X172741842Y-129222858D01*
X172788812Y-129161643D01*
X172788814Y-129161641D01*
X172880273Y-129042450D01*
X172998284Y-128838049D01*
X173088606Y-128619993D01*
X173149693Y-128392014D01*
X173180500Y-128158011D01*
X173180500Y-127921989D01*
X173149693Y-127687986D01*
X173088606Y-127460007D01*
X172998489Y-127242447D01*
X172998189Y-127241708D01*
X172997382Y-127240255D01*
X172996297Y-127238509D01*
X172982825Y-127215176D01*
X172956118Y-127168918D01*
X172880273Y-127037550D01*
X172880272Y-127037548D01*
X172794797Y-126926155D01*
X172746459Y-126863159D01*
X172732352Y-126839860D01*
X172723792Y-126821410D01*
X172713433Y-126752318D01*
X172714268Y-126746257D01*
X172732781Y-126696162D01*
X172733094Y-126695675D01*
X172734619Y-126693302D01*
X172734618Y-126693301D01*
X172735893Y-126691318D01*
X172741831Y-126682871D01*
X172830500Y-126567315D01*
X172830501Y-126567313D01*
X172830503Y-126567312D01*
X172852778Y-126538281D01*
X172880273Y-126502450D01*
X172998284Y-126298049D01*
X173088606Y-126079993D01*
X173149693Y-125852014D01*
X173180500Y-125618011D01*
X173180500Y-125381989D01*
X173149693Y-125147986D01*
X173088606Y-124920007D01*
X172998481Y-124702427D01*
X172998189Y-124701710D01*
X172997376Y-124700245D01*
X172996294Y-124698503D01*
X172986012Y-124680694D01*
X172928002Y-124580219D01*
X172880273Y-124497550D01*
X172789321Y-124379019D01*
X172736593Y-124310302D01*
X172736587Y-124310295D01*
X172569704Y-124143412D01*
X172569697Y-124143406D01*
X172569694Y-124143403D01*
X172569689Y-124143399D01*
X172384040Y-124000947D01*
X172382776Y-123999944D01*
X172382447Y-123999725D01*
X172382445Y-123999723D01*
X172300957Y-123952677D01*
X172300955Y-123952675D01*
X172178065Y-123881724D01*
X172178048Y-123881715D01*
X171959997Y-123791395D01*
X171861131Y-123764904D01*
X171739865Y-123732410D01*
X171732117Y-123729780D01*
X171723951Y-123729245D01*
X171499889Y-123699747D01*
X171498208Y-123699500D01*
X171498017Y-123699500D01*
X171498011Y-123699500D01*
X171261989Y-123699500D01*
X171261983Y-123699500D01*
X171261981Y-123699500D01*
X171255861Y-123700253D01*
X171254955Y-123700425D01*
X171027992Y-123730305D01*
X170800001Y-123791395D01*
X170581950Y-123881715D01*
X170581942Y-123881719D01*
X170377545Y-123999730D01*
X170377536Y-123999736D01*
X170190309Y-124143399D01*
X170190294Y-124143413D01*
X170190286Y-124143420D01*
X170023425Y-124310280D01*
X170023413Y-124310293D01*
X170023404Y-124310303D01*
X169981529Y-124364876D01*
X169956274Y-124389535D01*
X169945068Y-124397717D01*
X169879317Y-124421352D01*
X169811230Y-124405689D01*
X169805051Y-124402219D01*
X169763840Y-124364717D01*
X169732723Y-124319802D01*
X169716959Y-124288230D01*
X169706804Y-124257615D01*
X169700500Y-124218580D01*
X169700500Y-116716282D01*
X169705522Y-116681349D01*
X169709433Y-116668030D01*
X169747206Y-116609253D01*
X169810758Y-116580228D01*
X169814076Y-116579751D01*
X169869179Y-116584285D01*
X169871050Y-116584878D01*
X169889879Y-116592597D01*
X169966061Y-116631414D01*
X170019973Y-116658884D01*
X170019979Y-116658886D01*
X170020044Y-116658908D01*
X170089335Y-116681421D01*
X170089340Y-116681422D01*
X170141753Y-116698452D01*
X170141754Y-116698453D01*
X170163561Y-116705538D01*
X170207173Y-116719709D01*
X170401578Y-116750500D01*
X170401583Y-116750500D01*
X170401584Y-116750500D01*
X170598417Y-116750500D01*
X178683546Y-116750500D01*
X178718480Y-116755523D01*
X178731364Y-116759306D01*
X178790142Y-116797080D01*
X178819168Y-116860635D01*
X178811963Y-116923317D01*
X178808854Y-116931293D01*
X178795621Y-116956336D01*
X178705592Y-117087760D01*
X178619464Y-117282824D01*
X178593787Y-117391995D01*
X178580908Y-117424836D01*
X178577892Y-117430147D01*
X178527670Y-117478722D01*
X178459159Y-117492434D01*
X178394111Y-117466930D01*
X178353177Y-117410306D01*
X178353166Y-117410276D01*
X178352838Y-117409350D01*
X178352100Y-117407265D01*
X178345000Y-117365905D01*
X178345000Y-117002703D01*
X178342505Y-117002899D01*
X178342497Y-117002901D01*
X178184833Y-117048707D01*
X178184802Y-117048717D01*
X178184799Y-117048718D01*
X178043452Y-117132310D01*
X178043447Y-117132313D01*
X178043436Y-117132322D01*
X177927322Y-117248436D01*
X177927313Y-117248447D01*
X177927310Y-117248452D01*
X177843718Y-117389799D01*
X177843717Y-117389802D01*
X177843707Y-117389833D01*
X177797902Y-117547493D01*
X177797901Y-117547497D01*
X177797900Y-117547504D01*
X177797899Y-117547510D01*
X177795000Y-117584350D01*
X177795000Y-118225000D01*
X178345000Y-118225000D01*
X178348597Y-118223509D01*
X178368457Y-118208641D01*
X178378391Y-118203217D01*
X178446661Y-118188364D01*
X178512126Y-118212778D01*
X178553999Y-118268710D01*
X178554001Y-118268714D01*
X178556682Y-118275902D01*
X178564500Y-118319236D01*
X178564500Y-118627308D01*
X178559476Y-118662246D01*
X178556289Y-118673099D01*
X178518514Y-118731876D01*
X178454957Y-118760899D01*
X178385807Y-118750958D01*
X178378829Y-118747771D01*
X178347558Y-118726059D01*
X178345000Y-118725000D01*
X178344999Y-118725000D01*
X177795000Y-118725000D01*
X177795000Y-119365654D01*
X177797899Y-119402487D01*
X177797901Y-119402501D01*
X177797902Y-119402505D01*
X177843707Y-119560165D01*
X177843717Y-119560196D01*
X177843718Y-119560199D01*
X177927310Y-119701546D01*
X177927314Y-119701552D01*
X177927321Y-119701561D01*
X178043438Y-119817678D01*
X178043447Y-119817685D01*
X178184801Y-119901281D01*
X178249408Y-119920050D01*
X178284660Y-119942563D01*
X178342509Y-119947098D01*
X178342514Y-119947100D01*
X178342511Y-119947100D01*
X178344998Y-119947295D01*
X178345000Y-119947295D01*
X178345000Y-119947294D01*
X178345000Y-119586868D01*
X178350018Y-119551951D01*
X178350647Y-119549805D01*
X178351739Y-119546088D01*
X178389503Y-119487306D01*
X178453055Y-119458272D01*
X178522215Y-119468205D01*
X178575025Y-119513952D01*
X178575027Y-119513955D01*
X178576753Y-119516640D01*
X178593152Y-119555302D01*
X178619463Y-119667169D01*
X178619465Y-119667176D01*
X178619467Y-119667182D01*
X178619468Y-119667185D01*
X178705591Y-119862237D01*
X178705592Y-119862238D01*
X178826088Y-120038141D01*
X178826093Y-120038147D01*
X178826098Y-120038152D01*
X178826105Y-120038160D01*
X178976838Y-120188893D01*
X178976852Y-120188906D01*
X178976858Y-120188911D01*
X179152763Y-120309409D01*
X179345166Y-120394362D01*
X179347994Y-120395693D01*
X179348172Y-120395741D01*
X179351777Y-120396463D01*
X179458867Y-120421651D01*
X179549898Y-120443063D01*
X179552254Y-120443731D01*
X179553182Y-120443915D01*
X179555579Y-120444434D01*
X179556781Y-120444545D01*
X179559615Y-120444643D01*
X179604600Y-120447765D01*
X179604601Y-120447766D01*
X179604602Y-120447766D01*
X179643982Y-120450500D01*
X179643984Y-120450500D01*
X179643988Y-120450500D01*
X179742670Y-120450500D01*
X179777606Y-120455523D01*
X179792604Y-120459927D01*
X179851355Y-120497672D01*
X179852542Y-120499041D01*
X179880018Y-120553902D01*
X179881663Y-120561460D01*
X179884500Y-120587831D01*
X179884500Y-123568799D01*
X179879474Y-123603743D01*
X179875197Y-123618305D01*
X179837419Y-123677080D01*
X179777807Y-123705468D01*
X179766334Y-123707496D01*
X179735023Y-123709007D01*
X179693772Y-123705761D01*
X179693770Y-123705761D01*
X179614222Y-123699500D01*
X179614217Y-123699500D01*
X179614215Y-123699500D01*
X178385791Y-123699500D01*
X178385787Y-123699500D01*
X178253584Y-123709903D01*
X178253580Y-123709904D01*
X178253569Y-123709906D01*
X178035330Y-123764899D01*
X178035309Y-123764906D01*
X177830384Y-123857986D01*
X177830374Y-123857992D01*
X177830368Y-123857995D01*
X177830362Y-123857999D01*
X177645359Y-123986169D01*
X177645349Y-123986177D01*
X177645346Y-123986180D01*
X177645328Y-123986196D01*
X177486196Y-124145328D01*
X177486180Y-124145346D01*
X177486177Y-124145349D01*
X177486169Y-124145359D01*
X177357999Y-124330362D01*
X177357995Y-124330368D01*
X177357992Y-124330374D01*
X177357986Y-124330384D01*
X177264906Y-124535309D01*
X177264899Y-124535330D01*
X177209906Y-124753569D01*
X177209904Y-124753580D01*
X177209904Y-124753583D01*
X177199500Y-124885771D01*
X177199500Y-126114211D01*
X177209903Y-126246414D01*
X177209904Y-126246418D01*
X177209906Y-126246429D01*
X177264899Y-126464668D01*
X177264906Y-126464689D01*
X177357986Y-126669614D01*
X177357992Y-126669624D01*
X177357995Y-126669630D01*
X177357999Y-126669636D01*
X177486159Y-126854625D01*
X177486182Y-126854655D01*
X177489062Y-126857976D01*
X177488825Y-126858181D01*
X177488827Y-126858183D01*
X177488799Y-126858203D01*
X177488452Y-126858504D01*
X177504904Y-126880481D01*
X177512395Y-126894200D01*
X177527246Y-126962466D01*
X177526811Y-126968552D01*
X177511361Y-127020221D01*
X177511290Y-127020348D01*
X177501449Y-127035303D01*
X177499727Y-127037547D01*
X177499725Y-127037550D01*
X177428973Y-127160097D01*
X177381719Y-127241943D01*
X177381717Y-127241947D01*
X177381716Y-127241947D01*
X177291395Y-127460001D01*
X177230305Y-127687992D01*
X177199503Y-127921963D01*
X177199500Y-127921987D01*
X177199500Y-128158011D01*
X177199503Y-128158035D01*
X177230305Y-128392006D01*
X177291395Y-128619997D01*
X177381715Y-128838048D01*
X177381724Y-128838065D01*
X177452675Y-128960954D01*
X177452677Y-128960957D01*
X177499723Y-129042445D01*
X177499725Y-129042447D01*
X177499944Y-129042776D01*
X177500947Y-129044040D01*
X177633557Y-129216862D01*
X177647681Y-129240197D01*
X177656223Y-129258624D01*
X177666559Y-129327725D01*
X177665951Y-129332127D01*
X177665720Y-129333802D01*
X177647205Y-129383868D01*
X177644136Y-129388644D01*
X177638193Y-129397096D01*
X177499736Y-129577536D01*
X177499730Y-129577545D01*
X177381719Y-129781942D01*
X177381715Y-129781950D01*
X177291395Y-130000001D01*
X177230305Y-130227992D01*
X177199503Y-130461963D01*
X177199500Y-130461987D01*
X177199500Y-130698011D01*
X177199503Y-130698035D01*
X177230305Y-130932006D01*
X177291395Y-131159997D01*
X177381715Y-131378048D01*
X177381724Y-131378065D01*
X177452675Y-131500954D01*
X177452677Y-131500957D01*
X177499723Y-131582445D01*
X177499725Y-131582447D01*
X177499944Y-131582776D01*
X177500947Y-131584040D01*
X177643399Y-131769689D01*
X177643403Y-131769694D01*
X177643406Y-131769697D01*
X177643412Y-131769704D01*
X177643420Y-131769712D01*
X177810281Y-131936574D01*
X177810297Y-131936589D01*
X177810301Y-131936592D01*
X177997548Y-132080272D01*
X177997550Y-132080273D01*
X178128918Y-132156118D01*
X178128919Y-132156119D01*
X178144265Y-132164979D01*
X178201943Y-132198280D01*
X178201959Y-132198288D01*
X178301933Y-132239698D01*
X178301936Y-132239699D01*
X178301937Y-132239700D01*
X178355432Y-132261858D01*
X178420007Y-132288606D01*
X178511687Y-132313171D01*
X178541594Y-132325559D01*
X178568908Y-132341329D01*
X178594588Y-132361035D01*
X178817054Y-132583501D01*
X178850539Y-132644824D01*
X178845555Y-132714516D01*
X178803683Y-132770449D01*
X178791374Y-132778568D01*
X178754400Y-132799915D01*
X178754392Y-132799921D01*
X178679921Y-132874392D01*
X178679915Y-132874400D01*
X178658568Y-132911374D01*
X178608001Y-132959589D01*
X178539393Y-132972811D01*
X178474529Y-132946843D01*
X178463501Y-132937054D01*
X177920524Y-132394077D01*
X177920523Y-132394077D01*
X177920522Y-132394077D01*
X177888145Y-132438640D01*
X177795245Y-132620963D01*
X177764848Y-132714516D01*
X177732009Y-132815582D01*
X177732008Y-132815585D01*
X177732008Y-132815587D01*
X177700000Y-133017676D01*
X177700000Y-133222322D01*
X177727286Y-133394595D01*
X177732009Y-133424417D01*
X177795244Y-133619031D01*
X177888141Y-133801350D01*
X177888145Y-133801357D01*
X177920517Y-133845914D01*
X177920521Y-133845919D01*
X177920523Y-133845921D01*
X177920524Y-133845922D01*
X178463503Y-133302942D01*
X178524824Y-133269459D01*
X178594515Y-133274443D01*
X178650449Y-133316314D01*
X178658567Y-133328622D01*
X178679920Y-133365606D01*
X178754394Y-133440080D01*
X178791372Y-133461429D01*
X178839587Y-133511995D01*
X178852811Y-133580602D01*
X178826843Y-133645467D01*
X178817053Y-133656497D01*
X178274075Y-134199473D01*
X178274076Y-134199473D01*
X178274076Y-134199474D01*
X178318650Y-134231859D01*
X178404786Y-134275747D01*
X178500963Y-134324753D01*
X178500965Y-134324753D01*
X178500968Y-134324755D01*
X178695582Y-134387990D01*
X178897683Y-134420000D01*
X179102316Y-134420000D01*
X179102317Y-134420000D01*
X179304417Y-134387990D01*
X179499033Y-134324754D01*
X179553325Y-134297090D01*
X179586723Y-134285709D01*
X179600372Y-134283146D01*
X179669891Y-134290120D01*
X179724605Y-134333574D01*
X179724617Y-134333590D01*
X179726540Y-134336319D01*
X179747498Y-134387411D01*
X179747821Y-134389354D01*
X179749500Y-134409688D01*
X179749500Y-137262833D01*
X179744476Y-137297770D01*
X179737064Y-137323011D01*
X179705769Y-137375755D01*
X177804390Y-139277133D01*
X177776135Y-139298285D01*
X177755834Y-139309370D01*
X177701595Y-139324428D01*
X177698657Y-139324551D01*
X177677285Y-139323599D01*
X177498328Y-139300039D01*
X177496312Y-139299705D01*
X177494238Y-139299500D01*
X177494233Y-139299500D01*
X177494228Y-139299500D01*
X177205772Y-139299500D01*
X177205766Y-139299500D01*
X177205761Y-139299500D01*
X177203684Y-139299705D01*
X177201670Y-139300039D01*
X176919814Y-139337146D01*
X176919782Y-139337150D01*
X176917973Y-139337577D01*
X176916197Y-139338111D01*
X176641150Y-139411810D01*
X176641130Y-139411817D01*
X176374656Y-139522193D01*
X176374653Y-139522195D01*
X176374648Y-139522198D01*
X176124855Y-139666417D01*
X176124838Y-139666429D01*
X176124824Y-139666439D01*
X175896004Y-139842017D01*
X175895989Y-139842031D01*
X175895981Y-139842038D01*
X175692038Y-140045981D01*
X175692031Y-140045989D01*
X175692022Y-140045999D01*
X175692009Y-140046016D01*
X175583950Y-140186842D01*
X175558696Y-140211502D01*
X175540019Y-140225139D01*
X175488230Y-140247144D01*
X175485327Y-140247651D01*
X175463994Y-140249500D01*
X173743108Y-140249500D01*
X173708172Y-140244477D01*
X173685978Y-140237960D01*
X173636978Y-140210255D01*
X173634798Y-140208250D01*
X173620377Y-140192482D01*
X173536735Y-140083478D01*
X173507981Y-140046004D01*
X173507977Y-140046000D01*
X173507975Y-140045997D01*
X173507969Y-140045990D01*
X173304009Y-139842030D01*
X173304002Y-139842024D01*
X173303999Y-139842021D01*
X173303994Y-139842017D01*
X173076754Y-139667651D01*
X173075479Y-139666639D01*
X173075154Y-139666423D01*
X172825350Y-139522198D01*
X172825345Y-139522195D01*
X172825332Y-139522189D01*
X172558869Y-139411817D01*
X172558851Y-139411810D01*
X172558840Y-139411807D01*
X172280221Y-139337152D01*
X172280219Y-139337151D01*
X172280217Y-139337151D01*
X172280211Y-139337150D01*
X172280206Y-139337149D01*
X172280201Y-139337148D01*
X171998328Y-139300039D01*
X171996312Y-139299705D01*
X171994238Y-139299500D01*
X171994233Y-139299500D01*
X171994228Y-139299500D01*
X171705772Y-139299500D01*
X171705766Y-139299500D01*
X171705761Y-139299500D01*
X171703684Y-139299705D01*
X171701670Y-139300039D01*
X171419814Y-139337146D01*
X171419782Y-139337150D01*
X171417973Y-139337577D01*
X171416197Y-139338111D01*
X171141150Y-139411810D01*
X171141130Y-139411817D01*
X170874656Y-139522193D01*
X170874653Y-139522195D01*
X170874648Y-139522198D01*
X170624855Y-139666417D01*
X170624838Y-139666429D01*
X170624824Y-139666439D01*
X170396004Y-139842017D01*
X170395989Y-139842031D01*
X170395981Y-139842038D01*
X170192038Y-140045981D01*
X170192031Y-140045989D01*
X170192017Y-140046004D01*
X170016439Y-140274824D01*
X170016429Y-140274838D01*
X170016417Y-140274855D01*
X169872198Y-140524648D01*
X169872195Y-140524653D01*
X169872193Y-140524656D01*
X169761817Y-140791130D01*
X169761815Y-140791136D01*
X169761814Y-140791139D01*
X169761809Y-140791155D01*
X169751905Y-140828118D01*
X169687153Y-141069772D01*
X169687150Y-141069789D01*
X169687147Y-141069802D01*
X169649501Y-141355754D01*
X169649500Y-141355783D01*
X169649500Y-141644215D01*
X169649501Y-141644244D01*
X169687148Y-141930201D01*
X169687152Y-141930221D01*
X169721688Y-142059111D01*
X169761810Y-142208848D01*
X169761817Y-142208868D01*
X169872193Y-142475342D01*
X169872195Y-142475345D01*
X169872199Y-142475352D01*
X170016420Y-142725148D01*
X170016431Y-142725164D01*
X170041482Y-142757811D01*
X170192017Y-142953994D01*
X170192021Y-142953999D01*
X170192024Y-142954002D01*
X170192030Y-142954009D01*
X170395990Y-143157969D01*
X170395997Y-143157975D01*
X170396000Y-143157977D01*
X170396004Y-143157981D01*
X170450765Y-143200000D01*
X170624851Y-143333580D01*
X170625077Y-143333710D01*
X170743069Y-143401833D01*
X170874647Y-143477800D01*
X170874663Y-143477808D01*
X171007572Y-143532860D01*
X171137097Y-143586511D01*
X171138915Y-143587341D01*
X171139400Y-143587525D01*
X171140970Y-143588148D01*
X171142254Y-143588504D01*
X171145412Y-143589408D01*
X171146913Y-143589734D01*
X171177606Y-143597958D01*
X171419783Y-143662849D01*
X171705772Y-143700500D01*
X171705779Y-143700500D01*
X171994221Y-143700500D01*
X171994228Y-143700500D01*
X172280217Y-143662849D01*
X172554998Y-143589221D01*
X172558209Y-143588473D01*
X172560595Y-143587527D01*
X172561074Y-143587345D01*
X172562901Y-143586511D01*
X172821302Y-143479478D01*
X172823162Y-143478784D01*
X172823622Y-143478578D01*
X172825412Y-143477804D01*
X172827048Y-143476895D01*
X172828770Y-143475826D01*
X173075156Y-143333575D01*
X173304004Y-143157974D01*
X173507974Y-142954004D01*
X173616051Y-142813154D01*
X173641296Y-142788503D01*
X173659980Y-142774860D01*
X173711817Y-142752847D01*
X173714721Y-142752341D01*
X173736006Y-142750500D01*
X175456892Y-142750500D01*
X175491824Y-142755521D01*
X175514020Y-142762039D01*
X175563043Y-142789764D01*
X175565210Y-142791757D01*
X175579626Y-142807522D01*
X175692017Y-142953994D01*
X175692021Y-142953999D01*
X175692024Y-142954002D01*
X175692030Y-142954009D01*
X175895990Y-143157969D01*
X175895997Y-143157975D01*
X175896000Y-143157977D01*
X175896004Y-143157981D01*
X175950765Y-143200000D01*
X176124851Y-143333580D01*
X176125077Y-143333710D01*
X176243069Y-143401833D01*
X176374647Y-143477800D01*
X176374663Y-143477808D01*
X176507572Y-143532860D01*
X176637097Y-143586511D01*
X176638915Y-143587341D01*
X176639400Y-143587525D01*
X176640970Y-143588148D01*
X176642254Y-143588504D01*
X176645412Y-143589408D01*
X176646913Y-143589734D01*
X176677606Y-143597958D01*
X176919783Y-143662849D01*
X177205772Y-143700500D01*
X177205779Y-143700500D01*
X177494221Y-143700500D01*
X177494228Y-143700500D01*
X177780217Y-143662849D01*
X178054998Y-143589221D01*
X178058209Y-143588473D01*
X178060595Y-143587527D01*
X178061074Y-143587345D01*
X178062901Y-143586511D01*
X178321302Y-143479478D01*
X178323162Y-143478784D01*
X178323622Y-143478578D01*
X178325412Y-143477804D01*
X178327048Y-143476895D01*
X178328770Y-143475826D01*
X178575156Y-143333575D01*
X178804004Y-143157974D01*
X179007974Y-142954004D01*
X179183575Y-142725156D01*
X179327804Y-142475345D01*
X179339751Y-142446504D01*
X179339754Y-142446498D01*
X179375970Y-142359061D01*
X179436511Y-142212901D01*
X179437342Y-142211081D01*
X179437524Y-142210602D01*
X179438474Y-142208204D01*
X179439221Y-142204998D01*
X179512849Y-141930217D01*
X179550500Y-141644228D01*
X179550500Y-141355772D01*
X179527326Y-141179753D01*
X179527746Y-141144463D01*
X179531309Y-141121614D01*
X179552390Y-141069400D01*
X179554088Y-141066986D01*
X179567832Y-141050639D01*
X181953829Y-138664645D01*
X182069524Y-138505405D01*
X182158884Y-138330025D01*
X182219709Y-138142826D01*
X182250500Y-137948421D01*
X182250500Y-132481577D01*
X182219709Y-132287173D01*
X182194035Y-132208158D01*
X182190827Y-132198284D01*
X182160385Y-132104592D01*
X182159324Y-132100830D01*
X182158332Y-132098835D01*
X182156533Y-132095121D01*
X182155599Y-132093525D01*
X182075637Y-131936593D01*
X182075637Y-131936592D01*
X182069526Y-131924599D01*
X182069523Y-131924594D01*
X181953828Y-131765354D01*
X180849426Y-130660952D01*
X180828274Y-130632696D01*
X180815667Y-130609607D01*
X180800500Y-130550182D01*
X180800500Y-130461995D01*
X180800500Y-130461989D01*
X180769693Y-130227986D01*
X180708606Y-130000007D01*
X180618489Y-129782447D01*
X180618189Y-129781708D01*
X180617382Y-129780255D01*
X180616297Y-129778509D01*
X180576118Y-129708918D01*
X180500273Y-129577550D01*
X180500272Y-129577548D01*
X180396165Y-129441873D01*
X180366459Y-129403159D01*
X180352352Y-129379860D01*
X180343792Y-129361410D01*
X180333433Y-129292318D01*
X180334268Y-129286257D01*
X180352788Y-129236152D01*
X180355900Y-129231309D01*
X180361842Y-129222858D01*
X180408812Y-129161643D01*
X180408814Y-129161641D01*
X180500273Y-129042450D01*
X180618284Y-128838049D01*
X180708606Y-128619993D01*
X180769693Y-128392014D01*
X180800500Y-128158011D01*
X180800500Y-128077165D01*
X180805522Y-128042232D01*
X180812934Y-128016987D01*
X180844228Y-127964245D01*
X181406891Y-127401583D01*
X182088828Y-126719646D01*
X182204524Y-126560405D01*
X182293884Y-126385026D01*
X182354709Y-126197826D01*
X182365799Y-126127808D01*
X182385500Y-126003422D01*
X182385500Y-122287833D01*
X182390522Y-122252903D01*
X182393272Y-122243536D01*
X182431044Y-122184756D01*
X182494598Y-122155729D01*
X182563757Y-122165670D01*
X182611590Y-122204254D01*
X182614378Y-122207986D01*
X182627937Y-122230917D01*
X182670587Y-122324815D01*
X182682993Y-122352127D01*
X182702045Y-122379626D01*
X182713381Y-122395988D01*
X182713382Y-122395991D01*
X182742276Y-122437698D01*
X182758040Y-122469270D01*
X182768193Y-122499876D01*
X182774500Y-122538919D01*
X182774500Y-128123427D01*
X182805289Y-128317822D01*
X182866116Y-128505028D01*
X182866119Y-128505036D01*
X182948180Y-128666085D01*
X182948181Y-128666088D01*
X182955473Y-128680400D01*
X182955476Y-128680405D01*
X183071172Y-128839646D01*
X183071174Y-128839648D01*
X188750573Y-134519047D01*
X188771723Y-134547299D01*
X188784331Y-134570388D01*
X188799500Y-134629817D01*
X188799500Y-139606891D01*
X188794475Y-139641832D01*
X188787957Y-139664026D01*
X188760254Y-139713022D01*
X188758263Y-139715187D01*
X188742477Y-139729626D01*
X188595991Y-139842028D01*
X188595985Y-139842033D01*
X188392038Y-140045981D01*
X188392031Y-140045989D01*
X188392017Y-140046004D01*
X188216439Y-140274824D01*
X188216429Y-140274838D01*
X188216417Y-140274855D01*
X188072198Y-140524648D01*
X188072195Y-140524653D01*
X188072193Y-140524656D01*
X187961817Y-140791130D01*
X187961815Y-140791136D01*
X187961814Y-140791139D01*
X187961809Y-140791155D01*
X187951905Y-140828118D01*
X187887153Y-141069772D01*
X187887150Y-141069789D01*
X187887147Y-141069802D01*
X187849501Y-141355754D01*
X187849500Y-141355783D01*
X187849500Y-141644215D01*
X187849501Y-141644244D01*
X187887148Y-141930201D01*
X187887152Y-141930221D01*
X187921688Y-142059111D01*
X187961810Y-142208848D01*
X187961817Y-142208868D01*
X188072193Y-142475342D01*
X188072195Y-142475345D01*
X188072199Y-142475352D01*
X188216420Y-142725148D01*
X188216431Y-142725164D01*
X188241482Y-142757811D01*
X188392017Y-142953994D01*
X188392021Y-142953999D01*
X188392024Y-142954002D01*
X188392030Y-142954009D01*
X188595990Y-143157969D01*
X188595997Y-143157975D01*
X188596000Y-143157977D01*
X188596004Y-143157981D01*
X188650765Y-143200000D01*
X188824851Y-143333580D01*
X188825077Y-143333710D01*
X188943069Y-143401833D01*
X189074647Y-143477800D01*
X189074663Y-143477808D01*
X189207572Y-143532860D01*
X189337097Y-143586511D01*
X189338915Y-143587341D01*
X189339400Y-143587525D01*
X189340970Y-143588148D01*
X189342254Y-143588504D01*
X189345412Y-143589408D01*
X189346913Y-143589734D01*
X189377606Y-143597958D01*
X189619783Y-143662849D01*
X189905772Y-143700500D01*
X189905779Y-143700500D01*
X190194221Y-143700500D01*
X190194228Y-143700500D01*
X190480217Y-143662849D01*
X190754998Y-143589221D01*
X190758209Y-143588473D01*
X190760595Y-143587527D01*
X190761074Y-143587345D01*
X190762901Y-143586511D01*
X191021302Y-143479478D01*
X191023162Y-143478784D01*
X191023622Y-143478578D01*
X191025412Y-143477804D01*
X191027048Y-143476895D01*
X191028770Y-143475826D01*
X191275156Y-143333575D01*
X191504004Y-143157974D01*
X191707974Y-142954004D01*
X191883575Y-142725156D01*
X192027804Y-142475345D01*
X192039751Y-142446504D01*
X192039754Y-142446498D01*
X192075970Y-142359061D01*
X192136511Y-142212901D01*
X192137342Y-142211081D01*
X192137524Y-142210602D01*
X192138474Y-142208204D01*
X192139221Y-142204998D01*
X192212849Y-141930217D01*
X192250500Y-141644228D01*
X192250500Y-141355772D01*
X192212849Y-141069783D01*
X192139734Y-140796913D01*
X192139408Y-140795412D01*
X192138504Y-140792254D01*
X192138148Y-140790970D01*
X192137525Y-140789400D01*
X192137341Y-140788915D01*
X192136511Y-140787097D01*
X192039755Y-140553507D01*
X192027808Y-140524663D01*
X192027800Y-140524647D01*
X191951833Y-140393069D01*
X191883710Y-140275077D01*
X191883580Y-140274851D01*
X191883580Y-140274850D01*
X191775534Y-140134042D01*
X191707981Y-140046004D01*
X191707977Y-140046000D01*
X191707975Y-140045997D01*
X191707969Y-140045990D01*
X191634024Y-139972045D01*
X191504014Y-139842034D01*
X191487146Y-139829091D01*
X191363156Y-139733949D01*
X191338497Y-139708695D01*
X191324860Y-139690018D01*
X191302848Y-139638188D01*
X191302342Y-139635285D01*
X191300500Y-139613993D01*
X191300500Y-133951578D01*
X191295189Y-133918049D01*
X191276707Y-133801359D01*
X191269709Y-133757174D01*
X191269708Y-133757170D01*
X191269708Y-133757169D01*
X191211134Y-133576899D01*
X191209735Y-133572286D01*
X191209329Y-133570847D01*
X191158969Y-133472010D01*
X191119524Y-133394595D01*
X191003829Y-133235355D01*
X185324426Y-127555952D01*
X185303274Y-127527696D01*
X185290667Y-127504607D01*
X185275500Y-127445182D01*
X185275500Y-122579772D01*
X185280522Y-122544839D01*
X185284433Y-122531520D01*
X185322206Y-122472743D01*
X185385758Y-122443718D01*
X185392540Y-122442743D01*
X185449183Y-122447775D01*
X185522299Y-122472004D01*
X185522300Y-122472004D01*
X185522302Y-122472005D01*
X185522309Y-122472006D01*
X185625019Y-122482499D01*
X186175000Y-122482499D01*
X186224960Y-122482499D01*
X186224972Y-122482499D01*
X186224986Y-122482498D01*
X186327697Y-122472005D01*
X186494119Y-122416858D01*
X186494124Y-122416856D01*
X186643345Y-122324815D01*
X186767315Y-122200845D01*
X186859356Y-122051624D01*
X186859358Y-122051619D01*
X186914505Y-121885197D01*
X186914506Y-121885190D01*
X186924999Y-121782486D01*
X186925000Y-121782473D01*
X186925000Y-121507500D01*
X186175000Y-121507500D01*
X186175000Y-122482499D01*
X185625019Y-122482499D01*
X185674999Y-122482498D01*
X185675000Y-122482498D01*
X185675000Y-121007500D01*
X186175000Y-121007500D01*
X186924999Y-121007500D01*
X186924999Y-120732528D01*
X186924998Y-120732513D01*
X186914505Y-120629802D01*
X186859358Y-120463380D01*
X186859356Y-120463375D01*
X186767315Y-120314154D01*
X186643345Y-120190184D01*
X186494124Y-120098143D01*
X186494119Y-120098141D01*
X186494110Y-120098138D01*
X186327699Y-120042994D01*
X186327694Y-120042993D01*
X186224991Y-120032500D01*
X186224986Y-120032500D01*
X186175000Y-120032500D01*
X186175000Y-121007500D01*
X185675000Y-121007500D01*
X185675000Y-120032499D01*
X185625048Y-120032499D01*
X185625021Y-120032500D01*
X185624983Y-120032503D01*
X185522298Y-120042994D01*
X185433465Y-120072430D01*
X185398721Y-120078651D01*
X185383097Y-120079188D01*
X185315431Y-120061824D01*
X185311319Y-120059377D01*
X185307236Y-120056947D01*
X185268718Y-120021003D01*
X185238820Y-119977847D01*
X185162254Y-119901281D01*
X185079654Y-119818681D01*
X185079650Y-119818678D01*
X185079645Y-119818674D01*
X185078217Y-119817685D01*
X185026108Y-119781584D01*
X184895560Y-119691140D01*
X184894691Y-119690525D01*
X184894625Y-119690492D01*
X184691790Y-119598361D01*
X184690446Y-119597720D01*
X184689682Y-119597403D01*
X184689668Y-119597399D01*
X184471429Y-119542406D01*
X184471418Y-119542404D01*
X184471415Y-119542404D01*
X184339227Y-119532000D01*
X184339222Y-119532000D01*
X184339217Y-119532000D01*
X184137166Y-119532000D01*
X184102230Y-119526977D01*
X184076988Y-119519565D01*
X184024243Y-119488269D01*
X183754426Y-119218452D01*
X183733274Y-119190196D01*
X183720667Y-119167107D01*
X183705500Y-119107682D01*
X183705500Y-117578981D01*
X183702766Y-117539602D01*
X183702766Y-117539599D01*
X183700715Y-117510062D01*
X183699349Y-117490370D01*
X183699348Y-117490368D01*
X183699348Y-117490362D01*
X183650533Y-117282820D01*
X183650532Y-117282817D01*
X183650532Y-117282815D01*
X183640419Y-117259910D01*
X183634910Y-117244875D01*
X183630405Y-117229578D01*
X183626884Y-117213963D01*
X183624709Y-117200226D01*
X183601900Y-117130026D01*
X183565383Y-117017640D01*
X183564324Y-117013886D01*
X183563311Y-117011846D01*
X183561529Y-117008168D01*
X183560602Y-117006584D01*
X183474523Y-116837646D01*
X183473302Y-116835966D01*
X183463874Y-116822988D01*
X183463874Y-116822989D01*
X183358828Y-116678406D01*
X182897603Y-116217181D01*
X182864118Y-116155858D01*
X182869102Y-116086166D01*
X182910974Y-116030233D01*
X182976438Y-116005816D01*
X182985284Y-116005500D01*
X185862650Y-116005500D01*
X185862668Y-116005500D01*
X185970219Y-115999731D01*
X185996590Y-115996894D01*
X186102880Y-115979661D01*
X186110438Y-115978016D01*
X186156673Y-115966801D01*
X186346867Y-115894566D01*
X186401728Y-115867090D01*
X186443750Y-115844785D01*
X186610160Y-115727741D01*
X186611529Y-115726554D01*
X186672038Y-115669539D01*
X186798765Y-115510379D01*
X186836508Y-115451636D01*
X186878533Y-115379867D01*
X186955319Y-115191465D01*
X186959724Y-115176467D01*
X186990237Y-115036234D01*
X186995262Y-115001290D01*
X187005500Y-114858170D01*
X187005500Y-100137331D01*
X186999731Y-100029780D01*
X186996894Y-100003409D01*
X186979661Y-99897119D01*
X186978016Y-99889561D01*
X186966801Y-99843326D01*
X186965807Y-99840710D01*
X186955599Y-99813833D01*
X186894566Y-99653132D01*
X186894563Y-99653126D01*
X186894562Y-99653123D01*
X186867098Y-99598286D01*
X186844785Y-99556249D01*
X186727741Y-99389839D01*
X186727735Y-99389832D01*
X186727729Y-99389824D01*
X186726571Y-99388488D01*
X186724433Y-99386219D01*
X186669512Y-99327934D01*
X186510347Y-99201213D01*
X186510338Y-99201206D01*
X186451601Y-99163470D01*
X186379805Y-99121435D01*
X186379798Y-99121432D01*
X186191408Y-99044663D01*
X186184814Y-99042727D01*
X186176399Y-99040256D01*
X186123210Y-99028685D01*
X186036204Y-99009757D01*
X186001266Y-99004734D01*
X185858172Y-98994500D01*
X185858170Y-98994500D01*
X181629500Y-98994500D01*
X181628847Y-98994503D01*
X181617920Y-98994566D01*
X181617906Y-98994567D01*
X181415754Y-99017481D01*
X181364253Y-99028685D01*
X181272558Y-99053217D01*
X181085976Y-99134306D01*
X181085973Y-99134307D01*
X181085973Y-99134308D01*
X181073946Y-99142761D01*
X181007780Y-99165206D01*
X180939983Y-99148315D01*
X180933692Y-99144374D01*
X180914738Y-99131693D01*
X180914731Y-99131690D01*
X180726328Y-99054916D01*
X180726322Y-99054914D01*
X180659293Y-99035233D01*
X180659295Y-99035233D01*
X180659290Y-99035232D01*
X180578406Y-99015083D01*
X180578402Y-99015082D01*
X180578403Y-99015082D01*
X180376001Y-98994500D01*
X180376000Y-98994500D01*
X175124000Y-98994500D01*
X175123347Y-98994503D01*
X175112420Y-98994566D01*
X175112406Y-98994567D01*
X174910254Y-99017481D01*
X174858753Y-99028685D01*
X174767058Y-99053217D01*
X174580475Y-99134306D01*
X174580468Y-99134310D01*
X174414033Y-99251294D01*
X174414020Y-99251305D01*
X174361225Y-99297052D01*
X174244819Y-99416169D01*
X174131693Y-99585261D01*
X174131690Y-99585268D01*
X174054916Y-99773671D01*
X174054914Y-99773677D01*
X174035233Y-99840706D01*
X174015082Y-99921597D01*
X173994500Y-100123998D01*
X173994500Y-114125500D01*
X173974815Y-114192539D01*
X173922011Y-114238294D01*
X173870500Y-114249500D01*
X171087166Y-114249500D01*
X171052230Y-114244477D01*
X171026988Y-114237065D01*
X170974243Y-114205769D01*
X169749426Y-112980952D01*
X169728274Y-112952696D01*
X169715667Y-112929607D01*
X169700500Y-112870182D01*
X169700500Y-107974664D01*
X169705523Y-107939729D01*
X169712935Y-107914486D01*
X169744229Y-107861742D01*
X170744049Y-106861922D01*
X170772304Y-106840772D01*
X170795394Y-106828165D01*
X170854817Y-106812999D01*
X172033028Y-106812999D01*
X172033036Y-106812999D01*
X172152418Y-106802386D01*
X172348049Y-106746409D01*
X172528407Y-106652198D01*
X172686109Y-106523609D01*
X172814698Y-106365907D01*
X172908909Y-106185549D01*
X172964886Y-105989918D01*
X172975500Y-105870537D01*
X172975499Y-104837500D01*
X172975499Y-103804471D01*
X172975499Y-103804464D01*
X172964886Y-103685082D01*
X172908909Y-103489451D01*
X172814698Y-103309093D01*
X172814695Y-103309090D01*
X172814694Y-103309087D01*
X172745664Y-103224428D01*
X172745660Y-103224425D01*
X172745659Y-103224423D01*
X172686109Y-103151390D01*
X172686107Y-103151388D01*
X172686106Y-103151387D01*
X172543506Y-103035114D01*
X172543503Y-103035110D01*
X172543503Y-103035111D01*
X172531823Y-103025588D01*
X172528406Y-103022801D01*
X172352019Y-102930665D01*
X172348836Y-102928853D01*
X172348042Y-102928588D01*
X172230829Y-102895050D01*
X172154981Y-102873347D01*
X172152825Y-102872679D01*
X172150347Y-102872277D01*
X172146936Y-102872126D01*
X172137628Y-102871298D01*
X172086102Y-102866717D01*
X172086101Y-102866716D01*
X172033039Y-102862000D01*
X172033037Y-102862000D01*
X172033032Y-102862000D01*
X169966971Y-102862000D01*
X169966965Y-102862000D01*
X169954897Y-102862000D01*
X169948042Y-102863682D01*
X169847582Y-102872613D01*
X169651952Y-102928589D01*
X169561771Y-102975694D01*
X169561772Y-102975695D01*
X169472578Y-103022287D01*
X169471646Y-103022763D01*
X169469242Y-103024496D01*
X169466716Y-103026778D01*
X169313887Y-103151392D01*
X169185305Y-103309087D01*
X169185301Y-103309094D01*
X169185300Y-103309094D01*
X169182797Y-103313888D01*
X169182796Y-103313890D01*
X169091089Y-103489452D01*
X169035848Y-103682516D01*
X169035236Y-103684492D01*
X169035113Y-103685081D01*
X169024500Y-103804467D01*
X169024500Y-104975332D01*
X169019476Y-105010269D01*
X169012064Y-105035510D01*
X168980769Y-105088254D01*
X167604104Y-106464922D01*
X164218452Y-109850573D01*
X164190201Y-109871722D01*
X164167113Y-109884330D01*
X164107683Y-109899500D01*
X163393108Y-109899500D01*
X163358172Y-109894477D01*
X163335978Y-109887960D01*
X163286978Y-109860255D01*
X163284798Y-109858250D01*
X163270377Y-109842482D01*
X163206489Y-109759222D01*
X163157981Y-109696004D01*
X163157977Y-109696000D01*
X163157975Y-109695997D01*
X163157969Y-109695990D01*
X162954009Y-109492030D01*
X162954002Y-109492024D01*
X162953999Y-109492021D01*
X162953994Y-109492017D01*
X162726754Y-109317651D01*
X162725479Y-109316639D01*
X162725154Y-109316423D01*
X162475350Y-109172198D01*
X162475345Y-109172195D01*
X162475332Y-109172189D01*
X162208869Y-109061817D01*
X162208851Y-109061810D01*
X162208840Y-109061807D01*
X161930221Y-108987152D01*
X161930219Y-108987151D01*
X161930217Y-108987151D01*
X161930211Y-108987150D01*
X161930206Y-108987149D01*
X161930201Y-108987148D01*
X161648328Y-108950039D01*
X161646312Y-108949705D01*
X161644238Y-108949500D01*
X161644233Y-108949500D01*
X161644228Y-108949500D01*
X161355772Y-108949500D01*
X161355766Y-108949500D01*
X161355761Y-108949500D01*
X161353684Y-108949705D01*
X161351670Y-108950039D01*
X161069814Y-108987146D01*
X161069782Y-108987150D01*
X161067973Y-108987577D01*
X161066197Y-108988111D01*
X160791150Y-109061810D01*
X160791130Y-109061817D01*
X160524656Y-109172193D01*
X160524653Y-109172195D01*
X160524648Y-109172198D01*
X160274855Y-109316417D01*
X160274838Y-109316429D01*
X160274824Y-109316439D01*
X160046004Y-109492017D01*
X160045989Y-109492031D01*
X160045981Y-109492038D01*
X159842038Y-109695981D01*
X159842031Y-109695989D01*
X159842017Y-109696004D01*
X159666439Y-109924824D01*
X159666429Y-109924838D01*
X159666417Y-109924855D01*
X159522198Y-110174648D01*
X159522195Y-110174653D01*
X159522193Y-110174656D01*
X159411817Y-110441130D01*
X159411814Y-110441136D01*
X159411814Y-110441139D01*
X159411809Y-110441155D01*
X159343260Y-110696987D01*
X159343259Y-110696989D01*
X159337156Y-110719762D01*
X159337148Y-110719796D01*
X159337147Y-110719802D01*
X159299501Y-111005754D01*
X159299500Y-111005783D01*
X159299500Y-111294215D01*
X159299501Y-111294244D01*
X159322671Y-111470240D01*
X159322252Y-111505529D01*
X159318689Y-111528380D01*
X159297603Y-111580600D01*
X159295907Y-111583012D01*
X159282154Y-111599369D01*
X155046178Y-115835345D01*
X155045764Y-115835851D01*
X155044698Y-115837382D01*
X154996485Y-115903741D01*
X154930476Y-115994593D01*
X154841118Y-116169968D01*
X154794110Y-116314643D01*
X154794109Y-116314646D01*
X154780293Y-116357163D01*
X154780288Y-116357182D01*
X154749500Y-116551571D01*
X154749500Y-122256891D01*
X154744475Y-122291832D01*
X154737957Y-122314026D01*
X154710254Y-122363022D01*
X154708263Y-122365187D01*
X154692477Y-122379626D01*
X154545991Y-122492028D01*
X154545985Y-122492033D01*
X154342038Y-122695981D01*
X154342031Y-122695989D01*
X154342017Y-122696004D01*
X154166439Y-122924824D01*
X154166429Y-122924838D01*
X154166417Y-122924855D01*
X154022198Y-123174648D01*
X154022195Y-123174653D01*
X154022193Y-123174656D01*
X153911817Y-123441130D01*
X153911814Y-123441136D01*
X153911814Y-123441139D01*
X153911809Y-123441155D01*
X153842607Y-123699423D01*
X153837152Y-123719780D01*
X153837150Y-123719789D01*
X153837148Y-123719796D01*
X153837147Y-123719802D01*
X153799501Y-124005754D01*
X153799500Y-124005783D01*
X152000500Y-124005783D01*
X152000500Y-104721409D01*
X164525000Y-104721409D01*
X164525000Y-104953589D01*
X164541885Y-105060201D01*
X164561318Y-105182893D01*
X164633065Y-105403705D01*
X164738465Y-105610564D01*
X164795238Y-105688707D01*
X165282924Y-105201020D01*
X165344245Y-105167537D01*
X165413936Y-105172521D01*
X165469870Y-105214392D01*
X165473691Y-105219792D01*
X165495112Y-105251851D01*
X165495116Y-105251855D01*
X165495116Y-105251856D01*
X165585646Y-105342386D01*
X165617684Y-105363793D01*
X165662489Y-105417406D01*
X165671196Y-105486731D01*
X165641041Y-105549758D01*
X165636474Y-105554576D01*
X165148791Y-106042258D01*
X165148791Y-106042259D01*
X165148791Y-106042260D01*
X165226935Y-106099034D01*
X165433794Y-106204434D01*
X165654606Y-106276181D01*
X165883910Y-106312500D01*
X166116089Y-106312500D01*
X166116090Y-106312500D01*
X166345393Y-106276181D01*
X166566205Y-106204434D01*
X166773071Y-106099030D01*
X166851207Y-106042262D01*
X166851208Y-106042260D01*
X166851207Y-106042258D01*
X166363524Y-105554576D01*
X166330039Y-105493253D01*
X166335023Y-105423562D01*
X166376894Y-105367628D01*
X166382270Y-105363823D01*
X166414351Y-105342388D01*
X166504888Y-105251851D01*
X166526295Y-105219812D01*
X166579903Y-105175010D01*
X166649227Y-105166301D01*
X166712256Y-105196455D01*
X166717076Y-105201024D01*
X167204758Y-105688707D01*
X167204760Y-105688708D01*
X167204762Y-105688707D01*
X167261530Y-105610571D01*
X167366934Y-105403705D01*
X167438681Y-105182893D01*
X167475000Y-104953590D01*
X167475000Y-104721409D01*
X167438681Y-104492106D01*
X167366934Y-104271294D01*
X167261534Y-104064435D01*
X167204760Y-103986291D01*
X167204759Y-103986291D01*
X167204758Y-103986291D01*
X166717076Y-104473974D01*
X166655753Y-104507459D01*
X166586061Y-104502475D01*
X166530128Y-104460603D01*
X166526293Y-104455184D01*
X166504886Y-104423146D01*
X166414356Y-104332616D01*
X166414352Y-104332613D01*
X166414351Y-104332612D01*
X166382310Y-104311203D01*
X166337507Y-104257591D01*
X166328800Y-104188266D01*
X166358955Y-104125239D01*
X166363500Y-104120443D01*
X166851207Y-103632738D01*
X166773064Y-103575965D01*
X166566205Y-103470565D01*
X166345393Y-103398818D01*
X166345391Y-103398817D01*
X166345390Y-103398817D01*
X166169244Y-103370918D01*
X166116090Y-103362500D01*
X166116089Y-103362500D01*
X165883905Y-103362500D01*
X165654609Y-103398817D01*
X165433791Y-103470566D01*
X165226926Y-103575969D01*
X165226922Y-103575971D01*
X165148790Y-103632737D01*
X165636475Y-104120422D01*
X165669960Y-104181745D01*
X165664976Y-104251437D01*
X165623104Y-104307370D01*
X165617688Y-104311203D01*
X165585648Y-104332612D01*
X165585643Y-104332616D01*
X165495116Y-104423143D01*
X165495112Y-104423148D01*
X165473703Y-104455188D01*
X165420090Y-104499991D01*
X165350764Y-104508697D01*
X165287738Y-104478540D01*
X165282922Y-104473975D01*
X164795238Y-103986291D01*
X164795237Y-103986291D01*
X164738471Y-104064422D01*
X164738469Y-104064426D01*
X164633066Y-104271291D01*
X164561317Y-104492109D01*
X164525000Y-104721409D01*
X152000500Y-104721409D01*
X152000500Y-98642329D01*
X152005523Y-98607393D01*
X152009927Y-98592395D01*
X152047672Y-98533644D01*
X152049041Y-98532457D01*
X152103920Y-98504977D01*
X152111479Y-98503333D01*
X152137832Y-98500500D01*
X193357670Y-98500500D01*
X193392606Y-98505523D01*
G37*
%TD.AperFunction*%
%TD*%
M02*
