%TF.GenerationSoftware,KiCad,Pcbnew,10.0.6*%
%TF.CreationDate,2026-09-08T22:18:16-04:00*%
%TF.ProjectId,onboarding_project,6f6e626f-6172-4646-996e-675f70726f6a,rev?*%
%TF.SameCoordinates,Original*%
%TF.FileFunction,Legend,Top*%
%TF.FilePolarity,Positive*%
%FSLAX46Y46*%
G04 Gerber Fmt 4.6, Leading zero omitted, Abs format (unit mm)*
G04 Created by KiCad (PCBNEW 10.0.6) date 2026-09-08 22:18:16*
%MOMM*%
%LPD*%
G01*
G04 APERTURE LIST*
%ADD10C,0.150000*%
%ADD11C,0.120000*%
G04 APERTURE END LIST*
D10*
X183354819Y-116761904D02*
X184164342Y-116761904D01*
X184164342Y-116761904D02*
X184259580Y-116714285D01*
X184259580Y-116714285D02*
X184307200Y-116666666D01*
X184307200Y-116666666D02*
X184354819Y-116571428D01*
X184354819Y-116571428D02*
X184354819Y-116380952D01*
X184354819Y-116380952D02*
X184307200Y-116285714D01*
X184307200Y-116285714D02*
X184259580Y-116238095D01*
X184259580Y-116238095D02*
X184164342Y-116190476D01*
X184164342Y-116190476D02*
X183354819Y-116190476D01*
X184354819Y-115190476D02*
X184354819Y-115761904D01*
X184354819Y-115476190D02*
X183354819Y-115476190D01*
X183354819Y-115476190D02*
X183497676Y-115571428D01*
X183497676Y-115571428D02*
X183592914Y-115666666D01*
X183592914Y-115666666D02*
X183640533Y-115761904D01*
X184808333Y-119937080D02*
X184760714Y-119984700D01*
X184760714Y-119984700D02*
X184617857Y-120032319D01*
X184617857Y-120032319D02*
X184522619Y-120032319D01*
X184522619Y-120032319D02*
X184379762Y-119984700D01*
X184379762Y-119984700D02*
X184284524Y-119889461D01*
X184284524Y-119889461D02*
X184236905Y-119794223D01*
X184236905Y-119794223D02*
X184189286Y-119603747D01*
X184189286Y-119603747D02*
X184189286Y-119460890D01*
X184189286Y-119460890D02*
X184236905Y-119270414D01*
X184236905Y-119270414D02*
X184284524Y-119175176D01*
X184284524Y-119175176D02*
X184379762Y-119079938D01*
X184379762Y-119079938D02*
X184522619Y-119032319D01*
X184522619Y-119032319D02*
X184617857Y-119032319D01*
X184617857Y-119032319D02*
X184760714Y-119079938D01*
X184760714Y-119079938D02*
X184808333Y-119127557D01*
X185760714Y-120032319D02*
X185189286Y-120032319D01*
X185475000Y-120032319D02*
X185475000Y-119032319D01*
X185475000Y-119032319D02*
X185379762Y-119175176D01*
X185379762Y-119175176D02*
X185284524Y-119270414D01*
X185284524Y-119270414D02*
X185189286Y-119318033D01*
X167333333Y-124179580D02*
X167285714Y-124227200D01*
X167285714Y-124227200D02*
X167142857Y-124274819D01*
X167142857Y-124274819D02*
X167047619Y-124274819D01*
X167047619Y-124274819D02*
X166904762Y-124227200D01*
X166904762Y-124227200D02*
X166809524Y-124131961D01*
X166809524Y-124131961D02*
X166761905Y-124036723D01*
X166761905Y-124036723D02*
X166714286Y-123846247D01*
X166714286Y-123846247D02*
X166714286Y-123703390D01*
X166714286Y-123703390D02*
X166761905Y-123512914D01*
X166761905Y-123512914D02*
X166809524Y-123417676D01*
X166809524Y-123417676D02*
X166904762Y-123322438D01*
X166904762Y-123322438D02*
X167047619Y-123274819D01*
X167047619Y-123274819D02*
X167142857Y-123274819D01*
X167142857Y-123274819D02*
X167285714Y-123322438D01*
X167285714Y-123322438D02*
X167333333Y-123370057D01*
X167714286Y-123370057D02*
X167761905Y-123322438D01*
X167761905Y-123322438D02*
X167857143Y-123274819D01*
X167857143Y-123274819D02*
X168095238Y-123274819D01*
X168095238Y-123274819D02*
X168190476Y-123322438D01*
X168190476Y-123322438D02*
X168238095Y-123370057D01*
X168238095Y-123370057D02*
X168285714Y-123465295D01*
X168285714Y-123465295D02*
X168285714Y-123560533D01*
X168285714Y-123560533D02*
X168238095Y-123703390D01*
X168238095Y-123703390D02*
X167666667Y-124274819D01*
X167666667Y-124274819D02*
X168285714Y-124274819D01*
%TO.C,U1*%
D11*
X177940000Y-113940000D02*
X178035000Y-113940000D01*
X177940000Y-118060000D02*
X177940000Y-113940000D01*
X178035000Y-118060000D02*
X177940000Y-118060000D01*
X182965000Y-113940000D02*
X183060000Y-113940000D01*
X183060000Y-113940000D02*
X183060000Y-118060000D01*
X183060000Y-118060000D02*
X182965000Y-118060000D01*
X182970000Y-113400000D02*
X183300000Y-113160000D01*
X183300000Y-113640000D01*
X182970000Y-113400000D01*
G36*
X183300000Y-113640000D02*
G01*
X182970000Y-113400000D01*
X183300000Y-113160000D01*
X183300000Y-113640000D01*
G37*
%TO.C,C1*%
X184713748Y-120522500D02*
X185236252Y-120522500D01*
X184713748Y-121992500D02*
X185236252Y-121992500D01*
%TO.C,C2*%
X167238748Y-124765000D02*
X167761252Y-124765000D01*
X167238748Y-126235000D02*
X167761252Y-126235000D01*
%TD*%
M02*
