%TF.GenerationSoftware,KiCad,Pcbnew,10.0.6*%
%TF.CreationDate,2026-09-12T22:35:34-04:00*%
%TF.ProjectId,luna_onboarding_project,6c756e61-5f6f-46e6-926f-617264696e67,rev?*%
%TF.SameCoordinates,Original*%
%TF.FileFunction,Copper,L1,Top*%
%TF.FilePolarity,Positive*%
%FSLAX46Y46*%
G04 Gerber Fmt 4.6, Leading zero omitted, Abs format (unit mm)*
G04 Created by KiCad (PCBNEW 10.0.6) date 2026-09-12 22:35:34*
%MOMM*%
%LPD*%
G01*
G04 APERTURE LIST*
G04 Aperture macros list*
%AMRoundRect*
0 Rectangle with rounded corners*
0 $1 Rounding radius*
0 $2 $3 $4 $5 $6 $7 $8 $9 X,Y pos of 4 corners*
0 Add a 4 corners polygon primitive as box body*
4,1,4,$2,$3,$4,$5,$6,$7,$8,$9,$2,$3,0*
0 Add four circle primitives for the rounded corners*
1,1,$1+$1,$2,$3*
1,1,$1+$1,$4,$5*
1,1,$1+$1,$6,$7*
1,1,$1+$1,$8,$9*
0 Add four rect primitives between the rounded corners*
20,1,$1+$1,$2,$3,$4,$5,0*
20,1,$1+$1,$4,$5,$6,$7,0*
20,1,$1+$1,$6,$7,$8,$9,0*
20,1,$1+$1,$8,$9,$2,$3,0*%
G04 Aperture macros list end*
%TA.AperFunction,SMDPad,CuDef*%
%ADD10RoundRect,0.250000X-0.250000X-0.475000X0.250000X-0.475000X0.250000X0.475000X-0.250000X0.475000X0*%
%TD*%
%TA.AperFunction,ComponentPad*%
%ADD11C,2.400000*%
%TD*%
%TA.AperFunction,ComponentPad*%
%ADD12C,1.950000*%
%TD*%
%TA.AperFunction,ComponentPad*%
%ADD13R,1.950000X1.950000*%
%TD*%
%TA.AperFunction,SMDPad,CuDef*%
%ADD14RoundRect,0.150000X-0.150000X0.825000X-0.150000X-0.825000X0.150000X-0.825000X0.150000X0.825000X0*%
%TD*%
%TA.AperFunction,ComponentPad*%
%ADD15C,1.800000*%
%TD*%
%TA.AperFunction,ComponentPad*%
%ADD16R,1.800000X1.800000*%
%TD*%
%TA.AperFunction,ComponentPad*%
%ADD17C,1.600000*%
%TD*%
%TA.AperFunction,ComponentPad*%
%ADD18RoundRect,0.250000X0.550000X0.550000X-0.550000X0.550000X-0.550000X-0.550000X0.550000X-0.550000X0*%
%TD*%
%TA.AperFunction,SMDPad,CuDef*%
%ADD19RoundRect,0.250000X0.475000X-0.250000X0.475000X0.250000X-0.475000X0.250000X-0.475000X-0.250000X0*%
%TD*%
%TA.AperFunction,Conductor*%
%ADD20C,0.500000*%
%TD*%
G04 APERTURE END LIST*
D10*
%TO.P,C1,1*%
%TO.N,GND*%
X118550000Y-85500000D03*
%TO.P,C1,2*%
%TO.N,+3V3*%
X120450000Y-85500000D03*
%TD*%
D11*
%TO.P,R1,1*%
%TO.N,+3V3*%
X103700000Y-102000000D03*
%TO.P,R1,2*%
%TO.N,Net-(U2-VIN+)*%
X116400000Y-102000000D03*
%TD*%
%TO.P,R2,2*%
%TO.N,GND*%
X121000000Y-102850000D03*
%TO.P,R2,1*%
%TO.N,Net-(U2-VIN+)*%
X121000000Y-90150000D03*
%TD*%
D12*
%TO.P,J2,2,Pin_2_2*%
%TO.N,Current-*%
X118000000Y-68337500D03*
D13*
%TO.P,J2,1,Pin_1_1*%
%TO.N,Current+*%
X123000000Y-68337500D03*
%TD*%
D12*
%TO.P,J1,2,Pin_2_2*%
%TO.N,GND*%
X108000000Y-67500000D03*
D13*
%TO.P,J1,1,Pin_1_1*%
%TO.N,+3V3*%
X103000000Y-67500000D03*
%TD*%
D14*
%TO.P,U1,8,VCC_8*%
%TO.N,+3V3*%
X122405000Y-80812500D03*
%TO.P,U1,7,VIOUT_7*%
%TO.N,Net-(U1-VIOUT)*%
X121135000Y-80812500D03*
%TO.P,U1,6,~{FAULT}_6*%
%TO.N,unconnected-(U1-~{FAULT}-Pad6)*%
X119865000Y-80812500D03*
%TO.P,U1,5,GND_5*%
%TO.N,GND*%
X118595000Y-80812500D03*
%TO.P,U1,4,IP-_4*%
%TO.N,Current-*%
X118595000Y-75862500D03*
%TO.P,U1,3,IP-_3*%
X119865000Y-75862500D03*
%TO.P,U1,2,IP+_2*%
%TO.N,Current+*%
X121135000Y-75862500D03*
%TO.P,U1,1,IP+_1*%
X122405000Y-75862500D03*
%TD*%
D11*
%TO.P,R4,2*%
%TO.N,+3V3*%
X97000000Y-87150000D03*
%TO.P,R4,1*%
%TO.N,Net-(D1-A)*%
X97000000Y-99850000D03*
%TD*%
D15*
%TO.P,D1,2,A_2*%
%TO.N,Net-(D1-A)*%
X101730000Y-95500000D03*
D16*
%TO.P,D1,1,K_1*%
%TO.N,Net-(D1-K)*%
X104270000Y-95500000D03*
%TD*%
D17*
%TO.P,U2,8,NC_8*%
%TO.N,unconnected-(U2-NC-Pad8)*%
X104690000Y-78190000D03*
%TO.P,U2,7,VDD_7*%
%TO.N,+3V3*%
X104690000Y-80730000D03*
%TO.P,U2,6,OUT_6*%
%TO.N,Net-(D1-K)*%
X104690000Y-83270000D03*
%TO.P,U2,5,NC_5*%
%TO.N,unconnected-(U2-NC-Pad5)*%
X104690000Y-85810000D03*
%TO.P,U2,4,VSS_4*%
%TO.N,GND*%
X112310000Y-85810000D03*
%TO.P,U2,3,VIN+_3*%
%TO.N,Net-(U2-VIN+)*%
X112310000Y-83270000D03*
%TO.P,U2,2,VIN-_2*%
%TO.N,Net-(U1-VIOUT)*%
X112310000Y-80730000D03*
D18*
%TO.P,U2,1,NC_1*%
%TO.N,unconnected-(U2-NC-Pad1)*%
X112310000Y-78190000D03*
%TD*%
D19*
%TO.P,C2,2*%
%TO.N,GND*%
X101000000Y-77550000D03*
%TO.P,C2,1*%
%TO.N,+3V3*%
X101000000Y-79450000D03*
%TD*%
D11*
%TO.P,R3,2*%
%TO.N,+3V3*%
X97000000Y-70650000D03*
%TO.P,R3,1*%
%TO.N,Net-(D1-K)*%
X97000000Y-83350000D03*
%TD*%
%TO.N,GND*%
D20*
X108000000Y-70217500D02*
X108000000Y-67500000D01*
X118595000Y-80812500D02*
X108000000Y-70217500D01*
%TO.N,+3V3*%
X128500000Y-80500000D02*
X128500000Y-62500000D01*
X110000000Y-60500000D02*
X103000000Y-67500000D01*
X122000000Y-87000000D02*
X128500000Y-80500000D01*
X128500000Y-62500000D02*
X126500000Y-60500000D01*
X126500000Y-60500000D02*
X110000000Y-60500000D01*
X120450000Y-85500000D02*
X121950000Y-87000000D01*
X121950000Y-87000000D02*
X122000000Y-87000000D01*
%TO.N,GND*%
X121807717Y-88200000D02*
X122950000Y-89342283D01*
X122950000Y-100900000D02*
X121000000Y-102850000D01*
X120525000Y-88200000D02*
X121807717Y-88200000D01*
X118550000Y-86225000D02*
X120525000Y-88200000D01*
X118550000Y-85500000D02*
X118550000Y-86225000D01*
X122950000Y-89342283D02*
X122950000Y-100900000D01*
%TO.N,+3V3*%
X120450000Y-85500000D02*
X122450000Y-83500000D01*
%TO.N,Net-(U1-VIOUT)*%
X121135000Y-81865000D02*
X121135000Y-80812500D01*
X115500000Y-83000000D02*
X120000000Y-83000000D01*
X115000000Y-82500000D02*
X115500000Y-83000000D01*
X114080000Y-82500000D02*
X115000000Y-82500000D01*
X120000000Y-83000000D02*
X121135000Y-81865000D01*
X112310000Y-80730000D02*
X114080000Y-82500000D01*
%TO.N,+3V3*%
X93000000Y-102500000D02*
X93000000Y-91150000D01*
X94000000Y-103500000D02*
X93000000Y-102500000D01*
X93000000Y-91150000D02*
X97000000Y-87150000D01*
X103700000Y-102000000D02*
X102200000Y-103500000D01*
X102200000Y-103500000D02*
X94000000Y-103500000D01*
%TO.N,Net-(U2-VIN+)*%
X116400000Y-94750000D02*
X116400000Y-102000000D01*
X121000000Y-90150000D02*
X116400000Y-94750000D01*
X118000000Y-89000000D02*
X119850000Y-89000000D01*
X118000000Y-88960000D02*
X118000000Y-89000000D01*
X119850000Y-89000000D02*
X121000000Y-90150000D01*
X112310000Y-83270000D02*
X118000000Y-88960000D01*
%TO.N,+3V3*%
X122500000Y-82500000D02*
X122405000Y-82405000D01*
X122500000Y-83500000D02*
X122500000Y-82500000D01*
X122450000Y-83500000D02*
X122500000Y-83500000D01*
X122405000Y-82405000D02*
X122405000Y-80812500D01*
X93000000Y-74650000D02*
X97000000Y-70650000D01*
X94650000Y-87150000D02*
X93000000Y-85500000D01*
X97000000Y-87150000D02*
X94650000Y-87150000D01*
X93000000Y-85500000D02*
X93000000Y-74650000D01*
X100150000Y-67500000D02*
X97000000Y-70650000D01*
X103000000Y-67500000D02*
X100150000Y-67500000D01*
X97950000Y-79450000D02*
X101000000Y-79450000D01*
X97000000Y-78500000D02*
X97950000Y-79450000D01*
X97000000Y-70650000D02*
X97000000Y-78500000D01*
X103410000Y-79450000D02*
X104690000Y-80730000D01*
X101000000Y-79450000D02*
X103410000Y-79450000D01*
%TO.N,Net-(D1-A)*%
X97380000Y-99850000D02*
X97000000Y-99850000D01*
X101730000Y-95500000D02*
X97380000Y-99850000D01*
%TO.N,Net-(D1-K)*%
X97080000Y-83270000D02*
X97000000Y-83350000D01*
X104690000Y-83270000D02*
X97080000Y-83270000D01*
X103000000Y-83500000D02*
X103000000Y-91000000D01*
X103230000Y-83270000D02*
X103000000Y-83500000D01*
X103000000Y-91000000D02*
X104270000Y-92270000D01*
X104690000Y-83270000D02*
X103230000Y-83270000D01*
X104270000Y-92270000D02*
X104270000Y-95500000D01*
%TD*%
%TA.AperFunction,Conductor*%
%TO.N,Current+*%
G36*
X126443039Y-63519685D02*
G01*
X126488794Y-63572489D01*
X126500000Y-63624000D01*
X126500000Y-77876000D01*
X126480315Y-77943039D01*
X126427511Y-77988794D01*
X126376000Y-78000000D01*
X120624000Y-78000000D01*
X120556961Y-77980315D01*
X120511206Y-77927511D01*
X120500000Y-77876000D01*
X120500000Y-77811810D01*
X120519685Y-77744771D01*
X120572489Y-77699016D01*
X120573832Y-77698412D01*
X120577237Y-77696909D01*
X120753142Y-77576411D01*
X120903911Y-77425642D01*
X121024409Y-77249737D01*
X121110532Y-77054685D01*
X121159349Y-76847130D01*
X121165500Y-76758512D01*
X121165500Y-74966488D01*
X121159349Y-74877870D01*
X121159347Y-74877864D01*
X121159347Y-74877859D01*
X121110534Y-74670323D01*
X121110532Y-74670317D01*
X121110532Y-74670315D01*
X121024409Y-74475263D01*
X120903911Y-74299358D01*
X120903906Y-74299352D01*
X120753147Y-74148593D01*
X120753141Y-74148588D01*
X120577237Y-74028091D01*
X120577223Y-74028084D01*
X120573904Y-74026618D01*
X120572572Y-74025493D01*
X120572224Y-74025299D01*
X120572261Y-74025230D01*
X120520532Y-73981528D01*
X120500010Y-73914740D01*
X120500000Y-73913188D01*
X120500000Y-63624000D01*
X120519685Y-63556961D01*
X120572489Y-63511206D01*
X120624000Y-63500000D01*
X126376000Y-63500000D01*
X126443039Y-63519685D01*
G37*
%TD.AperFunction*%
%TD*%
%TA.AperFunction,Conductor*%
%TO.N,Current-*%
G36*
X119437539Y-63519685D02*
G01*
X119483294Y-63572489D01*
X119494500Y-63624000D01*
X119494500Y-73913389D01*
X119494520Y-73919692D01*
X119494530Y-73921213D01*
X119499084Y-74010547D01*
X119538858Y-74210069D01*
X119559382Y-74276861D01*
X119559383Y-74276864D01*
X119621320Y-74431471D01*
X119730300Y-74603270D01*
X119730302Y-74603272D01*
X119823974Y-74700267D01*
X119856385Y-74762164D01*
X119855484Y-74814797D01*
X119840651Y-74877859D01*
X119840649Y-74877879D01*
X119834500Y-74966481D01*
X119834500Y-76758517D01*
X119840649Y-76847119D01*
X119840652Y-76847141D01*
X119855151Y-76908788D01*
X119851338Y-76978553D01*
X119823131Y-77023842D01*
X119744819Y-77103979D01*
X119631693Y-77273071D01*
X119631690Y-77273078D01*
X119554916Y-77461481D01*
X119554914Y-77461487D01*
X119535233Y-77528516D01*
X119515082Y-77609407D01*
X119494500Y-77811808D01*
X119494500Y-77876000D01*
X119474815Y-77943039D01*
X119422011Y-77988794D01*
X119370500Y-78000000D01*
X117620166Y-78000000D01*
X117585230Y-77994977D01*
X117559988Y-77987565D01*
X117507243Y-77956269D01*
X114548926Y-74997952D01*
X114527774Y-74969696D01*
X114515167Y-74946607D01*
X114500000Y-74887182D01*
X114500000Y-63641829D01*
X114505023Y-63606893D01*
X114509427Y-63591895D01*
X114547172Y-63533144D01*
X114548541Y-63531957D01*
X114603420Y-63504477D01*
X114610979Y-63502833D01*
X114637332Y-63500000D01*
X119370500Y-63500000D01*
X119437539Y-63519685D01*
G37*
%TD.AperFunction*%
%TD*%
%TA.AperFunction,Conductor*%
%TO.N,GND*%
G36*
X115401579Y-84250500D02*
G01*
X115401583Y-84250500D01*
X115401584Y-84250500D01*
X115598417Y-84250500D01*
X117696647Y-84250500D01*
X117731574Y-84255521D01*
X117742427Y-84258707D01*
X117801208Y-84296477D01*
X117830237Y-84360031D01*
X117820298Y-84429190D01*
X117820291Y-84429205D01*
X117817106Y-84436178D01*
X117791997Y-84472340D01*
X117707685Y-84556652D01*
X117686246Y-84591410D01*
X117653501Y-84644499D01*
X117615641Y-84705879D01*
X117615638Y-84705888D01*
X117560494Y-84872299D01*
X117560493Y-84872304D01*
X117550000Y-84975007D01*
X117550000Y-84975013D01*
X117550000Y-85250000D01*
X118408170Y-85250000D01*
X118443106Y-85255023D01*
X118458104Y-85259427D01*
X118516855Y-85297172D01*
X118518042Y-85298541D01*
X118545518Y-85353402D01*
X118547163Y-85360960D01*
X118550000Y-85387331D01*
X118550000Y-85500000D01*
X118658170Y-85500000D01*
X118693106Y-85505023D01*
X118708104Y-85509427D01*
X118766855Y-85547172D01*
X118768042Y-85548541D01*
X118795518Y-85603402D01*
X118797163Y-85610960D01*
X118800000Y-85637331D01*
X118800000Y-86724999D01*
X118849960Y-86724999D01*
X118849972Y-86724999D01*
X118849986Y-86724998D01*
X118952697Y-86714505D01*
X119041534Y-86685067D01*
X119076267Y-86678847D01*
X119091895Y-86678309D01*
X119159566Y-86695674D01*
X119167770Y-86700556D01*
X119206278Y-86736493D01*
X119236180Y-86779653D01*
X119236181Y-86779654D01*
X119395346Y-86938819D01*
X119395350Y-86938822D01*
X119395354Y-86938825D01*
X119483218Y-86999697D01*
X119545633Y-87042938D01*
X119580372Y-87067006D01*
X119580373Y-87067006D01*
X119580374Y-87067007D01*
X119785317Y-87160096D01*
X119785321Y-87160097D01*
X119785323Y-87160097D01*
X119785397Y-87160123D01*
X119785532Y-87160150D01*
X119917777Y-87193473D01*
X120001716Y-87214625D01*
X120003768Y-87215176D01*
X120005649Y-87215366D01*
X120008406Y-87215475D01*
X120135783Y-87225500D01*
X120337834Y-87225499D01*
X120372765Y-87230520D01*
X120398006Y-87237932D01*
X120450754Y-87269228D01*
X120908596Y-87727070D01*
X120916602Y-87741733D01*
X120928633Y-87753328D01*
X120929734Y-87755301D01*
X120935725Y-87766271D01*
X120939515Y-87783695D01*
X120942081Y-87788393D01*
X120941699Y-87793731D01*
X120950578Y-87834543D01*
X120926163Y-87900008D01*
X120873661Y-87940543D01*
X120864477Y-87944283D01*
X120833895Y-87952379D01*
X120648044Y-87976846D01*
X120612753Y-87976426D01*
X120586167Y-87972280D01*
X120532389Y-87950080D01*
X120513302Y-87936213D01*
X120512963Y-87935924D01*
X120505408Y-87930478D01*
X120505407Y-87930477D01*
X120505405Y-87930476D01*
X120505394Y-87930468D01*
X120505035Y-87930287D01*
X120450637Y-87902570D01*
X120445609Y-87900008D01*
X120330030Y-87841117D01*
X120142826Y-87780290D01*
X120142824Y-87780289D01*
X120142822Y-87780289D01*
X119948427Y-87749500D01*
X119948422Y-87749500D01*
X119948417Y-87749500D01*
X118627166Y-87749500D01*
X118592230Y-87744477D01*
X118566988Y-87737065D01*
X118514243Y-87705769D01*
X116833469Y-86024995D01*
X117550001Y-86024995D01*
X117560493Y-86127694D01*
X117560493Y-86127695D01*
X117560494Y-86127697D01*
X117569676Y-86155405D01*
X117607848Y-86270603D01*
X117615641Y-86294119D01*
X117615643Y-86294124D01*
X117707684Y-86443345D01*
X117831654Y-86567315D01*
X117980875Y-86659356D01*
X117980880Y-86659358D01*
X118147299Y-86714504D01*
X118147300Y-86714504D01*
X118147302Y-86714505D01*
X118147309Y-86714506D01*
X118250019Y-86724999D01*
X118299999Y-86724998D01*
X118300000Y-86724998D01*
X118300000Y-85750000D01*
X117550001Y-85750000D01*
X117550001Y-86024995D01*
X116833469Y-86024995D01*
X115276960Y-84468486D01*
X115255811Y-84440236D01*
X115253595Y-84436178D01*
X115250389Y-84430306D01*
X115235536Y-84362036D01*
X115259950Y-84296571D01*
X115315880Y-84254699D01*
X115318817Y-84253603D01*
X115381522Y-84247323D01*
X115401579Y-84250500D01*
G37*
%TD.AperFunction*%
%TA.AperFunction,Conductor*%
G36*
X129892606Y-56005523D02*
G01*
X129907604Y-56009927D01*
X129966355Y-56047672D01*
X129967542Y-56049041D01*
X129995018Y-56103902D01*
X129996663Y-56111460D01*
X129999500Y-56137831D01*
X129999500Y-112357670D01*
X129994475Y-112392614D01*
X129990070Y-112407612D01*
X129952327Y-112466355D01*
X129950958Y-112467542D01*
X129896097Y-112495018D01*
X129888539Y-112496663D01*
X129862168Y-112499500D01*
X90642330Y-112499500D01*
X90607389Y-112494475D01*
X90592390Y-112490070D01*
X90533644Y-112452327D01*
X90532457Y-112450958D01*
X90504977Y-112396083D01*
X90503332Y-112388521D01*
X90500500Y-112362168D01*
X90500500Y-74551577D01*
X91749500Y-74551577D01*
X91749500Y-74556226D01*
X91749500Y-85598427D01*
X91778782Y-85783306D01*
X91780290Y-85792826D01*
X91841117Y-85980030D01*
X91916358Y-86127697D01*
X91930476Y-86155405D01*
X92046172Y-86314646D01*
X93696171Y-87964645D01*
X93696172Y-87964646D01*
X93835354Y-88103828D01*
X93911129Y-88158882D01*
X93911128Y-88158882D01*
X93959673Y-88194152D01*
X93984986Y-88218753D01*
X93993460Y-88229743D01*
X94018807Y-88294853D01*
X94004935Y-88363321D01*
X93998861Y-88374834D01*
X93976869Y-88404654D01*
X92046178Y-90335345D01*
X92045770Y-90335843D01*
X92044701Y-90337379D01*
X92029490Y-90358315D01*
X91930475Y-90494594D01*
X91841116Y-90669971D01*
X91780289Y-90857176D01*
X91749500Y-91051571D01*
X91749500Y-102598427D01*
X91780289Y-102792822D01*
X91780290Y-102792826D01*
X91841117Y-102980030D01*
X91930476Y-103155405D01*
X92046172Y-103314646D01*
X93046172Y-104314646D01*
X93185354Y-104453828D01*
X93344595Y-104569524D01*
X93427455Y-104611743D01*
X93513521Y-104655596D01*
X93515124Y-104656534D01*
X93518823Y-104658326D01*
X93520831Y-104659324D01*
X93524597Y-104660386D01*
X93562082Y-104672565D01*
X93620315Y-104691486D01*
X93620316Y-104691487D01*
X93642031Y-104698542D01*
X93707173Y-104719709D01*
X93901578Y-104750500D01*
X93901583Y-104750500D01*
X102298421Y-104750500D01*
X102298422Y-104750500D01*
X102492826Y-104719709D01*
X102680026Y-104658884D01*
X102855405Y-104569524D01*
X103014646Y-104453828D01*
X103245614Y-104222857D01*
X103273861Y-104201712D01*
X103294163Y-104190626D01*
X103348431Y-104175567D01*
X103351386Y-104175444D01*
X103372700Y-104176397D01*
X103543991Y-104198948D01*
X103543992Y-104198949D01*
X103547448Y-104199404D01*
X103555756Y-104200498D01*
X103555772Y-104200500D01*
X103555779Y-104200500D01*
X103844221Y-104200500D01*
X103844228Y-104200500D01*
X104130217Y-104162849D01*
X104404998Y-104089221D01*
X104408209Y-104088473D01*
X104410595Y-104087527D01*
X104411074Y-104087345D01*
X104412901Y-104086511D01*
X104671302Y-103979478D01*
X104673162Y-103978784D01*
X104673622Y-103978578D01*
X104675412Y-103977804D01*
X104677048Y-103976895D01*
X104678770Y-103975826D01*
X104925156Y-103833575D01*
X105154004Y-103657974D01*
X105357974Y-103454004D01*
X105533575Y-103225156D01*
X105677804Y-102975345D01*
X105688445Y-102949653D01*
X105697006Y-102928990D01*
X105775881Y-102738564D01*
X105786511Y-102712901D01*
X105787338Y-102711088D01*
X105787520Y-102710611D01*
X105788474Y-102708204D01*
X105789221Y-102704998D01*
X105862849Y-102430217D01*
X105900500Y-102144228D01*
X105900500Y-101855772D01*
X105862849Y-101569783D01*
X105789734Y-101296913D01*
X105789408Y-101295412D01*
X105788504Y-101292254D01*
X105788148Y-101290970D01*
X105787525Y-101289400D01*
X105787341Y-101288915D01*
X105786511Y-101287097D01*
X105677809Y-101024666D01*
X105677803Y-101024653D01*
X105677800Y-101024648D01*
X105677800Y-101024647D01*
X105562732Y-100825345D01*
X105533710Y-100775077D01*
X105533580Y-100774851D01*
X105533580Y-100774850D01*
X105367845Y-100558860D01*
X105367844Y-100558859D01*
X105367832Y-100558844D01*
X105357975Y-100545997D01*
X105357969Y-100545990D01*
X105154009Y-100342030D01*
X105154002Y-100342024D01*
X105153999Y-100342021D01*
X105153994Y-100342017D01*
X104926754Y-100167651D01*
X104925479Y-100166639D01*
X104925154Y-100166423D01*
X104675350Y-100022198D01*
X104675345Y-100022195D01*
X104675332Y-100022189D01*
X104408869Y-99911817D01*
X104408851Y-99911810D01*
X104408840Y-99911807D01*
X104130221Y-99837152D01*
X104130219Y-99837151D01*
X104130217Y-99837151D01*
X104130211Y-99837150D01*
X104130206Y-99837149D01*
X104130201Y-99837148D01*
X103848328Y-99800039D01*
X103846312Y-99799705D01*
X103844238Y-99799500D01*
X103844233Y-99799500D01*
X103844228Y-99799500D01*
X103555772Y-99799500D01*
X103555766Y-99799500D01*
X103555761Y-99799500D01*
X103553684Y-99799705D01*
X103551670Y-99800039D01*
X103269814Y-99837146D01*
X103269782Y-99837150D01*
X103267969Y-99837578D01*
X103266199Y-99838110D01*
X103224314Y-99849334D01*
X103224312Y-99849335D01*
X102991155Y-99911809D01*
X102991139Y-99911814D01*
X102991136Y-99911815D01*
X102991130Y-99911817D01*
X102724656Y-100022193D01*
X102724653Y-100022195D01*
X102724648Y-100022198D01*
X102474855Y-100166417D01*
X102474838Y-100166429D01*
X102474824Y-100166439D01*
X102246004Y-100342017D01*
X102245989Y-100342031D01*
X102245981Y-100342038D01*
X102042038Y-100545981D01*
X102042031Y-100545989D01*
X102042017Y-100546004D01*
X101866439Y-100774824D01*
X101866429Y-100774838D01*
X101866417Y-100774855D01*
X101722198Y-101024648D01*
X101722195Y-101024653D01*
X101722193Y-101024656D01*
X101611817Y-101291130D01*
X101611815Y-101291136D01*
X101611814Y-101291139D01*
X101611809Y-101291155D01*
X101538679Y-101564083D01*
X101538676Y-101564092D01*
X101537152Y-101569776D01*
X101537147Y-101569802D01*
X101499501Y-101855754D01*
X101499500Y-101855783D01*
X101499500Y-102107670D01*
X101494475Y-102142614D01*
X101490070Y-102157612D01*
X101452327Y-102216355D01*
X101450958Y-102217542D01*
X101396097Y-102245018D01*
X101388539Y-102246663D01*
X101362168Y-102249500D01*
X97506725Y-102249500D01*
X97489760Y-102244518D01*
X97471795Y-102244478D01*
X97465933Y-102242757D01*
X97450931Y-102233117D01*
X97439686Y-102229815D01*
X97432013Y-102220960D01*
X97407153Y-102204985D01*
X97394872Y-102178098D01*
X97393931Y-102177011D01*
X97393726Y-102175587D01*
X97378126Y-102141431D01*
X97388067Y-102072272D01*
X97433811Y-102019471D01*
X97437785Y-102016917D01*
X97472731Y-102001456D01*
X97704989Y-101939223D01*
X97708203Y-101938474D01*
X97710610Y-101937520D01*
X97711090Y-101937337D01*
X97712901Y-101936511D01*
X97971302Y-101829478D01*
X97973162Y-101828784D01*
X97973622Y-101828578D01*
X97975412Y-101827804D01*
X97977048Y-101826895D01*
X97978770Y-101825826D01*
X98225156Y-101683575D01*
X98454004Y-101507974D01*
X98657974Y-101304004D01*
X98833575Y-101075156D01*
X98977804Y-100825345D01*
X98998626Y-100775077D01*
X99088186Y-100558859D01*
X99088187Y-100558853D01*
X99088191Y-100558845D01*
X99162849Y-100280217D01*
X99200500Y-99994228D01*
X99200500Y-99867164D01*
X99205522Y-99832231D01*
X99212934Y-99806986D01*
X99244228Y-99754244D01*
X101549048Y-97449423D01*
X101577303Y-97428273D01*
X101600393Y-97415666D01*
X101659816Y-97400500D01*
X101854558Y-97400500D01*
X101854565Y-97400500D01*
X102101565Y-97367982D01*
X102342207Y-97303502D01*
X102523137Y-97228557D01*
X102568321Y-97209842D01*
X102571523Y-97208647D01*
X102573266Y-97207759D01*
X102575803Y-97206183D01*
X102603203Y-97190364D01*
X102635958Y-97177250D01*
X102651152Y-97173564D01*
X102720937Y-97176884D01*
X102732531Y-97180897D01*
X102770327Y-97201972D01*
X102816593Y-97239698D01*
X102996951Y-97333909D01*
X103192582Y-97389886D01*
X103311963Y-97400500D01*
X105228036Y-97400499D01*
X105347418Y-97389886D01*
X105543049Y-97333909D01*
X105723407Y-97239698D01*
X105881109Y-97111109D01*
X106009698Y-96953407D01*
X106103909Y-96773049D01*
X106159886Y-96577418D01*
X106170500Y-96458037D01*
X106170499Y-94541964D01*
X106159886Y-94422582D01*
X106103909Y-94226951D01*
X106009698Y-94046593D01*
X105918993Y-93935352D01*
X105881109Y-93888890D01*
X105781000Y-93807263D01*
X105767182Y-93795996D01*
X105723411Y-93760305D01*
X105723404Y-93760300D01*
X105723402Y-93760299D01*
X105723403Y-93760299D01*
X105602886Y-93697345D01*
X105574250Y-93676721D01*
X105561718Y-93664642D01*
X105527906Y-93607126D01*
X105524638Y-93594795D01*
X105520500Y-93563029D01*
X105520500Y-92171578D01*
X105490723Y-91983578D01*
X105490721Y-91983565D01*
X105489711Y-91977186D01*
X105489710Y-91977185D01*
X105489709Y-91977174D01*
X105485639Y-91964646D01*
X105430377Y-91794571D01*
X105429323Y-91790832D01*
X105428310Y-91788792D01*
X105426529Y-91785115D01*
X105425602Y-91783532D01*
X105366722Y-91667974D01*
X105339524Y-91614595D01*
X105223828Y-91455354D01*
X104299426Y-90530952D01*
X104278274Y-90502696D01*
X104265667Y-90479607D01*
X104250500Y-90420182D01*
X104250500Y-87727398D01*
X104255522Y-87692466D01*
X104259503Y-87678908D01*
X104297275Y-87620131D01*
X104360095Y-87591213D01*
X104373434Y-87589214D01*
X104407978Y-87588907D01*
X104563370Y-87609364D01*
X104563371Y-87609365D01*
X104565290Y-87609617D01*
X104571973Y-87610498D01*
X104571989Y-87610500D01*
X104571996Y-87610500D01*
X104808004Y-87610500D01*
X104808011Y-87610500D01*
X105042014Y-87579693D01*
X105269993Y-87518606D01*
X105488049Y-87428284D01*
X105692450Y-87310273D01*
X105879699Y-87166592D01*
X106046592Y-86999699D01*
X106046594Y-86999697D01*
X106046595Y-86999696D01*
X106131171Y-86889473D01*
X106190273Y-86812450D01*
X106308284Y-86608049D01*
X106398606Y-86389993D01*
X106459693Y-86162014D01*
X106490500Y-85928011D01*
X106490500Y-85691989D01*
X106459693Y-85457986D01*
X106398606Y-85230007D01*
X106308481Y-85012427D01*
X106308189Y-85011710D01*
X106307376Y-85010245D01*
X106306294Y-85008503D01*
X106289033Y-84978606D01*
X106236887Y-84888288D01*
X106190273Y-84807550D01*
X106065161Y-84644500D01*
X106056457Y-84633157D01*
X106042352Y-84609860D01*
X106033792Y-84591410D01*
X106023433Y-84522318D01*
X106024268Y-84516257D01*
X106042788Y-84466152D01*
X106045900Y-84461309D01*
X106051842Y-84452858D01*
X106096577Y-84394556D01*
X106098814Y-84391641D01*
X106190273Y-84272450D01*
X106308284Y-84068049D01*
X106398606Y-83849993D01*
X106459693Y-83622014D01*
X106490500Y-83388011D01*
X106490500Y-83151989D01*
X106459693Y-82917986D01*
X106398606Y-82690007D01*
X106308489Y-82472447D01*
X106308189Y-82471708D01*
X106307375Y-82470243D01*
X106306299Y-82468510D01*
X106252106Y-82374648D01*
X106252105Y-82374647D01*
X106190273Y-82267550D01*
X106190262Y-82267536D01*
X106157105Y-82224325D01*
X106157104Y-82224324D01*
X106056459Y-82093159D01*
X106042352Y-82069860D01*
X106033792Y-82051410D01*
X106023433Y-81982318D01*
X106024268Y-81976257D01*
X106042781Y-81926162D01*
X106044619Y-81923302D01*
X106044618Y-81923301D01*
X106045893Y-81921318D01*
X106051822Y-81912882D01*
X106123083Y-81820014D01*
X106190273Y-81732450D01*
X106308284Y-81528049D01*
X106398606Y-81309993D01*
X106459693Y-81082014D01*
X106490500Y-80848011D01*
X106490500Y-80611989D01*
X106459693Y-80377986D01*
X106398606Y-80150007D01*
X106308481Y-79932427D01*
X106308189Y-79931710D01*
X106307376Y-79930245D01*
X106306294Y-79928503D01*
X106251672Y-79833897D01*
X106190273Y-79727550D01*
X106190272Y-79727548D01*
X106107995Y-79620323D01*
X106056459Y-79553159D01*
X106042352Y-79529860D01*
X106033792Y-79511410D01*
X106023433Y-79442318D01*
X106024268Y-79436257D01*
X106042781Y-79386162D01*
X106044619Y-79383302D01*
X106044618Y-79383301D01*
X106045893Y-79381318D01*
X106051822Y-79372882D01*
X106146606Y-79249358D01*
X106190273Y-79192450D01*
X106308284Y-78988049D01*
X106398606Y-78769993D01*
X106459693Y-78542014D01*
X106490500Y-78308011D01*
X106490500Y-78071989D01*
X106459693Y-77837986D01*
X106398606Y-77610007D01*
X106308481Y-77392427D01*
X106308189Y-77391710D01*
X106307374Y-77390241D01*
X106306294Y-77388503D01*
X106255196Y-77299999D01*
X106255195Y-77299998D01*
X106190275Y-77187552D01*
X106190273Y-77187550D01*
X106061996Y-77020376D01*
X106046592Y-77000301D01*
X106046587Y-77000295D01*
X106046586Y-77000294D01*
X106046574Y-77000281D01*
X105879712Y-76833420D01*
X105879704Y-76833412D01*
X105879697Y-76833406D01*
X105879694Y-76833403D01*
X105879689Y-76833399D01*
X105694040Y-76690947D01*
X105692776Y-76689944D01*
X105692447Y-76689725D01*
X105692444Y-76689723D01*
X105564133Y-76615643D01*
X105488056Y-76571719D01*
X105488048Y-76571715D01*
X105269997Y-76481395D01*
X105171131Y-76454904D01*
X105049865Y-76422410D01*
X105042117Y-76419780D01*
X105033951Y-76419245D01*
X104809889Y-76389747D01*
X104808208Y-76389500D01*
X104808017Y-76389500D01*
X104808011Y-76389500D01*
X104571989Y-76389500D01*
X104571983Y-76389500D01*
X104571981Y-76389500D01*
X104565861Y-76390253D01*
X104564955Y-76390425D01*
X104337992Y-76420305D01*
X104110001Y-76481395D01*
X103891950Y-76571715D01*
X103891942Y-76571719D01*
X103687545Y-76689730D01*
X103687536Y-76689736D01*
X103500309Y-76833399D01*
X103500294Y-76833413D01*
X103500286Y-76833420D01*
X103333420Y-77000286D01*
X103333413Y-77000294D01*
X103333399Y-77000309D01*
X103189736Y-77187536D01*
X103189730Y-77187545D01*
X103071719Y-77391942D01*
X103071716Y-77391949D01*
X102981395Y-77610001D01*
X102920305Y-77837992D01*
X102889916Y-78068823D01*
X102885953Y-78087576D01*
X102880071Y-78107606D01*
X102842327Y-78166355D01*
X102840958Y-78167542D01*
X102786097Y-78195018D01*
X102778539Y-78196663D01*
X102752168Y-78199500D01*
X102322273Y-78199500D01*
X102287334Y-78194476D01*
X102274016Y-78190565D01*
X102215239Y-78152789D01*
X102186217Y-78089232D01*
X102186216Y-78089229D01*
X102185978Y-78087576D01*
X102185243Y-78082458D01*
X102190276Y-78025815D01*
X102192346Y-78019569D01*
X102214505Y-77952697D01*
X102214506Y-77952690D01*
X102224999Y-77849986D01*
X102225000Y-77849973D01*
X102225000Y-77800000D01*
X99775001Y-77800000D01*
X99775001Y-77849994D01*
X99785492Y-77952693D01*
X99807654Y-78019569D01*
X99813874Y-78054304D01*
X99814352Y-78068176D01*
X99796988Y-78135853D01*
X99745793Y-78183398D01*
X99739673Y-78186452D01*
X99684306Y-78199500D01*
X98537166Y-78199500D01*
X98502230Y-78194477D01*
X98476988Y-78187065D01*
X98424243Y-78155769D01*
X98299426Y-78030952D01*
X98278274Y-78002696D01*
X98265667Y-77979607D01*
X98250500Y-77920182D01*
X98250500Y-77250007D01*
X99775000Y-77250007D01*
X99775000Y-77250010D01*
X99775000Y-77250013D01*
X99775000Y-77300000D01*
X100750000Y-77300000D01*
X101250000Y-77300000D01*
X102224999Y-77300000D01*
X102224999Y-77250028D01*
X102224998Y-77250013D01*
X102214505Y-77147302D01*
X102159358Y-76980880D01*
X102159356Y-76980875D01*
X102067315Y-76831654D01*
X101943345Y-76707684D01*
X101794124Y-76615643D01*
X101794119Y-76615641D01*
X101794110Y-76615638D01*
X101627699Y-76560494D01*
X101627694Y-76560493D01*
X101524991Y-76550000D01*
X101524986Y-76550000D01*
X101250000Y-76550000D01*
X101250000Y-77300000D01*
X100750000Y-77300000D01*
X100750000Y-76550000D01*
X100475037Y-76550000D01*
X100475029Y-76550000D01*
X100475019Y-76550000D01*
X100475006Y-76550001D01*
X100372304Y-76560493D01*
X100372302Y-76560494D01*
X100205887Y-76615638D01*
X100205879Y-76615641D01*
X100205877Y-76615642D01*
X100205875Y-76615643D01*
X100107748Y-76676169D01*
X100056652Y-76707685D01*
X99932685Y-76831652D01*
X99840641Y-76980879D01*
X99840638Y-76980888D01*
X99785494Y-77147299D01*
X99785493Y-77147304D01*
X99775000Y-77250007D01*
X98250500Y-77250007D01*
X98250500Y-72543106D01*
X98255522Y-72508173D01*
X98262040Y-72485976D01*
X98289762Y-72436957D01*
X98291764Y-72434780D01*
X98307517Y-72420375D01*
X98454004Y-72307974D01*
X98657974Y-72104004D01*
X98833575Y-71875156D01*
X98977804Y-71625345D01*
X99088191Y-71358845D01*
X99162849Y-71080217D01*
X99200500Y-70794228D01*
X99200500Y-70505772D01*
X99177326Y-70329753D01*
X99177746Y-70294463D01*
X99181309Y-70271614D01*
X99202390Y-70219400D01*
X99204088Y-70216986D01*
X99217832Y-70200639D01*
X100619051Y-68799423D01*
X100647301Y-68778275D01*
X100670393Y-68765667D01*
X100729818Y-68750500D01*
X100951853Y-68750500D01*
X100986789Y-68755523D01*
X101001787Y-68759927D01*
X101060558Y-68797695D01*
X101066666Y-68804743D01*
X101087273Y-68842791D01*
X101088755Y-68842200D01*
X101091089Y-68848045D01*
X101185302Y-69028407D01*
X101313890Y-69186109D01*
X101347012Y-69213116D01*
X101347013Y-69213117D01*
X101347012Y-69213117D01*
X101471587Y-69314694D01*
X101471590Y-69314695D01*
X101471593Y-69314698D01*
X101651951Y-69408909D01*
X101847582Y-69464886D01*
X101966963Y-69475500D01*
X104033036Y-69475499D01*
X104152418Y-69464886D01*
X104348049Y-69408909D01*
X104528407Y-69314698D01*
X104686109Y-69186109D01*
X104814698Y-69028407D01*
X104908909Y-68848049D01*
X104964886Y-68652418D01*
X104975500Y-68533037D01*
X104975499Y-67383909D01*
X106525000Y-67383909D01*
X106525000Y-67616089D01*
X106545811Y-67747489D01*
X106561318Y-67845393D01*
X106633065Y-68066205D01*
X106738465Y-68273064D01*
X106795238Y-68351207D01*
X107282924Y-67863520D01*
X107344245Y-67830037D01*
X107413936Y-67835021D01*
X107469870Y-67876892D01*
X107473691Y-67882292D01*
X107495112Y-67914351D01*
X107495116Y-67914355D01*
X107495116Y-67914356D01*
X107585646Y-68004886D01*
X107617684Y-68026293D01*
X107662489Y-68079906D01*
X107671196Y-68149231D01*
X107641041Y-68212258D01*
X107636474Y-68217076D01*
X107148791Y-68704758D01*
X107148791Y-68704759D01*
X107148791Y-68704760D01*
X107226935Y-68761534D01*
X107433794Y-68866934D01*
X107654606Y-68938681D01*
X107883910Y-68975000D01*
X108116089Y-68975000D01*
X108116090Y-68975000D01*
X108345393Y-68938681D01*
X108566205Y-68866934D01*
X108773071Y-68761530D01*
X108851207Y-68704762D01*
X108851208Y-68704760D01*
X108851207Y-68704758D01*
X108363524Y-68217076D01*
X108330039Y-68155753D01*
X108335023Y-68086062D01*
X108376894Y-68030128D01*
X108382270Y-68026323D01*
X108414351Y-68004888D01*
X108504888Y-67914351D01*
X108526295Y-67882312D01*
X108579903Y-67837510D01*
X108649227Y-67828801D01*
X108712256Y-67858955D01*
X108717076Y-67863524D01*
X109204758Y-68351207D01*
X109204760Y-68351208D01*
X109204762Y-68351207D01*
X109261530Y-68273071D01*
X109321308Y-68155753D01*
X109325430Y-68147664D01*
X109349185Y-68101041D01*
X109366934Y-68066205D01*
X109438681Y-67845393D01*
X109475000Y-67616090D01*
X109475000Y-67383909D01*
X109438681Y-67154606D01*
X109366934Y-66933794D01*
X109261534Y-66726935D01*
X109204760Y-66648791D01*
X109204759Y-66648791D01*
X109204758Y-66648791D01*
X108717076Y-67136474D01*
X108655753Y-67169959D01*
X108586061Y-67164975D01*
X108530128Y-67123103D01*
X108526293Y-67117684D01*
X108504886Y-67085646D01*
X108414356Y-66995116D01*
X108414352Y-66995113D01*
X108414351Y-66995112D01*
X108382310Y-66973703D01*
X108337507Y-66920091D01*
X108328800Y-66850766D01*
X108358955Y-66787739D01*
X108363500Y-66782943D01*
X108851207Y-66295238D01*
X108773064Y-66238465D01*
X108566205Y-66133065D01*
X108345393Y-66061318D01*
X108345391Y-66061317D01*
X108345390Y-66061317D01*
X108169244Y-66033418D01*
X108116090Y-66025000D01*
X108116089Y-66025000D01*
X107883905Y-66025000D01*
X107654609Y-66061317D01*
X107433791Y-66133066D01*
X107226926Y-66238469D01*
X107226922Y-66238471D01*
X107148791Y-66295237D01*
X107148791Y-66295238D01*
X107636475Y-66782922D01*
X107669960Y-66844245D01*
X107664976Y-66913937D01*
X107623104Y-66969870D01*
X107617688Y-66973703D01*
X107585648Y-66995112D01*
X107585643Y-66995116D01*
X107495116Y-67085643D01*
X107495112Y-67085648D01*
X107473703Y-67117688D01*
X107420090Y-67162491D01*
X107350764Y-67171197D01*
X107287738Y-67141040D01*
X107282922Y-67136475D01*
X106795238Y-66648791D01*
X106795237Y-66648791D01*
X106738471Y-66726922D01*
X106738469Y-66726926D01*
X106633066Y-66933791D01*
X106561317Y-67154609D01*
X106525000Y-67383909D01*
X104975499Y-67383909D01*
X104975499Y-67362162D01*
X104980522Y-67327229D01*
X104987933Y-67301989D01*
X105019227Y-67249244D01*
X110469050Y-61799423D01*
X110497300Y-61778275D01*
X110520392Y-61765667D01*
X110579817Y-61750500D01*
X125912834Y-61750500D01*
X125947766Y-61755521D01*
X125973010Y-61762934D01*
X126025756Y-61794230D01*
X126519368Y-62287842D01*
X126552853Y-62349165D01*
X126547869Y-62418857D01*
X126505997Y-62474790D01*
X126440533Y-62499207D01*
X126419142Y-62498887D01*
X126376001Y-62494500D01*
X126376000Y-62494500D01*
X120624000Y-62494500D01*
X120623347Y-62494503D01*
X120612420Y-62494566D01*
X120612406Y-62494567D01*
X120410254Y-62517481D01*
X120358753Y-62528685D01*
X120267058Y-62553217D01*
X120080476Y-62634306D01*
X120080473Y-62634307D01*
X120080473Y-62634308D01*
X120068446Y-62642761D01*
X120002280Y-62665206D01*
X119934483Y-62648315D01*
X119928192Y-62644374D01*
X119909238Y-62631693D01*
X119909231Y-62631690D01*
X119720828Y-62554916D01*
X119720822Y-62554914D01*
X119653793Y-62535233D01*
X119653795Y-62535233D01*
X119653790Y-62535232D01*
X119572906Y-62515083D01*
X119572902Y-62515082D01*
X119572903Y-62515082D01*
X119370501Y-62494500D01*
X119370500Y-62494500D01*
X114637332Y-62494500D01*
X114637329Y-62494500D01*
X114529863Y-62500259D01*
X114503503Y-62503093D01*
X114429507Y-62515082D01*
X114397289Y-62520302D01*
X114397285Y-62520302D01*
X114397278Y-62520304D01*
X114389729Y-62521946D01*
X114369134Y-62526939D01*
X114343415Y-62533175D01*
X114343412Y-62533175D01*
X114343408Y-62533177D01*
X114343404Y-62533178D01*
X114153223Y-62605392D01*
X114153219Y-62605394D01*
X114098347Y-62632870D01*
X114056253Y-62655211D01*
X114056240Y-62655219D01*
X113889836Y-62772260D01*
X113889824Y-62772269D01*
X113888488Y-62773427D01*
X113827934Y-62830487D01*
X113701213Y-62989651D01*
X113701206Y-62989660D01*
X113663470Y-63048397D01*
X113621435Y-63120193D01*
X113621432Y-63120200D01*
X113544663Y-63308590D01*
X113540256Y-63323600D01*
X113509757Y-63463794D01*
X113504734Y-63498732D01*
X113494500Y-63641826D01*
X113494500Y-74887201D01*
X113495619Y-74934634D01*
X113495619Y-74934636D01*
X113525731Y-75135841D01*
X113525732Y-75135845D01*
X113540891Y-75195240D01*
X113540897Y-75195263D01*
X113540899Y-75195269D01*
X113542852Y-75202232D01*
X113553719Y-75240965D01*
X113553721Y-75240971D01*
X113632651Y-75428475D01*
X113632652Y-75428476D01*
X113645255Y-75451559D01*
X113645268Y-75451579D01*
X113722822Y-75572259D01*
X113722834Y-75572276D01*
X113743976Y-75600519D01*
X113743978Y-75600521D01*
X113743979Y-75600522D01*
X113837930Y-75708948D01*
X113837937Y-75708955D01*
X113837949Y-75708968D01*
X116796247Y-78667266D01*
X116824144Y-78693875D01*
X116830588Y-78700021D01*
X116994155Y-78821007D01*
X117046900Y-78852303D01*
X117070731Y-78865692D01*
X117088283Y-78875554D01*
X117088285Y-78875554D01*
X117088289Y-78875557D01*
X117216591Y-78927839D01*
X117276688Y-78952329D01*
X117276690Y-78952329D01*
X117276696Y-78952332D01*
X117301938Y-78959744D01*
X117442134Y-78990243D01*
X117477070Y-78995266D01*
X117620166Y-79005500D01*
X118770582Y-79005500D01*
X118837621Y-79025185D01*
X118883376Y-79077989D01*
X118893320Y-79147147D01*
X118864295Y-79210703D01*
X118858263Y-79217181D01*
X118826105Y-79249338D01*
X118826098Y-79249346D01*
X118826093Y-79249351D01*
X118826093Y-79249352D01*
X118826088Y-79249358D01*
X118770682Y-79330241D01*
X118732338Y-79386217D01*
X118705592Y-79425261D01*
X118619467Y-79620317D01*
X118619465Y-79620323D01*
X118593787Y-79729495D01*
X118580908Y-79762336D01*
X118577892Y-79767647D01*
X118527670Y-79816222D01*
X118459159Y-79829934D01*
X118394111Y-79804430D01*
X118353177Y-79747806D01*
X118353166Y-79747776D01*
X118352838Y-79746850D01*
X118352100Y-79744765D01*
X118345000Y-79703405D01*
X118345000Y-79340203D01*
X118342505Y-79340399D01*
X118342497Y-79340401D01*
X118184833Y-79386207D01*
X118184802Y-79386217D01*
X118184799Y-79386218D01*
X118043452Y-79469810D01*
X118043447Y-79469813D01*
X118043436Y-79469822D01*
X117927322Y-79585936D01*
X117927313Y-79585947D01*
X117927310Y-79585952D01*
X117843720Y-79727297D01*
X117843717Y-79727302D01*
X117843707Y-79727333D01*
X117797902Y-79884993D01*
X117797901Y-79884997D01*
X117797900Y-79885004D01*
X117797899Y-79885010D01*
X117795000Y-79921850D01*
X117795000Y-80562500D01*
X118345000Y-80562500D01*
X118348597Y-80561009D01*
X118368457Y-80546141D01*
X118378391Y-80540717D01*
X118446661Y-80525864D01*
X118512126Y-80550278D01*
X118553999Y-80606210D01*
X118554001Y-80606214D01*
X118556682Y-80613402D01*
X118564500Y-80656736D01*
X118564500Y-80920670D01*
X118559475Y-80955614D01*
X118555070Y-80970612D01*
X118517327Y-81029355D01*
X118515958Y-81030542D01*
X118461097Y-81058018D01*
X118453539Y-81059663D01*
X118427168Y-81062500D01*
X117795000Y-81062500D01*
X117795000Y-81607670D01*
X117789975Y-81642614D01*
X117785570Y-81657612D01*
X117747827Y-81716355D01*
X117746458Y-81717542D01*
X117691597Y-81745018D01*
X117684039Y-81746663D01*
X117657668Y-81749500D01*
X116087166Y-81749500D01*
X116052230Y-81744477D01*
X116026988Y-81737065D01*
X115974243Y-81705769D01*
X115814648Y-81546174D01*
X115814647Y-81546173D01*
X115814646Y-81546172D01*
X115655405Y-81430476D01*
X115480030Y-81341117D01*
X115292826Y-81280290D01*
X115292824Y-81280289D01*
X115292822Y-81280289D01*
X115098427Y-81249500D01*
X115098422Y-81249500D01*
X115098417Y-81249500D01*
X114667166Y-81249500D01*
X114632230Y-81244477D01*
X114606988Y-81237065D01*
X114554243Y-81205769D01*
X114159426Y-80810952D01*
X114138274Y-80782696D01*
X114125667Y-80759607D01*
X114110500Y-80700182D01*
X114110500Y-80611995D01*
X114110500Y-80611989D01*
X114079693Y-80377986D01*
X114018606Y-80150007D01*
X113928481Y-79932427D01*
X113928189Y-79931710D01*
X113927374Y-79930241D01*
X113926294Y-79928503D01*
X113810408Y-79727783D01*
X113810287Y-79727573D01*
X113810281Y-79727564D01*
X113810277Y-79727557D01*
X113810273Y-79727550D01*
X113810263Y-79727537D01*
X113809110Y-79725803D01*
X113796696Y-79701836D01*
X113790879Y-79686789D01*
X113785066Y-79617165D01*
X113786293Y-79611180D01*
X113808010Y-79562447D01*
X113808114Y-79562307D01*
X113820176Y-79548296D01*
X113823819Y-79544654D01*
X113869733Y-79478381D01*
X113952007Y-79359626D01*
X114045096Y-79154683D01*
X114100096Y-78936412D01*
X114110500Y-78804217D01*
X114110499Y-77575784D01*
X114100096Y-77443588D01*
X114087084Y-77391951D01*
X114045097Y-77225321D01*
X114045096Y-77225318D01*
X114027941Y-77187550D01*
X113952007Y-77020374D01*
X113823819Y-76835346D01*
X113664654Y-76676181D01*
X113664650Y-76676178D01*
X113664645Y-76676174D01*
X113480560Y-76548640D01*
X113479691Y-76548025D01*
X113479625Y-76547992D01*
X113276790Y-76455861D01*
X113275446Y-76455220D01*
X113274682Y-76454903D01*
X113274668Y-76454899D01*
X113056429Y-76399906D01*
X113056418Y-76399904D01*
X113056414Y-76399903D01*
X113012348Y-76396436D01*
X113012347Y-76396436D01*
X112924222Y-76389500D01*
X112924217Y-76389500D01*
X112924215Y-76389500D01*
X111695791Y-76389500D01*
X111695787Y-76389500D01*
X111563584Y-76399903D01*
X111563580Y-76399904D01*
X111563569Y-76399906D01*
X111345330Y-76454899D01*
X111345309Y-76454906D01*
X111140384Y-76547986D01*
X111140374Y-76547992D01*
X111140368Y-76547995D01*
X111140362Y-76547999D01*
X110955359Y-76676169D01*
X110955349Y-76676177D01*
X110955346Y-76676180D01*
X110955328Y-76676196D01*
X110796196Y-76835328D01*
X110796180Y-76835346D01*
X110796177Y-76835349D01*
X110796169Y-76835359D01*
X110667999Y-77020362D01*
X110667995Y-77020368D01*
X110667992Y-77020374D01*
X110667986Y-77020384D01*
X110574906Y-77225309D01*
X110574899Y-77225330D01*
X110519906Y-77443569D01*
X110519904Y-77443580D01*
X110519904Y-77443583D01*
X110509500Y-77575771D01*
X110509500Y-78804211D01*
X110519903Y-78936414D01*
X110519904Y-78936418D01*
X110519906Y-78936429D01*
X110574899Y-79154668D01*
X110574906Y-79154689D01*
X110667986Y-79359614D01*
X110667992Y-79359624D01*
X110667995Y-79359630D01*
X110667999Y-79359636D01*
X110796159Y-79544625D01*
X110796182Y-79544655D01*
X110799062Y-79547976D01*
X110798825Y-79548181D01*
X110798827Y-79548183D01*
X110798799Y-79548203D01*
X110798452Y-79548504D01*
X110814904Y-79570481D01*
X110822395Y-79584200D01*
X110837246Y-79652466D01*
X110836811Y-79658552D01*
X110821361Y-79710221D01*
X110821290Y-79710348D01*
X110811449Y-79725303D01*
X110809727Y-79727547D01*
X110809725Y-79727550D01*
X110718826Y-79884993D01*
X110691719Y-79931943D01*
X110691717Y-79931947D01*
X110691716Y-79931947D01*
X110601395Y-80150001D01*
X110540305Y-80377992D01*
X110509503Y-80611963D01*
X110509500Y-80611987D01*
X110509500Y-80848011D01*
X110509503Y-80848040D01*
X110537736Y-81062498D01*
X110537737Y-81062498D01*
X110540306Y-81082011D01*
X110540307Y-81082014D01*
X110568479Y-81187152D01*
X110588485Y-81261817D01*
X110601395Y-81309995D01*
X110601397Y-81310002D01*
X110686903Y-81516431D01*
X110691714Y-81528045D01*
X110691719Y-81528056D01*
X110691726Y-81528068D01*
X110702178Y-81546173D01*
X110702181Y-81546176D01*
X110809730Y-81732455D01*
X110809939Y-81732770D01*
X110810947Y-81734040D01*
X110943557Y-81906862D01*
X110957681Y-81930197D01*
X110966223Y-81948624D01*
X110976559Y-82017725D01*
X110976314Y-82019500D01*
X110975720Y-82023802D01*
X110957205Y-82073868D01*
X110954136Y-82078644D01*
X110948193Y-82087096D01*
X110809736Y-82267536D01*
X110809730Y-82267545D01*
X110691719Y-82471942D01*
X110691715Y-82471950D01*
X110601395Y-82690001D01*
X110540305Y-82917992D01*
X110509503Y-83151963D01*
X110509500Y-83151987D01*
X110509500Y-83388011D01*
X110509503Y-83388035D01*
X110540305Y-83622006D01*
X110601395Y-83849997D01*
X110691715Y-84068048D01*
X110691724Y-84068065D01*
X110762675Y-84190954D01*
X110762677Y-84190957D01*
X110809723Y-84272445D01*
X110809725Y-84272447D01*
X110809944Y-84272776D01*
X110810947Y-84274040D01*
X110953399Y-84459689D01*
X110953403Y-84459694D01*
X110953406Y-84459697D01*
X110953412Y-84459704D01*
X110953420Y-84459712D01*
X111120281Y-84626574D01*
X111120297Y-84626589D01*
X111120305Y-84626595D01*
X111307548Y-84770272D01*
X111307550Y-84770273D01*
X111408555Y-84828588D01*
X111408556Y-84828589D01*
X111452252Y-84853816D01*
X111511943Y-84888280D01*
X111511959Y-84888288D01*
X111614265Y-84930664D01*
X111614268Y-84930665D01*
X111614269Y-84930666D01*
X111650355Y-84945613D01*
X111730007Y-84978606D01*
X111821690Y-85003172D01*
X111851594Y-85015559D01*
X111878908Y-85031329D01*
X111904588Y-85051035D01*
X112075755Y-85222202D01*
X112127055Y-85273501D01*
X112160540Y-85334824D01*
X112155556Y-85404515D01*
X112113685Y-85460449D01*
X112101374Y-85468569D01*
X112064397Y-85489917D01*
X112064392Y-85489921D01*
X111989921Y-85564392D01*
X111989915Y-85564400D01*
X111968568Y-85601374D01*
X111918001Y-85649589D01*
X111849393Y-85662811D01*
X111784529Y-85636843D01*
X111773501Y-85627054D01*
X111230524Y-85084077D01*
X111230523Y-85084077D01*
X111230522Y-85084077D01*
X111198145Y-85128640D01*
X111105245Y-85310963D01*
X111089000Y-85360960D01*
X111042009Y-85505582D01*
X111042008Y-85505585D01*
X111042008Y-85505587D01*
X111010000Y-85707676D01*
X111010000Y-85912322D01*
X111042008Y-86114411D01*
X111042009Y-86114417D01*
X111105244Y-86309031D01*
X111148772Y-86394459D01*
X111198144Y-86491357D01*
X111198147Y-86491360D01*
X111230517Y-86535914D01*
X111230521Y-86535919D01*
X111230523Y-86535921D01*
X111230524Y-86535922D01*
X111773503Y-85992942D01*
X111834824Y-85959459D01*
X111904515Y-85964443D01*
X111960449Y-86006314D01*
X111968567Y-86018622D01*
X111989920Y-86055606D01*
X112064394Y-86130080D01*
X112064395Y-86130081D01*
X112064397Y-86130082D01*
X112101373Y-86151430D01*
X112149588Y-86201996D01*
X112162812Y-86270603D01*
X112136844Y-86335468D01*
X112127054Y-86346498D01*
X111584075Y-86889473D01*
X111584076Y-86889473D01*
X111584076Y-86889474D01*
X111628650Y-86921859D01*
X111714786Y-86965747D01*
X111810963Y-87014753D01*
X111810965Y-87014753D01*
X111810968Y-87014755D01*
X112005582Y-87077990D01*
X112207683Y-87110000D01*
X112412316Y-87110000D01*
X112412317Y-87110000D01*
X112614417Y-87077990D01*
X112809031Y-87014755D01*
X112991349Y-86921859D01*
X113035921Y-86889474D01*
X112492945Y-86346498D01*
X112459460Y-86285175D01*
X112464444Y-86215483D01*
X112506316Y-86159550D01*
X112518618Y-86151434D01*
X112555606Y-86130080D01*
X112630080Y-86055606D01*
X112651430Y-86018625D01*
X112701994Y-85970411D01*
X112770601Y-85957186D01*
X112835466Y-85983153D01*
X112846496Y-85992942D01*
X113389474Y-86535921D01*
X113421859Y-86491349D01*
X113451390Y-86433389D01*
X113471716Y-86404554D01*
X113481253Y-86394456D01*
X113541590Y-86359235D01*
X113611395Y-86362225D01*
X113618010Y-86364479D01*
X113665697Y-86394171D01*
X116929539Y-89658013D01*
X116936142Y-89665155D01*
X116942459Y-89672550D01*
X116948486Y-89680195D01*
X117046172Y-89814646D01*
X117185354Y-89953828D01*
X117344595Y-90069524D01*
X117427455Y-90111743D01*
X117513521Y-90155596D01*
X117515124Y-90156534D01*
X117518823Y-90158326D01*
X117520831Y-90159324D01*
X117524597Y-90160386D01*
X117562082Y-90172565D01*
X117620315Y-90191486D01*
X117620316Y-90191487D01*
X117642031Y-90198542D01*
X117707173Y-90219709D01*
X117901578Y-90250500D01*
X117901583Y-90250500D01*
X118098417Y-90250500D01*
X118667168Y-90250500D01*
X118702104Y-90255523D01*
X118717102Y-90259927D01*
X118775866Y-90297686D01*
X118779861Y-90302295D01*
X118805420Y-90349552D01*
X118805463Y-90349703D01*
X118809143Y-90367480D01*
X118822671Y-90470241D01*
X118822252Y-90505529D01*
X118818689Y-90528380D01*
X118797603Y-90580600D01*
X118795907Y-90583012D01*
X118782154Y-90599369D01*
X115446178Y-93935345D01*
X115445764Y-93935851D01*
X115444698Y-93937382D01*
X115396485Y-94003741D01*
X115330474Y-94094595D01*
X115240667Y-94270855D01*
X115240265Y-94272280D01*
X115238856Y-94276924D01*
X115180291Y-94457165D01*
X115178765Y-94466806D01*
X115178764Y-94466813D01*
X115149500Y-94651577D01*
X115149500Y-100106891D01*
X115144475Y-100141832D01*
X115137957Y-100164026D01*
X115110254Y-100213022D01*
X115108263Y-100215187D01*
X115092477Y-100229626D01*
X114945991Y-100342028D01*
X114945985Y-100342033D01*
X114742038Y-100545981D01*
X114742031Y-100545989D01*
X114742017Y-100546004D01*
X114566439Y-100774824D01*
X114566429Y-100774838D01*
X114566417Y-100774855D01*
X114422198Y-101024648D01*
X114422195Y-101024653D01*
X114422193Y-101024656D01*
X114311817Y-101291130D01*
X114311815Y-101291136D01*
X114311814Y-101291139D01*
X114311809Y-101291155D01*
X114238679Y-101564083D01*
X114238676Y-101564092D01*
X114237152Y-101569776D01*
X114237147Y-101569802D01*
X114199501Y-101855754D01*
X114199500Y-101855783D01*
X114199500Y-102144215D01*
X114199501Y-102144244D01*
X114237148Y-102430201D01*
X114237152Y-102430221D01*
X114287576Y-102618408D01*
X114287577Y-102618408D01*
X114287577Y-102618409D01*
X114311809Y-102708844D01*
X114311811Y-102708851D01*
X114311812Y-102708854D01*
X114311817Y-102708868D01*
X114422193Y-102975342D01*
X114422195Y-102975345D01*
X114422198Y-102975350D01*
X114526153Y-103155405D01*
X114566420Y-103225148D01*
X114566431Y-103225164D01*
X114566439Y-103225174D01*
X114742017Y-103453994D01*
X114742021Y-103453999D01*
X114742024Y-103454002D01*
X114742030Y-103454009D01*
X114742038Y-103454017D01*
X114945976Y-103657956D01*
X114945990Y-103657969D01*
X114945996Y-103657974D01*
X115126541Y-103796511D01*
X115174851Y-103833580D01*
X115175077Y-103833710D01*
X115293069Y-103901833D01*
X115424647Y-103977800D01*
X115424663Y-103977808D01*
X115557572Y-104032860D01*
X115687097Y-104086511D01*
X115688915Y-104087341D01*
X115689400Y-104087525D01*
X115690970Y-104088148D01*
X115692254Y-104088504D01*
X115695412Y-104089408D01*
X115696913Y-104089734D01*
X115727606Y-104097958D01*
X115969783Y-104162849D01*
X116255772Y-104200500D01*
X116255779Y-104200500D01*
X116544221Y-104200500D01*
X116544228Y-104200500D01*
X116830217Y-104162849D01*
X117104998Y-104089221D01*
X117108204Y-104088474D01*
X117110611Y-104087520D01*
X117111089Y-104087338D01*
X117112909Y-104086508D01*
X117129799Y-104079511D01*
X117192739Y-104053442D01*
X117371305Y-103979477D01*
X117373165Y-103978783D01*
X117373636Y-103978572D01*
X117375407Y-103977807D01*
X117377048Y-103976895D01*
X117378770Y-103975826D01*
X117625156Y-103833575D01*
X117854004Y-103657974D01*
X118057974Y-103454004D01*
X118233575Y-103225156D01*
X118377804Y-102975345D01*
X118388445Y-102949653D01*
X118397006Y-102928990D01*
X118439614Y-102826121D01*
X118475877Y-102738574D01*
X119300000Y-102738574D01*
X119300000Y-102961424D01*
X119329083Y-103182344D01*
X119329086Y-103182357D01*
X119329091Y-103182382D01*
X119372921Y-103345959D01*
X119386763Y-103397618D01*
X119433403Y-103510216D01*
X119472047Y-103603508D01*
X119472058Y-103603527D01*
X119583466Y-103796494D01*
X119583478Y-103796511D01*
X119634039Y-103862402D01*
X119634040Y-103862403D01*
X119634043Y-103862403D01*
X120317094Y-103179351D01*
X120378415Y-103145868D01*
X120448106Y-103150852D01*
X120504040Y-103192723D01*
X120512157Y-103205031D01*
X120519881Y-103218408D01*
X120631592Y-103330119D01*
X120644964Y-103337839D01*
X120693179Y-103388407D01*
X120706401Y-103457014D01*
X120680433Y-103521879D01*
X120670644Y-103532907D01*
X119987595Y-104215954D01*
X119987595Y-104215957D01*
X120053505Y-104266532D01*
X120053507Y-104266533D01*
X120246485Y-104377949D01*
X120246497Y-104377954D01*
X120452381Y-104463236D01*
X120598557Y-104502403D01*
X120667616Y-104520907D01*
X120667620Y-104520907D01*
X120667632Y-104520911D01*
X120667645Y-104520914D01*
X120888575Y-104550000D01*
X121111418Y-104550000D01*
X121111425Y-104550000D01*
X121332354Y-104520914D01*
X121332367Y-104520911D01*
X121547618Y-104463236D01*
X121753502Y-104377954D01*
X121753514Y-104377949D01*
X121946498Y-104266530D01*
X122012403Y-104215957D01*
X122012404Y-104215956D01*
X122012403Y-104215955D01*
X122012404Y-104215955D01*
X121329354Y-103532907D01*
X121295869Y-103471584D01*
X121300853Y-103401893D01*
X121342724Y-103345959D01*
X121355022Y-103337846D01*
X121368408Y-103330119D01*
X121480119Y-103218408D01*
X121487839Y-103205035D01*
X121538402Y-103156821D01*
X121607009Y-103143596D01*
X121671875Y-103169562D01*
X121682907Y-103179354D01*
X122365955Y-103862404D01*
X122365955Y-103862403D01*
X122365956Y-103862404D01*
X122365957Y-103862403D01*
X122416530Y-103796498D01*
X122527949Y-103603514D01*
X122527954Y-103603502D01*
X122613236Y-103397618D01*
X122670911Y-103182367D01*
X122670914Y-103182354D01*
X122700000Y-102961424D01*
X122700000Y-102738575D01*
X122670914Y-102517645D01*
X122670911Y-102517632D01*
X122664836Y-102494961D01*
X122647484Y-102430201D01*
X122613236Y-102302381D01*
X122527954Y-102096497D01*
X122527949Y-102096485D01*
X122416533Y-101903507D01*
X122416532Y-101903505D01*
X122365957Y-101837595D01*
X122365956Y-101837595D01*
X122365955Y-101837595D01*
X122365954Y-101837595D01*
X121682906Y-102520643D01*
X121621583Y-102554128D01*
X121551891Y-102549144D01*
X121495958Y-102507272D01*
X121487838Y-102494961D01*
X121480122Y-102481598D01*
X121480119Y-102481592D01*
X121368408Y-102369881D01*
X121361586Y-102365942D01*
X121355032Y-102362158D01*
X121306817Y-102311590D01*
X121293596Y-102242983D01*
X121319565Y-102178118D01*
X121329343Y-102167101D01*
X122012403Y-101484043D01*
X122012403Y-101484040D01*
X121946504Y-101433473D01*
X121946491Y-101433464D01*
X121753520Y-101322054D01*
X121753508Y-101322047D01*
X121660216Y-101283403D01*
X121547618Y-101236763D01*
X121547611Y-101236761D01*
X121332382Y-101179091D01*
X121332367Y-101179088D01*
X121332354Y-101179085D01*
X121332350Y-101179084D01*
X121332344Y-101179083D01*
X121111426Y-101150000D01*
X121111425Y-101150000D01*
X120888575Y-101150000D01*
X120888574Y-101150000D01*
X120667654Y-101179083D01*
X120667641Y-101179086D01*
X120667616Y-101179091D01*
X120452387Y-101236761D01*
X120452383Y-101236762D01*
X120452381Y-101236763D01*
X120452379Y-101236764D01*
X120246490Y-101322047D01*
X120246471Y-101322058D01*
X120053508Y-101433463D01*
X119987595Y-101484040D01*
X119987595Y-101484043D01*
X120670645Y-102167092D01*
X120704130Y-102228415D01*
X120699146Y-102298106D01*
X120657274Y-102354040D01*
X120644967Y-102362159D01*
X120631592Y-102369881D01*
X120631589Y-102369883D01*
X120519883Y-102481589D01*
X120519881Y-102481592D01*
X120512159Y-102494967D01*
X120461590Y-102543181D01*
X120392983Y-102556402D01*
X120328119Y-102530433D01*
X120317092Y-102520645D01*
X119634043Y-101837595D01*
X119634040Y-101837595D01*
X119583463Y-101903508D01*
X119472058Y-102096471D01*
X119472047Y-102096490D01*
X119386764Y-102302379D01*
X119386761Y-102302387D01*
X119329091Y-102517616D01*
X119329086Y-102517641D01*
X119329083Y-102517654D01*
X119300000Y-102738574D01*
X118475877Y-102738574D01*
X118488185Y-102708860D01*
X118488185Y-102708858D01*
X118488191Y-102708845D01*
X118562849Y-102430217D01*
X118600500Y-102144228D01*
X118600500Y-101855772D01*
X118562849Y-101569783D01*
X118489734Y-101296913D01*
X118489408Y-101295412D01*
X118488504Y-101292254D01*
X118488148Y-101290970D01*
X118487525Y-101289400D01*
X118487341Y-101288915D01*
X118486511Y-101287097D01*
X118377809Y-101024666D01*
X118377803Y-101024653D01*
X118377800Y-101024648D01*
X118377800Y-101024647D01*
X118262732Y-100825345D01*
X118233710Y-100775077D01*
X118233580Y-100774851D01*
X118233580Y-100774850D01*
X118067845Y-100558860D01*
X118067844Y-100558859D01*
X118067832Y-100558844D01*
X118057975Y-100545997D01*
X118057969Y-100545990D01*
X118057960Y-100545981D01*
X117854014Y-100342034D01*
X117713156Y-100233949D01*
X117688497Y-100208695D01*
X117674860Y-100190018D01*
X117652848Y-100138188D01*
X117652342Y-100135285D01*
X117650500Y-100113993D01*
X117650500Y-95337164D01*
X117655522Y-95302231D01*
X117662934Y-95276986D01*
X117694228Y-95224244D01*
X120545611Y-92372860D01*
X120573861Y-92351713D01*
X120578925Y-92348948D01*
X120594163Y-92340627D01*
X120648430Y-92325567D01*
X120651385Y-92325444D01*
X120672700Y-92326397D01*
X120843991Y-92348948D01*
X120843992Y-92348949D01*
X120847448Y-92349404D01*
X120855756Y-92350498D01*
X120855772Y-92350500D01*
X120855779Y-92350500D01*
X121144221Y-92350500D01*
X121144228Y-92350500D01*
X121430217Y-92312849D01*
X121704998Y-92239221D01*
X121708209Y-92238473D01*
X121710595Y-92237527D01*
X121711074Y-92237345D01*
X121712901Y-92236511D01*
X121971302Y-92129478D01*
X121973162Y-92128784D01*
X121973622Y-92128578D01*
X121975412Y-92127804D01*
X121977048Y-92126895D01*
X121978770Y-92125826D01*
X122225156Y-91983575D01*
X122454004Y-91807974D01*
X122657974Y-91604004D01*
X122657976Y-91604002D01*
X122657978Y-91604000D01*
X122772037Y-91455354D01*
X122833575Y-91375156D01*
X122977804Y-91125345D01*
X123008360Y-91051577D01*
X123086508Y-90862909D01*
X123087338Y-90861089D01*
X123087520Y-90860611D01*
X123088474Y-90858204D01*
X123089221Y-90854998D01*
X123162849Y-90580217D01*
X123200500Y-90294228D01*
X123200500Y-90005772D01*
X123162849Y-89719783D01*
X123089734Y-89446913D01*
X123089408Y-89445412D01*
X123088504Y-89442254D01*
X123088148Y-89440970D01*
X123087525Y-89439400D01*
X123087341Y-89438915D01*
X123086511Y-89437097D01*
X123003847Y-89237527D01*
X122977808Y-89174663D01*
X122977800Y-89174647D01*
X122901833Y-89043069D01*
X122833710Y-88925077D01*
X122833580Y-88924851D01*
X122833580Y-88924850D01*
X122657977Y-88696000D01*
X122657971Y-88695992D01*
X122657956Y-88695976D01*
X122454017Y-88492038D01*
X122454009Y-88492030D01*
X122454002Y-88492024D01*
X122453999Y-88492021D01*
X122453994Y-88492017D01*
X122357864Y-88418255D01*
X122333206Y-88393003D01*
X122325299Y-88382175D01*
X122301666Y-88316425D01*
X122317332Y-88248334D01*
X122361287Y-88202945D01*
X122368653Y-88198491D01*
X122394480Y-88186678D01*
X122480026Y-88158884D01*
X122655405Y-88069524D01*
X122814646Y-87953828D01*
X129453828Y-81314646D01*
X129569524Y-81155405D01*
X129658884Y-80980026D01*
X129719709Y-80792826D01*
X129724587Y-80762026D01*
X129750500Y-80598422D01*
X129750500Y-62401577D01*
X129732586Y-62288483D01*
X129719709Y-62207174D01*
X129719708Y-62207170D01*
X129719708Y-62207169D01*
X129661134Y-62026899D01*
X129659735Y-62022286D01*
X129659329Y-62020847D01*
X129569523Y-61844594D01*
X129453828Y-61685354D01*
X127314646Y-59546172D01*
X127155405Y-59430476D01*
X126980030Y-59341117D01*
X126792826Y-59280290D01*
X126792824Y-59280289D01*
X126792822Y-59280289D01*
X126598427Y-59249500D01*
X126598422Y-59249500D01*
X126598417Y-59249500D01*
X109901583Y-59249500D01*
X109901578Y-59249500D01*
X109901573Y-59249500D01*
X109707176Y-59280289D01*
X109519971Y-59341116D01*
X109344593Y-59430476D01*
X109253741Y-59496485D01*
X109197223Y-59537548D01*
X109189844Y-59541680D01*
X103255950Y-65475573D01*
X103227699Y-65496722D01*
X103204611Y-65509330D01*
X103145181Y-65524500D01*
X101954897Y-65524500D01*
X101948042Y-65526182D01*
X101847582Y-65535113D01*
X101651952Y-65591089D01*
X101561771Y-65638194D01*
X101561772Y-65638195D01*
X101472578Y-65684787D01*
X101471646Y-65685263D01*
X101469242Y-65686996D01*
X101466716Y-65689278D01*
X101313890Y-65813890D01*
X101185302Y-65971591D01*
X101091083Y-66151964D01*
X101090791Y-66152697D01*
X101080417Y-66173010D01*
X101071002Y-66187885D01*
X101018526Y-66233999D01*
X101010066Y-66237933D01*
X100957773Y-66249500D01*
X100051573Y-66249500D01*
X99857176Y-66280289D01*
X99669970Y-66341116D01*
X99669968Y-66341117D01*
X99494587Y-66430480D01*
X99335377Y-66546152D01*
X99335348Y-66546174D01*
X99335346Y-66546176D01*
X97454390Y-68427133D01*
X97426135Y-68448285D01*
X97405834Y-68459370D01*
X97351595Y-68474428D01*
X97348657Y-68474551D01*
X97327285Y-68473599D01*
X97148328Y-68450039D01*
X97146312Y-68449705D01*
X97144238Y-68449500D01*
X97144233Y-68449500D01*
X97144228Y-68449500D01*
X96855772Y-68449500D01*
X96855766Y-68449500D01*
X96855761Y-68449500D01*
X96853684Y-68449705D01*
X96851670Y-68450039D01*
X96569814Y-68487146D01*
X96569782Y-68487150D01*
X96567973Y-68487577D01*
X96566197Y-68488111D01*
X96398549Y-68533033D01*
X96291150Y-68561810D01*
X96291130Y-68561817D01*
X96024656Y-68672193D01*
X96024653Y-68672195D01*
X96024648Y-68672198D01*
X95774855Y-68816417D01*
X95774838Y-68816429D01*
X95774824Y-68816439D01*
X95546004Y-68992017D01*
X95545989Y-68992031D01*
X95545981Y-68992038D01*
X95342038Y-69195981D01*
X95342031Y-69195989D01*
X95342017Y-69196004D01*
X95166439Y-69424824D01*
X95166429Y-69424838D01*
X95166417Y-69424855D01*
X95022198Y-69674648D01*
X95022195Y-69674653D01*
X95022193Y-69674656D01*
X94911817Y-69941130D01*
X94911815Y-69941136D01*
X94911814Y-69941139D01*
X94911809Y-69941155D01*
X94884483Y-70043133D01*
X94837153Y-70219772D01*
X94837150Y-70219789D01*
X94837147Y-70219802D01*
X94799501Y-70505754D01*
X94799500Y-70505783D01*
X94799500Y-70794215D01*
X94799501Y-70794244D01*
X94822671Y-70970240D01*
X94822252Y-71005529D01*
X94818689Y-71028380D01*
X94797603Y-71080600D01*
X94795907Y-71083012D01*
X94782154Y-71099369D01*
X92046178Y-73835345D01*
X92045760Y-73835854D01*
X92044713Y-73837360D01*
X92033970Y-73852148D01*
X92033966Y-73852154D01*
X91930474Y-73994595D01*
X91840667Y-74170855D01*
X91840265Y-74172280D01*
X91838856Y-74176924D01*
X91780291Y-74357165D01*
X91778765Y-74366806D01*
X91749500Y-74551577D01*
X90500500Y-74551577D01*
X90500500Y-56142329D01*
X90505523Y-56107393D01*
X90509927Y-56092395D01*
X90547672Y-56033644D01*
X90549041Y-56032457D01*
X90603920Y-56004977D01*
X90611479Y-56003333D01*
X90637832Y-56000500D01*
X129857670Y-56000500D01*
X129892606Y-56005523D01*
G37*
%TD.AperFunction*%
%TD*%
M02*
