%TF.GenerationSoftware,KiCad,Pcbnew,10.0.6*%
%TF.CreationDate,2026-09-12T22:35:35-04:00*%
%TF.ProjectId,luna_onboarding_project,6c756e61-5f6f-46e6-926f-617264696e67,rev?*%
%TF.SameCoordinates,Original*%
%TF.FileFunction,Legend,Top*%
%TF.FilePolarity,Positive*%
%FSLAX46Y46*%
G04 Gerber Fmt 4.6, Leading zero omitted, Abs format (unit mm)*
G04 Created by KiCad (PCBNEW 10.0.6) date 2026-09-12 22:35:35*
%MOMM*%
%LPD*%
G01*
G04 APERTURE LIST*
%ADD10C,0.150000*%
%ADD11C,0.120000*%
G04 APERTURE END LIST*
D10*
X119333333Y-84179580D02*
X119285714Y-84227200D01*
X119285714Y-84227200D02*
X119142857Y-84274819D01*
X119142857Y-84274819D02*
X119047619Y-84274819D01*
X119047619Y-84274819D02*
X118904762Y-84227200D01*
X118904762Y-84227200D02*
X118809524Y-84131961D01*
X118809524Y-84131961D02*
X118761905Y-84036723D01*
X118761905Y-84036723D02*
X118714286Y-83846247D01*
X118714286Y-83846247D02*
X118714286Y-83703390D01*
X118714286Y-83703390D02*
X118761905Y-83512914D01*
X118761905Y-83512914D02*
X118809524Y-83417676D01*
X118809524Y-83417676D02*
X118904762Y-83322438D01*
X118904762Y-83322438D02*
X119047619Y-83274819D01*
X119047619Y-83274819D02*
X119142857Y-83274819D01*
X119142857Y-83274819D02*
X119285714Y-83322438D01*
X119285714Y-83322438D02*
X119333333Y-83370057D01*
X120285714Y-84274819D02*
X119714286Y-84274819D01*
X120000000Y-84274819D02*
X120000000Y-83274819D01*
X120000000Y-83274819D02*
X119904762Y-83417676D01*
X119904762Y-83417676D02*
X119809524Y-83512914D01*
X119809524Y-83512914D02*
X119714286Y-83560533D01*
X123354819Y-79099404D02*
X124164342Y-79099404D01*
X124164342Y-79099404D02*
X124259580Y-79051785D01*
X124259580Y-79051785D02*
X124307200Y-79004166D01*
X124307200Y-79004166D02*
X124354819Y-78908928D01*
X124354819Y-78908928D02*
X124354819Y-78718452D01*
X124354819Y-78718452D02*
X124307200Y-78623214D01*
X124307200Y-78623214D02*
X124259580Y-78575595D01*
X124259580Y-78575595D02*
X124164342Y-78527976D01*
X124164342Y-78527976D02*
X123354819Y-78527976D01*
X124354819Y-77527976D02*
X124354819Y-78099404D01*
X124354819Y-77813690D02*
X123354819Y-77813690D01*
X123354819Y-77813690D02*
X123497676Y-77908928D01*
X123497676Y-77908928D02*
X123592914Y-78004166D01*
X123592914Y-78004166D02*
X123640533Y-78099404D01*
X99679580Y-78666666D02*
X99727200Y-78714285D01*
X99727200Y-78714285D02*
X99774819Y-78857142D01*
X99774819Y-78857142D02*
X99774819Y-78952380D01*
X99774819Y-78952380D02*
X99727200Y-79095237D01*
X99727200Y-79095237D02*
X99631961Y-79190475D01*
X99631961Y-79190475D02*
X99536723Y-79238094D01*
X99536723Y-79238094D02*
X99346247Y-79285713D01*
X99346247Y-79285713D02*
X99203390Y-79285713D01*
X99203390Y-79285713D02*
X99012914Y-79238094D01*
X99012914Y-79238094D02*
X98917676Y-79190475D01*
X98917676Y-79190475D02*
X98822438Y-79095237D01*
X98822438Y-79095237D02*
X98774819Y-78952380D01*
X98774819Y-78952380D02*
X98774819Y-78857142D01*
X98774819Y-78857142D02*
X98822438Y-78714285D01*
X98822438Y-78714285D02*
X98870057Y-78666666D01*
X98870057Y-78285713D02*
X98822438Y-78238094D01*
X98822438Y-78238094D02*
X98774819Y-78142856D01*
X98774819Y-78142856D02*
X98774819Y-77904761D01*
X98774819Y-77904761D02*
X98822438Y-77809523D01*
X98822438Y-77809523D02*
X98870057Y-77761904D01*
X98870057Y-77761904D02*
X98965295Y-77714285D01*
X98965295Y-77714285D02*
X99060533Y-77714285D01*
X99060533Y-77714285D02*
X99203390Y-77761904D01*
X99203390Y-77761904D02*
X99774819Y-78333332D01*
X99774819Y-78333332D02*
X99774819Y-77714285D01*
%TO.C,C1*%
D11*
X119238748Y-84765000D02*
X119761252Y-84765000D01*
X119238748Y-86235000D02*
X119761252Y-86235000D01*
%TO.C,U1*%
X122970000Y-75737500D02*
X123300000Y-75497500D01*
X123300000Y-75977500D01*
X122970000Y-75737500D01*
G36*
X123300000Y-75977500D02*
G01*
X122970000Y-75737500D01*
X123300000Y-75497500D01*
X123300000Y-75977500D01*
G37*
X117940000Y-80397500D02*
X117940000Y-76277500D01*
X118035000Y-80397500D02*
X117940000Y-80397500D01*
X123060000Y-80397500D02*
X122965000Y-80397500D01*
X117940000Y-76277500D02*
X118035000Y-76277500D01*
X122965000Y-76277500D02*
X123060000Y-76277500D01*
X123060000Y-76277500D02*
X123060000Y-80397500D01*
%TO.C,C2*%
X101735000Y-78761252D02*
X101735000Y-78238748D01*
X100265000Y-78761252D02*
X100265000Y-78238748D01*
%TD*%
M02*
