%TF.GenerationSoftware,KiCad,Pcbnew,10.0.0*%
%TF.CreationDate,2026-09-12T14:29:57-04:00*%
%TF.ProjectId,Lunabotics,4c756e61-626f-4746-9963-732e6b696361,rev?*%
%TF.SameCoordinates,Original*%
%TF.FileFunction,Copper,L1,Top*%
%TF.FilePolarity,Positive*%
%FSLAX46Y46*%
G04 Gerber Fmt 4.6, Leading zero omitted, Abs format (unit mm)*
G04 Created by KiCad (PCBNEW 10.0.0) date 2026-09-12 14:29:57*
%MOMM*%
%LPD*%
G01*
G04 APERTURE LIST*
G04 Aperture macros list*
%AMRoundRect*
0 Rectangle with rounded corners*
0 $1 Rounding radius*
0 $2 $3 $4 $5 $6 $7 $8 $9 X,Y pos of 4 corners*
0 Add a 4 corners polygon primitive as box body*
4,1,4,$2,$3,$4,$5,$6,$7,$8,$9,$2,$3,0*
0 Add four circle primitives for the rounded corners*
1,1,$1+$1,$2,$3*
1,1,$1+$1,$4,$5*
1,1,$1+$1,$6,$7*
1,1,$1+$1,$8,$9*
0 Add four rect primitives between the rounded corners*
20,1,$1+$1,$2,$3,$4,$5,0*
20,1,$1+$1,$4,$5,$6,$7,0*
20,1,$1+$1,$6,$7,$8,$9,0*
20,1,$1+$1,$8,$9,$2,$3,0*%
G04 Aperture macros list end*
%TA.AperFunction,SMDPad,CuDef*%
%ADD10RoundRect,0.250000X0.475000X-0.250000X0.475000X0.250000X-0.475000X0.250000X-0.475000X-0.250000X0*%
%TD*%
%TA.AperFunction,ComponentPad*%
%ADD11C,2.400000*%
%TD*%
%TA.AperFunction,SMDPad,CuDef*%
%ADD12RoundRect,0.250000X-0.475000X0.250000X-0.475000X-0.250000X0.475000X-0.250000X0.475000X0.250000X0*%
%TD*%
%TA.AperFunction,ComponentPad*%
%ADD13R,1.950000X1.950000*%
%TD*%
%TA.AperFunction,ComponentPad*%
%ADD14C,1.950000*%
%TD*%
%TA.AperFunction,SMDPad,CuDef*%
%ADD15RoundRect,0.150000X0.825000X0.150000X-0.825000X0.150000X-0.825000X-0.150000X0.825000X-0.150000X0*%
%TD*%
%TA.AperFunction,ComponentPad*%
%ADD16R,1.800000X1.800000*%
%TD*%
%TA.AperFunction,ComponentPad*%
%ADD17C,1.800000*%
%TD*%
%TA.AperFunction,ComponentPad*%
%ADD18RoundRect,0.250000X0.550000X0.550000X-0.550000X0.550000X-0.550000X-0.550000X0.550000X-0.550000X0*%
%TD*%
%TA.AperFunction,ComponentPad*%
%ADD19C,1.600000*%
%TD*%
%TA.AperFunction,Conductor*%
%ADD20C,0.500000*%
%TD*%
G04 APERTURE END LIST*
D10*
%TO.P,C2,1*%
%TO.N,+3V3*%
X96520000Y-69450000D03*
%TO.P,C2,2*%
%TO.N,GND*%
X96520000Y-67550000D03*
%TD*%
D11*
%TO.P,R1,1*%
%TO.N,+3V3*%
X98650000Y-74000000D03*
%TO.P,R1,2*%
%TO.N,Net-(U2-VIN+)*%
X111350000Y-74000000D03*
%TD*%
D12*
%TO.P,C1,1*%
%TO.N,GND*%
X93980000Y-67500000D03*
%TO.P,C1,2*%
%TO.N,+3V3*%
X93980000Y-69400000D03*
%TD*%
D13*
%TO.P,J2,1,Pin_1_1*%
%TO.N,Current-*%
X85500000Y-79500000D03*
D14*
%TO.P,J2,2,Pin_2_2*%
%TO.N,Current+*%
X85500000Y-84500000D03*
%TD*%
D15*
%TO.P,U1,1,IP+_1*%
%TO.N,Current+*%
X103975000Y-70405000D03*
%TO.P,U1,2,IP+_2*%
X103975000Y-69135000D03*
%TO.P,U1,3,IP-_3*%
%TO.N,Current-*%
X103975000Y-67865000D03*
%TO.P,U1,4,IP-_4*%
X103975000Y-66595000D03*
%TO.P,U1,5,GND_5*%
%TO.N,GND*%
X99025000Y-66595000D03*
%TO.P,U1,6,~{FAULT}_6*%
%TO.N,unconnected-(U1-~{FAULT}-Pad6)*%
X99025000Y-67865000D03*
%TO.P,U1,7,VIOUT_7*%
%TO.N,Net-(U1-VIOUT)*%
X99025000Y-69135000D03*
%TO.P,U1,8,VCC_8*%
%TO.N,+3V3*%
X99025000Y-70405000D03*
%TD*%
D11*
%TO.P,R2,1*%
%TO.N,Net-(U2-VIN+)*%
X121850000Y-67500000D03*
%TO.P,R2,2*%
%TO.N,GND*%
X109150000Y-67500000D03*
%TD*%
D13*
%TO.P,J1,1,Pin_1_1*%
%TO.N,+3V3*%
X86000000Y-72500000D03*
D14*
%TO.P,J1,2,Pin_2_2*%
%TO.N,GND*%
X86000000Y-67500000D03*
%TD*%
D16*
%TO.P,D1,1,K_1*%
%TO.N,Net-(D1-K)*%
X118745000Y-81280000D03*
D17*
%TO.P,D1,2,A_2*%
%TO.N,Net-(D1-A)*%
X118745000Y-83820000D03*
%TD*%
D18*
%TO.P,U2,1,NC_1*%
%TO.N,unconnected-(U2-NC-Pad1)*%
X131305000Y-86310000D03*
D19*
%TO.P,U2,2,VIN-_2*%
%TO.N,Net-(U1-VIOUT)*%
X131305000Y-83770000D03*
%TO.P,U2,3,VIN+_3*%
%TO.N,Net-(U2-VIN+)*%
X131305000Y-81230000D03*
%TO.P,U2,4,VSS_4*%
%TO.N,GND*%
X131305000Y-78690000D03*
%TO.P,U2,5,NC_5*%
%TO.N,unconnected-(U2-NC-Pad5)*%
X123685000Y-78690000D03*
%TO.P,U2,6,OUT_6*%
%TO.N,Net-(D1-K)*%
X123685000Y-81230000D03*
%TO.P,U2,7,VDD_7*%
%TO.N,+3V3*%
X123685000Y-83770000D03*
%TO.P,U2,8,NC_8*%
%TO.N,unconnected-(U2-NC-Pad8)*%
X123685000Y-86310000D03*
%TD*%
D11*
%TO.P,R4,1*%
%TO.N,+3V3*%
X98650000Y-85000000D03*
%TO.P,R4,2*%
%TO.N,Net-(D1-A)*%
X111350000Y-85000000D03*
%TD*%
%TO.P,R3,1*%
%TO.N,+3V3*%
X98500000Y-79500000D03*
%TO.P,R3,2*%
%TO.N,Net-(D1-K)*%
X111200000Y-79500000D03*
%TD*%
%TO.N,Net-(D1-A)*%
D20*
X117565000Y-85000000D02*
X118745000Y-83820000D01*
X111350000Y-85000000D02*
X117565000Y-85000000D01*
%TO.N,GND*%
X93980000Y-67500000D02*
X86000000Y-67500000D01*
X94030000Y-67550000D02*
X93980000Y-67500000D01*
X96520000Y-67550000D02*
X94030000Y-67550000D01*
X97475000Y-66595000D02*
X96520000Y-67550000D01*
X99025000Y-66595000D02*
X97475000Y-66595000D01*
%TO.N,+3V3*%
X97475000Y-70405000D02*
X99025000Y-70405000D01*
X96520000Y-69450000D02*
X97475000Y-70405000D01*
X96470000Y-69400000D02*
X96520000Y-69450000D01*
X93980000Y-69400000D02*
X96470000Y-69400000D01*
X91500000Y-69400000D02*
X93980000Y-69400000D01*
X88400000Y-72500000D02*
X91500000Y-69400000D01*
X86000000Y-72500000D02*
X88400000Y-72500000D01*
X99025000Y-73625000D02*
X98650000Y-74000000D01*
X83775000Y-85214519D02*
X83775000Y-74725000D01*
X125235000Y-82220000D02*
X125235000Y-78047968D01*
X98500000Y-84850000D02*
X98650000Y-85000000D01*
X107950000Y-74642283D02*
X107950000Y-84455000D01*
X110542283Y-72050000D02*
X107950000Y-74642283D01*
X119237032Y-72050000D02*
X110542283Y-72050000D01*
X83775000Y-74725000D02*
X86000000Y-72500000D01*
X103013000Y-89392000D02*
X87952481Y-89392000D01*
X107950000Y-84455000D02*
X103013000Y-89392000D01*
X123685000Y-83770000D02*
X125235000Y-82220000D01*
X125235000Y-78047968D02*
X119237032Y-72050000D01*
X99025000Y-70405000D02*
X99025000Y-73625000D01*
X98650000Y-74000000D02*
X98650000Y-79350000D01*
X98500000Y-79500000D02*
X98500000Y-84850000D01*
X98650000Y-79350000D02*
X98500000Y-79500000D01*
X87952481Y-89392000D02*
X83775000Y-85214519D01*
%TO.N,GND*%
X130173630Y-78690000D02*
X118983630Y-67500000D01*
X106166000Y-64516000D02*
X101104000Y-64516000D01*
X131305000Y-78690000D02*
X130173630Y-78690000D01*
X101104000Y-64516000D02*
X99025000Y-66595000D01*
X118983630Y-67500000D02*
X109150000Y-67500000D01*
X109150000Y-67500000D02*
X106166000Y-64516000D01*
%TO.N,Net-(U2-VIN+)*%
X109250000Y-76100000D02*
X109250000Y-85657717D01*
X111350000Y-74000000D02*
X109250000Y-76100000D01*
X132805000Y-81230000D02*
X132855000Y-81280000D01*
X132855000Y-78047968D02*
X122307032Y-67500000D01*
X109250000Y-85657717D02*
X111452283Y-87860000D01*
X131305000Y-81230000D02*
X132805000Y-81230000D01*
X122307032Y-67500000D02*
X121850000Y-67500000D01*
X132855000Y-81280000D02*
X132855000Y-78047968D01*
X111452283Y-87860000D02*
X132590000Y-87860000D01*
X132590000Y-87860000D02*
X132855000Y-87595000D01*
X132855000Y-87595000D02*
X132855000Y-81280000D01*
%TO.N,Current-*%
X97842283Y-86950000D02*
X96520000Y-85627717D01*
X100750000Y-70108052D02*
X100750000Y-85657717D01*
X93724000Y-79500000D02*
X96520000Y-82296000D01*
X100750000Y-85657717D02*
X99457717Y-86950000D01*
X85500000Y-79500000D02*
X93724000Y-79500000D01*
X103975000Y-67865000D02*
X102993052Y-67865000D01*
X103975000Y-66595000D02*
X103975000Y-67865000D01*
X96520000Y-85627717D02*
X96520000Y-82296000D01*
X99457717Y-86950000D02*
X97842283Y-86950000D01*
X102993052Y-67865000D02*
X100750000Y-70108052D01*
%TO.N,Current+*%
X99429931Y-88392000D02*
X97870069Y-88392000D01*
X97870069Y-88392000D02*
X93978069Y-84500000D01*
X101750000Y-86071931D02*
X99429931Y-88392000D01*
X103975000Y-70405000D02*
X103975000Y-69135000D01*
X93978069Y-84500000D02*
X85500000Y-84500000D01*
X103975000Y-69135000D02*
X101750000Y-71360000D01*
X101750000Y-71360000D02*
X101750001Y-81788000D01*
X101750001Y-81788000D02*
X101750000Y-86071931D01*
X103975000Y-69135000D02*
X104022000Y-69088000D01*
%TO.N,Net-(U1-VIOUT)*%
X129755000Y-82220000D02*
X129755000Y-81153754D01*
X131305000Y-83770000D02*
X129755000Y-82220000D01*
X119651246Y-71050000D02*
X109628052Y-71050000D01*
X100006948Y-69135000D02*
X99025000Y-69135000D01*
X109628052Y-71050000D02*
X105700000Y-67121948D01*
X102543052Y-65545000D02*
X100750000Y-67338052D01*
X100750000Y-68391948D02*
X100006948Y-69135000D01*
X105176948Y-65545000D02*
X102543052Y-65545000D01*
X100750000Y-67338052D02*
X100750000Y-68391948D01*
X105700000Y-67121948D02*
X105700000Y-66068052D01*
X105700000Y-66068052D02*
X105176948Y-65545000D01*
X129755000Y-81153754D02*
X119651246Y-71050000D01*
%TO.N,Net-(D1-K)*%
X115770000Y-79500000D02*
X117500000Y-81230000D01*
X111200000Y-79500000D02*
X115770000Y-79500000D01*
X117500000Y-81230000D02*
X123685000Y-81230000D01*
%TD*%
M02*
