%TF.GenerationSoftware,KiCad,Pcbnew,10.0.0*%
%TF.CreationDate,2026-09-13T20:29:44-04:00*%
%TF.ProjectId,Lunabotics,4c756e61-626f-4746-9963-732e6b696361,rev?*%
%TF.SameCoordinates,Original*%
%TF.FileFunction,Legend,Top*%
%TF.FilePolarity,Positive*%
%FSLAX46Y46*%
G04 Gerber Fmt 4.6, Leading zero omitted, Abs format (unit mm)*
G04 Created by KiCad (PCBNEW 10.0.0) date 2026-09-13 20:29:44*
%MOMM*%
%LPD*%
G01*
G04 APERTURE LIST*
%ADD10C,0.150000*%
%ADD11C,0.120000*%
%ADD12C,0.127000*%
%ADD13C,0.200000*%
G04 APERTURE END LIST*
D10*
X96875580Y-65190666D02*
X96923200Y-65238285D01*
X96923200Y-65238285D02*
X96970819Y-65381142D01*
X96970819Y-65381142D02*
X96970819Y-65476380D01*
X96970819Y-65476380D02*
X96923200Y-65619237D01*
X96923200Y-65619237D02*
X96827961Y-65714475D01*
X96827961Y-65714475D02*
X96732723Y-65762094D01*
X96732723Y-65762094D02*
X96542247Y-65809713D01*
X96542247Y-65809713D02*
X96399390Y-65809713D01*
X96399390Y-65809713D02*
X96208914Y-65762094D01*
X96208914Y-65762094D02*
X96113676Y-65714475D01*
X96113676Y-65714475D02*
X96018438Y-65619237D01*
X96018438Y-65619237D02*
X95970819Y-65476380D01*
X95970819Y-65476380D02*
X95970819Y-65381142D01*
X95970819Y-65381142D02*
X96018438Y-65238285D01*
X96018438Y-65238285D02*
X96066057Y-65190666D01*
X96066057Y-64809713D02*
X96018438Y-64762094D01*
X96018438Y-64762094D02*
X95970819Y-64666856D01*
X95970819Y-64666856D02*
X95970819Y-64428761D01*
X95970819Y-64428761D02*
X96018438Y-64333523D01*
X96018438Y-64333523D02*
X96066057Y-64285904D01*
X96066057Y-64285904D02*
X96161295Y-64238285D01*
X96161295Y-64238285D02*
X96256533Y-64238285D01*
X96256533Y-64238285D02*
X96399390Y-64285904D01*
X96399390Y-64285904D02*
X96970819Y-64857332D01*
X96970819Y-64857332D02*
X96970819Y-64238285D01*
X107148333Y-74114819D02*
X106815000Y-73638628D01*
X106576905Y-74114819D02*
X106576905Y-73114819D01*
X106576905Y-73114819D02*
X106957857Y-73114819D01*
X106957857Y-73114819D02*
X107053095Y-73162438D01*
X107053095Y-73162438D02*
X107100714Y-73210057D01*
X107100714Y-73210057D02*
X107148333Y-73305295D01*
X107148333Y-73305295D02*
X107148333Y-73448152D01*
X107148333Y-73448152D02*
X107100714Y-73543390D01*
X107100714Y-73543390D02*
X107053095Y-73591009D01*
X107053095Y-73591009D02*
X106957857Y-73638628D01*
X106957857Y-73638628D02*
X106576905Y-73638628D01*
X108100714Y-74114819D02*
X107529286Y-74114819D01*
X107815000Y-74114819D02*
X107815000Y-73114819D01*
X107815000Y-73114819D02*
X107719762Y-73257676D01*
X107719762Y-73257676D02*
X107624524Y-73352914D01*
X107624524Y-73352914D02*
X107529286Y-73400533D01*
X117834580Y-87796666D02*
X117882200Y-87844285D01*
X117882200Y-87844285D02*
X117929819Y-87987142D01*
X117929819Y-87987142D02*
X117929819Y-88082380D01*
X117929819Y-88082380D02*
X117882200Y-88225237D01*
X117882200Y-88225237D02*
X117786961Y-88320475D01*
X117786961Y-88320475D02*
X117691723Y-88368094D01*
X117691723Y-88368094D02*
X117501247Y-88415713D01*
X117501247Y-88415713D02*
X117358390Y-88415713D01*
X117358390Y-88415713D02*
X117167914Y-88368094D01*
X117167914Y-88368094D02*
X117072676Y-88320475D01*
X117072676Y-88320475D02*
X116977438Y-88225237D01*
X116977438Y-88225237D02*
X116929819Y-88082380D01*
X116929819Y-88082380D02*
X116929819Y-87987142D01*
X116929819Y-87987142D02*
X116977438Y-87844285D01*
X116977438Y-87844285D02*
X117025057Y-87796666D01*
X117929819Y-86844285D02*
X117929819Y-87415713D01*
X117929819Y-87129999D02*
X116929819Y-87129999D01*
X116929819Y-87129999D02*
X117072676Y-87225237D01*
X117072676Y-87225237D02*
X117167914Y-87320475D01*
X117167914Y-87320475D02*
X117215533Y-87415713D01*
X87504866Y-82381666D02*
X88504866Y-82381666D01*
X88504866Y-82381666D02*
X88704866Y-82448333D01*
X88704866Y-82448333D02*
X88838200Y-82581666D01*
X88838200Y-82581666D02*
X88904866Y-82781666D01*
X88904866Y-82781666D02*
X88904866Y-82915000D01*
X87638200Y-81781666D02*
X87571533Y-81714999D01*
X87571533Y-81714999D02*
X87504866Y-81581666D01*
X87504866Y-81581666D02*
X87504866Y-81248333D01*
X87504866Y-81248333D02*
X87571533Y-81114999D01*
X87571533Y-81114999D02*
X87638200Y-81048333D01*
X87638200Y-81048333D02*
X87771533Y-80981666D01*
X87771533Y-80981666D02*
X87904866Y-80981666D01*
X87904866Y-80981666D02*
X88104866Y-81048333D01*
X88104866Y-81048333D02*
X88904866Y-81848333D01*
X88904866Y-81848333D02*
X88904866Y-80981666D01*
X95250095Y-71354819D02*
X95250095Y-72164342D01*
X95250095Y-72164342D02*
X95297714Y-72259580D01*
X95297714Y-72259580D02*
X95345333Y-72307200D01*
X95345333Y-72307200D02*
X95440571Y-72354819D01*
X95440571Y-72354819D02*
X95631047Y-72354819D01*
X95631047Y-72354819D02*
X95726285Y-72307200D01*
X95726285Y-72307200D02*
X95773904Y-72259580D01*
X95773904Y-72259580D02*
X95821523Y-72164342D01*
X95821523Y-72164342D02*
X95821523Y-71354819D01*
X96821523Y-72354819D02*
X96250095Y-72354819D01*
X96535809Y-72354819D02*
X96535809Y-71354819D01*
X96535809Y-71354819D02*
X96440571Y-71497676D01*
X96440571Y-71497676D02*
X96345333Y-71592914D01*
X96345333Y-71592914D02*
X96250095Y-71640533D01*
X87504866Y-70316666D02*
X88504866Y-70316666D01*
X88504866Y-70316666D02*
X88704866Y-70383333D01*
X88704866Y-70383333D02*
X88838200Y-70516666D01*
X88838200Y-70516666D02*
X88904866Y-70716666D01*
X88904866Y-70716666D02*
X88904866Y-70850000D01*
X88904866Y-68916666D02*
X88904866Y-69716666D01*
X88904866Y-69316666D02*
X87504866Y-69316666D01*
X87504866Y-69316666D02*
X87704866Y-69449999D01*
X87704866Y-69449999D02*
X87838200Y-69583333D01*
X87838200Y-69583333D02*
X87904866Y-69716666D01*
X118564819Y-78843094D02*
X117564819Y-78843094D01*
X117564819Y-78843094D02*
X117564819Y-78604999D01*
X117564819Y-78604999D02*
X117612438Y-78462142D01*
X117612438Y-78462142D02*
X117707676Y-78366904D01*
X117707676Y-78366904D02*
X117802914Y-78319285D01*
X117802914Y-78319285D02*
X117993390Y-78271666D01*
X117993390Y-78271666D02*
X118136247Y-78271666D01*
X118136247Y-78271666D02*
X118326723Y-78319285D01*
X118326723Y-78319285D02*
X118421961Y-78366904D01*
X118421961Y-78366904D02*
X118517200Y-78462142D01*
X118517200Y-78462142D02*
X118564819Y-78604999D01*
X118564819Y-78604999D02*
X118564819Y-78843094D01*
X118564819Y-77319285D02*
X118564819Y-77890713D01*
X118564819Y-77604999D02*
X117564819Y-77604999D01*
X117564819Y-77604999D02*
X117707676Y-77700237D01*
X117707676Y-77700237D02*
X117802914Y-77795475D01*
X117802914Y-77795475D02*
X117850533Y-77890713D01*
X124968095Y-88094819D02*
X124968095Y-88904342D01*
X124968095Y-88904342D02*
X125015714Y-88999580D01*
X125015714Y-88999580D02*
X125063333Y-89047200D01*
X125063333Y-89047200D02*
X125158571Y-89094819D01*
X125158571Y-89094819D02*
X125349047Y-89094819D01*
X125349047Y-89094819D02*
X125444285Y-89047200D01*
X125444285Y-89047200D02*
X125491904Y-88999580D01*
X125491904Y-88999580D02*
X125539523Y-88904342D01*
X125539523Y-88904342D02*
X125539523Y-88094819D01*
X125968095Y-88190057D02*
X126015714Y-88142438D01*
X126015714Y-88142438D02*
X126110952Y-88094819D01*
X126110952Y-88094819D02*
X126349047Y-88094819D01*
X126349047Y-88094819D02*
X126444285Y-88142438D01*
X126444285Y-88142438D02*
X126491904Y-88190057D01*
X126491904Y-88190057D02*
X126539523Y-88285295D01*
X126539523Y-88285295D02*
X126539523Y-88380533D01*
X126539523Y-88380533D02*
X126491904Y-88523390D01*
X126491904Y-88523390D02*
X125920476Y-89094819D01*
X125920476Y-89094819D02*
X126539523Y-89094819D01*
X107148333Y-85544819D02*
X106815000Y-85068628D01*
X106576905Y-85544819D02*
X106576905Y-84544819D01*
X106576905Y-84544819D02*
X106957857Y-84544819D01*
X106957857Y-84544819D02*
X107053095Y-84592438D01*
X107053095Y-84592438D02*
X107100714Y-84640057D01*
X107100714Y-84640057D02*
X107148333Y-84735295D01*
X107148333Y-84735295D02*
X107148333Y-84878152D01*
X107148333Y-84878152D02*
X107100714Y-84973390D01*
X107100714Y-84973390D02*
X107053095Y-85021009D01*
X107053095Y-85021009D02*
X106957857Y-85068628D01*
X106957857Y-85068628D02*
X106576905Y-85068628D01*
X108005476Y-84878152D02*
X108005476Y-85544819D01*
X107767381Y-84497200D02*
X107529286Y-85211485D01*
X107529286Y-85211485D02*
X108148333Y-85211485D01*
X107148333Y-79829819D02*
X106815000Y-79353628D01*
X106576905Y-79829819D02*
X106576905Y-78829819D01*
X106576905Y-78829819D02*
X106957857Y-78829819D01*
X106957857Y-78829819D02*
X107053095Y-78877438D01*
X107053095Y-78877438D02*
X107100714Y-78925057D01*
X107100714Y-78925057D02*
X107148333Y-79020295D01*
X107148333Y-79020295D02*
X107148333Y-79163152D01*
X107148333Y-79163152D02*
X107100714Y-79258390D01*
X107100714Y-79258390D02*
X107053095Y-79306009D01*
X107053095Y-79306009D02*
X106957857Y-79353628D01*
X106957857Y-79353628D02*
X106576905Y-79353628D01*
X107481667Y-78829819D02*
X108100714Y-78829819D01*
X108100714Y-78829819D02*
X107767381Y-79210771D01*
X107767381Y-79210771D02*
X107910238Y-79210771D01*
X107910238Y-79210771D02*
X108005476Y-79258390D01*
X108005476Y-79258390D02*
X108053095Y-79306009D01*
X108053095Y-79306009D02*
X108100714Y-79401247D01*
X108100714Y-79401247D02*
X108100714Y-79639342D01*
X108100714Y-79639342D02*
X108053095Y-79734580D01*
X108053095Y-79734580D02*
X108005476Y-79782200D01*
X108005476Y-79782200D02*
X107910238Y-79829819D01*
X107910238Y-79829819D02*
X107624524Y-79829819D01*
X107624524Y-79829819D02*
X107529286Y-79782200D01*
X107529286Y-79782200D02*
X107481667Y-79734580D01*
X115333333Y-70874819D02*
X115000000Y-70398628D01*
X114761905Y-70874819D02*
X114761905Y-69874819D01*
X114761905Y-69874819D02*
X115142857Y-69874819D01*
X115142857Y-69874819D02*
X115238095Y-69922438D01*
X115238095Y-69922438D02*
X115285714Y-69970057D01*
X115285714Y-69970057D02*
X115333333Y-70065295D01*
X115333333Y-70065295D02*
X115333333Y-70208152D01*
X115333333Y-70208152D02*
X115285714Y-70303390D01*
X115285714Y-70303390D02*
X115238095Y-70351009D01*
X115238095Y-70351009D02*
X115142857Y-70398628D01*
X115142857Y-70398628D02*
X114761905Y-70398628D01*
X115714286Y-69970057D02*
X115761905Y-69922438D01*
X115761905Y-69922438D02*
X115857143Y-69874819D01*
X115857143Y-69874819D02*
X116095238Y-69874819D01*
X116095238Y-69874819D02*
X116190476Y-69922438D01*
X116190476Y-69922438D02*
X116238095Y-69970057D01*
X116238095Y-69970057D02*
X116285714Y-70065295D01*
X116285714Y-70065295D02*
X116285714Y-70160533D01*
X116285714Y-70160533D02*
X116238095Y-70303390D01*
X116238095Y-70303390D02*
X115666667Y-70874819D01*
X115666667Y-70874819D02*
X116285714Y-70874819D01*
%TO.C,C2*%
D11*
X95785000Y-68761252D02*
X95785000Y-68238748D01*
X97255000Y-68761252D02*
X97255000Y-68238748D01*
%TO.C,R1*%
X99930000Y-72080000D02*
X110070000Y-72080000D01*
X99930000Y-72560000D02*
X99930000Y-72080000D01*
X99930000Y-75440000D02*
X99930000Y-75920000D01*
X99930000Y-75920000D02*
X110070000Y-75920000D01*
X110070000Y-72080000D02*
X110070000Y-72560000D01*
X110070000Y-75920000D02*
X110070000Y-75440000D01*
%TO.C,C1*%
X119280000Y-88206252D02*
X119280000Y-87683748D01*
X120750000Y-88206252D02*
X120750000Y-87683748D01*
%TO.C,J2*%
D12*
X82000000Y-77000000D02*
X89600000Y-77000000D01*
X82000000Y-87000000D02*
X82000000Y-77000000D01*
X89600000Y-77000000D02*
X89600000Y-87000000D01*
X89600000Y-87000000D02*
X82000000Y-87000000D01*
D13*
X81100000Y-79500000D02*
G75*
G02*
X80900000Y-79500000I-100000J0D01*
G01*
X80900000Y-79500000D02*
G75*
G02*
X81100000Y-79500000I100000J0D01*
G01*
%TO.C,U1*%
D11*
X99440000Y-65940000D02*
X103560000Y-65940000D01*
X99440000Y-66035000D02*
X99440000Y-65940000D01*
X99440000Y-71060000D02*
X99440000Y-70965000D01*
X103560000Y-65940000D02*
X103560000Y-66035000D01*
X103560000Y-70965000D02*
X103560000Y-71060000D01*
X103560000Y-71060000D02*
X99440000Y-71060000D01*
X104340000Y-71300000D02*
X103860000Y-71300000D01*
X104100000Y-70970000D01*
X104340000Y-71300000D01*
G36*
X104340000Y-71300000D02*
G01*
X103860000Y-71300000D01*
X104100000Y-70970000D01*
X104340000Y-71300000D01*
G37*
%TO.C,J1*%
D12*
X81900000Y-65000000D02*
X89500000Y-65000000D01*
X81900000Y-75000000D02*
X81900000Y-65000000D01*
X89500000Y-65000000D02*
X89500000Y-75000000D01*
X89500000Y-75000000D02*
X81900000Y-75000000D01*
D13*
X90600000Y-72500000D02*
G75*
G02*
X90400000Y-72500000I-100000J0D01*
G01*
X90400000Y-72500000D02*
G75*
G02*
X90600000Y-72500000I100000J0D01*
G01*
%TO.C,D1*%
D11*
X120290000Y-79990000D02*
X117200000Y-79990000D01*
X118745000Y-85540000D02*
G75*
G02*
X117200170Y-79990000I0J2990000D01*
G01*
X120289830Y-79990000D02*
G75*
G02*
X118745000Y-85540000I-1544830J-2560000D01*
G01*
X121245000Y-82550000D02*
G75*
G02*
X116245000Y-82550000I-2500000J0D01*
G01*
X116245000Y-82550000D02*
G75*
G02*
X121245000Y-82550000I2500000J0D01*
G01*
%TO.C,U2*%
X124845000Y-77360000D02*
X124845000Y-87640000D01*
X124845000Y-87640000D02*
X126495000Y-87640000D01*
X128495000Y-87640000D02*
X130145000Y-87640000D01*
X130145000Y-77360000D02*
X124845000Y-77360000D01*
X130145000Y-87640000D02*
X130145000Y-77360000D01*
X126495000Y-87640000D02*
G75*
G02*
X128495000Y-87640000I1000000J0D01*
G01*
%TO.C,R4*%
X99930000Y-83080000D02*
X110070000Y-83080000D01*
X99930000Y-83560000D02*
X99930000Y-83080000D01*
X99930000Y-86440000D02*
X99930000Y-86920000D01*
X99930000Y-86920000D02*
X110070000Y-86920000D01*
X110070000Y-83080000D02*
X110070000Y-83560000D01*
X110070000Y-86920000D02*
X110070000Y-86440000D01*
%TO.C,R3*%
X99780000Y-77580000D02*
X109920000Y-77580000D01*
X99780000Y-78060000D02*
X99780000Y-77580000D01*
X99780000Y-80940000D02*
X99780000Y-81420000D01*
X99780000Y-81420000D02*
X109920000Y-81420000D01*
X109920000Y-77580000D02*
X109920000Y-78060000D01*
X109920000Y-81420000D02*
X109920000Y-80940000D01*
%TO.C,R2*%
X110430000Y-65580000D02*
X110430000Y-66060000D01*
X110430000Y-69420000D02*
X110430000Y-68940000D01*
X120570000Y-65580000D02*
X110430000Y-65580000D01*
X120570000Y-66060000D02*
X120570000Y-65580000D01*
X120570000Y-68940000D02*
X120570000Y-69420000D01*
X120570000Y-69420000D02*
X110430000Y-69420000D01*
%TD*%
M02*
