M48
; DRILL file KiCad 10.0.0 date 2026-09-12T13:54:40
; FORMAT={-:-/ absolute / metric / decimal}
; #@! TF.CreationDate,2026-09-12T13:54:40-04:00
; #@! TF.GenerationSoftware,Kicad,Pcbnew,10.0.0
; #@! TF.FileFunction,Plated,1,2,PTH
FMAT,2
METRIC
; #@! TA.AperFunction,Plated,PTH,ComponentDrill
T1C0.800
; #@! TA.AperFunction,Plated,PTH,ComponentDrill
T2C0.900
; #@! TA.AperFunction,Plated,PTH,ComponentDrill
T3C1.200
; #@! TA.AperFunction,Plated,PTH,ComponentDrill
T4C1.300
%
G90
G05
T1
X123.685Y-78.69
X123.685Y-81.23
X123.685Y-83.77
X123.685Y-86.31
X131.305Y-78.69
X131.305Y-81.23
X131.305Y-83.77
X131.305Y-86.31
T2
X117.5Y-81.23
X117.5Y-83.77
T3
X98.5Y-79.5
X98.65Y-74.0
X98.65Y-85.0
X109.15Y-67.5
X111.2Y-79.5
X111.35Y-74.0
X111.35Y-85.0
X121.85Y-67.5
T4
X85.5Y-79.5
X85.5Y-84.5
X86.0Y-67.5
X86.0Y-72.5
M30
