%TF.GenerationSoftware,KiCad,Pcbnew,10.0.0*%
%TF.CreationDate,2026-09-12T13:53:27-04:00*%
%TF.ProjectId,Lunabotics,4c756e61-626f-4746-9963-732e6b696361,rev?*%
%TF.SameCoordinates,Original*%
%TF.FileFunction,Legend,Top*%
%TF.FilePolarity,Positive*%
%FSLAX46Y46*%
G04 Gerber Fmt 4.6, Leading zero omitted, Abs format (unit mm)*
G04 Created by KiCad (PCBNEW 10.0.0) date 2026-09-12 13:53:27*
%MOMM*%
%LPD*%
G01*
G04 APERTURE LIST*
%ADD10C,0.150000*%
%ADD11C,0.120000*%
%ADD12C,0.127000*%
%ADD13C,0.200000*%
G04 APERTURE END LIST*
D10*
X95355580Y-65190666D02*
X95403200Y-65238285D01*
X95403200Y-65238285D02*
X95450819Y-65381142D01*
X95450819Y-65381142D02*
X95450819Y-65476380D01*
X95450819Y-65476380D02*
X95403200Y-65619237D01*
X95403200Y-65619237D02*
X95307961Y-65714475D01*
X95307961Y-65714475D02*
X95212723Y-65762094D01*
X95212723Y-65762094D02*
X95022247Y-65809713D01*
X95022247Y-65809713D02*
X94879390Y-65809713D01*
X94879390Y-65809713D02*
X94688914Y-65762094D01*
X94688914Y-65762094D02*
X94593676Y-65714475D01*
X94593676Y-65714475D02*
X94498438Y-65619237D01*
X94498438Y-65619237D02*
X94450819Y-65476380D01*
X94450819Y-65476380D02*
X94450819Y-65381142D01*
X94450819Y-65381142D02*
X94498438Y-65238285D01*
X94498438Y-65238285D02*
X94546057Y-65190666D01*
X94546057Y-64809713D02*
X94498438Y-64762094D01*
X94498438Y-64762094D02*
X94450819Y-64666856D01*
X94450819Y-64666856D02*
X94450819Y-64428761D01*
X94450819Y-64428761D02*
X94498438Y-64333523D01*
X94498438Y-64333523D02*
X94546057Y-64285904D01*
X94546057Y-64285904D02*
X94641295Y-64238285D01*
X94641295Y-64238285D02*
X94736533Y-64238285D01*
X94736533Y-64238285D02*
X94879390Y-64285904D01*
X94879390Y-64285904D02*
X95450819Y-64857332D01*
X95450819Y-64857332D02*
X95450819Y-64238285D01*
X106513333Y-71574819D02*
X106180000Y-71098628D01*
X105941905Y-71574819D02*
X105941905Y-70574819D01*
X105941905Y-70574819D02*
X106322857Y-70574819D01*
X106322857Y-70574819D02*
X106418095Y-70622438D01*
X106418095Y-70622438D02*
X106465714Y-70670057D01*
X106465714Y-70670057D02*
X106513333Y-70765295D01*
X106513333Y-70765295D02*
X106513333Y-70908152D01*
X106513333Y-70908152D02*
X106465714Y-71003390D01*
X106465714Y-71003390D02*
X106418095Y-71051009D01*
X106418095Y-71051009D02*
X106322857Y-71098628D01*
X106322857Y-71098628D02*
X105941905Y-71098628D01*
X107465714Y-71574819D02*
X106894286Y-71574819D01*
X107180000Y-71574819D02*
X107180000Y-70574819D01*
X107180000Y-70574819D02*
X107084762Y-70717676D01*
X107084762Y-70717676D02*
X106989524Y-70812914D01*
X106989524Y-70812914D02*
X106894286Y-70860533D01*
X91799580Y-64682666D02*
X91847200Y-64730285D01*
X91847200Y-64730285D02*
X91894819Y-64873142D01*
X91894819Y-64873142D02*
X91894819Y-64968380D01*
X91894819Y-64968380D02*
X91847200Y-65111237D01*
X91847200Y-65111237D02*
X91751961Y-65206475D01*
X91751961Y-65206475D02*
X91656723Y-65254094D01*
X91656723Y-65254094D02*
X91466247Y-65301713D01*
X91466247Y-65301713D02*
X91323390Y-65301713D01*
X91323390Y-65301713D02*
X91132914Y-65254094D01*
X91132914Y-65254094D02*
X91037676Y-65206475D01*
X91037676Y-65206475D02*
X90942438Y-65111237D01*
X90942438Y-65111237D02*
X90894819Y-64968380D01*
X90894819Y-64968380D02*
X90894819Y-64873142D01*
X90894819Y-64873142D02*
X90942438Y-64730285D01*
X90942438Y-64730285D02*
X90990057Y-64682666D01*
X91894819Y-63730285D02*
X91894819Y-64301713D01*
X91894819Y-64015999D02*
X90894819Y-64015999D01*
X90894819Y-64015999D02*
X91037676Y-64111237D01*
X91037676Y-64111237D02*
X91132914Y-64206475D01*
X91132914Y-64206475D02*
X91180533Y-64301713D01*
X90728866Y-80911666D02*
X91728866Y-80911666D01*
X91728866Y-80911666D02*
X91928866Y-80978333D01*
X91928866Y-80978333D02*
X92062200Y-81111666D01*
X92062200Y-81111666D02*
X92128866Y-81311666D01*
X92128866Y-81311666D02*
X92128866Y-81445000D01*
X90862200Y-80311666D02*
X90795533Y-80244999D01*
X90795533Y-80244999D02*
X90728866Y-80111666D01*
X90728866Y-80111666D02*
X90728866Y-79778333D01*
X90728866Y-79778333D02*
X90795533Y-79644999D01*
X90795533Y-79644999D02*
X90862200Y-79578333D01*
X90862200Y-79578333D02*
X90995533Y-79511666D01*
X90995533Y-79511666D02*
X91128866Y-79511666D01*
X91128866Y-79511666D02*
X91328866Y-79578333D01*
X91328866Y-79578333D02*
X92128866Y-80378333D01*
X92128866Y-80378333D02*
X92128866Y-79511666D01*
X95250095Y-71354819D02*
X95250095Y-72164342D01*
X95250095Y-72164342D02*
X95297714Y-72259580D01*
X95297714Y-72259580D02*
X95345333Y-72307200D01*
X95345333Y-72307200D02*
X95440571Y-72354819D01*
X95440571Y-72354819D02*
X95631047Y-72354819D01*
X95631047Y-72354819D02*
X95726285Y-72307200D01*
X95726285Y-72307200D02*
X95773904Y-72259580D01*
X95773904Y-72259580D02*
X95821523Y-72164342D01*
X95821523Y-72164342D02*
X95821523Y-71354819D01*
X96821523Y-72354819D02*
X96250095Y-72354819D01*
X96535809Y-72354819D02*
X96535809Y-71354819D01*
X96535809Y-71354819D02*
X96440571Y-71497676D01*
X96440571Y-71497676D02*
X96345333Y-71592914D01*
X96345333Y-71592914D02*
X96250095Y-71640533D01*
X115333333Y-70874819D02*
X115000000Y-70398628D01*
X114761905Y-70874819D02*
X114761905Y-69874819D01*
X114761905Y-69874819D02*
X115142857Y-69874819D01*
X115142857Y-69874819D02*
X115238095Y-69922438D01*
X115238095Y-69922438D02*
X115285714Y-69970057D01*
X115285714Y-69970057D02*
X115333333Y-70065295D01*
X115333333Y-70065295D02*
X115333333Y-70208152D01*
X115333333Y-70208152D02*
X115285714Y-70303390D01*
X115285714Y-70303390D02*
X115238095Y-70351009D01*
X115238095Y-70351009D02*
X115142857Y-70398628D01*
X115142857Y-70398628D02*
X114761905Y-70398628D01*
X115714286Y-69970057D02*
X115761905Y-69922438D01*
X115761905Y-69922438D02*
X115857143Y-69874819D01*
X115857143Y-69874819D02*
X116095238Y-69874819D01*
X116095238Y-69874819D02*
X116190476Y-69922438D01*
X116190476Y-69922438D02*
X116238095Y-69970057D01*
X116238095Y-69970057D02*
X116285714Y-70065295D01*
X116285714Y-70065295D02*
X116285714Y-70160533D01*
X116285714Y-70160533D02*
X116238095Y-70303390D01*
X116238095Y-70303390D02*
X115666667Y-70874819D01*
X115666667Y-70874819D02*
X116285714Y-70874819D01*
X80011866Y-70570666D02*
X81011866Y-70570666D01*
X81011866Y-70570666D02*
X81211866Y-70637333D01*
X81211866Y-70637333D02*
X81345200Y-70770666D01*
X81345200Y-70770666D02*
X81411866Y-70970666D01*
X81411866Y-70970666D02*
X81411866Y-71104000D01*
X81411866Y-69170666D02*
X81411866Y-69970666D01*
X81411866Y-69570666D02*
X80011866Y-69570666D01*
X80011866Y-69570666D02*
X80211866Y-69703999D01*
X80211866Y-69703999D02*
X80345200Y-69837333D01*
X80345200Y-69837333D02*
X80411866Y-69970666D01*
X121914819Y-83238094D02*
X120914819Y-83238094D01*
X120914819Y-83238094D02*
X120914819Y-82999999D01*
X120914819Y-82999999D02*
X120962438Y-82857142D01*
X120962438Y-82857142D02*
X121057676Y-82761904D01*
X121057676Y-82761904D02*
X121152914Y-82714285D01*
X121152914Y-82714285D02*
X121343390Y-82666666D01*
X121343390Y-82666666D02*
X121486247Y-82666666D01*
X121486247Y-82666666D02*
X121676723Y-82714285D01*
X121676723Y-82714285D02*
X121771961Y-82761904D01*
X121771961Y-82761904D02*
X121867200Y-82857142D01*
X121867200Y-82857142D02*
X121914819Y-82999999D01*
X121914819Y-82999999D02*
X121914819Y-83238094D01*
X121914819Y-81714285D02*
X121914819Y-82285713D01*
X121914819Y-81999999D02*
X120914819Y-81999999D01*
X120914819Y-81999999D02*
X121057676Y-82095237D01*
X121057676Y-82095237D02*
X121152914Y-82190475D01*
X121152914Y-82190475D02*
X121200533Y-82285713D01*
X126733095Y-88094819D02*
X126733095Y-88904342D01*
X126733095Y-88904342D02*
X126780714Y-88999580D01*
X126780714Y-88999580D02*
X126828333Y-89047200D01*
X126828333Y-89047200D02*
X126923571Y-89094819D01*
X126923571Y-89094819D02*
X127114047Y-89094819D01*
X127114047Y-89094819D02*
X127209285Y-89047200D01*
X127209285Y-89047200D02*
X127256904Y-88999580D01*
X127256904Y-88999580D02*
X127304523Y-88904342D01*
X127304523Y-88904342D02*
X127304523Y-88094819D01*
X127733095Y-88190057D02*
X127780714Y-88142438D01*
X127780714Y-88142438D02*
X127875952Y-88094819D01*
X127875952Y-88094819D02*
X128114047Y-88094819D01*
X128114047Y-88094819D02*
X128209285Y-88142438D01*
X128209285Y-88142438D02*
X128256904Y-88190057D01*
X128256904Y-88190057D02*
X128304523Y-88285295D01*
X128304523Y-88285295D02*
X128304523Y-88380533D01*
X128304523Y-88380533D02*
X128256904Y-88523390D01*
X128256904Y-88523390D02*
X127685476Y-89094819D01*
X127685476Y-89094819D02*
X128304523Y-89094819D01*
X102449333Y-85290819D02*
X102116000Y-84814628D01*
X101877905Y-85290819D02*
X101877905Y-84290819D01*
X101877905Y-84290819D02*
X102258857Y-84290819D01*
X102258857Y-84290819D02*
X102354095Y-84338438D01*
X102354095Y-84338438D02*
X102401714Y-84386057D01*
X102401714Y-84386057D02*
X102449333Y-84481295D01*
X102449333Y-84481295D02*
X102449333Y-84624152D01*
X102449333Y-84624152D02*
X102401714Y-84719390D01*
X102401714Y-84719390D02*
X102354095Y-84767009D01*
X102354095Y-84767009D02*
X102258857Y-84814628D01*
X102258857Y-84814628D02*
X101877905Y-84814628D01*
X103306476Y-84624152D02*
X103306476Y-85290819D01*
X103068381Y-84243200D02*
X102830286Y-84957485D01*
X102830286Y-84957485D02*
X103449333Y-84957485D01*
X102449333Y-80210819D02*
X102116000Y-79734628D01*
X101877905Y-80210819D02*
X101877905Y-79210819D01*
X101877905Y-79210819D02*
X102258857Y-79210819D01*
X102258857Y-79210819D02*
X102354095Y-79258438D01*
X102354095Y-79258438D02*
X102401714Y-79306057D01*
X102401714Y-79306057D02*
X102449333Y-79401295D01*
X102449333Y-79401295D02*
X102449333Y-79544152D01*
X102449333Y-79544152D02*
X102401714Y-79639390D01*
X102401714Y-79639390D02*
X102354095Y-79687009D01*
X102354095Y-79687009D02*
X102258857Y-79734628D01*
X102258857Y-79734628D02*
X101877905Y-79734628D01*
X102782667Y-79210819D02*
X103401714Y-79210819D01*
X103401714Y-79210819D02*
X103068381Y-79591771D01*
X103068381Y-79591771D02*
X103211238Y-79591771D01*
X103211238Y-79591771D02*
X103306476Y-79639390D01*
X103306476Y-79639390D02*
X103354095Y-79687009D01*
X103354095Y-79687009D02*
X103401714Y-79782247D01*
X103401714Y-79782247D02*
X103401714Y-80020342D01*
X103401714Y-80020342D02*
X103354095Y-80115580D01*
X103354095Y-80115580D02*
X103306476Y-80163200D01*
X103306476Y-80163200D02*
X103211238Y-80210819D01*
X103211238Y-80210819D02*
X102925524Y-80210819D01*
X102925524Y-80210819D02*
X102830286Y-80163200D01*
X102830286Y-80163200D02*
X102782667Y-80115580D01*
%TO.C,C2*%
D11*
X94265000Y-68761252D02*
X94265000Y-68238748D01*
X95735000Y-68761252D02*
X95735000Y-68238748D01*
%TO.C,R1*%
X99930000Y-72080000D02*
X110070000Y-72080000D01*
X99930000Y-72560000D02*
X99930000Y-72080000D01*
X99930000Y-75440000D02*
X99930000Y-75920000D01*
X99930000Y-75920000D02*
X110070000Y-75920000D01*
X110070000Y-72080000D02*
X110070000Y-72560000D01*
X110070000Y-75920000D02*
X110070000Y-75440000D01*
%TO.C,C1*%
X90765000Y-68188748D02*
X90765000Y-68711252D01*
X92235000Y-68188748D02*
X92235000Y-68711252D01*
%TO.C,J2*%
D12*
X82000000Y-77000000D02*
X89600000Y-77000000D01*
X82000000Y-87000000D02*
X82000000Y-77000000D01*
X89600000Y-77000000D02*
X89600000Y-87000000D01*
X89600000Y-87000000D02*
X82000000Y-87000000D01*
D13*
X81100000Y-79500000D02*
G75*
G02*
X80900000Y-79500000I-100000J0D01*
G01*
X80900000Y-79500000D02*
G75*
G02*
X81100000Y-79500000I100000J0D01*
G01*
%TO.C,U1*%
D11*
X99440000Y-65940000D02*
X103560000Y-65940000D01*
X99440000Y-66035000D02*
X99440000Y-65940000D01*
X99440000Y-71060000D02*
X99440000Y-70965000D01*
X103560000Y-65940000D02*
X103560000Y-66035000D01*
X103560000Y-70965000D02*
X103560000Y-71060000D01*
X103560000Y-71060000D02*
X99440000Y-71060000D01*
X104340000Y-71300000D02*
X103860000Y-71300000D01*
X104100000Y-70970000D01*
X104340000Y-71300000D01*
G36*
X104340000Y-71300000D02*
G01*
X103860000Y-71300000D01*
X104100000Y-70970000D01*
X104340000Y-71300000D01*
G37*
%TO.C,R2*%
X110430000Y-65580000D02*
X110430000Y-66060000D01*
X110430000Y-69420000D02*
X110430000Y-68940000D01*
X120570000Y-65580000D02*
X110430000Y-65580000D01*
X120570000Y-66060000D02*
X120570000Y-65580000D01*
X120570000Y-68940000D02*
X120570000Y-69420000D01*
X120570000Y-69420000D02*
X110430000Y-69420000D01*
%TO.C,J1*%
D12*
X81900000Y-65000000D02*
X89500000Y-65000000D01*
X81900000Y-75000000D02*
X81900000Y-65000000D01*
X89500000Y-65000000D02*
X89500000Y-75000000D01*
X89500000Y-75000000D02*
X81900000Y-75000000D01*
D13*
X90600000Y-72500000D02*
G75*
G02*
X90400000Y-72500000I-100000J0D01*
G01*
X90400000Y-72500000D02*
G75*
G02*
X90600000Y-72500000I100000J0D01*
G01*
%TO.C,D1*%
D11*
X119045000Y-79940000D02*
X115955000Y-79940000D01*
X117500000Y-85490000D02*
G75*
G02*
X115955170Y-79940000I0J2990000D01*
G01*
X119044830Y-79940000D02*
G75*
G02*
X117500000Y-85490000I-1544830J-2560000D01*
G01*
X120000000Y-82500000D02*
G75*
G02*
X115000000Y-82500000I-2500000J0D01*
G01*
X115000000Y-82500000D02*
G75*
G02*
X120000000Y-82500000I2500000J0D01*
G01*
%TO.C,U2*%
X124845000Y-77360000D02*
X124845000Y-87640000D01*
X124845000Y-87640000D02*
X126495000Y-87640000D01*
X128495000Y-87640000D02*
X130145000Y-87640000D01*
X130145000Y-77360000D02*
X124845000Y-77360000D01*
X130145000Y-87640000D02*
X130145000Y-77360000D01*
X126495000Y-87640000D02*
G75*
G02*
X128495000Y-87640000I1000000J0D01*
G01*
%TO.C,R4*%
X99930000Y-83080000D02*
X110070000Y-83080000D01*
X99930000Y-83560000D02*
X99930000Y-83080000D01*
X99930000Y-86440000D02*
X99930000Y-86920000D01*
X99930000Y-86920000D02*
X110070000Y-86920000D01*
X110070000Y-83080000D02*
X110070000Y-83560000D01*
X110070000Y-86920000D02*
X110070000Y-86440000D01*
%TO.C,R3*%
X99780000Y-77580000D02*
X109920000Y-77580000D01*
X99780000Y-78060000D02*
X99780000Y-77580000D01*
X99780000Y-80940000D02*
X99780000Y-81420000D01*
X99780000Y-81420000D02*
X109920000Y-81420000D01*
X109920000Y-77580000D02*
X109920000Y-78060000D01*
X109920000Y-81420000D02*
X109920000Y-80940000D01*
%TD*%
M02*
