%TF.GenerationSoftware,KiCad,Pcbnew,10.0.6*%
%TF.CreationDate,2026-09-12T17:07:30-04:00*%
%TF.ProjectId,Intro to KiCad,496e7472-6f20-4746-9f20-4b694361642e,rev?*%
%TF.SameCoordinates,Original*%
%TF.FileFunction,Legend,Bot*%
%TF.FilePolarity,Positive*%
%FSLAX46Y46*%
G04 Gerber Fmt 4.6, Leading zero omitted, Abs format (unit mm)*
G04 Created by KiCad (PCBNEW 10.0.6) date 2026-09-12 17:07:30*
%MOMM*%
%LPD*%
G01*
G04 APERTURE LIST*
%ADD10C,0.150000*%
%ADD11C,0.120000*%
%ADD12C,0.127000*%
%ADD13C,0.200000*%
G04 APERTURE END LIST*
D10*
X137166666Y-104034819D02*
X137499999Y-103558628D01*
X137738094Y-104034819D02*
X137738094Y-103034819D01*
X137738094Y-103034819D02*
X137357142Y-103034819D01*
X137357142Y-103034819D02*
X137261904Y-103082438D01*
X137261904Y-103082438D02*
X137214285Y-103130057D01*
X137214285Y-103130057D02*
X137166666Y-103225295D01*
X137166666Y-103225295D02*
X137166666Y-103368152D01*
X137166666Y-103368152D02*
X137214285Y-103463390D01*
X137214285Y-103463390D02*
X137261904Y-103511009D01*
X137261904Y-103511009D02*
X137357142Y-103558628D01*
X137357142Y-103558628D02*
X137738094Y-103558628D01*
X136785713Y-103130057D02*
X136738094Y-103082438D01*
X136738094Y-103082438D02*
X136642856Y-103034819D01*
X136642856Y-103034819D02*
X136404761Y-103034819D01*
X136404761Y-103034819D02*
X136309523Y-103082438D01*
X136309523Y-103082438D02*
X136261904Y-103130057D01*
X136261904Y-103130057D02*
X136214285Y-103225295D01*
X136214285Y-103225295D02*
X136214285Y-103320533D01*
X136214285Y-103320533D02*
X136261904Y-103463390D01*
X136261904Y-103463390D02*
X136833332Y-104034819D01*
X136833332Y-104034819D02*
X136214285Y-104034819D01*
X137166666Y-106954819D02*
X137499999Y-106478628D01*
X137738094Y-106954819D02*
X137738094Y-105954819D01*
X137738094Y-105954819D02*
X137357142Y-105954819D01*
X137357142Y-105954819D02*
X137261904Y-106002438D01*
X137261904Y-106002438D02*
X137214285Y-106050057D01*
X137214285Y-106050057D02*
X137166666Y-106145295D01*
X137166666Y-106145295D02*
X137166666Y-106288152D01*
X137166666Y-106288152D02*
X137214285Y-106383390D01*
X137214285Y-106383390D02*
X137261904Y-106431009D01*
X137261904Y-106431009D02*
X137357142Y-106478628D01*
X137357142Y-106478628D02*
X137738094Y-106478628D01*
X136785713Y-106050057D02*
X136738094Y-106002438D01*
X136738094Y-106002438D02*
X136642856Y-105954819D01*
X136642856Y-105954819D02*
X136404761Y-105954819D01*
X136404761Y-105954819D02*
X136309523Y-106002438D01*
X136309523Y-106002438D02*
X136261904Y-106050057D01*
X136261904Y-106050057D02*
X136214285Y-106145295D01*
X136214285Y-106145295D02*
X136214285Y-106240533D01*
X136214285Y-106240533D02*
X136261904Y-106383390D01*
X136261904Y-106383390D02*
X136833332Y-106954819D01*
X136833332Y-106954819D02*
X136214285Y-106954819D01*
X144021666Y-57750866D02*
X144021666Y-58750866D01*
X144021666Y-58750866D02*
X144088333Y-58950866D01*
X144088333Y-58950866D02*
X144221666Y-59084200D01*
X144221666Y-59084200D02*
X144421666Y-59150866D01*
X144421666Y-59150866D02*
X144555000Y-59150866D01*
X142621666Y-59150866D02*
X143421666Y-59150866D01*
X143021666Y-59150866D02*
X143021666Y-57750866D01*
X143021666Y-57750866D02*
X143154999Y-57950866D01*
X143154999Y-57950866D02*
X143288333Y-58084200D01*
X143288333Y-58084200D02*
X143421666Y-58150866D01*
X128874819Y-87983333D02*
X128398628Y-87650000D01*
X128874819Y-87411905D02*
X127874819Y-87411905D01*
X127874819Y-87411905D02*
X127874819Y-87792857D01*
X127874819Y-87792857D02*
X127922438Y-87888095D01*
X127922438Y-87888095D02*
X127970057Y-87935714D01*
X127970057Y-87935714D02*
X128065295Y-87983333D01*
X128065295Y-87983333D02*
X128208152Y-87983333D01*
X128208152Y-87983333D02*
X128303390Y-87935714D01*
X128303390Y-87935714D02*
X128351009Y-87888095D01*
X128351009Y-87888095D02*
X128398628Y-87792857D01*
X128398628Y-87792857D02*
X128398628Y-87411905D01*
X128208152Y-88840476D02*
X128874819Y-88840476D01*
X127827200Y-88602381D02*
X128541485Y-88364286D01*
X128541485Y-88364286D02*
X128541485Y-88983333D01*
X125954819Y-87983333D02*
X125478628Y-87650000D01*
X125954819Y-87411905D02*
X124954819Y-87411905D01*
X124954819Y-87411905D02*
X124954819Y-87792857D01*
X124954819Y-87792857D02*
X125002438Y-87888095D01*
X125002438Y-87888095D02*
X125050057Y-87935714D01*
X125050057Y-87935714D02*
X125145295Y-87983333D01*
X125145295Y-87983333D02*
X125288152Y-87983333D01*
X125288152Y-87983333D02*
X125383390Y-87935714D01*
X125383390Y-87935714D02*
X125431009Y-87888095D01*
X125431009Y-87888095D02*
X125478628Y-87792857D01*
X125478628Y-87792857D02*
X125478628Y-87411905D01*
X125288152Y-88840476D02*
X125954819Y-88840476D01*
X124907200Y-88602381D02*
X125621485Y-88364286D01*
X125621485Y-88364286D02*
X125621485Y-88983333D01*
X152071904Y-94784819D02*
X152071904Y-95594342D01*
X152071904Y-95594342D02*
X152024285Y-95689580D01*
X152024285Y-95689580D02*
X151976666Y-95737200D01*
X151976666Y-95737200D02*
X151881428Y-95784819D01*
X151881428Y-95784819D02*
X151690952Y-95784819D01*
X151690952Y-95784819D02*
X151595714Y-95737200D01*
X151595714Y-95737200D02*
X151548095Y-95689580D01*
X151548095Y-95689580D02*
X151500476Y-95594342D01*
X151500476Y-95594342D02*
X151500476Y-94784819D01*
X151071904Y-94880057D02*
X151024285Y-94832438D01*
X151024285Y-94832438D02*
X150929047Y-94784819D01*
X150929047Y-94784819D02*
X150690952Y-94784819D01*
X150690952Y-94784819D02*
X150595714Y-94832438D01*
X150595714Y-94832438D02*
X150548095Y-94880057D01*
X150548095Y-94880057D02*
X150500476Y-94975295D01*
X150500476Y-94975295D02*
X150500476Y-95070533D01*
X150500476Y-95070533D02*
X150548095Y-95213390D01*
X150548095Y-95213390D02*
X151119523Y-95784819D01*
X151119523Y-95784819D02*
X150500476Y-95784819D01*
X150764819Y-88428095D02*
X151574342Y-88428095D01*
X151574342Y-88428095D02*
X151669580Y-88475714D01*
X151669580Y-88475714D02*
X151717200Y-88523333D01*
X151717200Y-88523333D02*
X151764819Y-88618571D01*
X151764819Y-88618571D02*
X151764819Y-88809047D01*
X151764819Y-88809047D02*
X151717200Y-88904285D01*
X151717200Y-88904285D02*
X151669580Y-88951904D01*
X151669580Y-88951904D02*
X151574342Y-88999523D01*
X151574342Y-88999523D02*
X150764819Y-88999523D01*
X150860057Y-89428095D02*
X150812438Y-89475714D01*
X150812438Y-89475714D02*
X150764819Y-89570952D01*
X150764819Y-89570952D02*
X150764819Y-89809047D01*
X150764819Y-89809047D02*
X150812438Y-89904285D01*
X150812438Y-89904285D02*
X150860057Y-89951904D01*
X150860057Y-89951904D02*
X150955295Y-89999523D01*
X150955295Y-89999523D02*
X151050533Y-89999523D01*
X151050533Y-89999523D02*
X151193390Y-89951904D01*
X151193390Y-89951904D02*
X151764819Y-89380476D01*
X151764819Y-89380476D02*
X151764819Y-89999523D01*
X134508094Y-86494819D02*
X134508094Y-85494819D01*
X134508094Y-85494819D02*
X134269999Y-85494819D01*
X134269999Y-85494819D02*
X134127142Y-85542438D01*
X134127142Y-85542438D02*
X134031904Y-85637676D01*
X134031904Y-85637676D02*
X133984285Y-85732914D01*
X133984285Y-85732914D02*
X133936666Y-85923390D01*
X133936666Y-85923390D02*
X133936666Y-86066247D01*
X133936666Y-86066247D02*
X133984285Y-86256723D01*
X133984285Y-86256723D02*
X134031904Y-86351961D01*
X134031904Y-86351961D02*
X134127142Y-86447200D01*
X134127142Y-86447200D02*
X134269999Y-86494819D01*
X134269999Y-86494819D02*
X134508094Y-86494819D01*
X132984285Y-86494819D02*
X133555713Y-86494819D01*
X133269999Y-86494819D02*
X133269999Y-85494819D01*
X133269999Y-85494819D02*
X133365237Y-85637676D01*
X133365237Y-85637676D02*
X133460475Y-85732914D01*
X133460475Y-85732914D02*
X133555713Y-85780533D01*
X134874819Y-72833333D02*
X134398628Y-72500000D01*
X134874819Y-72261905D02*
X133874819Y-72261905D01*
X133874819Y-72261905D02*
X133874819Y-72642857D01*
X133874819Y-72642857D02*
X133922438Y-72738095D01*
X133922438Y-72738095D02*
X133970057Y-72785714D01*
X133970057Y-72785714D02*
X134065295Y-72833333D01*
X134065295Y-72833333D02*
X134208152Y-72833333D01*
X134208152Y-72833333D02*
X134303390Y-72785714D01*
X134303390Y-72785714D02*
X134351009Y-72738095D01*
X134351009Y-72738095D02*
X134398628Y-72642857D01*
X134398628Y-72642857D02*
X134398628Y-72261905D01*
X133874819Y-73166667D02*
X133874819Y-73785714D01*
X133874819Y-73785714D02*
X134255771Y-73452381D01*
X134255771Y-73452381D02*
X134255771Y-73595238D01*
X134255771Y-73595238D02*
X134303390Y-73690476D01*
X134303390Y-73690476D02*
X134351009Y-73738095D01*
X134351009Y-73738095D02*
X134446247Y-73785714D01*
X134446247Y-73785714D02*
X134684342Y-73785714D01*
X134684342Y-73785714D02*
X134779580Y-73738095D01*
X134779580Y-73738095D02*
X134827200Y-73690476D01*
X134827200Y-73690476D02*
X134874819Y-73595238D01*
X134874819Y-73595238D02*
X134874819Y-73309524D01*
X134874819Y-73309524D02*
X134827200Y-73214286D01*
X134827200Y-73214286D02*
X134779580Y-73166667D01*
X131954819Y-72833333D02*
X131478628Y-72500000D01*
X131954819Y-72261905D02*
X130954819Y-72261905D01*
X130954819Y-72261905D02*
X130954819Y-72642857D01*
X130954819Y-72642857D02*
X131002438Y-72738095D01*
X131002438Y-72738095D02*
X131050057Y-72785714D01*
X131050057Y-72785714D02*
X131145295Y-72833333D01*
X131145295Y-72833333D02*
X131288152Y-72833333D01*
X131288152Y-72833333D02*
X131383390Y-72785714D01*
X131383390Y-72785714D02*
X131431009Y-72738095D01*
X131431009Y-72738095D02*
X131478628Y-72642857D01*
X131478628Y-72642857D02*
X131478628Y-72261905D01*
X130954819Y-73166667D02*
X130954819Y-73785714D01*
X130954819Y-73785714D02*
X131335771Y-73452381D01*
X131335771Y-73452381D02*
X131335771Y-73595238D01*
X131335771Y-73595238D02*
X131383390Y-73690476D01*
X131383390Y-73690476D02*
X131431009Y-73738095D01*
X131431009Y-73738095D02*
X131526247Y-73785714D01*
X131526247Y-73785714D02*
X131764342Y-73785714D01*
X131764342Y-73785714D02*
X131859580Y-73738095D01*
X131859580Y-73738095D02*
X131907200Y-73690476D01*
X131907200Y-73690476D02*
X131954819Y-73595238D01*
X131954819Y-73595238D02*
X131954819Y-73309524D01*
X131954819Y-73309524D02*
X131907200Y-73214286D01*
X131907200Y-73214286D02*
X131859580Y-73166667D01*
X160021666Y-58088366D02*
X160021666Y-59088366D01*
X160021666Y-59088366D02*
X160088333Y-59288366D01*
X160088333Y-59288366D02*
X160221666Y-59421700D01*
X160221666Y-59421700D02*
X160421666Y-59488366D01*
X160421666Y-59488366D02*
X160555000Y-59488366D01*
X159488333Y-58088366D02*
X158621666Y-58088366D01*
X158621666Y-58088366D02*
X159088333Y-58621700D01*
X159088333Y-58621700D02*
X158888333Y-58621700D01*
X158888333Y-58621700D02*
X158754999Y-58688366D01*
X158754999Y-58688366D02*
X158688333Y-58755033D01*
X158688333Y-58755033D02*
X158621666Y-58888366D01*
X158621666Y-58888366D02*
X158621666Y-59221700D01*
X158621666Y-59221700D02*
X158688333Y-59355033D01*
X158688333Y-59355033D02*
X158754999Y-59421700D01*
X158754999Y-59421700D02*
X158888333Y-59488366D01*
X158888333Y-59488366D02*
X159288333Y-59488366D01*
X159288333Y-59488366D02*
X159421666Y-59421700D01*
X159421666Y-59421700D02*
X159488333Y-59355033D01*
X156666666Y-104034819D02*
X156999999Y-103558628D01*
X157238094Y-104034819D02*
X157238094Y-103034819D01*
X157238094Y-103034819D02*
X156857142Y-103034819D01*
X156857142Y-103034819D02*
X156761904Y-103082438D01*
X156761904Y-103082438D02*
X156714285Y-103130057D01*
X156714285Y-103130057D02*
X156666666Y-103225295D01*
X156666666Y-103225295D02*
X156666666Y-103368152D01*
X156666666Y-103368152D02*
X156714285Y-103463390D01*
X156714285Y-103463390D02*
X156761904Y-103511009D01*
X156761904Y-103511009D02*
X156857142Y-103558628D01*
X156857142Y-103558628D02*
X157238094Y-103558628D01*
X155714285Y-104034819D02*
X156285713Y-104034819D01*
X155999999Y-104034819D02*
X155999999Y-103034819D01*
X155999999Y-103034819D02*
X156095237Y-103177676D01*
X156095237Y-103177676D02*
X156190475Y-103272914D01*
X156190475Y-103272914D02*
X156285713Y-103320533D01*
X156666666Y-106954819D02*
X156999999Y-106478628D01*
X157238094Y-106954819D02*
X157238094Y-105954819D01*
X157238094Y-105954819D02*
X156857142Y-105954819D01*
X156857142Y-105954819D02*
X156761904Y-106002438D01*
X156761904Y-106002438D02*
X156714285Y-106050057D01*
X156714285Y-106050057D02*
X156666666Y-106145295D01*
X156666666Y-106145295D02*
X156666666Y-106288152D01*
X156666666Y-106288152D02*
X156714285Y-106383390D01*
X156714285Y-106383390D02*
X156761904Y-106431009D01*
X156761904Y-106431009D02*
X156857142Y-106478628D01*
X156857142Y-106478628D02*
X157238094Y-106478628D01*
X155714285Y-106954819D02*
X156285713Y-106954819D01*
X155999999Y-106954819D02*
X155999999Y-105954819D01*
X155999999Y-105954819D02*
X156095237Y-106097676D01*
X156095237Y-106097676D02*
X156190475Y-106192914D01*
X156190475Y-106192914D02*
X156285713Y-106240533D01*
%TO.C,R2*%
D11*
X142070000Y-108420000D02*
X131930000Y-108420000D01*
X142070000Y-107940000D02*
X142070000Y-108420000D01*
X142070000Y-105060000D02*
X142070000Y-104580000D01*
X142070000Y-104580000D02*
X131930000Y-104580000D01*
X131930000Y-108420000D02*
X131930000Y-107940000D01*
X131930000Y-104580000D02*
X131930000Y-105060000D01*
%TO.C,J1*%
D12*
X137000000Y-68000000D02*
X147000000Y-68000000D01*
X137000000Y-60400000D02*
X137000000Y-68000000D01*
X147000000Y-68000000D02*
X147000000Y-60400000D01*
X147000000Y-60400000D02*
X137000000Y-60400000D01*
D13*
X144600000Y-69000000D02*
G75*
G02*
X144400000Y-69000000I-100000J0D01*
G01*
X144400000Y-69000000D02*
G75*
G02*
X144600000Y-69000000I100000J0D01*
G01*
%TO.C,R4*%
D11*
X123580000Y-83080000D02*
X124060000Y-83080000D01*
X123580000Y-93220000D02*
X123580000Y-83080000D01*
X124060000Y-93220000D02*
X123580000Y-93220000D01*
X126940000Y-93220000D02*
X127420000Y-93220000D01*
X127420000Y-83080000D02*
X126940000Y-83080000D01*
X127420000Y-93220000D02*
X127420000Y-83080000D01*
%TO.C,U2*%
X148660000Y-84050001D02*
X153960000Y-84050000D01*
X148660000Y-94330000D02*
X148660000Y-84050001D01*
X150310000Y-94330000D02*
X148660000Y-94330000D01*
X153960000Y-84050000D02*
X153960000Y-94330000D01*
X153960000Y-94330000D02*
X152310000Y-94330000D01*
X150310000Y-94330000D02*
G75*
G02*
X152310000Y-94330000I1000000J0D01*
G01*
%TO.C,D1*%
X136330000Y-88455000D02*
X136330000Y-91545000D01*
X130780000Y-90000000D02*
G75*
G02*
X136330000Y-88455170I2990000J0D01*
G01*
X136330000Y-91544830D02*
G75*
G02*
X130780000Y-90000000I-2560000J1544830D01*
G01*
X136270000Y-90000000D02*
G75*
G02*
X131270000Y-90000000I-2500000J0D01*
G01*
X131270000Y-90000000D02*
G75*
G02*
X136270000Y-90000000I2500000J0D01*
G01*
%TO.C,R3*%
X129580000Y-67930000D02*
X130060000Y-67930000D01*
X129580000Y-78070000D02*
X129580000Y-67930000D01*
X130060000Y-78070000D02*
X129580000Y-78070000D01*
X132940000Y-78070000D02*
X133420000Y-78070000D01*
X133420000Y-67930000D02*
X132940000Y-67930000D01*
X133420000Y-78070000D02*
X133420000Y-67930000D01*
%TO.C,J3*%
D12*
X153000000Y-60737500D02*
X153000000Y-68337500D01*
X153000000Y-68337500D02*
X163000000Y-68337500D01*
X163000000Y-60737500D02*
X153000000Y-60737500D01*
X163000000Y-68337500D02*
X163000000Y-60737500D01*
D13*
X160600000Y-69337500D02*
G75*
G02*
X160400000Y-69337500I-100000J0D01*
G01*
X160400000Y-69337500D02*
G75*
G02*
X160600000Y-69337500I100000J0D01*
G01*
%TO.C,R1*%
D11*
X151430000Y-104580000D02*
X151430000Y-105060000D01*
X151430000Y-108420000D02*
X151430000Y-107940000D01*
X161570000Y-104580000D02*
X151430000Y-104580000D01*
X161570000Y-105060000D02*
X161570000Y-104580000D01*
X161570000Y-107940000D02*
X161570000Y-108420000D01*
X161570000Y-108420000D02*
X151430000Y-108420000D01*
%TD*%
M02*
