%TF.GenerationSoftware,KiCad,Pcbnew,10.0.6*%
%TF.CreationDate,2026-09-12T17:07:30-04:00*%
%TF.ProjectId,Intro to KiCad,496e7472-6f20-4746-9f20-4b694361642e,rev?*%
%TF.SameCoordinates,Original*%
%TF.FileFunction,Copper,L1,Top*%
%TF.FilePolarity,Positive*%
%FSLAX46Y46*%
G04 Gerber Fmt 4.6, Leading zero omitted, Abs format (unit mm)*
G04 Created by KiCad (PCBNEW 10.0.6) date 2026-09-12 17:07:30*
%MOMM*%
%LPD*%
G01*
G04 APERTURE LIST*
G04 Aperture macros list*
%AMRoundRect*
0 Rectangle with rounded corners*
0 $1 Rounding radius*
0 $2 $3 $4 $5 $6 $7 $8 $9 X,Y pos of 4 corners*
0 Add a 4 corners polygon primitive as box body*
4,1,4,$2,$3,$4,$5,$6,$7,$8,$9,$2,$3,0*
0 Add four circle primitives for the rounded corners*
1,1,$1+$1,$2,$3*
1,1,$1+$1,$4,$5*
1,1,$1+$1,$6,$7*
1,1,$1+$1,$8,$9*
0 Add four rect primitives between the rounded corners*
20,1,$1+$1,$2,$3,$4,$5,0*
20,1,$1+$1,$4,$5,$6,$7,0*
20,1,$1+$1,$6,$7,$8,$9,0*
20,1,$1+$1,$8,$9,$2,$3,0*%
G04 Aperture macros list end*
%TA.AperFunction,ComponentPad*%
%ADD10C,2.400000*%
%TD*%
%TA.AperFunction,SMDPad,CuDef*%
%ADD11RoundRect,0.250000X0.250000X0.475000X-0.250000X0.475000X-0.250000X-0.475000X0.250000X-0.475000X0*%
%TD*%
%TA.AperFunction,SMDPad,CuDef*%
%ADD12RoundRect,0.150000X-0.150000X0.825000X-0.150000X-0.825000X0.150000X-0.825000X0.150000X0.825000X0*%
%TD*%
%TA.AperFunction,ComponentPad*%
%ADD13R,1.950000X1.950000*%
%TD*%
%TA.AperFunction,ComponentPad*%
%ADD14C,1.950000*%
%TD*%
%TA.AperFunction,ComponentPad*%
%ADD15RoundRect,0.250000X-0.550000X-0.550000X0.550000X-0.550000X0.550000X0.550000X-0.550000X0.550000X0*%
%TD*%
%TA.AperFunction,ComponentPad*%
%ADD16C,1.600000*%
%TD*%
%TA.AperFunction,ComponentPad*%
%ADD17R,1.800000X1.800000*%
%TD*%
%TA.AperFunction,ComponentPad*%
%ADD18C,1.800000*%
%TD*%
%TA.AperFunction,Conductor*%
%ADD19C,0.500000*%
%TD*%
G04 APERTURE END LIST*
D10*
%TO.P,R2,2*%
%TO.N,GND*%
X130650000Y-106500000D03*
%TO.P,R2,1*%
%TO.N,Net-(U2-VIN+)*%
X143350000Y-106500000D03*
%TD*%
D11*
%TO.P,C1,1*%
%TO.N,+3V3*%
X142450000Y-98500000D03*
%TO.P,C1,2*%
%TO.N,GND*%
X140550000Y-98500000D03*
%TD*%
D12*
%TO.P,U1,1,IP+_1*%
%TO.N,Current+*%
X159405000Y-72025000D03*
%TO.P,U1,2,IP+_2*%
X158135000Y-72025000D03*
%TO.P,U1,3,IP-_3*%
%TO.N,Current-*%
X156865000Y-72025000D03*
%TO.P,U1,4,IP-_4*%
X155595000Y-72025000D03*
%TO.P,U1,5,GND_5*%
%TO.N,GND*%
X155595000Y-76975000D03*
%TO.P,U1,6,~{FAULT}_6*%
%TO.N,unconnected-(U1-~{FAULT}-Pad6)*%
X156865000Y-76975000D03*
%TO.P,U1,7,VIOUT_7*%
%TO.N,Net-(U1-VIOUT)*%
X158135000Y-76975000D03*
%TO.P,U1,8,VCC_8*%
%TO.N,+3V3*%
X159405000Y-76975000D03*
%TD*%
D13*
%TO.P,J1,1,Pin_1_1*%
%TO.N,+3V3*%
X144500000Y-64500000D03*
D14*
%TO.P,J1,2,Pin_2_2*%
%TO.N,GND*%
X139500000Y-64500000D03*
%TD*%
D11*
%TO.P,C2,1*%
%TO.N,+3V3*%
X165500000Y-75500000D03*
%TO.P,C2,2*%
%TO.N,GND*%
X163600000Y-75500000D03*
%TD*%
D10*
%TO.P,R4,1*%
%TO.N,+3V3*%
X125500000Y-94500000D03*
%TO.P,R4,2*%
%TO.N,Net-(D1-A)*%
X125500000Y-81800000D03*
%TD*%
D15*
%TO.P,U2,1,NC_1*%
%TO.N,unconnected-(U2-NC-Pad1)*%
X147500000Y-93000000D03*
D16*
%TO.P,U2,2,VIN-_2*%
%TO.N,Net-(U1-VIOUT)*%
X147500000Y-90460000D03*
%TO.P,U2,3,VIN+_3*%
%TO.N,Net-(U2-VIN+)*%
X147500000Y-87920000D03*
%TO.P,U2,4,VSS_4*%
%TO.N,GND*%
X147500000Y-85380000D03*
%TO.P,U2,5,NC_5*%
%TO.N,unconnected-(U2-NC-Pad5)*%
X155120000Y-85379999D03*
%TO.P,U2,6,OUT_6*%
%TO.N,Net-(D1-K)*%
X155120000Y-87920000D03*
%TO.P,U2,7,VDD_7*%
%TO.N,+3V3*%
X155120000Y-90459999D03*
%TO.P,U2,8,NC_8*%
%TO.N,unconnected-(U2-NC-Pad8)*%
X155120000Y-93000000D03*
%TD*%
D17*
%TO.P,D1,1,K_1*%
%TO.N,Net-(D1-K)*%
X135040000Y-90000000D03*
D18*
%TO.P,D1,2,A_2*%
%TO.N,Net-(D1-A)*%
X132500000Y-90000000D03*
%TD*%
D10*
%TO.P,R3,1*%
%TO.N,Net-(D1-K)*%
X131500000Y-79350000D03*
%TO.P,R3,2*%
%TO.N,+3V3*%
X131500000Y-66650000D03*
%TD*%
D13*
%TO.P,J3,1,Pin_1_1*%
%TO.N,Current+*%
X160500000Y-64837500D03*
D14*
%TO.P,J3,2,Pin_2_2*%
%TO.N,Current-*%
X155500000Y-64837500D03*
%TD*%
D10*
%TO.P,R1,1*%
%TO.N,+3V3*%
X162850000Y-106500000D03*
%TO.P,R1,2*%
%TO.N,Net-(U2-VIN+)*%
X150150000Y-106500000D03*
%TD*%
%TO.N,+3V3*%
D19*
X165500000Y-75500000D02*
X165500000Y-76225000D01*
X159405000Y-76975000D02*
X159405000Y-77614655D01*
X159405000Y-86174999D02*
X155120000Y-90459999D01*
X159405000Y-75848838D02*
X159405000Y-76975000D01*
X147079999Y-98500000D02*
X155120000Y-90459999D01*
X159405000Y-77826948D02*
X159405000Y-86174999D01*
X139175000Y-94500000D02*
X142450000Y-97775000D01*
X164525000Y-76975000D02*
X159405000Y-76975000D01*
X159405000Y-77826948D02*
X159405000Y-77956948D01*
X157306162Y-73750000D02*
X159405000Y-75848838D01*
X162850000Y-106500000D02*
X154850000Y-98500000D01*
X142450000Y-97775000D02*
X142450000Y-98500000D01*
X154087500Y-73750000D02*
X157306162Y-73750000D01*
X142450000Y-98500000D02*
X147079999Y-98500000D01*
X165500000Y-76000000D02*
X164525000Y-76975000D01*
X142012500Y-66650000D02*
X131500000Y-66650000D01*
X125500000Y-94500000D02*
X139175000Y-94500000D01*
X154850000Y-98500000D02*
X147079999Y-98500000D01*
X144500000Y-64162500D02*
X142012500Y-66650000D01*
X165500000Y-75500000D02*
X165500000Y-76000000D01*
X144500000Y-64162500D02*
X154087500Y-73750000D01*
X159405000Y-77614655D02*
X159405000Y-77826948D01*
%TO.N,GND*%
X129550000Y-65842283D02*
X129550000Y-67457717D01*
%TO.N,Net-(D1-A)*%
X125500000Y-81800000D02*
X125500000Y-83000000D01*
X125500000Y-83000000D02*
X132500000Y-90000000D01*
%TO.N,Net-(D1-K)*%
X146528858Y-94550000D02*
X148490000Y-94550000D01*
X131500000Y-86460000D02*
X135040000Y-90000000D01*
X131500000Y-79350000D02*
X131500000Y-86460000D01*
X135040000Y-90000000D02*
X141978858Y-90000000D01*
X141978858Y-90000000D02*
X146528858Y-94550000D01*
X148490000Y-94550000D02*
X155120000Y-87920000D01*
%TO.N,Net-(U2-VIN+)*%
X123550000Y-80992283D02*
X127142283Y-77400000D01*
X143850000Y-106500000D02*
X150150000Y-106500000D01*
X136980000Y-77400000D02*
X147500000Y-87920000D01*
X150150000Y-106500000D02*
X134742283Y-106500000D01*
X134742283Y-106500000D02*
X123550000Y-95307717D01*
X123550000Y-95307717D02*
X123550000Y-80992283D01*
X127142283Y-77400000D02*
X136980000Y-77400000D01*
%TO.N,Net-(U1-VIOUT)*%
X158135000Y-76975000D02*
X158135000Y-79825000D01*
X158135000Y-79825000D02*
X147500000Y-90460000D01*
X158135000Y-76975000D02*
X158135000Y-75993052D01*
%TD*%
%TA.AperFunction,Conductor*%
%TO.N,GND*%
G36*
X179392184Y-49505023D02*
G01*
X179407182Y-49509427D01*
X179465918Y-49547153D01*
X179466946Y-49548339D01*
X179494537Y-49603683D01*
X179496240Y-49611655D01*
X179498973Y-49638478D01*
X179276202Y-79712765D01*
X179001059Y-116856986D01*
X178995774Y-116891892D01*
X178991258Y-116906857D01*
X178953073Y-116965327D01*
X178951936Y-116966298D01*
X178896298Y-116993480D01*
X178888185Y-116995142D01*
X178861201Y-116997647D01*
X120142526Y-116002415D01*
X120107682Y-115996801D01*
X120092756Y-115992142D01*
X120034628Y-115953377D01*
X120034627Y-115953376D01*
X120033588Y-115952135D01*
X120007000Y-115896483D01*
X120005443Y-115888573D01*
X120003140Y-115861807D01*
X120166753Y-108662847D01*
X120797867Y-80893860D01*
X122299500Y-80893860D01*
X122299500Y-95406144D01*
X122314972Y-95503829D01*
X122330290Y-95600543D01*
X122358341Y-95686874D01*
X122391116Y-95787745D01*
X122391119Y-95787753D01*
X122469789Y-95942147D01*
X122469790Y-95942149D01*
X122480474Y-95963118D01*
X122480478Y-95963126D01*
X122523502Y-96022342D01*
X122596172Y-96122363D01*
X122596174Y-96122365D01*
X131080831Y-104607022D01*
X131101980Y-104635272D01*
X131107401Y-104645199D01*
X131122255Y-104713472D01*
X131097841Y-104778937D01*
X131041909Y-104820810D01*
X131041868Y-104820826D01*
X131039297Y-104821784D01*
X130988277Y-104829347D01*
X130985040Y-104829145D01*
X130976578Y-104828325D01*
X130761435Y-104800001D01*
X130761430Y-104800000D01*
X130761425Y-104800000D01*
X130761418Y-104800000D01*
X130538574Y-104800000D01*
X130317654Y-104829083D01*
X130317641Y-104829086D01*
X130317616Y-104829091D01*
X130102387Y-104886761D01*
X130102383Y-104886762D01*
X130102381Y-104886763D01*
X130102379Y-104886764D01*
X129896490Y-104972047D01*
X129896471Y-104972058D01*
X129703508Y-105083463D01*
X129637595Y-105134040D01*
X129637595Y-105134043D01*
X130320645Y-105817092D01*
X130354130Y-105878415D01*
X130349146Y-105948106D01*
X130307274Y-106004040D01*
X130294967Y-106012159D01*
X130281592Y-106019881D01*
X130281589Y-106019883D01*
X130169883Y-106131589D01*
X130169881Y-106131592D01*
X130162159Y-106144967D01*
X130111590Y-106193181D01*
X130042983Y-106206402D01*
X129978119Y-106180433D01*
X129967092Y-106170645D01*
X129284043Y-105487595D01*
X129284040Y-105487595D01*
X129233463Y-105553508D01*
X129122058Y-105746471D01*
X129122047Y-105746490D01*
X129036764Y-105952379D01*
X129036761Y-105952387D01*
X128979091Y-106167616D01*
X128979086Y-106167641D01*
X128979083Y-106167654D01*
X128950000Y-106388574D01*
X128950000Y-106611424D01*
X128979083Y-106832344D01*
X128979086Y-106832357D01*
X128979091Y-106832382D01*
X129022921Y-106995959D01*
X129036763Y-107047618D01*
X129083403Y-107160216D01*
X129122047Y-107253508D01*
X129122058Y-107253527D01*
X129233466Y-107446494D01*
X129233478Y-107446511D01*
X129284039Y-107512402D01*
X129284040Y-107512403D01*
X129284043Y-107512403D01*
X129967094Y-106829351D01*
X130028415Y-106795868D01*
X130098106Y-106800852D01*
X130154040Y-106842723D01*
X130162157Y-106855031D01*
X130169881Y-106868408D01*
X130281592Y-106980119D01*
X130294964Y-106987839D01*
X130343179Y-107038407D01*
X130356401Y-107107014D01*
X130330433Y-107171879D01*
X130320644Y-107182907D01*
X129637595Y-107865954D01*
X129637595Y-107865957D01*
X129703505Y-107916532D01*
X129703507Y-107916533D01*
X129896485Y-108027949D01*
X129896497Y-108027954D01*
X130102381Y-108113236D01*
X130248557Y-108152403D01*
X130317616Y-108170907D01*
X130317620Y-108170907D01*
X130317632Y-108170911D01*
X130317645Y-108170914D01*
X130538575Y-108200000D01*
X130761418Y-108200000D01*
X130761425Y-108200000D01*
X130982354Y-108170914D01*
X130982367Y-108170911D01*
X131197618Y-108113236D01*
X131403502Y-108027954D01*
X131403514Y-108027949D01*
X131596498Y-107916530D01*
X131662403Y-107865957D01*
X131662404Y-107865956D01*
X131662403Y-107865955D01*
X131662404Y-107865955D01*
X130979354Y-107182907D01*
X130945869Y-107121584D01*
X130950853Y-107051893D01*
X130992724Y-106995959D01*
X131005022Y-106987846D01*
X131018408Y-106980119D01*
X131130119Y-106868408D01*
X131137839Y-106855035D01*
X131188402Y-106806821D01*
X131257009Y-106793596D01*
X131321875Y-106819562D01*
X131332907Y-106829354D01*
X132015955Y-107512404D01*
X132015955Y-107512403D01*
X132015956Y-107512404D01*
X132015957Y-107512403D01*
X132066530Y-107446498D01*
X132177949Y-107253514D01*
X132177954Y-107253502D01*
X132263236Y-107047618D01*
X132320911Y-106832367D01*
X132320914Y-106832354D01*
X132350000Y-106611424D01*
X132350000Y-106388575D01*
X132322839Y-106182272D01*
X132322271Y-106155060D01*
X132323667Y-106139430D01*
X132349237Y-106074407D01*
X132405902Y-106033531D01*
X132475669Y-106029780D01*
X132477954Y-106030319D01*
X132537125Y-106063316D01*
X133788454Y-107314645D01*
X133788455Y-107314646D01*
X133927637Y-107453828D01*
X134086878Y-107569524D01*
X134262258Y-107658884D01*
X134262262Y-107658886D01*
X134346506Y-107686258D01*
X134384002Y-107698440D01*
X134393125Y-107701806D01*
X134400791Y-107704981D01*
X134407308Y-107706014D01*
X134424516Y-107711605D01*
X134449456Y-107719709D01*
X134497175Y-107727266D01*
X134522198Y-107731230D01*
X134522297Y-107731245D01*
X134522359Y-107731255D01*
X134643861Y-107750500D01*
X134643866Y-107750500D01*
X134840699Y-107750500D01*
X141456892Y-107750500D01*
X141491824Y-107755521D01*
X141514020Y-107762039D01*
X141563043Y-107789764D01*
X141565210Y-107791757D01*
X141579626Y-107807522D01*
X141692017Y-107953994D01*
X141692021Y-107953999D01*
X141692024Y-107954002D01*
X141692030Y-107954009D01*
X141895990Y-108157969D01*
X141895997Y-108157975D01*
X141896000Y-108157977D01*
X141896004Y-108157981D01*
X141950765Y-108200000D01*
X142124851Y-108333580D01*
X142125077Y-108333710D01*
X142243069Y-108401833D01*
X142374647Y-108477800D01*
X142374663Y-108477808D01*
X142507572Y-108532860D01*
X142637097Y-108586511D01*
X142638915Y-108587341D01*
X142639400Y-108587525D01*
X142640970Y-108588148D01*
X142642254Y-108588504D01*
X142645412Y-108589408D01*
X142646913Y-108589734D01*
X142677606Y-108597958D01*
X142919783Y-108662849D01*
X143205772Y-108700500D01*
X143205779Y-108700500D01*
X143494221Y-108700500D01*
X143494228Y-108700500D01*
X143780217Y-108662849D01*
X144054998Y-108589221D01*
X144058209Y-108588473D01*
X144060595Y-108587527D01*
X144061074Y-108587345D01*
X144062901Y-108586511D01*
X144321302Y-108479478D01*
X144323162Y-108478784D01*
X144323622Y-108478578D01*
X144325412Y-108477804D01*
X144327048Y-108476895D01*
X144328770Y-108475826D01*
X144575156Y-108333575D01*
X144804004Y-108157974D01*
X145007974Y-107954004D01*
X145116051Y-107813154D01*
X145141296Y-107788503D01*
X145159980Y-107774860D01*
X145211817Y-107752847D01*
X145214721Y-107752341D01*
X145236006Y-107750500D01*
X148256892Y-107750500D01*
X148291824Y-107755521D01*
X148314020Y-107762039D01*
X148363043Y-107789764D01*
X148365210Y-107791757D01*
X148379626Y-107807522D01*
X148492017Y-107953994D01*
X148492021Y-107953999D01*
X148492024Y-107954002D01*
X148492030Y-107954009D01*
X148695990Y-108157969D01*
X148695997Y-108157975D01*
X148696000Y-108157977D01*
X148696004Y-108157981D01*
X148750765Y-108200000D01*
X148924851Y-108333580D01*
X148925077Y-108333710D01*
X149043069Y-108401833D01*
X149174647Y-108477800D01*
X149174663Y-108477808D01*
X149307572Y-108532860D01*
X149437097Y-108586511D01*
X149438915Y-108587341D01*
X149439400Y-108587525D01*
X149440970Y-108588148D01*
X149442254Y-108588504D01*
X149445412Y-108589408D01*
X149446913Y-108589734D01*
X149477606Y-108597958D01*
X149719783Y-108662849D01*
X150005772Y-108700500D01*
X150005779Y-108700500D01*
X150294221Y-108700500D01*
X150294228Y-108700500D01*
X150580217Y-108662849D01*
X150854998Y-108589221D01*
X150858209Y-108588473D01*
X150860595Y-108587527D01*
X150861074Y-108587345D01*
X150862901Y-108586511D01*
X151121302Y-108479478D01*
X151123162Y-108478784D01*
X151123622Y-108478578D01*
X151125412Y-108477804D01*
X151127048Y-108476895D01*
X151128770Y-108475826D01*
X151375156Y-108333575D01*
X151604004Y-108157974D01*
X151807974Y-107954004D01*
X151983575Y-107725156D01*
X152127804Y-107475345D01*
X152139751Y-107446504D01*
X152139754Y-107446498D01*
X152194368Y-107314645D01*
X152236511Y-107212901D01*
X152237342Y-107211081D01*
X152237524Y-107210602D01*
X152238474Y-107208204D01*
X152239221Y-107204998D01*
X152312849Y-106930217D01*
X152350500Y-106644228D01*
X152350500Y-106355772D01*
X152312849Y-106069783D01*
X152239734Y-105796913D01*
X152239408Y-105795412D01*
X152238504Y-105792254D01*
X152238148Y-105790970D01*
X152237525Y-105789400D01*
X152237341Y-105788915D01*
X152236511Y-105787097D01*
X152127809Y-105524666D01*
X152127803Y-105524653D01*
X152127800Y-105524648D01*
X152127800Y-105524647D01*
X152051833Y-105393069D01*
X151983710Y-105275077D01*
X151983580Y-105274851D01*
X151983580Y-105274850D01*
X151807977Y-105046000D01*
X151807971Y-105045992D01*
X151807956Y-105045976D01*
X151604017Y-104842038D01*
X151604009Y-104842030D01*
X151604002Y-104842024D01*
X151603999Y-104842021D01*
X151603994Y-104842017D01*
X151376754Y-104667651D01*
X151375479Y-104666639D01*
X151375154Y-104666423D01*
X151125350Y-104522198D01*
X151125345Y-104522195D01*
X151125332Y-104522189D01*
X150858869Y-104411817D01*
X150858851Y-104411810D01*
X150858840Y-104411807D01*
X150580221Y-104337152D01*
X150580219Y-104337151D01*
X150580217Y-104337151D01*
X150580211Y-104337150D01*
X150580206Y-104337149D01*
X150580201Y-104337148D01*
X150298328Y-104300039D01*
X150296312Y-104299705D01*
X150294238Y-104299500D01*
X150294233Y-104299500D01*
X150294228Y-104299500D01*
X150005772Y-104299500D01*
X150005766Y-104299500D01*
X150005761Y-104299500D01*
X150003684Y-104299705D01*
X150001670Y-104300039D01*
X149719814Y-104337146D01*
X149719782Y-104337150D01*
X149717973Y-104337577D01*
X149716197Y-104338111D01*
X149441150Y-104411810D01*
X149441130Y-104411817D01*
X149174656Y-104522193D01*
X149174653Y-104522195D01*
X149174648Y-104522198D01*
X148924855Y-104666417D01*
X148924838Y-104666429D01*
X148924824Y-104666439D01*
X148696004Y-104842017D01*
X148695989Y-104842031D01*
X148695981Y-104842038D01*
X148492038Y-105045981D01*
X148492031Y-105045989D01*
X148492022Y-105045999D01*
X148492009Y-105046016D01*
X148383950Y-105186842D01*
X148358696Y-105211502D01*
X148340019Y-105225139D01*
X148288230Y-105247144D01*
X148285327Y-105247651D01*
X148263994Y-105249500D01*
X145243108Y-105249500D01*
X145208172Y-105244477D01*
X145185978Y-105237960D01*
X145136978Y-105210255D01*
X145134798Y-105208250D01*
X145120377Y-105192482D01*
X145007990Y-105046016D01*
X145007981Y-105046004D01*
X145007977Y-105046000D01*
X145007975Y-105045997D01*
X145007969Y-105045990D01*
X144804009Y-104842030D01*
X144804002Y-104842024D01*
X144803999Y-104842021D01*
X144803994Y-104842017D01*
X144576754Y-104667651D01*
X144575479Y-104666639D01*
X144575154Y-104666423D01*
X144325350Y-104522198D01*
X144325345Y-104522195D01*
X144325332Y-104522189D01*
X144058869Y-104411817D01*
X144058851Y-104411810D01*
X144058840Y-104411807D01*
X143780221Y-104337152D01*
X143780219Y-104337151D01*
X143780217Y-104337151D01*
X143780211Y-104337150D01*
X143780206Y-104337149D01*
X143780201Y-104337148D01*
X143498328Y-104300039D01*
X143496312Y-104299705D01*
X143494238Y-104299500D01*
X143494233Y-104299500D01*
X143494228Y-104299500D01*
X143205772Y-104299500D01*
X143205766Y-104299500D01*
X143205761Y-104299500D01*
X143203684Y-104299705D01*
X143201670Y-104300039D01*
X142919814Y-104337146D01*
X142919782Y-104337150D01*
X142917973Y-104337577D01*
X142916197Y-104338111D01*
X142641150Y-104411810D01*
X142641130Y-104411817D01*
X142374656Y-104522193D01*
X142374653Y-104522195D01*
X142374648Y-104522198D01*
X142124855Y-104666417D01*
X142124838Y-104666429D01*
X142124824Y-104666439D01*
X141896004Y-104842017D01*
X141895989Y-104842031D01*
X141895981Y-104842038D01*
X141692038Y-105045981D01*
X141692031Y-105045989D01*
X141692022Y-105045999D01*
X141692009Y-105046016D01*
X141583950Y-105186842D01*
X141558696Y-105211502D01*
X141540019Y-105225139D01*
X141488230Y-105247144D01*
X141485327Y-105247651D01*
X141463994Y-105249500D01*
X135329449Y-105249500D01*
X135294513Y-105244477D01*
X135269271Y-105237065D01*
X135216526Y-105205769D01*
X129035752Y-99024995D01*
X139550001Y-99024995D01*
X139560493Y-99127694D01*
X139560493Y-99127695D01*
X139560494Y-99127697D01*
X139615641Y-99294119D01*
X139615643Y-99294124D01*
X139707684Y-99443345D01*
X139831654Y-99567315D01*
X139980875Y-99659356D01*
X139980880Y-99659358D01*
X140147299Y-99714504D01*
X140147300Y-99714504D01*
X140147302Y-99714505D01*
X140147309Y-99714506D01*
X140250019Y-99724999D01*
X140299999Y-99724998D01*
X140300000Y-99724998D01*
X140300000Y-98750000D01*
X139550001Y-98750000D01*
X139550001Y-99024995D01*
X129035752Y-99024995D01*
X126610598Y-96599841D01*
X126589449Y-96571591D01*
X126582794Y-96559403D01*
X126567943Y-96491133D01*
X126592357Y-96425672D01*
X126597464Y-96418850D01*
X126634722Y-96385786D01*
X126725156Y-96333575D01*
X126725158Y-96333574D01*
X126839580Y-96245774D01*
X126954004Y-96157974D01*
X127157974Y-95954004D01*
X127266051Y-95813154D01*
X127291296Y-95788503D01*
X127309980Y-95774860D01*
X127361817Y-95752847D01*
X127364721Y-95752341D01*
X127386006Y-95750500D01*
X138587834Y-95750500D01*
X138622766Y-95755521D01*
X138648010Y-95762934D01*
X138700756Y-95794230D01*
X140026130Y-97119604D01*
X140047281Y-97147857D01*
X140053933Y-97160039D01*
X140068785Y-97228312D01*
X140044369Y-97293777D01*
X140044364Y-97293783D01*
X140042249Y-97296608D01*
X140000360Y-97332220D01*
X139998923Y-97332970D01*
X139983305Y-97339584D01*
X139983351Y-97339703D01*
X139980891Y-97340635D01*
X139980873Y-97340643D01*
X139980870Y-97340644D01*
X139831657Y-97432681D01*
X139831653Y-97432684D01*
X139707685Y-97556652D01*
X139615641Y-97705879D01*
X139615638Y-97705888D01*
X139560494Y-97872299D01*
X139560493Y-97872304D01*
X139550000Y-97975007D01*
X139550000Y-97975013D01*
X139550000Y-98250000D01*
X140408170Y-98250000D01*
X140443106Y-98255023D01*
X140458104Y-98259427D01*
X140516855Y-98297172D01*
X140518042Y-98298541D01*
X140545518Y-98353402D01*
X140547163Y-98360960D01*
X140550000Y-98387331D01*
X140550000Y-98500000D01*
X140658170Y-98500000D01*
X140693106Y-98505023D01*
X140708104Y-98509427D01*
X140766855Y-98547172D01*
X140768042Y-98548541D01*
X140795518Y-98603402D01*
X140797163Y-98610960D01*
X140800000Y-98637331D01*
X140800000Y-99724999D01*
X140849960Y-99724999D01*
X140849972Y-99724999D01*
X140849986Y-99724998D01*
X140952697Y-99714505D01*
X141041534Y-99685067D01*
X141076267Y-99678847D01*
X141091895Y-99678309D01*
X141159566Y-99695674D01*
X141167770Y-99700556D01*
X141206278Y-99736493D01*
X141236180Y-99779653D01*
X141236181Y-99779654D01*
X141395346Y-99938819D01*
X141395350Y-99938822D01*
X141395354Y-99938825D01*
X141534603Y-100035297D01*
X141580374Y-100067007D01*
X141785317Y-100160096D01*
X141785321Y-100160097D01*
X141785323Y-100160097D01*
X141785397Y-100160123D01*
X141785532Y-100160150D01*
X141917777Y-100193473D01*
X142001716Y-100214625D01*
X142003768Y-100215176D01*
X142005649Y-100215366D01*
X142008406Y-100215475D01*
X142135783Y-100225500D01*
X142764216Y-100225499D01*
X142896412Y-100215096D01*
X143114683Y-100160096D01*
X143319626Y-100067007D01*
X143504654Y-99938819D01*
X143644052Y-99799420D01*
X143672304Y-99778273D01*
X143695394Y-99765666D01*
X143754817Y-99750500D01*
X154262834Y-99750500D01*
X154297766Y-99755521D01*
X154323010Y-99762934D01*
X154375756Y-99794230D01*
X160627133Y-106045607D01*
X160648285Y-106073862D01*
X160659370Y-106094163D01*
X160674428Y-106148402D01*
X160674551Y-106151340D01*
X160673599Y-106172712D01*
X160649500Y-106355770D01*
X160649500Y-106644215D01*
X160649501Y-106644244D01*
X160687148Y-106930201D01*
X160687152Y-106930221D01*
X160721688Y-107059111D01*
X160761810Y-107208848D01*
X160761817Y-107208868D01*
X160872193Y-107475342D01*
X160872195Y-107475345D01*
X160872198Y-107475350D01*
X161000996Y-107698434D01*
X161016420Y-107725148D01*
X161016431Y-107725164D01*
X161041482Y-107757811D01*
X161192017Y-107953994D01*
X161192021Y-107953999D01*
X161192024Y-107954002D01*
X161192030Y-107954009D01*
X161395990Y-108157969D01*
X161395997Y-108157975D01*
X161396000Y-108157977D01*
X161396004Y-108157981D01*
X161450765Y-108200000D01*
X161624851Y-108333580D01*
X161625077Y-108333710D01*
X161743069Y-108401833D01*
X161874647Y-108477800D01*
X161874663Y-108477808D01*
X162007572Y-108532860D01*
X162137097Y-108586511D01*
X162138915Y-108587341D01*
X162139400Y-108587525D01*
X162140970Y-108588148D01*
X162142254Y-108588504D01*
X162145412Y-108589408D01*
X162146913Y-108589734D01*
X162177606Y-108597958D01*
X162419783Y-108662849D01*
X162705772Y-108700500D01*
X162705779Y-108700500D01*
X162994221Y-108700500D01*
X162994228Y-108700500D01*
X163280217Y-108662849D01*
X163554998Y-108589221D01*
X163558209Y-108588473D01*
X163560595Y-108587527D01*
X163561074Y-108587345D01*
X163562901Y-108586511D01*
X163821302Y-108479478D01*
X163823162Y-108478784D01*
X163823622Y-108478578D01*
X163825412Y-108477804D01*
X163827048Y-108476895D01*
X163828770Y-108475826D01*
X164075156Y-108333575D01*
X164304004Y-108157974D01*
X164507974Y-107954004D01*
X164683575Y-107725156D01*
X164827804Y-107475345D01*
X164839751Y-107446504D01*
X164839754Y-107446498D01*
X164894368Y-107314645D01*
X164936511Y-107212901D01*
X164937342Y-107211081D01*
X164937524Y-107210602D01*
X164938474Y-107208204D01*
X164939221Y-107204998D01*
X165012849Y-106930217D01*
X165050500Y-106644228D01*
X165050500Y-106355772D01*
X165012849Y-106069783D01*
X164939734Y-105796913D01*
X164939408Y-105795412D01*
X164938504Y-105792254D01*
X164938148Y-105790970D01*
X164937525Y-105789400D01*
X164937341Y-105788915D01*
X164936511Y-105787097D01*
X164827809Y-105524666D01*
X164827803Y-105524653D01*
X164827800Y-105524648D01*
X164827800Y-105524647D01*
X164751833Y-105393069D01*
X164683710Y-105275077D01*
X164683580Y-105274851D01*
X164683580Y-105274850D01*
X164507977Y-105046000D01*
X164507971Y-105045992D01*
X164507956Y-105045976D01*
X164304017Y-104842038D01*
X164304009Y-104842030D01*
X164304002Y-104842024D01*
X164303999Y-104842021D01*
X164303994Y-104842017D01*
X164076754Y-104667651D01*
X164075479Y-104666639D01*
X164075154Y-104666423D01*
X163825350Y-104522198D01*
X163825345Y-104522195D01*
X163825332Y-104522189D01*
X163558869Y-104411817D01*
X163558851Y-104411810D01*
X163558840Y-104411807D01*
X163280221Y-104337152D01*
X163280219Y-104337151D01*
X163280217Y-104337151D01*
X163280211Y-104337150D01*
X163280206Y-104337149D01*
X163280201Y-104337148D01*
X162998328Y-104300039D01*
X162996312Y-104299705D01*
X162994238Y-104299500D01*
X162994233Y-104299500D01*
X162994228Y-104299500D01*
X162705772Y-104299500D01*
X162705771Y-104299500D01*
X162705769Y-104299500D01*
X162529756Y-104322671D01*
X162494468Y-104322252D01*
X162484935Y-104320765D01*
X162471615Y-104318688D01*
X162419397Y-104297603D01*
X162416985Y-104295907D01*
X162400628Y-104282154D01*
X155664648Y-97546174D01*
X155664646Y-97546172D01*
X155505405Y-97430476D01*
X155330030Y-97341117D01*
X155142826Y-97280290D01*
X155142824Y-97280289D01*
X155142822Y-97280289D01*
X154948427Y-97249500D01*
X154948422Y-97249500D01*
X154948417Y-97249500D01*
X150416165Y-97249500D01*
X150381230Y-97244477D01*
X150370376Y-97241290D01*
X150311598Y-97203516D01*
X150282573Y-97139960D01*
X150292513Y-97070811D01*
X150295703Y-97063824D01*
X150320812Y-97027660D01*
X151014899Y-96333574D01*
X153392673Y-93955797D01*
X153420923Y-93934650D01*
X153433106Y-93927997D01*
X153501380Y-93913147D01*
X153566841Y-93937564D01*
X153573650Y-93942661D01*
X153606719Y-93979921D01*
X153617873Y-93999239D01*
X153618908Y-94001162D01*
X153619521Y-94002182D01*
X153763399Y-94189689D01*
X153763403Y-94189694D01*
X153763406Y-94189697D01*
X153763412Y-94189704D01*
X153763420Y-94189712D01*
X153930281Y-94356574D01*
X153930297Y-94356589D01*
X153930305Y-94356595D01*
X154117548Y-94500272D01*
X154117550Y-94500273D01*
X154248918Y-94576118D01*
X154318516Y-94616301D01*
X154320255Y-94617382D01*
X154321708Y-94618189D01*
X154322447Y-94618489D01*
X154540007Y-94708606D01*
X154767986Y-94769693D01*
X155001989Y-94800500D01*
X155001996Y-94800500D01*
X155238004Y-94800500D01*
X155238011Y-94800500D01*
X155472014Y-94769693D01*
X155699993Y-94708606D01*
X155918049Y-94618284D01*
X156122450Y-94500273D01*
X156309699Y-94356592D01*
X156476592Y-94189699D01*
X156620273Y-94002450D01*
X156738284Y-93798049D01*
X156828606Y-93579993D01*
X156889693Y-93352014D01*
X156920500Y-93118011D01*
X156920500Y-92881989D01*
X156889693Y-92647986D01*
X156828606Y-92420007D01*
X156738481Y-92202427D01*
X156738189Y-92201710D01*
X156737374Y-92200241D01*
X156736294Y-92198503D01*
X156642590Y-92036204D01*
X156642590Y-92036203D01*
X156620276Y-91997554D01*
X156620275Y-91997552D01*
X156545805Y-91900501D01*
X156545802Y-91900498D01*
X156537658Y-91889885D01*
X156486461Y-91823162D01*
X156472356Y-91799869D01*
X156463792Y-91781411D01*
X156453432Y-91712320D01*
X156454264Y-91706274D01*
X156472794Y-91656148D01*
X156474623Y-91653304D01*
X156474622Y-91653303D01*
X156475951Y-91651236D01*
X156481875Y-91642812D01*
X156527312Y-91583599D01*
X156534798Y-91573843D01*
X156589000Y-91503205D01*
X156620273Y-91462449D01*
X156738284Y-91258048D01*
X156828606Y-91039992D01*
X156889693Y-90812013D01*
X156920500Y-90578010D01*
X156920500Y-90497164D01*
X156925522Y-90462231D01*
X156932934Y-90436986D01*
X156964228Y-90384244D01*
X158630428Y-88718045D01*
X160358828Y-86989645D01*
X160474524Y-86830404D01*
X160563884Y-86655025D01*
X160624709Y-86467825D01*
X160655500Y-86273421D01*
X160655500Y-78367329D01*
X160660523Y-78332393D01*
X160664927Y-78317395D01*
X160702672Y-78258644D01*
X160704041Y-78257457D01*
X160758920Y-78229977D01*
X160766479Y-78228333D01*
X160792832Y-78225500D01*
X164623421Y-78225500D01*
X164623422Y-78225500D01*
X164817826Y-78194709D01*
X165005026Y-78133884D01*
X165180405Y-78044524D01*
X165339646Y-77928828D01*
X165807235Y-77461236D01*
X165830111Y-77443202D01*
X165854462Y-77428281D01*
X165880920Y-77416084D01*
X165971223Y-77386744D01*
X165971680Y-77386632D01*
X165979725Y-77383982D01*
X165979885Y-77383929D01*
X165980019Y-77383886D01*
X165980019Y-77383885D01*
X165980022Y-77383884D01*
X165980025Y-77383884D01*
X165980026Y-77383882D01*
X165980213Y-77383822D01*
X165997293Y-77378272D01*
X166006541Y-77370373D01*
X166155405Y-77294524D01*
X166314646Y-77178828D01*
X166453828Y-77039646D01*
X166480615Y-77002775D01*
X166494230Y-76987014D01*
X166508983Y-76972588D01*
X166525056Y-76959323D01*
X166540724Y-76948469D01*
X166549634Y-76942296D01*
X166551955Y-76940853D01*
X166552637Y-76940339D01*
X166554444Y-76939032D01*
X166554838Y-76938635D01*
X166713819Y-76779654D01*
X166842007Y-76594626D01*
X166935096Y-76389683D01*
X166935096Y-76389681D01*
X166935098Y-76389678D01*
X166990094Y-76171420D01*
X166990094Y-76171419D01*
X166990096Y-76171412D01*
X167000500Y-76039217D01*
X167000499Y-74960784D01*
X166990096Y-74828588D01*
X166970167Y-74749500D01*
X166970167Y-74749497D01*
X166937950Y-74621645D01*
X166935097Y-74610321D01*
X166935096Y-74610318D01*
X166854411Y-74432684D01*
X166842007Y-74405374D01*
X166751684Y-74275001D01*
X166713825Y-74220354D01*
X166713822Y-74220350D01*
X166713819Y-74220346D01*
X166713818Y-74220345D01*
X166713816Y-74220342D01*
X166554659Y-74061185D01*
X166554655Y-74061182D01*
X166554644Y-74061173D01*
X166501108Y-74024084D01*
X166370560Y-73933640D01*
X166369691Y-73933025D01*
X166369625Y-73932992D01*
X166207620Y-73859407D01*
X166164685Y-73839904D01*
X166164668Y-73839899D01*
X165946429Y-73784906D01*
X165946418Y-73784904D01*
X165946414Y-73784903D01*
X165902348Y-73781436D01*
X165902347Y-73781436D01*
X165814222Y-73774500D01*
X165814217Y-73774500D01*
X165814215Y-73774500D01*
X165185791Y-73774500D01*
X165185787Y-73774500D01*
X165053584Y-73784903D01*
X165053580Y-73784904D01*
X165053569Y-73784906D01*
X164835330Y-73839899D01*
X164835309Y-73839906D01*
X164630384Y-73932986D01*
X164630374Y-73932992D01*
X164630368Y-73932995D01*
X164630362Y-73932999D01*
X164445359Y-74061169D01*
X164445354Y-74061174D01*
X164445351Y-74061176D01*
X164286184Y-74220341D01*
X164286181Y-74220346D01*
X164260394Y-74257567D01*
X164259543Y-74258795D01*
X164235517Y-74284652D01*
X164223352Y-74294475D01*
X164158828Y-74321276D01*
X164158827Y-74321276D01*
X164149353Y-74322304D01*
X164096973Y-74316734D01*
X164029799Y-74294475D01*
X164002697Y-74285494D01*
X164002695Y-74285493D01*
X164002694Y-74285493D01*
X163899991Y-74275000D01*
X163899986Y-74275000D01*
X163850000Y-74275000D01*
X163850000Y-75358170D01*
X163844975Y-75393114D01*
X163840570Y-75408112D01*
X163802827Y-75466855D01*
X163801458Y-75468042D01*
X163746597Y-75495518D01*
X163739039Y-75497163D01*
X163712668Y-75500000D01*
X163600000Y-75500000D01*
X163600000Y-75582670D01*
X163594975Y-75617614D01*
X163590570Y-75632612D01*
X163552827Y-75691355D01*
X163551458Y-75692542D01*
X163496597Y-75720018D01*
X163489039Y-75721663D01*
X163462668Y-75724500D01*
X162366920Y-75724500D01*
X162299881Y-75704815D01*
X162254126Y-75652011D01*
X162244182Y-75582853D01*
X162273207Y-75519297D01*
X162331985Y-75481523D01*
X162343953Y-75478645D01*
X162420637Y-75464192D01*
X162487637Y-75444371D01*
X162642883Y-75384059D01*
X162815816Y-75276887D01*
X162815817Y-75276885D01*
X162815820Y-75276884D01*
X162817299Y-75275746D01*
X162818258Y-75275373D01*
X162821162Y-75273574D01*
X162821497Y-75274115D01*
X162882428Y-75250447D01*
X162892944Y-75250000D01*
X163350000Y-75250000D01*
X163350000Y-74658870D01*
X163367222Y-74600215D01*
X163365467Y-74599290D01*
X163368303Y-74593908D01*
X163368308Y-74593901D01*
X163445083Y-74405494D01*
X163464768Y-74338455D01*
X163484917Y-74257571D01*
X163504888Y-74061181D01*
X163505500Y-74055166D01*
X163505500Y-61624010D01*
X163505433Y-61612420D01*
X163505433Y-61612412D01*
X163482519Y-61410257D01*
X163471313Y-61358746D01*
X163446784Y-61267062D01*
X163365692Y-61080473D01*
X163365691Y-61080471D01*
X163365689Y-61080468D01*
X163248705Y-60914033D01*
X163248704Y-60914032D01*
X163248700Y-60914026D01*
X163202945Y-60861222D01*
X163083832Y-60744821D01*
X163083830Y-60744819D01*
X162914738Y-60631693D01*
X162914731Y-60631690D01*
X162726328Y-60554916D01*
X162726322Y-60554914D01*
X162659293Y-60535233D01*
X162659295Y-60535233D01*
X162659290Y-60535232D01*
X162578406Y-60515083D01*
X162578402Y-60515082D01*
X162578403Y-60515082D01*
X162376001Y-60494500D01*
X162376000Y-60494500D01*
X157624000Y-60494500D01*
X157623347Y-60494503D01*
X157612420Y-60494566D01*
X157612406Y-60494567D01*
X157410254Y-60517481D01*
X157358753Y-60528685D01*
X157267058Y-60553217D01*
X157080476Y-60634306D01*
X157080473Y-60634307D01*
X157080473Y-60634308D01*
X157068446Y-60642761D01*
X157002280Y-60665206D01*
X156934483Y-60648315D01*
X156928192Y-60644374D01*
X156909238Y-60631693D01*
X156909231Y-60631690D01*
X156720828Y-60554916D01*
X156720822Y-60554914D01*
X156653793Y-60535233D01*
X156653795Y-60535233D01*
X156653790Y-60535232D01*
X156572906Y-60515083D01*
X156572902Y-60515082D01*
X156572903Y-60515082D01*
X156370501Y-60494500D01*
X156370500Y-60494500D01*
X153637332Y-60494500D01*
X153637329Y-60494500D01*
X153529863Y-60500259D01*
X153503503Y-60503093D01*
X153429507Y-60515082D01*
X153397289Y-60520302D01*
X153397285Y-60520302D01*
X153397278Y-60520304D01*
X153389729Y-60521946D01*
X153369134Y-60526939D01*
X153343415Y-60533175D01*
X153343412Y-60533175D01*
X153343408Y-60533177D01*
X153343404Y-60533178D01*
X153153223Y-60605392D01*
X153153219Y-60605394D01*
X153098347Y-60632870D01*
X153056253Y-60655211D01*
X153056240Y-60655219D01*
X152889836Y-60772260D01*
X152889824Y-60772269D01*
X152888488Y-60773427D01*
X152827934Y-60830487D01*
X152701213Y-60989651D01*
X152701206Y-60989660D01*
X152663470Y-61048397D01*
X152621435Y-61120193D01*
X152621432Y-61120200D01*
X152544663Y-61308590D01*
X152540256Y-61323600D01*
X152509757Y-61463794D01*
X152504734Y-61498732D01*
X152494500Y-61641826D01*
X152494500Y-70089164D01*
X152474815Y-70156203D01*
X152422011Y-70201958D01*
X152352853Y-70211902D01*
X152289297Y-70182877D01*
X152282819Y-70176845D01*
X146524425Y-64418451D01*
X146503273Y-64390195D01*
X146490666Y-64367106D01*
X146475499Y-64307681D01*
X146475499Y-63466971D01*
X146475499Y-63466964D01*
X146464886Y-63347582D01*
X146408909Y-63151951D01*
X146314698Y-62971593D01*
X146252896Y-62895799D01*
X146186109Y-62813890D01*
X146186107Y-62813888D01*
X146186106Y-62813887D01*
X146092807Y-62737813D01*
X146080704Y-62720167D01*
X146028404Y-62685300D01*
X145852019Y-62593165D01*
X145848836Y-62591353D01*
X145848042Y-62591088D01*
X145730829Y-62557550D01*
X145654981Y-62535847D01*
X145652825Y-62535179D01*
X145650347Y-62534777D01*
X145646936Y-62534626D01*
X145637628Y-62533798D01*
X145586102Y-62529217D01*
X145586101Y-62529216D01*
X145533039Y-62524500D01*
X145533037Y-62524500D01*
X145533032Y-62524500D01*
X143466971Y-62524500D01*
X143466965Y-62524500D01*
X143454897Y-62524500D01*
X143448042Y-62526182D01*
X143347582Y-62535113D01*
X143151952Y-62591089D01*
X143061771Y-62638194D01*
X143061772Y-62638195D01*
X142972578Y-62684787D01*
X142971646Y-62685263D01*
X142969242Y-62686996D01*
X142966716Y-62689278D01*
X142813887Y-62813892D01*
X142685306Y-62971586D01*
X142591088Y-63151955D01*
X142535848Y-63345016D01*
X142535236Y-63346992D01*
X142535113Y-63347581D01*
X142524500Y-63466967D01*
X142524500Y-64300333D01*
X142519476Y-64335270D01*
X142512064Y-64360511D01*
X142480769Y-64413255D01*
X141543452Y-65350573D01*
X141515201Y-65371722D01*
X141492113Y-65384330D01*
X141432683Y-65399500D01*
X140917293Y-65399500D01*
X140882354Y-65394476D01*
X140869036Y-65390565D01*
X140810259Y-65352789D01*
X140781237Y-65289234D01*
X140780762Y-65285930D01*
X140785303Y-65230794D01*
X140785902Y-65228904D01*
X140793609Y-65210114D01*
X140866934Y-65066205D01*
X140938681Y-64845393D01*
X140975000Y-64616090D01*
X140975000Y-64383909D01*
X140938681Y-64154606D01*
X140866934Y-63933794D01*
X140761534Y-63726935D01*
X140704760Y-63648791D01*
X140704759Y-63648791D01*
X140704758Y-63648791D01*
X140217076Y-64136474D01*
X140155753Y-64169959D01*
X140086061Y-64164975D01*
X140030128Y-64123103D01*
X140026293Y-64117684D01*
X140004886Y-64085646D01*
X139914356Y-63995116D01*
X139914352Y-63995113D01*
X139914351Y-63995112D01*
X139882310Y-63973703D01*
X139837507Y-63920091D01*
X139828800Y-63850766D01*
X139858955Y-63787739D01*
X139863500Y-63782943D01*
X140351207Y-63295238D01*
X140273064Y-63238465D01*
X140066205Y-63133065D01*
X139845393Y-63061318D01*
X139845391Y-63061317D01*
X139845390Y-63061317D01*
X139669244Y-63033418D01*
X139616090Y-63025000D01*
X139616089Y-63025000D01*
X139383905Y-63025000D01*
X139154609Y-63061317D01*
X138933791Y-63133066D01*
X138726926Y-63238469D01*
X138726922Y-63238471D01*
X138648790Y-63295237D01*
X139136475Y-63782922D01*
X139169960Y-63844245D01*
X139164976Y-63913937D01*
X139123104Y-63969870D01*
X139117688Y-63973703D01*
X139085648Y-63995112D01*
X139085643Y-63995116D01*
X138995116Y-64085643D01*
X138995112Y-64085648D01*
X138973703Y-64117688D01*
X138920090Y-64162491D01*
X138850764Y-64171197D01*
X138787738Y-64141040D01*
X138782922Y-64136475D01*
X138295238Y-63648791D01*
X138295237Y-63648791D01*
X138238471Y-63726922D01*
X138238469Y-63726926D01*
X138133066Y-63933791D01*
X138061317Y-64154609D01*
X138025000Y-64383909D01*
X138025000Y-64616089D01*
X138056730Y-64816429D01*
X138061318Y-64845393D01*
X138108966Y-64992038D01*
X138133066Y-65066207D01*
X138202927Y-65203318D01*
X138214311Y-65236724D01*
X138216873Y-65250365D01*
X138209902Y-65319886D01*
X138166451Y-65374602D01*
X138166447Y-65374604D01*
X138163719Y-65376527D01*
X138112600Y-65397500D01*
X138110656Y-65397823D01*
X138090332Y-65399500D01*
X133393108Y-65399500D01*
X133358172Y-65394477D01*
X133335978Y-65387960D01*
X133286978Y-65360255D01*
X133284798Y-65358250D01*
X133270377Y-65342482D01*
X133189226Y-65236724D01*
X133157981Y-65196004D01*
X133157977Y-65196000D01*
X133157975Y-65195997D01*
X133157969Y-65195990D01*
X132954009Y-64992030D01*
X132954002Y-64992024D01*
X132953999Y-64992021D01*
X132953994Y-64992017D01*
X132726754Y-64817651D01*
X132725479Y-64816639D01*
X132725154Y-64816423D01*
X132475350Y-64672198D01*
X132475345Y-64672195D01*
X132475332Y-64672189D01*
X132208869Y-64561817D01*
X132208851Y-64561810D01*
X132208840Y-64561807D01*
X131930221Y-64487152D01*
X131930219Y-64487151D01*
X131930217Y-64487151D01*
X131930211Y-64487150D01*
X131930206Y-64487149D01*
X131930201Y-64487148D01*
X131648328Y-64450039D01*
X131646312Y-64449705D01*
X131644238Y-64449500D01*
X131644233Y-64449500D01*
X131644228Y-64449500D01*
X131355772Y-64449500D01*
X131355766Y-64449500D01*
X131355761Y-64449500D01*
X131353684Y-64449705D01*
X131351670Y-64450039D01*
X131069814Y-64487146D01*
X131069782Y-64487150D01*
X131067969Y-64487578D01*
X131066199Y-64488110D01*
X131021832Y-64499999D01*
X131021830Y-64500000D01*
X130791155Y-64561809D01*
X130791139Y-64561814D01*
X130791136Y-64561815D01*
X130791130Y-64561817D01*
X130524656Y-64672193D01*
X130524653Y-64672195D01*
X130524648Y-64672198D01*
X130274855Y-64816417D01*
X130274838Y-64816429D01*
X130274824Y-64816439D01*
X130046004Y-64992017D01*
X130045989Y-64992031D01*
X130045981Y-64992038D01*
X129842038Y-65195981D01*
X129842031Y-65195989D01*
X129842017Y-65196004D01*
X129666439Y-65424824D01*
X129666429Y-65424838D01*
X129666417Y-65424855D01*
X129522198Y-65674648D01*
X129522195Y-65674653D01*
X129522193Y-65674656D01*
X129411817Y-65941130D01*
X129411815Y-65941136D01*
X129411814Y-65941139D01*
X129411809Y-65941155D01*
X129384483Y-66043133D01*
X129337153Y-66219772D01*
X129337150Y-66219789D01*
X129337147Y-66219802D01*
X129299501Y-66505754D01*
X129299500Y-66505783D01*
X129299500Y-66794215D01*
X129299501Y-66794244D01*
X129337149Y-67080208D01*
X129337263Y-67080900D01*
X129337998Y-67083378D01*
X129411809Y-67358844D01*
X129411814Y-67358860D01*
X129411816Y-67358865D01*
X129411817Y-67358868D01*
X129522193Y-67625342D01*
X129522195Y-67625345D01*
X129522199Y-67625352D01*
X129666420Y-67875148D01*
X129666431Y-67875164D01*
X129666439Y-67875174D01*
X129842017Y-68103994D01*
X129842021Y-68103999D01*
X129842024Y-68104002D01*
X129842030Y-68104009D01*
X129842038Y-68104017D01*
X130045976Y-68307956D01*
X130045992Y-68307971D01*
X130046000Y-68307977D01*
X130274851Y-68483580D01*
X130275077Y-68483710D01*
X130393069Y-68551833D01*
X130524647Y-68627800D01*
X130524663Y-68627808D01*
X130657572Y-68682860D01*
X130787097Y-68736511D01*
X130788915Y-68737341D01*
X130789400Y-68737525D01*
X130790970Y-68738148D01*
X130792254Y-68738504D01*
X130795412Y-68739408D01*
X130796913Y-68739734D01*
X130827606Y-68747958D01*
X131069783Y-68812849D01*
X131355772Y-68850500D01*
X131355779Y-68850500D01*
X131644221Y-68850500D01*
X131644228Y-68850500D01*
X131930217Y-68812849D01*
X132204998Y-68739221D01*
X132208209Y-68738473D01*
X132210595Y-68737527D01*
X132211074Y-68737345D01*
X132212901Y-68736511D01*
X132471302Y-68629478D01*
X132473162Y-68628784D01*
X132473622Y-68628578D01*
X132475412Y-68627804D01*
X132477048Y-68626895D01*
X132478770Y-68625826D01*
X132725156Y-68483575D01*
X132954004Y-68307974D01*
X133157974Y-68104004D01*
X133266051Y-67963154D01*
X133291296Y-67938503D01*
X133309980Y-67924860D01*
X133361817Y-67902847D01*
X133364721Y-67902341D01*
X133386006Y-67900500D01*
X142110921Y-67900500D01*
X142110922Y-67900500D01*
X142305326Y-67869709D01*
X142492526Y-67808884D01*
X142667905Y-67719524D01*
X142827146Y-67603828D01*
X143906550Y-66524421D01*
X143934804Y-66503272D01*
X143957894Y-66490665D01*
X144017317Y-66475499D01*
X144975333Y-66475499D01*
X145010265Y-66480520D01*
X145035509Y-66487933D01*
X145088255Y-66519229D01*
X153272856Y-74703831D01*
X153272859Y-74703833D01*
X153310566Y-74731227D01*
X153310570Y-74731232D01*
X153310571Y-74731231D01*
X153335716Y-74749500D01*
X153432095Y-74819524D01*
X153514955Y-74861743D01*
X153601021Y-74905596D01*
X153602624Y-74906534D01*
X153606323Y-74908326D01*
X153608331Y-74909324D01*
X153612097Y-74910386D01*
X153649582Y-74922565D01*
X153707815Y-74941486D01*
X153707816Y-74941487D01*
X153729531Y-74948542D01*
X153794673Y-74969709D01*
X153989078Y-75000500D01*
X153989083Y-75000500D01*
X153989084Y-75000500D01*
X154185917Y-75000500D01*
X155939007Y-75000500D01*
X155973934Y-75005521D01*
X155984787Y-75008707D01*
X156043568Y-75046477D01*
X156072597Y-75110031D01*
X156062665Y-75179173D01*
X156061607Y-75181491D01*
X156018878Y-75232304D01*
X156006919Y-75240495D01*
X155976858Y-75261087D01*
X155976846Y-75261098D01*
X155976838Y-75261105D01*
X155826105Y-75411838D01*
X155826098Y-75411846D01*
X155826087Y-75411859D01*
X155732338Y-75548717D01*
X155705592Y-75587761D01*
X155677223Y-75652011D01*
X155619464Y-75782824D01*
X155593787Y-75891995D01*
X155580908Y-75924836D01*
X155577892Y-75930147D01*
X155527670Y-75978722D01*
X155459159Y-75992434D01*
X155394111Y-75966930D01*
X155353177Y-75910306D01*
X155353166Y-75910276D01*
X155352838Y-75909350D01*
X155352100Y-75907265D01*
X155345000Y-75865905D01*
X155345000Y-75502703D01*
X155342505Y-75502899D01*
X155342497Y-75502901D01*
X155184833Y-75548707D01*
X155184802Y-75548717D01*
X155184799Y-75548718D01*
X155043452Y-75632310D01*
X155043447Y-75632313D01*
X155043436Y-75632322D01*
X154927322Y-75748436D01*
X154927313Y-75748447D01*
X154927310Y-75748452D01*
X154843718Y-75889799D01*
X154843717Y-75889802D01*
X154843707Y-75889833D01*
X154797902Y-76047493D01*
X154797901Y-76047497D01*
X154797900Y-76047504D01*
X154797899Y-76047510D01*
X154795000Y-76084350D01*
X154795000Y-76725000D01*
X155345000Y-76725000D01*
X155348597Y-76723509D01*
X155368457Y-76708641D01*
X155378391Y-76703217D01*
X155446661Y-76688364D01*
X155512126Y-76712778D01*
X155553999Y-76768710D01*
X155554001Y-76768714D01*
X155556682Y-76775902D01*
X155564500Y-76819236D01*
X155564500Y-77127308D01*
X155559476Y-77162246D01*
X155556289Y-77173099D01*
X155518514Y-77231876D01*
X155454957Y-77260899D01*
X155385807Y-77250958D01*
X155378829Y-77247771D01*
X155347558Y-77226059D01*
X155345000Y-77225000D01*
X155344999Y-77225000D01*
X154795000Y-77225000D01*
X154795000Y-77865654D01*
X154797899Y-77902487D01*
X154797901Y-77902501D01*
X154797902Y-77902505D01*
X154843707Y-78060165D01*
X154843717Y-78060196D01*
X154843718Y-78060199D01*
X154923267Y-78194709D01*
X154927314Y-78201552D01*
X154927321Y-78201561D01*
X155043438Y-78317678D01*
X155043447Y-78317685D01*
X155184801Y-78401281D01*
X155249408Y-78420050D01*
X155284660Y-78442563D01*
X155342509Y-78447098D01*
X155342514Y-78447100D01*
X155342511Y-78447100D01*
X155344998Y-78447295D01*
X155345000Y-78447295D01*
X155345000Y-78447294D01*
X155345000Y-78086868D01*
X155350018Y-78051951D01*
X155350647Y-78049805D01*
X155351739Y-78046088D01*
X155389503Y-77987306D01*
X155453055Y-77958272D01*
X155522215Y-77968205D01*
X155575025Y-78013952D01*
X155575027Y-78013955D01*
X155576753Y-78016640D01*
X155593152Y-78055302D01*
X155619463Y-78167169D01*
X155619465Y-78167176D01*
X155619467Y-78167182D01*
X155619468Y-78167185D01*
X155705591Y-78362237D01*
X155705592Y-78362238D01*
X155826088Y-78538141D01*
X155826093Y-78538147D01*
X155826098Y-78538152D01*
X155826105Y-78538160D01*
X155976838Y-78688893D01*
X155976852Y-78688906D01*
X155976858Y-78688911D01*
X156152763Y-78809409D01*
X156345166Y-78894362D01*
X156347994Y-78895693D01*
X156348172Y-78895741D01*
X156351777Y-78896463D01*
X156450934Y-78919786D01*
X156549898Y-78943063D01*
X156552254Y-78943731D01*
X156553182Y-78943915D01*
X156555579Y-78944434D01*
X156556781Y-78944545D01*
X156559615Y-78944643D01*
X156604600Y-78947765D01*
X156604601Y-78947766D01*
X156604602Y-78947766D01*
X156643982Y-78950500D01*
X156643984Y-78950500D01*
X156643988Y-78950500D01*
X156742670Y-78950500D01*
X156777606Y-78955523D01*
X156792604Y-78959927D01*
X156851355Y-78997672D01*
X156852542Y-78999041D01*
X156880018Y-79053902D01*
X156881663Y-79061460D01*
X156884500Y-79087831D01*
X156884500Y-79237833D01*
X156879476Y-79272770D01*
X156872064Y-79298011D01*
X156840769Y-79350755D01*
X149227330Y-86964193D01*
X149199077Y-86985344D01*
X149186895Y-86991996D01*
X149118622Y-87006848D01*
X149053159Y-86982432D01*
X149046344Y-86977331D01*
X149013271Y-86940064D01*
X149013270Y-86940063D01*
X149000277Y-86917557D01*
X149000274Y-86917551D01*
X148856595Y-86730305D01*
X148856589Y-86730297D01*
X148856574Y-86730281D01*
X148689712Y-86563420D01*
X148689704Y-86563412D01*
X148689697Y-86563406D01*
X148689694Y-86563403D01*
X148689689Y-86563399D01*
X148504040Y-86420947D01*
X148502776Y-86419944D01*
X148502447Y-86419725D01*
X148502445Y-86419723D01*
X148420957Y-86372677D01*
X148420955Y-86372675D01*
X148298065Y-86301724D01*
X148298048Y-86301715D01*
X148170661Y-86248950D01*
X148155141Y-86236443D01*
X148079995Y-86211395D01*
X148079996Y-86211395D01*
X148079993Y-86211394D01*
X148079987Y-86211392D01*
X148079983Y-86211391D01*
X148007510Y-86191972D01*
X147988309Y-86186827D01*
X147958400Y-86174437D01*
X147931089Y-86158668D01*
X147905411Y-86138964D01*
X147827794Y-86061347D01*
X147682943Y-85916497D01*
X147649459Y-85855175D01*
X147654443Y-85785484D01*
X147696314Y-85729550D01*
X147708614Y-85721437D01*
X147745606Y-85700080D01*
X147820080Y-85625606D01*
X147841430Y-85588625D01*
X147891995Y-85540411D01*
X147960602Y-85527187D01*
X148025467Y-85553154D01*
X148036498Y-85562945D01*
X148579473Y-86105920D01*
X148579474Y-86105921D01*
X148611859Y-86061349D01*
X148704755Y-85879031D01*
X148767990Y-85684417D01*
X148800000Y-85482317D01*
X148800000Y-85277682D01*
X148767990Y-85075582D01*
X148704755Y-84880968D01*
X148704753Y-84880965D01*
X148704753Y-84880963D01*
X148611859Y-84698650D01*
X148603156Y-84686672D01*
X148593615Y-84659933D01*
X148579473Y-84654075D01*
X148036497Y-85197053D01*
X147975174Y-85230538D01*
X147905483Y-85225554D01*
X147849549Y-85183683D01*
X147841430Y-85171374D01*
X147820080Y-85134394D01*
X147745606Y-85059920D01*
X147708625Y-85038569D01*
X147660410Y-84988003D01*
X147647186Y-84919396D01*
X147673154Y-84854531D01*
X147682936Y-84843509D01*
X148225922Y-84300524D01*
X148225921Y-84300523D01*
X148225920Y-84300522D01*
X148225919Y-84300521D01*
X148225914Y-84300517D01*
X148181360Y-84268147D01*
X148181357Y-84268144D01*
X148116198Y-84234944D01*
X147999031Y-84175244D01*
X147804417Y-84112009D01*
X147804411Y-84112008D01*
X147602322Y-84080000D01*
X147602317Y-84080000D01*
X147397683Y-84080000D01*
X147397678Y-84080000D01*
X147195587Y-84112008D01*
X147195585Y-84112008D01*
X147195582Y-84112009D01*
X147098275Y-84143626D01*
X147000963Y-84175245D01*
X146818640Y-84268145D01*
X146774077Y-84300522D01*
X146774077Y-84300523D01*
X146774077Y-84300524D01*
X147056143Y-84582590D01*
X147317055Y-84843501D01*
X147350540Y-84904824D01*
X147345556Y-84974515D01*
X147303685Y-85030449D01*
X147291374Y-85038569D01*
X147254397Y-85059917D01*
X147254392Y-85059921D01*
X147179921Y-85134392D01*
X147179915Y-85134400D01*
X147158568Y-85171374D01*
X147108001Y-85219589D01*
X147039393Y-85232811D01*
X146974529Y-85206843D01*
X146963501Y-85197054D01*
X146420524Y-84654077D01*
X146420523Y-84654077D01*
X146420522Y-84654077D01*
X146388150Y-84698633D01*
X146388144Y-84698642D01*
X146358611Y-84756605D01*
X146338273Y-84785454D01*
X146328744Y-84795543D01*
X146268402Y-84830764D01*
X146198609Y-84827774D01*
X146191993Y-84825520D01*
X146144300Y-84795826D01*
X137794648Y-76446174D01*
X137794646Y-76446172D01*
X137635405Y-76330476D01*
X137460030Y-76241117D01*
X137272826Y-76180290D01*
X137272824Y-76180289D01*
X137272822Y-76180289D01*
X137078427Y-76149500D01*
X137078422Y-76149500D01*
X137078417Y-76149500D01*
X127240699Y-76149500D01*
X127043866Y-76149500D01*
X127043861Y-76149500D01*
X127013071Y-76154376D01*
X126849456Y-76180290D01*
X126750326Y-76212498D01*
X126750322Y-76212501D01*
X126748047Y-76213240D01*
X126745386Y-76214105D01*
X126662253Y-76241117D01*
X126662251Y-76241117D01*
X126662251Y-76241118D01*
X126662247Y-76241119D01*
X126560773Y-76292825D01*
X126560771Y-76292826D01*
X126486880Y-76330474D01*
X126486875Y-76330477D01*
X126405393Y-76389678D01*
X126339507Y-76437547D01*
X126332128Y-76441679D01*
X122591680Y-80182127D01*
X122587548Y-80189506D01*
X122546485Y-80246024D01*
X122480476Y-80336876D01*
X122391113Y-80512258D01*
X122391111Y-80512264D01*
X122349725Y-80639643D01*
X122349725Y-80639645D01*
X122330292Y-80699450D01*
X122330287Y-80699476D01*
X122299500Y-80893860D01*
X120797867Y-80893860D01*
X121500000Y-50000000D01*
X121500000Y-49641829D01*
X121505023Y-49606893D01*
X121509427Y-49591895D01*
X121547172Y-49533144D01*
X121548541Y-49531957D01*
X121603420Y-49504477D01*
X121610979Y-49502833D01*
X121637332Y-49500000D01*
X179357248Y-49500000D01*
X179392184Y-49505023D01*
G37*
%TD.AperFunction*%
%TD*%
%TA.AperFunction,Conductor*%
%TO.N,Current-*%
G36*
X156437539Y-61519685D02*
G01*
X156483294Y-61572489D01*
X156494500Y-61624000D01*
X156494500Y-70075889D01*
X156494520Y-70082192D01*
X156494530Y-70083713D01*
X156499084Y-70173047D01*
X156538858Y-70372569D01*
X156559382Y-70439361D01*
X156559383Y-70439364D01*
X156621320Y-70593971D01*
X156730300Y-70765770D01*
X156730302Y-70765772D01*
X156823974Y-70862767D01*
X156856385Y-70924664D01*
X156855484Y-70977297D01*
X156840651Y-71040359D01*
X156840649Y-71040379D01*
X156834500Y-71128981D01*
X156834500Y-72357670D01*
X156829475Y-72392614D01*
X156825070Y-72407612D01*
X156787327Y-72466355D01*
X156785958Y-72467542D01*
X156731097Y-72495018D01*
X156723539Y-72496663D01*
X156697168Y-72499500D01*
X154674666Y-72499500D01*
X154639730Y-72494477D01*
X154614488Y-72487065D01*
X154561743Y-72455769D01*
X153548926Y-71442952D01*
X153527774Y-71414696D01*
X153515167Y-71391607D01*
X153500000Y-71332182D01*
X153500000Y-61641829D01*
X153505023Y-61606893D01*
X153509427Y-61591895D01*
X153547172Y-61533144D01*
X153548541Y-61531957D01*
X153603420Y-61504477D01*
X153610979Y-61502833D01*
X153637332Y-61500000D01*
X156370500Y-61500000D01*
X156437539Y-61519685D01*
G37*
%TD.AperFunction*%
%TD*%
%TA.AperFunction,Conductor*%
%TO.N,Current+*%
G36*
X162443039Y-61519685D02*
G01*
X162488794Y-61572489D01*
X162500000Y-61624000D01*
X162500000Y-74055165D01*
X162480315Y-74122204D01*
X162463681Y-74142846D01*
X162386184Y-74220342D01*
X162386174Y-74220354D01*
X162257994Y-74405370D01*
X162248041Y-74427283D01*
X162202394Y-74480179D01*
X162135394Y-74500000D01*
X159875998Y-74500000D01*
X159808959Y-74480315D01*
X159788317Y-74463681D01*
X158201819Y-72877183D01*
X158168334Y-72815860D01*
X158165500Y-72789502D01*
X158165500Y-71128984D01*
X158159349Y-71040375D01*
X158159349Y-71040370D01*
X158159347Y-71040364D01*
X158159347Y-71040359D01*
X158110534Y-70832823D01*
X158110532Y-70832817D01*
X158110532Y-70832815D01*
X158024409Y-70637763D01*
X157903911Y-70461858D01*
X157903906Y-70461852D01*
X157753147Y-70311093D01*
X157753141Y-70311088D01*
X157577237Y-70190591D01*
X157577223Y-70190584D01*
X157573904Y-70189118D01*
X157572572Y-70187993D01*
X157572224Y-70187799D01*
X157572261Y-70187730D01*
X157520532Y-70144028D01*
X157500010Y-70077240D01*
X157500000Y-70075688D01*
X157500000Y-61624000D01*
X157519685Y-61556961D01*
X157572489Y-61511206D01*
X157624000Y-61500000D01*
X162376000Y-61500000D01*
X162443039Y-61519685D01*
G37*
%TD.AperFunction*%
%TD*%
M02*
