%TF.GenerationSoftware,KiCad,Pcbnew,10.0.6*%
%TF.CreationDate,2026-09-12T13:45:59-04:00*%
%TF.ProjectId,lunabotics_practice,6c756e61-626f-4746-9963-735f70726163,rev?*%
%TF.SameCoordinates,Original*%
%TF.FileFunction,Legend,Bot*%
%TF.FilePolarity,Positive*%
%FSLAX46Y46*%
G04 Gerber Fmt 4.6, Leading zero omitted, Abs format (unit mm)*
G04 Created by KiCad (PCBNEW 10.0.6) date 2026-09-12 13:45:59*
%MOMM*%
%LPD*%
G01*
G04 APERTURE LIST*
%ADD10C,0.150000*%
%ADD11C,0.120000*%
%ADD12C,0.127000*%
%ADD13C,0.200000*%
G04 APERTURE END LIST*
D10*
X121534819Y-68833333D02*
X121058628Y-68500000D01*
X121534819Y-68261905D02*
X120534819Y-68261905D01*
X120534819Y-68261905D02*
X120534819Y-68642857D01*
X120534819Y-68642857D02*
X120582438Y-68738095D01*
X120582438Y-68738095D02*
X120630057Y-68785714D01*
X120630057Y-68785714D02*
X120725295Y-68833333D01*
X120725295Y-68833333D02*
X120868152Y-68833333D01*
X120868152Y-68833333D02*
X120963390Y-68785714D01*
X120963390Y-68785714D02*
X121011009Y-68738095D01*
X121011009Y-68738095D02*
X121058628Y-68642857D01*
X121058628Y-68642857D02*
X121058628Y-68261905D01*
X120868152Y-69690476D02*
X121534819Y-69690476D01*
X120487200Y-69452381D02*
X121201485Y-69214286D01*
X121201485Y-69214286D02*
X121201485Y-69833333D01*
X137369819Y-58333333D02*
X136893628Y-58000000D01*
X137369819Y-57761905D02*
X136369819Y-57761905D01*
X136369819Y-57761905D02*
X136369819Y-58142857D01*
X136369819Y-58142857D02*
X136417438Y-58238095D01*
X136417438Y-58238095D02*
X136465057Y-58285714D01*
X136465057Y-58285714D02*
X136560295Y-58333333D01*
X136560295Y-58333333D02*
X136703152Y-58333333D01*
X136703152Y-58333333D02*
X136798390Y-58285714D01*
X136798390Y-58285714D02*
X136846009Y-58238095D01*
X136846009Y-58238095D02*
X136893628Y-58142857D01*
X136893628Y-58142857D02*
X136893628Y-57761905D01*
X136369819Y-58666667D02*
X136369819Y-59285714D01*
X136369819Y-59285714D02*
X136750771Y-58952381D01*
X136750771Y-58952381D02*
X136750771Y-59095238D01*
X136750771Y-59095238D02*
X136798390Y-59190476D01*
X136798390Y-59190476D02*
X136846009Y-59238095D01*
X136846009Y-59238095D02*
X136941247Y-59285714D01*
X136941247Y-59285714D02*
X137179342Y-59285714D01*
X137179342Y-59285714D02*
X137274580Y-59238095D01*
X137274580Y-59238095D02*
X137322200Y-59190476D01*
X137322200Y-59190476D02*
X137369819Y-59095238D01*
X137369819Y-59095238D02*
X137369819Y-58809524D01*
X137369819Y-58809524D02*
X137322200Y-58714286D01*
X137322200Y-58714286D02*
X137274580Y-58666667D01*
X149756904Y-64314819D02*
X149756904Y-65124342D01*
X149756904Y-65124342D02*
X149709285Y-65219580D01*
X149709285Y-65219580D02*
X149661666Y-65267200D01*
X149661666Y-65267200D02*
X149566428Y-65314819D01*
X149566428Y-65314819D02*
X149375952Y-65314819D01*
X149375952Y-65314819D02*
X149280714Y-65267200D01*
X149280714Y-65267200D02*
X149233095Y-65219580D01*
X149233095Y-65219580D02*
X149185476Y-65124342D01*
X149185476Y-65124342D02*
X149185476Y-64314819D01*
X148756904Y-64410057D02*
X148709285Y-64362438D01*
X148709285Y-64362438D02*
X148614047Y-64314819D01*
X148614047Y-64314819D02*
X148375952Y-64314819D01*
X148375952Y-64314819D02*
X148280714Y-64362438D01*
X148280714Y-64362438D02*
X148233095Y-64410057D01*
X148233095Y-64410057D02*
X148185476Y-64505295D01*
X148185476Y-64505295D02*
X148185476Y-64600533D01*
X148185476Y-64600533D02*
X148233095Y-64743390D01*
X148233095Y-64743390D02*
X148804523Y-65314819D01*
X148804523Y-65314819D02*
X148185476Y-65314819D01*
X152166666Y-86374819D02*
X152499999Y-85898628D01*
X152738094Y-86374819D02*
X152738094Y-85374819D01*
X152738094Y-85374819D02*
X152357142Y-85374819D01*
X152357142Y-85374819D02*
X152261904Y-85422438D01*
X152261904Y-85422438D02*
X152214285Y-85470057D01*
X152214285Y-85470057D02*
X152166666Y-85565295D01*
X152166666Y-85565295D02*
X152166666Y-85708152D01*
X152166666Y-85708152D02*
X152214285Y-85803390D01*
X152214285Y-85803390D02*
X152261904Y-85851009D01*
X152261904Y-85851009D02*
X152357142Y-85898628D01*
X152357142Y-85898628D02*
X152738094Y-85898628D01*
X151785713Y-85470057D02*
X151738094Y-85422438D01*
X151738094Y-85422438D02*
X151642856Y-85374819D01*
X151642856Y-85374819D02*
X151404761Y-85374819D01*
X151404761Y-85374819D02*
X151309523Y-85422438D01*
X151309523Y-85422438D02*
X151261904Y-85470057D01*
X151261904Y-85470057D02*
X151214285Y-85565295D01*
X151214285Y-85565295D02*
X151214285Y-85660533D01*
X151214285Y-85660533D02*
X151261904Y-85803390D01*
X151261904Y-85803390D02*
X151833332Y-86374819D01*
X151833332Y-86374819D02*
X151214285Y-86374819D01*
X133166666Y-86374819D02*
X133499999Y-85898628D01*
X133738094Y-86374819D02*
X133738094Y-85374819D01*
X133738094Y-85374819D02*
X133357142Y-85374819D01*
X133357142Y-85374819D02*
X133261904Y-85422438D01*
X133261904Y-85422438D02*
X133214285Y-85470057D01*
X133214285Y-85470057D02*
X133166666Y-85565295D01*
X133166666Y-85565295D02*
X133166666Y-85708152D01*
X133166666Y-85708152D02*
X133214285Y-85803390D01*
X133214285Y-85803390D02*
X133261904Y-85851009D01*
X133261904Y-85851009D02*
X133357142Y-85898628D01*
X133357142Y-85898628D02*
X133738094Y-85898628D01*
X132214285Y-86374819D02*
X132785713Y-86374819D01*
X132499999Y-86374819D02*
X132499999Y-85374819D01*
X132499999Y-85374819D02*
X132595237Y-85517676D01*
X132595237Y-85517676D02*
X132690475Y-85612914D01*
X132690475Y-85612914D02*
X132785713Y-85660533D01*
X157521666Y-30588366D02*
X157521666Y-31588366D01*
X157521666Y-31588366D02*
X157588333Y-31788366D01*
X157588333Y-31788366D02*
X157721666Y-31921700D01*
X157721666Y-31921700D02*
X157921666Y-31988366D01*
X157921666Y-31988366D02*
X158055000Y-31988366D01*
X156921666Y-30721700D02*
X156854999Y-30655033D01*
X156854999Y-30655033D02*
X156721666Y-30588366D01*
X156721666Y-30588366D02*
X156388333Y-30588366D01*
X156388333Y-30588366D02*
X156254999Y-30655033D01*
X156254999Y-30655033D02*
X156188333Y-30721700D01*
X156188333Y-30721700D02*
X156121666Y-30855033D01*
X156121666Y-30855033D02*
X156121666Y-30988366D01*
X156121666Y-30988366D02*
X156188333Y-31188366D01*
X156188333Y-31188366D02*
X156988333Y-31988366D01*
X156988333Y-31988366D02*
X156121666Y-31988366D01*
X135733094Y-68994819D02*
X135733094Y-67994819D01*
X135733094Y-67994819D02*
X135494999Y-67994819D01*
X135494999Y-67994819D02*
X135352142Y-68042438D01*
X135352142Y-68042438D02*
X135256904Y-68137676D01*
X135256904Y-68137676D02*
X135209285Y-68232914D01*
X135209285Y-68232914D02*
X135161666Y-68423390D01*
X135161666Y-68423390D02*
X135161666Y-68566247D01*
X135161666Y-68566247D02*
X135209285Y-68756723D01*
X135209285Y-68756723D02*
X135256904Y-68851961D01*
X135256904Y-68851961D02*
X135352142Y-68947200D01*
X135352142Y-68947200D02*
X135494999Y-68994819D01*
X135494999Y-68994819D02*
X135733094Y-68994819D01*
X134209285Y-68994819D02*
X134780713Y-68994819D01*
X134494999Y-68994819D02*
X134494999Y-67994819D01*
X134494999Y-67994819D02*
X134590237Y-68137676D01*
X134590237Y-68137676D02*
X134685475Y-68232914D01*
X134685475Y-68232914D02*
X134780713Y-68280533D01*
X142521666Y-30588366D02*
X142521666Y-31588366D01*
X142521666Y-31588366D02*
X142588333Y-31788366D01*
X142588333Y-31788366D02*
X142721666Y-31921700D01*
X142721666Y-31921700D02*
X142921666Y-31988366D01*
X142921666Y-31988366D02*
X143055000Y-31988366D01*
X141121666Y-31988366D02*
X141921666Y-31988366D01*
X141521666Y-31988366D02*
X141521666Y-30588366D01*
X141521666Y-30588366D02*
X141654999Y-30788366D01*
X141654999Y-30788366D02*
X141788333Y-30921700D01*
X141788333Y-30921700D02*
X141921666Y-30988366D01*
%TO.C,R4*%
D11*
X122080000Y-63930000D02*
X122080000Y-74070000D01*
X122560000Y-63930000D02*
X122080000Y-63930000D01*
X125440000Y-63930000D02*
X125920000Y-63930000D01*
X125920000Y-63930000D02*
X125920000Y-74070000D01*
X122080000Y-74070000D02*
X122560000Y-74070000D01*
X125920000Y-74070000D02*
X125440000Y-74070000D01*
%TO.C,R3*%
X132075000Y-53430000D02*
X132555000Y-53430000D01*
X135915000Y-53430000D02*
X135435000Y-53430000D01*
X132075000Y-63570000D02*
X132075000Y-53430000D01*
X132555000Y-63570000D02*
X132075000Y-63570000D01*
X135435000Y-63570000D02*
X135915000Y-63570000D01*
X135915000Y-63570000D02*
X135915000Y-53430000D01*
%TO.C,U2*%
X151645000Y-65860000D02*
X151645000Y-76140000D01*
X151645000Y-76140000D02*
X146345000Y-76140000D01*
X149995000Y-65860000D02*
X151645000Y-65860000D01*
X146345000Y-65860000D02*
X147995000Y-65860000D01*
X146345000Y-76140000D02*
X146345000Y-65860000D01*
X149995000Y-65860000D02*
G75*
G02*
X147995000Y-65860000I-1000000J0D01*
G01*
%TO.C,R2*%
X157070000Y-81080000D02*
X157070000Y-81560000D01*
X157070000Y-84920000D02*
X157070000Y-84440000D01*
X146930000Y-81080000D02*
X157070000Y-81080000D01*
X146930000Y-81560000D02*
X146930000Y-81080000D01*
X146930000Y-84440000D02*
X146930000Y-84920000D01*
X146930000Y-84920000D02*
X157070000Y-84920000D01*
%TO.C,R1*%
X138070000Y-81080000D02*
X138070000Y-81560000D01*
X138070000Y-84920000D02*
X138070000Y-84440000D01*
X127930000Y-81080000D02*
X138070000Y-81080000D01*
X127930000Y-81560000D02*
X127930000Y-81080000D01*
X127930000Y-84440000D02*
X127930000Y-84920000D01*
X127930000Y-84920000D02*
X138070000Y-84920000D01*
%TO.C,J2*%
D12*
X160500000Y-33237500D02*
X150500000Y-33237500D01*
X160500000Y-40837500D02*
X160500000Y-33237500D01*
X150500000Y-33237500D02*
X150500000Y-40837500D01*
X150500000Y-40837500D02*
X160500000Y-40837500D01*
D13*
X158100000Y-41837500D02*
G75*
G02*
X157900000Y-41837500I-100000J0D01*
G01*
X157900000Y-41837500D02*
G75*
G02*
X158100000Y-41837500I100000J0D01*
G01*
%TO.C,D1*%
D11*
X137495000Y-72500000D02*
G75*
G02*
X132495000Y-72500000I-2500000J0D01*
G01*
X132495000Y-72500000D02*
G75*
G02*
X137495000Y-72500000I2500000J0D01*
G01*
X137555000Y-74044830D02*
G75*
G02*
X132005000Y-72500000I-2560000J1544830D01*
G01*
X132005000Y-72500000D02*
G75*
G02*
X137555000Y-70955170I2990000J0D01*
G01*
X137555000Y-70955000D02*
X137555000Y-74045000D01*
%TO.C,J1*%
D12*
X145500000Y-33237500D02*
X135500000Y-33237500D01*
X145500000Y-40837500D02*
X145500000Y-33237500D01*
X135500000Y-33237500D02*
X135500000Y-40837500D01*
X135500000Y-40837500D02*
X145500000Y-40837500D01*
D13*
X143100000Y-41837500D02*
G75*
G02*
X142900000Y-41837500I-100000J0D01*
G01*
X142900000Y-41837500D02*
G75*
G02*
X143100000Y-41837500I100000J0D01*
G01*
%TD*%
M02*
