%TF.GenerationSoftware,KiCad,Pcbnew,10.0.6*%
%TF.CreationDate,2026-09-12T11:32:49-04:00*%
%TF.ProjectId,BRConboarding,4252436f-6e62-46f6-9172-64696e672e6b,rev?*%
%TF.SameCoordinates,Original*%
%TF.FileFunction,Legend,Top*%
%TF.FilePolarity,Positive*%
%FSLAX46Y46*%
G04 Gerber Fmt 4.6, Leading zero omitted, Abs format (unit mm)*
G04 Created by KiCad (PCBNEW 10.0.6) date 2026-09-12 11:32:49*
%MOMM*%
%LPD*%
G01*
G04 APERTURE LIST*
%ADD10C,0.150000*%
%ADD11C,0.120000*%
G04 APERTURE END LIST*
D10*
X111679580Y-92666666D02*
X111727200Y-92714285D01*
X111727200Y-92714285D02*
X111774819Y-92857142D01*
X111774819Y-92857142D02*
X111774819Y-92952380D01*
X111774819Y-92952380D02*
X111727200Y-93095237D01*
X111727200Y-93095237D02*
X111631961Y-93190475D01*
X111631961Y-93190475D02*
X111536723Y-93238094D01*
X111536723Y-93238094D02*
X111346247Y-93285713D01*
X111346247Y-93285713D02*
X111203390Y-93285713D01*
X111203390Y-93285713D02*
X111012914Y-93238094D01*
X111012914Y-93238094D02*
X110917676Y-93190475D01*
X110917676Y-93190475D02*
X110822438Y-93095237D01*
X110822438Y-93095237D02*
X110774819Y-92952380D01*
X110774819Y-92952380D02*
X110774819Y-92857142D01*
X110774819Y-92857142D02*
X110822438Y-92714285D01*
X110822438Y-92714285D02*
X110870057Y-92666666D01*
X110870057Y-92285713D02*
X110822438Y-92238094D01*
X110822438Y-92238094D02*
X110774819Y-92142856D01*
X110774819Y-92142856D02*
X110774819Y-91904761D01*
X110774819Y-91904761D02*
X110822438Y-91809523D01*
X110822438Y-91809523D02*
X110870057Y-91761904D01*
X110870057Y-91761904D02*
X110965295Y-91714285D01*
X110965295Y-91714285D02*
X111060533Y-91714285D01*
X111060533Y-91714285D02*
X111203390Y-91761904D01*
X111203390Y-91761904D02*
X111774819Y-92333332D01*
X111774819Y-92333332D02*
X111774819Y-91714285D01*
X116354819Y-86761904D02*
X117164342Y-86761904D01*
X117164342Y-86761904D02*
X117259580Y-86714285D01*
X117259580Y-86714285D02*
X117307200Y-86666666D01*
X117307200Y-86666666D02*
X117354819Y-86571428D01*
X117354819Y-86571428D02*
X117354819Y-86380952D01*
X117354819Y-86380952D02*
X117307200Y-86285714D01*
X117307200Y-86285714D02*
X117259580Y-86238095D01*
X117259580Y-86238095D02*
X117164342Y-86190476D01*
X117164342Y-86190476D02*
X116354819Y-86190476D01*
X117354819Y-85190476D02*
X117354819Y-85761904D01*
X117354819Y-85476190D02*
X116354819Y-85476190D01*
X116354819Y-85476190D02*
X116497676Y-85571428D01*
X116497676Y-85571428D02*
X116592914Y-85666666D01*
X116592914Y-85666666D02*
X116640533Y-85761904D01*
X106333333Y-89179580D02*
X106285714Y-89227200D01*
X106285714Y-89227200D02*
X106142857Y-89274819D01*
X106142857Y-89274819D02*
X106047619Y-89274819D01*
X106047619Y-89274819D02*
X105904762Y-89227200D01*
X105904762Y-89227200D02*
X105809524Y-89131961D01*
X105809524Y-89131961D02*
X105761905Y-89036723D01*
X105761905Y-89036723D02*
X105714286Y-88846247D01*
X105714286Y-88846247D02*
X105714286Y-88703390D01*
X105714286Y-88703390D02*
X105761905Y-88512914D01*
X105761905Y-88512914D02*
X105809524Y-88417676D01*
X105809524Y-88417676D02*
X105904762Y-88322438D01*
X105904762Y-88322438D02*
X106047619Y-88274819D01*
X106047619Y-88274819D02*
X106142857Y-88274819D01*
X106142857Y-88274819D02*
X106285714Y-88322438D01*
X106285714Y-88322438D02*
X106333333Y-88370057D01*
X107285714Y-89274819D02*
X106714286Y-89274819D01*
X107000000Y-89274819D02*
X107000000Y-88274819D01*
X107000000Y-88274819D02*
X106904762Y-88417676D01*
X106904762Y-88417676D02*
X106809524Y-88512914D01*
X106809524Y-88512914D02*
X106714286Y-88560533D01*
%TO.C,C2*%
D11*
X112265000Y-92761252D02*
X112265000Y-92238748D01*
X113735000Y-92761252D02*
X113735000Y-92238748D01*
%TO.C,U1*%
X116060000Y-88060000D02*
X115965000Y-88060000D01*
X116060000Y-83940000D02*
X116060000Y-88060000D01*
X115965000Y-83940000D02*
X116060000Y-83940000D01*
X111035000Y-88060000D02*
X110940000Y-88060000D01*
X110940000Y-88060000D02*
X110940000Y-83940000D01*
X110940000Y-83940000D02*
X111035000Y-83940000D01*
X115970000Y-83400000D02*
X116300000Y-83160000D01*
X116300000Y-83640000D01*
X115970000Y-83400000D01*
G36*
X116300000Y-83640000D02*
G01*
X115970000Y-83400000D01*
X116300000Y-83160000D01*
X116300000Y-83640000D01*
G37*
%TO.C,C1*%
X106238748Y-89765000D02*
X106761252Y-89765000D01*
X106238748Y-91235000D02*
X106761252Y-91235000D01*
%TD*%
M02*
