%TF.GenerationSoftware,KiCad,Pcbnew,10.0.6*%
%TF.CreationDate,2026-09-10T10:59:25-04:00*%
%TF.ProjectId,Luna_Onboarding,4c756e61-5f4f-46e6-926f-617264696e67,rev?*%
%TF.SameCoordinates,Original*%
%TF.FileFunction,Copper,L1,Top*%
%TF.FilePolarity,Positive*%
%FSLAX46Y46*%
G04 Gerber Fmt 4.6, Leading zero omitted, Abs format (unit mm)*
G04 Created by KiCad (PCBNEW 10.0.6) date 2026-09-10 10:59:25*
%MOMM*%
%LPD*%
G01*
G04 APERTURE LIST*
G04 Aperture macros list*
%AMRoundRect*
0 Rectangle with rounded corners*
0 $1 Rounding radius*
0 $2 $3 $4 $5 $6 $7 $8 $9 X,Y pos of 4 corners*
0 Add a 4 corners polygon primitive as box body*
4,1,4,$2,$3,$4,$5,$6,$7,$8,$9,$2,$3,0*
0 Add four circle primitives for the rounded corners*
1,1,$1+$1,$2,$3*
1,1,$1+$1,$4,$5*
1,1,$1+$1,$6,$7*
1,1,$1+$1,$8,$9*
0 Add four rect primitives between the rounded corners*
20,1,$1+$1,$2,$3,$4,$5,0*
20,1,$1+$1,$4,$5,$6,$7,0*
20,1,$1+$1,$6,$7,$8,$9,0*
20,1,$1+$1,$8,$9,$2,$3,0*%
G04 Aperture macros list end*
%TA.AperFunction,SMDPad,CuDef*%
%ADD10RoundRect,0.250000X0.475000X-0.250000X0.475000X0.250000X-0.475000X0.250000X-0.475000X-0.250000X0*%
%TD*%
%TA.AperFunction,SMDPad,CuDef*%
%ADD11RoundRect,0.250000X-0.250000X-0.475000X0.250000X-0.475000X0.250000X0.475000X-0.250000X0.475000X0*%
%TD*%
%TA.AperFunction,SMDPad,CuDef*%
%ADD12RoundRect,0.150000X-0.150000X0.825000X-0.150000X-0.825000X0.150000X-0.825000X0.150000X0.825000X0*%
%TD*%
%TA.AperFunction,ComponentPad*%
%ADD13C,2.400000*%
%TD*%
%TA.AperFunction,ComponentPad*%
%ADD14R,1.800000X1.800000*%
%TD*%
%TA.AperFunction,ComponentPad*%
%ADD15C,1.800000*%
%TD*%
%TA.AperFunction,ComponentPad*%
%ADD16R,1.950000X1.950000*%
%TD*%
%TA.AperFunction,ComponentPad*%
%ADD17C,1.950000*%
%TD*%
%TA.AperFunction,ComponentPad*%
%ADD18RoundRect,0.250000X0.550000X0.550000X-0.550000X0.550000X-0.550000X-0.550000X0.550000X-0.550000X0*%
%TD*%
%TA.AperFunction,ComponentPad*%
%ADD19C,1.600000*%
%TD*%
%TA.AperFunction,Conductor*%
%ADD20C,0.500000*%
%TD*%
G04 APERTURE END LIST*
D10*
%TO.P,C2,1*%
%TO.N,GND*%
X114500000Y-90650000D03*
%TO.P,C2,2*%
%TO.N,+3V3*%
X114500000Y-88750000D03*
%TD*%
D11*
%TO.P,C1,1*%
%TO.N,GND*%
X114100000Y-72250000D03*
%TO.P,C1,2*%
%TO.N,+3V3*%
X116000000Y-72250000D03*
%TD*%
D12*
%TO.P,U1,1,IP+_1*%
%TO.N,Current+*%
X118655000Y-63025000D03*
%TO.P,U1,2,IP+_2*%
X117385000Y-63025000D03*
%TO.P,U1,3,IP-_3*%
%TO.N,Current-*%
X116115000Y-63025000D03*
%TO.P,U1,4,IP-_4*%
X114845000Y-63025000D03*
%TO.P,U1,5,GND_5*%
%TO.N,GND*%
X114845000Y-67975000D03*
%TO.P,U1,6,~{FAULT}_6*%
%TO.N,unconnected-(U1-~{FAULT}-Pad6)*%
X116115000Y-67975000D03*
%TO.P,U1,7,VIOUT_7*%
%TO.N,Net-(U1-VIOUT)*%
X117385000Y-67975000D03*
%TO.P,U1,8,VCC_8*%
%TO.N,+3V3*%
X118655000Y-67975000D03*
%TD*%
D13*
%TO.P,R2,1*%
%TO.N,Net-(U2-VIN+)*%
X121350000Y-102000000D03*
%TO.P,R2,2*%
%TO.N,GND*%
X108650000Y-102000000D03*
%TD*%
%TO.P,R3,1*%
%TO.N,+3V3*%
X105000000Y-74400000D03*
%TO.P,R3,2*%
%TO.N,Net-(D1-K)*%
X105000000Y-87100000D03*
%TD*%
%TO.P,R1,1*%
%TO.N,+3V3*%
X108650000Y-96000000D03*
%TO.P,R1,2*%
%TO.N,Net-(U2-VIN+)*%
X121350000Y-96000000D03*
%TD*%
D14*
%TO.P,D1,1,K_1*%
%TO.N,Net-(D1-K)*%
X102750000Y-95000000D03*
D15*
%TO.P,D1,2,A_2*%
%TO.N,Net-(D1-A)*%
X100210000Y-95000000D03*
%TD*%
D16*
%TO.P,J2,1,Pin_1_1*%
%TO.N,+3V3*%
X103000000Y-55837500D03*
D17*
%TO.P,J2,2,Pin_2_2*%
%TO.N,GND*%
X98000000Y-55837500D03*
%TD*%
D13*
%TO.P,R4,1*%
%TO.N,+3V3*%
X98500000Y-74400000D03*
%TO.P,R4,2*%
%TO.N,Net-(D1-A)*%
X98500000Y-87100000D03*
%TD*%
D16*
%TO.P,J1,1,Pin_1_1*%
%TO.N,Current+*%
X119500000Y-55837500D03*
D17*
%TO.P,J1,2,Pin_2_2*%
%TO.N,Current-*%
X114500000Y-55837500D03*
%TD*%
D18*
%TO.P,U2,1,NC_1*%
%TO.N,unconnected-(U2-NC-Pad1)*%
X118310000Y-76940000D03*
D19*
%TO.P,U2,2,VIN-_2*%
%TO.N,Net-(U1-VIOUT)*%
X118310000Y-79480000D03*
%TO.P,U2,3,VIN+_3*%
%TO.N,Net-(U2-VIN+)*%
X118310000Y-82020000D03*
%TO.P,U2,4,VSS_4*%
%TO.N,GND*%
X118310000Y-84560000D03*
%TO.P,U2,5,NC_5*%
%TO.N,unconnected-(U2-NC-Pad5)*%
X110690000Y-84560000D03*
%TO.P,U2,6,OUT_6*%
%TO.N,Net-(D1-K)*%
X110690000Y-82020000D03*
%TO.P,U2,7,VDD_7*%
%TO.N,+3V3*%
X110690000Y-79480000D03*
%TO.P,U2,8,NC_8*%
%TO.N,unconnected-(U2-NC-Pad8)*%
X110690000Y-76940000D03*
%TD*%
%TO.N,+3V3*%
D20*
X101750000Y-71150000D02*
X101750000Y-57087500D01*
X118655000Y-69595000D02*
X116000000Y-72250000D01*
X98500000Y-74400000D02*
X101750000Y-71150000D01*
X107480000Y-79480000D02*
X105000000Y-77000000D01*
X110690000Y-79480000D02*
X114500000Y-83290000D01*
X101750000Y-57087500D02*
X103000000Y-55837500D01*
X101750000Y-71150000D02*
X105000000Y-74400000D01*
X112520000Y-79480000D02*
X110690000Y-79480000D01*
X116000000Y-72250000D02*
X116000000Y-76000000D01*
X114500000Y-88750000D02*
X111750000Y-88750000D01*
X108650000Y-91850000D02*
X108650000Y-96000000D01*
X118655000Y-67975000D02*
X118655000Y-69595000D01*
X116000000Y-76000000D02*
X112520000Y-79480000D01*
X111750000Y-88750000D02*
X108650000Y-91850000D01*
X114500000Y-83290000D02*
X114500000Y-88750000D01*
X110690000Y-79480000D02*
X107480000Y-79480000D01*
X105000000Y-77000000D02*
X105000000Y-74400000D01*
%TO.N,Net-(U2-VIN+)*%
X121350000Y-96000000D02*
X121350000Y-83350000D01*
X121350000Y-96000000D02*
X121350000Y-102000000D01*
X120020000Y-82020000D02*
X118310000Y-82020000D01*
X121350000Y-83350000D02*
X120020000Y-82020000D01*
%TO.N,Net-(D1-K)*%
X110690000Y-82020000D02*
X107480000Y-82020000D01*
X105000000Y-84500000D02*
X105000000Y-87100000D01*
X105000000Y-92750000D02*
X102750000Y-95000000D01*
X107480000Y-82020000D02*
X105000000Y-84500000D01*
X105000000Y-87100000D02*
X105000000Y-92750000D01*
%TO.N,Net-(D1-A)*%
X100210000Y-95000000D02*
X98500000Y-93290000D01*
X98500000Y-93290000D02*
X98500000Y-87100000D01*
%TO.N,Net-(U1-VIOUT)*%
X121500000Y-76290000D02*
X118310000Y-79480000D01*
X119750000Y-66250000D02*
X121500000Y-68000000D01*
X121500000Y-68000000D02*
X121500000Y-76290000D01*
X118128052Y-66250000D02*
X119750000Y-66250000D01*
X117385000Y-66993052D02*
X118128052Y-66250000D01*
X117385000Y-67975000D02*
X117385000Y-66993052D01*
%TD*%
%TA.AperFunction,Conductor*%
%TO.N,Current+*%
G36*
X122143106Y-51505523D02*
G01*
X122158104Y-51509927D01*
X122216855Y-51547672D01*
X122218042Y-51549041D01*
X122245518Y-51603902D01*
X122247163Y-51611460D01*
X122250000Y-51637831D01*
X122250000Y-63858170D01*
X122244975Y-63893114D01*
X122240570Y-63908112D01*
X122202827Y-63966855D01*
X122201458Y-63968042D01*
X122146597Y-63995518D01*
X122139039Y-63997163D01*
X122112668Y-64000000D01*
X117557330Y-64000000D01*
X117522389Y-63994975D01*
X117507390Y-63990570D01*
X117448644Y-63952827D01*
X117447457Y-63951458D01*
X117419977Y-63896583D01*
X117418332Y-63889021D01*
X117415500Y-63862668D01*
X117415500Y-62128980D01*
X117409647Y-62044667D01*
X117409526Y-62041185D01*
X117409218Y-62038971D01*
X117408063Y-62034898D01*
X117389755Y-61957060D01*
X117360847Y-61834154D01*
X117360565Y-61832890D01*
X117360532Y-61832815D01*
X117274409Y-61637763D01*
X117274406Y-61637758D01*
X117271619Y-61632754D01*
X117273737Y-61631574D01*
X117255323Y-61575082D01*
X117255428Y-61565137D01*
X117255498Y-61563743D01*
X117255500Y-61563731D01*
X117255500Y-51624500D01*
X117275185Y-51557461D01*
X117327989Y-51511706D01*
X117379500Y-51500500D01*
X122108170Y-51500500D01*
X122143106Y-51505523D01*
G37*
%TD.AperFunction*%
%TD*%
%TA.AperFunction,Conductor*%
%TO.N,Current-*%
G36*
X116193039Y-51520185D02*
G01*
X116238794Y-51572989D01*
X116250000Y-51624500D01*
X116250000Y-61563731D01*
X116230315Y-61630770D01*
X116228302Y-61633805D01*
X116225592Y-61637760D01*
X116139467Y-61832817D01*
X116139465Y-61832823D01*
X116090652Y-62040359D01*
X116090650Y-62040375D01*
X116084500Y-62128984D01*
X116084500Y-63876000D01*
X116064815Y-63943039D01*
X116012011Y-63988794D01*
X115960500Y-64000000D01*
X109624000Y-64000000D01*
X109556961Y-63980315D01*
X109511206Y-63927511D01*
X109500000Y-63876000D01*
X109500000Y-51624500D01*
X109519685Y-51557461D01*
X109572489Y-51511706D01*
X109624000Y-51500500D01*
X116126000Y-51500500D01*
X116193039Y-51520185D01*
G37*
%TD.AperFunction*%
%TD*%
%TA.AperFunction,Conductor*%
%TO.N,GND*%
G36*
X108437539Y-51520185D02*
G01*
X108483294Y-51572989D01*
X108494500Y-51624500D01*
X108494500Y-63875989D01*
X108494566Y-63887579D01*
X108494567Y-63887593D01*
X108517481Y-64089745D01*
X108528685Y-64141246D01*
X108553217Y-64232941D01*
X108634306Y-64419524D01*
X108634310Y-64419531D01*
X108751294Y-64585966D01*
X108751300Y-64585974D01*
X108797055Y-64638778D01*
X108916168Y-64755179D01*
X109085264Y-64868308D01*
X109273671Y-64945083D01*
X109273677Y-64945085D01*
X109288687Y-64949492D01*
X109340710Y-64964768D01*
X109421594Y-64984917D01*
X109556531Y-64998639D01*
X109623999Y-65005500D01*
X109624000Y-65005500D01*
X115626000Y-65005500D01*
X115693039Y-65025185D01*
X115738794Y-65077989D01*
X115750000Y-65129500D01*
X115750000Y-65902625D01*
X115744975Y-65937569D01*
X115740570Y-65952567D01*
X115702802Y-66011332D01*
X115696678Y-66016639D01*
X115643863Y-66043636D01*
X115597822Y-66054465D01*
X115402759Y-66140593D01*
X115226859Y-66261087D01*
X115226846Y-66261098D01*
X115226838Y-66261105D01*
X115076105Y-66411838D01*
X115076098Y-66411846D01*
X115076087Y-66411859D01*
X114955593Y-66587759D01*
X114869464Y-66782824D01*
X114843787Y-66891995D01*
X114830908Y-66924836D01*
X114827892Y-66930147D01*
X114777670Y-66978722D01*
X114709159Y-66992434D01*
X114644111Y-66966930D01*
X114603177Y-66910306D01*
X114603166Y-66910276D01*
X114602838Y-66909350D01*
X114602100Y-66907265D01*
X114595000Y-66865905D01*
X114595000Y-66502703D01*
X114592505Y-66502899D01*
X114592497Y-66502901D01*
X114434833Y-66548707D01*
X114434802Y-66548717D01*
X114434799Y-66548718D01*
X114293452Y-66632310D01*
X114293447Y-66632313D01*
X114293436Y-66632322D01*
X114177322Y-66748436D01*
X114177313Y-66748447D01*
X114177310Y-66748452D01*
X114093718Y-66889799D01*
X114093717Y-66889802D01*
X114093707Y-66889833D01*
X114047902Y-67047493D01*
X114047901Y-67047497D01*
X114047900Y-67047504D01*
X114047899Y-67047510D01*
X114045000Y-67084350D01*
X114045000Y-67725000D01*
X114595000Y-67725000D01*
X114598597Y-67723509D01*
X114618457Y-67708641D01*
X114628391Y-67703217D01*
X114696661Y-67688364D01*
X114762126Y-67712778D01*
X114803999Y-67768710D01*
X114804001Y-67768714D01*
X114806682Y-67775902D01*
X114814500Y-67819236D01*
X114814500Y-68127308D01*
X114809476Y-68162246D01*
X114806289Y-68173099D01*
X114768514Y-68231876D01*
X114704957Y-68260899D01*
X114635807Y-68250958D01*
X114628829Y-68247771D01*
X114597558Y-68226059D01*
X114595000Y-68225000D01*
X114594999Y-68225000D01*
X114045000Y-68225000D01*
X114045000Y-68865654D01*
X114047899Y-68902487D01*
X114047901Y-68902501D01*
X114047902Y-68902505D01*
X114093707Y-69060165D01*
X114093717Y-69060196D01*
X114093718Y-69060199D01*
X114177310Y-69201546D01*
X114177314Y-69201552D01*
X114177321Y-69201561D01*
X114293438Y-69317678D01*
X114293447Y-69317685D01*
X114434801Y-69401281D01*
X114499408Y-69420050D01*
X114534660Y-69442563D01*
X114592509Y-69447098D01*
X114592514Y-69447100D01*
X114592511Y-69447100D01*
X114594998Y-69447295D01*
X114595000Y-69447295D01*
X114595000Y-69447294D01*
X114595000Y-69086868D01*
X114600018Y-69051951D01*
X114600647Y-69049805D01*
X114601739Y-69046088D01*
X114639503Y-68987306D01*
X114703055Y-68958272D01*
X114772215Y-68968205D01*
X114825025Y-69013952D01*
X114825027Y-69013955D01*
X114826753Y-69016640D01*
X114843152Y-69055302D01*
X114869463Y-69167169D01*
X114869465Y-69167176D01*
X114869467Y-69167182D01*
X114869468Y-69167185D01*
X114955591Y-69362237D01*
X114955592Y-69362238D01*
X115076088Y-69538141D01*
X115076093Y-69538147D01*
X115076098Y-69538152D01*
X115076105Y-69538160D01*
X115226838Y-69688893D01*
X115226852Y-69688906D01*
X115226858Y-69688911D01*
X115402763Y-69809409D01*
X115597815Y-69895532D01*
X115637037Y-69904756D01*
X115669890Y-69917642D01*
X115683482Y-69925363D01*
X115732043Y-69975577D01*
X115735807Y-69982752D01*
X115750000Y-70040357D01*
X115750000Y-70386992D01*
X115744975Y-70421936D01*
X115740570Y-70436934D01*
X115702803Y-70495698D01*
X115699482Y-70498576D01*
X115649364Y-70524907D01*
X115646252Y-70525713D01*
X115624892Y-70529292D01*
X115560157Y-70534386D01*
X115553585Y-70534904D01*
X115553579Y-70534905D01*
X115553572Y-70534906D01*
X115553550Y-70534911D01*
X115335334Y-70589897D01*
X115335333Y-70589898D01*
X115335309Y-70589906D01*
X115130384Y-70682986D01*
X115130374Y-70682992D01*
X115130368Y-70682995D01*
X115130362Y-70682999D01*
X114945359Y-70811169D01*
X114945354Y-70811174D01*
X114945351Y-70811176D01*
X114786184Y-70970341D01*
X114759543Y-71008795D01*
X114735517Y-71034652D01*
X114723352Y-71044475D01*
X114658828Y-71071276D01*
X114658827Y-71071276D01*
X114649353Y-71072304D01*
X114596973Y-71066734D01*
X114529799Y-71044475D01*
X114502697Y-71035494D01*
X114502695Y-71035493D01*
X114502694Y-71035493D01*
X114399991Y-71025000D01*
X114399986Y-71025000D01*
X114350000Y-71025000D01*
X114350000Y-73474999D01*
X114399960Y-73474999D01*
X114399972Y-73474999D01*
X114399986Y-73474998D01*
X114502695Y-73464506D01*
X114569574Y-73442344D01*
X114604304Y-73436125D01*
X114614367Y-73435778D01*
X114618176Y-73435647D01*
X114685853Y-73453011D01*
X114733398Y-73504206D01*
X114736452Y-73510326D01*
X114749500Y-73565693D01*
X114749500Y-75412834D01*
X114744476Y-75447771D01*
X114737064Y-75473012D01*
X114705769Y-75525756D01*
X112623904Y-77607620D01*
X112595654Y-77628769D01*
X112585727Y-77634190D01*
X112517454Y-77649044D01*
X112451989Y-77624630D01*
X112410116Y-77568698D01*
X112409884Y-77568077D01*
X112402641Y-77513014D01*
X112402855Y-77510774D01*
X112406516Y-77490467D01*
X112459693Y-77292014D01*
X112490500Y-77058011D01*
X112490500Y-76821989D01*
X112459693Y-76587986D01*
X112398606Y-76360007D01*
X112308481Y-76142427D01*
X112308189Y-76141710D01*
X112307374Y-76140241D01*
X112306294Y-76138503D01*
X112212590Y-75976204D01*
X112212590Y-75976203D01*
X112190276Y-75937554D01*
X112190275Y-75937552D01*
X112046595Y-75750305D01*
X112046589Y-75750297D01*
X112046574Y-75750281D01*
X111879712Y-75583420D01*
X111879704Y-75583412D01*
X111879697Y-75583406D01*
X111879694Y-75583403D01*
X111879689Y-75583399D01*
X111694040Y-75440947D01*
X111692776Y-75439944D01*
X111692447Y-75439725D01*
X111692445Y-75439723D01*
X111610957Y-75392677D01*
X111610955Y-75392675D01*
X111488065Y-75321724D01*
X111488048Y-75321715D01*
X111269997Y-75231395D01*
X111042006Y-75170305D01*
X110809889Y-75139747D01*
X110808208Y-75139500D01*
X110808017Y-75139500D01*
X110808011Y-75139500D01*
X110571989Y-75139500D01*
X110571983Y-75139500D01*
X110571981Y-75139500D01*
X110565861Y-75140253D01*
X110564955Y-75140425D01*
X110337992Y-75170305D01*
X110110001Y-75231395D01*
X109891950Y-75321715D01*
X109891947Y-75321717D01*
X109891943Y-75321719D01*
X109769042Y-75392677D01*
X109687545Y-75439730D01*
X109687536Y-75439736D01*
X109500309Y-75583399D01*
X109500294Y-75583413D01*
X109500286Y-75583420D01*
X109333420Y-75750286D01*
X109333413Y-75750294D01*
X109333399Y-75750309D01*
X109189736Y-75937536D01*
X109189730Y-75937545D01*
X109071719Y-76141942D01*
X109071715Y-76141950D01*
X108981395Y-76360001D01*
X108920305Y-76587992D01*
X108889503Y-76821963D01*
X108889500Y-76821987D01*
X108889500Y-77058011D01*
X108889503Y-77058035D01*
X108920305Y-77292006D01*
X108981395Y-77519997D01*
X109071715Y-77738048D01*
X109071724Y-77738065D01*
X109142675Y-77860954D01*
X109142677Y-77860957D01*
X109189723Y-77942445D01*
X109189725Y-77942447D01*
X109189944Y-77942776D01*
X109190947Y-77944040D01*
X109246063Y-78015869D01*
X109263344Y-78046639D01*
X109267842Y-78058273D01*
X109273657Y-78127900D01*
X109240906Y-78189618D01*
X109183575Y-78222950D01*
X109173979Y-78225461D01*
X109142589Y-78229500D01*
X108067166Y-78229500D01*
X108032230Y-78224477D01*
X108006988Y-78217065D01*
X107954243Y-78185769D01*
X106299426Y-76530952D01*
X106278274Y-76502696D01*
X106265667Y-76479607D01*
X106250500Y-76420182D01*
X106250500Y-76293106D01*
X106255522Y-76258173D01*
X106262040Y-76235976D01*
X106289762Y-76186957D01*
X106291764Y-76184780D01*
X106307517Y-76170376D01*
X106344562Y-76141951D01*
X106454004Y-76057974D01*
X106657974Y-75854004D01*
X106833575Y-75625156D01*
X106977804Y-75375345D01*
X107000017Y-75321719D01*
X107086508Y-75112909D01*
X107087338Y-75111089D01*
X107087520Y-75110611D01*
X107088474Y-75108204D01*
X107089221Y-75104998D01*
X107162849Y-74830217D01*
X107200500Y-74544228D01*
X107200500Y-74255772D01*
X107162849Y-73969783D01*
X107089734Y-73696913D01*
X107089408Y-73695412D01*
X107088504Y-73692254D01*
X107088148Y-73690970D01*
X107087525Y-73689400D01*
X107087341Y-73688915D01*
X107086511Y-73687097D01*
X106994311Y-73464505D01*
X106977808Y-73424663D01*
X106977800Y-73424647D01*
X106901833Y-73293069D01*
X106833710Y-73175077D01*
X106833580Y-73174851D01*
X106833580Y-73174850D01*
X106657977Y-72946000D01*
X106657971Y-72945992D01*
X106657956Y-72945976D01*
X106486974Y-72774995D01*
X113100001Y-72774995D01*
X113110493Y-72877694D01*
X113110493Y-72877695D01*
X113110494Y-72877697D01*
X113165641Y-73044119D01*
X113165643Y-73044124D01*
X113257684Y-73193345D01*
X113381654Y-73317315D01*
X113530875Y-73409356D01*
X113530880Y-73409358D01*
X113697299Y-73464504D01*
X113697300Y-73464504D01*
X113697302Y-73464505D01*
X113697309Y-73464506D01*
X113800019Y-73474999D01*
X113849999Y-73474998D01*
X113850000Y-73474998D01*
X113850000Y-72500000D01*
X113100001Y-72500000D01*
X113100001Y-72774995D01*
X106486974Y-72774995D01*
X106454017Y-72742038D01*
X106454009Y-72742030D01*
X106454002Y-72742024D01*
X106453999Y-72742021D01*
X106453994Y-72742017D01*
X106231847Y-72571559D01*
X106231846Y-72571558D01*
X106225164Y-72566431D01*
X106225162Y-72566430D01*
X106225156Y-72566425D01*
X106207140Y-72556023D01*
X105975352Y-72422199D01*
X105975342Y-72422193D01*
X105975332Y-72422189D01*
X105708869Y-72311817D01*
X105708851Y-72311810D01*
X105708840Y-72311807D01*
X105430221Y-72237152D01*
X105430219Y-72237151D01*
X105430217Y-72237151D01*
X105430211Y-72237150D01*
X105430206Y-72237149D01*
X105430201Y-72237148D01*
X105148328Y-72200039D01*
X105146312Y-72199705D01*
X105144238Y-72199500D01*
X105144233Y-72199500D01*
X105144228Y-72199500D01*
X104855772Y-72199500D01*
X104855771Y-72199500D01*
X104855769Y-72199500D01*
X104679756Y-72222671D01*
X104644468Y-72222252D01*
X104634935Y-72220765D01*
X104621615Y-72218688D01*
X104569397Y-72197603D01*
X104566985Y-72195907D01*
X104550628Y-72182154D01*
X104093481Y-71725007D01*
X113100000Y-71725007D01*
X113100000Y-71725013D01*
X113100000Y-72000000D01*
X113850000Y-72000000D01*
X113850000Y-71025000D01*
X113849999Y-71024999D01*
X113800048Y-71024999D01*
X113800021Y-71025000D01*
X113799983Y-71025003D01*
X113697308Y-71035493D01*
X113697300Y-71035494D01*
X113530887Y-71090638D01*
X113530879Y-71090641D01*
X113530877Y-71090642D01*
X113530875Y-71090643D01*
X113431394Y-71152003D01*
X113381652Y-71182685D01*
X113257685Y-71306652D01*
X113165641Y-71455879D01*
X113165638Y-71455888D01*
X113110494Y-71622299D01*
X113110493Y-71622304D01*
X113100000Y-71725007D01*
X104093481Y-71725007D01*
X103049426Y-70680952D01*
X103028274Y-70652696D01*
X103015667Y-70629607D01*
X103000500Y-70570182D01*
X103000500Y-57954828D01*
X103005523Y-57919892D01*
X103009927Y-57904894D01*
X103047672Y-57846143D01*
X103049041Y-57844956D01*
X103103920Y-57817476D01*
X103111479Y-57815832D01*
X103137832Y-57812999D01*
X104033028Y-57812999D01*
X104033036Y-57812999D01*
X104152418Y-57802386D01*
X104348049Y-57746409D01*
X104528407Y-57652198D01*
X104686109Y-57523609D01*
X104814698Y-57365907D01*
X104908909Y-57185549D01*
X104964886Y-56989918D01*
X104975500Y-56870537D01*
X104975499Y-54804464D01*
X104964886Y-54685082D01*
X104908909Y-54489451D01*
X104814698Y-54309093D01*
X104718737Y-54191406D01*
X104718736Y-54191404D01*
X104686111Y-54151392D01*
X104686110Y-54151391D01*
X104592807Y-54075313D01*
X104580704Y-54057667D01*
X104528404Y-54022800D01*
X104352019Y-53930665D01*
X104348836Y-53928853D01*
X104348042Y-53928588D01*
X104230829Y-53895050D01*
X104154981Y-53873347D01*
X104152825Y-53872679D01*
X104150347Y-53872277D01*
X104146936Y-53872126D01*
X104137628Y-53871298D01*
X104086102Y-53866717D01*
X104086101Y-53866716D01*
X104033039Y-53862000D01*
X104033037Y-53862000D01*
X104033032Y-53862000D01*
X101966971Y-53862000D01*
X101966965Y-53862000D01*
X101954897Y-53862000D01*
X101948042Y-53863682D01*
X101847582Y-53872613D01*
X101651954Y-53928589D01*
X101586414Y-53962824D01*
X101472533Y-54022310D01*
X101471647Y-54022762D01*
X101469242Y-54024496D01*
X101466716Y-54026778D01*
X101313887Y-54151392D01*
X101185306Y-54309086D01*
X101091088Y-54489455D01*
X101035848Y-54682516D01*
X101035236Y-54684492D01*
X101035113Y-54685081D01*
X101024500Y-54804467D01*
X101024500Y-55975333D01*
X101019476Y-56010270D01*
X101012064Y-56035511D01*
X100980769Y-56088255D01*
X100796175Y-56272850D01*
X100795764Y-56273351D01*
X100794698Y-56274882D01*
X100746485Y-56341241D01*
X100680474Y-56432095D01*
X100590667Y-56608355D01*
X100590265Y-56609780D01*
X100588856Y-56614424D01*
X100530291Y-56794665D01*
X100528765Y-56804306D01*
X100528764Y-56804313D01*
X100499500Y-56989077D01*
X100499500Y-70562833D01*
X100494476Y-70597770D01*
X100487064Y-70623011D01*
X100455769Y-70675755D01*
X98954390Y-72177133D01*
X98926135Y-72198285D01*
X98905834Y-72209370D01*
X98851595Y-72224428D01*
X98848657Y-72224551D01*
X98827285Y-72223599D01*
X98648328Y-72200039D01*
X98646312Y-72199705D01*
X98644238Y-72199500D01*
X98644233Y-72199500D01*
X98644228Y-72199500D01*
X98355772Y-72199500D01*
X98355766Y-72199500D01*
X98355761Y-72199500D01*
X98353684Y-72199705D01*
X98351670Y-72200039D01*
X98069814Y-72237146D01*
X98069782Y-72237150D01*
X98067973Y-72237577D01*
X98066197Y-72238111D01*
X97791150Y-72311810D01*
X97791130Y-72311817D01*
X97524656Y-72422193D01*
X97524653Y-72422195D01*
X97524648Y-72422198D01*
X97274855Y-72566417D01*
X97274851Y-72566420D01*
X97274837Y-72566430D01*
X97274824Y-72566439D01*
X97046004Y-72742017D01*
X97045989Y-72742031D01*
X97045981Y-72742038D01*
X96842038Y-72945981D01*
X96842031Y-72945989D01*
X96842017Y-72946004D01*
X96666439Y-73174824D01*
X96666429Y-73174838D01*
X96666417Y-73174855D01*
X96522198Y-73424648D01*
X96522195Y-73424653D01*
X96522193Y-73424656D01*
X96411817Y-73691130D01*
X96411815Y-73691136D01*
X96411814Y-73691139D01*
X96411809Y-73691155D01*
X96384483Y-73793133D01*
X96337153Y-73969772D01*
X96337150Y-73969789D01*
X96337147Y-73969802D01*
X96299501Y-74255754D01*
X96299500Y-74255783D01*
X96299500Y-74544215D01*
X96299501Y-74544244D01*
X96337149Y-74830208D01*
X96337263Y-74830900D01*
X96337998Y-74833378D01*
X96411809Y-75108844D01*
X96411814Y-75108860D01*
X96411816Y-75108865D01*
X96411817Y-75108868D01*
X96522193Y-75375342D01*
X96522195Y-75375345D01*
X96522199Y-75375352D01*
X96578584Y-75473012D01*
X96642323Y-75583412D01*
X96666420Y-75625148D01*
X96666431Y-75625164D01*
X96666439Y-75625174D01*
X96842017Y-75853994D01*
X96842021Y-75853999D01*
X96842024Y-75854002D01*
X96842030Y-75854009D01*
X96842038Y-75854017D01*
X97045976Y-76057956D01*
X97045990Y-76057969D01*
X97045996Y-76057974D01*
X97241824Y-76208238D01*
X97274851Y-76233580D01*
X97275077Y-76233710D01*
X97347073Y-76275277D01*
X97524647Y-76377800D01*
X97524663Y-76377808D01*
X97626964Y-76420182D01*
X97787097Y-76486511D01*
X97788915Y-76487341D01*
X97789400Y-76487525D01*
X97790970Y-76488148D01*
X97792254Y-76488504D01*
X97795412Y-76489408D01*
X97796913Y-76489734D01*
X97827606Y-76497958D01*
X98069783Y-76562849D01*
X98355772Y-76600500D01*
X98358170Y-76600500D01*
X98393106Y-76605523D01*
X98408104Y-76609927D01*
X98466855Y-76647672D01*
X98468042Y-76649041D01*
X98495518Y-76703902D01*
X98497163Y-76711460D01*
X98500000Y-76737831D01*
X98500000Y-84757670D01*
X98494975Y-84792614D01*
X98490570Y-84807612D01*
X98452827Y-84866355D01*
X98451458Y-84867542D01*
X98396597Y-84895018D01*
X98389039Y-84896663D01*
X98362668Y-84899500D01*
X98355761Y-84899500D01*
X98353684Y-84899705D01*
X98351670Y-84900039D01*
X98069814Y-84937146D01*
X98069782Y-84937150D01*
X98067973Y-84937577D01*
X98066197Y-84938111D01*
X97791150Y-85011810D01*
X97791130Y-85011817D01*
X97524656Y-85122193D01*
X97524653Y-85122195D01*
X97524648Y-85122198D01*
X97274855Y-85266417D01*
X97274838Y-85266429D01*
X97274824Y-85266439D01*
X97046004Y-85442017D01*
X97045989Y-85442031D01*
X97045981Y-85442038D01*
X96842038Y-85645981D01*
X96842031Y-85645989D01*
X96842017Y-85646004D01*
X96666439Y-85874824D01*
X96666429Y-85874838D01*
X96666417Y-85874855D01*
X96522198Y-86124648D01*
X96522195Y-86124653D01*
X96522193Y-86124656D01*
X96411817Y-86391130D01*
X96411815Y-86391136D01*
X96411814Y-86391139D01*
X96411809Y-86391155D01*
X96384483Y-86493133D01*
X96337153Y-86669772D01*
X96337150Y-86669789D01*
X96337147Y-86669802D01*
X96299501Y-86955754D01*
X96299500Y-86955783D01*
X96299500Y-87244215D01*
X96299501Y-87244244D01*
X96336818Y-87527695D01*
X96337149Y-87530206D01*
X96337150Y-87530211D01*
X96337151Y-87530217D01*
X96411809Y-87808844D01*
X96411814Y-87808860D01*
X96411816Y-87808865D01*
X96411817Y-87808868D01*
X96522193Y-88075342D01*
X96522195Y-88075345D01*
X96522199Y-88075352D01*
X96666420Y-88325148D01*
X96666431Y-88325164D01*
X96666439Y-88325174D01*
X96842017Y-88553994D01*
X96842021Y-88553999D01*
X96842024Y-88554002D01*
X96842030Y-88554009D01*
X97045990Y-88757969D01*
X97045997Y-88757975D01*
X97046010Y-88757985D01*
X97046015Y-88757989D01*
X97186840Y-88866047D01*
X97211496Y-88891296D01*
X97225136Y-88909975D01*
X97247150Y-88961795D01*
X97247656Y-88964696D01*
X97249500Y-88986003D01*
X97249500Y-93388427D01*
X97280289Y-93582822D01*
X97280290Y-93582826D01*
X97341117Y-93770030D01*
X97430476Y-93945405D01*
X97546172Y-94104646D01*
X97546174Y-94104648D01*
X98260573Y-94819047D01*
X98281723Y-94847299D01*
X98294331Y-94870388D01*
X98309500Y-94929817D01*
X98309500Y-95124558D01*
X98309501Y-95124575D01*
X98331431Y-95291155D01*
X98332189Y-95296913D01*
X98342017Y-95371558D01*
X98342019Y-95371568D01*
X98395132Y-95569792D01*
X98406497Y-95612206D01*
X98406499Y-95612211D01*
X98501824Y-95842348D01*
X98501830Y-95842361D01*
X98501837Y-95842376D01*
X98509575Y-95855778D01*
X98626399Y-96058125D01*
X98778053Y-96255766D01*
X98778057Y-96255771D01*
X98778060Y-96255774D01*
X98778066Y-96255781D01*
X98954218Y-96431933D01*
X98954225Y-96431939D01*
X98954228Y-96431941D01*
X98954232Y-96431945D01*
X99151873Y-96583599D01*
X99367623Y-96708162D01*
X99367638Y-96708169D01*
X99466825Y-96749253D01*
X99597793Y-96803502D01*
X99838435Y-96867982D01*
X100085435Y-96900500D01*
X100085442Y-96900500D01*
X100334558Y-96900500D01*
X100334565Y-96900500D01*
X100581565Y-96867982D01*
X100822207Y-96803502D01*
X101048323Y-96709841D01*
X101051515Y-96708650D01*
X101053276Y-96707753D01*
X101055803Y-96706183D01*
X101083203Y-96690364D01*
X101115958Y-96677250D01*
X101131152Y-96673564D01*
X101200937Y-96676884D01*
X101212531Y-96680897D01*
X101250327Y-96701972D01*
X101296593Y-96739698D01*
X101476951Y-96833909D01*
X101672582Y-96889886D01*
X101791963Y-96900500D01*
X103708036Y-96900499D01*
X103827418Y-96889886D01*
X104023049Y-96833909D01*
X104203407Y-96739698D01*
X104361109Y-96611109D01*
X104489698Y-96453407D01*
X104583909Y-96273049D01*
X104631414Y-96107023D01*
X104645854Y-96074820D01*
X104647330Y-96072489D01*
X104654212Y-96061614D01*
X104706697Y-96015497D01*
X104715156Y-96011563D01*
X104767443Y-96000000D01*
X106307670Y-96000000D01*
X106342606Y-96005023D01*
X106357604Y-96009427D01*
X106416355Y-96047172D01*
X106417542Y-96048541D01*
X106445018Y-96103402D01*
X106446663Y-96110960D01*
X106449500Y-96137331D01*
X106449500Y-96144215D01*
X106449501Y-96144244D01*
X106466459Y-96273049D01*
X106487149Y-96430206D01*
X106487150Y-96430211D01*
X106487151Y-96430217D01*
X106556178Y-96687831D01*
X106557492Y-96692733D01*
X106561810Y-96708848D01*
X106561816Y-96708865D01*
X106672193Y-96975342D01*
X106672195Y-96975345D01*
X106672199Y-96975352D01*
X106816420Y-97225148D01*
X106816431Y-97225164D01*
X106816439Y-97225174D01*
X106992017Y-97453994D01*
X106992021Y-97453999D01*
X106992024Y-97454002D01*
X106992030Y-97454009D01*
X106992038Y-97454017D01*
X107195976Y-97657956D01*
X107195988Y-97657967D01*
X107195990Y-97657969D01*
X107195996Y-97657974D01*
X107424522Y-97833328D01*
X107424851Y-97833580D01*
X107425077Y-97833710D01*
X107497073Y-97875277D01*
X107674647Y-97977800D01*
X107674663Y-97977808D01*
X107807572Y-98032860D01*
X107937097Y-98086511D01*
X107938915Y-98087341D01*
X107939400Y-98087525D01*
X107940970Y-98088148D01*
X107942254Y-98088504D01*
X107945412Y-98089408D01*
X107946913Y-98089734D01*
X107977606Y-98097958D01*
X108219783Y-98162849D01*
X108505772Y-98200500D01*
X108505779Y-98200500D01*
X108794221Y-98200500D01*
X108794228Y-98200500D01*
X109080217Y-98162849D01*
X109354998Y-98089221D01*
X109358209Y-98088473D01*
X109360595Y-98087527D01*
X109361074Y-98087345D01*
X109362901Y-98086511D01*
X109621302Y-97979478D01*
X109623162Y-97978784D01*
X109623622Y-97978578D01*
X109625412Y-97977804D01*
X109627048Y-97976895D01*
X109628770Y-97975826D01*
X109875156Y-97833575D01*
X110104004Y-97657974D01*
X110307974Y-97454004D01*
X110483575Y-97225156D01*
X110627804Y-96975345D01*
X110658807Y-96900498D01*
X110736511Y-96712901D01*
X110737338Y-96711088D01*
X110737520Y-96710611D01*
X110738474Y-96708204D01*
X110739221Y-96704998D01*
X110812849Y-96430217D01*
X110850500Y-96144228D01*
X110850500Y-95855772D01*
X110812849Y-95569783D01*
X110739734Y-95296913D01*
X110739408Y-95295412D01*
X110738504Y-95292254D01*
X110738148Y-95290970D01*
X110737525Y-95289400D01*
X110737341Y-95288915D01*
X110736511Y-95287097D01*
X110669193Y-95124576D01*
X110627808Y-95024663D01*
X110627800Y-95024647D01*
X110509096Y-94819047D01*
X110483710Y-94775077D01*
X110483580Y-94774851D01*
X110483580Y-94774850D01*
X110307977Y-94546000D01*
X110307971Y-94545992D01*
X110307956Y-94545976D01*
X110104014Y-94342034D01*
X109963156Y-94233949D01*
X109938497Y-94208695D01*
X109924860Y-94190018D01*
X109902848Y-94138188D01*
X109902342Y-94135285D01*
X109900500Y-94113993D01*
X109900500Y-92437165D01*
X109905522Y-92402232D01*
X109912934Y-92376987D01*
X109944228Y-92324245D01*
X111318478Y-90949995D01*
X113275001Y-90949995D01*
X113285493Y-91052694D01*
X113285493Y-91052695D01*
X113285494Y-91052697D01*
X113340641Y-91219119D01*
X113340643Y-91219124D01*
X113432684Y-91368345D01*
X113556654Y-91492315D01*
X113705875Y-91584356D01*
X113705880Y-91584358D01*
X113872299Y-91639504D01*
X113872300Y-91639504D01*
X113872302Y-91639505D01*
X113872309Y-91639506D01*
X113975019Y-91649999D01*
X114249999Y-91649999D01*
X114750000Y-91649999D01*
X115024960Y-91649999D01*
X115024972Y-91649999D01*
X115024986Y-91649998D01*
X115127697Y-91639505D01*
X115294119Y-91584358D01*
X115294124Y-91584356D01*
X115443345Y-91492315D01*
X115567315Y-91368345D01*
X115659356Y-91219124D01*
X115659358Y-91219119D01*
X115714505Y-91052697D01*
X115714506Y-91052690D01*
X115724999Y-90949986D01*
X115725000Y-90949973D01*
X115725000Y-90900000D01*
X114750000Y-90900000D01*
X114750000Y-91649999D01*
X114249999Y-91649999D01*
X114250000Y-91649998D01*
X114250000Y-90900000D01*
X113275001Y-90900000D01*
X113275001Y-90949995D01*
X111318478Y-90949995D01*
X112219050Y-90049423D01*
X112247300Y-90028275D01*
X112270392Y-90015667D01*
X112329817Y-90000500D01*
X113177726Y-90000500D01*
X113212658Y-90005521D01*
X113225977Y-90009432D01*
X113284755Y-90047206D01*
X113313781Y-90110761D01*
X113313781Y-90110767D01*
X113314754Y-90117536D01*
X113309722Y-90174182D01*
X113285496Y-90247292D01*
X113285493Y-90247304D01*
X113275000Y-90350005D01*
X113275000Y-90350013D01*
X113275000Y-90400000D01*
X115724999Y-90400000D01*
X115724999Y-90350028D01*
X115724998Y-90350013D01*
X115714506Y-90247304D01*
X115685067Y-90158465D01*
X115678846Y-90123729D01*
X115678400Y-90110767D01*
X115678308Y-90108104D01*
X115695673Y-90040432D01*
X115700554Y-90032230D01*
X115736492Y-89993720D01*
X115779654Y-89963819D01*
X115938819Y-89804654D01*
X116067007Y-89619626D01*
X116160096Y-89414683D01*
X116215096Y-89196412D01*
X116225500Y-89064217D01*
X116225499Y-88435784D01*
X116215096Y-88303588D01*
X116160096Y-88085317D01*
X116067007Y-87880374D01*
X116067005Y-87880371D01*
X116067003Y-87880367D01*
X116017462Y-87808860D01*
X115943849Y-87702606D01*
X115942919Y-87701035D01*
X115939509Y-87696305D01*
X115938862Y-87695389D01*
X115799426Y-87555953D01*
X115778273Y-87527695D01*
X115765666Y-87504605D01*
X115750500Y-87445182D01*
X115750500Y-83191579D01*
X115750500Y-83191577D01*
X115745657Y-83161006D01*
X115745154Y-83125718D01*
X115746933Y-83111952D01*
X115775047Y-83047989D01*
X115833279Y-83009379D01*
X115845722Y-83005531D01*
X115882347Y-83000000D01*
X116713520Y-83000000D01*
X116748452Y-83005021D01*
X116770648Y-83011539D01*
X116819648Y-83039243D01*
X116821828Y-83041248D01*
X116836251Y-83057018D01*
X116849363Y-83074105D01*
X116953399Y-83209689D01*
X116953403Y-83209694D01*
X116953406Y-83209697D01*
X116953412Y-83209704D01*
X117120295Y-83376587D01*
X117120302Y-83376593D01*
X117120315Y-83376603D01*
X117120320Y-83376607D01*
X117230306Y-83461001D01*
X117230307Y-83461002D01*
X117307539Y-83520265D01*
X117307550Y-83520273D01*
X117438918Y-83596118D01*
X117438919Y-83596119D01*
X117469782Y-83613937D01*
X117511943Y-83638280D01*
X117511959Y-83638288D01*
X117647936Y-83694611D01*
X117647937Y-83694612D01*
X117683728Y-83709436D01*
X117730007Y-83728606D01*
X117821690Y-83753172D01*
X117851594Y-83765559D01*
X117878908Y-83781329D01*
X117904588Y-83801035D01*
X118033370Y-83929817D01*
X118127055Y-84023501D01*
X118160540Y-84084824D01*
X118155556Y-84154515D01*
X118113685Y-84210449D01*
X118101374Y-84218569D01*
X118064397Y-84239917D01*
X118064392Y-84239921D01*
X117989921Y-84314392D01*
X117989915Y-84314400D01*
X117968568Y-84351374D01*
X117918001Y-84399589D01*
X117849393Y-84412811D01*
X117784529Y-84386843D01*
X117773501Y-84377054D01*
X117230524Y-83834077D01*
X117230523Y-83834077D01*
X117230522Y-83834077D01*
X117198145Y-83878640D01*
X117105245Y-84060963D01*
X117074848Y-84154515D01*
X117042009Y-84255582D01*
X117042008Y-84255585D01*
X117042008Y-84255587D01*
X117010000Y-84457676D01*
X117010000Y-84662322D01*
X117033012Y-84807612D01*
X117042009Y-84864417D01*
X117105244Y-85059031D01*
X117137430Y-85122199D01*
X117198144Y-85241357D01*
X117198147Y-85241360D01*
X117230517Y-85285914D01*
X117230521Y-85285919D01*
X117230523Y-85285921D01*
X117230524Y-85285922D01*
X117773503Y-84742942D01*
X117834824Y-84709459D01*
X117904515Y-84714443D01*
X117960449Y-84756314D01*
X117968567Y-84768622D01*
X117989920Y-84805606D01*
X118064394Y-84880080D01*
X118064395Y-84880081D01*
X118064397Y-84880082D01*
X118101373Y-84901430D01*
X118149588Y-84951996D01*
X118162812Y-85020603D01*
X118136844Y-85085468D01*
X118127054Y-85096498D01*
X117584075Y-85639473D01*
X117584076Y-85639473D01*
X117584076Y-85639474D01*
X117628650Y-85671859D01*
X117714786Y-85715747D01*
X117810963Y-85764753D01*
X117810965Y-85764753D01*
X117810968Y-85764755D01*
X118005582Y-85827990D01*
X118207683Y-85860000D01*
X118412316Y-85860000D01*
X118412317Y-85860000D01*
X118614417Y-85827990D01*
X118809031Y-85764755D01*
X118991349Y-85671859D01*
X119035921Y-85639474D01*
X118492945Y-85096498D01*
X118459460Y-85035175D01*
X118464444Y-84965483D01*
X118506316Y-84909550D01*
X118518618Y-84901434D01*
X118555606Y-84880080D01*
X118630080Y-84805606D01*
X118651430Y-84768625D01*
X118701995Y-84720411D01*
X118770602Y-84707187D01*
X118835467Y-84733154D01*
X118846498Y-84742945D01*
X119389473Y-85285920D01*
X119389474Y-85285921D01*
X119421859Y-85241349D01*
X119514755Y-85059031D01*
X119577990Y-84864417D01*
X119610000Y-84662317D01*
X119610000Y-84457682D01*
X119577990Y-84255582D01*
X119514755Y-84060968D01*
X119514753Y-84060965D01*
X119514753Y-84060963D01*
X119421859Y-83878650D01*
X119413156Y-83866672D01*
X119403615Y-83839933D01*
X119389473Y-83834075D01*
X118846497Y-84377053D01*
X118785174Y-84410538D01*
X118715483Y-84405554D01*
X118659549Y-84363683D01*
X118651430Y-84351374D01*
X118630080Y-84314394D01*
X118555606Y-84239920D01*
X118518625Y-84218569D01*
X118470410Y-84168003D01*
X118457186Y-84099396D01*
X118483154Y-84034531D01*
X118492934Y-84023512D01*
X118715415Y-83801029D01*
X118741085Y-83781331D01*
X118768404Y-83765558D01*
X118798301Y-83753174D01*
X118889993Y-83728606D01*
X119108049Y-83638284D01*
X119312450Y-83520273D01*
X119460632Y-83406568D01*
X119491395Y-83389291D01*
X119505986Y-83383650D01*
X119575607Y-83377839D01*
X119581590Y-83379066D01*
X119630304Y-83400768D01*
X119630430Y-83400861D01*
X119644473Y-83412947D01*
X120050573Y-83819047D01*
X120071723Y-83847299D01*
X120084331Y-83870388D01*
X120099500Y-83929817D01*
X120099500Y-94106891D01*
X120094475Y-94141832D01*
X120087957Y-94164026D01*
X120060254Y-94213022D01*
X120058263Y-94215187D01*
X120042477Y-94229626D01*
X119895991Y-94342028D01*
X119895985Y-94342033D01*
X119692038Y-94545981D01*
X119692031Y-94545989D01*
X119692017Y-94546004D01*
X119516439Y-94774824D01*
X119516429Y-94774838D01*
X119516417Y-94774855D01*
X119372198Y-95024648D01*
X119372195Y-95024653D01*
X119372193Y-95024656D01*
X119261817Y-95291130D01*
X119261815Y-95291136D01*
X119261814Y-95291139D01*
X119261809Y-95291155D01*
X119240265Y-95371558D01*
X119187153Y-95569772D01*
X119187150Y-95569789D01*
X119187149Y-95569794D01*
X119149501Y-95855754D01*
X119149500Y-95855783D01*
X119149500Y-96144215D01*
X119149501Y-96144244D01*
X119166459Y-96273049D01*
X119187149Y-96430206D01*
X119187150Y-96430211D01*
X119187151Y-96430217D01*
X119256178Y-96687831D01*
X119257492Y-96692733D01*
X119261810Y-96708848D01*
X119261816Y-96708865D01*
X119372193Y-96975342D01*
X119372195Y-96975345D01*
X119372199Y-96975352D01*
X119516420Y-97225148D01*
X119516431Y-97225164D01*
X119516439Y-97225174D01*
X119692017Y-97453994D01*
X119692021Y-97453999D01*
X119692024Y-97454002D01*
X119692030Y-97454009D01*
X119895990Y-97657969D01*
X119895997Y-97657975D01*
X119896000Y-97657977D01*
X119896015Y-97657989D01*
X120036840Y-97766047D01*
X120061496Y-97791296D01*
X120075136Y-97809975D01*
X120097150Y-97861795D01*
X120097656Y-97864696D01*
X120099500Y-97886003D01*
X120099500Y-100106891D01*
X120094475Y-100141832D01*
X120087957Y-100164026D01*
X120060254Y-100213022D01*
X120058263Y-100215187D01*
X120042477Y-100229626D01*
X119895991Y-100342028D01*
X119895985Y-100342033D01*
X119692038Y-100545981D01*
X119692031Y-100545989D01*
X119692017Y-100546004D01*
X119516439Y-100774824D01*
X119516429Y-100774838D01*
X119516417Y-100774855D01*
X119372198Y-101024648D01*
X119372195Y-101024653D01*
X119372193Y-101024656D01*
X119261817Y-101291130D01*
X119261815Y-101291136D01*
X119261814Y-101291139D01*
X119261809Y-101291155D01*
X119251905Y-101328118D01*
X119187153Y-101569772D01*
X119187150Y-101569789D01*
X119187147Y-101569802D01*
X119149501Y-101855754D01*
X119149500Y-101855783D01*
X119149500Y-102144215D01*
X119149501Y-102144244D01*
X119187148Y-102430201D01*
X119187152Y-102430221D01*
X119221688Y-102559111D01*
X119261810Y-102708848D01*
X119261817Y-102708868D01*
X119372193Y-102975342D01*
X119372195Y-102975345D01*
X119372199Y-102975352D01*
X119516420Y-103225148D01*
X119516431Y-103225164D01*
X119516439Y-103225174D01*
X119692017Y-103453994D01*
X119692021Y-103453999D01*
X119692024Y-103454002D01*
X119692030Y-103454009D01*
X119895990Y-103657969D01*
X119895997Y-103657975D01*
X119896000Y-103657977D01*
X119896004Y-103657981D01*
X119950765Y-103700000D01*
X120124851Y-103833580D01*
X120125077Y-103833710D01*
X120243069Y-103901833D01*
X120374647Y-103977800D01*
X120374655Y-103977804D01*
X120406980Y-103991193D01*
X120437329Y-104009199D01*
X120449499Y-104019005D01*
X120489351Y-104076395D01*
X120493652Y-104089315D01*
X120500000Y-104128481D01*
X120500000Y-105857670D01*
X120494975Y-105892614D01*
X120490570Y-105907612D01*
X120452827Y-105966355D01*
X120451458Y-105967542D01*
X120396597Y-105995018D01*
X120389039Y-105996663D01*
X120362668Y-105999500D01*
X93392330Y-105999500D01*
X93357389Y-105994475D01*
X93342390Y-105990070D01*
X93283644Y-105952327D01*
X93282457Y-105950958D01*
X93254977Y-105896083D01*
X93253332Y-105888521D01*
X93250500Y-105862168D01*
X93250500Y-101888574D01*
X106950000Y-101888574D01*
X106950000Y-102111424D01*
X106979083Y-102332344D01*
X106979086Y-102332357D01*
X106979091Y-102332382D01*
X107022921Y-102495959D01*
X107036763Y-102547618D01*
X107083403Y-102660216D01*
X107122047Y-102753508D01*
X107122058Y-102753527D01*
X107233466Y-102946494D01*
X107233478Y-102946511D01*
X107284039Y-103012402D01*
X107284040Y-103012403D01*
X107284043Y-103012403D01*
X107967094Y-102329351D01*
X108028415Y-102295868D01*
X108098106Y-102300852D01*
X108154040Y-102342723D01*
X108162157Y-102355031D01*
X108169881Y-102368408D01*
X108281592Y-102480119D01*
X108294964Y-102487839D01*
X108343179Y-102538407D01*
X108356401Y-102607014D01*
X108330433Y-102671879D01*
X108320644Y-102682907D01*
X107637595Y-103365954D01*
X107637595Y-103365957D01*
X107703505Y-103416532D01*
X107703507Y-103416533D01*
X107896485Y-103527949D01*
X107896497Y-103527954D01*
X108102381Y-103613236D01*
X108248557Y-103652403D01*
X108317616Y-103670907D01*
X108317620Y-103670907D01*
X108317632Y-103670911D01*
X108317645Y-103670914D01*
X108538575Y-103700000D01*
X108761418Y-103700000D01*
X108761425Y-103700000D01*
X108982354Y-103670914D01*
X108982367Y-103670911D01*
X109197618Y-103613236D01*
X109403502Y-103527954D01*
X109403514Y-103527949D01*
X109596498Y-103416530D01*
X109662403Y-103365957D01*
X109662404Y-103365956D01*
X109662403Y-103365955D01*
X109662404Y-103365955D01*
X108979354Y-102682907D01*
X108945869Y-102621584D01*
X108950853Y-102551893D01*
X108992724Y-102495959D01*
X109005022Y-102487846D01*
X109018408Y-102480119D01*
X109130119Y-102368408D01*
X109137839Y-102355035D01*
X109188402Y-102306821D01*
X109257009Y-102293596D01*
X109321875Y-102319562D01*
X109332907Y-102329354D01*
X110015955Y-103012404D01*
X110015955Y-103012403D01*
X110015956Y-103012404D01*
X110015957Y-103012403D01*
X110066530Y-102946498D01*
X110177949Y-102753514D01*
X110177954Y-102753502D01*
X110263236Y-102547618D01*
X110320911Y-102332367D01*
X110320914Y-102332354D01*
X110350000Y-102111424D01*
X110350000Y-101888575D01*
X110320914Y-101667645D01*
X110320911Y-101667632D01*
X110314836Y-101644961D01*
X110294690Y-101569772D01*
X110263236Y-101452381D01*
X110177954Y-101246497D01*
X110177949Y-101246485D01*
X110066533Y-101053507D01*
X110066532Y-101053505D01*
X110015957Y-100987595D01*
X110015956Y-100987595D01*
X110015955Y-100987595D01*
X110015954Y-100987595D01*
X109332906Y-101670643D01*
X109271583Y-101704128D01*
X109201891Y-101699144D01*
X109145958Y-101657272D01*
X109137838Y-101644961D01*
X109130122Y-101631598D01*
X109130119Y-101631592D01*
X109018408Y-101519881D01*
X109011586Y-101515942D01*
X109005032Y-101512158D01*
X108956817Y-101461590D01*
X108943596Y-101392983D01*
X108969565Y-101328118D01*
X108979343Y-101317101D01*
X109662403Y-100634043D01*
X109662403Y-100634040D01*
X109596504Y-100583473D01*
X109596491Y-100583464D01*
X109403520Y-100472054D01*
X109403508Y-100472047D01*
X109310216Y-100433403D01*
X109197618Y-100386763D01*
X109197611Y-100386761D01*
X108982382Y-100329091D01*
X108982367Y-100329088D01*
X108982354Y-100329085D01*
X108982350Y-100329084D01*
X108982344Y-100329083D01*
X108761426Y-100300000D01*
X108761425Y-100300000D01*
X108538575Y-100300000D01*
X108538574Y-100300000D01*
X108317654Y-100329083D01*
X108317641Y-100329086D01*
X108317616Y-100329091D01*
X108102387Y-100386761D01*
X108102383Y-100386762D01*
X108102381Y-100386763D01*
X108102379Y-100386764D01*
X107896490Y-100472047D01*
X107896471Y-100472058D01*
X107703508Y-100583463D01*
X107637595Y-100634040D01*
X107637595Y-100634043D01*
X108320645Y-101317092D01*
X108354130Y-101378415D01*
X108349146Y-101448106D01*
X108307274Y-101504040D01*
X108294967Y-101512159D01*
X108281592Y-101519881D01*
X108281589Y-101519883D01*
X108169883Y-101631589D01*
X108169881Y-101631592D01*
X108162159Y-101644967D01*
X108111590Y-101693181D01*
X108042983Y-101706402D01*
X107978119Y-101680433D01*
X107967092Y-101670645D01*
X107284043Y-100987595D01*
X107284040Y-100987595D01*
X107233463Y-101053508D01*
X107122058Y-101246471D01*
X107122047Y-101246490D01*
X107036764Y-101452379D01*
X107036761Y-101452387D01*
X106979091Y-101667616D01*
X106979086Y-101667641D01*
X106979083Y-101667654D01*
X106950000Y-101888574D01*
X93250500Y-101888574D01*
X93250500Y-55721409D01*
X96525000Y-55721409D01*
X96525000Y-55953589D01*
X96545811Y-56084989D01*
X96561318Y-56182893D01*
X96633065Y-56403705D01*
X96738465Y-56610564D01*
X96795238Y-56688707D01*
X97282924Y-56201020D01*
X97344245Y-56167537D01*
X97413936Y-56172521D01*
X97469870Y-56214392D01*
X97473691Y-56219792D01*
X97495112Y-56251851D01*
X97495116Y-56251855D01*
X97495116Y-56251856D01*
X97585646Y-56342386D01*
X97617684Y-56363793D01*
X97662489Y-56417406D01*
X97671196Y-56486731D01*
X97641041Y-56549758D01*
X97636474Y-56554576D01*
X97148791Y-57042258D01*
X97148791Y-57042259D01*
X97148791Y-57042260D01*
X97226935Y-57099034D01*
X97433794Y-57204434D01*
X97654606Y-57276181D01*
X97883910Y-57312500D01*
X98116089Y-57312500D01*
X98116090Y-57312500D01*
X98345393Y-57276181D01*
X98566205Y-57204434D01*
X98773071Y-57099030D01*
X98851207Y-57042262D01*
X98851208Y-57042260D01*
X98851207Y-57042258D01*
X98363524Y-56554576D01*
X98330039Y-56493253D01*
X98335023Y-56423562D01*
X98376894Y-56367628D01*
X98382270Y-56363823D01*
X98414351Y-56342388D01*
X98504888Y-56251851D01*
X98526295Y-56219812D01*
X98579903Y-56175010D01*
X98649227Y-56166301D01*
X98712256Y-56196455D01*
X98717076Y-56201024D01*
X99204758Y-56688707D01*
X99204760Y-56688708D01*
X99204762Y-56688707D01*
X99261530Y-56610571D01*
X99366934Y-56403705D01*
X99438681Y-56182893D01*
X99475000Y-55953590D01*
X99475000Y-55721409D01*
X99438681Y-55492106D01*
X99366934Y-55271294D01*
X99261534Y-55064435D01*
X99204760Y-54986291D01*
X99204759Y-54986291D01*
X99204758Y-54986291D01*
X98717076Y-55473974D01*
X98655753Y-55507459D01*
X98586061Y-55502475D01*
X98530128Y-55460603D01*
X98526293Y-55455184D01*
X98504886Y-55423146D01*
X98414356Y-55332616D01*
X98414352Y-55332613D01*
X98414351Y-55332612D01*
X98382310Y-55311203D01*
X98337507Y-55257591D01*
X98328800Y-55188266D01*
X98358955Y-55125239D01*
X98363500Y-55120443D01*
X98851207Y-54632738D01*
X98773064Y-54575965D01*
X98566205Y-54470565D01*
X98345393Y-54398818D01*
X98345391Y-54398817D01*
X98345390Y-54398817D01*
X98169244Y-54370918D01*
X98116090Y-54362500D01*
X98116089Y-54362500D01*
X97883905Y-54362500D01*
X97654609Y-54398817D01*
X97433791Y-54470566D01*
X97226926Y-54575969D01*
X97226922Y-54575971D01*
X97148790Y-54632737D01*
X97636475Y-55120422D01*
X97669960Y-55181745D01*
X97664976Y-55251437D01*
X97623104Y-55307370D01*
X97617688Y-55311203D01*
X97585648Y-55332612D01*
X97585643Y-55332616D01*
X97495116Y-55423143D01*
X97495112Y-55423148D01*
X97473703Y-55455188D01*
X97420090Y-55499991D01*
X97350764Y-55508697D01*
X97287738Y-55478540D01*
X97282922Y-55473975D01*
X96795238Y-54986291D01*
X96795237Y-54986291D01*
X96738471Y-55064422D01*
X96738469Y-55064426D01*
X96633066Y-55271291D01*
X96561317Y-55492109D01*
X96525000Y-55721409D01*
X93250500Y-55721409D01*
X93250500Y-51642329D01*
X93255523Y-51607393D01*
X93259927Y-51592395D01*
X93297672Y-51533644D01*
X93299041Y-51532457D01*
X93353920Y-51504977D01*
X93361479Y-51503333D01*
X93387832Y-51500500D01*
X108370500Y-51500500D01*
X108437539Y-51520185D01*
G37*
%TD.AperFunction*%
%TD*%
M02*
