%TF.GenerationSoftware,KiCad,Pcbnew,10.0.6*%
%TF.CreationDate,2026-09-12T11:10:52-04:00*%
%TF.ProjectId,Lunabotics Onboarding,4c756e61-626f-4746-9963-73204f6e626f,rev?*%
%TF.SameCoordinates,Original*%
%TF.FileFunction,Copper,L1,Top*%
%TF.FilePolarity,Positive*%
%FSLAX46Y46*%
G04 Gerber Fmt 4.6, Leading zero omitted, Abs format (unit mm)*
G04 Created by KiCad (PCBNEW 10.0.6) date 2026-09-12 11:10:52*
%MOMM*%
%LPD*%
G01*
G04 APERTURE LIST*
G04 Aperture macros list*
%AMRoundRect*
0 Rectangle with rounded corners*
0 $1 Rounding radius*
0 $2 $3 $4 $5 $6 $7 $8 $9 X,Y pos of 4 corners*
0 Add a 4 corners polygon primitive as box body*
4,1,4,$2,$3,$4,$5,$6,$7,$8,$9,$2,$3,0*
0 Add four circle primitives for the rounded corners*
1,1,$1+$1,$2,$3*
1,1,$1+$1,$4,$5*
1,1,$1+$1,$6,$7*
1,1,$1+$1,$8,$9*
0 Add four rect primitives between the rounded corners*
20,1,$1+$1,$2,$3,$4,$5,0*
20,1,$1+$1,$4,$5,$6,$7,0*
20,1,$1+$1,$6,$7,$8,$9,0*
20,1,$1+$1,$8,$9,$2,$3,0*%
G04 Aperture macros list end*
%TA.AperFunction,ComponentPad*%
%ADD10C,2.400000*%
%TD*%
%TA.AperFunction,SMDPad,CuDef*%
%ADD11RoundRect,0.150000X0.150000X-0.825000X0.150000X0.825000X-0.150000X0.825000X-0.150000X-0.825000X0*%
%TD*%
%TA.AperFunction,SMDPad,CuDef*%
%ADD12RoundRect,0.250000X-0.250000X-0.475000X0.250000X-0.475000X0.250000X0.475000X-0.250000X0.475000X0*%
%TD*%
%TA.AperFunction,SMDPad,CuDef*%
%ADD13RoundRect,0.250000X0.250000X0.475000X-0.250000X0.475000X-0.250000X-0.475000X0.250000X-0.475000X0*%
%TD*%
%TA.AperFunction,ComponentPad*%
%ADD14R,1.950000X1.950000*%
%TD*%
%TA.AperFunction,ComponentPad*%
%ADD15C,1.950000*%
%TD*%
%TA.AperFunction,ComponentPad*%
%ADD16RoundRect,0.250000X0.550000X0.550000X-0.550000X0.550000X-0.550000X-0.550000X0.550000X-0.550000X0*%
%TD*%
%TA.AperFunction,ComponentPad*%
%ADD17C,1.600000*%
%TD*%
%TA.AperFunction,ComponentPad*%
%ADD18R,1.800000X1.800000*%
%TD*%
%TA.AperFunction,ComponentPad*%
%ADD19C,1.800000*%
%TD*%
%TA.AperFunction,Conductor*%
%ADD20C,0.500000*%
%TD*%
G04 APERTURE END LIST*
D10*
%TO.P,R4,2*%
%TO.N,+3V3*%
X131500000Y-100700000D03*
%TO.P,R4,1*%
%TO.N,Net-(D1-A)*%
X131500000Y-88000000D03*
%TD*%
%TO.P,R1,1*%
%TO.N,+3V3*%
X131000000Y-106000000D03*
%TO.P,R1,2*%
%TO.N,Net-(U2-VIN+)*%
X143700000Y-106000000D03*
%TD*%
D11*
%TO.P,U1,1,IP+_1*%
%TO.N,Current+*%
X160690000Y-83137500D03*
%TO.P,U1,2,IP+_2*%
X161960000Y-83137500D03*
%TO.P,U1,3,IP-_3*%
%TO.N,Current-*%
X163230000Y-83137500D03*
%TO.P,U1,4,IP-_4*%
X164500000Y-83137500D03*
%TO.P,U1,5,GND_5*%
%TO.N,GND*%
X164500000Y-78187500D03*
%TO.P,U1,6,~{FAULT}_6*%
%TO.N,unconnected-(U1-~{FAULT}-Pad6)*%
X163230000Y-78187500D03*
%TO.P,U1,7,VIOUT_7*%
%TO.N,Net-(U1-VIOUT)*%
X161960000Y-78187500D03*
%TO.P,U1,8,VCC_8*%
%TO.N,+3V3*%
X160690000Y-78187500D03*
%TD*%
D12*
%TO.P,C2,1*%
%TO.N,+3V3*%
X161550000Y-73500000D03*
%TO.P,C2,2*%
%TO.N,GND*%
X163450000Y-73500000D03*
%TD*%
D13*
%TO.P,C1,1*%
%TO.N,GND*%
X155450000Y-72000000D03*
%TO.P,C1,2*%
%TO.N,+3V3*%
X153550000Y-72000000D03*
%TD*%
D14*
%TO.P,J2,1,Pin_1_1*%
%TO.N,Current+*%
X160000000Y-101662500D03*
D15*
%TO.P,J2,2,Pin_2_2*%
%TO.N,Current-*%
X165000000Y-101662500D03*
%TD*%
D16*
%TO.P,U2,1,NC_1*%
%TO.N,unconnected-(U2-NC-Pad1)*%
X152500000Y-85000000D03*
D17*
%TO.P,U2,2,VIN-_2*%
%TO.N,Net-(U1-VIOUT)*%
X152500000Y-87540000D03*
%TO.P,U2,3,VIN+_3*%
%TO.N,Net-(U2-VIN+)*%
X152500000Y-90080000D03*
%TO.P,U2,4,VSS_4*%
%TO.N,GND*%
X152500000Y-92620000D03*
%TO.P,U2,5,NC_5*%
%TO.N,unconnected-(U2-NC-Pad5)*%
X144880000Y-92620000D03*
%TO.P,U2,6,OUT_6*%
%TO.N,Net-(D1-K)*%
X144880000Y-90080000D03*
%TO.P,U2,7,VDD_7*%
%TO.N,+3V3*%
X144880000Y-87540000D03*
%TO.P,U2,8,NC_8*%
%TO.N,unconnected-(U2-NC-Pad8)*%
X144880000Y-85000000D03*
%TD*%
D14*
%TO.P,J1,1,Pin_1_1*%
%TO.N,+3V3*%
X142500000Y-68500000D03*
D15*
%TO.P,J1,2,Pin_2_2*%
%TO.N,GND*%
X147500000Y-68500000D03*
%TD*%
D10*
%TO.P,R3,1*%
%TO.N,Net-(D1-K)*%
X136000000Y-67000000D03*
%TO.P,R3,2*%
%TO.N,+3V3*%
X136000000Y-79700000D03*
%TD*%
D18*
%TO.P,D1,1,K_1*%
%TO.N,Net-(D1-K)*%
X139000000Y-88500000D03*
D19*
%TO.P,D1,2,A_2*%
%TO.N,Net-(D1-A)*%
X136460000Y-88500000D03*
%TD*%
D10*
%TO.P,R2,1*%
%TO.N,Net-(U2-VIN+)*%
X156350000Y-110500000D03*
%TO.P,R2,2*%
%TO.N,GND*%
X143650000Y-110500000D03*
%TD*%
%TO.N,Net-(U2-VIN+)*%
D20*
X150950000Y-105100000D02*
X156350000Y-110500000D01*
X150950000Y-101387717D02*
X150950000Y-105100000D01*
X150950000Y-101387717D02*
X150950000Y-91630000D01*
X150950000Y-91630000D02*
X152500000Y-90080000D01*
X146337717Y-106000000D02*
X150950000Y-101387717D01*
X143700000Y-106000000D02*
X146337717Y-106000000D01*
%TO.N,+3V3*%
X131000000Y-101200000D02*
X131500000Y-100700000D01*
X131000000Y-106000000D02*
X131000000Y-101200000D01*
X135800000Y-100700000D02*
X137040000Y-99460000D01*
X131500000Y-100700000D02*
X135800000Y-100700000D01*
%TO.N,Net-(D1-A)*%
X135960000Y-88000000D02*
X136460000Y-88500000D01*
X131500000Y-88000000D02*
X135960000Y-88000000D01*
%TO.N,+3V3*%
X140232032Y-99460000D02*
X137040000Y-99460000D01*
X146430000Y-93262032D02*
X140232032Y-99460000D01*
X160690000Y-78187500D02*
X154232500Y-78187500D01*
X154325000Y-73500000D02*
X161550000Y-73500000D01*
X153550000Y-72000000D02*
X153550000Y-72725000D01*
X161550000Y-73500000D02*
X160690000Y-74360000D01*
X154232500Y-78187500D02*
X144880000Y-87540000D01*
X160690000Y-74360000D02*
X160690000Y-78187500D01*
X153550000Y-72725000D02*
X154325000Y-73500000D01*
X143840000Y-87540000D02*
X136000000Y-79700000D01*
X146000000Y-72000000D02*
X142500000Y-68500000D01*
X146430000Y-89090000D02*
X144880000Y-87540000D01*
X144880000Y-87540000D02*
X143840000Y-87540000D01*
X153550000Y-72000000D02*
X146000000Y-72000000D01*
%TO.N,Net-(D1-K)*%
X134050000Y-68950000D02*
X136000000Y-67000000D01*
X134050000Y-68950000D02*
X134050000Y-83550000D01*
X134050000Y-83550000D02*
X139000000Y-88500000D01*
X140580000Y-90080000D02*
X139000000Y-88500000D01*
X144880000Y-90080000D02*
X140580000Y-90080000D01*
%TO.N,Net-(U1-VIOUT)*%
X152500000Y-87540000D02*
X153631370Y-87540000D01*
X153631370Y-87540000D02*
X161960000Y-79211370D01*
X161960000Y-79211370D02*
X161960000Y-78187500D01*
%TO.N,+3V3*%
X146430000Y-93262032D02*
X146430000Y-89090000D01*
%TD*%
%TA.AperFunction,Conductor*%
%TO.N,Current+*%
G36*
X162001865Y-81519685D02*
G01*
X162047620Y-81572489D01*
X162058819Y-81622642D01*
X162060174Y-81746321D01*
X162049616Y-81797764D01*
X161984470Y-81945307D01*
X161984466Y-81945317D01*
X161984462Y-81945333D01*
X161935651Y-82152859D01*
X161935649Y-82152879D01*
X161929500Y-82241481D01*
X161929500Y-84033517D01*
X161935649Y-84122119D01*
X161935651Y-84122139D01*
X161984462Y-84329665D01*
X161984464Y-84329674D01*
X161984467Y-84329682D01*
X162019592Y-84409234D01*
X162028663Y-84478512D01*
X162026480Y-84489291D01*
X162015083Y-84535043D01*
X162015082Y-84535046D01*
X161994500Y-84737448D01*
X161994500Y-103876000D01*
X161974815Y-103943039D01*
X161922011Y-103988794D01*
X161870500Y-104000000D01*
X157641830Y-104000000D01*
X157606889Y-103994975D01*
X157591890Y-103990570D01*
X157533144Y-103952827D01*
X157531957Y-103951458D01*
X157504477Y-103896583D01*
X157502832Y-103889021D01*
X157500000Y-103862668D01*
X157500000Y-85509035D01*
X157505022Y-85474102D01*
X157512434Y-85448857D01*
X157543728Y-85396115D01*
X161390920Y-81548923D01*
X161419170Y-81527775D01*
X161442262Y-81515167D01*
X161501687Y-81500000D01*
X161934826Y-81500000D01*
X162001865Y-81519685D01*
G37*
%TD.AperFunction*%
%TD*%
%TA.AperFunction,Conductor*%
%TO.N,GND*%
G36*
X171392606Y-60505523D02*
G01*
X171407604Y-60509927D01*
X171466355Y-60547672D01*
X171467542Y-60549041D01*
X171495018Y-60603902D01*
X171496663Y-60611460D01*
X171499500Y-60637831D01*
X171499500Y-112857670D01*
X171494475Y-112892614D01*
X171490070Y-112907612D01*
X171452327Y-112966355D01*
X171450958Y-112967542D01*
X171396097Y-112995018D01*
X171388539Y-112996663D01*
X171362168Y-112999500D01*
X127642330Y-112999500D01*
X127607389Y-112994475D01*
X127592390Y-112990070D01*
X127533644Y-112952327D01*
X127532457Y-112950958D01*
X127504977Y-112896083D01*
X127503332Y-112888521D01*
X127500500Y-112862168D01*
X127500500Y-110388574D01*
X141950000Y-110388574D01*
X141950000Y-110611424D01*
X141979083Y-110832344D01*
X141979086Y-110832357D01*
X141979091Y-110832382D01*
X142022921Y-110995959D01*
X142036763Y-111047618D01*
X142083403Y-111160216D01*
X142122047Y-111253508D01*
X142122058Y-111253527D01*
X142233466Y-111446494D01*
X142233478Y-111446511D01*
X142284039Y-111512402D01*
X142284040Y-111512403D01*
X142284043Y-111512403D01*
X142967094Y-110829351D01*
X143028415Y-110795868D01*
X143098106Y-110800852D01*
X143154040Y-110842723D01*
X143162157Y-110855031D01*
X143169881Y-110868408D01*
X143281592Y-110980119D01*
X143294964Y-110987839D01*
X143343179Y-111038407D01*
X143356401Y-111107014D01*
X143330433Y-111171879D01*
X143320644Y-111182907D01*
X142637595Y-111865954D01*
X142637595Y-111865957D01*
X142703505Y-111916532D01*
X142703507Y-111916533D01*
X142896485Y-112027949D01*
X142896497Y-112027954D01*
X143102381Y-112113236D01*
X143248557Y-112152403D01*
X143317616Y-112170907D01*
X143317620Y-112170907D01*
X143317632Y-112170911D01*
X143317645Y-112170914D01*
X143538575Y-112200000D01*
X143761418Y-112200000D01*
X143761425Y-112200000D01*
X143982354Y-112170914D01*
X143982367Y-112170911D01*
X144197618Y-112113236D01*
X144403502Y-112027954D01*
X144403514Y-112027949D01*
X144596498Y-111916530D01*
X144662403Y-111865957D01*
X144662404Y-111865956D01*
X144662403Y-111865955D01*
X144662404Y-111865955D01*
X143979354Y-111182907D01*
X143945869Y-111121584D01*
X143950853Y-111051893D01*
X143992724Y-110995959D01*
X144005022Y-110987846D01*
X144018408Y-110980119D01*
X144130119Y-110868408D01*
X144137839Y-110855035D01*
X144188405Y-110806821D01*
X144257012Y-110793597D01*
X144321877Y-110819565D01*
X144332907Y-110829355D01*
X145015955Y-111512403D01*
X145015956Y-111512404D01*
X145015957Y-111512403D01*
X145066530Y-111446498D01*
X145177949Y-111253514D01*
X145177954Y-111253502D01*
X145263236Y-111047618D01*
X145320911Y-110832367D01*
X145320914Y-110832354D01*
X145350000Y-110611424D01*
X145350000Y-110388575D01*
X145320914Y-110167645D01*
X145320911Y-110167632D01*
X145315758Y-110148402D01*
X145288215Y-110045607D01*
X145263236Y-109952381D01*
X145177954Y-109746497D01*
X145177949Y-109746485D01*
X145066533Y-109553507D01*
X145066532Y-109553505D01*
X145015957Y-109487595D01*
X145015956Y-109487595D01*
X145015955Y-109487595D01*
X145015954Y-109487595D01*
X144332906Y-110170643D01*
X144271583Y-110204128D01*
X144201891Y-110199144D01*
X144145958Y-110157272D01*
X144137838Y-110144961D01*
X144130122Y-110131598D01*
X144130119Y-110131592D01*
X144018408Y-110019881D01*
X144011586Y-110015942D01*
X144005032Y-110012158D01*
X143956817Y-109961590D01*
X143943596Y-109892983D01*
X143969565Y-109828118D01*
X143979343Y-109817101D01*
X144662403Y-109134043D01*
X144662403Y-109134040D01*
X144596504Y-109083473D01*
X144596491Y-109083464D01*
X144403520Y-108972054D01*
X144403508Y-108972047D01*
X144310216Y-108933403D01*
X144197618Y-108886763D01*
X144197611Y-108886761D01*
X143982382Y-108829091D01*
X143982367Y-108829088D01*
X143982354Y-108829085D01*
X143982350Y-108829084D01*
X143982344Y-108829083D01*
X143761426Y-108800000D01*
X143761425Y-108800000D01*
X143538575Y-108800000D01*
X143538574Y-108800000D01*
X143317654Y-108829083D01*
X143317641Y-108829086D01*
X143317616Y-108829091D01*
X143102387Y-108886761D01*
X143102383Y-108886762D01*
X143102381Y-108886763D01*
X143102379Y-108886764D01*
X142896490Y-108972047D01*
X142896471Y-108972058D01*
X142703508Y-109083463D01*
X142637595Y-109134040D01*
X142637595Y-109134043D01*
X143320645Y-109817092D01*
X143354130Y-109878415D01*
X143349146Y-109948106D01*
X143307274Y-110004040D01*
X143294967Y-110012159D01*
X143281592Y-110019881D01*
X143281589Y-110019883D01*
X143169883Y-110131589D01*
X143169881Y-110131592D01*
X143162159Y-110144967D01*
X143111590Y-110193181D01*
X143042983Y-110206402D01*
X142978119Y-110180433D01*
X142967092Y-110170645D01*
X142284043Y-109487595D01*
X142284040Y-109487595D01*
X142233463Y-109553508D01*
X142122058Y-109746471D01*
X142122047Y-109746490D01*
X142036764Y-109952379D01*
X142036761Y-109952387D01*
X141979091Y-110167616D01*
X141979086Y-110167641D01*
X141979083Y-110167654D01*
X141950000Y-110388574D01*
X127500500Y-110388574D01*
X127500500Y-105855783D01*
X128799500Y-105855783D01*
X128799500Y-106144215D01*
X128799501Y-106144244D01*
X128837149Y-106430208D01*
X128837263Y-106430900D01*
X128837998Y-106433378D01*
X128911809Y-106708844D01*
X128911814Y-106708860D01*
X128911816Y-106708865D01*
X128911817Y-106708868D01*
X129022193Y-106975342D01*
X129022195Y-106975345D01*
X129022199Y-106975352D01*
X129166420Y-107225148D01*
X129166431Y-107225164D01*
X129166439Y-107225174D01*
X129342017Y-107453994D01*
X129342021Y-107453999D01*
X129342024Y-107454002D01*
X129342030Y-107454009D01*
X129342038Y-107454017D01*
X129545976Y-107657956D01*
X129545992Y-107657971D01*
X129546000Y-107657977D01*
X129774851Y-107833580D01*
X129775077Y-107833710D01*
X129893069Y-107901833D01*
X130024647Y-107977800D01*
X130024663Y-107977808D01*
X130157572Y-108032860D01*
X130287097Y-108086511D01*
X130288915Y-108087341D01*
X130289400Y-108087525D01*
X130290970Y-108088148D01*
X130292254Y-108088504D01*
X130295412Y-108089408D01*
X130296913Y-108089734D01*
X130327606Y-108097958D01*
X130569783Y-108162849D01*
X130855772Y-108200500D01*
X130855779Y-108200500D01*
X131144221Y-108200500D01*
X131144228Y-108200500D01*
X131430217Y-108162849D01*
X131704998Y-108089221D01*
X131708209Y-108088473D01*
X131710595Y-108087527D01*
X131711074Y-108087345D01*
X131712901Y-108086511D01*
X131971302Y-107979478D01*
X131973162Y-107978784D01*
X131973622Y-107978578D01*
X131975412Y-107977804D01*
X131977048Y-107976895D01*
X131978770Y-107975826D01*
X132225156Y-107833575D01*
X132454004Y-107657974D01*
X132657974Y-107454004D01*
X132833575Y-107225156D01*
X132977804Y-106975345D01*
X133088182Y-106708868D01*
X133088185Y-106708860D01*
X133088185Y-106708857D01*
X133088191Y-106708845D01*
X133162849Y-106430217D01*
X133200500Y-106144228D01*
X133200500Y-105855772D01*
X133162849Y-105569783D01*
X133089734Y-105296913D01*
X133089408Y-105295412D01*
X133088504Y-105292254D01*
X133088148Y-105290970D01*
X133087525Y-105289400D01*
X133087341Y-105288915D01*
X133086511Y-105287097D01*
X132977809Y-105024666D01*
X132977803Y-105024653D01*
X132977800Y-105024648D01*
X132977800Y-105024647D01*
X132893443Y-104878538D01*
X132833710Y-104775077D01*
X132833580Y-104774851D01*
X132833580Y-104774850D01*
X132713489Y-104618345D01*
X132657989Y-104546015D01*
X132657980Y-104546004D01*
X132657975Y-104545997D01*
X132657969Y-104545990D01*
X132632161Y-104520182D01*
X132454014Y-104342034D01*
X132313156Y-104233949D01*
X132288497Y-104208695D01*
X132274860Y-104190018D01*
X132252848Y-104138188D01*
X132252342Y-104135285D01*
X132250500Y-104113993D01*
X132250500Y-102871620D01*
X132255523Y-102836684D01*
X132259927Y-102821686D01*
X132297695Y-102762914D01*
X132307993Y-102753990D01*
X132341735Y-102733146D01*
X132471314Y-102679473D01*
X132473176Y-102678779D01*
X132473615Y-102678582D01*
X132475406Y-102677807D01*
X132477051Y-102676894D01*
X132478770Y-102675826D01*
X132725156Y-102533575D01*
X132954004Y-102357974D01*
X133157974Y-102154004D01*
X133266051Y-102013154D01*
X133291296Y-101988503D01*
X133309980Y-101974860D01*
X133361817Y-101952847D01*
X133364721Y-101952341D01*
X133386006Y-101950500D01*
X135898421Y-101950500D01*
X135898422Y-101950500D01*
X136092826Y-101919709D01*
X136280026Y-101858884D01*
X136455405Y-101769524D01*
X136614646Y-101653828D01*
X137509050Y-100759423D01*
X137537300Y-100738275D01*
X137560392Y-100725667D01*
X137619817Y-100710500D01*
X140330453Y-100710500D01*
X140330454Y-100710500D01*
X140524858Y-100679709D01*
X140712058Y-100618884D01*
X140887437Y-100529524D01*
X141046678Y-100413828D01*
X147383828Y-94076678D01*
X147499523Y-93917438D01*
X147550284Y-93817815D01*
X147588884Y-93742057D01*
X147649709Y-93554858D01*
X147653272Y-93532365D01*
X147671377Y-93418056D01*
X147680500Y-93360458D01*
X147680500Y-88991577D01*
X147665535Y-88897096D01*
X147649709Y-88797173D01*
X147628831Y-88732920D01*
X147628831Y-88732919D01*
X147628831Y-88732917D01*
X147621010Y-88708846D01*
X147588888Y-88609982D01*
X147588886Y-88609978D01*
X147554479Y-88542449D01*
X147554479Y-88542450D01*
X147499524Y-88434595D01*
X147383828Y-88275354D01*
X146748762Y-87640288D01*
X146727610Y-87612032D01*
X146720118Y-87598311D01*
X146705266Y-87530051D01*
X146705395Y-87528242D01*
X146724761Y-87470047D01*
X146728954Y-87463523D01*
X146745575Y-87442898D01*
X154701550Y-79486923D01*
X154729800Y-79465775D01*
X154752892Y-79453167D01*
X154812317Y-79438000D01*
X159371587Y-79438000D01*
X159406523Y-79443023D01*
X159421521Y-79447427D01*
X159480293Y-79485195D01*
X159485065Y-79490702D01*
X159490033Y-79496435D01*
X159509757Y-79527554D01*
X159517292Y-79544619D01*
X159530586Y-79574729D01*
X159530591Y-79574738D01*
X159583294Y-79651673D01*
X159598893Y-79683332D01*
X159603736Y-79698194D01*
X159605791Y-79768034D01*
X159605791Y-79768035D01*
X159603988Y-79774918D01*
X159571716Y-79831177D01*
X154524787Y-84878107D01*
X154496537Y-84899256D01*
X154486610Y-84904677D01*
X154418337Y-84919531D01*
X154352872Y-84895117D01*
X154310999Y-84839185D01*
X154308312Y-84831979D01*
X154300499Y-84788659D01*
X154300499Y-84385795D01*
X154300395Y-84384134D01*
X154300275Y-84382950D01*
X154298835Y-84364646D01*
X154290096Y-84253588D01*
X154277084Y-84201951D01*
X154235097Y-84035321D01*
X154235096Y-84035318D01*
X154232694Y-84030030D01*
X154142007Y-83830374D01*
X154142006Y-83830373D01*
X154142003Y-83830367D01*
X154071456Y-83728540D01*
X154071455Y-83728539D01*
X154015954Y-83648427D01*
X154013825Y-83645354D01*
X154013822Y-83645350D01*
X154013819Y-83645346D01*
X154013814Y-83645340D01*
X153854659Y-83486185D01*
X153854655Y-83486182D01*
X153854644Y-83486173D01*
X153801108Y-83449084D01*
X153670560Y-83358640D01*
X153669691Y-83358025D01*
X153669625Y-83357992D01*
X153466790Y-83265861D01*
X153465446Y-83265220D01*
X153464682Y-83264903D01*
X153464668Y-83264899D01*
X153246429Y-83209906D01*
X153246418Y-83209904D01*
X153246414Y-83209903D01*
X153202348Y-83206436D01*
X153202347Y-83206436D01*
X153114222Y-83199500D01*
X153114217Y-83199500D01*
X153114215Y-83199500D01*
X151885791Y-83199500D01*
X151885787Y-83199500D01*
X151753584Y-83209903D01*
X151753580Y-83209904D01*
X151753569Y-83209906D01*
X151535330Y-83264899D01*
X151535309Y-83264906D01*
X151330384Y-83357986D01*
X151330374Y-83357992D01*
X151330368Y-83357995D01*
X151330362Y-83357999D01*
X151145359Y-83486169D01*
X151145349Y-83486177D01*
X151145346Y-83486180D01*
X151145328Y-83486196D01*
X150986196Y-83645328D01*
X150986180Y-83645346D01*
X150986177Y-83645349D01*
X150986169Y-83645359D01*
X150857999Y-83830362D01*
X150857995Y-83830368D01*
X150857992Y-83830374D01*
X150857986Y-83830384D01*
X150764906Y-84035309D01*
X150764899Y-84035330D01*
X150709906Y-84253569D01*
X150709904Y-84253580D01*
X150709904Y-84253583D01*
X150699500Y-84385771D01*
X150699500Y-85614211D01*
X150709903Y-85746414D01*
X150709904Y-85746418D01*
X150709906Y-85746429D01*
X150764899Y-85964668D01*
X150764906Y-85964689D01*
X150857986Y-86169614D01*
X150857992Y-86169624D01*
X150857995Y-86169630D01*
X150857999Y-86169636D01*
X150986159Y-86354625D01*
X150986182Y-86354655D01*
X150989062Y-86357976D01*
X150988825Y-86358181D01*
X150988827Y-86358183D01*
X150988799Y-86358203D01*
X150988452Y-86358504D01*
X151004904Y-86380481D01*
X151012395Y-86394200D01*
X151027246Y-86462466D01*
X151026811Y-86468552D01*
X151011361Y-86520221D01*
X151011290Y-86520348D01*
X151001449Y-86535303D01*
X150999727Y-86537547D01*
X150999725Y-86537550D01*
X150925513Y-86666090D01*
X150881719Y-86741943D01*
X150881717Y-86741947D01*
X150881716Y-86741947D01*
X150791395Y-86960001D01*
X150730305Y-87187992D01*
X150699503Y-87421963D01*
X150699500Y-87421987D01*
X150699500Y-87658011D01*
X150699503Y-87658035D01*
X150730305Y-87892006D01*
X150791395Y-88119997D01*
X150881715Y-88338048D01*
X150881719Y-88338056D01*
X150934923Y-88430206D01*
X150999723Y-88542445D01*
X150999725Y-88542447D01*
X150999944Y-88542776D01*
X151000947Y-88544040D01*
X151133557Y-88716862D01*
X151147681Y-88740197D01*
X151156223Y-88758624D01*
X151166559Y-88827725D01*
X151166557Y-88827743D01*
X151165720Y-88833802D01*
X151147205Y-88883868D01*
X151144136Y-88888644D01*
X151138193Y-88897096D01*
X150999736Y-89077536D01*
X150999730Y-89077545D01*
X150881719Y-89281942D01*
X150881715Y-89281950D01*
X150791395Y-89500001D01*
X150730305Y-89727992D01*
X150699503Y-89961963D01*
X150699500Y-89961987D01*
X150699500Y-90042834D01*
X150694476Y-90077771D01*
X150687064Y-90103012D01*
X150655769Y-90155756D01*
X149991680Y-90819844D01*
X149987547Y-90827225D01*
X149950624Y-90878045D01*
X149880475Y-90974594D01*
X149850294Y-91033828D01*
X149791115Y-91149973D01*
X149791114Y-91149976D01*
X149762228Y-91238884D01*
X149757322Y-91253983D01*
X149757321Y-91253985D01*
X149730290Y-91337174D01*
X149728764Y-91346813D01*
X149728763Y-91346815D01*
X149699500Y-91531577D01*
X149699500Y-100800551D01*
X149694476Y-100835488D01*
X149687064Y-100860729D01*
X149655769Y-100913473D01*
X145868669Y-104700573D01*
X145840418Y-104721722D01*
X145817330Y-104734330D01*
X145757900Y-104749500D01*
X145593108Y-104749500D01*
X145558172Y-104744477D01*
X145535978Y-104737960D01*
X145486978Y-104710255D01*
X145484798Y-104708250D01*
X145470377Y-104692482D01*
X145391398Y-104589555D01*
X145357981Y-104546004D01*
X145357977Y-104546000D01*
X145357975Y-104545997D01*
X145357969Y-104545990D01*
X145154009Y-104342030D01*
X145154002Y-104342024D01*
X145153999Y-104342021D01*
X145153994Y-104342017D01*
X144926754Y-104167651D01*
X144925479Y-104166639D01*
X144925154Y-104166423D01*
X144675350Y-104022198D01*
X144675345Y-104022195D01*
X144675332Y-104022189D01*
X144408869Y-103911817D01*
X144408851Y-103911810D01*
X144408840Y-103911807D01*
X144130221Y-103837152D01*
X144130219Y-103837151D01*
X144130217Y-103837151D01*
X144130211Y-103837150D01*
X144130206Y-103837149D01*
X144130201Y-103837148D01*
X143848328Y-103800039D01*
X143846312Y-103799705D01*
X143844238Y-103799500D01*
X143844233Y-103799500D01*
X143844228Y-103799500D01*
X143555772Y-103799500D01*
X143555766Y-103799500D01*
X143555761Y-103799500D01*
X143553684Y-103799705D01*
X143551670Y-103800039D01*
X143269814Y-103837146D01*
X143269782Y-103837150D01*
X143267973Y-103837577D01*
X143266197Y-103838111D01*
X142991150Y-103911810D01*
X142991130Y-103911817D01*
X142724656Y-104022193D01*
X142724653Y-104022195D01*
X142724648Y-104022198D01*
X142474855Y-104166417D01*
X142474838Y-104166429D01*
X142474824Y-104166439D01*
X142246004Y-104342017D01*
X142245989Y-104342031D01*
X142245981Y-104342038D01*
X142042038Y-104545981D01*
X142042031Y-104545989D01*
X142042017Y-104546004D01*
X141866439Y-104774824D01*
X141866429Y-104774838D01*
X141866417Y-104774855D01*
X141722198Y-105024648D01*
X141722195Y-105024653D01*
X141722193Y-105024656D01*
X141611817Y-105291130D01*
X141611815Y-105291136D01*
X141611814Y-105291139D01*
X141611809Y-105291155D01*
X141584568Y-105392822D01*
X141537153Y-105569772D01*
X141537150Y-105569789D01*
X141537147Y-105569802D01*
X141499501Y-105855754D01*
X141499500Y-105855783D01*
X141499500Y-106144215D01*
X141499501Y-106144244D01*
X141537149Y-106430208D01*
X141537263Y-106430900D01*
X141537998Y-106433378D01*
X141611809Y-106708844D01*
X141611814Y-106708860D01*
X141611816Y-106708865D01*
X141611817Y-106708868D01*
X141722193Y-106975342D01*
X141722195Y-106975345D01*
X141722199Y-106975352D01*
X141866420Y-107225148D01*
X141866431Y-107225164D01*
X141866439Y-107225174D01*
X142042017Y-107453994D01*
X142042021Y-107453999D01*
X142042024Y-107454002D01*
X142042030Y-107454009D01*
X142042038Y-107454017D01*
X142245976Y-107657956D01*
X142245992Y-107657971D01*
X142246000Y-107657977D01*
X142474851Y-107833580D01*
X142475077Y-107833710D01*
X142593069Y-107901833D01*
X142724647Y-107977800D01*
X142724663Y-107977808D01*
X142857572Y-108032860D01*
X142987097Y-108086511D01*
X142988915Y-108087341D01*
X142989400Y-108087525D01*
X142990970Y-108088148D01*
X142992254Y-108088504D01*
X142995412Y-108089408D01*
X142996913Y-108089734D01*
X143027606Y-108097958D01*
X143269783Y-108162849D01*
X143555772Y-108200500D01*
X143555779Y-108200500D01*
X143844221Y-108200500D01*
X143844228Y-108200500D01*
X144130217Y-108162849D01*
X144404998Y-108089221D01*
X144408209Y-108088473D01*
X144410595Y-108087527D01*
X144411074Y-108087345D01*
X144412901Y-108086511D01*
X144671302Y-107979478D01*
X144673162Y-107978784D01*
X144673622Y-107978578D01*
X144675412Y-107977804D01*
X144677048Y-107976895D01*
X144678770Y-107975826D01*
X144925156Y-107833575D01*
X145154004Y-107657974D01*
X145357974Y-107454004D01*
X145466051Y-107313154D01*
X145491296Y-107288503D01*
X145509980Y-107274860D01*
X145561817Y-107252847D01*
X145564721Y-107252341D01*
X145586006Y-107250500D01*
X146436138Y-107250500D01*
X146436139Y-107250500D01*
X146630543Y-107219709D01*
X146817743Y-107158884D01*
X146993122Y-107069524D01*
X147152363Y-106953828D01*
X149475214Y-104630976D01*
X149503457Y-104609832D01*
X149513391Y-104604408D01*
X149581661Y-104589555D01*
X149647126Y-104613969D01*
X149688999Y-104669901D01*
X149689001Y-104669905D01*
X149691682Y-104677093D01*
X149699500Y-104720427D01*
X149699500Y-105198427D01*
X149714186Y-105291150D01*
X149730290Y-105392826D01*
X149791117Y-105580030D01*
X149880476Y-105755405D01*
X149996172Y-105914646D01*
X149996174Y-105914648D01*
X154127133Y-110045607D01*
X154148285Y-110073862D01*
X154159370Y-110094163D01*
X154174428Y-110148402D01*
X154174551Y-110151340D01*
X154173599Y-110172712D01*
X154149500Y-110355770D01*
X154149500Y-110644215D01*
X154149501Y-110644244D01*
X154187148Y-110930201D01*
X154187152Y-110930221D01*
X154221688Y-111059111D01*
X154261810Y-111208848D01*
X154261817Y-111208868D01*
X154372193Y-111475342D01*
X154372195Y-111475345D01*
X154372199Y-111475352D01*
X154516420Y-111725148D01*
X154516431Y-111725164D01*
X154516439Y-111725174D01*
X154692017Y-111953994D01*
X154692021Y-111953999D01*
X154692024Y-111954002D01*
X154692030Y-111954009D01*
X154895990Y-112157969D01*
X154895997Y-112157975D01*
X154896000Y-112157977D01*
X154896004Y-112157981D01*
X154950765Y-112200000D01*
X155124851Y-112333580D01*
X155125077Y-112333710D01*
X155243069Y-112401833D01*
X155374647Y-112477800D01*
X155374663Y-112477808D01*
X155507572Y-112532860D01*
X155637097Y-112586511D01*
X155638915Y-112587341D01*
X155639400Y-112587525D01*
X155640970Y-112588148D01*
X155642254Y-112588504D01*
X155645412Y-112589408D01*
X155646913Y-112589734D01*
X155677606Y-112597958D01*
X155919783Y-112662849D01*
X156205772Y-112700500D01*
X156205779Y-112700500D01*
X156494221Y-112700500D01*
X156494228Y-112700500D01*
X156780217Y-112662849D01*
X157054998Y-112589221D01*
X157058209Y-112588473D01*
X157060595Y-112587527D01*
X157061074Y-112587345D01*
X157062901Y-112586511D01*
X157321302Y-112479478D01*
X157323162Y-112478784D01*
X157323622Y-112478578D01*
X157325412Y-112477804D01*
X157327048Y-112476895D01*
X157328770Y-112475826D01*
X157575156Y-112333575D01*
X157804004Y-112157974D01*
X158007974Y-111954004D01*
X158183575Y-111725156D01*
X158327804Y-111475345D01*
X158339751Y-111446504D01*
X158339754Y-111446498D01*
X158375970Y-111359061D01*
X158436511Y-111212901D01*
X158437342Y-111211081D01*
X158437524Y-111210602D01*
X158438474Y-111208204D01*
X158439221Y-111204998D01*
X158512849Y-110930217D01*
X158550500Y-110644228D01*
X158550500Y-110355772D01*
X158512849Y-110069783D01*
X158439734Y-109796913D01*
X158439408Y-109795412D01*
X158438504Y-109792254D01*
X158438148Y-109790970D01*
X158437525Y-109789400D01*
X158437341Y-109788915D01*
X158436511Y-109787097D01*
X158339755Y-109553507D01*
X158327808Y-109524663D01*
X158327800Y-109524647D01*
X158251833Y-109393069D01*
X158183710Y-109275077D01*
X158183580Y-109274851D01*
X158183580Y-109274850D01*
X158075534Y-109134042D01*
X158007981Y-109046004D01*
X158007977Y-109046000D01*
X158007975Y-109045997D01*
X158007969Y-109045990D01*
X157804009Y-108842030D01*
X157804002Y-108842024D01*
X157803999Y-108842021D01*
X157803994Y-108842017D01*
X157576754Y-108667651D01*
X157575479Y-108666639D01*
X157575154Y-108666423D01*
X157325350Y-108522198D01*
X157325345Y-108522195D01*
X157325332Y-108522189D01*
X157058869Y-108411817D01*
X157058851Y-108411810D01*
X157058840Y-108411807D01*
X156780221Y-108337152D01*
X156780219Y-108337151D01*
X156780217Y-108337151D01*
X156780211Y-108337150D01*
X156780206Y-108337149D01*
X156780201Y-108337148D01*
X156498328Y-108300039D01*
X156496312Y-108299705D01*
X156494238Y-108299500D01*
X156494233Y-108299500D01*
X156494228Y-108299500D01*
X156205772Y-108299500D01*
X156205771Y-108299500D01*
X156205769Y-108299500D01*
X156029756Y-108322671D01*
X155994468Y-108322252D01*
X155984935Y-108320765D01*
X155971615Y-108318688D01*
X155919397Y-108297603D01*
X155916985Y-108295907D01*
X155900628Y-108282154D01*
X152249426Y-104630952D01*
X152228274Y-104602696D01*
X152215667Y-104579607D01*
X152200500Y-104520182D01*
X152200500Y-94051782D01*
X152205522Y-94016849D01*
X152205667Y-94016355D01*
X152209433Y-94003530D01*
X152247206Y-93944753D01*
X152310758Y-93915728D01*
X152310767Y-93915727D01*
X152323651Y-93913875D01*
X152360692Y-93914140D01*
X152370712Y-93915727D01*
X152397690Y-93920000D01*
X152602316Y-93920000D01*
X152602317Y-93920000D01*
X152804417Y-93887990D01*
X152999031Y-93824755D01*
X153012652Y-93817815D01*
X153181347Y-93731860D01*
X153181346Y-93731860D01*
X153181349Y-93731859D01*
X153225921Y-93699474D01*
X152682945Y-93156498D01*
X152649460Y-93095175D01*
X152654444Y-93025483D01*
X152696316Y-92969550D01*
X152708618Y-92961434D01*
X152745606Y-92940080D01*
X152820080Y-92865606D01*
X152841429Y-92828627D01*
X152891994Y-92780413D01*
X152960600Y-92767188D01*
X153025466Y-92793155D01*
X153036497Y-92802946D01*
X153579473Y-93345922D01*
X153579473Y-93345921D01*
X153579474Y-93345922D01*
X153579474Y-93345921D01*
X153592943Y-93340342D01*
X153599159Y-93319174D01*
X153603159Y-93313324D01*
X153611857Y-93301352D01*
X153663501Y-93199997D01*
X153704755Y-93119031D01*
X153767990Y-92924417D01*
X153800000Y-92722317D01*
X153800000Y-92517682D01*
X153767990Y-92315582D01*
X153704755Y-92120968D01*
X153704753Y-92120965D01*
X153704753Y-92120963D01*
X153611859Y-91938650D01*
X153603156Y-91926672D01*
X153593615Y-91899933D01*
X153579473Y-91894075D01*
X153036497Y-92437053D01*
X152975174Y-92470538D01*
X152905483Y-92465554D01*
X152849549Y-92423683D01*
X152841432Y-92411377D01*
X152820080Y-92374394D01*
X152745606Y-92299920D01*
X152708625Y-92278569D01*
X152660410Y-92228003D01*
X152647186Y-92159396D01*
X152673154Y-92094531D01*
X152682939Y-92083506D01*
X152905415Y-91861029D01*
X152931085Y-91841331D01*
X152958404Y-91825558D01*
X152988301Y-91813174D01*
X153079993Y-91788606D01*
X153298049Y-91698284D01*
X153502450Y-91580273D01*
X153689699Y-91436592D01*
X153856592Y-91269699D01*
X154000273Y-91082450D01*
X154118284Y-90878049D01*
X154208606Y-90659993D01*
X154269693Y-90432014D01*
X154300500Y-90198011D01*
X154300500Y-89961989D01*
X154269693Y-89727986D01*
X154208606Y-89500007D01*
X154118489Y-89282447D01*
X154118189Y-89281708D01*
X154117382Y-89280255D01*
X154116297Y-89278509D01*
X154085495Y-89225160D01*
X154076118Y-89208918D01*
X154000273Y-89077550D01*
X153985611Y-89058442D01*
X153907538Y-88956694D01*
X153890255Y-88925917D01*
X153885251Y-88912972D01*
X153879440Y-88843345D01*
X153912186Y-88781636D01*
X153916626Y-88777089D01*
X153967025Y-88745792D01*
X154111396Y-88698884D01*
X154286775Y-88609524D01*
X154446016Y-88493828D01*
X156282819Y-86657025D01*
X156344142Y-86623540D01*
X156413834Y-86628524D01*
X156469767Y-86670396D01*
X156494184Y-86735860D01*
X156494500Y-86744706D01*
X156494500Y-103862673D01*
X156500253Y-103970072D01*
X156500255Y-103970094D01*
X156500256Y-103970105D01*
X156502202Y-103988220D01*
X156503087Y-103996451D01*
X156503087Y-103996452D01*
X156520307Y-104102739D01*
X156520312Y-104102765D01*
X156521954Y-104110313D01*
X156533181Y-104156614D01*
X156545866Y-104190018D01*
X156603594Y-104342034D01*
X156605414Y-104346825D01*
X156632881Y-104401673D01*
X156632889Y-104401688D01*
X156655214Y-104443750D01*
X156772258Y-104610160D01*
X156773445Y-104611529D01*
X156830476Y-104672055D01*
X156830480Y-104672058D01*
X156830481Y-104672059D01*
X156989637Y-104798777D01*
X156989649Y-104798785D01*
X157048381Y-104836519D01*
X157074275Y-104851680D01*
X157120151Y-104878541D01*
X157308555Y-104955325D01*
X157323554Y-104959730D01*
X157428294Y-104982519D01*
X157463756Y-104990235D01*
X157468847Y-104990967D01*
X157498698Y-104995260D01*
X157641830Y-105005500D01*
X161870490Y-105005500D01*
X161870500Y-105005500D01*
X161882088Y-105005433D01*
X162084243Y-104982519D01*
X162135754Y-104971313D01*
X162227438Y-104946784D01*
X162414027Y-104865692D01*
X162426050Y-104857240D01*
X162492212Y-104834794D01*
X162560010Y-104851680D01*
X162566305Y-104855624D01*
X162585264Y-104868308D01*
X162773671Y-104945083D01*
X162773677Y-104945085D01*
X162788687Y-104949492D01*
X162840710Y-104964768D01*
X162921594Y-104984917D01*
X163056531Y-104998639D01*
X163123999Y-105005500D01*
X163124000Y-105005500D01*
X167375990Y-105005500D01*
X167376000Y-105005500D01*
X167387588Y-105005433D01*
X167589743Y-104982519D01*
X167641254Y-104971313D01*
X167732938Y-104946784D01*
X167919527Y-104865692D01*
X168085974Y-104748700D01*
X168138778Y-104702945D01*
X168255179Y-104583832D01*
X168368308Y-104414736D01*
X168445083Y-104226329D01*
X168464768Y-104159290D01*
X168484917Y-104078406D01*
X168505500Y-103876000D01*
X168505500Y-81624000D01*
X168505433Y-81612412D01*
X168482519Y-81410257D01*
X168471313Y-81358746D01*
X168446784Y-81267062D01*
X168365692Y-81080473D01*
X168365691Y-81080471D01*
X168365689Y-81080468D01*
X168248705Y-80914033D01*
X168248704Y-80914032D01*
X168248700Y-80914026D01*
X168202945Y-80861222D01*
X168083832Y-80744821D01*
X168083830Y-80744819D01*
X167914738Y-80631693D01*
X167914731Y-80631690D01*
X167726328Y-80554916D01*
X167726322Y-80554914D01*
X167659293Y-80535233D01*
X167659295Y-80535233D01*
X167659290Y-80535232D01*
X167578406Y-80515083D01*
X167578402Y-80515082D01*
X167578403Y-80515082D01*
X167376001Y-80494500D01*
X167376000Y-80494500D01*
X163183221Y-80494500D01*
X163183192Y-80494500D01*
X163156878Y-80494844D01*
X162955072Y-80520725D01*
X162900266Y-80533494D01*
X162840548Y-80550890D01*
X162826725Y-80554917D01*
X162794971Y-80564167D01*
X162794968Y-80564168D01*
X162645977Y-80634194D01*
X162576931Y-80644895D01*
X162513061Y-80616568D01*
X162474645Y-80558208D01*
X162473879Y-80488342D01*
X162505549Y-80434292D01*
X162747710Y-80192131D01*
X162775956Y-80170985D01*
X162793372Y-80161476D01*
X162853836Y-80146312D01*
X162862535Y-80146385D01*
X162889869Y-80149674D01*
X162920370Y-80156849D01*
X162979446Y-80160948D01*
X162979447Y-80160949D01*
X162979448Y-80160949D01*
X163008984Y-80163000D01*
X163008988Y-80163000D01*
X163008998Y-80163000D01*
X163451016Y-80163000D01*
X163451017Y-80163000D01*
X163463734Y-80162116D01*
X163486459Y-80160539D01*
X163535384Y-80157143D01*
X163538226Y-80157045D01*
X163539422Y-80156934D01*
X163541820Y-80156415D01*
X163542740Y-80156232D01*
X163545104Y-80155562D01*
X163744094Y-80108759D01*
X163748150Y-80107913D01*
X163751219Y-80107083D01*
X163801272Y-80095310D01*
X163816714Y-80078442D01*
X163830783Y-80071119D01*
X163942237Y-80021909D01*
X164118142Y-79901411D01*
X164268911Y-79750642D01*
X164389409Y-79574737D01*
X164475532Y-79379685D01*
X164501213Y-79270495D01*
X164514095Y-79237654D01*
X164517118Y-79232332D01*
X164567345Y-79183767D01*
X164635858Y-79170065D01*
X164700902Y-79195579D01*
X164741820Y-79252187D01*
X164742886Y-79255197D01*
X164750000Y-79296593D01*
X164750000Y-79659795D01*
X164750001Y-79659795D01*
X164750003Y-79659795D01*
X164750003Y-79659794D01*
X164752486Y-79659600D01*
X164910198Y-79613781D01*
X165051552Y-79530185D01*
X165051561Y-79530178D01*
X165167678Y-79414061D01*
X165167685Y-79414052D01*
X165251282Y-79272696D01*
X165251283Y-79272693D01*
X165297099Y-79114995D01*
X165297100Y-79114989D01*
X165299999Y-79078149D01*
X165300000Y-79078134D01*
X165300000Y-78437500D01*
X164750001Y-78437500D01*
X164750000Y-78437500D01*
X164749999Y-78437500D01*
X164746401Y-78438990D01*
X164726538Y-78453860D01*
X164716611Y-78459281D01*
X164648338Y-78474135D01*
X164582873Y-78449721D01*
X164541000Y-78393789D01*
X164538313Y-78386583D01*
X164530500Y-78343263D01*
X164530500Y-78035191D01*
X164535521Y-78000264D01*
X164538707Y-77989411D01*
X164576477Y-77930630D01*
X164640031Y-77901601D01*
X164709186Y-77911539D01*
X164716172Y-77914729D01*
X164747442Y-77936440D01*
X164750000Y-77937500D01*
X165300000Y-77937500D01*
X165300000Y-77296865D01*
X165299999Y-77296850D01*
X165297100Y-77260010D01*
X165297099Y-77260004D01*
X165289449Y-77233674D01*
X165251291Y-77102333D01*
X165251289Y-77102328D01*
X165251283Y-77102306D01*
X165251282Y-77102303D01*
X165246052Y-77093460D01*
X165167688Y-76960952D01*
X165167685Y-76960947D01*
X165167676Y-76960936D01*
X165051562Y-76844822D01*
X165051551Y-76844813D01*
X165051546Y-76844810D01*
X164910199Y-76761218D01*
X164910196Y-76761217D01*
X164910182Y-76761212D01*
X164867180Y-76748719D01*
X164845621Y-76742456D01*
X164810409Y-76719969D01*
X164750000Y-76715203D01*
X164750000Y-77075630D01*
X164744977Y-77110566D01*
X164743256Y-77116427D01*
X164705481Y-77175205D01*
X164641925Y-77204229D01*
X164572767Y-77194285D01*
X164519972Y-77148543D01*
X164518246Y-77145858D01*
X164501848Y-77107199D01*
X164475851Y-76996673D01*
X164475566Y-76995392D01*
X164463379Y-76967791D01*
X164389409Y-76800263D01*
X164268911Y-76624358D01*
X164268906Y-76624352D01*
X164268893Y-76624338D01*
X164118160Y-76473605D01*
X164118152Y-76473598D01*
X164118147Y-76473593D01*
X164118141Y-76473588D01*
X164118137Y-76473585D01*
X164118127Y-76473578D01*
X164012377Y-76401137D01*
X163994480Y-76379212D01*
X163942249Y-76353097D01*
X163942238Y-76353092D01*
X163942239Y-76353092D01*
X163942237Y-76353091D01*
X163942217Y-76353082D01*
X163749889Y-76268161D01*
X163747514Y-76267044D01*
X163747084Y-76266943D01*
X163746990Y-76266921D01*
X163733279Y-76263684D01*
X163733180Y-76263673D01*
X163539639Y-76218151D01*
X163539619Y-76218149D01*
X163451020Y-76212000D01*
X163451016Y-76212000D01*
X163451012Y-76212000D01*
X163008988Y-76212000D01*
X163008984Y-76212000D01*
X163008980Y-76212000D01*
X162920392Y-76218147D01*
X162920377Y-76218149D01*
X162920360Y-76218151D01*
X162920359Y-76218151D01*
X162712840Y-76266960D01*
X162712814Y-76266967D01*
X162661396Y-76289671D01*
X162627408Y-76299187D01*
X162602249Y-76302481D01*
X162536066Y-76292965D01*
X162477189Y-76266969D01*
X162477184Y-76266967D01*
X162477158Y-76266960D01*
X162269639Y-76218151D01*
X162269621Y-76218149D01*
X162269606Y-76218147D01*
X162181021Y-76212000D01*
X162181016Y-76212000D01*
X162181012Y-76212000D01*
X162082330Y-76212000D01*
X162047389Y-76206975D01*
X162032390Y-76202570D01*
X161973644Y-76164827D01*
X161972457Y-76163458D01*
X161944977Y-76108583D01*
X161943332Y-76101021D01*
X161940500Y-76074668D01*
X161940500Y-75343644D01*
X161945523Y-75308708D01*
X161949927Y-75293710D01*
X161987693Y-75234940D01*
X161994108Y-75229381D01*
X162045014Y-75202849D01*
X162136083Y-75179901D01*
X162214683Y-75160096D01*
X162419626Y-75067007D01*
X162604654Y-74938819D01*
X162763819Y-74779654D01*
X162790457Y-74741201D01*
X162814472Y-74715353D01*
X162826636Y-74705530D01*
X162891148Y-74678725D01*
X162899132Y-74677858D01*
X162900653Y-74677694D01*
X162953026Y-74683265D01*
X162985007Y-74693862D01*
X163047302Y-74714505D01*
X163047309Y-74714506D01*
X163150019Y-74724999D01*
X163700000Y-74724999D01*
X163749960Y-74724999D01*
X163749972Y-74724999D01*
X163749986Y-74724998D01*
X163852697Y-74714505D01*
X164019119Y-74659358D01*
X164019124Y-74659356D01*
X164168345Y-74567315D01*
X164292315Y-74443345D01*
X164384356Y-74294124D01*
X164384358Y-74294119D01*
X164439505Y-74127697D01*
X164439506Y-74127690D01*
X164449999Y-74024986D01*
X164450000Y-74024973D01*
X164450000Y-73750000D01*
X163700000Y-73750000D01*
X163700000Y-74724999D01*
X163150019Y-74724999D01*
X163199999Y-74724998D01*
X163200000Y-74724998D01*
X163200000Y-73250000D01*
X163700000Y-73250000D01*
X164449999Y-73250000D01*
X164449999Y-72975028D01*
X164449998Y-72975013D01*
X164439505Y-72872302D01*
X164384358Y-72705880D01*
X164384356Y-72705875D01*
X164292315Y-72556654D01*
X164168345Y-72432684D01*
X164019124Y-72340643D01*
X164019119Y-72340641D01*
X164019110Y-72340638D01*
X163852699Y-72285494D01*
X163852694Y-72285493D01*
X163749991Y-72275000D01*
X163749986Y-72275000D01*
X163700000Y-72275000D01*
X163700000Y-73250000D01*
X163200000Y-73250000D01*
X163200000Y-72274999D01*
X163150048Y-72274999D01*
X163150021Y-72275000D01*
X163149983Y-72275003D01*
X163047298Y-72285494D01*
X162958465Y-72314930D01*
X162923721Y-72321151D01*
X162908097Y-72321688D01*
X162840431Y-72304324D01*
X162836319Y-72301877D01*
X162832236Y-72299447D01*
X162793718Y-72263503D01*
X162763820Y-72220347D01*
X162720484Y-72177011D01*
X162604654Y-72061181D01*
X162604653Y-72061180D01*
X162604644Y-72061173D01*
X162502734Y-71990570D01*
X162420560Y-71933640D01*
X162419691Y-71933025D01*
X162419625Y-71932992D01*
X162294151Y-71876000D01*
X162264800Y-71862668D01*
X162214685Y-71839904D01*
X162214668Y-71839899D01*
X161996429Y-71784906D01*
X161996418Y-71784904D01*
X161996414Y-71784903D01*
X161952348Y-71781436D01*
X161952347Y-71781436D01*
X161864222Y-71774500D01*
X161864217Y-71774500D01*
X161864215Y-71774500D01*
X161235791Y-71774500D01*
X161235787Y-71774500D01*
X161103584Y-71784903D01*
X161103580Y-71784904D01*
X161103569Y-71784906D01*
X160885330Y-71839899D01*
X160885309Y-71839906D01*
X160680384Y-71932986D01*
X160680374Y-71932992D01*
X160680368Y-71932995D01*
X160680362Y-71932999D01*
X160495359Y-72061169D01*
X160495350Y-72061176D01*
X160495334Y-72061191D01*
X160355953Y-72200573D01*
X160327701Y-72221723D01*
X160304612Y-72234331D01*
X160245183Y-72249500D01*
X155591830Y-72249500D01*
X155556889Y-72244475D01*
X155541890Y-72240070D01*
X155483144Y-72202327D01*
X155481957Y-72200958D01*
X155454477Y-72146083D01*
X155452832Y-72138521D01*
X155450000Y-72112168D01*
X155450000Y-72000000D01*
X155341830Y-72000000D01*
X155306889Y-71994975D01*
X155291890Y-71990570D01*
X155233144Y-71952827D01*
X155231957Y-71951458D01*
X155204477Y-71896583D01*
X155202832Y-71889021D01*
X155200000Y-71862668D01*
X155200000Y-71750000D01*
X155700000Y-71750000D01*
X156449999Y-71750000D01*
X156449999Y-71475028D01*
X156449998Y-71475013D01*
X156439505Y-71372302D01*
X156384358Y-71205880D01*
X156384356Y-71205875D01*
X156292315Y-71056654D01*
X156168345Y-70932684D01*
X156019124Y-70840643D01*
X156019119Y-70840641D01*
X156019110Y-70840638D01*
X155852699Y-70785494D01*
X155852694Y-70785493D01*
X155749991Y-70775000D01*
X155749986Y-70775000D01*
X155700000Y-70775000D01*
X155700000Y-71750000D01*
X155200000Y-71750000D01*
X155200000Y-70774999D01*
X155150048Y-70774999D01*
X155150021Y-70775000D01*
X155149983Y-70775003D01*
X155047298Y-70785494D01*
X154958465Y-70814930D01*
X154923721Y-70821151D01*
X154908097Y-70821688D01*
X154840431Y-70804324D01*
X154836319Y-70801877D01*
X154832236Y-70799447D01*
X154793718Y-70763503D01*
X154763820Y-70720347D01*
X154756654Y-70713181D01*
X154604654Y-70561181D01*
X154604653Y-70561180D01*
X154604644Y-70561173D01*
X154533404Y-70511818D01*
X154420560Y-70433640D01*
X154419691Y-70433025D01*
X154419647Y-70433003D01*
X154419630Y-70432995D01*
X154419626Y-70432993D01*
X154366605Y-70408910D01*
X154312316Y-70384251D01*
X154214685Y-70339904D01*
X154214668Y-70339899D01*
X153996429Y-70284906D01*
X153996418Y-70284904D01*
X153996414Y-70284903D01*
X153952348Y-70281436D01*
X153952347Y-70281436D01*
X153864222Y-70274500D01*
X153864217Y-70274500D01*
X153864215Y-70274500D01*
X153235791Y-70274500D01*
X153235787Y-70274500D01*
X153103584Y-70284903D01*
X153103580Y-70284904D01*
X153103569Y-70284906D01*
X152885330Y-70339899D01*
X152885309Y-70339906D01*
X152680384Y-70432986D01*
X152680374Y-70432992D01*
X152680368Y-70432995D01*
X152680362Y-70432999D01*
X152495359Y-70561169D01*
X152495350Y-70561176D01*
X152495334Y-70561191D01*
X152355953Y-70700573D01*
X152327701Y-70721723D01*
X152304612Y-70734331D01*
X152245183Y-70749500D01*
X146587166Y-70749500D01*
X146552230Y-70744477D01*
X146526988Y-70737065D01*
X146474243Y-70705769D01*
X144524425Y-68755951D01*
X144503273Y-68727695D01*
X144490666Y-68704606D01*
X144475499Y-68645181D01*
X144475499Y-68383909D01*
X146025000Y-68383909D01*
X146025000Y-68616089D01*
X146059446Y-68833578D01*
X146061318Y-68845393D01*
X146133065Y-69066205D01*
X146238465Y-69273064D01*
X146295238Y-69351207D01*
X146782924Y-68863520D01*
X146844245Y-68830037D01*
X146913936Y-68835021D01*
X146969870Y-68876892D01*
X146973691Y-68882292D01*
X146995112Y-68914351D01*
X146995116Y-68914355D01*
X146995116Y-68914356D01*
X147085646Y-69004886D01*
X147117684Y-69026293D01*
X147162489Y-69079906D01*
X147171196Y-69149231D01*
X147141041Y-69212258D01*
X147136474Y-69217076D01*
X146648791Y-69704758D01*
X146648791Y-69704759D01*
X146648791Y-69704760D01*
X146726935Y-69761534D01*
X146933794Y-69866934D01*
X147154606Y-69938681D01*
X147383910Y-69975000D01*
X147616089Y-69975000D01*
X147616090Y-69975000D01*
X147845393Y-69938681D01*
X148066205Y-69866934D01*
X148273071Y-69761530D01*
X148351207Y-69704762D01*
X148351208Y-69704760D01*
X148351207Y-69704758D01*
X147863524Y-69217076D01*
X147830039Y-69155753D01*
X147835023Y-69086062D01*
X147876894Y-69030128D01*
X147882270Y-69026323D01*
X147914351Y-69004888D01*
X148004888Y-68914351D01*
X148026295Y-68882312D01*
X148079903Y-68837510D01*
X148149227Y-68828801D01*
X148212256Y-68858955D01*
X148217076Y-68863524D01*
X148704758Y-69351207D01*
X148704760Y-69351208D01*
X148704762Y-69351207D01*
X148761530Y-69273071D01*
X148866934Y-69066205D01*
X148938681Y-68845393D01*
X148975000Y-68616090D01*
X148975000Y-68383909D01*
X148938681Y-68154606D01*
X148866934Y-67933794D01*
X148761534Y-67726935D01*
X148704760Y-67648791D01*
X148704759Y-67648791D01*
X148704758Y-67648791D01*
X148217076Y-68136474D01*
X148155753Y-68169959D01*
X148086061Y-68164975D01*
X148030128Y-68123103D01*
X148026293Y-68117684D01*
X148004886Y-68085646D01*
X147914356Y-67995116D01*
X147914352Y-67995113D01*
X147914351Y-67995112D01*
X147882310Y-67973703D01*
X147837507Y-67920091D01*
X147828800Y-67850766D01*
X147858955Y-67787739D01*
X147863500Y-67782943D01*
X148351207Y-67295238D01*
X148273064Y-67238465D01*
X148066205Y-67133065D01*
X147845393Y-67061318D01*
X147845391Y-67061317D01*
X147845390Y-67061317D01*
X147669244Y-67033418D01*
X147616090Y-67025000D01*
X147616089Y-67025000D01*
X147383905Y-67025000D01*
X147154609Y-67061317D01*
X146933791Y-67133066D01*
X146726926Y-67238469D01*
X146726922Y-67238471D01*
X146648790Y-67295237D01*
X147136475Y-67782922D01*
X147169960Y-67844245D01*
X147164976Y-67913937D01*
X147123104Y-67969870D01*
X147117688Y-67973703D01*
X147085648Y-67995112D01*
X147085643Y-67995116D01*
X146995116Y-68085643D01*
X146995112Y-68085648D01*
X146973703Y-68117688D01*
X146920090Y-68162491D01*
X146850764Y-68171197D01*
X146787738Y-68141040D01*
X146782922Y-68136475D01*
X146295238Y-67648791D01*
X146295237Y-67648791D01*
X146238471Y-67726922D01*
X146238469Y-67726926D01*
X146133066Y-67933791D01*
X146061318Y-68154606D01*
X146025000Y-68383909D01*
X144475499Y-68383909D01*
X144475499Y-67466971D01*
X144475499Y-67466964D01*
X144464886Y-67347582D01*
X144408909Y-67151951D01*
X144314698Y-66971593D01*
X144262684Y-66907803D01*
X144186109Y-66813890D01*
X144186107Y-66813888D01*
X144186106Y-66813887D01*
X144092807Y-66737813D01*
X144080704Y-66720167D01*
X144028404Y-66685300D01*
X143852019Y-66593165D01*
X143848836Y-66591353D01*
X143848042Y-66591088D01*
X143730829Y-66557550D01*
X143654981Y-66535847D01*
X143652825Y-66535179D01*
X143650347Y-66534777D01*
X143646936Y-66534626D01*
X143637628Y-66533798D01*
X143586102Y-66529217D01*
X143586101Y-66529216D01*
X143533039Y-66524500D01*
X143533037Y-66524500D01*
X143533032Y-66524500D01*
X141466971Y-66524500D01*
X141466965Y-66524500D01*
X141454897Y-66524500D01*
X141448042Y-66526182D01*
X141347582Y-66535113D01*
X141151952Y-66591089D01*
X141061771Y-66638194D01*
X141061772Y-66638195D01*
X140972578Y-66684787D01*
X140971646Y-66685263D01*
X140969242Y-66686996D01*
X140966716Y-66689278D01*
X140813887Y-66813892D01*
X140685306Y-66971586D01*
X140591088Y-67151955D01*
X140535848Y-67345016D01*
X140535236Y-67346992D01*
X140535113Y-67347581D01*
X140524500Y-67466967D01*
X140524500Y-69533034D01*
X140524835Y-69537089D01*
X140524921Y-69537760D01*
X140535113Y-69652416D01*
X140591090Y-69848048D01*
X140591353Y-69848836D01*
X140593165Y-69852019D01*
X140685300Y-70028404D01*
X140687167Y-70030947D01*
X140689278Y-70033283D01*
X140813887Y-70186106D01*
X140813888Y-70186107D01*
X140813890Y-70186109D01*
X140907803Y-70262684D01*
X140971593Y-70314698D01*
X141151951Y-70408909D01*
X141151953Y-70408909D01*
X141151954Y-70408910D01*
X141171355Y-70414461D01*
X141347582Y-70464886D01*
X141466963Y-70475500D01*
X142637833Y-70475499D01*
X142672765Y-70480520D01*
X142698009Y-70487933D01*
X142750755Y-70519229D01*
X145046171Y-72814645D01*
X145046172Y-72814646D01*
X145185354Y-72953828D01*
X145344595Y-73069524D01*
X145519975Y-73158884D01*
X145519979Y-73158886D01*
X145604223Y-73186258D01*
X145641719Y-73198440D01*
X145650842Y-73201806D01*
X145658508Y-73204981D01*
X145665025Y-73206014D01*
X145682233Y-73211605D01*
X145707173Y-73219709D01*
X145754892Y-73227266D01*
X145779915Y-73231230D01*
X145780014Y-73231245D01*
X145780076Y-73231255D01*
X145901578Y-73250500D01*
X145901583Y-73250500D01*
X152237834Y-73250500D01*
X152272769Y-73255523D01*
X152298012Y-73262935D01*
X152350758Y-73294231D01*
X152495346Y-73438819D01*
X152519728Y-73455710D01*
X152524945Y-73459325D01*
X152541017Y-73472591D01*
X152555758Y-73487004D01*
X152569386Y-73502779D01*
X152596172Y-73539646D01*
X153371171Y-74314645D01*
X153371172Y-74314646D01*
X153510354Y-74453828D01*
X153600251Y-74519142D01*
X153669590Y-74569521D01*
X153669592Y-74569522D01*
X153669595Y-74569524D01*
X153718861Y-74594626D01*
X153838521Y-74655596D01*
X153840125Y-74656535D01*
X153843833Y-74658331D01*
X153845832Y-74659324D01*
X153849593Y-74660385D01*
X153884476Y-74671718D01*
X153908296Y-74679458D01*
X153908297Y-74679459D01*
X153920011Y-74683265D01*
X154032173Y-74719709D01*
X154226578Y-74750500D01*
X154226583Y-74750500D01*
X154226584Y-74750500D01*
X154423417Y-74750500D01*
X159297670Y-74750500D01*
X159332606Y-74755523D01*
X159347604Y-74759927D01*
X159406355Y-74797672D01*
X159407542Y-74799041D01*
X159435018Y-74853902D01*
X159436663Y-74861460D01*
X159439500Y-74887831D01*
X159439500Y-76795170D01*
X159434475Y-76830114D01*
X159430070Y-76845112D01*
X159392327Y-76903855D01*
X159390958Y-76905042D01*
X159336097Y-76932518D01*
X159328539Y-76934163D01*
X159302168Y-76937000D01*
X154134078Y-76937000D01*
X154103288Y-76941876D01*
X153939673Y-76967790D01*
X153840532Y-77000002D01*
X153840530Y-77000003D01*
X153752469Y-77028616D01*
X153577101Y-77117972D01*
X153577088Y-77117980D01*
X153518566Y-77160498D01*
X153518567Y-77160499D01*
X153429725Y-77225047D01*
X153422344Y-77229180D01*
X146607330Y-84044193D01*
X146579077Y-84065344D01*
X146566895Y-84071996D01*
X146498622Y-84086848D01*
X146433159Y-84062432D01*
X146433024Y-84062332D01*
X146426340Y-84057327D01*
X146393274Y-84020068D01*
X146380273Y-83997550D01*
X146338903Y-83943635D01*
X146236599Y-83810309D01*
X146236595Y-83810305D01*
X146236593Y-83810302D01*
X146236587Y-83810295D01*
X146069704Y-83643412D01*
X146069697Y-83643406D01*
X146069694Y-83643403D01*
X146069689Y-83643399D01*
X145884040Y-83500947D01*
X145882776Y-83499944D01*
X145882447Y-83499725D01*
X145882445Y-83499723D01*
X145799062Y-83451583D01*
X145799060Y-83451581D01*
X145678065Y-83381724D01*
X145678048Y-83381715D01*
X145459997Y-83291395D01*
X145361131Y-83264904D01*
X145239865Y-83232410D01*
X145232117Y-83229780D01*
X145223951Y-83229245D01*
X144999889Y-83199747D01*
X144998208Y-83199500D01*
X144998017Y-83199500D01*
X144998011Y-83199500D01*
X144761989Y-83199500D01*
X144761983Y-83199500D01*
X144761981Y-83199500D01*
X144755861Y-83200253D01*
X144754955Y-83200425D01*
X144527992Y-83230305D01*
X144300001Y-83291395D01*
X144081950Y-83381715D01*
X144081942Y-83381719D01*
X143877545Y-83499730D01*
X143877536Y-83499736D01*
X143690309Y-83643399D01*
X143690294Y-83643413D01*
X143690286Y-83643420D01*
X143523420Y-83810286D01*
X143523413Y-83810294D01*
X143523399Y-83810309D01*
X143379736Y-83997536D01*
X143379730Y-83997545D01*
X143261719Y-84201942D01*
X143261716Y-84201949D01*
X143171395Y-84420001D01*
X143110305Y-84647992D01*
X143099635Y-84729043D01*
X143090093Y-84763029D01*
X143085046Y-84774436D01*
X143039919Y-84827778D01*
X142973118Y-84848255D01*
X142909010Y-84831279D01*
X142900446Y-84826267D01*
X142875409Y-84806935D01*
X138222864Y-80154390D01*
X138201715Y-80126139D01*
X138192224Y-80108759D01*
X138190628Y-80105836D01*
X138175567Y-80051567D01*
X138175444Y-80048613D01*
X138176397Y-80027297D01*
X138200500Y-79844228D01*
X138200500Y-79555772D01*
X138162849Y-79269783D01*
X138089734Y-78996913D01*
X138089408Y-78995412D01*
X138088504Y-78992254D01*
X138088148Y-78990970D01*
X138087525Y-78989400D01*
X138087341Y-78988915D01*
X138086511Y-78987097D01*
X137977809Y-78724666D01*
X137977803Y-78724653D01*
X137977800Y-78724648D01*
X137977800Y-78724647D01*
X137901833Y-78593069D01*
X137833710Y-78475077D01*
X137833580Y-78474851D01*
X137833580Y-78474850D01*
X137657977Y-78246000D01*
X137657971Y-78245992D01*
X137657956Y-78245976D01*
X137454017Y-78042038D01*
X137454009Y-78042030D01*
X137454002Y-78042024D01*
X137453999Y-78042021D01*
X137453994Y-78042017D01*
X137226754Y-77867651D01*
X137225479Y-77866639D01*
X137225154Y-77866423D01*
X136975350Y-77722198D01*
X136975345Y-77722195D01*
X136975332Y-77722189D01*
X136708869Y-77611817D01*
X136708851Y-77611810D01*
X136708840Y-77611807D01*
X136430221Y-77537152D01*
X136430219Y-77537151D01*
X136430217Y-77537151D01*
X136430211Y-77537150D01*
X136430206Y-77537149D01*
X136430201Y-77537148D01*
X136148328Y-77500039D01*
X136146312Y-77499705D01*
X136144238Y-77499500D01*
X136144233Y-77499500D01*
X136144228Y-77499500D01*
X135855772Y-77499500D01*
X135855766Y-77499500D01*
X135855761Y-77499500D01*
X135853684Y-77499705D01*
X135851670Y-77500039D01*
X135569814Y-77537146D01*
X135569782Y-77537150D01*
X135567981Y-77537576D01*
X135566202Y-77538110D01*
X135503794Y-77554831D01*
X135495018Y-77557183D01*
X135495017Y-77557182D01*
X135473812Y-77562865D01*
X135438769Y-77567055D01*
X135424898Y-77566725D01*
X135358345Y-77545451D01*
X135313859Y-77491574D01*
X135313856Y-77491567D01*
X135310509Y-77483750D01*
X135300500Y-77434943D01*
X135300500Y-69537164D01*
X135305522Y-69502231D01*
X135312934Y-69476986D01*
X135344228Y-69424244D01*
X135545612Y-69222859D01*
X135573861Y-69201713D01*
X135578925Y-69198948D01*
X135594163Y-69190627D01*
X135648430Y-69175567D01*
X135651385Y-69175444D01*
X135672700Y-69176397D01*
X135843991Y-69198948D01*
X135843992Y-69198949D01*
X135847448Y-69199404D01*
X135855756Y-69200498D01*
X135855772Y-69200500D01*
X135855779Y-69200500D01*
X136144221Y-69200500D01*
X136144228Y-69200500D01*
X136430217Y-69162849D01*
X136704998Y-69089221D01*
X136708209Y-69088473D01*
X136710595Y-69087527D01*
X136711074Y-69087345D01*
X136712901Y-69086511D01*
X136971302Y-68979478D01*
X136973162Y-68978784D01*
X136973622Y-68978578D01*
X136975412Y-68977804D01*
X136977048Y-68976895D01*
X136978770Y-68975826D01*
X137225156Y-68833575D01*
X137454004Y-68657974D01*
X137657974Y-68454004D01*
X137833575Y-68225156D01*
X137977804Y-67975345D01*
X138009445Y-67898958D01*
X138088185Y-67708860D01*
X138088185Y-67708857D01*
X138088191Y-67708845D01*
X138162849Y-67430217D01*
X138200500Y-67144228D01*
X138200500Y-66855772D01*
X138162849Y-66569783D01*
X138089734Y-66296913D01*
X138089408Y-66295412D01*
X138088504Y-66292254D01*
X138088148Y-66290970D01*
X138087525Y-66289400D01*
X138087341Y-66288915D01*
X138086511Y-66287097D01*
X137977809Y-66024666D01*
X137977803Y-66024653D01*
X137977800Y-66024648D01*
X137977800Y-66024647D01*
X137901833Y-65893069D01*
X137833710Y-65775077D01*
X137833580Y-65774851D01*
X137833580Y-65774850D01*
X137657977Y-65546000D01*
X137657971Y-65545992D01*
X137657956Y-65545976D01*
X137454017Y-65342038D01*
X137454009Y-65342030D01*
X137454002Y-65342024D01*
X137453999Y-65342021D01*
X137453994Y-65342017D01*
X137226754Y-65167651D01*
X137225479Y-65166639D01*
X137225154Y-65166423D01*
X136975350Y-65022198D01*
X136975345Y-65022195D01*
X136975332Y-65022189D01*
X136708869Y-64911817D01*
X136708851Y-64911810D01*
X136708840Y-64911807D01*
X136430221Y-64837152D01*
X136430219Y-64837151D01*
X136430217Y-64837151D01*
X136430211Y-64837150D01*
X136430206Y-64837149D01*
X136430201Y-64837148D01*
X136148328Y-64800039D01*
X136146312Y-64799705D01*
X136144238Y-64799500D01*
X136144233Y-64799500D01*
X136144228Y-64799500D01*
X135855772Y-64799500D01*
X135855766Y-64799500D01*
X135855761Y-64799500D01*
X135853684Y-64799705D01*
X135851670Y-64800039D01*
X135569814Y-64837146D01*
X135569782Y-64837150D01*
X135567973Y-64837577D01*
X135566197Y-64838111D01*
X135291150Y-64911810D01*
X135291130Y-64911817D01*
X135024656Y-65022193D01*
X135024653Y-65022195D01*
X135024648Y-65022198D01*
X134774855Y-65166417D01*
X134774838Y-65166429D01*
X134774824Y-65166439D01*
X134546004Y-65342017D01*
X134545989Y-65342031D01*
X134545981Y-65342038D01*
X134342038Y-65545981D01*
X134342031Y-65545989D01*
X134342017Y-65546004D01*
X134166439Y-65774824D01*
X134166429Y-65774838D01*
X134166417Y-65774855D01*
X134022198Y-66024648D01*
X134022195Y-66024653D01*
X134022193Y-66024656D01*
X133911817Y-66291130D01*
X133911815Y-66291136D01*
X133911814Y-66291139D01*
X133911809Y-66291155D01*
X133884483Y-66393133D01*
X133837153Y-66569772D01*
X133837150Y-66569789D01*
X133837147Y-66569802D01*
X133799501Y-66855754D01*
X133799500Y-66855783D01*
X133799500Y-67144215D01*
X133799501Y-67144244D01*
X133822671Y-67320240D01*
X133822252Y-67355529D01*
X133818689Y-67378380D01*
X133797603Y-67430600D01*
X133795907Y-67433012D01*
X133782154Y-67449369D01*
X133096178Y-68135345D01*
X133095761Y-68135854D01*
X133094706Y-68137370D01*
X133082188Y-68154601D01*
X133082185Y-68154606D01*
X132980475Y-68294594D01*
X132891114Y-68469975D01*
X132861512Y-68561087D01*
X132861511Y-68561089D01*
X132830290Y-68657174D01*
X132828764Y-68666813D01*
X132828763Y-68666815D01*
X132799500Y-68851577D01*
X132799500Y-83648427D01*
X132830289Y-83842822D01*
X132891116Y-84030028D01*
X132891119Y-84030036D01*
X132938041Y-84122122D01*
X132938041Y-84122124D01*
X132938042Y-84122124D01*
X132980476Y-84205405D01*
X133096172Y-84364646D01*
X133096174Y-84364648D01*
X135256737Y-86525211D01*
X135277886Y-86553461D01*
X135283307Y-86563388D01*
X135298161Y-86631661D01*
X135273747Y-86697126D01*
X135217815Y-86738999D01*
X135217811Y-86739001D01*
X135210623Y-86741682D01*
X135167289Y-86749500D01*
X133393108Y-86749500D01*
X133358172Y-86744477D01*
X133335978Y-86737960D01*
X133286978Y-86710255D01*
X133284798Y-86708250D01*
X133270377Y-86692482D01*
X133206489Y-86609222D01*
X133157981Y-86546004D01*
X133157977Y-86546000D01*
X133157975Y-86545997D01*
X133157969Y-86545990D01*
X132954009Y-86342030D01*
X132954002Y-86342024D01*
X132953999Y-86342021D01*
X132953994Y-86342017D01*
X132726754Y-86167651D01*
X132725479Y-86166639D01*
X132725154Y-86166423D01*
X132475350Y-86022198D01*
X132475345Y-86022195D01*
X132475332Y-86022189D01*
X132208869Y-85911817D01*
X132208851Y-85911810D01*
X132208840Y-85911807D01*
X131930221Y-85837152D01*
X131930219Y-85837151D01*
X131930217Y-85837151D01*
X131930211Y-85837150D01*
X131930206Y-85837149D01*
X131930201Y-85837148D01*
X131648328Y-85800039D01*
X131646312Y-85799705D01*
X131644238Y-85799500D01*
X131644233Y-85799500D01*
X131644228Y-85799500D01*
X131355772Y-85799500D01*
X131355766Y-85799500D01*
X131355761Y-85799500D01*
X131353684Y-85799705D01*
X131351670Y-85800039D01*
X131069814Y-85837146D01*
X131069782Y-85837150D01*
X131067973Y-85837577D01*
X131066197Y-85838111D01*
X130791150Y-85911810D01*
X130791130Y-85911817D01*
X130524656Y-86022193D01*
X130524653Y-86022195D01*
X130524648Y-86022198D01*
X130274855Y-86166417D01*
X130274838Y-86166429D01*
X130274824Y-86166439D01*
X130046004Y-86342017D01*
X130045989Y-86342031D01*
X130045981Y-86342038D01*
X129842038Y-86545981D01*
X129842031Y-86545989D01*
X129842017Y-86546004D01*
X129666439Y-86774824D01*
X129666429Y-86774838D01*
X129666417Y-86774855D01*
X129522198Y-87024648D01*
X129522195Y-87024653D01*
X129522193Y-87024656D01*
X129411817Y-87291130D01*
X129411815Y-87291136D01*
X129411814Y-87291139D01*
X129411809Y-87291155D01*
X129384483Y-87393133D01*
X129337153Y-87569772D01*
X129337150Y-87569789D01*
X129337147Y-87569802D01*
X129299501Y-87855754D01*
X129299500Y-87855783D01*
X129299500Y-88144215D01*
X129299501Y-88144244D01*
X129337148Y-88430201D01*
X129337152Y-88430221D01*
X129411805Y-88708831D01*
X129411809Y-88708846D01*
X129411817Y-88708869D01*
X129514469Y-88956694D01*
X129522191Y-88975336D01*
X129522199Y-88975352D01*
X129581201Y-89077545D01*
X129657049Y-89208918D01*
X129666420Y-89225148D01*
X129666431Y-89225164D01*
X129666439Y-89225174D01*
X129842017Y-89453994D01*
X129842021Y-89453999D01*
X129842024Y-89454002D01*
X129842030Y-89454009D01*
X130045990Y-89657969D01*
X130045997Y-89657975D01*
X130046000Y-89657977D01*
X130046004Y-89657981D01*
X130137237Y-89727986D01*
X130137241Y-89727989D01*
X130173460Y-89755781D01*
X130274851Y-89833580D01*
X130275077Y-89833710D01*
X130393069Y-89901833D01*
X130524647Y-89977800D01*
X130524663Y-89977808D01*
X130657572Y-90032860D01*
X130787097Y-90086511D01*
X130788915Y-90087341D01*
X130789400Y-90087525D01*
X130790970Y-90088148D01*
X130792254Y-90088504D01*
X130795412Y-90089408D01*
X130796913Y-90089734D01*
X130827606Y-90097958D01*
X131069783Y-90162849D01*
X131355772Y-90200500D01*
X131355779Y-90200500D01*
X131644221Y-90200500D01*
X131644228Y-90200500D01*
X131930217Y-90162849D01*
X132204998Y-90089221D01*
X132208209Y-90088473D01*
X132210595Y-90087527D01*
X132211074Y-90087345D01*
X132212901Y-90086511D01*
X132471302Y-89979478D01*
X132473162Y-89978784D01*
X132473622Y-89978578D01*
X132475412Y-89977804D01*
X132477048Y-89976895D01*
X132478770Y-89975826D01*
X132725156Y-89833575D01*
X132954004Y-89657974D01*
X133157974Y-89454004D01*
X133266051Y-89313154D01*
X133291296Y-89288503D01*
X133309980Y-89274860D01*
X133361817Y-89252847D01*
X133364721Y-89252341D01*
X133386006Y-89250500D01*
X134613097Y-89250500D01*
X134648033Y-89255523D01*
X134663031Y-89259927D01*
X134721804Y-89297697D01*
X134730722Y-89307988D01*
X134749829Y-89338915D01*
X134750068Y-89338798D01*
X134751315Y-89341320D01*
X134751570Y-89341733D01*
X134751774Y-89342225D01*
X134751836Y-89342375D01*
X134876399Y-89558125D01*
X135028053Y-89755766D01*
X135028057Y-89755771D01*
X135028060Y-89755774D01*
X135028066Y-89755781D01*
X135204218Y-89931933D01*
X135204225Y-89931939D01*
X135204228Y-89931941D01*
X135204232Y-89931945D01*
X135348747Y-90042834D01*
X135401873Y-90083599D01*
X135617623Y-90208162D01*
X135617638Y-90208169D01*
X135716825Y-90249253D01*
X135847793Y-90303502D01*
X136088435Y-90367982D01*
X136335435Y-90400500D01*
X136335442Y-90400500D01*
X136584558Y-90400500D01*
X136584565Y-90400500D01*
X136831565Y-90367982D01*
X137072207Y-90303502D01*
X137253137Y-90228557D01*
X137298321Y-90209842D01*
X137301523Y-90208647D01*
X137303266Y-90207759D01*
X137305803Y-90206183D01*
X137333203Y-90190364D01*
X137365958Y-90177250D01*
X137381152Y-90173564D01*
X137450937Y-90176884D01*
X137462531Y-90180897D01*
X137500327Y-90201972D01*
X137546593Y-90239698D01*
X137726951Y-90333909D01*
X137922582Y-90389886D01*
X138041963Y-90400500D01*
X139062836Y-90400499D01*
X139097770Y-90405522D01*
X139123007Y-90412932D01*
X139175754Y-90444228D01*
X139626171Y-90894645D01*
X139626172Y-90894646D01*
X139765354Y-91033828D01*
X139924595Y-91149524D01*
X140099975Y-91238884D01*
X140219792Y-91277815D01*
X140287173Y-91299709D01*
X140342718Y-91308506D01*
X140481578Y-91330500D01*
X140481583Y-91330500D01*
X143330711Y-91330500D01*
X143365642Y-91335522D01*
X143377611Y-91339036D01*
X143436390Y-91376808D01*
X143465417Y-91440363D01*
X143456958Y-91506145D01*
X143453108Y-91515286D01*
X143437206Y-91542642D01*
X143379731Y-91617544D01*
X143379730Y-91617545D01*
X143261719Y-91821942D01*
X143261715Y-91821950D01*
X143171395Y-92040001D01*
X143110305Y-92267992D01*
X143079503Y-92501963D01*
X143079500Y-92501987D01*
X143079500Y-92738011D01*
X143079503Y-92738035D01*
X143110305Y-92972006D01*
X143171395Y-93199997D01*
X143261716Y-93418051D01*
X143327716Y-93532365D01*
X143379730Y-93622455D01*
X143379939Y-93622770D01*
X143380947Y-93624040D01*
X143523399Y-93809689D01*
X143523403Y-93809694D01*
X143523406Y-93809697D01*
X143523412Y-93809704D01*
X143523420Y-93809712D01*
X143690286Y-93976579D01*
X143690294Y-93976586D01*
X143690295Y-93976587D01*
X143690305Y-93976595D01*
X143709209Y-93991101D01*
X143733867Y-94016355D01*
X143742197Y-94027764D01*
X143765831Y-94093515D01*
X143750527Y-94160958D01*
X143744000Y-94172744D01*
X143723204Y-94200351D01*
X139762984Y-98160573D01*
X139734733Y-98181722D01*
X139711645Y-98194330D01*
X139652215Y-98209500D01*
X136941573Y-98209500D01*
X136747176Y-98240289D01*
X136559971Y-98301116D01*
X136384593Y-98390476D01*
X136293741Y-98456485D01*
X136237223Y-98497548D01*
X136229844Y-98501680D01*
X135330952Y-99400573D01*
X135302701Y-99421722D01*
X135279613Y-99434330D01*
X135220183Y-99449500D01*
X133393108Y-99449500D01*
X133358172Y-99444477D01*
X133335978Y-99437960D01*
X133286978Y-99410255D01*
X133284798Y-99408250D01*
X133270377Y-99392482D01*
X133206489Y-99309222D01*
X133157981Y-99246004D01*
X133157977Y-99246000D01*
X133157975Y-99245997D01*
X133157969Y-99245990D01*
X132954009Y-99042030D01*
X132954002Y-99042024D01*
X132953999Y-99042021D01*
X132953994Y-99042017D01*
X132726754Y-98867651D01*
X132725479Y-98866639D01*
X132725154Y-98866423D01*
X132475350Y-98722198D01*
X132475345Y-98722195D01*
X132475332Y-98722189D01*
X132208869Y-98611817D01*
X132208851Y-98611810D01*
X132208840Y-98611807D01*
X131930221Y-98537152D01*
X131930219Y-98537151D01*
X131930217Y-98537151D01*
X131930211Y-98537150D01*
X131930206Y-98537149D01*
X131930201Y-98537148D01*
X131648328Y-98500039D01*
X131646312Y-98499705D01*
X131644238Y-98499500D01*
X131644233Y-98499500D01*
X131644228Y-98499500D01*
X131355772Y-98499500D01*
X131355766Y-98499500D01*
X131355761Y-98499500D01*
X131353684Y-98499705D01*
X131351670Y-98500039D01*
X131069814Y-98537146D01*
X131069782Y-98537150D01*
X131067973Y-98537577D01*
X131066197Y-98538111D01*
X130791150Y-98611810D01*
X130791130Y-98611817D01*
X130524656Y-98722193D01*
X130524653Y-98722195D01*
X130524648Y-98722198D01*
X130274855Y-98866417D01*
X130274838Y-98866429D01*
X130274824Y-98866439D01*
X130046004Y-99042017D01*
X130045989Y-99042031D01*
X130045981Y-99042038D01*
X129842038Y-99245981D01*
X129842031Y-99245989D01*
X129842017Y-99246004D01*
X129666439Y-99474824D01*
X129666429Y-99474838D01*
X129666417Y-99474855D01*
X129522198Y-99724648D01*
X129522195Y-99724653D01*
X129522193Y-99724656D01*
X129411817Y-99991130D01*
X129411815Y-99991136D01*
X129411814Y-99991139D01*
X129411809Y-99991155D01*
X129384483Y-100093133D01*
X129337153Y-100269772D01*
X129337150Y-100269789D01*
X129337147Y-100269802D01*
X129299501Y-100555754D01*
X129299500Y-100555783D01*
X129299500Y-100844215D01*
X129299501Y-100844244D01*
X129337148Y-101130201D01*
X129337152Y-101130221D01*
X129376289Y-101276282D01*
X129411810Y-101408848D01*
X129411817Y-101408868D01*
X129522193Y-101675342D01*
X129522195Y-101675345D01*
X129522199Y-101675352D01*
X129666420Y-101925148D01*
X129666431Y-101925164D01*
X129666439Y-101925174D01*
X129713022Y-101985883D01*
X129730303Y-102016655D01*
X129741157Y-102044730D01*
X129749500Y-102089444D01*
X129749500Y-104106891D01*
X129744475Y-104141832D01*
X129737957Y-104164026D01*
X129710254Y-104213022D01*
X129708263Y-104215187D01*
X129692477Y-104229626D01*
X129545991Y-104342028D01*
X129545985Y-104342033D01*
X129342038Y-104545981D01*
X129342031Y-104545989D01*
X129342017Y-104546004D01*
X129166439Y-104774824D01*
X129166429Y-104774838D01*
X129166417Y-104774855D01*
X129022198Y-105024648D01*
X129022195Y-105024653D01*
X129022193Y-105024656D01*
X128911817Y-105291130D01*
X128911815Y-105291136D01*
X128911814Y-105291139D01*
X128911809Y-105291155D01*
X128884568Y-105392822D01*
X128837153Y-105569772D01*
X128837150Y-105569789D01*
X128837147Y-105569802D01*
X128799501Y-105855754D01*
X128799500Y-105855783D01*
X127500500Y-105855783D01*
X127500500Y-60642329D01*
X127505523Y-60607393D01*
X127509927Y-60592395D01*
X127547672Y-60533644D01*
X127549041Y-60532457D01*
X127603920Y-60504977D01*
X127611479Y-60503333D01*
X127637832Y-60500500D01*
X171357670Y-60500500D01*
X171392606Y-60505523D01*
G37*
%TD.AperFunction*%
%TD*%
%TA.AperFunction,Conductor*%
%TO.N,Current-*%
G36*
X167443039Y-81519685D02*
G01*
X167488794Y-81572489D01*
X167500000Y-81624000D01*
X167500000Y-103876000D01*
X167480315Y-103943039D01*
X167427511Y-103988794D01*
X167376000Y-104000000D01*
X163124000Y-104000000D01*
X163056961Y-103980315D01*
X163011206Y-103927511D01*
X163000000Y-103876000D01*
X163000000Y-84737450D01*
X163019685Y-84670411D01*
X163021701Y-84667373D01*
X163042282Y-84637327D01*
X163119409Y-84524737D01*
X163205532Y-84329685D01*
X163254349Y-84122130D01*
X163260500Y-84033512D01*
X163260500Y-82241488D01*
X163254349Y-82152870D01*
X163254347Y-82152864D01*
X163254347Y-82152859D01*
X163205534Y-81945323D01*
X163205532Y-81945317D01*
X163205532Y-81945315D01*
X163119409Y-81750263D01*
X163119406Y-81750258D01*
X163080921Y-81694076D01*
X163059275Y-81627644D01*
X163076980Y-81560055D01*
X163128417Y-81512768D01*
X163183221Y-81500000D01*
X167376000Y-81500000D01*
X167443039Y-81519685D01*
G37*
%TD.AperFunction*%
%TD*%
M02*
