%TF.GenerationSoftware,KiCad,Pcbnew,10.0.6*%
%TF.CreationDate,2026-09-12T11:10:52-04:00*%
%TF.ProjectId,Lunabotics Onboarding,4c756e61-626f-4746-9963-73204f6e626f,rev?*%
%TF.SameCoordinates,Original*%
%TF.FileFunction,Legend,Bot*%
%TF.FilePolarity,Positive*%
%FSLAX46Y46*%
G04 Gerber Fmt 4.6, Leading zero omitted, Abs format (unit mm)*
G04 Created by KiCad (PCBNEW 10.0.6) date 2026-09-12 11:10:52*
%MOMM*%
%LPD*%
G01*
G04 APERTURE LIST*
%ADD10C,0.150000*%
%ADD11C,0.120000*%
%ADD12C,0.127000*%
%ADD13C,0.200000*%
G04 APERTURE END LIST*
D10*
X129034819Y-94183333D02*
X128558628Y-93850000D01*
X129034819Y-93611905D02*
X128034819Y-93611905D01*
X128034819Y-93611905D02*
X128034819Y-93992857D01*
X128034819Y-93992857D02*
X128082438Y-94088095D01*
X128082438Y-94088095D02*
X128130057Y-94135714D01*
X128130057Y-94135714D02*
X128225295Y-94183333D01*
X128225295Y-94183333D02*
X128368152Y-94183333D01*
X128368152Y-94183333D02*
X128463390Y-94135714D01*
X128463390Y-94135714D02*
X128511009Y-94088095D01*
X128511009Y-94088095D02*
X128558628Y-93992857D01*
X128558628Y-93992857D02*
X128558628Y-93611905D01*
X128368152Y-95040476D02*
X129034819Y-95040476D01*
X127987200Y-94802381D02*
X128701485Y-94564286D01*
X128701485Y-94564286D02*
X128701485Y-95183333D01*
X137516666Y-109374819D02*
X137849999Y-108898628D01*
X138088094Y-109374819D02*
X138088094Y-108374819D01*
X138088094Y-108374819D02*
X137707142Y-108374819D01*
X137707142Y-108374819D02*
X137611904Y-108422438D01*
X137611904Y-108422438D02*
X137564285Y-108470057D01*
X137564285Y-108470057D02*
X137516666Y-108565295D01*
X137516666Y-108565295D02*
X137516666Y-108708152D01*
X137516666Y-108708152D02*
X137564285Y-108803390D01*
X137564285Y-108803390D02*
X137611904Y-108851009D01*
X137611904Y-108851009D02*
X137707142Y-108898628D01*
X137707142Y-108898628D02*
X138088094Y-108898628D01*
X136564285Y-109374819D02*
X137135713Y-109374819D01*
X136849999Y-109374819D02*
X136849999Y-108374819D01*
X136849999Y-108374819D02*
X136945237Y-108517676D01*
X136945237Y-108517676D02*
X137040475Y-108612914D01*
X137040475Y-108612914D02*
X137135713Y-108660533D01*
X159966666Y-103739866D02*
X159966666Y-104739866D01*
X159966666Y-104739866D02*
X160033333Y-104939866D01*
X160033333Y-104939866D02*
X160166666Y-105073200D01*
X160166666Y-105073200D02*
X160366666Y-105139866D01*
X160366666Y-105139866D02*
X160500000Y-105139866D01*
X159366666Y-103873200D02*
X159299999Y-103806533D01*
X159299999Y-103806533D02*
X159166666Y-103739866D01*
X159166666Y-103739866D02*
X158833333Y-103739866D01*
X158833333Y-103739866D02*
X158699999Y-103806533D01*
X158699999Y-103806533D02*
X158633333Y-103873200D01*
X158633333Y-103873200D02*
X158566666Y-104006533D01*
X158566666Y-104006533D02*
X158566666Y-104139866D01*
X158566666Y-104139866D02*
X158633333Y-104339866D01*
X158633333Y-104339866D02*
X159433333Y-105139866D01*
X159433333Y-105139866D02*
X158566666Y-105139866D01*
X149451904Y-82124819D02*
X149451904Y-82934342D01*
X149451904Y-82934342D02*
X149404285Y-83029580D01*
X149404285Y-83029580D02*
X149356666Y-83077200D01*
X149356666Y-83077200D02*
X149261428Y-83124819D01*
X149261428Y-83124819D02*
X149070952Y-83124819D01*
X149070952Y-83124819D02*
X148975714Y-83077200D01*
X148975714Y-83077200D02*
X148928095Y-83029580D01*
X148928095Y-83029580D02*
X148880476Y-82934342D01*
X148880476Y-82934342D02*
X148880476Y-82124819D01*
X148451904Y-82220057D02*
X148404285Y-82172438D01*
X148404285Y-82172438D02*
X148309047Y-82124819D01*
X148309047Y-82124819D02*
X148070952Y-82124819D01*
X148070952Y-82124819D02*
X147975714Y-82172438D01*
X147975714Y-82172438D02*
X147928095Y-82220057D01*
X147928095Y-82220057D02*
X147880476Y-82315295D01*
X147880476Y-82315295D02*
X147880476Y-82410533D01*
X147880476Y-82410533D02*
X147928095Y-82553390D01*
X147928095Y-82553390D02*
X148499523Y-83124819D01*
X148499523Y-83124819D02*
X147880476Y-83124819D01*
X143911666Y-73728866D02*
X143911666Y-74728866D01*
X143911666Y-74728866D02*
X143978333Y-74928866D01*
X143978333Y-74928866D02*
X144111666Y-75062200D01*
X144111666Y-75062200D02*
X144311666Y-75128866D01*
X144311666Y-75128866D02*
X144445000Y-75128866D01*
X142511666Y-75128866D02*
X143311666Y-75128866D01*
X142911666Y-75128866D02*
X142911666Y-73728866D01*
X142911666Y-73728866D02*
X143044999Y-73928866D01*
X143044999Y-73928866D02*
X143178333Y-74062200D01*
X143178333Y-74062200D02*
X143311666Y-74128866D01*
X133534819Y-73183333D02*
X133058628Y-72850000D01*
X133534819Y-72611905D02*
X132534819Y-72611905D01*
X132534819Y-72611905D02*
X132534819Y-72992857D01*
X132534819Y-72992857D02*
X132582438Y-73088095D01*
X132582438Y-73088095D02*
X132630057Y-73135714D01*
X132630057Y-73135714D02*
X132725295Y-73183333D01*
X132725295Y-73183333D02*
X132868152Y-73183333D01*
X132868152Y-73183333D02*
X132963390Y-73135714D01*
X132963390Y-73135714D02*
X133011009Y-73088095D01*
X133011009Y-73088095D02*
X133058628Y-72992857D01*
X133058628Y-72992857D02*
X133058628Y-72611905D01*
X132534819Y-73516667D02*
X132534819Y-74135714D01*
X132534819Y-74135714D02*
X132915771Y-73802381D01*
X132915771Y-73802381D02*
X132915771Y-73945238D01*
X132915771Y-73945238D02*
X132963390Y-74040476D01*
X132963390Y-74040476D02*
X133011009Y-74088095D01*
X133011009Y-74088095D02*
X133106247Y-74135714D01*
X133106247Y-74135714D02*
X133344342Y-74135714D01*
X133344342Y-74135714D02*
X133439580Y-74088095D01*
X133439580Y-74088095D02*
X133487200Y-74040476D01*
X133487200Y-74040476D02*
X133534819Y-73945238D01*
X133534819Y-73945238D02*
X133534819Y-73659524D01*
X133534819Y-73659524D02*
X133487200Y-73564286D01*
X133487200Y-73564286D02*
X133439580Y-73516667D01*
X138468094Y-84994819D02*
X138468094Y-83994819D01*
X138468094Y-83994819D02*
X138229999Y-83994819D01*
X138229999Y-83994819D02*
X138087142Y-84042438D01*
X138087142Y-84042438D02*
X137991904Y-84137676D01*
X137991904Y-84137676D02*
X137944285Y-84232914D01*
X137944285Y-84232914D02*
X137896666Y-84423390D01*
X137896666Y-84423390D02*
X137896666Y-84566247D01*
X137896666Y-84566247D02*
X137944285Y-84756723D01*
X137944285Y-84756723D02*
X137991904Y-84851961D01*
X137991904Y-84851961D02*
X138087142Y-84947200D01*
X138087142Y-84947200D02*
X138229999Y-84994819D01*
X138229999Y-84994819D02*
X138468094Y-84994819D01*
X136944285Y-84994819D02*
X137515713Y-84994819D01*
X137229999Y-84994819D02*
X137229999Y-83994819D01*
X137229999Y-83994819D02*
X137325237Y-84137676D01*
X137325237Y-84137676D02*
X137420475Y-84232914D01*
X137420475Y-84232914D02*
X137515713Y-84280533D01*
X150166666Y-108034819D02*
X150499999Y-107558628D01*
X150738094Y-108034819D02*
X150738094Y-107034819D01*
X150738094Y-107034819D02*
X150357142Y-107034819D01*
X150357142Y-107034819D02*
X150261904Y-107082438D01*
X150261904Y-107082438D02*
X150214285Y-107130057D01*
X150214285Y-107130057D02*
X150166666Y-107225295D01*
X150166666Y-107225295D02*
X150166666Y-107368152D01*
X150166666Y-107368152D02*
X150214285Y-107463390D01*
X150214285Y-107463390D02*
X150261904Y-107511009D01*
X150261904Y-107511009D02*
X150357142Y-107558628D01*
X150357142Y-107558628D02*
X150738094Y-107558628D01*
X149785713Y-107130057D02*
X149738094Y-107082438D01*
X149738094Y-107082438D02*
X149642856Y-107034819D01*
X149642856Y-107034819D02*
X149404761Y-107034819D01*
X149404761Y-107034819D02*
X149309523Y-107082438D01*
X149309523Y-107082438D02*
X149261904Y-107130057D01*
X149261904Y-107130057D02*
X149214285Y-107225295D01*
X149214285Y-107225295D02*
X149214285Y-107320533D01*
X149214285Y-107320533D02*
X149261904Y-107463390D01*
X149261904Y-107463390D02*
X149833332Y-108034819D01*
X149833332Y-108034819D02*
X149214285Y-108034819D01*
%TO.C,R4*%
D11*
X133420000Y-99420000D02*
X132940000Y-99420000D01*
X129580000Y-99420000D02*
X130060000Y-99420000D01*
X133420000Y-89280000D02*
X133420000Y-99420000D01*
X132940000Y-89280000D02*
X133420000Y-89280000D01*
X130060000Y-89280000D02*
X129580000Y-89280000D01*
X129580000Y-89280000D02*
X129580000Y-99420000D01*
%TO.C,R1*%
X132280000Y-107920000D02*
X142420000Y-107920000D01*
X132280000Y-107440000D02*
X132280000Y-107920000D01*
X132280000Y-104560000D02*
X132280000Y-104080000D01*
X132280000Y-104080000D02*
X142420000Y-104080000D01*
X142420000Y-107920000D02*
X142420000Y-107440000D01*
X142420000Y-104080000D02*
X142420000Y-104560000D01*
%TO.C,J2*%
D12*
X157500000Y-98162500D02*
X157500000Y-105762500D01*
X157500000Y-105762500D02*
X167500000Y-105762500D01*
X167500000Y-98162500D02*
X157500000Y-98162500D01*
X167500000Y-105762500D02*
X167500000Y-98162500D01*
D13*
X160100000Y-97162500D02*
G75*
G02*
X159900000Y-97162500I-100000J0D01*
G01*
X159900000Y-97162500D02*
G75*
G02*
X160100000Y-97162500I100000J0D01*
G01*
%TO.C,U2*%
D11*
X146040000Y-83670000D02*
X147690000Y-83670000D01*
X146040000Y-93950000D02*
X146040000Y-83670000D01*
X149690000Y-83670000D02*
X151340000Y-83670000D01*
X151340000Y-83670000D02*
X151340000Y-93950000D01*
X151340000Y-93950000D02*
X146040000Y-93950000D01*
X149690000Y-83670000D02*
G75*
G02*
X147690000Y-83670000I-1000000J0D01*
G01*
%TO.C,J1*%
D12*
X140000000Y-65000000D02*
X140000000Y-72600000D01*
X140000000Y-72600000D02*
X150000000Y-72600000D01*
X150000000Y-65000000D02*
X140000000Y-65000000D01*
X150000000Y-72600000D02*
X150000000Y-65000000D01*
D13*
X142600000Y-64000000D02*
G75*
G02*
X142400000Y-64000000I-100000J0D01*
G01*
X142400000Y-64000000D02*
G75*
G02*
X142600000Y-64000000I100000J0D01*
G01*
%TO.C,R3*%
D11*
X134080000Y-68280000D02*
X134080000Y-78420000D01*
X134080000Y-78420000D02*
X134560000Y-78420000D01*
X134560000Y-68280000D02*
X134080000Y-68280000D01*
X137440000Y-68280000D02*
X137920000Y-68280000D01*
X137920000Y-68280000D02*
X137920000Y-78420000D01*
X137920000Y-78420000D02*
X137440000Y-78420000D01*
%TO.C,D1*%
X140290000Y-86955000D02*
X140290000Y-90045000D01*
X134740000Y-88500000D02*
G75*
G02*
X140290000Y-86955170I2990000J0D01*
G01*
X140290000Y-90044830D02*
G75*
G02*
X134740000Y-88500000I-2560000J1544830D01*
G01*
X140230000Y-88500000D02*
G75*
G02*
X135230000Y-88500000I-2500000J0D01*
G01*
X135230000Y-88500000D02*
G75*
G02*
X140230000Y-88500000I2500000J0D01*
G01*
%TO.C,R2*%
X144930000Y-108580000D02*
X144930000Y-109060000D01*
X144930000Y-112420000D02*
X144930000Y-111940000D01*
X155070000Y-108580000D02*
X144930000Y-108580000D01*
X155070000Y-109060000D02*
X155070000Y-108580000D01*
X155070000Y-111940000D02*
X155070000Y-112420000D01*
X155070000Y-112420000D02*
X144930000Y-112420000D01*
%TD*%
M02*
