<?xml version="1.0" standalone="no"?>
 <!DOCTYPE svg PUBLIC "-//W3C//DTD SVG 1.1//EN" 
 "http://www.w3.org/Graphics/SVG/1.1/DTD/svg11.dtd"> 
<svg
  xmlns:svg="http://www.w3.org/2000/svg"
  xmlns="http://www.w3.org/2000/svg"
  xmlns:xlink="http://www.w3.org/1999/xlink"
  xmlns:inkscape="http://www.inkscape.org/namespaces/inkscape"
  version="1.1"
  width="47.4980mm" height="57.4802mm" viewBox="0.0000 0.0000 47.4980 57.4802">
<title>SVG Image created as pcb.svg date 2026-09-12T14:54:43 </title>
  <desc>Image generated by PCBNEW </desc>
<g style="fill:#000000; fill-opacity:1.0000;stroke:#000000; stroke-opacity:1.0000;
stroke-linecap:round; stroke-linejoin:round;"
 transform="translate(0 0) scale(1 1)">
</g>
<g style="fill:none; 
stroke:#C872AB; stroke-width:0.1500; stroke-opacity:1; 
stroke-linecap:round; stroke-linejoin:round;">
<path d="M-177.0000 -61.0000
L-69.0000 -61.0000
L-69.0000 -29.0000
L-177.0000 -29.0000
L-177.0000 -61.0000
" />
<path d="M-94.5000 -64.5000
L-67.0000 -64.5000
L-67.0000 -27.0000
L-94.5000 -27.0000
L-94.5000 -64.5000
" />
<path d="M-92.5000 -62.5000
L-69.0000 -62.5000
L-69.0000 -29.0000
L-92.5000 -29.0000
L-92.5000 -62.5000
" />
<path d="M-44.5000 -62.5000
L-44.5000 -64.5000
" />
<text x="-69.5000" y="-62.8500"
textLength="1.4281" font-size="1.7333" lengthAdjust="spacingAndGlyphs"
text-anchor="start" opacity="0" stroke-opacity="0">1</text>
<g class="stroked-text"><desc>1</desc>
<path d="M-68.4108 -62.9064
L-69.1537 -62.9064
" />
<path d="M-68.7823 -62.9064
L-68.7823 -64.2064
" />
<path d="M-68.7823 -64.2064
L-68.9061 -64.0207
" />
<path d="M-68.9061 -64.0207
L-69.0299 -63.8969
" />
<path d="M-69.0299 -63.8969
L-69.1537 -63.8350
" />
</g><path d="M-44.5000 -29.0000
L-44.5000 -27.0000
" />
<text x="-69.5000" y="-27.3500"
textLength="1.4281" font-size="1.7333" lengthAdjust="spacingAndGlyphs"
text-anchor="start" opacity="0" stroke-opacity="0">1</text>
<g class="stroked-text"><desc>1</desc>
<path d="M-68.4108 -27.4064
L-69.1537 -27.4064
" />
<path d="M-68.7823 -27.4064
L-68.7823 -28.7064
" />
<path d="M-68.7823 -28.7064
L-68.9061 -28.5207
" />
<path d="M-68.9061 -28.5207
L-69.0299 -28.3969
" />
<path d="M-69.0299 -28.3969
L-69.1537 -28.3350
" />
</g><path d="M-94.5000 -14.5000
L-92.5000 -14.5000
" />
<text x="-93.5000" y="-38.8500"
textLength="1.3043" font-size="1.7333" lengthAdjust="spacingAndGlyphs"
text-anchor="middle" opacity="0" stroke-opacity="0">A</text>
<g class="stroked-text"><desc>A</desc>
<path d="M-93.8095 -39.2778
L-93.1905 -39.2778
" />
<path d="M-93.9333 -38.9064
L-93.5000 -40.2064
" />
<path d="M-93.5000 -40.2064
L-93.0667 -38.9064
" />
</g><path d="M-67.0000 -14.5000
L-69.0000 -14.5000
" />
<text x="-68.0000" y="-38.8500"
textLength="1.3043" font-size="1.7333" lengthAdjust="spacingAndGlyphs"
text-anchor="middle" opacity="0" stroke-opacity="0">A</text>
<g class="stroked-text"><desc>A</desc>
<path d="M-68.3095 -39.2778
L-67.6905 -39.2778
" />
<path d="M-68.4333 -38.9064
L-68.0000 -40.2064
" />
<path d="M-68.0000 -40.2064
L-67.5667 -38.9064
" />
</g><text x="-154.0000" y="-33.1500"
textLength="7.0071" font-size="2.0000" lengthAdjust="spacingAndGlyphs"
text-anchor="start" opacity="0" stroke-opacity="0">Date: </text>
<g class="stroked-text"><desc>Date: </desc>
<path d="M-153.5442 -33.2139
L-153.5442 -34.7139
" />
<path d="M-153.5442 -34.7139
L-153.1870 -34.7139
" />
<path d="M-153.1870 -34.7139
L-152.9727 -34.6424
" />
<path d="M-152.9727 -34.6424
L-152.8299 -34.4996
" />
<path d="M-152.8299 -34.4996
L-152.7585 -34.3567
" />
<path d="M-152.7585 -34.3567
L-152.6870 -34.0710
" />
<path d="M-152.6870 -34.0710
L-152.6870 -33.8567
" />
<path d="M-152.6870 -33.8567
L-152.7585 -33.5710
" />
<path d="M-152.7585 -33.5710
L-152.8299 -33.4282
" />
<path d="M-152.8299 -33.4282
L-152.9727 -33.2853
" />
<path d="M-152.9727 -33.2853
L-153.1870 -33.2139
" />
<path d="M-153.1870 -33.2139
L-153.5442 -33.2139
" />
<path d="M-151.4013 -33.2139
L-151.4013 -33.9996
" />
<path d="M-151.4013 -33.9996
L-151.4727 -34.1424
" />
<path d="M-151.4727 -34.1424
L-151.6156 -34.2139
" />
<path d="M-151.6156 -34.2139
L-151.9013 -34.2139
" />
<path d="M-151.9013 -34.2139
L-152.0442 -34.1424
" />
<path d="M-151.4013 -33.2853
L-151.5442 -33.2139
" />
<path d="M-151.5442 -33.2139
L-151.9013 -33.2139
" />
<path d="M-151.9013 -33.2139
L-152.0442 -33.2853
" />
<path d="M-152.0442 -33.2853
L-152.1156 -33.4282
" />
<path d="M-152.1156 -33.4282
L-152.1156 -33.5710
" />
<path d="M-152.1156 -33.5710
L-152.0442 -33.7139
" />
<path d="M-152.0442 -33.7139
L-151.9013 -33.7853
" />
<path d="M-151.9013 -33.7853
L-151.5442 -33.7853
" />
<path d="M-151.5442 -33.7853
L-151.4013 -33.8567
" />
<path d="M-150.9013 -34.2139
L-150.3299 -34.2139
" />
<path d="M-150.6870 -34.7139
L-150.6870 -33.4282
" />
<path d="M-150.6870 -33.4282
L-150.6156 -33.2853
" />
<path d="M-150.6156 -33.2853
L-150.4727 -33.2139
" />
<path d="M-150.4727 -33.2139
L-150.3299 -33.2139
" />
<path d="M-149.2585 -33.2853
L-149.4013 -33.2139
" />
<path d="M-149.4013 -33.2139
L-149.6870 -33.2139
" />
<path d="M-149.6870 -33.2139
L-149.8299 -33.2853
" />
<path d="M-149.8299 -33.2853
L-149.9013 -33.4282
" />
<path d="M-149.9013 -33.4282
L-149.9013 -33.9996
" />
<path d="M-149.9013 -33.9996
L-149.8299 -34.1424
" />
<path d="M-149.8299 -34.1424
L-149.6870 -34.2139
" />
<path d="M-149.6870 -34.2139
L-149.4013 -34.2139
" />
<path d="M-149.4013 -34.2139
L-149.2585 -34.1424
" />
<path d="M-149.2585 -34.1424
L-149.1870 -33.9996
" />
<path d="M-149.1870 -33.9996
L-149.1870 -33.8567
" />
<path d="M-149.1870 -33.8567
L-149.9013 -33.7139
" />
<path d="M-148.5442 -33.3567
L-148.4727 -33.2853
" />
<path d="M-148.4727 -33.2853
L-148.5442 -33.2139
" />
<path d="M-148.5442 -33.2139
L-148.6156 -33.2853
" />
<path d="M-148.6156 -33.2853
L-148.5442 -33.3567
" />
<path d="M-148.5442 -33.3567
L-148.5442 -33.2139
" />
<path d="M-148.5442 -34.1424
L-148.4727 -34.0710
" />
<path d="M-148.4727 -34.0710
L-148.5442 -33.9996
" />
<path d="M-148.5442 -33.9996
L-148.6156 -34.0710
" />
<path d="M-148.6156 -34.0710
L-148.5442 -34.1424
" />
<path d="M-148.5442 -34.1424
L-148.5442 -33.9996
" />
</g><path d="M-177.0000 -32.5000
L-69.0000 -32.5000
" />
<text x="-176.0000" y="-30.3500"
textLength="22.2929" font-size="2.0000" lengthAdjust="spacingAndGlyphs"
text-anchor="start" opacity="0" stroke-opacity="0">KiCad E.D.A. 10.0.5</text>
<g class="stroked-text"><desc>KiCad E.D.A. 10.0.5</desc>
<path d="M-175.5442 -30.4139
L-175.5442 -31.9139
" />
<path d="M-174.6870 -30.4139
L-175.3299 -31.2710
" />
<path d="M-174.6870 -31.9139
L-175.5442 -31.0567
" />
<path d="M-174.0442 -30.4139
L-174.0442 -31.4139
" />
<path d="M-174.0442 -31.9139
L-174.1156 -31.8424
" />
<path d="M-174.1156 -31.8424
L-174.0442 -31.7710
" />
<path d="M-174.0442 -31.7710
L-173.9727 -31.8424
" />
<path d="M-173.9727 -31.8424
L-174.0442 -31.9139
" />
<path d="M-174.0442 -31.9139
L-174.0442 -31.7710
" />
<path d="M-172.4727 -30.5567
L-172.5442 -30.4853
" />
<path d="M-172.5442 -30.4853
L-172.7585 -30.4139
" />
<path d="M-172.7585 -30.4139
L-172.9013 -30.4139
" />
<path d="M-172.9013 -30.4139
L-173.1156 -30.4853
" />
<path d="M-173.1156 -30.4853
L-173.2585 -30.6282
" />
<path d="M-173.2585 -30.6282
L-173.3299 -30.7710
" />
<path d="M-173.3299 -30.7710
L-173.4013 -31.0567
" />
<path d="M-173.4013 -31.0567
L-173.4013 -31.2710
" />
<path d="M-173.4013 -31.2710
L-173.3299 -31.5567
" />
<path d="M-173.3299 -31.5567
L-173.2585 -31.6996
" />
<path d="M-173.2585 -31.6996
L-173.1156 -31.8424
" />
<path d="M-173.1156 -31.8424
L-172.9013 -31.9139
" />
<path d="M-172.9013 -31.9139
L-172.7585 -31.9139
" />
<path d="M-172.7585 -31.9139
L-172.5442 -31.8424
" />
<path d="M-172.5442 -31.8424
L-172.4727 -31.7710
" />
<path d="M-171.1870 -30.4139
L-171.1870 -31.1996
" />
<path d="M-171.1870 -31.1996
L-171.2585 -31.3424
" />
<path d="M-171.2585 -31.3424
L-171.4013 -31.4139
" />
<path d="M-171.4013 -31.4139
L-171.6870 -31.4139
" />
<path d="M-171.6870 -31.4139
L-171.8299 -31.3424
" />
<path d="M-171.1870 -30.4853
L-171.3299 -30.4139
" />
<path d="M-171.3299 -30.4139
L-171.6870 -30.4139
" />
<path d="M-171.6870 -30.4139
L-171.8299 -30.4853
" />
<path d="M-171.8299 -30.4853
L-171.9013 -30.6282
" />
<path d="M-171.9013 -30.6282
L-171.9013 -30.7710
" />
<path d="M-171.9013 -30.7710
L-171.8299 -30.9139
" />
<path d="M-171.8299 -30.9139
L-171.6870 -30.9853
" />
<path d="M-171.6870 -30.9853
L-171.3299 -30.9853
" />
<path d="M-171.3299 -30.9853
L-171.1870 -31.0567
" />
<path d="M-169.8299 -30.4139
L-169.8299 -31.9139
" />
<path d="M-169.8299 -30.4853
L-169.9727 -30.4139
" />
<path d="M-169.9727 -30.4139
L-170.2585 -30.4139
" />
<path d="M-170.2585 -30.4139
L-170.4013 -30.4853
" />
<path d="M-170.4013 -30.4853
L-170.4727 -30.5567
" />
<path d="M-170.4727 -30.5567
L-170.5442 -30.6996
" />
<path d="M-170.5442 -30.6996
L-170.5442 -31.1282
" />
<path d="M-170.5442 -31.1282
L-170.4727 -31.2710
" />
<path d="M-170.4727 -31.2710
L-170.4013 -31.3424
" />
<path d="M-170.4013 -31.3424
L-170.2585 -31.4139
" />
<path d="M-170.2585 -31.4139
L-169.9727 -31.4139
" />
<path d="M-169.9727 -31.4139
L-169.8299 -31.3424
" />
<path d="M-167.9727 -31.1996
L-167.4727 -31.1996
" />
<path d="M-167.2585 -30.4139
L-167.9727 -30.4139
" />
<path d="M-167.9727 -30.4139
L-167.9727 -31.9139
" />
<path d="M-167.9727 -31.9139
L-167.2585 -31.9139
" />
<path d="M-166.6156 -30.5567
L-166.5442 -30.4853
" />
<path d="M-166.5442 -30.4853
L-166.6156 -30.4139
" />
<path d="M-166.6156 -30.4139
L-166.6870 -30.4853
" />
<path d="M-166.6870 -30.4853
L-166.6156 -30.5567
" />
<path d="M-166.6156 -30.5567
L-166.6156 -30.4139
" />
<path d="M-165.9013 -30.4139
L-165.9013 -31.9139
" />
<path d="M-165.9013 -31.9139
L-165.5442 -31.9139
" />
<path d="M-165.5442 -31.9139
L-165.3299 -31.8424
" />
<path d="M-165.3299 -31.8424
L-165.1870 -31.6996
" />
<path d="M-165.1870 -31.6996
L-165.1156 -31.5567
" />
<path d="M-165.1156 -31.5567
L-165.0442 -31.2710
" />
<path d="M-165.0442 -31.2710
L-165.0442 -31.0567
" />
<path d="M-165.0442 -31.0567
L-165.1156 -30.7710
" />
<path d="M-165.1156 -30.7710
L-165.1870 -30.6282
" />
<path d="M-165.1870 -30.6282
L-165.3299 -30.4853
" />
<path d="M-165.3299 -30.4853
L-165.5442 -30.4139
" />
<path d="M-165.5442 -30.4139
L-165.9013 -30.4139
" />
<path d="M-164.4013 -30.5567
L-164.3299 -30.4853
" />
<path d="M-164.3299 -30.4853
L-164.4013 -30.4139
" />
<path d="M-164.4013 -30.4139
L-164.4727 -30.4853
" />
<path d="M-164.4727 -30.4853
L-164.4013 -30.5567
" />
<path d="M-164.4013 -30.5567
L-164.4013 -30.4139
" />
<path d="M-163.7585 -30.8424
L-163.0442 -30.8424
" />
<path d="M-163.9013 -30.4139
L-163.4013 -31.9139
" />
<path d="M-163.4013 -31.9139
L-162.9013 -30.4139
" />
<path d="M-162.4013 -30.5567
L-162.3299 -30.4853
" />
<path d="M-162.3299 -30.4853
L-162.4013 -30.4139
" />
<path d="M-162.4013 -30.4139
L-162.4727 -30.4853
" />
<path d="M-162.4727 -30.4853
L-162.4013 -30.5567
" />
<path d="M-162.4013 -30.5567
L-162.4013 -30.4139
" />
<path d="M-159.7585 -30.4139
L-160.6156 -30.4139
" />
<path d="M-160.1870 -30.4139
L-160.1870 -31.9139
" />
<path d="M-160.1870 -31.9139
L-160.3299 -31.6996
" />
<path d="M-160.3299 -31.6996
L-160.4727 -31.5567
" />
<path d="M-160.4727 -31.5567
L-160.6156 -31.4853
" />
<path d="M-158.8299 -31.9139
L-158.6870 -31.9139
" />
<path d="M-158.6870 -31.9139
L-158.5442 -31.8424
" />
<path d="M-158.5442 -31.8424
L-158.4727 -31.7710
" />
<path d="M-158.4727 -31.7710
L-158.4013 -31.6282
" />
<path d="M-158.4013 -31.6282
L-158.3299 -31.3424
" />
<path d="M-158.3299 -31.3424
L-158.3299 -30.9853
" />
<path d="M-158.3299 -30.9853
L-158.4013 -30.6996
" />
<path d="M-158.4013 -30.6996
L-158.4727 -30.5567
" />
<path d="M-158.4727 -30.5567
L-158.5442 -30.4853
" />
<path d="M-158.5442 -30.4853
L-158.6870 -30.4139
" />
<path d="M-158.6870 -30.4139
L-158.8299 -30.4139
" />
<path d="M-158.8299 -30.4139
L-158.9727 -30.4853
" />
<path d="M-158.9727 -30.4853
L-159.0442 -30.5567
" />
<path d="M-159.0442 -30.5567
L-159.1156 -30.6996
" />
<path d="M-159.1156 -30.6996
L-159.1870 -30.9853
" />
<path d="M-159.1870 -30.9853
L-159.1870 -31.3424
" />
<path d="M-159.1870 -31.3424
L-159.1156 -31.6282
" />
<path d="M-159.1156 -31.6282
L-159.0442 -31.7710
" />
<path d="M-159.0442 -31.7710
L-158.9727 -31.8424
" />
<path d="M-158.9727 -31.8424
L-158.8299 -31.9139
" />
<path d="M-157.6870 -30.5567
L-157.6156 -30.4853
" />
<path d="M-157.6156 -30.4853
L-157.6870 -30.4139
" />
<path d="M-157.6870 -30.4139
L-157.7585 -30.4853
" />
<path d="M-157.7585 -30.4853
L-157.6870 -30.5567
" />
<path d="M-157.6870 -30.5567
L-157.6870 -30.4139
" />
<path d="M-156.6870 -31.9139
L-156.5442 -31.9139
" />
<path d="M-156.5442 -31.9139
L-156.4013 -31.8424
" />
<path d="M-156.4013 -31.8424
L-156.3299 -31.7710
" />
<path d="M-156.3299 -31.7710
L-156.2585 -31.6282
" />
<path d="M-156.2585 -31.6282
L-156.1870 -31.3424
" />
<path d="M-156.1870 -31.3424
L-156.1870 -30.9853
" />
<path d="M-156.1870 -30.9853
L-156.2585 -30.6996
" />
<path d="M-156.2585 -30.6996
L-156.3299 -30.5567
" />
<path d="M-156.3299 -30.5567
L-156.4013 -30.4853
" />
<path d="M-156.4013 -30.4853
L-156.5442 -30.4139
" />
<path d="M-156.5442 -30.4139
L-156.6870 -30.4139
" />
<path d="M-156.6870 -30.4139
L-156.8299 -30.4853
" />
<path d="M-156.8299 -30.4853
L-156.9013 -30.5567
" />
<path d="M-156.9013 -30.5567
L-156.9727 -30.6996
" />
<path d="M-156.9727 -30.6996
L-157.0442 -30.9853
" />
<path d="M-157.0442 -30.9853
L-157.0442 -31.3424
" />
<path d="M-157.0442 -31.3424
L-156.9727 -31.6282
" />
<path d="M-156.9727 -31.6282
L-156.9013 -31.7710
" />
<path d="M-156.9013 -31.7710
L-156.8299 -31.8424
" />
<path d="M-156.8299 -31.8424
L-156.6870 -31.9139
" />
<path d="M-155.5442 -30.5567
L-155.4727 -30.4853
" />
<path d="M-155.4727 -30.4853
L-155.5442 -30.4139
" />
<path d="M-155.5442 -30.4139
L-155.6156 -30.4853
" />
<path d="M-155.6156 -30.4853
L-155.5442 -30.5567
" />
<path d="M-155.5442 -30.5567
L-155.5442 -30.4139
" />
<path d="M-154.1156 -31.9139
L-154.8299 -31.9139
" />
<path d="M-154.8299 -31.9139
L-154.9013 -31.1996
" />
<path d="M-154.9013 -31.1996
L-154.8299 -31.2710
" />
<path d="M-154.8299 -31.2710
L-154.6870 -31.3424
" />
<path d="M-154.6870 -31.3424
L-154.3299 -31.3424
" />
<path d="M-154.3299 -31.3424
L-154.1870 -31.2710
" />
<path d="M-154.1870 -31.2710
L-154.1156 -31.1996
" />
<path d="M-154.1156 -31.1996
L-154.0442 -31.0567
" />
<path d="M-154.0442 -31.0567
L-154.0442 -30.6996
" />
<path d="M-154.0442 -30.6996
L-154.1156 -30.5567
" />
<path d="M-154.1156 -30.5567
L-154.1870 -30.4853
" />
<path d="M-154.1870 -30.4853
L-154.3299 -30.4139
" />
<path d="M-154.3299 -30.4139
L-154.6870 -30.4139
" />
<path d="M-154.6870 -30.4139
L-154.8299 -30.4853
" />
<path d="M-154.8299 -30.4853
L-154.9013 -30.5567
" />
</g><path d="M-177.0000 -35.5000
L-69.0000 -35.5000
" />
</g>
<g style="fill:none; 
stroke:#C872AB; stroke-width:0.3000; stroke-opacity:1; 
stroke-linecap:round; stroke-linejoin:round;">
<text x="-91.0000" y="-33.1500"
textLength="6.3857" font-size="2.0000" lengthAdjust="spacingAndGlyphs"
text-anchor="start" opacity="0" stroke-opacity="0">Rev: </text>
<g class="stroked-text"><desc>Rev: </desc>
<path d="M-89.5883 -33.2217
L-90.0883 -33.9360
" />
<path d="M-90.4455 -33.2217
L-90.4455 -34.7217
" />
<path d="M-90.4455 -34.7217
L-89.8741 -34.7217
" />
<path d="M-89.8741 -34.7217
L-89.7312 -34.6502
" />
<path d="M-89.7312 -34.6502
L-89.6598 -34.5788
" />
<path d="M-89.6598 -34.5788
L-89.5883 -34.4360
" />
<path d="M-89.5883 -34.4360
L-89.5883 -34.2217
" />
<path d="M-89.5883 -34.2217
L-89.6598 -34.0788
" />
<path d="M-89.6598 -34.0788
L-89.7312 -34.0074
" />
<path d="M-89.7312 -34.0074
L-89.8741 -33.9360
" />
<path d="M-89.8741 -33.9360
L-90.4455 -33.9360
" />
<path d="M-88.3741 -33.2931
L-88.5169 -33.2217
" />
<path d="M-88.5169 -33.2217
L-88.8026 -33.2217
" />
<path d="M-88.8026 -33.2217
L-88.9455 -33.2931
" />
<path d="M-88.9455 -33.2931
L-89.0169 -33.4360
" />
<path d="M-89.0169 -33.4360
L-89.0169 -34.0074
" />
<path d="M-89.0169 -34.0074
L-88.9455 -34.1502
" />
<path d="M-88.9455 -34.1502
L-88.8026 -34.2217
" />
<path d="M-88.8026 -34.2217
L-88.5169 -34.2217
" />
<path d="M-88.5169 -34.2217
L-88.3741 -34.1502
" />
<path d="M-88.3741 -34.1502
L-88.3026 -34.0074
" />
<path d="M-88.3026 -34.0074
L-88.3026 -33.8645
" />
<path d="M-88.3026 -33.8645
L-89.0169 -33.7217
" />
<path d="M-87.8026 -34.2217
L-87.4455 -33.2217
" />
<path d="M-87.4455 -33.2217
L-87.0883 -34.2217
" />
<path d="M-86.5169 -33.3645
L-86.4455 -33.2931
" />
<path d="M-86.4455 -33.2931
L-86.5169 -33.2217
" />
<path d="M-86.5169 -33.2217
L-86.5883 -33.2931
" />
<path d="M-86.5883 -33.2931
L-86.5169 -33.3645
" />
<path d="M-86.5169 -33.3645
L-86.5169 -33.2217
" />
<path d="M-86.5169 -34.1502
L-86.4455 -34.0788
" />
<path d="M-86.4455 -34.0788
L-86.5169 -34.0074
" />
<path d="M-86.5169 -34.0074
L-86.5883 -34.0788
" />
<path d="M-86.5883 -34.0788
L-86.5169 -34.1502
" />
<path d="M-86.5169 -34.1502
L-86.5169 -34.0074
" />
</g></g>
<g style="fill:none; 
stroke:#C872AB; stroke-width:0.1500; stroke-opacity:1; 
stroke-linecap:round; stroke-linejoin:round;">
<text x="-176.0000" y="-33.1500"
textLength="11.6500" font-size="2.0000" lengthAdjust="spacingAndGlyphs"
text-anchor="start" opacity="0" stroke-opacity="0">Size: User</text>
<g class="stroked-text"><desc>Size: User</desc>
<path d="M-175.6156 -33.2853
L-175.4013 -33.2139
" />
<path d="M-175.4013 -33.2139
L-175.0442 -33.2139
" />
<path d="M-175.0442 -33.2139
L-174.9013 -33.2853
" />
<path d="M-174.9013 -33.2853
L-174.8299 -33.3567
" />
<path d="M-174.8299 -33.3567
L-174.7585 -33.4996
" />
<path d="M-174.7585 -33.4996
L-174.7585 -33.6424
" />
<path d="M-174.7585 -33.6424
L-174.8299 -33.7853
" />
<path d="M-174.8299 -33.7853
L-174.9013 -33.8567
" />
<path d="M-174.9013 -33.8567
L-175.0442 -33.9282
" />
<path d="M-175.0442 -33.9282
L-175.3299 -33.9996
" />
<path d="M-175.3299 -33.9996
L-175.4727 -34.0710
" />
<path d="M-175.4727 -34.0710
L-175.5442 -34.1424
" />
<path d="M-175.5442 -34.1424
L-175.6156 -34.2853
" />
<path d="M-175.6156 -34.2853
L-175.6156 -34.4282
" />
<path d="M-175.6156 -34.4282
L-175.5442 -34.5710
" />
<path d="M-175.5442 -34.5710
L-175.4727 -34.6424
" />
<path d="M-175.4727 -34.6424
L-175.3299 -34.7139
" />
<path d="M-175.3299 -34.7139
L-174.9727 -34.7139
" />
<path d="M-174.9727 -34.7139
L-174.7585 -34.6424
" />
<path d="M-174.1156 -33.2139
L-174.1156 -34.2139
" />
<path d="M-174.1156 -34.7139
L-174.1870 -34.6424
" />
<path d="M-174.1870 -34.6424
L-174.1156 -34.5710
" />
<path d="M-174.1156 -34.5710
L-174.0442 -34.6424
" />
<path d="M-174.0442 -34.6424
L-174.1156 -34.7139
" />
<path d="M-174.1156 -34.7139
L-174.1156 -34.5710
" />
<path d="M-173.5442 -34.2139
L-172.7585 -34.2139
" />
<path d="M-172.7585 -34.2139
L-173.5442 -33.2139
" />
<path d="M-173.5442 -33.2139
L-172.7585 -33.2139
" />
<path d="M-171.6156 -33.2853
L-171.7585 -33.2139
" />
<path d="M-171.7585 -33.2139
L-172.0442 -33.2139
" />
<path d="M-172.0442 -33.2139
L-172.1870 -33.2853
" />
<path d="M-172.1870 -33.2853
L-172.2585 -33.4282
" />
<path d="M-172.2585 -33.4282
L-172.2585 -33.9996
" />
<path d="M-172.2585 -33.9996
L-172.1870 -34.1424
" />
<path d="M-172.1870 -34.1424
L-172.0442 -34.2139
" />
<path d="M-172.0442 -34.2139
L-171.7585 -34.2139
" />
<path d="M-171.7585 -34.2139
L-171.6156 -34.1424
" />
<path d="M-171.6156 -34.1424
L-171.5442 -33.9996
" />
<path d="M-171.5442 -33.9996
L-171.5442 -33.8567
" />
<path d="M-171.5442 -33.8567
L-172.2585 -33.7139
" />
<path d="M-170.9013 -33.3567
L-170.8299 -33.2853
" />
<path d="M-170.8299 -33.2853
L-170.9013 -33.2139
" />
<path d="M-170.9013 -33.2139
L-170.9727 -33.2853
" />
<path d="M-170.9727 -33.2853
L-170.9013 -33.3567
" />
<path d="M-170.9013 -33.3567
L-170.9013 -33.2139
" />
<path d="M-170.9013 -34.1424
L-170.8299 -34.0710
" />
<path d="M-170.8299 -34.0710
L-170.9013 -33.9996
" />
<path d="M-170.9013 -33.9996
L-170.9727 -34.0710
" />
<path d="M-170.9727 -34.0710
L-170.9013 -34.1424
" />
<path d="M-170.9013 -34.1424
L-170.9013 -33.9996
" />
<path d="M-169.0442 -34.7139
L-169.0442 -33.4996
" />
<path d="M-169.0442 -33.4996
L-168.9727 -33.3567
" />
<path d="M-168.9727 -33.3567
L-168.9013 -33.2853
" />
<path d="M-168.9013 -33.2853
L-168.7585 -33.2139
" />
<path d="M-168.7585 -33.2139
L-168.4727 -33.2139
" />
<path d="M-168.4727 -33.2139
L-168.3299 -33.2853
" />
<path d="M-168.3299 -33.2853
L-168.2585 -33.3567
" />
<path d="M-168.2585 -33.3567
L-168.1870 -33.4996
" />
<path d="M-168.1870 -33.4996
L-168.1870 -34.7139
" />
<path d="M-167.5442 -33.2853
L-167.4013 -33.2139
" />
<path d="M-167.4013 -33.2139
L-167.1156 -33.2139
" />
<path d="M-167.1156 -33.2139
L-166.9727 -33.2853
" />
<path d="M-166.9727 -33.2853
L-166.9013 -33.4282
" />
<path d="M-166.9013 -33.4282
L-166.9013 -33.4996
" />
<path d="M-166.9013 -33.4996
L-166.9727 -33.6424
" />
<path d="M-166.9727 -33.6424
L-167.1156 -33.7139
" />
<path d="M-167.1156 -33.7139
L-167.3299 -33.7139
" />
<path d="M-167.3299 -33.7139
L-167.4727 -33.7853
" />
<path d="M-167.4727 -33.7853
L-167.5442 -33.9282
" />
<path d="M-167.5442 -33.9282
L-167.5442 -33.9996
" />
<path d="M-167.5442 -33.9996
L-167.4727 -34.1424
" />
<path d="M-167.4727 -34.1424
L-167.3299 -34.2139
" />
<path d="M-167.3299 -34.2139
L-167.1156 -34.2139
" />
<path d="M-167.1156 -34.2139
L-166.9727 -34.1424
" />
<path d="M-165.6870 -33.2853
L-165.8299 -33.2139
" />
<path d="M-165.8299 -33.2139
L-166.1156 -33.2139
" />
<path d="M-166.1156 -33.2139
L-166.2585 -33.2853
" />
<path d="M-166.2585 -33.2853
L-166.3299 -33.4282
" />
<path d="M-166.3299 -33.4282
L-166.3299 -33.9996
" />
<path d="M-166.3299 -33.9996
L-166.2585 -34.1424
" />
<path d="M-166.2585 -34.1424
L-166.1156 -34.2139
" />
<path d="M-166.1156 -34.2139
L-165.8299 -34.2139
" />
<path d="M-165.8299 -34.2139
L-165.6870 -34.1424
" />
<path d="M-165.6870 -34.1424
L-165.6156 -33.9996
" />
<path d="M-165.6156 -33.9996
L-165.6156 -33.8567
" />
<path d="M-165.6156 -33.8567
L-166.3299 -33.7139
" />
<path d="M-164.9727 -33.2139
L-164.9727 -34.2139
" />
<path d="M-164.9727 -33.9282
L-164.9013 -34.0710
" />
<path d="M-164.9013 -34.0710
L-164.8299 -34.1424
" />
<path d="M-164.8299 -34.1424
L-164.6870 -34.2139
" />
<path d="M-164.6870 -34.2139
L-164.5442 -34.2139
" />
</g><text x="-91.0000" y="-30.3500"
textLength="8.5071" font-size="2.0000" lengthAdjust="spacingAndGlyphs"
text-anchor="start" opacity="0" stroke-opacity="0">Id: 1/1</text>
<g class="stroked-text"><desc>Id: 1/1</desc>
<path d="M-90.5442 -30.4139
L-90.5442 -31.9139
" />
<path d="M-89.1870 -30.4139
L-89.1870 -31.9139
" />
<path d="M-89.1870 -30.4853
L-89.3299 -30.4139
" />
<path d="M-89.3299 -30.4139
L-89.6156 -30.4139
" />
<path d="M-89.6156 -30.4139
L-89.7585 -30.4853
" />
<path d="M-89.7585 -30.4853
L-89.8299 -30.5567
" />
<path d="M-89.8299 -30.5567
L-89.9013 -30.6996
" />
<path d="M-89.9013 -30.6996
L-89.9013 -31.1282
" />
<path d="M-89.9013 -31.1282
L-89.8299 -31.2710
" />
<path d="M-89.8299 -31.2710
L-89.7585 -31.3424
" />
<path d="M-89.7585 -31.3424
L-89.6156 -31.4139
" />
<path d="M-89.6156 -31.4139
L-89.3299 -31.4139
" />
<path d="M-89.3299 -31.4139
L-89.1870 -31.3424
" />
<path d="M-88.4727 -30.5567
L-88.4013 -30.4853
" />
<path d="M-88.4013 -30.4853
L-88.4727 -30.4139
" />
<path d="M-88.4727 -30.4139
L-88.5442 -30.4853
" />
<path d="M-88.5442 -30.4853
L-88.4727 -30.5567
" />
<path d="M-88.4727 -30.5567
L-88.4727 -30.4139
" />
<path d="M-88.4727 -31.3424
L-88.4013 -31.2710
" />
<path d="M-88.4013 -31.2710
L-88.4727 -31.1996
" />
<path d="M-88.4727 -31.1996
L-88.5442 -31.2710
" />
<path d="M-88.5442 -31.2710
L-88.4727 -31.3424
" />
<path d="M-88.4727 -31.3424
L-88.4727 -31.1996
" />
<path d="M-85.8299 -30.4139
L-86.6870 -30.4139
" />
<path d="M-86.2585 -30.4139
L-86.2585 -31.9139
" />
<path d="M-86.2585 -31.9139
L-86.4013 -31.6996
" />
<path d="M-86.4013 -31.6996
L-86.5442 -31.5567
" />
<path d="M-86.5442 -31.5567
L-86.6870 -31.4853
" />
<path d="M-84.1156 -31.9853
L-85.4013 -30.0567
" />
<path d="M-82.8299 -30.4139
L-83.6870 -30.4139
" />
<path d="M-83.2585 -30.4139
L-83.2585 -31.9139
" />
<path d="M-83.2585 -31.9139
L-83.4013 -31.6996
" />
<path d="M-83.4013 -31.6996
L-83.5442 -31.5567
" />
<path d="M-83.5442 -31.5567
L-83.6870 -31.4853
" />
</g><path d="M-177.0000 -39.5000
L-69.0000 -39.5000
" />
</g>
<g style="fill:none; 
stroke:#C872AB; stroke-width:0.4000; stroke-opacity:1; 
stroke-linecap:round; stroke-linejoin:round;">
<text x="-176.0000" y="-36.7000"
textLength="9.6571" font-size="2.6667" lengthAdjust="spacingAndGlyphs"
text-anchor="start" opacity="0" stroke-opacity="0">Title: </text>
<g class="stroked-text"><desc>Title: </desc>
<path d="M-175.3083 -38.7956
L-174.1654 -38.7956
" />
<path d="M-174.9868 -36.7956
L-174.7368 -38.7956
" />
<path d="M-173.7487 -36.7956
L-173.5821 -38.1289
" />
<path d="M-173.4987 -38.7956
L-173.6059 -38.7003
" />
<path d="M-173.6059 -38.7003
L-173.5226 -38.6051
" />
<path d="M-173.5226 -38.6051
L-173.4154 -38.7003
" />
<path d="M-173.4154 -38.7003
L-173.4987 -38.7956
" />
<path d="M-173.4987 -38.7956
L-173.5226 -38.6051
" />
<path d="M-172.9154 -38.1289
L-172.1535 -38.1289
" />
<path d="M-172.5464 -38.7956
L-172.7607 -37.0813
" />
<path d="M-172.7607 -37.0813
L-172.6892 -36.8908
" />
<path d="M-172.6892 -36.8908
L-172.5107 -36.7956
" />
<path d="M-172.5107 -36.7956
L-172.3202 -36.7956
" />
<path d="M-171.3678 -36.7956
L-171.5464 -36.8908
" />
<path d="M-171.5464 -36.8908
L-171.6178 -37.0813
" />
<path d="M-171.6178 -37.0813
L-171.4035 -38.7956
" />
<path d="M-169.8321 -36.8908
L-170.0345 -36.7956
" />
<path d="M-170.0345 -36.7956
L-170.4154 -36.7956
" />
<path d="M-170.4154 -36.7956
L-170.5940 -36.8908
" />
<path d="M-170.5940 -36.8908
L-170.6654 -37.0813
" />
<path d="M-170.6654 -37.0813
L-170.5702 -37.8432
" />
<path d="M-170.5702 -37.8432
L-170.4511 -38.0337
" />
<path d="M-170.4511 -38.0337
L-170.2487 -38.1289
" />
<path d="M-170.2487 -38.1289
L-169.8678 -38.1289
" />
<path d="M-169.8678 -38.1289
L-169.6892 -38.0337
" />
<path d="M-169.6892 -38.0337
L-169.6178 -37.8432
" />
<path d="M-169.6178 -37.8432
L-169.6416 -37.6527
" />
<path d="M-169.6416 -37.6527
L-170.6178 -37.4622
" />
<path d="M-168.8678 -36.9860
L-168.7845 -36.8908
" />
<path d="M-168.7845 -36.8908
L-168.8916 -36.7956
" />
<path d="M-168.8916 -36.7956
L-168.9749 -36.8908
" />
<path d="M-168.9749 -36.8908
L-168.8678 -36.9860
" />
<path d="M-168.8678 -36.9860
L-168.8916 -36.7956
" />
<path d="M-168.7368 -38.0337
L-168.6535 -37.9384
" />
<path d="M-168.6535 -37.9384
L-168.7607 -37.8432
" />
<path d="M-168.7607 -37.8432
L-168.8440 -37.9384
" />
<path d="M-168.8440 -37.9384
L-168.7368 -38.0337
" />
<path d="M-168.7368 -38.0337
L-168.7607 -37.8432
" />
</g></g>
<g style="fill:none; 
stroke:#C872AB; stroke-width:0.1500; stroke-opacity:1; 
stroke-linecap:round; stroke-linejoin:round;">
<text x="-176.0000" y="-40.5500"
textLength="28.7214" font-size="2.0000" lengthAdjust="spacingAndGlyphs"
text-anchor="start" opacity="0" stroke-opacity="0">File: Lunabotic.kicad_pcb</text>
<g class="stroked-text"><desc>File: Lunabotic.kicad_pcb</desc>
<path d="M-175.0442 -41.3996
L-175.5442 -41.3996
" />
<path d="M-175.5442 -40.6139
L-175.5442 -42.1139
" />
<path d="M-175.5442 -42.1139
L-174.8299 -42.1139
" />
<path d="M-174.2585 -40.6139
L-174.2585 -41.6139
" />
<path d="M-174.2585 -42.1139
L-174.3299 -42.0424
" />
<path d="M-174.3299 -42.0424
L-174.2585 -41.9710
" />
<path d="M-174.2585 -41.9710
L-174.1870 -42.0424
" />
<path d="M-174.1870 -42.0424
L-174.2585 -42.1139
" />
<path d="M-174.2585 -42.1139
L-174.2585 -41.9710
" />
<path d="M-173.3299 -40.6139
L-173.4727 -40.6853
" />
<path d="M-173.4727 -40.6853
L-173.5442 -40.8282
" />
<path d="M-173.5442 -40.8282
L-173.5442 -42.1139
" />
<path d="M-172.1870 -40.6853
L-172.3299 -40.6139
" />
<path d="M-172.3299 -40.6139
L-172.6156 -40.6139
" />
<path d="M-172.6156 -40.6139
L-172.7585 -40.6853
" />
<path d="M-172.7585 -40.6853
L-172.8299 -40.8282
" />
<path d="M-172.8299 -40.8282
L-172.8299 -41.3996
" />
<path d="M-172.8299 -41.3996
L-172.7585 -41.5424
" />
<path d="M-172.7585 -41.5424
L-172.6156 -41.6139
" />
<path d="M-172.6156 -41.6139
L-172.3299 -41.6139
" />
<path d="M-172.3299 -41.6139
L-172.1870 -41.5424
" />
<path d="M-172.1870 -41.5424
L-172.1156 -41.3996
" />
<path d="M-172.1156 -41.3996
L-172.1156 -41.2567
" />
<path d="M-172.1156 -41.2567
L-172.8299 -41.1139
" />
<path d="M-171.4727 -40.7567
L-171.4013 -40.6853
" />
<path d="M-171.4013 -40.6853
L-171.4727 -40.6139
" />
<path d="M-171.4727 -40.6139
L-171.5442 -40.6853
" />
<path d="M-171.5442 -40.6853
L-171.4727 -40.7567
" />
<path d="M-171.4727 -40.7567
L-171.4727 -40.6139
" />
<path d="M-171.4727 -41.5424
L-171.4013 -41.4710
" />
<path d="M-171.4013 -41.4710
L-171.4727 -41.3996
" />
<path d="M-171.4727 -41.3996
L-171.5442 -41.4710
" />
<path d="M-171.5442 -41.4710
L-171.4727 -41.5424
" />
<path d="M-171.4727 -41.5424
L-171.4727 -41.3996
" />
<path d="M-168.9013 -40.6139
L-169.6156 -40.6139
" />
<path d="M-169.6156 -40.6139
L-169.6156 -42.1139
" />
<path d="M-167.7585 -41.6139
L-167.7585 -40.6139
" />
<path d="M-168.4013 -41.6139
L-168.4013 -40.8282
" />
<path d="M-168.4013 -40.8282
L-168.3299 -40.6853
" />
<path d="M-168.3299 -40.6853
L-168.1870 -40.6139
" />
<path d="M-168.1870 -40.6139
L-167.9727 -40.6139
" />
<path d="M-167.9727 -40.6139
L-167.8299 -40.6853
" />
<path d="M-167.8299 -40.6853
L-167.7585 -40.7567
" />
<path d="M-167.0442 -41.6139
L-167.0442 -40.6139
" />
<path d="M-167.0442 -41.4710
L-166.9727 -41.5424
" />
<path d="M-166.9727 -41.5424
L-166.8299 -41.6139
" />
<path d="M-166.8299 -41.6139
L-166.6156 -41.6139
" />
<path d="M-166.6156 -41.6139
L-166.4727 -41.5424
" />
<path d="M-166.4727 -41.5424
L-166.4013 -41.3996
" />
<path d="M-166.4013 -41.3996
L-166.4013 -40.6139
" />
<path d="M-165.0442 -40.6139
L-165.0442 -41.3996
" />
<path d="M-165.0442 -41.3996
L-165.1156 -41.5424
" />
<path d="M-165.1156 -41.5424
L-165.2585 -41.6139
" />
<path d="M-165.2585 -41.6139
L-165.5442 -41.6139
" />
<path d="M-165.5442 -41.6139
L-165.6870 -41.5424
" />
<path d="M-165.0442 -40.6853
L-165.1870 -40.6139
" />
<path d="M-165.1870 -40.6139
L-165.5442 -40.6139
" />
<path d="M-165.5442 -40.6139
L-165.6870 -40.6853
" />
<path d="M-165.6870 -40.6853
L-165.7585 -40.8282
" />
<path d="M-165.7585 -40.8282
L-165.7585 -40.9710
" />
<path d="M-165.7585 -40.9710
L-165.6870 -41.1139
" />
<path d="M-165.6870 -41.1139
L-165.5442 -41.1853
" />
<path d="M-165.5442 -41.1853
L-165.1870 -41.1853
" />
<path d="M-165.1870 -41.1853
L-165.0442 -41.2567
" />
<path d="M-164.3299 -40.6139
L-164.3299 -42.1139
" />
<path d="M-164.3299 -41.5424
L-164.1870 -41.6139
" />
<path d="M-164.1870 -41.6139
L-163.9013 -41.6139
" />
<path d="M-163.9013 -41.6139
L-163.7585 -41.5424
" />
<path d="M-163.7585 -41.5424
L-163.6870 -41.4710
" />
<path d="M-163.6870 -41.4710
L-163.6156 -41.3282
" />
<path d="M-163.6156 -41.3282
L-163.6156 -40.8996
" />
<path d="M-163.6156 -40.8996
L-163.6870 -40.7567
" />
<path d="M-163.6870 -40.7567
L-163.7585 -40.6853
" />
<path d="M-163.7585 -40.6853
L-163.9013 -40.6139
" />
<path d="M-163.9013 -40.6139
L-164.1870 -40.6139
" />
<path d="M-164.1870 -40.6139
L-164.3299 -40.6853
" />
<path d="M-162.7585 -40.6139
L-162.9013 -40.6853
" />
<path d="M-162.9013 -40.6853
L-162.9727 -40.7567
" />
<path d="M-162.9727 -40.7567
L-163.0442 -40.8996
" />
<path d="M-163.0442 -40.8996
L-163.0442 -41.3282
" />
<path d="M-163.0442 -41.3282
L-162.9727 -41.4710
" />
<path d="M-162.9727 -41.4710
L-162.9013 -41.5424
" />
<path d="M-162.9013 -41.5424
L-162.7585 -41.6139
" />
<path d="M-162.7585 -41.6139
L-162.5442 -41.6139
" />
<path d="M-162.5442 -41.6139
L-162.4013 -41.5424
" />
<path d="M-162.4013 -41.5424
L-162.3299 -41.4710
" />
<path d="M-162.3299 -41.4710
L-162.2585 -41.3282
" />
<path d="M-162.2585 -41.3282
L-162.2585 -40.8996
" />
<path d="M-162.2585 -40.8996
L-162.3299 -40.7567
" />
<path d="M-162.3299 -40.7567
L-162.4013 -40.6853
" />
<path d="M-162.4013 -40.6853
L-162.5442 -40.6139
" />
<path d="M-162.5442 -40.6139
L-162.7585 -40.6139
" />
<path d="M-161.8299 -41.6139
L-161.2585 -41.6139
" />
<path d="M-161.6156 -42.1139
L-161.6156 -40.8282
" />
<path d="M-161.6156 -40.8282
L-161.5442 -40.6853
" />
<path d="M-161.5442 -40.6853
L-161.4013 -40.6139
" />
<path d="M-161.4013 -40.6139
L-161.2585 -40.6139
" />
<path d="M-160.7585 -40.6139
L-160.7585 -41.6139
" />
<path d="M-160.7585 -42.1139
L-160.8299 -42.0424
" />
<path d="M-160.8299 -42.0424
L-160.7585 -41.9710
" />
<path d="M-160.7585 -41.9710
L-160.6870 -42.0424
" />
<path d="M-160.6870 -42.0424
L-160.7585 -42.1139
" />
<path d="M-160.7585 -42.1139
L-160.7585 -41.9710
" />
<path d="M-159.4013 -40.6853
L-159.5442 -40.6139
" />
<path d="M-159.5442 -40.6139
L-159.8299 -40.6139
" />
<path d="M-159.8299 -40.6139
L-159.9727 -40.6853
" />
<path d="M-159.9727 -40.6853
L-160.0442 -40.7567
" />
<path d="M-160.0442 -40.7567
L-160.1156 -40.8996
" />
<path d="M-160.1156 -40.8996
L-160.1156 -41.3282
" />
<path d="M-160.1156 -41.3282
L-160.0442 -41.4710
" />
<path d="M-160.0442 -41.4710
L-159.9727 -41.5424
" />
<path d="M-159.9727 -41.5424
L-159.8299 -41.6139
" />
<path d="M-159.8299 -41.6139
L-159.5442 -41.6139
" />
<path d="M-159.5442 -41.6139
L-159.4013 -41.5424
" />
<path d="M-158.7585 -40.7567
L-158.6870 -40.6853
" />
<path d="M-158.6870 -40.6853
L-158.7585 -40.6139
" />
<path d="M-158.7585 -40.6139
L-158.8299 -40.6853
" />
<path d="M-158.8299 -40.6853
L-158.7585 -40.7567
" />
<path d="M-158.7585 -40.7567
L-158.7585 -40.6139
" />
<path d="M-158.0442 -40.6139
L-158.0442 -42.1139
" />
<path d="M-157.9013 -41.1853
L-157.4727 -40.6139
" />
<path d="M-157.4727 -41.6139
L-158.0442 -41.0424
" />
<path d="M-156.8299 -40.6139
L-156.8299 -41.6139
" />
<path d="M-156.8299 -42.1139
L-156.9013 -42.0424
" />
<path d="M-156.9013 -42.0424
L-156.8299 -41.9710
" />
<path d="M-156.8299 -41.9710
L-156.7585 -42.0424
" />
<path d="M-156.7585 -42.0424
L-156.8299 -42.1139
" />
<path d="M-156.8299 -42.1139
L-156.8299 -41.9710
" />
<path d="M-155.4727 -40.6853
L-155.6156 -40.6139
" />
<path d="M-155.6156 -40.6139
L-155.9013 -40.6139
" />
<path d="M-155.9013 -40.6139
L-156.0442 -40.6853
" />
<path d="M-156.0442 -40.6853
L-156.1156 -40.7567
" />
<path d="M-156.1156 -40.7567
L-156.1870 -40.8996
" />
<path d="M-156.1870 -40.8996
L-156.1870 -41.3282
" />
<path d="M-156.1870 -41.3282
L-156.1156 -41.4710
" />
<path d="M-156.1156 -41.4710
L-156.0442 -41.5424
" />
<path d="M-156.0442 -41.5424
L-155.9013 -41.6139
" />
<path d="M-155.9013 -41.6139
L-155.6156 -41.6139
" />
<path d="M-155.6156 -41.6139
L-155.4727 -41.5424
" />
<path d="M-154.1870 -40.6139
L-154.1870 -41.3996
" />
<path d="M-154.1870 -41.3996
L-154.2585 -41.5424
" />
<path d="M-154.2585 -41.5424
L-154.4013 -41.6139
" />
<path d="M-154.4013 -41.6139
L-154.6870 -41.6139
" />
<path d="M-154.6870 -41.6139
L-154.8299 -41.5424
" />
<path d="M-154.1870 -40.6853
L-154.3299 -40.6139
" />
<path d="M-154.3299 -40.6139
L-154.6870 -40.6139
" />
<path d="M-154.6870 -40.6139
L-154.8299 -40.6853
" />
<path d="M-154.8299 -40.6853
L-154.9013 -40.8282
" />
<path d="M-154.9013 -40.8282
L-154.9013 -40.9710
" />
<path d="M-154.9013 -40.9710
L-154.8299 -41.1139
" />
<path d="M-154.8299 -41.1139
L-154.6870 -41.1853
" />
<path d="M-154.6870 -41.1853
L-154.3299 -41.1853
" />
<path d="M-154.3299 -41.1853
L-154.1870 -41.2567
" />
<path d="M-152.8299 -40.6139
L-152.8299 -42.1139
" />
<path d="M-152.8299 -40.6853
L-152.9727 -40.6139
" />
<path d="M-152.9727 -40.6139
L-153.2585 -40.6139
" />
<path d="M-153.2585 -40.6139
L-153.4013 -40.6853
" />
<path d="M-153.4013 -40.6853
L-153.4727 -40.7567
" />
<path d="M-153.4727 -40.7567
L-153.5442 -40.8996
" />
<path d="M-153.5442 -40.8996
L-153.5442 -41.3282
" />
<path d="M-153.5442 -41.3282
L-153.4727 -41.4710
" />
<path d="M-153.4727 -41.4710
L-153.4013 -41.5424
" />
<path d="M-153.4013 -41.5424
L-153.2585 -41.6139
" />
<path d="M-153.2585 -41.6139
L-152.9727 -41.6139
" />
<path d="M-152.9727 -41.6139
L-152.8299 -41.5424
" />
<path d="M-152.4727 -40.4710
L-151.3299 -40.4710
" />
<path d="M-150.9727 -41.6139
L-150.9727 -40.1139
" />
<path d="M-150.9727 -41.5424
L-150.8299 -41.6139
" />
<path d="M-150.8299 -41.6139
L-150.5442 -41.6139
" />
<path d="M-150.5442 -41.6139
L-150.4013 -41.5424
" />
<path d="M-150.4013 -41.5424
L-150.3299 -41.4710
" />
<path d="M-150.3299 -41.4710
L-150.2585 -41.3282
" />
<path d="M-150.2585 -41.3282
L-150.2585 -40.8996
" />
<path d="M-150.2585 -40.8996
L-150.3299 -40.7567
" />
<path d="M-150.3299 -40.7567
L-150.4013 -40.6853
" />
<path d="M-150.4013 -40.6853
L-150.5442 -40.6139
" />
<path d="M-150.5442 -40.6139
L-150.8299 -40.6139
" />
<path d="M-150.8299 -40.6139
L-150.9727 -40.6853
" />
<path d="M-148.9727 -40.6853
L-149.1156 -40.6139
" />
<path d="M-149.1156 -40.6139
L-149.4013 -40.6139
" />
<path d="M-149.4013 -40.6139
L-149.5442 -40.6853
" />
<path d="M-149.5442 -40.6853
L-149.6156 -40.7567
" />
<path d="M-149.6156 -40.7567
L-149.6870 -40.8996
" />
<path d="M-149.6870 -40.8996
L-149.6870 -41.3282
" />
<path d="M-149.6870 -41.3282
L-149.6156 -41.4710
" />
<path d="M-149.6156 -41.4710
L-149.5442 -41.5424
" />
<path d="M-149.5442 -41.5424
L-149.4013 -41.6139
" />
<path d="M-149.4013 -41.6139
L-149.1156 -41.6139
" />
<path d="M-149.1156 -41.6139
L-148.9727 -41.5424
" />
<path d="M-148.3299 -40.6139
L-148.3299 -42.1139
" />
<path d="M-148.3299 -41.5424
L-148.1870 -41.6139
" />
<path d="M-148.1870 -41.6139
L-147.9013 -41.6139
" />
<path d="M-147.9013 -41.6139
L-147.7585 -41.5424
" />
<path d="M-147.7585 -41.5424
L-147.6870 -41.4710
" />
<path d="M-147.6870 -41.4710
L-147.6156 -41.3282
" />
<path d="M-147.6156 -41.3282
L-147.6156 -40.8996
" />
<path d="M-147.6156 -40.8996
L-147.6870 -40.7567
" />
<path d="M-147.6870 -40.7567
L-147.7585 -40.6853
" />
<path d="M-147.7585 -40.6853
L-147.9013 -40.6139
" />
<path d="M-147.9013 -40.6139
L-148.1870 -40.6139
" />
<path d="M-148.1870 -40.6139
L-148.3299 -40.6853
" />
</g><path d="M-177.0000 -45.5000
L-69.0000 -45.5000
" />
<text x="-176.0000" y="-43.2500"
textLength="8.2214" font-size="2.0000" lengthAdjust="spacingAndGlyphs"
text-anchor="start" opacity="0" stroke-opacity="0">Sheet: </text>
<g class="stroked-text"><desc>Sheet: </desc>
<path d="M-175.6156 -43.3853
L-175.4013 -43.3139
" />
<path d="M-175.4013 -43.3139
L-175.0442 -43.3139
" />
<path d="M-175.0442 -43.3139
L-174.9013 -43.3853
" />
<path d="M-174.9013 -43.3853
L-174.8299 -43.4567
" />
<path d="M-174.8299 -43.4567
L-174.7585 -43.5996
" />
<path d="M-174.7585 -43.5996
L-174.7585 -43.7424
" />
<path d="M-174.7585 -43.7424
L-174.8299 -43.8853
" />
<path d="M-174.8299 -43.8853
L-174.9013 -43.9567
" />
<path d="M-174.9013 -43.9567
L-175.0442 -44.0282
" />
<path d="M-175.0442 -44.0282
L-175.3299 -44.0996
" />
<path d="M-175.3299 -44.0996
L-175.4727 -44.1710
" />
<path d="M-175.4727 -44.1710
L-175.5442 -44.2424
" />
<path d="M-175.5442 -44.2424
L-175.6156 -44.3853
" />
<path d="M-175.6156 -44.3853
L-175.6156 -44.5282
" />
<path d="M-175.6156 -44.5282
L-175.5442 -44.6710
" />
<path d="M-175.5442 -44.6710
L-175.4727 -44.7424
" />
<path d="M-175.4727 -44.7424
L-175.3299 -44.8139
" />
<path d="M-175.3299 -44.8139
L-174.9727 -44.8139
" />
<path d="M-174.9727 -44.8139
L-174.7585 -44.7424
" />
<path d="M-174.1156 -43.3139
L-174.1156 -44.8139
" />
<path d="M-173.4727 -43.3139
L-173.4727 -44.0996
" />
<path d="M-173.4727 -44.0996
L-173.5442 -44.2424
" />
<path d="M-173.5442 -44.2424
L-173.6870 -44.3139
" />
<path d="M-173.6870 -44.3139
L-173.9013 -44.3139
" />
<path d="M-173.9013 -44.3139
L-174.0442 -44.2424
" />
<path d="M-174.0442 -44.2424
L-174.1156 -44.1710
" />
<path d="M-172.1870 -43.3853
L-172.3299 -43.3139
" />
<path d="M-172.3299 -43.3139
L-172.6156 -43.3139
" />
<path d="M-172.6156 -43.3139
L-172.7585 -43.3853
" />
<path d="M-172.7585 -43.3853
L-172.8299 -43.5282
" />
<path d="M-172.8299 -43.5282
L-172.8299 -44.0996
" />
<path d="M-172.8299 -44.0996
L-172.7585 -44.2424
" />
<path d="M-172.7585 -44.2424
L-172.6156 -44.3139
" />
<path d="M-172.6156 -44.3139
L-172.3299 -44.3139
" />
<path d="M-172.3299 -44.3139
L-172.1870 -44.2424
" />
<path d="M-172.1870 -44.2424
L-172.1156 -44.0996
" />
<path d="M-172.1156 -44.0996
L-172.1156 -43.9567
" />
<path d="M-172.1156 -43.9567
L-172.8299 -43.8139
" />
<path d="M-170.9013 -43.3853
L-171.0442 -43.3139
" />
<path d="M-171.0442 -43.3139
L-171.3299 -43.3139
" />
<path d="M-171.3299 -43.3139
L-171.4727 -43.3853
" />
<path d="M-171.4727 -43.3853
L-171.5442 -43.5282
" />
<path d="M-171.5442 -43.5282
L-171.5442 -44.0996
" />
<path d="M-171.5442 -44.0996
L-171.4727 -44.2424
" />
<path d="M-171.4727 -44.2424
L-171.3299 -44.3139
" />
<path d="M-171.3299 -44.3139
L-171.0442 -44.3139
" />
<path d="M-171.0442 -44.3139
L-170.9013 -44.2424
" />
<path d="M-170.9013 -44.2424
L-170.8299 -44.0996
" />
<path d="M-170.8299 -44.0996
L-170.8299 -43.9567
" />
<path d="M-170.8299 -43.9567
L-171.5442 -43.8139
" />
<path d="M-170.4013 -44.3139
L-169.8299 -44.3139
" />
<path d="M-170.1870 -44.8139
L-170.1870 -43.5282
" />
<path d="M-170.1870 -43.5282
L-170.1156 -43.3853
" />
<path d="M-170.1156 -43.3853
L-169.9727 -43.3139
" />
<path d="M-169.9727 -43.3139
L-169.8299 -43.3139
" />
<path d="M-169.3299 -43.4567
L-169.2585 -43.3853
" />
<path d="M-169.2585 -43.3853
L-169.3299 -43.3139
" />
<path d="M-169.3299 -43.3139
L-169.4013 -43.3853
" />
<path d="M-169.4013 -43.3853
L-169.3299 -43.4567
" />
<path d="M-169.3299 -43.4567
L-169.3299 -43.3139
" />
<path d="M-169.3299 -44.2424
L-169.2585 -44.1710
" />
<path d="M-169.2585 -44.1710
L-169.3299 -44.0996
" />
<path d="M-169.3299 -44.0996
L-169.4013 -44.1710
" />
<path d="M-169.4013 -44.1710
L-169.3299 -44.2424
" />
<path d="M-169.3299 -44.2424
L-169.3299 -44.0996
" />
</g></g>
<g style="fill:none; 
stroke:#C872AB; stroke-width:0.3000; stroke-opacity:1; 
stroke-linecap:round; stroke-linejoin:round;">
<text x="-176.0000" y="-46.2500"
textLength="0.9000" font-size="2.0000" lengthAdjust="spacingAndGlyphs"
text-anchor="start" opacity="0" stroke-opacity="0"></text>
<g class="stroked-text"><desc></desc>
</g></g>
<g style="fill:none; 
stroke:#C872AB; stroke-width:0.1500; stroke-opacity:1; 
stroke-linecap:round; stroke-linejoin:round;">
<text x="-176.0000" y="-49.2500"
textLength="0.4500" font-size="2.0000" lengthAdjust="spacingAndGlyphs"
text-anchor="start" opacity="0" stroke-opacity="0"></text>
<g class="stroked-text"><desc></desc>
</g><text x="-176.0000" y="-52.2500"
textLength="0.4500" font-size="2.0000" lengthAdjust="spacingAndGlyphs"
text-anchor="start" opacity="0" stroke-opacity="0"></text>
<g class="stroked-text"><desc></desc>
</g><text x="-176.0000" y="-55.2500"
textLength="0.4500" font-size="2.0000" lengthAdjust="spacingAndGlyphs"
text-anchor="start" opacity="0" stroke-opacity="0"></text>
<g class="stroked-text"><desc></desc>
</g><text x="-176.0000" y="-58.2500"
textLength="0.4500" font-size="2.0000" lengthAdjust="spacingAndGlyphs"
text-anchor="start" opacity="0" stroke-opacity="0"></text>
<g class="stroked-text"><desc></desc>
</g><path d="M-157.0000 -35.5000
L-157.0000 -32.5000
" />
<path d="M-93.0000 -35.5000
L-93.0000 -29.0000
" />
<path style="fill:#C83434; fill-opacity:1.0000; stroke:none;fill-rule:evenodd;"
d="M 38.0550,17.5500
38.1124,17.5614
38.1611,17.5939
38.1936,17.6426
38.2050,17.7000
38.2050,19.3500
38.1936,19.4074
38.1611,19.4561
38.1124,19.4886
38.0550,19.5000
37.7550,19.5000
37.6976,19.4886
37.6489,19.4561
37.6164,19.4074
37.6050,19.3500
37.6050,17.7000
37.6164,17.6426
37.6489,17.5939
37.6976,17.5614
37.7550,17.5500
Z" /> 
<path style="fill:#C83434; fill-opacity:1.0000; stroke:none;fill-rule:evenodd;"
d="M 36.7850,17.5500
36.8424,17.5614
36.8911,17.5939
36.9236,17.6426
36.9350,17.7000
36.9350,19.3500
36.9236,19.4074
36.8911,19.4561
36.8424,19.4886
36.7850,19.5000
36.4850,19.5000
36.4276,19.4886
36.3789,19.4561
36.3464,19.4074
36.3350,19.3500
36.3350,17.7000
36.3464,17.6426
36.3789,17.5939
36.4276,17.5614
36.4850,17.5500
Z" /> 
<path style="fill:#C83434; fill-opacity:1.0000; stroke:none;fill-rule:evenodd;"
d="M 35.5150,17.5500
35.5724,17.5614
35.6211,17.5939
35.6536,17.6426
35.6650,17.7000
35.6650,19.3500
35.6536,19.4074
35.6211,19.4561
35.5724,19.4886
35.5150,19.5000
35.2150,19.5000
35.1576,19.4886
35.1089,19.4561
35.0764,19.4074
35.0650,19.3500
35.0650,17.7000
35.0764,17.6426
35.1089,17.5939
35.1576,17.5614
35.2150,17.5500
Z" /> 
<path style="fill:#C83434; fill-opacity:1.0000; stroke:none;fill-rule:evenodd;"
d="M 34.2450,17.5500
34.3024,17.5614
34.3511,17.5939
34.3836,17.6426
34.3950,17.7000
34.3950,19.3500
34.3836,19.4074
34.3511,19.4561
34.3024,19.4886
34.2450,19.5000
33.9450,19.5000
33.8876,19.4886
33.8389,19.4561
33.8064,19.4074
33.7950,19.3500
33.7950,17.7000
33.8064,17.6426
33.8389,17.5939
33.8876,17.5614
33.9450,17.5500
Z" /> 
<path style="fill:#C83434; fill-opacity:1.0000; stroke:none;fill-rule:evenodd;"
d="M 34.2450,22.5000
34.3024,22.5114
34.3511,22.5439
34.3836,22.5926
34.3950,22.6500
34.3950,24.3000
34.3836,24.3574
34.3511,24.4061
34.3024,24.4386
34.2450,24.4500
33.9450,24.4500
33.8876,24.4386
33.8389,24.4061
33.8064,24.3574
33.7950,24.3000
33.7950,22.6500
33.8064,22.5926
33.8389,22.5439
33.8876,22.5114
33.9450,22.5000
Z" /> 
<path style="fill:#C83434; fill-opacity:1.0000; stroke:none;fill-rule:evenodd;"
d="M 35.5150,22.5000
35.5724,22.5114
35.6211,22.5439
35.6536,22.5926
35.6650,22.6500
35.6650,24.3000
35.6536,24.3574
35.6211,24.4061
35.5724,24.4386
35.5150,24.4500
35.2150,24.4500
35.1576,24.4386
35.1089,24.4061
35.0764,24.3574
35.0650,24.3000
35.0650,22.6500
35.0764,22.5926
35.1089,22.5439
35.1576,22.5114
35.2150,22.5000
Z" /> 
<path style="fill:#C83434; fill-opacity:1.0000; stroke:none;fill-rule:evenodd;"
d="M 36.7850,22.5000
36.8424,22.5114
36.8911,22.5439
36.9236,22.5926
36.9350,22.6500
36.9350,24.3000
36.9236,24.3574
36.8911,24.4061
36.8424,24.4386
36.7850,24.4500
36.4850,24.4500
36.4276,24.4386
36.3789,24.4061
36.3464,24.3574
36.3350,24.3000
36.3350,22.6500
36.3464,22.5926
36.3789,22.5439
36.4276,22.5114
36.4850,22.5000
Z" /> 
<path style="fill:#C83434; fill-opacity:1.0000; stroke:none;fill-rule:evenodd;"
d="M 38.0550,22.5000
38.1124,22.5114
38.1611,22.5439
38.1936,22.5926
38.2050,22.6500
38.2050,24.3000
38.1936,24.3574
38.1611,24.4061
38.1124,24.4386
38.0550,24.4500
37.7550,24.4500
37.6976,24.4386
37.6489,24.4061
37.6164,24.3574
37.6050,24.3000
37.6050,22.6500
37.6164,22.5926
37.6489,22.5439
37.6976,22.5114
37.7550,22.5000
Z" /> 
<path style="fill:#C83434; fill-opacity:1.0000; stroke:none;fill-rule:evenodd;"
d="M 23.6000,35.5250
23.6190,35.4293
23.6732,35.3482
23.7543,35.2940
23.8500,35.2750
24.3500,35.2750
24.4457,35.2940
24.5268,35.3482
24.5810,35.4293
24.6000,35.5250
24.6000,36.4750
24.5810,36.5707
24.5268,36.6518
24.4457,36.7060
24.3500,36.7250
23.8500,36.7250
23.7543,36.7060
23.6732,36.6518
23.6190,36.5707
23.6000,36.4750
Z" /> 
<path style="fill:#C83434; fill-opacity:1.0000; stroke:none;fill-rule:evenodd;"
d="M 25.5000,35.5250
25.5190,35.4293
25.5732,35.3482
25.6543,35.2940
25.7500,35.2750
26.2500,35.2750
26.3457,35.2940
26.4268,35.3482
26.4810,35.4293
26.5000,35.5250
26.5000,36.4750
26.4810,36.5707
26.4268,36.6518
26.3457,36.7060
26.2500,36.7250
25.7500,36.7250
25.6543,36.7060
25.5732,36.6518
25.5190,36.5707
25.5000,36.4750
Z" /> 
<path style="fill:#C83434; fill-opacity:1.0000; stroke:none;fill-rule:evenodd;"
d="M 37.5250,30.4500
37.4293,30.4310
37.3482,30.3768
37.2940,30.2957
37.2750,30.2000
37.2750,29.7000
37.2940,29.6043
37.3482,29.5232
37.4293,29.4690
37.5250,29.4500
38.4750,29.4500
38.5707,29.4690
38.6518,29.5232
38.7060,29.6043
38.7250,29.7000
38.7250,30.2000
38.7060,30.2957
38.6518,30.3768
38.5707,30.4310
38.4750,30.4500
Z" /> 
<path style="fill:#C83434; fill-opacity:1.0000; stroke:none;fill-rule:evenodd;"
d="M 37.5250,28.5500
37.4293,28.5310
37.3482,28.4768
37.2940,28.3957
37.2750,28.3000
37.2750,27.8000
37.2940,27.7043
37.3482,27.6232
37.4293,27.5690
37.5250,27.5500
38.4750,27.5500
38.5707,27.5690
38.6518,27.6232
38.7060,27.7043
38.7250,27.8000
38.7250,28.3000
38.7060,28.3957
38.6518,28.4768
38.5707,28.5310
38.4750,28.5500
Z" /> 
<path style="fill:#C83434; fill-opacity:1.0000; stroke:none;fill-rule:evenodd;"
d="M 14.6750,37.6000
14.6750,39.4000
12.8750,39.4000
12.8750,37.6000
Z" /> 
</g>
<g style="fill:#C83434; fill-opacity:1.0000; stroke:none;">
<circle cx="11.2350" cy="38.5000" r="0.9000" /> 
<path style="fill:#C83434; fill-opacity:1.0000; stroke:none;fill-rule:evenodd;"
d="M 22.9000,8.4000
22.9000,10.3500
20.9500,10.3500
20.9500,8.4000
Z" /> 
<circle cx="16.9250" cy="9.3750" r="0.9750" /> 
<path style="fill:#C83434; fill-opacity:1.0000; stroke:none;fill-rule:evenodd;"
d="M 29.6100,33.7400
29.5910,33.8357
29.5368,33.9168
29.4557,33.9710
29.3600,33.9900
28.2600,33.9900
28.1643,33.9710
28.0832,33.9168
28.0290,33.8357
28.0100,33.7400
28.0100,32.6400
28.0290,32.5443
28.0832,32.4632
28.1643,32.4090
28.2600,32.3900
29.3600,32.3900
29.4557,32.4090
29.5368,32.4632
29.5910,32.5443
29.6100,32.6400
Z" /> 
<circle cx="28.8100" cy="35.7300" r="0.8000" /> 
<circle cx="28.8100" cy="38.2700" r="0.8000" /> 
<circle cx="28.8100" cy="40.8100" r="0.8000" /> 
<circle cx="21.1900" cy="40.8100" r="0.8000" /> 
<circle cx="21.1900" cy="38.2700" r="0.8000" /> 
<circle cx="21.1900" cy="35.7300" r="0.8000" /> 
<circle cx="21.1900" cy="33.1900" r="0.8000" /> 
<circle cx="11.5000" cy="31.3500" r="1.2000" /> 
<circle cx="11.5000" cy="18.6500" r="1.2000" /> 
<circle cx="6.0000" cy="44.3500" r="1.2000" /> 
<circle cx="6.0000" cy="31.6500" r="1.2000" /> 
<circle cx="10.3000" cy="50.0000" r="1.2000" /> 
<circle cx="23.0000" cy="50.0000" r="1.2000" /> 
<path style="fill:#C83434; fill-opacity:1.0000; stroke:none;fill-rule:evenodd;"
d="M 38.9750,8.3625
38.9750,10.3125
37.0250,10.3125
37.0250,8.3625
Z" /> 
<circle cx="33.0000" cy="9.3375" r="0.9750" /> 
<circle cx="27.6500" cy="50.0000" r="1.2000" /> 
<circle cx="40.3500" cy="50.0000" r="1.2000" /> 
</g>
<g style="fill:none; 
stroke:#C83434; stroke-width:0.5000; stroke-opacity:1; 
stroke-linecap:round; stroke-linejoin:round;">
<path d="M30.3600 31.1400
L30.3600 34.1800
" />
<path d="M36.6350 24.8650
L30.3600 31.1400
" />
<path d="M30.3600 34.1800
L28.8100 35.7300
" />
<path d="M36.6350 23.4750
L36.6350 24.8650
" />
<path d="M38.0000 23.5700
L37.9050 23.4750
" />
<path d="M21.9250 9.3750
L20.7750 9.3750
" />
<path d="M34.3000 21.7500
L37.1619 21.7500
" />
<path d="M11.5000 26.1500
L6.0000 31.6500
" />
<path d="M21.1900 35.7300
L23.8300 35.7300
" />
<path d="M20.7750 9.3750
L11.5000 18.6500
" />
<path d="M4.0500 33.6000
L4.0500 45.4471
" />
<path d="M6.0000 31.6500
L4.0500 33.6000
" />
<path d="M38.0000 28.0500
L38.0000 23.5700
" />
<path d="M8.6029 50.0000
L10.3000 50.0000
" />
<path d="M38.0000 22.5881
L38.0000 28.0500
" />
<path d="M22.7400 34.1800
L21.1900 35.7300
" />
<path d="M11.5000 18.6500
L22.7400 29.8900
" />
<path d="M23.8300 35.7300
L24.1000 36.0000
" />
<path d="M21.9250 9.3750
L34.3000 21.7500
" />
<path d="M37.1619 21.7500
L38.0000 22.5881
" />
<path d="M4.0500 45.4471
L8.6029 50.0000
" />
<path d="M22.7400 29.8900
L22.7400 34.1800
" />
<path d="M11.5000 18.6500
L11.5000 26.1500
" />
<path d="M7.9250 44.3500
L13.7750 38.5000
" />
<path d="M20.9600 38.5000
L21.1900 38.2700
" />
<path d="M6.0000 44.3500
L7.9250 44.3500
" />
<path d="M13.7750 38.5000
L20.9600 38.5000
" />
<path d="M11.5000 31.3500
L11.5000 38.2350
" />
<path d="M11.5000 38.2350
L11.2350 38.5000
" />
<path d="M27.6500 50.0000
L33.0000 44.6500
" />
<path d="M23.0000 50.0000
L27.6500 50.0000
" />
<path d="M33.0000 44.6500
L33.0000 42.4600
" />
<path d="M33.0000 42.4600
L28.8100 38.2700
" />
<path style="fill:#C83434; fill-opacity:1.0000; stroke:none;fill-rule:evenodd;"
d="M 30.6817,6.0404
34.9100,6.9800
34.9712,7.0138
35.0044,7.0752
35.0068,7.0919
35.7239,16.7731
35.7093,16.8415
35.6880,16.8700
35.5961,16.9619
35.5961,16.9619
35.4756,17.1378
35.3895,17.3328
35.3895,17.3328
35.3407,17.5404
35.3406,17.5404
35.3345,17.6290
35.3345,19.4210
35.3406,19.5096
35.3407,19.5096
35.3895,19.7172
35.3895,19.7172
35.3895,19.7172
35.4756,19.9122
35.4756,19.9122
35.5961,20.0881
35.5961,20.0881
35.7359,20.2280
35.7694,20.2893
35.7644,20.3590
35.7226,20.4149
35.6571,20.4393
35.6279,20.4380
34.6214,20.2702
34.5585,20.2398
34.5541,20.2356
32.7409,18.4224
32.7074,18.3611
32.7065,18.3566
32.5237,17.3328
30.5327,6.1832
30.5403,6.1138
30.5842,6.0594
30.6506,6.0375
Z" /> 
<path style="fill:#C83434; fill-opacity:1.0000; stroke:none;fill-rule:evenodd;"
d="M 40.3832,7.0050
40.3978,7.0093
40.4566,7.0471
40.4849,7.1066
40.4870,7.1180
40.4885,7.1492
39.5090,19.8830
39.5013,19.9175
39.4958,19.9321
39.4536,19.9878
39.4473,19.9925
39.3911,20.0156
36.9126,20.3696
36.8434,20.3596
36.7907,20.3138
36.7711,20.2483
36.7704,20.1945
36.7309,19.9949
36.6519,19.8074
36.6309,19.7689
36.6160,19.7006
36.6190,19.6811
36.6593,19.5096
36.6593,19.5096
36.6655,19.4210
36.6655,17.6290
36.6655,17.6290
36.6596,17.5446
36.6595,17.5418
36.6594,17.5406
36.6589,17.5382
36.6587,17.5373
36.6581,17.5349
36.6129,17.3428
36.6167,17.2730
36.6257,17.2533
36.6297,17.2463
36.6923,17.0527
36.7070,16.9844
36.7211,16.9022
36.7267,16.6989
36.2830,10.7093
36.0181,7.1332
36.0328,7.0648
36.0821,7.0153
36.1418,7.0000
40.3483,7.0000
Z" /> 
<path style="fill:#C83434; fill-opacity:1.0000; stroke:none;fill-rule:evenodd;"
d="M 46.8926,0.5055
46.9076,0.5099
46.9664,0.5477
46.9675,0.5490
46.9950,0.6039
46.9967,0.6115
46.9995,0.6378
46.9995,56.8577
46.9945,56.8926
46.9901,56.9076
46.9523,56.9664
46.9510,56.9675
46.8961,56.9950
46.8885,56.9967
46.8622,56.9995
0.6423,56.9995
0.6074,56.9945
0.5924,56.9901
0.5336,56.9523
0.5325,56.9510
0.5050,56.8961
0.5033,56.8885
0.5005,56.8622
0.5005,33.5016
2.7995,33.5016
2.7995,45.5455
2.8159,45.6490
2.8303,45.7399
2.8911,45.9271
2.9805,46.1025
3.0962,46.2617
7.7883,50.9538
7.9475,51.0695
8.1229,51.1589
8.2678,51.2059
8.3101,51.2197
8.3101,51.2197
8.4168,51.2366
8.4505,51.2470
8.4749,51.2586
8.5201,51.2951
8.6420,51.4540
8.6420,51.4540
8.8460,51.6580
8.8460,51.6580
8.8460,51.6580
8.8460,51.6580
8.9008,51.7000
9.0749,51.8336
9.0751,51.8337
9.1931,51.9018
9.3246,51.9778
9.3247,51.9778
9.4576,52.0329
9.5871,52.0865
9.5889,52.0873
9.5894,52.0875
9.5910,52.0881
9.5923,52.0885
9.5954,52.0894
9.5969,52.0897
9.6276,52.0980
9.8698,52.1628
10.1558,52.2005
10.1558,52.2005
10.4442,52.2005
10.4442,52.2005
10.7302,52.1628
11.0050,52.0892
11.0082,52.0885
11.0106,52.0875
11.0111,52.0873
11.0129,52.0865
11.2713,51.9795
11.2732,51.9788
11.2736,51.9786
11.2754,51.9778
11.2770,51.9769
11.2788,51.9758
11.5252,51.8336
11.7540,51.6580
11.9580,51.4540
12.1336,51.2252
12.2778,50.9753
12.2898,50.9465
12.2898,50.9465
12.3260,50.8591
12.3865,50.7129
12.3873,50.7111
12.3875,50.7106
12.3885,50.7082
12.3892,50.7050
12.4628,50.4302
12.5005,50.1442
12.5005,49.8558
12.4628,49.5698
12.3897,49.2969
12.3894,49.2954
12.3885,49.2923
12.3881,49.2910
12.3875,49.2894
12.3873,49.2889
12.3865,49.2871
12.2898,49.0535
12.2778,49.0247
12.2778,49.0246
12.2018,48.8931
12.1337,48.7751
12.1336,48.7749
12.1336,48.7749
12.0255,48.6340
11.9580,48.5460
11.9580,48.5460
11.9580,48.5460
11.9580,48.5460
11.7540,48.3420
11.7540,48.3420
11.7540,48.3420
11.7540,48.3420
11.5268,48.1677
11.5255,48.1666
11.5252,48.1664
11.2753,48.0222
11.2753,48.0222
11.2753,48.0222
11.0089,47.9118
11.0089,47.9118
11.0088,47.9118
10.7302,47.8372
10.7302,47.8372
10.7302,47.8372
10.7302,47.8372
10.7302,47.8371
10.7302,47.8371
10.4483,47.8000
10.4463,47.7997
10.4442,47.7995
10.4442,47.7995
10.4442,47.7995
10.1558,47.7995
10.1558,47.7995
10.1558,47.7995
10.1537,47.7997
10.1517,47.8000
9.8698,47.8371
9.8698,47.8372
9.8680,47.8376
9.8662,47.8381
9.5911,47.9118
9.5911,47.9118
9.3247,48.0222
9.3247,48.0222
9.3246,48.0222
9.0749,48.1664
9.0748,48.1664
9.0748,48.1664
8.8714,48.3225
8.8406,48.3398
8.8261,48.3454
8.7564,48.3513
8.7564,48.3513
8.7504,48.3500
8.7015,48.3281
8.7014,48.3280
8.6876,48.3161
6.9239,46.5525
6.9028,46.5243
6.8961,46.5121
6.8813,46.4438
6.9057,46.3783
6.9088,46.3741
6.9606,46.3339
6.9753,46.3278
7.2252,46.1836
7.4540,46.0080
7.6580,45.8040
7.7661,45.6632
7.7913,45.6385
7.8100,45.6249
7.8618,45.6028
7.8647,45.6023
7.8860,45.6005
8.0234,45.6005
8.0234,45.6005
8.2178,45.5697
8.4050,45.5089
8.5804,45.4195
8.7396,45.3038
13.5940,40.4494
13.6223,40.4283
13.6454,40.4157
13.7048,40.4005
14.7330,40.4005
14.7330,40.4005
14.8524,40.3899
15.0480,40.3339
15.2284,40.2397
15.3861,40.1111
15.5147,39.9534
15.5777,39.8329
15.5983,39.8043
15.6104,39.7917
15.6679,39.7579
15.6802,39.7546
15.7120,39.7505
19.4901,39.7505
19.5250,39.7555
19.5383,39.7594
19.5971,39.7972
19.6261,39.8608
19.6261,39.8608
19.6263,39.8624
19.6208,39.9206
19.6191,39.9253
19.6094,39.9467
19.5910,39.9786
19.5910,39.9786
19.5717,40.0119
19.5717,40.0120
19.4814,40.2300
19.4203,40.4580
19.3895,40.6920
19.3895,40.6920
19.3895,40.9280
19.3895,40.9280
19.4203,41.1620
19.4814,41.3900
19.5717,41.6080
19.5717,41.6081
19.6427,41.7310
19.6427,41.7310
19.6897,41.8124
19.6897,41.8124
19.6899,41.8128
19.6909,41.8140
19.8334,41.9997
19.8334,41.9997
19.8334,41.9997
19.8334,41.9997
19.8334,41.9997
20.0003,42.1666
20.0003,42.1666
20.0003,42.1666
20.0134,42.1767
20.1875,42.3103
20.1875,42.3103
20.2764,42.3616
20.2764,42.3616
20.3885,42.4263
20.3902,42.4274
20.3917,42.4282
20.3924,42.4285
20.6100,42.5186
20.8380,42.5797
21.0720,42.6105
21.0720,42.6105
21.3080,42.6105
21.3080,42.6105
21.5420,42.5797
21.7700,42.5186
21.9880,42.4283
22.1924,42.3103
22.3797,42.1666
22.5466,41.9997
22.6903,41.8124
22.8083,41.6080
22.8986,41.3900
22.9597,41.1620
22.9905,40.9280
22.9905,40.6920
22.9597,40.4580
22.8986,40.2300
22.8085,40.0124
22.8082,40.0117
22.8074,40.0102
22.8063,40.0085
22.7890,39.9786
22.7369,39.8883
22.6903,39.8075
22.6617,39.7703
22.6506,39.7558
22.6505,39.7558
22.6505,39.7558
22.5565,39.6332
22.5424,39.6099
22.5338,39.5914
22.5234,39.5223
22.5243,39.5163
22.5428,39.4662
22.5446,39.4633
22.5446,39.4633
22.5459,39.4613
22.5518,39.4529
22.6366,39.3424
22.6366,39.3424
22.6366,39.3424
22.6606,39.3111
22.6903,39.2724
22.8083,39.0680
22.8986,38.8500
22.9597,38.6220
22.9905,38.3880
22.9905,38.1520
22.9597,37.9180
22.8986,37.6900
22.8617,37.6009
22.8530,37.5667
22.8518,37.5559
22.8642,37.4871
22.9118,37.4360
22.9795,37.4187
23.0354,37.4343
23.0400,37.4368
23.0400,37.4368
23.0472,37.4408
23.0575,37.4472
23.1949,37.5424
23.1949,37.5424
23.1949,37.5424
23.2304,37.5670
23.2304,37.5670
23.4353,37.6601
23.4353,37.6601
23.4353,37.6601
23.4354,37.6601
23.4355,37.6602
23.5540,37.6900
23.6517,37.7146
23.6538,37.7152
23.6556,37.7154
23.6584,37.7155
23.7858,37.7255
24.4142,37.7255
24.5464,37.7151
24.7647,37.6601
24.9696,37.5670
25.1547,37.4388
25.3138,37.2797
25.3405,37.2412
25.3645,37.2154
25.3766,37.2055
25.4411,37.1787
25.4491,37.1779
25.4507,37.1777
25.5030,37.1833
25.5350,37.1939
25.5973,37.2145
25.5973,37.2145
25.7000,37.2250
25.7500,37.2250
25.7500,37.2250
25.7500,34.7750
25.7500,34.7750
25.7000,34.7750
25.7000,34.7750
25.7000,34.7750
25.5973,34.7855
25.5085,34.8149
25.4737,34.8212
25.4581,34.8217
25.3904,34.8043
25.3863,34.8019
25.3822,34.7994
25.3437,34.7635
25.3138,34.7203
25.2535,34.6600
25.1547,34.5612
25.1547,34.5612
25.1546,34.5612
25.1359,34.5482
25.0820,34.5109
24.9706,34.4336
24.9697,34.4330
24.9696,34.4330
24.8613,34.3838
24.8081,34.3596
24.7647,34.3399
24.7647,34.3399
24.5464,34.2849
24.5464,34.2849
24.5464,34.2849
24.4142,34.2745
24.4142,34.2745
24.4142,34.2745
24.1323,34.2745
24.0974,34.2695
24.0824,34.2651
24.0236,34.2273
24.0225,34.2260
23.9950,34.1711
23.9933,34.1635
23.9905,34.1372
23.9905,29.7916
23.9681,29.6500
23.9597,29.5972
23.9240,29.4872
23.9004,29.4146
23.8993,29.4108
23.8983,29.4088
23.8965,29.4051
23.8956,29.4035
23.8935,29.3993
23.8432,29.3006
23.8095,29.2346
23.6938,29.0754
23.5546,28.9362
13.7229,19.1044
13.7017,19.0761
13.6906,19.0558
13.6756,19.0016
13.6754,18.9986
13.6764,18.9773
13.7005,18.7942
13.7005,18.5058
13.6773,18.3298
13.6777,18.2945
13.6813,18.2716
13.7024,18.2194
13.7041,18.2170
13.7178,18.2006
20.5575,11.3609
20.5858,11.3398
20.6018,11.3310
20.6652,11.3159
20.6766,11.3163
20.7067,11.3210
20.7726,11.3399
20.7726,11.3399
20.7864,11.3411
20.8920,11.3505
22.0628,11.3505
22.0978,11.3555
22.1230,11.3629
22.1758,11.3942
33.2471,22.4656
33.2683,22.4939
33.2802,22.5156
33.2947,22.5825
33.2950,22.5825
33.2950,22.5828
33.2950,22.5828
33.2950,22.5829
33.2951,22.5829
33.2950,22.5839
33.2950,22.5839
33.2950,22.5842
33.2950,22.5843
33.2950,22.5843
33.2950,22.5844
33.2950,23.2250
33.9227,23.2250
33.9576,23.2300
33.9726,23.2344
34.0314,23.2722
34.0325,23.2735
34.0600,23.3284
34.0617,23.3360
34.0645,23.3623
34.0645,23.6273
34.0595,23.6622
34.0563,23.6731
34.0185,23.7319
33.9550,23.7609
33.8858,23.7510
33.8788,23.7478
33.8476,23.7261
33.8450,23.7250
33.8450,23.7250
33.2950,23.7250
33.2950,24.3657
33.2979,24.4025
33.2979,24.4025
33.2979,24.4025
33.3437,24.5602
33.3437,24.5602
33.3437,24.5602
33.4273,24.7015
33.4273,24.7016
33.4273,24.7016
33.5434,24.8177
33.5434,24.8177
33.6848,24.9013
33.7494,24.9200
33.7847,24.9426
33.8425,24.9471
33.8425,24.9471
33.8425,24.9471
33.8450,24.9473
33.8450,24.9473
33.8450,24.9473
33.8450,24.5869
33.8500,24.5520
33.8506,24.5498
33.8517,24.5461
33.8895,24.4873
33.9531,24.4583
34.0222,24.4682
34.0750,24.5140
34.0750,24.5140
34.0768,24.5166
34.0932,24.5553
34.1195,24.6672
34.1195,24.6672
34.1195,24.6672
34.1195,24.6672
34.2056,24.8622
34.2056,24.8622
34.3261,25.0381
34.3261,25.0381
34.4094,25.1215
34.4306,25.1498
34.4381,25.1635
34.4529,25.2317
34.4528,25.2335
34.4334,25.2917
34.4293,25.2983
34.4126,25.3189
29.4062,30.3253
29.4058,30.3259
29.4047,30.3274
29.3863,30.3527
29.3863,30.3527
29.2905,30.4846
29.2007,30.6609
29.2003,30.6623
29.1989,30.6669
29.1403,30.8472
29.1388,30.8568
29.1388,30.8568
29.1095,31.0416
29.1095,31.2477
29.1045,31.2826
29.1001,31.2976
29.0623,31.3564
29.0610,31.3575
29.0061,31.3850
28.9985,31.3867
28.9722,31.3895
28.1958,31.3895
28.0636,31.3999
28.0636,31.3999
28.0636,31.3999
27.8453,31.4549
27.8453,31.4549
27.6404,31.5480
27.6404,31.5480
27.6404,31.5480
27.6404,31.5480
27.4554,31.6762
27.4553,31.6762
27.4553,31.6762
27.4553,31.6762
27.2962,31.8353
27.2962,31.8353
27.2962,31.8353
27.2962,31.8354
27.1680,32.0204
27.1680,32.0204
27.1680,32.0204
27.0749,32.2253
27.0749,32.2253
27.0199,32.4436
27.0199,32.4436
27.0199,32.4436
27.0095,32.5758
27.0095,33.8042
27.0199,33.9364
27.0199,33.9364
27.0199,33.9364
27.0749,34.1547
27.0749,34.1547
27.1680,34.3596
27.1680,34.3596
27.1680,34.3596
27.1680,34.3596
27.2962,34.5446
27.2962,34.5447
27.2991,34.5480
27.2988,34.5482
27.2988,34.5482
27.2988,34.5482
27.2985,34.5485
27.3149,34.5705
27.3224,34.5842
27.3372,34.6525
27.3368,34.6586
27.3214,34.7102
27.3213,34.7103
27.3114,34.7253
27.3097,34.7275
27.3097,34.7276
27.1917,34.9319
27.1917,34.9321
27.1201,35.1049
27.1021,35.1353
27.0939,35.1454
27.0365,35.1853
26.9667,35.1878
26.9104,35.1560
26.9104,35.1560
26.9039,35.1496
26.8852,35.1263
26.8423,35.0567
26.7183,34.9327
26.7183,34.9327
26.5691,34.8406
26.5691,34.8406
26.5533,34.8354
26.4027,34.7855
26.4027,34.7855
26.3000,34.7750
26.3000,34.7750
26.2500,34.7750
26.2500,37.2250
26.3000,37.2250
26.3000,37.2250
26.3000,37.2250
26.4027,37.2145
26.5691,37.1594
26.5691,37.1594
26.7183,37.0673
26.8423,36.9433
26.9344,36.7941
26.9344,36.7941
26.9891,36.6289
26.9920,36.6211
27.0006,36.6000
27.0441,36.5454
27.1103,36.5230
27.1781,36.5399
27.1781,36.5399
27.1807,36.5414
27.2254,36.5864
27.3097,36.7324
27.3097,36.7325
27.4436,36.9069
27.4577,36.9302
27.4662,36.9486
27.4766,37.0177
27.4760,37.0221
27.4757,37.0238
27.4572,37.0739
27.4541,37.0786
27.4482,37.0871
27.3097,37.2675
27.3097,37.2675
27.1917,37.4719
27.1917,37.4719
27.1014,37.6900
27.0403,37.9180
27.0095,38.1520
27.0095,38.1520
27.0095,38.3880
27.0095,38.3880
27.0403,38.6220
27.1014,38.8500
27.1917,39.0680
27.1917,39.0681
27.2627,39.1910
27.2627,39.1910
27.3097,39.2724
27.3097,39.2724
27.3099,39.2728
27.3109,39.2740
27.4534,39.4597
27.4534,39.4597
27.4534,39.4597
27.4534,39.4597
27.4534,39.4597
27.6203,39.6266
27.6203,39.6266
27.6203,39.6266
27.8075,39.7703
27.8075,39.7703
27.8886,39.8171
27.8886,39.8171
27.9160,39.8329
28.0119,39.8883
28.0120,39.8883
28.1173,39.9319
28.2300,39.9786
28.3217,40.0032
28.3516,40.0156
28.3789,40.0313
28.4046,40.0510
28.5656,40.2120
28.6271,40.2735
28.6605,40.3348
28.6556,40.4045
28.6137,40.4604
28.6014,40.4686
28.5644,40.4899
28.5644,40.4899
28.4899,40.5644
28.4899,40.5644
28.4686,40.6014
28.4180,40.6496
28.3494,40.6628
28.2845,40.6368
28.2735,40.6271
27.7305,40.0841
27.7305,40.0841
27.7305,40.0841
27.6981,40.1286
27.6052,40.3110
27.5762,40.4005
27.5420,40.5056
27.5420,40.5056
27.5420,40.5056
27.5100,40.7077
27.5100,40.9123
27.5420,41.1144
27.5420,41.1144
27.6052,41.3090
27.6488,41.3945
27.6981,41.4914
27.6981,41.4914
27.7305,41.5359
27.7305,41.5359
27.7305,41.5359
27.7305,41.5359
28.2735,40.9929
28.3348,40.9595
28.4045,40.9644
28.4604,41.0063
28.4686,41.0186
28.4899,41.0556
28.5644,41.1301
28.5644,41.1301
28.5644,41.1301
28.6014,41.1514
28.6496,41.2020
28.6628,41.2706
28.6368,41.3355
28.6271,41.3465
28.0841,41.8895
28.0841,41.8895
28.0841,41.8895
28.1287,41.9219
28.2148,41.9657
28.3110,42.0148
28.3110,42.0148
28.3110,42.0148
28.5056,42.0780
28.7077,42.1100
28.9123,42.1100
28.9123,42.1100
29.1144,42.0780
29.3090,42.0148
29.4913,41.9219
29.5359,41.8895
28.9929,41.3465
28.9595,41.2852
28.9644,41.2155
29.0063,41.1595
29.0186,41.1514
29.0556,41.1301
29.1301,41.0556
29.1514,41.0186
29.2020,40.9704
29.2706,40.9572
29.3355,40.9832
29.3465,40.9929
29.8895,41.5359
29.9219,41.4913
29.9514,41.4334
29.9717,41.4046
29.9813,41.3945
30.0416,41.3592
30.1114,41.3622
30.1180,41.3645
30.1657,41.3942
31.7006,42.9290
31.7217,42.9573
31.7343,42.9804
31.7495,43.0398
31.7495,44.0628
31.7445,44.0978
31.7371,44.1230
31.7058,44.1758
28.1044,47.7771
28.0761,47.7983
28.0558,47.8094
28.0016,47.8244
27.9987,47.8246
27.9773,47.8236
27.7983,47.8000
27.7963,47.7997
27.7942,47.7995
27.7942,47.7995
27.7942,47.7995
27.5058,47.7995
27.5058,47.7995
27.5058,47.7995
27.5037,47.7997
27.5017,47.8000
27.2198,47.8371
27.2198,47.8372
27.2180,47.8376
27.2162,47.8381
26.9412,47.9118
26.9411,47.9118
26.6747,48.0222
26.6747,48.0222
26.6746,48.0222
26.4249,48.1664
26.4248,48.1664
26.4248,48.1664
26.1960,48.3420
26.1960,48.3420
26.1960,48.3420
25.9920,48.5460
25.9920,48.5460
25.9920,48.5460
25.9920,48.5460
25.8839,48.6868
25.8587,48.7115
25.8400,48.7251
25.7882,48.7471
25.7853,48.7477
25.7640,48.7495
24.8931,48.7495
24.8582,48.7445
24.8360,48.7380
24.7870,48.7103
24.7848,48.7082
24.7704,48.6925
24.6867,48.5835
24.6580,48.5460
24.6580,48.5460
24.6580,48.5460
24.6580,48.5460
24.4540,48.3420
24.4540,48.3420
24.4540,48.3420
24.4540,48.3420
24.2268,48.1677
24.2255,48.1666
24.2252,48.1664
23.9753,48.0222
23.9753,48.0222
23.9753,48.0222
23.7089,47.9118
23.7089,47.9118
23.7088,47.9118
23.4302,47.8372
23.4302,47.8372
23.4302,47.8372
23.4302,47.8372
23.4302,47.8371
23.4302,47.8371
23.1483,47.8000
23.1463,47.7997
23.1442,47.7995
23.1442,47.7995
23.1442,47.7995
22.8558,47.7995
22.8558,47.7995
22.8558,47.7995
22.8537,47.7997
22.8517,47.8000
22.5698,47.8371
22.5698,47.8372
22.5680,47.8376
22.5662,47.8381
22.2911,47.9118
22.2911,47.9118
22.0247,48.0222
22.0247,48.0222
22.0246,48.0222
21.7749,48.1664
21.7748,48.1664
21.7748,48.1664
21.5460,48.3420
21.5460,48.3420
21.5460,48.3420
21.3420,48.5460
21.3420,48.5460
21.3420,48.5460
21.1664,48.7748
21.1664,48.7748
21.1664,48.7749
21.0222,49.0246
21.0222,49.0247
21.0222,49.0247
20.9118,49.2911
20.9118,49.2911
20.9118,49.2911
20.9118,49.2912
20.9019,49.3281
20.8372,49.5698
20.8371,49.5698
20.8371,49.5698
20.7995,49.8558
20.7995,49.8558
20.7995,50.1442
20.7995,50.1442
20.8371,50.4302
20.8372,50.4302
20.8717,50.5591
20.9118,50.7088
20.9118,50.7089
21.0222,50.9753
21.0222,50.9753
21.0222,50.9754
21.1664,51.2251
21.1664,51.2252
21.2046,51.2749
21.3420,51.4540
21.3420,51.4540
21.3420,51.4540
21.3420,51.4540
21.5460,51.6580
21.5460,51.6580
21.5460,51.6580
21.5460,51.6580
21.6008,51.7000
21.7749,51.8336
21.7751,51.8337
21.8931,51.9018
22.0246,51.9778
22.0247,51.9778
22.1576,52.0329
22.2871,52.0865
22.2889,52.0873
22.2894,52.0875
22.2910,52.0881
22.2923,52.0885
22.2954,52.0894
22.2969,52.0897
22.3276,52.0980
22.5698,52.1628
22.8558,52.2005
22.8558,52.2005
23.1442,52.2005
23.1442,52.2005
23.4302,52.1628
23.7050,52.0892
23.7082,52.0885
23.7106,52.0875
23.7111,52.0873
23.7129,52.0865
23.9713,51.9795
23.9732,51.9788
23.9736,51.9786
23.9754,51.9778
23.9770,51.9769
23.9788,51.9758
24.2252,51.8336
24.4540,51.6580
24.6580,51.4540
24.7661,51.3132
24.7913,51.2885
24.8100,51.2749
24.8618,51.2528
24.8647,51.2523
24.8860,51.2505
25.7569,51.2505
25.7918,51.2555
25.8140,51.2620
25.8630,51.2898
25.8652,51.2918
25.8796,51.3075
25.9920,51.4540
25.9920,51.4540
25.9920,51.4540
25.9920,51.4540
26.1960,51.6580
26.1960,51.6580
26.1960,51.6580
26.1960,51.6580
26.2508,51.7000
26.4249,51.8336
26.4251,51.8337
26.5431,51.9018
26.6746,51.9778
26.6747,51.9778
26.8076,52.0329
26.9371,52.0865
26.9389,52.0873
26.9394,52.0875
26.9410,52.0881
26.9423,52.0885
26.9454,52.0894
26.9469,52.0897
26.9776,52.0980
27.2198,52.1628
27.5058,52.2005
27.5058,52.2005
27.7942,52.2005
27.7942,52.2005
28.0802,52.1628
28.3550,52.0892
28.3582,52.0885
28.3606,52.0875
28.3611,52.0873
28.3629,52.0865
28.6213,51.9795
28.6232,51.9788
28.6236,51.9786
28.6254,51.9778
28.6270,51.9769
28.6288,51.9758
28.8752,51.8336
29.1040,51.6580
29.3080,51.4540
29.4490,51.2702
29.4703,51.2425
29.4740,51.2376
29.4740,51.2376
29.4740,51.2376
29.4836,51.2252
29.6278,50.9753
29.6398,50.9465
29.6398,50.9465
29.6760,50.8591
29.7365,50.7129
29.7373,50.7111
29.7375,50.7106
29.7385,50.7082
29.7392,50.7050
29.8128,50.4302
29.8505,50.1442
29.8505,49.8886
38.6500,49.8886
38.6500,50.1114
38.6791,50.3323
38.6791,50.3324
38.6791,50.3324
38.7229,50.4960
38.7368,50.5476
38.7834,50.6602
38.8220,50.7535
38.8221,50.7535
38.9335,50.9465
38.9335,50.9465
38.9840,51.0124
38.9840,51.0124
38.9840,51.0124
39.6671,50.3294
39.7284,50.2959
39.7981,50.3009
39.8540,50.3427
39.8622,50.3550
39.8699,50.3684
39.9816,50.4801
39.9950,50.4878
40.0432,50.5384
40.0564,50.6070
40.0304,50.6719
40.0206,50.6829
39.3376,51.3660
39.3376,51.3660
39.4035,51.4165
39.4035,51.4165
39.5965,51.5279
39.5965,51.5280
39.8024,51.6132
39.9486,51.6524
40.0176,51.6709
40.0176,51.6709
40.0176,51.6709
40.0176,51.6709
40.2386,51.7000
40.4614,51.7000
40.4614,51.7000
40.6824,51.6709
40.6824,51.6709
40.8976,51.6132
41.1035,51.5280
41.1035,51.5279
41.2965,51.4165
41.3624,51.3660
41.3624,51.3660
41.3624,51.3660
41.3624,51.3660
40.6794,50.6829
40.6459,50.6216
40.6509,50.5519
40.6927,50.4960
40.7050,50.4878
40.7184,50.4801
40.8301,50.3684
40.8378,50.3550
40.8884,50.3068
40.9570,50.2936
41.0219,50.3196
41.0329,50.3294
41.7160,51.0124
41.7160,51.0124
41.7160,51.0124
41.7665,50.9465
41.8779,50.7535
41.8780,50.7535
41.9632,50.5476
42.0209,50.3324
42.0209,50.3324
42.0500,50.1114
42.0500,49.8886
42.0209,49.6676
42.0209,49.6676
42.0148,49.6450
41.9896,49.5506
41.9632,49.4524
41.8780,49.2465
41.8779,49.2465
41.7665,49.0535
41.7665,49.0535
41.7160,48.9876
41.7160,48.9876
41.7160,48.9876
41.7160,48.9876
41.0329,49.6706
40.9716,49.7041
40.9019,49.6991
40.8460,49.6573
40.8378,49.6450
40.8301,49.6316
40.8301,49.6316
40.7184,49.5199
40.7116,49.5159
40.7050,49.5122
40.6568,49.4616
40.6436,49.3930
40.6696,49.3281
40.6793,49.3171
41.3624,48.6340
41.3624,48.6340
41.2965,48.5835
41.2965,48.5835
41.1035,48.4721
41.1035,48.4720
41.0102,48.4334
40.8976,48.3868
40.8976,48.3868
40.6824,48.3291
40.6824,48.3291
40.6824,48.3291
40.6823,48.3291
40.6823,48.3291
40.4614,48.3000
40.4614,48.3000
40.2386,48.3000
40.2386,48.3000
40.0177,48.3291
40.0176,48.3291
40.0176,48.3291
39.8024,48.3868
39.8024,48.3868
39.8024,48.3868
39.8024,48.3868
39.5965,48.4720
39.5965,48.4721
39.4035,48.5835
39.3376,48.6340
39.3376,48.6340
40.0206,49.3171
40.0541,49.3784
40.0491,49.4481
40.0073,49.5040
39.9950,49.5122
39.9816,49.5199
39.9816,49.5199
39.8699,49.6316
39.8699,49.6316
39.8622,49.6450
39.8116,49.6932
39.7430,49.7064
39.6781,49.6804
39.6671,49.6706
38.9840,48.9876
38.9840,48.9876
38.9335,49.0535
38.8221,49.2465
38.8220,49.2465
38.7368,49.4524
38.7368,49.4524
38.6791,49.6676
38.6791,49.6676
38.6791,49.6677
38.6500,49.8886
29.8505,49.8886
29.8505,49.8558
29.8270,49.6773
29.8269,49.6760
29.8273,49.6736
29.8280,49.6409
29.8306,49.6264
29.8306,49.6264
29.8313,49.6216
29.8524,49.5694
29.8541,49.5670
29.8678,49.5506
33.9538,45.4646
34.0695,45.3054
34.1589,45.1300
34.2197,44.9428
34.2505,44.7484
34.2505,42.3616
34.2326,42.2485
34.2197,42.1672
34.2197,42.1672
34.2197,42.1672
34.1611,41.9869
34.1597,41.9823
34.1593,41.9808
34.0695,41.8046
33.9538,41.6454
30.6594,38.3510
30.6383,38.3227
30.6257,38.2996
30.6105,38.2402
30.6105,38.1520
30.6105,38.1520
30.5797,37.9180
30.5186,37.6900
30.4285,37.4724
30.4282,37.4717
30.4274,37.4703
30.4263,37.4685
30.4140,37.4472
30.3861,37.3989
30.3103,37.2675
30.3103,37.2675
30.2451,37.1827
30.2451,37.1827
30.2421,37.1787
30.1765,37.0932
30.1624,37.0699
30.1538,37.0514
30.1434,36.9823
30.1443,36.9763
30.1628,36.9262
30.1659,36.9213
30.1718,36.9129
30.1917,36.8870
30.2188,36.8516
30.3103,36.7325
30.4283,36.5280
30.5186,36.3100
30.5797,36.0820
30.6105,35.8480
30.6105,35.7672
30.6155,35.7322
30.6229,35.7070
30.6542,35.6542
30.9799,35.3286
31.3138,34.9946
31.4295,34.8354
31.5189,34.6600
31.5797,34.4728
31.6008,34.3399
31.6105,34.2784
31.6105,31.7272
31.6155,31.6922
31.6163,31.6897
31.6229,31.6670
31.6542,31.6142
33.0185,30.2500
36.7750,30.2500
36.7855,30.3527
36.7855,30.3527
36.8292,30.4846
36.8406,30.5191
36.8406,30.5191
36.9327,30.6683
37.0567,30.7923
37.2059,30.8844
37.2059,30.8844
37.3723,30.9395
37.3723,30.9395
37.3723,30.9395
37.3723,30.9395
37.4750,30.9500
37.7500,30.9500
38.2500,30.9500
38.5250,30.9500
38.5250,30.9500
38.5250,30.9500
38.6277,30.9395
38.7941,30.8844
38.7941,30.8844
38.9433,30.7923
39.0673,30.6683
39.1594,30.5191
39.1594,30.5191
39.2145,30.3527
39.2145,30.3527
39.2250,30.2500
39.2250,30.2500
39.2250,30.2000
38.2500,30.2000
38.2500,30.9500
37.7500,30.9500
37.7500,30.9500
37.7500,30.2000
36.7750,30.2000
36.7750,30.2500
33.0185,30.2500
33.2075,30.0610
34.5538,28.7147
36.2255,27.0430
36.2537,27.0218
36.2591,27.0189
36.3274,27.0040
36.3928,27.0285
36.4347,27.0844
36.4397,27.1541
36.4397,27.1541
36.4377,27.1633
36.4294,27.1882
36.3399,27.3853
36.3399,27.3853
36.2849,27.6036
36.2849,27.6036
36.2849,27.6036
36.2745,27.7358
36.2745,28.3642
36.2849,28.4964
36.2849,28.4964
36.2849,28.4964
36.3399,28.7147
36.3399,28.7147
36.4330,28.9196
36.4330,28.9196
36.4330,28.9196
36.4330,28.9196
36.5612,29.1046
36.5612,29.1046
36.5612,29.1046
36.5612,29.1047
36.6437,29.1871
36.7203,29.2638
36.7588,29.2905
36.7847,29.3145
36.7907,29.3220
36.7945,29.3266
36.8213,29.3912
36.8223,29.4006
36.8167,29.4530
36.7855,29.5473
36.7855,29.5473
36.7750,29.6500
36.7750,29.6500
36.7750,29.7000
39.2250,29.7000
39.2250,29.6500
39.2250,29.6500
39.2145,29.5473
39.2012,29.5071
39.1851,29.4585
39.1788,29.4237
39.1785,29.4146
39.1783,29.4081
39.1957,29.3404
39.2006,29.3322
39.2365,29.2937
39.2797,29.2638
39.4388,29.1047
39.5670,28.9196
39.6601,28.7147
39.6601,28.7147
39.6601,28.7147
39.7151,28.4964
39.7151,28.4964
39.7151,28.4964
39.7255,28.3642
39.7255,27.7358
39.7151,27.6036
39.6601,27.3853
39.5670,27.1804
39.5635,27.1753
39.4718,27.0430
39.4631,27.0304
39.4438,27.0026
39.4429,27.0010
39.4395,26.9963
39.4389,26.9954
39.2994,26.8560
39.2783,26.8277
39.2657,26.8046
39.2505,26.7452
39.2505,22.4896
39.2487,22.4782
39.2197,22.2952
39.1589,22.1080
39.0695,21.9326
38.9538,21.7734
38.8146,21.6342
38.5345,21.3541
38.5010,21.2927
38.5060,21.2230
38.5478,21.1671
38.6046,21.1436
39.5333,21.0110
39.5779,21.0035
39.7730,20.9457
39.8292,20.9226
39.8707,20.9045
40.0456,20.8006
40.0519,20.7959
40.1167,20.7436
40.2553,20.5947
40.2975,20.5390
40.3450,20.4705
40.4360,20.2886
40.4415,20.2740
40.4827,20.1365
40.4903,20.1021
40.5115,19.9602
41.4911,7.2263
41.4928,7.0994
41.4912,7.0682
41.4770,6.9421
41.4750,6.9307
41.4611,6.8654
41.3926,6.6738
41.3642,6.6143
41.2897,6.4841
41.1593,6.3279
41.0002,6.2012
41.0001,6.2012
40.9414,6.1634
40.8695,6.1213
40.6810,6.0445
40.6810,6.0445
40.6665,6.0403
40.6665,6.0402
40.6665,6.0402
40.6664,6.0402
40.5263,6.0098
40.5248,6.0095
40.4914,6.0047
40.3483,5.9945
40.3483,5.9945
36.1418,5.9945
36.0930,5.9957
36.0930,5.9957
35.8919,6.0260
35.8919,6.0261
35.8322,6.0414
35.8322,6.0414
35.8322,6.0414
35.7328,6.0740
35.7067,6.0825
35.5895,6.1441
35.5210,6.1579
35.4612,6.1363
35.4571,6.1334
35.4570,6.1334
35.4351,6.1213
35.3959,6.0997
35.3213,6.0625
35.3213,6.0625
35.1282,5.9985
35.1282,5.9984
30.8998,5.0588
30.8998,5.0588
30.7744,5.0392
30.7744,5.0392
30.7541,5.0373
30.7433,5.0363
30.7432,5.0363
30.7432,5.0363
30.7368,5.0357
30.7368,5.0357
30.7303,5.0358
30.5334,5.0388
30.5334,5.0388
30.3348,5.0829
30.2684,5.1048
30.1152,5.1701
30.1152,5.1701
29.9457,5.2827
29.9457,5.2827
29.8025,5.4271
29.7585,5.4814
29.7585,5.4814
29.7162,5.5436
29.6649,5.6192
29.5832,5.8055
29.5408,6.0045
29.5332,6.0740
29.5276,6.1571
29.5276,6.1571
29.5405,6.3279
29.5429,6.3600
31.4005,16.7628
31.3929,16.8323
31.3490,16.8866
31.2827,16.9085
31.2150,16.8911
31.1908,16.8723
23.9494,9.6310
23.9283,9.6027
23.9157,9.5796
23.9005,9.5202
23.9005,8.3420
23.9005,8.3420
23.8899,8.2226
23.8354,8.0322
23.8345,8.0292
23.8339,8.0268
23.8325,8.0242
23.7397,7.8466
23.6132,7.6914
23.6132,7.6914
23.6132,7.6914
23.6111,7.6889
23.4959,7.5950
23.4534,7.5603
23.2770,7.4682
23.2738,7.4664
23.2730,7.4661
23.1420,7.4286
23.1420,7.4286
23.0800,7.4108
23.0778,7.4102
23.0753,7.4098
23.0719,7.4096
23.0626,7.4088
23.0111,7.4042
23.0111,7.4042
22.9580,7.3995
22.9580,7.3995
22.9580,7.3995
20.8920,7.3995
20.8920,7.3995
20.8799,7.3995
20.8730,7.4012
20.7726,7.4101
20.5770,7.4661
20.4868,7.5132
20.4868,7.5132
20.3976,7.5598
20.3966,7.5603
20.3942,7.5620
20.3917,7.5643
20.2389,7.6889
20.1103,7.8466
20.0161,8.0270
19.9608,8.2200
19.9602,8.2220
19.9601,8.2226
19.9495,8.3420
19.9495,8.3628
19.9445,8.3978
19.9371,8.4230
19.9058,8.4758
18.5902,9.7914
18.5619,9.8125
18.5520,9.8179
18.4837,9.8328
18.4183,9.8084
18.3764,9.7524
18.3753,9.7495
18.3690,9.6868
18.4000,9.4911
18.4000,9.2589
18.3637,9.0296
18.2919,8.8088
18.1865,8.6019
18.1298,8.5238
18.1298,8.5238
18.1298,8.5238
17.6421,9.0115
17.5808,9.0450
17.5111,9.0400
17.4551,8.9981
17.4513,8.9927
17.4299,8.9606
17.4299,8.9606
17.4299,8.9606
17.3394,8.8701
17.3394,8.8701
17.3394,8.8701
17.3073,8.8487
17.2625,8.7951
17.2538,8.7258
17.2840,8.6627
17.2885,8.6579
17.7762,8.1702
17.6981,8.1135
17.4912,8.0081
17.2704,7.9363
17.2704,7.9363
17.2704,7.9363
17.0942,7.9084
17.0411,7.9000
17.0411,7.9000
16.8089,7.9000
16.5796,7.9363
16.3588,8.0081
16.1519,8.1135
16.1519,8.1135
16.0738,8.1702
16.0738,8.1702
16.5615,8.6579
16.5950,8.7192
16.5900,8.7889
16.5481,8.8449
16.5427,8.8487
16.5106,8.8701
16.5106,8.8701
16.4201,8.9606
16.4201,8.9606
16.3987,8.9927
16.3451,9.0375
16.2758,9.0462
16.2127,9.0160
16.2079,9.0115
15.7202,8.5238
15.7202,8.5238
15.6635,8.6019
15.6635,8.6019
15.5581,8.8088
15.4863,9.0296
15.4500,9.2589
15.4500,9.4911
15.4826,9.6969
15.4863,9.7204
15.5581,9.9412
15.6635,10.1481
15.7202,10.2262
16.2079,9.7385
16.2692,9.7050
16.3389,9.7100
16.3949,9.7519
16.3987,9.7573
16.4201,9.7894
16.4201,9.7894
16.4201,9.7894
16.5106,9.8799
16.5106,9.8799
16.5106,9.8799
16.5427,9.9013
16.5875,9.9549
16.5962,10.0242
16.5660,10.0873
16.5615,10.0921
16.0738,10.5798
16.0738,10.5798
16.0738,10.5798
16.1519,10.6365
16.3588,10.7419
16.5796,10.8137
16.8089,10.8500
17.0411,10.8500
17.0411,10.8500
17.2293,10.8202
17.2646,10.8197
17.2758,10.8211
17.3397,10.8492
17.3784,10.9075
17.3794,10.9773
17.3785,10.9803
17.3467,11.0348
11.9544,16.4271
11.9261,16.4483
11.9058,16.4594
11.8516,16.4744
11.8487,16.4746
11.8273,16.4736
11.6483,16.4500
11.6463,16.4497
11.6442,16.4495
11.6442,16.4495
11.6442,16.4495
11.3558,16.4495
11.3558,16.4495
11.3558,16.4495
11.3537,16.4497
11.3517,16.4500
11.0698,16.4871
11.0698,16.4871
11.0680,16.4876
11.0662,16.4881
10.8371,16.5495
10.8371,16.5495
10.7912,16.5618
10.7911,16.5618
10.5247,16.6722
10.5247,16.6722
10.5246,16.6722
10.2749,16.8164
10.2748,16.8164
10.2748,16.8164
10.0460,16.9920
10.0460,16.9920
10.0460,16.9920
9.8420,17.1960
9.8420,17.1960
9.8420,17.1960
9.6664,17.4248
9.6664,17.4248
9.6664,17.4249
9.5222,17.6746
9.5222,17.6747
9.5222,17.6747
9.4118,17.9411
9.4118,17.9411
9.4118,17.9411
9.4118,17.9412
9.3845,18.0431
9.3372,18.2198
9.3371,18.2198
9.3371,18.2198
9.2995,18.5058
9.2995,18.5058
9.2995,18.7942
9.2995,18.7942
9.3371,19.0802
9.3371,19.0802
9.3371,19.0802
9.3372,19.0802
9.4118,19.3588
9.4118,19.3589
9.4118,19.3589
9.4118,19.3589
9.5222,19.6253
9.5222,19.6253
9.5222,19.6254
9.6664,19.8751
9.6664,19.8752
9.6664,19.8752
9.8420,20.1040
9.8420,20.1040
9.8420,20.1040
9.8420,20.1040
10.0460,20.3080
10.0460,20.3080
10.0460,20.3080
10.0460,20.3080
10.1868,20.4160
10.2115,20.4413
10.2251,20.4600
10.2471,20.5118
10.2477,20.5147
10.2495,20.5360
10.2495,25.5628
10.2445,25.5978
10.2371,25.6230
10.2058,25.6758
6.4544,29.4271
6.4261,29.4483
6.4058,29.4594
6.3516,29.4744
6.3487,29.4746
6.3273,29.4736
6.1483,29.4500
6.1463,29.4497
6.1442,29.4495
6.1442,29.4495
6.1442,29.4495
5.8558,29.4495
5.8558,29.4495
5.8558,29.4495
5.8537,29.4497
5.8517,29.4500
5.5698,29.4871
5.5698,29.4871
5.5680,29.4876
5.5662,29.4881
5.2912,29.5618
5.2911,29.5618
5.0247,29.6722
5.0247,29.6722
5.0246,29.6722
4.7749,29.8164
4.7748,29.8164
4.7748,29.8164
4.5460,29.9920
4.5460,29.9920
4.5460,29.9920
4.3420,30.1960
4.3420,30.1960
4.3420,30.1960
4.1664,30.4248
4.1664,30.4248
4.1664,30.4249
4.0222,30.6746
4.0222,30.6747
4.0222,30.6747
3.9118,30.9411
3.9118,30.9412
3.8849,31.0416
3.8371,31.2198
3.8371,31.2198
3.7995,31.5058
3.7995,31.5058
3.7995,31.7942
3.7995,31.7942
3.8227,31.9702
3.8223,32.0055
3.8187,32.0284
3.7976,32.0806
3.7959,32.0830
3.7822,32.0994
3.0962,32.7853
3.0958,32.7859
3.0947,32.7874
3.0579,32.8380
3.0579,32.8380
2.9805,32.9446
2.9805,32.9446
2.8911,33.1200
2.8674,33.1929
2.8674,33.1929
2.8303,33.3072
2.8303,33.3072
2.7995,33.5016
0.5005,33.5016
0.5005,0.6423
0.5055,0.6074
0.5099,0.5924
0.5477,0.5336
0.5490,0.5325
0.6039,0.5050
0.6115,0.5033
0.6378,0.5005
46.8577,0.5005
Z" /> 
<path style="fill:#4D7FC4; fill-opacity:1.0000; stroke:none;fill-rule:evenodd;"
d="M 14.6750,37.6000
14.6750,39.4000
12.8750,39.4000
12.8750,37.6000
Z" /> 
</g>
<g style="fill:#4D7FC4; fill-opacity:1.0000; stroke:none;">
<circle cx="11.2350" cy="38.5000" r="0.9000" /> 
<path style="fill:#4D7FC4; fill-opacity:1.0000; stroke:none;fill-rule:evenodd;"
d="M 22.9000,8.4000
22.9000,10.3500
20.9500,10.3500
20.9500,8.4000
Z" /> 
<circle cx="16.9250" cy="9.3750" r="0.9750" /> 
<path style="fill:#4D7FC4; fill-opacity:1.0000; stroke:none;fill-rule:evenodd;"
d="M 29.6100,33.7400
29.5910,33.8357
29.5368,33.9168
29.4557,33.9710
29.3600,33.9900
28.2600,33.9900
28.1643,33.9710
28.0832,33.9168
28.0290,33.8357
28.0100,33.7400
28.0100,32.6400
28.0290,32.5443
28.0832,32.4632
28.1643,32.4090
28.2600,32.3900
29.3600,32.3900
29.4557,32.4090
29.5368,32.4632
29.5910,32.5443
29.6100,32.6400
Z" /> 
<circle cx="28.8100" cy="35.7300" r="0.8000" /> 
<circle cx="28.8100" cy="38.2700" r="0.8000" /> 
<circle cx="28.8100" cy="40.8100" r="0.8000" /> 
<circle cx="21.1900" cy="40.8100" r="0.8000" /> 
<circle cx="21.1900" cy="38.2700" r="0.8000" /> 
<circle cx="21.1900" cy="35.7300" r="0.8000" /> 
<circle cx="21.1900" cy="33.1900" r="0.8000" /> 
<circle cx="11.5000" cy="31.3500" r="1.2000" /> 
<circle cx="11.5000" cy="18.6500" r="1.2000" /> 
<circle cx="6.0000" cy="44.3500" r="1.2000" /> 
<circle cx="6.0000" cy="31.6500" r="1.2000" /> 
<circle cx="10.3000" cy="50.0000" r="1.2000" /> 
<circle cx="23.0000" cy="50.0000" r="1.2000" /> 
<path style="fill:#4D7FC4; fill-opacity:1.0000; stroke:none;fill-rule:evenodd;"
d="M 38.9750,8.3625
38.9750,10.3125
37.0250,10.3125
37.0250,8.3625
Z" /> 
<circle cx="33.0000" cy="9.3375" r="0.9750" /> 
<circle cx="27.6500" cy="50.0000" r="1.2000" /> 
<circle cx="40.3500" cy="50.0000" r="1.2000" /> 
</g>
<g style="fill:#FFFFFF; fill-opacity:1.0000; stroke:none;">
<circle cx="13.7750" cy="38.5000" r="0.4500" /> 
</g>
<g style="fill:#FFFFFF; fill-opacity:1.0000; stroke:none;">
<circle cx="11.2350" cy="38.5000" r="0.4500" /> 
</g>
<g style="fill:#FFFFFF; fill-opacity:1.0000; stroke:none;">
<circle cx="21.9250" cy="9.3750" r="0.6500" /> 
</g>
<g style="fill:#FFFFFF; fill-opacity:1.0000; stroke:none;">
<circle cx="16.9250" cy="9.3750" r="0.6500" /> 
</g>
<g style="fill:#FFFFFF; fill-opacity:1.0000; stroke:none;">
<circle cx="28.8100" cy="33.1900" r="0.4000" /> 
</g>
<g style="fill:#FFFFFF; fill-opacity:1.0000; stroke:none;">
<circle cx="28.8100" cy="35.7300" r="0.4000" /> 
</g>
<g style="fill:#FFFFFF; fill-opacity:1.0000; stroke:none;">
<circle cx="28.8100" cy="38.2700" r="0.4000" /> 
</g>
<g style="fill:#FFFFFF; fill-opacity:1.0000; stroke:none;">
<circle cx="28.8100" cy="40.8100" r="0.4000" /> 
</g>
<g style="fill:#FFFFFF; fill-opacity:1.0000; stroke:none;">
<circle cx="21.1900" cy="40.8100" r="0.4000" /> 
</g>
<g style="fill:#FFFFFF; fill-opacity:1.0000; stroke:none;">
<circle cx="21.1900" cy="38.2700" r="0.4000" /> 
</g>
<g style="fill:#FFFFFF; fill-opacity:1.0000; stroke:none;">
<circle cx="21.1900" cy="35.7300" r="0.4000" /> 
</g>
<g style="fill:#FFFFFF; fill-opacity:1.0000; stroke:none;">
<circle cx="21.1900" cy="33.1900" r="0.4000" /> 
</g>
<g style="fill:#FFFFFF; fill-opacity:1.0000; stroke:none;">
<circle cx="11.5000" cy="31.3500" r="0.6000" /> 
</g>
<g style="fill:#FFFFFF; fill-opacity:1.0000; stroke:none;">
<circle cx="11.5000" cy="18.6500" r="0.6000" /> 
</g>
<g style="fill:#FFFFFF; fill-opacity:1.0000; stroke:none;">
<circle cx="6.0000" cy="44.3500" r="0.6000" /> 
</g>
<g style="fill:#FFFFFF; fill-opacity:1.0000; stroke:none;">
<circle cx="6.0000" cy="31.6500" r="0.6000" /> 
</g>
<g style="fill:#FFFFFF; fill-opacity:1.0000; stroke:none;">
<circle cx="10.3000" cy="50.0000" r="0.6000" /> 
</g>
<g style="fill:#FFFFFF; fill-opacity:1.0000; stroke:none;">
<circle cx="23.0000" cy="50.0000" r="0.6000" /> 
</g>
<g style="fill:#FFFFFF; fill-opacity:1.0000; stroke:none;">
<circle cx="38.0000" cy="9.3375" r="0.6500" /> 
</g>
<g style="fill:#FFFFFF; fill-opacity:1.0000; stroke:none;">
<circle cx="33.0000" cy="9.3375" r="0.6500" /> 
</g>
<g style="fill:#FFFFFF; fill-opacity:1.0000; stroke:none;">
<circle cx="27.6500" cy="50.0000" r="0.6000" /> 
</g>
<g style="fill:#FFFFFF; fill-opacity:1.0000; stroke:none;">
<circle cx="40.3500" cy="50.0000" r="0.6000" /> 
</g> 
</svg>
