%TF.GenerationSoftware,KiCad,Pcbnew,10.0.6*%
%TF.CreationDate,2026-09-12T11:32:48-04:00*%
%TF.ProjectId,BRConboarding,4252436f-6e62-46f6-9172-64696e672e6b,rev?*%
%TF.SameCoordinates,Original*%
%TF.FileFunction,Copper,L1,Top*%
%TF.FilePolarity,Positive*%
%FSLAX46Y46*%
G04 Gerber Fmt 4.6, Leading zero omitted, Abs format (unit mm)*
G04 Created by KiCad (PCBNEW 10.0.6) date 2026-09-12 11:32:48*
%MOMM*%
%LPD*%
G01*
G04 APERTURE LIST*
G04 Aperture macros list*
%AMRoundRect*
0 Rectangle with rounded corners*
0 $1 Rounding radius*
0 $2 $3 $4 $5 $6 $7 $8 $9 X,Y pos of 4 corners*
0 Add a 4 corners polygon primitive as box body*
4,1,4,$2,$3,$4,$5,$6,$7,$8,$9,$2,$3,0*
0 Add four circle primitives for the rounded corners*
1,1,$1+$1,$2,$3*
1,1,$1+$1,$4,$5*
1,1,$1+$1,$6,$7*
1,1,$1+$1,$8,$9*
0 Add four rect primitives between the rounded corners*
20,1,$1+$1,$2,$3,$4,$5,0*
20,1,$1+$1,$4,$5,$6,$7,0*
20,1,$1+$1,$6,$7,$8,$9,0*
20,1,$1+$1,$8,$9,$2,$3,0*%
G04 Aperture macros list end*
%TA.AperFunction,ComponentPad*%
%ADD10C,2.400000*%
%TD*%
%TA.AperFunction,SMDPad,CuDef*%
%ADD11RoundRect,0.250000X0.475000X-0.250000X0.475000X0.250000X-0.475000X0.250000X-0.475000X-0.250000X0*%
%TD*%
%TA.AperFunction,SMDPad,CuDef*%
%ADD12RoundRect,0.150000X-0.150000X0.825000X-0.150000X-0.825000X0.150000X-0.825000X0.150000X0.825000X0*%
%TD*%
%TA.AperFunction,SMDPad,CuDef*%
%ADD13RoundRect,0.250000X-0.250000X-0.475000X0.250000X-0.475000X0.250000X0.475000X-0.250000X0.475000X0*%
%TD*%
%TA.AperFunction,ComponentPad*%
%ADD14RoundRect,0.250000X0.550000X0.550000X-0.550000X0.550000X-0.550000X-0.550000X0.550000X-0.550000X0*%
%TD*%
%TA.AperFunction,ComponentPad*%
%ADD15C,1.600000*%
%TD*%
%TA.AperFunction,ComponentPad*%
%ADD16R,1.950000X1.950000*%
%TD*%
%TA.AperFunction,ComponentPad*%
%ADD17C,1.950000*%
%TD*%
%TA.AperFunction,ComponentPad*%
%ADD18R,1.800000X1.800000*%
%TD*%
%TA.AperFunction,ComponentPad*%
%ADD19C,1.800000*%
%TD*%
%TA.AperFunction,Conductor*%
%ADD20C,0.500000*%
%TD*%
G04 APERTURE END LIST*
D10*
%TO.P,R2,1*%
%TO.N,Net-(U2-VIN+)*%
X119310000Y-115310000D03*
%TO.P,R2,2*%
%TO.N,GND*%
X106610000Y-115310000D03*
%TD*%
%TO.P,R4,1*%
%TO.N,Net-(D1-K)*%
X84500000Y-103850000D03*
%TO.P,R4,2*%
%TO.N,+3V3*%
X84500000Y-91150000D03*
%TD*%
%TO.P,R1,1*%
%TO.N,+3V3*%
X101200000Y-115500000D03*
%TO.P,R1,2*%
%TO.N,Net-(U2-VIN+)*%
X88500000Y-115500000D03*
%TD*%
%TO.P,R3,1*%
%TO.N,Net-(D1-A)*%
X89500000Y-84000000D03*
%TO.P,R3,2*%
%TO.N,+3V3*%
X89500000Y-96700000D03*
%TD*%
D11*
%TO.P,C2,1*%
%TO.N,+3V3*%
X113000000Y-93450000D03*
%TO.P,C2,2*%
%TO.N,GND*%
X113000000Y-91550000D03*
%TD*%
D12*
%TO.P,U1,1,IP+_1*%
%TO.N,Current+*%
X115405000Y-83525000D03*
%TO.P,U1,2,IP+_2*%
X114135000Y-83525000D03*
%TO.P,U1,3,IP-_3*%
%TO.N,Current-*%
X112865000Y-83525000D03*
%TO.P,U1,4,IP-_4*%
X111595000Y-83525000D03*
%TO.P,U1,5,GND_5*%
%TO.N,GND*%
X111595000Y-88475000D03*
%TO.P,U1,6,~{FAULT}_6*%
%TO.N,unconnected-(U1-~{FAULT}-Pad6)*%
X112865000Y-88475000D03*
%TO.P,U1,7,VIOUT_7*%
%TO.N,Net-(U1-VIOUT)*%
X114135000Y-88475000D03*
%TO.P,U1,8,VCC_8*%
%TO.N,+3V3*%
X115405000Y-88475000D03*
%TD*%
D13*
%TO.P,C1,1*%
%TO.N,+3V3*%
X105550000Y-90500000D03*
%TO.P,C1,2*%
%TO.N,GND*%
X107450000Y-90500000D03*
%TD*%
D14*
%TO.P,U2,1,NC_1*%
%TO.N,unconnected-(U2-NC-Pad1)*%
X118000000Y-101500000D03*
D15*
%TO.P,U2,2,VIN-_2*%
%TO.N,Net-(U1-VIOUT)*%
X118000000Y-104040000D03*
%TO.P,U2,3,VIN+_3*%
%TO.N,Net-(U2-VIN+)*%
X118000000Y-106580000D03*
%TO.P,U2,4,VSS_4*%
%TO.N,GND*%
X118000000Y-109120000D03*
%TO.P,U2,5,NC_5*%
%TO.N,unconnected-(U2-NC-Pad5)*%
X110380000Y-109120000D03*
%TO.P,U2,6,OUT_6*%
%TO.N,Net-(D1-K)*%
X110380000Y-106580000D03*
%TO.P,U2,7,VDD_7*%
%TO.N,+3V3*%
X110380000Y-104040000D03*
%TO.P,U2,8,NC_8*%
%TO.N,unconnected-(U2-NC-Pad8)*%
X110380000Y-101500000D03*
%TD*%
D16*
%TO.P,J1,1,Pin_1_1*%
%TO.N,+3V3*%
X96500000Y-77000000D03*
D17*
%TO.P,J1,2,Pin_2_2*%
%TO.N,GND*%
X101500000Y-77000000D03*
%TD*%
D16*
%TO.P,J2,1,Pin_1_1*%
%TO.N,Current+*%
X115500000Y-77337500D03*
D17*
%TO.P,J2,2,Pin_2_2*%
%TO.N,Current-*%
X110500000Y-77337500D03*
%TD*%
D18*
%TO.P,D1,1,K_1*%
%TO.N,Net-(D1-K)*%
X100275000Y-107500000D03*
D19*
%TO.P,D1,2,A_2*%
%TO.N,Net-(D1-A)*%
X97735000Y-107500000D03*
%TD*%
%TO.N,+3V3*%
D20*
X93742283Y-77000000D02*
X96500000Y-77000000D01*
X84500000Y-86242283D02*
X93742283Y-77000000D01*
X84500000Y-91150000D02*
X84500000Y-86242283D01*
%TO.N,Net-(U2-VIN+)*%
X104000000Y-114114214D02*
X106444214Y-111670000D01*
X112910000Y-111670000D02*
X118000000Y-106580000D01*
X104000000Y-117450000D02*
X104000000Y-114114214D01*
X104000000Y-117450000D02*
X117170000Y-117450000D01*
X106444214Y-111670000D02*
X112910000Y-111670000D01*
%TO.N,GND*%
X98000000Y-73500000D02*
X101500000Y-77000000D01*
X88692283Y-118450000D02*
X81000000Y-110757717D01*
X120570000Y-118450000D02*
X88692283Y-118450000D01*
X92500000Y-73500000D02*
X98000000Y-73500000D01*
X121260000Y-117760000D02*
X120570000Y-118450000D01*
X81000000Y-85000000D02*
X92500000Y-73500000D01*
X121260000Y-112380000D02*
X121260000Y-117760000D01*
X81000000Y-110757717D02*
X81000000Y-85000000D01*
X118000000Y-109120000D02*
X121260000Y-112380000D01*
X111810000Y-115310000D02*
X118000000Y-109120000D01*
X106610000Y-115310000D02*
X111810000Y-115310000D01*
%TO.N,Net-(U2-VIN+)*%
X117170000Y-117450000D02*
X119310000Y-115310000D01*
X90450000Y-117450000D02*
X104000000Y-117450000D01*
X88500000Y-115500000D02*
X90450000Y-117450000D01*
%TO.N,+3V3*%
X111930000Y-105590000D02*
X110380000Y-104040000D01*
X106030000Y-110670000D02*
X111022032Y-110670000D01*
X101200000Y-115500000D02*
X106030000Y-110670000D01*
X111022032Y-110670000D02*
X111930000Y-109762032D01*
X111930000Y-109762032D02*
X111930000Y-105590000D01*
X107365000Y-104040000D02*
X110380000Y-104040000D01*
X101050000Y-97725000D02*
X107365000Y-104040000D01*
X101050000Y-97000000D02*
X101050000Y-97725000D01*
X96500000Y-81450000D02*
X105550000Y-90500000D01*
X96500000Y-77000000D02*
X96500000Y-81450000D01*
X84500000Y-91150000D02*
X89500000Y-96150000D01*
X89500000Y-96150000D02*
X89500000Y-96700000D01*
%TO.N,Net-(D1-A)*%
X97735000Y-92235000D02*
X97735000Y-107500000D01*
X89500000Y-84000000D02*
X97735000Y-92235000D01*
%TO.N,Net-(D1-K)*%
X98625000Y-109150000D02*
X100275000Y-107500000D01*
X87610000Y-109150000D02*
X98625000Y-109150000D01*
X84500000Y-106040000D02*
X87610000Y-109150000D01*
X84500000Y-103850000D02*
X84500000Y-106040000D01*
%TO.N,+3V3*%
X105550000Y-91450000D02*
X103550000Y-93450000D01*
X105550000Y-90500000D02*
X105550000Y-91450000D01*
%TO.N,GND*%
X111240000Y-90500000D02*
X111595000Y-90145000D01*
X107450000Y-90500000D02*
X111240000Y-90500000D01*
X101500000Y-78380000D02*
X111595000Y-88475000D01*
X101500000Y-77000000D02*
X101500000Y-78380000D01*
%TO.N,+3V3*%
X101050000Y-95950000D02*
X101050000Y-97000000D01*
X103550000Y-93450000D02*
X101050000Y-95950000D01*
X113000000Y-93450000D02*
X103550000Y-93450000D01*
%TO.N,GND*%
X111595000Y-90145000D02*
X113000000Y-91550000D01*
X111595000Y-88475000D02*
X111595000Y-90145000D01*
%TO.N,+3V3*%
X113725000Y-93450000D02*
X113000000Y-93450000D01*
X115405000Y-91770000D02*
X113725000Y-93450000D01*
X115405000Y-88475000D02*
X115405000Y-91770000D01*
%TO.N,Net-(D1-K)*%
X109460000Y-107500000D02*
X110380000Y-106580000D01*
X100275000Y-107500000D02*
X109460000Y-107500000D01*
%TO.N,Net-(U1-VIOUT)*%
X122296142Y-86750000D02*
X114878052Y-86750000D01*
X114878052Y-86750000D02*
X114135000Y-87493052D01*
X124425000Y-88878858D02*
X122296142Y-86750000D01*
X114135000Y-87493052D02*
X114135000Y-88475000D01*
X124425000Y-97615000D02*
X124425000Y-88878858D01*
X118000000Y-104040000D02*
X124425000Y-97615000D01*
%TO.N,Net-(D1-A)*%
X97735000Y-107500000D02*
X97000000Y-107500000D01*
%TO.N,Net-(D1-K)*%
X100450000Y-107500000D02*
X100275000Y-107500000D01*
X100500000Y-107550000D02*
X100450000Y-107500000D01*
X100500000Y-108000000D02*
X100500000Y-107550000D01*
%TO.N,+3V3*%
X101050000Y-95850000D02*
X101050000Y-97000000D01*
%TO.N,Net-(D1-K)*%
X85500000Y-104500000D02*
X83950000Y-102950000D01*
%TD*%
%TA.AperFunction,Conductor*%
%TO.N,Current+*%
G36*
X119497163Y-72110960D02*
G01*
X119500000Y-72137331D01*
X119500000Y-84858170D01*
X119494975Y-84893114D01*
X119490570Y-84908112D01*
X119452827Y-84966855D01*
X119451458Y-84968042D01*
X119396597Y-84995518D01*
X119389039Y-84997163D01*
X119362668Y-85000000D01*
X119000000Y-85000000D01*
X119495946Y-72105372D01*
X119497163Y-72110960D01*
G37*
%TD.AperFunction*%
%TD*%
%TA.AperFunction,Conductor*%
%TO.N,GND*%
G36*
X130892606Y-70505523D02*
G01*
X130907604Y-70509927D01*
X130966355Y-70547672D01*
X130967542Y-70549041D01*
X130995018Y-70603902D01*
X130996663Y-70611460D01*
X130999500Y-70637831D01*
X130999500Y-126357670D01*
X130994475Y-126392614D01*
X130990070Y-126407612D01*
X130952327Y-126466355D01*
X130950958Y-126467542D01*
X130896097Y-126495018D01*
X130888539Y-126496663D01*
X130862168Y-126499500D01*
X75642330Y-126499500D01*
X75607389Y-126494475D01*
X75592390Y-126490070D01*
X75533644Y-126452327D01*
X75532457Y-126450958D01*
X75504977Y-126396083D01*
X75503332Y-126388521D01*
X75500500Y-126362168D01*
X75500500Y-91005783D01*
X82299500Y-91005783D01*
X82299500Y-91294215D01*
X82299501Y-91294244D01*
X82337148Y-91580201D01*
X82337149Y-91580206D01*
X82337150Y-91580211D01*
X82337151Y-91580217D01*
X82411809Y-91858844D01*
X82411814Y-91858860D01*
X82411816Y-91858865D01*
X82411817Y-91858868D01*
X82522193Y-92125342D01*
X82522195Y-92125345D01*
X82522199Y-92125352D01*
X82666420Y-92375148D01*
X82666431Y-92375164D01*
X82714724Y-92438101D01*
X82842017Y-92603994D01*
X82842021Y-92603999D01*
X82842024Y-92604002D01*
X82842030Y-92604009D01*
X82842038Y-92604017D01*
X83045976Y-92807956D01*
X83045992Y-92807971D01*
X83046000Y-92807977D01*
X83274851Y-92983580D01*
X83275077Y-92983710D01*
X83393069Y-93051833D01*
X83524647Y-93127800D01*
X83524663Y-93127808D01*
X83657572Y-93182860D01*
X83787097Y-93236511D01*
X83788915Y-93237341D01*
X83789400Y-93237525D01*
X83790970Y-93238148D01*
X83792254Y-93238504D01*
X83795412Y-93239408D01*
X83796913Y-93239734D01*
X83827606Y-93247958D01*
X84069783Y-93312849D01*
X84355772Y-93350500D01*
X84355779Y-93350500D01*
X84644228Y-93350500D01*
X84644229Y-93350500D01*
X84756154Y-93335764D01*
X84820244Y-93327326D01*
X84855535Y-93327746D01*
X84878383Y-93331309D01*
X84930595Y-93352390D01*
X84933003Y-93354083D01*
X84949366Y-93367840D01*
X87387732Y-95806206D01*
X87408884Y-95834462D01*
X87416376Y-95848183D01*
X87431227Y-95916452D01*
X87430256Y-95930032D01*
X87421134Y-95968639D01*
X87411815Y-95991137D01*
X87411814Y-95991137D01*
X87411814Y-95991139D01*
X87411809Y-95991155D01*
X87384483Y-96093133D01*
X87337153Y-96269772D01*
X87337150Y-96269789D01*
X87337147Y-96269802D01*
X87299501Y-96555754D01*
X87299500Y-96555783D01*
X87299500Y-96844215D01*
X87299501Y-96844244D01*
X87337148Y-97130201D01*
X87337149Y-97130206D01*
X87337150Y-97130211D01*
X87337151Y-97130217D01*
X87411809Y-97408844D01*
X87411814Y-97408860D01*
X87411816Y-97408865D01*
X87411817Y-97408868D01*
X87522193Y-97675342D01*
X87522195Y-97675345D01*
X87522199Y-97675352D01*
X87666420Y-97925148D01*
X87666431Y-97925164D01*
X87666439Y-97925174D01*
X87842017Y-98153994D01*
X87842021Y-98153999D01*
X87842024Y-98154002D01*
X87842030Y-98154009D01*
X88045990Y-98357969D01*
X88045997Y-98357975D01*
X88046000Y-98357977D01*
X88046004Y-98357981D01*
X88208953Y-98483015D01*
X88274851Y-98533580D01*
X88275077Y-98533710D01*
X88393069Y-98601833D01*
X88524647Y-98677800D01*
X88524663Y-98677808D01*
X88657572Y-98732860D01*
X88787097Y-98786511D01*
X88788915Y-98787341D01*
X88789400Y-98787525D01*
X88790970Y-98788148D01*
X88792254Y-98788504D01*
X88795412Y-98789408D01*
X88796913Y-98789734D01*
X88827606Y-98797958D01*
X89069783Y-98862849D01*
X89355772Y-98900500D01*
X89355779Y-98900500D01*
X89644221Y-98900500D01*
X89644228Y-98900500D01*
X89930217Y-98862849D01*
X90204998Y-98789221D01*
X90208209Y-98788473D01*
X90210595Y-98787527D01*
X90211074Y-98787345D01*
X90212901Y-98786511D01*
X90471302Y-98679478D01*
X90473162Y-98678784D01*
X90473622Y-98678578D01*
X90475412Y-98677804D01*
X90477048Y-98676895D01*
X90478770Y-98675826D01*
X90725156Y-98533575D01*
X90954004Y-98357974D01*
X91157974Y-98154004D01*
X91333575Y-97925156D01*
X91477804Y-97675345D01*
X91543565Y-97516584D01*
X91586508Y-97412909D01*
X91587340Y-97411084D01*
X91587530Y-97410586D01*
X91588473Y-97408208D01*
X91589221Y-97404998D01*
X91662849Y-97130217D01*
X91700500Y-96844228D01*
X91700500Y-96555772D01*
X91662849Y-96269783D01*
X91589734Y-95996913D01*
X91589408Y-95995412D01*
X91588504Y-95992254D01*
X91588148Y-95990970D01*
X91587525Y-95989400D01*
X91587341Y-95988915D01*
X91586511Y-95987097D01*
X91488956Y-95751577D01*
X91477808Y-95724663D01*
X91477800Y-95724647D01*
X91381108Y-95557173D01*
X91333710Y-95475077D01*
X91333580Y-95474851D01*
X91333579Y-95474850D01*
X91333576Y-95474847D01*
X91333575Y-95474844D01*
X91253106Y-95369975D01*
X91157975Y-95245997D01*
X91157969Y-95245990D01*
X90954009Y-95042030D01*
X90954002Y-95042024D01*
X90953999Y-95042021D01*
X90953994Y-95042017D01*
X90726754Y-94867651D01*
X90725479Y-94866639D01*
X90725154Y-94866423D01*
X90485874Y-94728274D01*
X90475352Y-94722199D01*
X90475350Y-94722198D01*
X90475345Y-94722195D01*
X90475332Y-94722189D01*
X90208869Y-94611817D01*
X90208851Y-94611810D01*
X90208840Y-94611807D01*
X89930221Y-94537152D01*
X89930219Y-94537151D01*
X89930217Y-94537151D01*
X89930211Y-94537150D01*
X89930206Y-94537149D01*
X89930201Y-94537148D01*
X89673401Y-94503340D01*
X89639418Y-94493799D01*
X89611891Y-94481621D01*
X89574378Y-94455904D01*
X86722864Y-91604390D01*
X86701715Y-91576139D01*
X86690629Y-91555838D01*
X86675567Y-91501567D01*
X86675444Y-91498613D01*
X86676397Y-91477297D01*
X86700500Y-91294228D01*
X86700500Y-91005772D01*
X86662849Y-90719783D01*
X86589734Y-90446913D01*
X86589408Y-90445412D01*
X86588504Y-90442254D01*
X86588148Y-90440970D01*
X86587525Y-90439400D01*
X86587341Y-90438915D01*
X86586511Y-90437097D01*
X86509013Y-90250000D01*
X86477808Y-90174663D01*
X86477800Y-90174647D01*
X86398986Y-90038139D01*
X86333710Y-89925077D01*
X86333580Y-89924851D01*
X86333580Y-89924850D01*
X86165558Y-89705880D01*
X86165557Y-89705879D01*
X86165554Y-89705875D01*
X86157975Y-89695997D01*
X86157969Y-89695990D01*
X86087053Y-89625074D01*
X85954013Y-89492033D01*
X85954009Y-89492030D01*
X85954006Y-89492028D01*
X85911792Y-89459636D01*
X85911792Y-89459635D01*
X85813156Y-89383948D01*
X85788497Y-89358695D01*
X85774860Y-89340018D01*
X85752848Y-89288188D01*
X85752342Y-89285285D01*
X85750500Y-89263993D01*
X85750500Y-86829447D01*
X85755522Y-86794514D01*
X85762934Y-86769269D01*
X85794228Y-86716527D01*
X87400161Y-85110593D01*
X87428411Y-85089446D01*
X87440594Y-85082793D01*
X87508868Y-85067943D01*
X87574330Y-85092361D01*
X87581136Y-85097456D01*
X87614212Y-85134721D01*
X87666424Y-85225154D01*
X87666436Y-85225171D01*
X87842017Y-85453994D01*
X87842021Y-85453999D01*
X87842024Y-85454002D01*
X87842030Y-85454009D01*
X88045990Y-85657969D01*
X88045997Y-85657975D01*
X88046000Y-85657977D01*
X88046004Y-85657981D01*
X88100792Y-85700021D01*
X88181900Y-85762257D01*
X88274832Y-85833566D01*
X88274851Y-85833580D01*
X88275077Y-85833710D01*
X88307297Y-85852312D01*
X88524647Y-85977800D01*
X88524663Y-85977808D01*
X88566811Y-85995266D01*
X88787097Y-86086511D01*
X88788915Y-86087341D01*
X88789400Y-86087525D01*
X88790970Y-86088148D01*
X88792254Y-86088504D01*
X88795412Y-86089408D01*
X88796913Y-86089734D01*
X88827606Y-86097958D01*
X89069783Y-86162849D01*
X89355772Y-86200500D01*
X89355779Y-86200500D01*
X89644228Y-86200500D01*
X89644229Y-86200500D01*
X89756154Y-86185764D01*
X89820244Y-86177326D01*
X89855535Y-86177746D01*
X89878383Y-86181309D01*
X89930595Y-86202390D01*
X89933003Y-86204083D01*
X89949366Y-86217840D01*
X96435573Y-92704047D01*
X96456723Y-92732299D01*
X96469331Y-92755388D01*
X96484500Y-92814817D01*
X96484500Y-105993593D01*
X96479476Y-106028532D01*
X96472064Y-106053772D01*
X96440770Y-106106514D01*
X96303064Y-106244220D01*
X96303053Y-106244232D01*
X96151399Y-106441873D01*
X96026837Y-106657622D01*
X96026801Y-106657695D01*
X96026566Y-106658275D01*
X95982887Y-106763725D01*
X95976515Y-106776861D01*
X95969425Y-106789521D01*
X95961556Y-106801815D01*
X95930474Y-106844597D01*
X95925354Y-106854648D01*
X95841117Y-107019970D01*
X95780290Y-107207173D01*
X95780289Y-107207176D01*
X95780289Y-107207178D01*
X95749500Y-107401571D01*
X95749500Y-107598427D01*
X95771684Y-107738492D01*
X95772189Y-107773775D01*
X95770411Y-107787540D01*
X95742301Y-107851505D01*
X95684071Y-107890118D01*
X95684068Y-107890119D01*
X95684066Y-107890120D01*
X95676840Y-107892354D01*
X95671630Y-107893965D01*
X95634999Y-107899500D01*
X88197166Y-107899500D01*
X88162230Y-107894477D01*
X88136988Y-107887065D01*
X88084243Y-107855769D01*
X86051927Y-105823453D01*
X86030778Y-105795203D01*
X86024123Y-105783015D01*
X86009272Y-105714745D01*
X86033686Y-105649284D01*
X86037886Y-105643674D01*
X86080849Y-105607511D01*
X86155405Y-105569524D01*
X86314646Y-105453828D01*
X86453828Y-105314646D01*
X86569524Y-105155405D01*
X86658884Y-104980026D01*
X86719709Y-104792826D01*
X86747083Y-104619993D01*
X86750500Y-104598422D01*
X86750500Y-104401577D01*
X86740888Y-104340891D01*
X86731276Y-104280205D01*
X86728962Y-104265599D01*
X86719709Y-104207174D01*
X86699036Y-104143554D01*
X86693488Y-104116582D01*
X86691016Y-104089673D01*
X86691556Y-104062151D01*
X86700500Y-103994228D01*
X86700500Y-103705772D01*
X86662849Y-103419783D01*
X86589734Y-103146913D01*
X86589408Y-103145412D01*
X86588504Y-103142254D01*
X86588148Y-103140970D01*
X86587525Y-103139400D01*
X86587341Y-103138915D01*
X86586511Y-103137097D01*
X86477808Y-102874663D01*
X86477803Y-102874653D01*
X86477800Y-102874648D01*
X86477800Y-102874647D01*
X86369981Y-102687900D01*
X86333710Y-102625077D01*
X86333580Y-102624851D01*
X86333580Y-102624850D01*
X86210678Y-102464681D01*
X86157981Y-102396004D01*
X86157977Y-102396000D01*
X86157975Y-102395997D01*
X86157969Y-102395990D01*
X85954009Y-102192030D01*
X85954002Y-102192024D01*
X85953999Y-102192021D01*
X85953994Y-102192017D01*
X85726754Y-102017651D01*
X85725479Y-102016639D01*
X85725154Y-102016423D01*
X85475350Y-101872198D01*
X85475345Y-101872195D01*
X85475332Y-101872189D01*
X85208869Y-101761817D01*
X85208851Y-101761810D01*
X85208840Y-101761807D01*
X84930221Y-101687152D01*
X84930219Y-101687151D01*
X84930217Y-101687151D01*
X84930211Y-101687150D01*
X84930206Y-101687149D01*
X84930201Y-101687148D01*
X84648328Y-101650039D01*
X84646312Y-101649705D01*
X84644238Y-101649500D01*
X84644233Y-101649500D01*
X84644228Y-101649500D01*
X84355772Y-101649500D01*
X84355766Y-101649500D01*
X84355761Y-101649500D01*
X84353684Y-101649705D01*
X84351670Y-101650039D01*
X84069781Y-101687150D01*
X84047314Y-101693171D01*
X84031404Y-101696336D01*
X84023417Y-101697387D01*
X84015429Y-101698439D01*
X83999245Y-101699500D01*
X83851573Y-101699500D01*
X83657176Y-101730289D01*
X83469971Y-101791116D01*
X83294593Y-101880476D01*
X83203741Y-101946485D01*
X83147223Y-101987548D01*
X83139844Y-101991680D01*
X82991680Y-102139844D01*
X82987550Y-102147220D01*
X82970696Y-102170417D01*
X82954999Y-102192024D01*
X82926594Y-102231119D01*
X82880475Y-102294594D01*
X82810437Y-102432048D01*
X82804826Y-102441915D01*
X82798787Y-102451487D01*
X82792290Y-102460809D01*
X82666437Y-102624825D01*
X82666429Y-102624835D01*
X82666411Y-102624865D01*
X82522198Y-102874648D01*
X82522195Y-102874653D01*
X82522193Y-102874656D01*
X82411817Y-103141130D01*
X82411815Y-103141136D01*
X82411814Y-103141139D01*
X82411809Y-103141155D01*
X82384803Y-103241943D01*
X82337153Y-103419772D01*
X82337150Y-103419789D01*
X82337147Y-103419802D01*
X82299501Y-103705754D01*
X82299500Y-103705783D01*
X82299500Y-103994215D01*
X82299501Y-103994244D01*
X82337148Y-104280201D01*
X82337152Y-104280221D01*
X82369671Y-104401583D01*
X82411810Y-104558848D01*
X82411817Y-104558868D01*
X82522193Y-104825342D01*
X82522195Y-104825345D01*
X82522199Y-104825352D01*
X82529529Y-104838048D01*
X82647544Y-105042455D01*
X82666420Y-105075148D01*
X82666431Y-105075164D01*
X82693193Y-105110041D01*
X82842017Y-105303994D01*
X82842021Y-105303999D01*
X82842024Y-105304002D01*
X82842030Y-105304009D01*
X82842038Y-105304017D01*
X83045976Y-105507956D01*
X83045990Y-105507969D01*
X83046000Y-105507977D01*
X83182453Y-105612681D01*
X83186841Y-105616048D01*
X83211498Y-105641298D01*
X83225137Y-105659976D01*
X83247150Y-105711795D01*
X83247656Y-105714696D01*
X83249500Y-105736003D01*
X83249500Y-106138423D01*
X83249499Y-106138425D01*
X83280289Y-106332822D01*
X83280290Y-106332826D01*
X83341117Y-106520030D01*
X83411226Y-106657625D01*
X83430476Y-106695405D01*
X83546172Y-106854646D01*
X86795354Y-110103828D01*
X86954595Y-110219524D01*
X86978801Y-110231857D01*
X86978803Y-110231859D01*
X86978804Y-110231859D01*
X87123526Y-110305599D01*
X87125118Y-110306531D01*
X87128831Y-110308330D01*
X87130828Y-110309323D01*
X87134594Y-110310385D01*
X87178820Y-110324755D01*
X87317173Y-110369709D01*
X87511578Y-110400500D01*
X87511583Y-110400500D01*
X98723421Y-110400500D01*
X98723422Y-110400500D01*
X98917826Y-110369709D01*
X99105026Y-110308884D01*
X99280405Y-110219524D01*
X99439646Y-110103828D01*
X100094050Y-109449421D01*
X100122304Y-109428272D01*
X100145394Y-109415665D01*
X100204817Y-109400499D01*
X101233028Y-109400499D01*
X101233036Y-109400499D01*
X101352418Y-109389886D01*
X101548049Y-109333909D01*
X101728407Y-109239698D01*
X101886109Y-109111109D01*
X102014698Y-108953407D01*
X102077652Y-108832886D01*
X102098271Y-108804256D01*
X102110358Y-108791715D01*
X102167869Y-108757906D01*
X102180206Y-108754636D01*
X102211969Y-108750500D01*
X108453384Y-108750500D01*
X108488320Y-108755523D01*
X108501874Y-108759503D01*
X108560652Y-108797278D01*
X108589568Y-108860102D01*
X108591565Y-108873427D01*
X108591874Y-108907989D01*
X108579501Y-109001969D01*
X108579501Y-109001978D01*
X108579500Y-109001995D01*
X108579500Y-109238010D01*
X108580916Y-109248770D01*
X108582611Y-109261643D01*
X108582190Y-109296929D01*
X108580014Y-109310884D01*
X108550236Y-109374091D01*
X108491731Y-109410960D01*
X108478781Y-109414680D01*
X108444545Y-109419500D01*
X105931578Y-109419500D01*
X105904764Y-109423747D01*
X105789128Y-109442062D01*
X105789116Y-109442063D01*
X105789117Y-109442064D01*
X105737174Y-109450289D01*
X105610798Y-109491352D01*
X105549970Y-109511117D01*
X105455196Y-109559406D01*
X105374601Y-109600472D01*
X105374588Y-109600480D01*
X105289037Y-109662637D01*
X105227225Y-109707546D01*
X105219846Y-109711678D01*
X101654390Y-113277133D01*
X101626135Y-113298285D01*
X101605834Y-113309370D01*
X101551595Y-113324428D01*
X101548657Y-113324551D01*
X101527285Y-113323599D01*
X101348328Y-113300039D01*
X101346312Y-113299705D01*
X101344238Y-113299500D01*
X101344233Y-113299500D01*
X101344228Y-113299500D01*
X101055772Y-113299500D01*
X101055766Y-113299500D01*
X101055761Y-113299500D01*
X101053684Y-113299705D01*
X101051670Y-113300039D01*
X100769814Y-113337146D01*
X100769782Y-113337150D01*
X100767975Y-113337577D01*
X100766192Y-113338113D01*
X100517326Y-113404795D01*
X100517327Y-113404796D01*
X100506266Y-113407759D01*
X100491155Y-113411809D01*
X100491139Y-113411814D01*
X100491136Y-113411814D01*
X100491130Y-113411817D01*
X100224656Y-113522193D01*
X100224653Y-113522195D01*
X100224648Y-113522198D01*
X99974855Y-113666417D01*
X99974838Y-113666429D01*
X99974824Y-113666439D01*
X99746004Y-113842017D01*
X99745989Y-113842031D01*
X99745981Y-113842038D01*
X99542038Y-114045981D01*
X99542031Y-114045989D01*
X99542017Y-114046004D01*
X99366439Y-114274824D01*
X99366429Y-114274838D01*
X99366417Y-114274855D01*
X99222198Y-114524648D01*
X99222195Y-114524653D01*
X99222193Y-114524656D01*
X99111817Y-114791130D01*
X99111814Y-114791136D01*
X99111814Y-114791139D01*
X99111809Y-114791155D01*
X99053400Y-115009144D01*
X99043648Y-115045539D01*
X99043647Y-115045541D01*
X99037156Y-115069762D01*
X99037148Y-115069796D01*
X99037147Y-115069802D01*
X98999501Y-115355754D01*
X98999500Y-115355783D01*
X98999500Y-115644215D01*
X98999501Y-115644244D01*
X99037148Y-115930204D01*
X99037151Y-115930216D01*
X99060892Y-116018821D01*
X99060899Y-116018845D01*
X99061372Y-116020611D01*
X99062867Y-116026191D01*
X99067055Y-116061225D01*
X99066725Y-116075100D01*
X99045452Y-116141653D01*
X98991580Y-116186137D01*
X98983763Y-116189485D01*
X98934943Y-116199500D01*
X91037166Y-116199500D01*
X91002230Y-116194477D01*
X90976988Y-116187065D01*
X90924243Y-116155769D01*
X90722864Y-115954390D01*
X90701715Y-115926139D01*
X90690629Y-115905838D01*
X90675567Y-115851567D01*
X90675444Y-115848613D01*
X90676397Y-115827297D01*
X90700500Y-115644228D01*
X90700500Y-115355772D01*
X90662849Y-115069783D01*
X90589734Y-114796913D01*
X90589408Y-114795412D01*
X90588504Y-114792254D01*
X90588147Y-114790967D01*
X90587516Y-114789377D01*
X90587339Y-114788912D01*
X90586511Y-114787097D01*
X90509490Y-114601150D01*
X90477808Y-114524663D01*
X90477800Y-114524647D01*
X90384764Y-114363505D01*
X90333710Y-114275077D01*
X90333580Y-114274851D01*
X90333580Y-114274850D01*
X90283015Y-114208953D01*
X90157981Y-114046004D01*
X90157977Y-114046000D01*
X90157975Y-114045997D01*
X90157969Y-114045990D01*
X89954009Y-113842030D01*
X89954002Y-113842024D01*
X89953999Y-113842021D01*
X89953994Y-113842017D01*
X89726754Y-113667651D01*
X89725479Y-113666639D01*
X89725154Y-113666423D01*
X89475350Y-113522198D01*
X89475345Y-113522195D01*
X89475332Y-113522189D01*
X89208869Y-113411817D01*
X89208851Y-113411810D01*
X89208840Y-113411807D01*
X88930221Y-113337152D01*
X88930219Y-113337151D01*
X88930217Y-113337151D01*
X88930211Y-113337150D01*
X88930206Y-113337149D01*
X88930201Y-113337148D01*
X88648328Y-113300039D01*
X88646312Y-113299705D01*
X88644238Y-113299500D01*
X88644233Y-113299500D01*
X88644228Y-113299500D01*
X88355772Y-113299500D01*
X88355766Y-113299500D01*
X88355761Y-113299500D01*
X88353684Y-113299705D01*
X88351670Y-113300039D01*
X88069814Y-113337146D01*
X88069782Y-113337150D01*
X88067975Y-113337577D01*
X88066192Y-113338113D01*
X87817326Y-113404795D01*
X87817327Y-113404796D01*
X87806266Y-113407759D01*
X87791155Y-113411809D01*
X87791139Y-113411814D01*
X87791136Y-113411814D01*
X87791130Y-113411817D01*
X87524656Y-113522193D01*
X87524653Y-113522195D01*
X87524648Y-113522198D01*
X87274855Y-113666417D01*
X87274838Y-113666429D01*
X87274824Y-113666439D01*
X87046004Y-113842017D01*
X87045989Y-113842031D01*
X87045981Y-113842038D01*
X86842038Y-114045981D01*
X86842031Y-114045989D01*
X86842017Y-114046004D01*
X86666439Y-114274824D01*
X86666429Y-114274838D01*
X86666417Y-114274855D01*
X86522198Y-114524648D01*
X86522195Y-114524653D01*
X86522193Y-114524656D01*
X86411817Y-114791130D01*
X86411814Y-114791136D01*
X86411814Y-114791139D01*
X86411809Y-114791155D01*
X86353400Y-115009144D01*
X86343648Y-115045539D01*
X86343647Y-115045541D01*
X86337156Y-115069762D01*
X86337148Y-115069796D01*
X86337147Y-115069802D01*
X86299501Y-115355754D01*
X86299500Y-115355783D01*
X86299500Y-115644215D01*
X86299501Y-115644244D01*
X86337148Y-115930201D01*
X86337152Y-115930221D01*
X86408546Y-116196667D01*
X86408546Y-116196668D01*
X86411806Y-116208836D01*
X86411813Y-116208859D01*
X86522193Y-116475342D01*
X86522195Y-116475345D01*
X86522199Y-116475352D01*
X86666420Y-116725148D01*
X86666431Y-116725164D01*
X86666439Y-116725174D01*
X86842017Y-116953994D01*
X86842021Y-116953999D01*
X86842024Y-116954002D01*
X86842030Y-116954009D01*
X86842038Y-116954017D01*
X87045976Y-117157956D01*
X87045990Y-117157969D01*
X87045996Y-117157974D01*
X87216471Y-117288784D01*
X87274851Y-117333580D01*
X87275077Y-117333710D01*
X87383846Y-117396508D01*
X87524647Y-117477800D01*
X87524663Y-117477808D01*
X87603587Y-117510499D01*
X87787097Y-117586511D01*
X87788915Y-117587341D01*
X87789400Y-117587525D01*
X87790970Y-117588148D01*
X87792254Y-117588504D01*
X87795412Y-117589408D01*
X87796913Y-117589734D01*
X87827606Y-117597958D01*
X88069783Y-117662849D01*
X88355772Y-117700500D01*
X88355779Y-117700500D01*
X88644228Y-117700500D01*
X88644229Y-117700500D01*
X88756154Y-117685764D01*
X88820244Y-117677326D01*
X88855535Y-117677746D01*
X88878383Y-117681309D01*
X88930595Y-117702390D01*
X88933003Y-117704083D01*
X88949366Y-117717840D01*
X89496171Y-118264645D01*
X89496172Y-118264646D01*
X89635354Y-118403828D01*
X89794595Y-118519524D01*
X89969971Y-118608882D01*
X89969979Y-118608886D01*
X90054223Y-118636258D01*
X90091719Y-118648440D01*
X90100842Y-118651806D01*
X90108508Y-118654981D01*
X90115025Y-118656014D01*
X90132233Y-118661605D01*
X90157173Y-118669709D01*
X90204892Y-118677266D01*
X90229915Y-118681230D01*
X90230014Y-118681245D01*
X90230076Y-118681255D01*
X90351578Y-118700500D01*
X90351583Y-118700500D01*
X117268421Y-118700500D01*
X117268422Y-118700500D01*
X117462826Y-118669709D01*
X117523656Y-118649944D01*
X117523657Y-118649944D01*
X117650021Y-118608886D01*
X117650023Y-118608884D01*
X117650026Y-118608884D01*
X117825405Y-118519524D01*
X117984646Y-118403828D01*
X118855612Y-117532859D01*
X118883861Y-117511713D01*
X118888925Y-117508948D01*
X118904163Y-117500627D01*
X118958430Y-117485567D01*
X118961385Y-117485444D01*
X118982700Y-117486397D01*
X119153991Y-117508948D01*
X119153992Y-117508949D01*
X119157448Y-117509404D01*
X119165756Y-117510498D01*
X119165772Y-117510500D01*
X119165779Y-117510500D01*
X119454221Y-117510500D01*
X119454228Y-117510500D01*
X119740217Y-117472849D01*
X120014998Y-117399221D01*
X120018209Y-117398473D01*
X120020595Y-117397527D01*
X120021074Y-117397345D01*
X120022901Y-117396511D01*
X120281302Y-117289478D01*
X120283162Y-117288784D01*
X120283622Y-117288578D01*
X120285412Y-117287804D01*
X120287048Y-117286895D01*
X120288770Y-117285826D01*
X120535156Y-117143575D01*
X120764004Y-116967974D01*
X120967974Y-116764004D01*
X121143575Y-116535156D01*
X121287804Y-116285345D01*
X121319492Y-116208844D01*
X121394380Y-116028046D01*
X121396508Y-116022909D01*
X121397338Y-116021089D01*
X121397520Y-116020611D01*
X121398474Y-116018204D01*
X121399221Y-116014998D01*
X121472849Y-115740217D01*
X121510500Y-115454228D01*
X121510500Y-115165772D01*
X121472849Y-114879783D01*
X121399734Y-114606913D01*
X121399408Y-114605412D01*
X121398504Y-114602254D01*
X121398148Y-114600970D01*
X121397525Y-114599400D01*
X121397341Y-114598915D01*
X121396511Y-114597097D01*
X121299755Y-114363507D01*
X121287808Y-114334663D01*
X121287800Y-114334647D01*
X121211833Y-114203069D01*
X121143710Y-114085077D01*
X121143580Y-114084851D01*
X121143580Y-114084850D01*
X121035535Y-113944043D01*
X120967981Y-113856004D01*
X120967977Y-113856000D01*
X120967975Y-113855997D01*
X120967969Y-113855990D01*
X120764009Y-113652030D01*
X120764002Y-113652024D01*
X120763999Y-113652021D01*
X120763994Y-113652017D01*
X120536754Y-113477651D01*
X120535479Y-113476639D01*
X120535154Y-113476423D01*
X120293927Y-113337150D01*
X120285352Y-113332199D01*
X120285350Y-113332198D01*
X120285345Y-113332195D01*
X120285332Y-113332189D01*
X120018869Y-113221817D01*
X120018851Y-113221810D01*
X120018840Y-113221807D01*
X119740221Y-113147152D01*
X119740219Y-113147151D01*
X119740217Y-113147151D01*
X119740211Y-113147150D01*
X119740206Y-113147149D01*
X119740201Y-113147148D01*
X119458328Y-113110039D01*
X119456312Y-113109705D01*
X119454238Y-113109500D01*
X119454233Y-113109500D01*
X119454228Y-113109500D01*
X119165772Y-113109500D01*
X119165766Y-113109500D01*
X119165761Y-113109500D01*
X119163684Y-113109705D01*
X119161670Y-113110039D01*
X118879814Y-113147146D01*
X118879782Y-113147150D01*
X118877973Y-113147577D01*
X118876197Y-113148111D01*
X118601150Y-113221810D01*
X118601130Y-113221817D01*
X118334656Y-113332193D01*
X118334653Y-113332195D01*
X118334648Y-113332198D01*
X118084855Y-113476417D01*
X118084838Y-113476429D01*
X118084824Y-113476439D01*
X117856004Y-113652017D01*
X117855989Y-113652031D01*
X117855981Y-113652038D01*
X117652038Y-113855981D01*
X117652031Y-113855989D01*
X117652017Y-113856004D01*
X117476439Y-114084824D01*
X117476429Y-114084838D01*
X117476417Y-114084855D01*
X117332198Y-114334648D01*
X117332195Y-114334653D01*
X117332193Y-114334656D01*
X117221817Y-114601130D01*
X117221815Y-114601136D01*
X117221814Y-114601139D01*
X117221809Y-114601155D01*
X117214860Y-114627091D01*
X117147153Y-114879772D01*
X117147150Y-114879789D01*
X117147147Y-114879802D01*
X117109501Y-115165754D01*
X117109500Y-115165783D01*
X117109500Y-115454215D01*
X117109501Y-115454244D01*
X117132671Y-115630240D01*
X117132252Y-115665529D01*
X117128689Y-115688380D01*
X117107603Y-115740600D01*
X117105907Y-115743012D01*
X117092154Y-115759369D01*
X116700952Y-116150573D01*
X116672701Y-116171722D01*
X116649613Y-116184330D01*
X116590183Y-116199500D01*
X108285032Y-116199500D01*
X108250093Y-116194476D01*
X108236775Y-116190565D01*
X108177998Y-116152789D01*
X108148976Y-116089232D01*
X108148975Y-116089225D01*
X108148230Y-116084040D01*
X108156408Y-116018951D01*
X108156462Y-116018821D01*
X108223237Y-115857615D01*
X108280911Y-115642367D01*
X108280914Y-115642354D01*
X108310000Y-115421424D01*
X108310000Y-115198575D01*
X108280914Y-114977645D01*
X108280911Y-114977632D01*
X108274836Y-114954961D01*
X108254690Y-114879772D01*
X108223236Y-114762381D01*
X108137954Y-114556497D01*
X108137949Y-114556485D01*
X108026533Y-114363507D01*
X108026532Y-114363505D01*
X107975957Y-114297595D01*
X107975956Y-114297595D01*
X107975955Y-114297595D01*
X107975954Y-114297595D01*
X107292906Y-114980643D01*
X107231583Y-115014128D01*
X107161891Y-115009144D01*
X107105958Y-114967272D01*
X107097838Y-114954961D01*
X107090122Y-114941598D01*
X107090119Y-114941592D01*
X106978408Y-114829881D01*
X106971586Y-114825942D01*
X106965032Y-114822158D01*
X106916817Y-114771590D01*
X106903596Y-114702983D01*
X106929565Y-114638118D01*
X106939343Y-114627101D01*
X107622403Y-113944043D01*
X107622403Y-113944040D01*
X107556504Y-113893473D01*
X107556491Y-113893464D01*
X107363520Y-113782054D01*
X107363508Y-113782047D01*
X107270216Y-113743403D01*
X107157618Y-113696763D01*
X107157611Y-113696761D01*
X106942382Y-113639091D01*
X106942367Y-113639088D01*
X106942354Y-113639085D01*
X106942350Y-113639084D01*
X106942344Y-113639083D01*
X106721426Y-113610000D01*
X106721425Y-113610000D01*
X106589879Y-113610000D01*
X106554944Y-113604977D01*
X106544090Y-113601790D01*
X106485312Y-113564016D01*
X106456287Y-113500460D01*
X106466227Y-113431311D01*
X106469417Y-113424324D01*
X106494526Y-113388160D01*
X106913264Y-112969423D01*
X106941514Y-112948275D01*
X106964606Y-112935667D01*
X107024031Y-112920500D01*
X113008421Y-112920500D01*
X113008422Y-112920500D01*
X113202826Y-112889709D01*
X113390026Y-112828884D01*
X113565405Y-112739524D01*
X113724646Y-112623828D01*
X116639748Y-109708724D01*
X116668001Y-109687575D01*
X116680180Y-109680925D01*
X116748453Y-109666074D01*
X116813915Y-109690491D01*
X116819515Y-109694683D01*
X116855683Y-109737650D01*
X116888138Y-109801345D01*
X116888147Y-109801359D01*
X116920523Y-109845921D01*
X116920524Y-109845922D01*
X117463503Y-109302942D01*
X117524824Y-109269459D01*
X117594515Y-109274443D01*
X117650449Y-109316314D01*
X117658567Y-109328622D01*
X117679920Y-109365606D01*
X117754394Y-109440080D01*
X117754395Y-109440081D01*
X117754397Y-109440082D01*
X117791373Y-109461430D01*
X117839588Y-109511996D01*
X117852812Y-109580603D01*
X117826844Y-109645468D01*
X117817054Y-109656498D01*
X117274075Y-110199473D01*
X117274076Y-110199473D01*
X117274076Y-110199474D01*
X117318650Y-110231859D01*
X117404786Y-110275747D01*
X117500963Y-110324753D01*
X117500965Y-110324753D01*
X117500968Y-110324755D01*
X117695582Y-110387990D01*
X117897683Y-110420000D01*
X118102316Y-110420000D01*
X118102317Y-110420000D01*
X118304417Y-110387990D01*
X118499031Y-110324755D01*
X118530180Y-110308884D01*
X118681347Y-110231860D01*
X118681346Y-110231860D01*
X118681349Y-110231859D01*
X118725921Y-110199474D01*
X118182945Y-109656498D01*
X118149460Y-109595175D01*
X118154444Y-109525483D01*
X118196316Y-109469550D01*
X118208618Y-109461434D01*
X118245606Y-109440080D01*
X118320080Y-109365606D01*
X118341429Y-109328627D01*
X118391994Y-109280413D01*
X118460600Y-109267188D01*
X118525466Y-109293155D01*
X118536497Y-109302946D01*
X119079473Y-109845922D01*
X119079473Y-109845921D01*
X119079474Y-109845922D01*
X119079474Y-109845921D01*
X119092943Y-109840342D01*
X119099159Y-109819174D01*
X119103159Y-109813324D01*
X119111857Y-109801352D01*
X119111867Y-109801334D01*
X119204755Y-109619031D01*
X119267990Y-109424417D01*
X119300000Y-109222317D01*
X119300000Y-109017682D01*
X119267990Y-108815582D01*
X119204755Y-108620968D01*
X119204753Y-108620965D01*
X119204753Y-108620963D01*
X119111859Y-108438650D01*
X119103156Y-108426672D01*
X119093615Y-108399933D01*
X119079473Y-108394075D01*
X118536497Y-108937053D01*
X118475174Y-108970538D01*
X118405483Y-108965554D01*
X118349549Y-108923683D01*
X118341432Y-108911377D01*
X118320080Y-108874394D01*
X118245606Y-108799920D01*
X118208625Y-108778569D01*
X118160410Y-108728003D01*
X118147186Y-108659396D01*
X118173154Y-108594531D01*
X118182939Y-108583506D01*
X118405415Y-108361029D01*
X118431085Y-108341331D01*
X118458404Y-108325558D01*
X118488301Y-108313174D01*
X118579993Y-108288606D01*
X118798049Y-108198284D01*
X119002450Y-108080273D01*
X119189699Y-107936592D01*
X119356592Y-107769699D01*
X119500273Y-107582450D01*
X119618284Y-107378049D01*
X119708606Y-107159993D01*
X119769693Y-106932014D01*
X119800500Y-106698011D01*
X119800500Y-106461989D01*
X119769693Y-106227986D01*
X119708606Y-106000007D01*
X119618481Y-105782427D01*
X119618189Y-105781710D01*
X119617376Y-105780245D01*
X119616294Y-105778503D01*
X119591756Y-105736003D01*
X119561344Y-105683328D01*
X119500273Y-105577550D01*
X119446882Y-105507969D01*
X119421804Y-105475286D01*
X119366459Y-105403159D01*
X119352352Y-105379860D01*
X119343792Y-105361410D01*
X119333433Y-105292318D01*
X119334268Y-105286257D01*
X119352781Y-105236162D01*
X119354619Y-105233302D01*
X119354618Y-105233301D01*
X119355893Y-105231318D01*
X119361834Y-105222867D01*
X119413600Y-105155405D01*
X119500273Y-105042450D01*
X119618284Y-104838049D01*
X119708606Y-104619993D01*
X119769693Y-104392014D01*
X119800500Y-104158011D01*
X119800500Y-104077165D01*
X119805522Y-104042232D01*
X119811855Y-104020664D01*
X119812934Y-104016987D01*
X119844228Y-103964245D01*
X122426495Y-101381979D01*
X125378828Y-98429646D01*
X125494524Y-98270405D01*
X125583884Y-98095026D01*
X125644709Y-97907826D01*
X125658078Y-97823417D01*
X125675500Y-97713422D01*
X125675500Y-88780435D01*
X125654070Y-88645138D01*
X125644709Y-88586032D01*
X125644708Y-88586028D01*
X125644708Y-88586027D01*
X125586134Y-88405757D01*
X125584735Y-88401144D01*
X125584329Y-88399705D01*
X125536004Y-88304862D01*
X125494524Y-88223453D01*
X125378828Y-88064212D01*
X123110788Y-85796172D01*
X122951547Y-85680476D01*
X122776172Y-85591117D01*
X122588968Y-85530290D01*
X122588966Y-85530289D01*
X122588964Y-85530289D01*
X122394569Y-85499500D01*
X122394564Y-85499500D01*
X122394559Y-85499500D01*
X120514216Y-85499500D01*
X120447177Y-85479815D01*
X120401422Y-85427011D01*
X120391478Y-85357853D01*
X120399387Y-85328700D01*
X120455316Y-85191473D01*
X120455316Y-85191470D01*
X120455319Y-85191465D01*
X120459724Y-85176467D01*
X120490237Y-85036234D01*
X120495262Y-85001290D01*
X120505500Y-84858170D01*
X120505500Y-72137331D01*
X120499731Y-72029780D01*
X120496894Y-72003409D01*
X120496893Y-72003399D01*
X120489401Y-71957214D01*
X120479633Y-71896990D01*
X120479099Y-71894536D01*
X120471315Y-71858756D01*
X120471314Y-71858750D01*
X120446784Y-71767062D01*
X120406238Y-71673767D01*
X120365693Y-71580475D01*
X120365689Y-71580468D01*
X120248705Y-71414033D01*
X120248704Y-71414032D01*
X120248700Y-71414026D01*
X120202945Y-71361222D01*
X120083832Y-71244821D01*
X120083830Y-71244819D01*
X119914738Y-71131693D01*
X119914731Y-71131690D01*
X119726328Y-71054916D01*
X119726322Y-71054914D01*
X119659293Y-71035233D01*
X119659295Y-71035233D01*
X119659290Y-71035232D01*
X119578406Y-71015083D01*
X119578402Y-71015082D01*
X119578403Y-71015082D01*
X119376001Y-70994500D01*
X119376000Y-70994500D01*
X114500000Y-70994500D01*
X114499991Y-70994500D01*
X114466881Y-70995045D01*
X114265263Y-71022283D01*
X114265262Y-71022284D01*
X114073255Y-71089550D01*
X114073254Y-71089550D01*
X114013705Y-71125217D01*
X113946078Y-71142776D01*
X113887341Y-71125847D01*
X113879808Y-71121436D01*
X113879798Y-71121432D01*
X113691408Y-71044663D01*
X113684814Y-71042727D01*
X113676399Y-71040256D01*
X113629666Y-71030089D01*
X113536204Y-71009757D01*
X113501266Y-71004734D01*
X113358172Y-70994500D01*
X113358170Y-70994500D01*
X107637332Y-70994500D01*
X107637329Y-70994500D01*
X107529863Y-71000259D01*
X107503503Y-71003093D01*
X107429507Y-71015082D01*
X107397289Y-71020302D01*
X107397285Y-71020302D01*
X107397278Y-71020304D01*
X107389729Y-71021946D01*
X107369134Y-71026939D01*
X107343415Y-71033175D01*
X107343412Y-71033175D01*
X107343408Y-71033177D01*
X107343404Y-71033178D01*
X107153223Y-71105392D01*
X107153219Y-71105394D01*
X107098347Y-71132870D01*
X107056253Y-71155211D01*
X107056240Y-71155219D01*
X106889836Y-71272260D01*
X106889824Y-71272269D01*
X106888488Y-71273427D01*
X106827934Y-71330487D01*
X106701213Y-71489651D01*
X106701206Y-71489660D01*
X106663470Y-71548397D01*
X106621435Y-71620193D01*
X106621432Y-71620200D01*
X106544663Y-71808590D01*
X106540256Y-71823600D01*
X106509757Y-71963794D01*
X106504734Y-71998732D01*
X106494500Y-72141826D01*
X106494500Y-83256807D01*
X106495619Y-83304240D01*
X106495619Y-83304242D01*
X106525731Y-83505447D01*
X106525732Y-83505451D01*
X106540891Y-83564846D01*
X106553719Y-83610571D01*
X106553721Y-83610577D01*
X106632651Y-83798081D01*
X106632652Y-83798082D01*
X106645255Y-83821165D01*
X106645268Y-83821185D01*
X106722822Y-83941865D01*
X106722834Y-83941882D01*
X106743976Y-83970125D01*
X106743978Y-83970127D01*
X106743979Y-83970128D01*
X106837930Y-84078554D01*
X106837937Y-84078561D01*
X106837949Y-84078574D01*
X107333108Y-84573732D01*
X108426641Y-85667266D01*
X108440491Y-85680476D01*
X108460982Y-85700021D01*
X108624549Y-85821007D01*
X108677294Y-85852303D01*
X108702035Y-85866203D01*
X108718677Y-85875554D01*
X108718679Y-85875554D01*
X108718683Y-85875557D01*
X108846985Y-85927839D01*
X108907082Y-85952329D01*
X108907084Y-85952329D01*
X108907090Y-85952332D01*
X108932332Y-85959744D01*
X109072528Y-85990243D01*
X109107464Y-85995266D01*
X109250560Y-86005500D01*
X109408017Y-86005500D01*
X109475056Y-86025185D01*
X109476798Y-86026324D01*
X109896975Y-86306443D01*
X109896983Y-86306447D01*
X109896995Y-86306455D01*
X110029323Y-86380895D01*
X110029330Y-86380899D01*
X110046256Y-86388801D01*
X110063179Y-86396703D01*
X110063182Y-86396704D01*
X110063191Y-86396708D01*
X110205270Y-86450384D01*
X110205276Y-86450385D01*
X110205282Y-86450388D01*
X110230774Y-86457873D01*
X110237151Y-86459746D01*
X110237154Y-86459747D01*
X110377335Y-86490242D01*
X110377342Y-86490243D01*
X110412278Y-86495266D01*
X110555374Y-86505500D01*
X111949537Y-86505500D01*
X112016576Y-86525185D01*
X112062331Y-86577989D01*
X112072275Y-86647147D01*
X112043250Y-86710703D01*
X112019616Y-86731798D01*
X112000958Y-86744579D01*
X111976859Y-86761087D01*
X111976846Y-86761098D01*
X111976838Y-86761105D01*
X111826105Y-86911838D01*
X111826098Y-86911846D01*
X111826087Y-86911859D01*
X111705593Y-87087759D01*
X111619464Y-87282824D01*
X111593787Y-87391995D01*
X111580908Y-87424836D01*
X111577892Y-87430147D01*
X111527670Y-87478722D01*
X111459159Y-87492434D01*
X111394111Y-87466930D01*
X111353177Y-87410306D01*
X111353166Y-87410276D01*
X111352838Y-87409350D01*
X111352100Y-87407265D01*
X111345000Y-87365905D01*
X111345000Y-87002703D01*
X111342505Y-87002899D01*
X111342497Y-87002901D01*
X111184833Y-87048707D01*
X111184802Y-87048717D01*
X111184799Y-87048718D01*
X111043452Y-87132310D01*
X111043447Y-87132313D01*
X111043436Y-87132322D01*
X110927322Y-87248436D01*
X110927313Y-87248447D01*
X110927310Y-87248452D01*
X110843718Y-87389799D01*
X110843717Y-87389802D01*
X110843707Y-87389833D01*
X110797902Y-87547493D01*
X110797901Y-87547497D01*
X110797900Y-87547504D01*
X110797899Y-87547510D01*
X110795000Y-87584350D01*
X110795000Y-88225000D01*
X111345000Y-88225000D01*
X111348597Y-88223509D01*
X111368457Y-88208641D01*
X111378391Y-88203217D01*
X111446661Y-88188364D01*
X111512126Y-88212778D01*
X111553999Y-88268710D01*
X111554001Y-88268714D01*
X111556682Y-88275902D01*
X111564500Y-88319236D01*
X111564500Y-88627308D01*
X111559476Y-88662246D01*
X111556289Y-88673099D01*
X111518514Y-88731876D01*
X111454957Y-88760899D01*
X111385807Y-88750958D01*
X111378829Y-88747771D01*
X111347558Y-88726059D01*
X111345000Y-88725000D01*
X111344999Y-88725000D01*
X110795000Y-88725000D01*
X110795000Y-89365654D01*
X110797899Y-89402487D01*
X110797901Y-89402501D01*
X110797902Y-89402505D01*
X110843707Y-89560165D01*
X110843717Y-89560196D01*
X110843718Y-89560199D01*
X110927310Y-89701546D01*
X110927314Y-89701552D01*
X110927321Y-89701561D01*
X111043438Y-89817678D01*
X111043447Y-89817685D01*
X111184801Y-89901281D01*
X111249408Y-89920050D01*
X111284660Y-89942563D01*
X111342509Y-89947098D01*
X111342514Y-89947100D01*
X111342511Y-89947100D01*
X111344998Y-89947295D01*
X111345000Y-89947295D01*
X111345000Y-89947294D01*
X111345000Y-89586868D01*
X111350018Y-89551951D01*
X111350647Y-89549805D01*
X111351739Y-89546088D01*
X111389503Y-89487306D01*
X111453055Y-89458272D01*
X111522215Y-89468205D01*
X111575025Y-89513952D01*
X111575027Y-89513955D01*
X111576753Y-89516640D01*
X111593152Y-89555302D01*
X111612879Y-89639175D01*
X111619465Y-89667176D01*
X111619467Y-89667182D01*
X111619468Y-89667185D01*
X111705591Y-89862237D01*
X111705592Y-89862238D01*
X111826088Y-90038141D01*
X111826093Y-90038147D01*
X111826098Y-90038152D01*
X111826105Y-90038160D01*
X111976838Y-90188893D01*
X111976852Y-90188906D01*
X111976858Y-90188911D01*
X112152763Y-90309409D01*
X112152764Y-90309409D01*
X112152765Y-90309410D01*
X112261132Y-90357259D01*
X112291060Y-90375963D01*
X112299699Y-90383260D01*
X112338212Y-90441557D01*
X112339093Y-90511421D01*
X112302063Y-90570671D01*
X112302060Y-90570675D01*
X112297673Y-90574574D01*
X112254305Y-90599594D01*
X112221832Y-90610355D01*
X112205916Y-90615629D01*
X112205871Y-90615644D01*
X112056657Y-90707681D01*
X112056653Y-90707684D01*
X111932685Y-90831652D01*
X111840641Y-90980879D01*
X111840638Y-90980888D01*
X111785494Y-91147299D01*
X111785493Y-91147304D01*
X111775000Y-91250007D01*
X111775000Y-91250013D01*
X111775000Y-91300000D01*
X112858170Y-91300000D01*
X112863617Y-91301599D01*
X112869188Y-91300490D01*
X112893106Y-91305023D01*
X112908104Y-91309427D01*
X112923112Y-91319069D01*
X112925209Y-91319685D01*
X112926638Y-91321334D01*
X112966855Y-91347172D01*
X112968042Y-91348541D01*
X112995518Y-91403402D01*
X112997163Y-91410960D01*
X113000000Y-91437331D01*
X113000000Y-91658170D01*
X112994975Y-91693114D01*
X112990570Y-91708112D01*
X112982704Y-91720354D01*
X112979366Y-91734498D01*
X112964223Y-91749117D01*
X112952827Y-91766855D01*
X112951458Y-91768042D01*
X112937253Y-91775155D01*
X112929100Y-91783028D01*
X112916539Y-91785530D01*
X112896597Y-91795518D01*
X112889039Y-91797163D01*
X112862668Y-91800000D01*
X111775001Y-91800000D01*
X111775001Y-91849994D01*
X111785492Y-91952693D01*
X111807654Y-92019569D01*
X111813874Y-92054304D01*
X111814352Y-92068176D01*
X111796988Y-92135853D01*
X111745793Y-92183398D01*
X111739673Y-92186452D01*
X111684306Y-92199500D01*
X106791760Y-92199500D01*
X106782752Y-92196855D01*
X106756821Y-92194476D01*
X106743503Y-92190565D01*
X106728505Y-92180926D01*
X106724721Y-92179815D01*
X106722137Y-92176833D01*
X106684726Y-92152789D01*
X106655704Y-92089234D01*
X106655229Y-92085930D01*
X106659775Y-92030778D01*
X106660372Y-92028898D01*
X106668075Y-92010118D01*
X106708884Y-91930026D01*
X106743950Y-91822100D01*
X106750766Y-91805382D01*
X106758724Y-91789320D01*
X106767905Y-91773756D01*
X106777713Y-91759599D01*
X106790458Y-91741201D01*
X106814475Y-91715350D01*
X106826642Y-91705525D01*
X106891156Y-91678724D01*
X106900644Y-91677694D01*
X106953022Y-91683263D01*
X107047302Y-91714505D01*
X107047309Y-91714506D01*
X107150019Y-91724999D01*
X107700000Y-91724999D01*
X107749960Y-91724999D01*
X107749972Y-91724999D01*
X107749986Y-91724998D01*
X107852697Y-91714505D01*
X108019119Y-91659358D01*
X108019124Y-91659356D01*
X108168345Y-91567315D01*
X108292315Y-91443345D01*
X108384356Y-91294124D01*
X108384358Y-91294119D01*
X108439505Y-91127697D01*
X108439506Y-91127690D01*
X108449999Y-91024986D01*
X108450000Y-91024973D01*
X108450000Y-90750000D01*
X107700000Y-90750000D01*
X107700000Y-91724999D01*
X107150019Y-91724999D01*
X107199999Y-91724998D01*
X107200000Y-91724998D01*
X107200000Y-90250000D01*
X107700000Y-90250000D01*
X108449999Y-90250000D01*
X108449999Y-89975028D01*
X108449998Y-89975013D01*
X108439505Y-89872302D01*
X108384358Y-89705880D01*
X108384356Y-89705875D01*
X108292315Y-89556654D01*
X108168345Y-89432684D01*
X108019124Y-89340643D01*
X108019119Y-89340641D01*
X108017239Y-89340018D01*
X107852699Y-89285494D01*
X107852694Y-89285493D01*
X107749991Y-89275000D01*
X107749986Y-89275000D01*
X107700000Y-89275000D01*
X107700000Y-90250000D01*
X107200000Y-90250000D01*
X107200000Y-89274999D01*
X107150048Y-89274999D01*
X107150021Y-89275000D01*
X107149983Y-89275003D01*
X107047298Y-89285494D01*
X106958465Y-89314930D01*
X106923721Y-89321151D01*
X106908097Y-89321688D01*
X106840431Y-89304324D01*
X106836319Y-89301877D01*
X106832236Y-89299447D01*
X106793718Y-89263503D01*
X106763820Y-89220347D01*
X106763819Y-89220346D01*
X106604654Y-89061181D01*
X106604650Y-89061178D01*
X106604645Y-89061174D01*
X106420560Y-88933640D01*
X106419691Y-88933025D01*
X106419625Y-88932992D01*
X106216790Y-88840861D01*
X106215446Y-88840220D01*
X106214682Y-88839903D01*
X106214668Y-88839899D01*
X105996429Y-88784906D01*
X105996418Y-88784904D01*
X105996415Y-88784904D01*
X105864227Y-88774500D01*
X105864222Y-88774500D01*
X105864217Y-88774500D01*
X105662167Y-88774500D01*
X105627231Y-88769477D01*
X105601989Y-88762065D01*
X105549244Y-88730769D01*
X97799426Y-80980951D01*
X97778274Y-80952695D01*
X97765667Y-80929606D01*
X97750500Y-80870181D01*
X97750500Y-79048146D01*
X97755523Y-79013210D01*
X97759927Y-78998212D01*
X97797694Y-78939442D01*
X97804743Y-78933333D01*
X97842807Y-78912722D01*
X97842215Y-78911239D01*
X97848044Y-78908911D01*
X97848046Y-78908909D01*
X97848049Y-78908909D01*
X98028407Y-78814698D01*
X98186109Y-78686109D01*
X98314698Y-78528407D01*
X98408909Y-78348049D01*
X98464886Y-78152418D01*
X98475500Y-78033037D01*
X98475499Y-76883909D01*
X100025000Y-76883909D01*
X100025000Y-77116089D01*
X100045811Y-77247489D01*
X100061318Y-77345393D01*
X100133065Y-77566205D01*
X100238465Y-77773064D01*
X100295238Y-77851207D01*
X100782924Y-77363520D01*
X100844245Y-77330037D01*
X100913936Y-77335021D01*
X100969870Y-77376892D01*
X100973691Y-77382292D01*
X100995112Y-77414351D01*
X100995116Y-77414355D01*
X100995116Y-77414356D01*
X101085646Y-77504886D01*
X101117684Y-77526293D01*
X101162489Y-77579906D01*
X101171196Y-77649231D01*
X101141041Y-77712258D01*
X101136474Y-77717076D01*
X100648791Y-78204758D01*
X100648791Y-78204759D01*
X100648791Y-78204760D01*
X100726935Y-78261534D01*
X100933794Y-78366934D01*
X101154606Y-78438681D01*
X101383910Y-78475000D01*
X101616089Y-78475000D01*
X101616090Y-78475000D01*
X101845393Y-78438681D01*
X102066205Y-78366934D01*
X102273071Y-78261530D01*
X102351207Y-78204762D01*
X102351208Y-78204760D01*
X102351207Y-78204758D01*
X101863524Y-77717076D01*
X101830039Y-77655753D01*
X101835023Y-77586062D01*
X101876894Y-77530128D01*
X101882270Y-77526323D01*
X101914351Y-77504888D01*
X102004888Y-77414351D01*
X102026295Y-77382312D01*
X102079903Y-77337510D01*
X102149227Y-77328801D01*
X102212256Y-77358955D01*
X102217076Y-77363524D01*
X102704758Y-77851207D01*
X102704760Y-77851208D01*
X102704762Y-77851207D01*
X102761530Y-77773071D01*
X102866934Y-77566205D01*
X102938681Y-77345393D01*
X102964155Y-77184562D01*
X102975000Y-77116090D01*
X102975000Y-76883909D01*
X102938681Y-76654606D01*
X102866934Y-76433794D01*
X102761534Y-76226935D01*
X102704760Y-76148791D01*
X102704759Y-76148791D01*
X102704758Y-76148791D01*
X102217076Y-76636474D01*
X102155753Y-76669959D01*
X102086061Y-76664975D01*
X102030128Y-76623103D01*
X102026293Y-76617684D01*
X102004886Y-76585646D01*
X101914356Y-76495116D01*
X101914352Y-76495113D01*
X101914351Y-76495112D01*
X101882310Y-76473703D01*
X101837507Y-76420091D01*
X101828800Y-76350766D01*
X101858955Y-76287739D01*
X101863500Y-76282943D01*
X102351207Y-75795238D01*
X102273064Y-75738465D01*
X102066205Y-75633065D01*
X101845393Y-75561318D01*
X101845391Y-75561317D01*
X101845390Y-75561317D01*
X101669244Y-75533418D01*
X101616090Y-75525000D01*
X101616089Y-75525000D01*
X101383905Y-75525000D01*
X101154609Y-75561317D01*
X100933791Y-75633066D01*
X100726926Y-75738469D01*
X100726922Y-75738471D01*
X100648791Y-75795237D01*
X100648791Y-75795238D01*
X101136475Y-76282922D01*
X101169960Y-76344245D01*
X101164976Y-76413937D01*
X101123104Y-76469870D01*
X101117688Y-76473703D01*
X101085648Y-76495112D01*
X101085643Y-76495116D01*
X100995116Y-76585643D01*
X100995112Y-76585648D01*
X100973703Y-76617688D01*
X100920090Y-76662491D01*
X100850764Y-76671197D01*
X100787738Y-76641040D01*
X100782922Y-76636475D01*
X100295238Y-76148791D01*
X100295237Y-76148791D01*
X100238471Y-76226922D01*
X100238469Y-76226926D01*
X100133066Y-76433791D01*
X100061317Y-76654609D01*
X100025000Y-76883909D01*
X98475499Y-76883909D01*
X98475499Y-75966964D01*
X98464886Y-75847582D01*
X98411101Y-75659611D01*
X98408910Y-75651954D01*
X98408909Y-75651953D01*
X98408909Y-75651951D01*
X98314698Y-75471593D01*
X98252896Y-75395799D01*
X98186109Y-75313890D01*
X98186107Y-75313888D01*
X98186106Y-75313887D01*
X98092807Y-75237813D01*
X98080704Y-75220167D01*
X98028404Y-75185300D01*
X97852019Y-75093165D01*
X97848836Y-75091353D01*
X97848042Y-75091088D01*
X97730829Y-75057550D01*
X97654981Y-75035847D01*
X97652825Y-75035179D01*
X97650347Y-75034777D01*
X97646936Y-75034626D01*
X97637628Y-75033798D01*
X97586102Y-75029217D01*
X97586101Y-75029216D01*
X97533039Y-75024500D01*
X97533037Y-75024500D01*
X97533032Y-75024500D01*
X95466971Y-75024500D01*
X95466965Y-75024500D01*
X95454897Y-75024500D01*
X95448042Y-75026182D01*
X95347582Y-75035113D01*
X95151952Y-75091089D01*
X95061771Y-75138194D01*
X95061772Y-75138195D01*
X94972578Y-75184787D01*
X94971646Y-75185263D01*
X94969242Y-75186996D01*
X94966716Y-75189278D01*
X94813890Y-75313890D01*
X94685302Y-75471591D01*
X94591083Y-75651964D01*
X94590791Y-75652697D01*
X94580417Y-75673010D01*
X94571002Y-75687885D01*
X94518526Y-75733999D01*
X94510066Y-75737933D01*
X94457773Y-75749500D01*
X93643856Y-75749500D01*
X93449459Y-75780289D01*
X93262254Y-75841116D01*
X93086877Y-75930475D01*
X93036655Y-75966965D01*
X92939508Y-76037547D01*
X92932127Y-76041680D01*
X83541681Y-85432126D01*
X83537554Y-85439497D01*
X83533176Y-85445524D01*
X83533169Y-85445533D01*
X83430480Y-85586871D01*
X83430469Y-85586889D01*
X83341143Y-85762203D01*
X83340616Y-85763256D01*
X83339535Y-85767119D01*
X83317946Y-85833566D01*
X83317946Y-85833568D01*
X83284873Y-85935355D01*
X83280290Y-85949457D01*
X83280290Y-85949458D01*
X83249500Y-86143860D01*
X83249500Y-89256891D01*
X83244475Y-89291832D01*
X83237957Y-89314026D01*
X83210254Y-89363022D01*
X83208263Y-89365187D01*
X83192477Y-89379626D01*
X83045991Y-89492028D01*
X83045985Y-89492033D01*
X82842038Y-89695981D01*
X82842031Y-89695989D01*
X82842017Y-89696004D01*
X82666439Y-89924824D01*
X82666429Y-89924838D01*
X82666417Y-89924855D01*
X82522198Y-90174648D01*
X82522195Y-90174653D01*
X82522193Y-90174656D01*
X82411817Y-90441130D01*
X82411815Y-90441136D01*
X82411814Y-90441139D01*
X82411809Y-90441155D01*
X82402384Y-90476331D01*
X82365056Y-90615642D01*
X82337149Y-90719790D01*
X82337147Y-90719802D01*
X82299501Y-91005754D01*
X82299500Y-91005783D01*
X75500500Y-91005783D01*
X75500500Y-70642329D01*
X75505523Y-70607393D01*
X75509927Y-70592395D01*
X75547672Y-70533644D01*
X75549041Y-70532457D01*
X75603920Y-70504977D01*
X75611479Y-70503333D01*
X75637832Y-70500500D01*
X130857670Y-70500500D01*
X130892606Y-70505523D01*
G37*
%TD.AperFunction*%
%TD*%
%TA.AperFunction,Conductor*%
%TO.N,Current-*%
G36*
X108873481Y-84415654D02*
G01*
X109750000Y-85000000D01*
X109250560Y-85000000D01*
X109215624Y-84994977D01*
X109190382Y-84987565D01*
X109137637Y-84956269D01*
X108044104Y-83862736D01*
X108873481Y-84415654D01*
G37*
%TD.AperFunction*%
%TD*%
%TA.AperFunction,Conductor*%
%TO.N,Current-*%
G36*
X113393106Y-72005023D02*
G01*
X113408104Y-72009427D01*
X113466855Y-72047172D01*
X113468042Y-72048541D01*
X113495518Y-72103402D01*
X113497163Y-72110960D01*
X113500000Y-72137331D01*
X113500000Y-73452877D01*
X113498738Y-73470523D01*
X113494500Y-73499998D01*
X113494500Y-81351394D01*
X113481409Y-81406848D01*
X113238364Y-81892936D01*
X113238363Y-81892938D01*
X113213984Y-81966065D01*
X113174106Y-82023437D01*
X113124436Y-82043981D01*
X113115000Y-82052702D01*
X113115000Y-84626980D01*
X113097380Y-84686990D01*
X113098117Y-84687327D01*
X113095776Y-84692451D01*
X113095317Y-84694017D01*
X113094434Y-84695390D01*
X113034663Y-84826266D01*
X113014976Y-84893311D01*
X112994500Y-85035730D01*
X112994500Y-85364222D01*
X112994743Y-85367964D01*
X112979445Y-85436139D01*
X112929717Y-85485219D01*
X112871004Y-85500000D01*
X110555374Y-85500000D01*
X110520438Y-85494977D01*
X110488572Y-85485620D01*
X110454726Y-85469817D01*
X109750001Y-85000000D01*
X109750000Y-85000000D01*
X108873481Y-84415654D01*
X110795000Y-84415654D01*
X110797899Y-84452487D01*
X110797901Y-84452501D01*
X110797902Y-84452505D01*
X110843707Y-84610165D01*
X110843717Y-84610196D01*
X110843718Y-84610199D01*
X110927310Y-84751546D01*
X110927314Y-84751552D01*
X110927321Y-84751561D01*
X111043438Y-84867678D01*
X111043447Y-84867685D01*
X111184801Y-84951281D01*
X111249408Y-84970050D01*
X111284660Y-84992563D01*
X111342509Y-84997098D01*
X111342514Y-84997100D01*
X111342511Y-84997100D01*
X111344998Y-84997295D01*
X111345000Y-84997295D01*
X111845000Y-84997295D01*
X111845001Y-84997295D01*
X111845003Y-84997295D01*
X111845003Y-84997294D01*
X111847486Y-84997100D01*
X112005198Y-84951281D01*
X112110308Y-84889119D01*
X112114913Y-84887950D01*
X112114477Y-84887152D01*
X112171645Y-84855907D01*
X112239860Y-84841025D01*
X112241309Y-84841127D01*
X112241642Y-84841151D01*
X112299934Y-84860526D01*
X112306063Y-84864465D01*
X112306063Y-84864464D01*
X112329776Y-84879704D01*
X112332084Y-84879973D01*
X112346754Y-84887383D01*
X112378617Y-84906226D01*
X112454801Y-84951281D01*
X112519408Y-84970050D01*
X112554660Y-84992563D01*
X112612509Y-84997098D01*
X112612514Y-84997100D01*
X112612511Y-84997100D01*
X112614998Y-84997295D01*
X112615000Y-84997295D01*
X112615000Y-83775000D01*
X111845000Y-83775000D01*
X111845000Y-84997295D01*
X111345000Y-84997295D01*
X111345000Y-83775000D01*
X110795000Y-83775000D01*
X110795000Y-84415654D01*
X108873481Y-84415654D01*
X108044104Y-83862736D01*
X107548926Y-83367558D01*
X107527774Y-83339302D01*
X107515167Y-83316213D01*
X107500000Y-83256788D01*
X107500000Y-82634350D01*
X110795000Y-82634350D01*
X110795000Y-83275000D01*
X111345000Y-83275000D01*
X111345000Y-82052703D01*
X111845000Y-82052703D01*
X111845000Y-83275000D01*
X112615000Y-83275000D01*
X112615000Y-82052703D01*
X112612505Y-82052899D01*
X112612497Y-82052901D01*
X112454833Y-82098707D01*
X112454802Y-82098717D01*
X112349689Y-82160880D01*
X112345063Y-82162053D01*
X112345514Y-82162879D01*
X112288312Y-82194114D01*
X112220041Y-82208966D01*
X112218237Y-82208837D01*
X112160040Y-82189467D01*
X112130199Y-82170288D01*
X112127918Y-82170024D01*
X112113223Y-82162603D01*
X112005199Y-82098718D01*
X112005196Y-82098717D01*
X112005182Y-82098712D01*
X111962180Y-82086219D01*
X111940621Y-82079956D01*
X111905409Y-82057469D01*
X111845000Y-82052703D01*
X111345000Y-82052703D01*
X111342505Y-82052899D01*
X111342497Y-82052901D01*
X111184833Y-82098707D01*
X111184802Y-82098717D01*
X111184799Y-82098718D01*
X111043452Y-82182310D01*
X111043447Y-82182313D01*
X111043436Y-82182322D01*
X110927322Y-82298436D01*
X110927313Y-82298447D01*
X110927310Y-82298452D01*
X110843718Y-82439799D01*
X110843717Y-82439802D01*
X110843707Y-82439833D01*
X110797902Y-82597493D01*
X110797901Y-82597497D01*
X110797900Y-82597504D01*
X110797899Y-82597510D01*
X110795000Y-82634350D01*
X107500000Y-82634350D01*
X107500000Y-77221409D01*
X109025000Y-77221409D01*
X109025000Y-77453589D01*
X109045811Y-77584989D01*
X109061318Y-77682893D01*
X109133065Y-77903705D01*
X109238465Y-78110564D01*
X109295238Y-78188707D01*
X109782924Y-77701020D01*
X109844245Y-77667537D01*
X109913936Y-77672521D01*
X109969870Y-77714392D01*
X109973691Y-77719792D01*
X109995112Y-77751851D01*
X109995116Y-77751855D01*
X109995116Y-77751856D01*
X110085646Y-77842386D01*
X110117684Y-77863793D01*
X110162489Y-77917406D01*
X110171196Y-77986731D01*
X110141041Y-78049758D01*
X110136474Y-78054576D01*
X109648791Y-78542258D01*
X109648791Y-78542259D01*
X109648791Y-78542260D01*
X109726935Y-78599034D01*
X109933794Y-78704434D01*
X110154606Y-78776181D01*
X110383910Y-78812500D01*
X110616089Y-78812500D01*
X110616090Y-78812500D01*
X110845393Y-78776181D01*
X111066205Y-78704434D01*
X111273071Y-78599030D01*
X111351207Y-78542262D01*
X111351208Y-78542260D01*
X111351207Y-78542258D01*
X110863524Y-78054576D01*
X110830039Y-77993253D01*
X110835023Y-77923562D01*
X110876894Y-77867628D01*
X110882270Y-77863823D01*
X110914351Y-77842388D01*
X111004888Y-77751851D01*
X111026295Y-77719812D01*
X111079903Y-77675010D01*
X111149227Y-77666301D01*
X111212256Y-77696455D01*
X111217076Y-77701024D01*
X111704758Y-78188707D01*
X111704760Y-78188708D01*
X111704762Y-78188707D01*
X111761530Y-78110571D01*
X111866934Y-77903705D01*
X111938681Y-77682893D01*
X111975000Y-77453590D01*
X111975000Y-77221409D01*
X111938681Y-76992106D01*
X111866934Y-76771294D01*
X111761534Y-76564435D01*
X111704760Y-76486291D01*
X111704759Y-76486291D01*
X111704758Y-76486291D01*
X111217076Y-76973974D01*
X111155753Y-77007459D01*
X111086061Y-77002475D01*
X111030128Y-76960603D01*
X111026293Y-76955184D01*
X111004886Y-76923146D01*
X110914356Y-76832616D01*
X110914352Y-76832613D01*
X110914351Y-76832612D01*
X110882310Y-76811203D01*
X110837507Y-76757591D01*
X110828800Y-76688266D01*
X110858955Y-76625239D01*
X110863500Y-76620443D01*
X111351207Y-76132738D01*
X111273064Y-76075965D01*
X111066205Y-75970565D01*
X110845393Y-75898818D01*
X110845391Y-75898817D01*
X110845390Y-75898817D01*
X110669244Y-75870918D01*
X110616090Y-75862500D01*
X110616089Y-75862500D01*
X110383905Y-75862500D01*
X110154609Y-75898817D01*
X109933791Y-75970566D01*
X109726926Y-76075969D01*
X109726922Y-76075971D01*
X109648790Y-76132737D01*
X110136475Y-76620422D01*
X110169960Y-76681745D01*
X110164976Y-76751437D01*
X110123104Y-76807370D01*
X110117688Y-76811203D01*
X110085648Y-76832612D01*
X110085643Y-76832616D01*
X109995116Y-76923143D01*
X109995112Y-76923148D01*
X109973703Y-76955188D01*
X109920090Y-76999991D01*
X109850764Y-77008697D01*
X109787738Y-76978540D01*
X109782922Y-76973975D01*
X109295238Y-76486291D01*
X109295237Y-76486291D01*
X109238471Y-76564422D01*
X109238469Y-76564426D01*
X109133066Y-76771291D01*
X109061317Y-76992109D01*
X109025000Y-77221409D01*
X107500000Y-77221409D01*
X107500000Y-72141829D01*
X107505023Y-72106893D01*
X107509427Y-72091895D01*
X107547172Y-72033144D01*
X107548541Y-72031957D01*
X107603420Y-72004477D01*
X107610979Y-72002833D01*
X107637332Y-72000000D01*
X113358170Y-72000000D01*
X113393106Y-72005023D01*
G37*
%TD.AperFunction*%
%TD*%
%TA.AperFunction,Conductor*%
%TO.N,Current+*%
G36*
X119443039Y-72019685D02*
G01*
X119488794Y-72072489D01*
X119495947Y-72105370D01*
X119000000Y-85000000D01*
X116936628Y-85187579D01*
X113635226Y-85487706D01*
X113566680Y-85474171D01*
X113516332Y-85425727D01*
X113500000Y-85364215D01*
X113500000Y-85035729D01*
X113519685Y-84968690D01*
X113572489Y-84922935D01*
X113641647Y-84912991D01*
X113687122Y-84928997D01*
X113724803Y-84951282D01*
X113882514Y-84997100D01*
X113882511Y-84997100D01*
X113884998Y-84997295D01*
X113885000Y-84997295D01*
X114385000Y-84997295D01*
X114385001Y-84997295D01*
X114387486Y-84997100D01*
X114545198Y-84951281D01*
X114686552Y-84867685D01*
X114692722Y-84862900D01*
X114694546Y-84865252D01*
X114743595Y-84838445D01*
X114813288Y-84843402D01*
X114846063Y-84864465D01*
X114847278Y-84862900D01*
X114853447Y-84867685D01*
X114994801Y-84951281D01*
X115152514Y-84997100D01*
X115152511Y-84997100D01*
X115154998Y-84997295D01*
X115155000Y-84997295D01*
X115655000Y-84997295D01*
X115655001Y-84997295D01*
X115657486Y-84997100D01*
X115815198Y-84951281D01*
X115956552Y-84867685D01*
X115956561Y-84867678D01*
X116072678Y-84751561D01*
X116072685Y-84751552D01*
X116156282Y-84610196D01*
X116156283Y-84610193D01*
X116202099Y-84452495D01*
X116202100Y-84452489D01*
X116204999Y-84415649D01*
X116205000Y-84415634D01*
X116205000Y-83775000D01*
X115655000Y-83775000D01*
X115655000Y-84997295D01*
X115155000Y-84997295D01*
X115155000Y-83775000D01*
X114385000Y-83775000D01*
X114385000Y-84997295D01*
X113885000Y-84997295D01*
X113885000Y-82052703D01*
X114385000Y-82052703D01*
X114385000Y-83275000D01*
X115155000Y-83275000D01*
X115655000Y-83275000D01*
X116205000Y-83275000D01*
X116205000Y-82634365D01*
X116204999Y-82634350D01*
X116202100Y-82597510D01*
X116202099Y-82597504D01*
X116156283Y-82439806D01*
X116156282Y-82439803D01*
X116072685Y-82298447D01*
X116072678Y-82298438D01*
X115956561Y-82182321D01*
X115956552Y-82182314D01*
X115815196Y-82098717D01*
X115815193Y-82098716D01*
X115657494Y-82052900D01*
X115657497Y-82052900D01*
X115655000Y-82052703D01*
X115655000Y-83275000D01*
X115155000Y-83275000D01*
X115155000Y-82052703D01*
X115152503Y-82052900D01*
X114994806Y-82098716D01*
X114994803Y-82098717D01*
X114853447Y-82182314D01*
X114847278Y-82187100D01*
X114845457Y-82184753D01*
X114796358Y-82211564D01*
X114726666Y-82206580D01*
X114693930Y-82185541D01*
X114692722Y-82187100D01*
X114686552Y-82182314D01*
X114545196Y-82098717D01*
X114545193Y-82098716D01*
X114387494Y-82052900D01*
X114387497Y-82052900D01*
X114385000Y-82052703D01*
X113885000Y-82052703D01*
X113882503Y-82052900D01*
X113724806Y-82098716D01*
X113724805Y-82098716D01*
X113690497Y-82119005D01*
X114000000Y-81500000D01*
X114000000Y-76314655D01*
X114025000Y-76314655D01*
X114025000Y-77087500D01*
X114899999Y-77087500D01*
X114874979Y-77147902D01*
X114850000Y-77273481D01*
X114850000Y-77401519D01*
X114874979Y-77527098D01*
X114899999Y-77587500D01*
X114025000Y-77587500D01*
X114025000Y-78360344D01*
X114031401Y-78419872D01*
X114031403Y-78419879D01*
X114081645Y-78554586D01*
X114081649Y-78554593D01*
X114167809Y-78669687D01*
X114167812Y-78669690D01*
X114282906Y-78755850D01*
X114282913Y-78755854D01*
X114417620Y-78806096D01*
X114417627Y-78806098D01*
X114477155Y-78812499D01*
X114477172Y-78812500D01*
X115250000Y-78812500D01*
X115250000Y-77937501D01*
X115310402Y-77962521D01*
X115435981Y-77987500D01*
X115564019Y-77987500D01*
X115689598Y-77962521D01*
X115750000Y-77937501D01*
X115750000Y-78812500D01*
X116522828Y-78812500D01*
X116522844Y-78812499D01*
X116582372Y-78806098D01*
X116582379Y-78806096D01*
X116717086Y-78755854D01*
X116717093Y-78755850D01*
X116832187Y-78669690D01*
X116832190Y-78669687D01*
X116918350Y-78554593D01*
X116918354Y-78554586D01*
X116968596Y-78419879D01*
X116968598Y-78419872D01*
X116974999Y-78360344D01*
X116975000Y-78360327D01*
X116975000Y-77587500D01*
X116100001Y-77587500D01*
X116125021Y-77527098D01*
X116150000Y-77401519D01*
X116150000Y-77273481D01*
X116125021Y-77147902D01*
X116100001Y-77087500D01*
X116975000Y-77087500D01*
X116975000Y-76314672D01*
X116974999Y-76314655D01*
X116968598Y-76255127D01*
X116968596Y-76255120D01*
X116918354Y-76120413D01*
X116918350Y-76120406D01*
X116832190Y-76005312D01*
X116832187Y-76005309D01*
X116717093Y-75919149D01*
X116717086Y-75919145D01*
X116582379Y-75868903D01*
X116582372Y-75868901D01*
X116522844Y-75862500D01*
X115750000Y-75862500D01*
X115750000Y-76737498D01*
X115689598Y-76712479D01*
X115564019Y-76687500D01*
X115435981Y-76687500D01*
X115310402Y-76712479D01*
X115250000Y-76737498D01*
X115250000Y-75862500D01*
X114477155Y-75862500D01*
X114417627Y-75868901D01*
X114417620Y-75868903D01*
X114282913Y-75919145D01*
X114282906Y-75919149D01*
X114167812Y-76005309D01*
X114167809Y-76005312D01*
X114081649Y-76120406D01*
X114081645Y-76120413D01*
X114031403Y-76255120D01*
X114031401Y-76255127D01*
X114025000Y-76314655D01*
X114000000Y-76314655D01*
X114000000Y-73500000D01*
X114500000Y-72000000D01*
X119376000Y-72000000D01*
X119443039Y-72019685D01*
G37*
%TD.AperFunction*%
%TD*%
M02*
