%TF.GenerationSoftware,KiCad,Pcbnew,9.0.7*%
%TF.CreationDate,2026-09-12T13:46:58-04:00*%
%TF.ProjectId,Onboarding,4f6e626f-6172-4646-996e-672e6b696361,rev?*%
%TF.SameCoordinates,Original*%
%TF.FileFunction,Legend,Bot*%
%TF.FilePolarity,Positive*%
%FSLAX46Y46*%
G04 Gerber Fmt 4.6, Leading zero omitted, Abs format (unit mm)*
G04 Created by KiCad (PCBNEW 9.0.7) date 2026-09-12 13:46:58*
%MOMM*%
%LPD*%
G01*
G04 APERTURE LIST*
G04 Aperture macros list*
%AMRoundRect*
0 Rectangle with rounded corners*
0 $1 Rounding radius*
0 $2 $3 $4 $5 $6 $7 $8 $9 X,Y pos of 4 corners*
0 Add a 4 corners polygon primitive as box body*
4,1,4,$2,$3,$4,$5,$6,$7,$8,$9,$2,$3,0*
0 Add four circle primitives for the rounded corners*
1,1,$1+$1,$2,$3*
1,1,$1+$1,$4,$5*
1,1,$1+$1,$6,$7*
1,1,$1+$1,$8,$9*
0 Add four rect primitives between the rounded corners*
20,1,$1+$1,$2,$3,$4,$5,0*
20,1,$1+$1,$4,$5,$6,$7,0*
20,1,$1+$1,$6,$7,$8,$9,0*
20,1,$1+$1,$8,$9,$2,$3,0*%
G04 Aperture macros list end*
%ADD10C,0.150000*%
%ADD11C,0.120000*%
%ADD12C,0.200000*%
%ADD13C,0.127000*%
%TA.AperFunction,ComponentPad*%
%ADD14RoundRect,0.250000X0.550000X0.550000X-0.550000X0.550000X-0.550000X-0.550000X0.550000X-0.550000X0*%
%TD*%
%TA.AperFunction,ComponentPad*%
%ADD15C,1.600000*%
%TD*%
%TA.AperFunction,ComponentPad*%
%ADD16C,2.400000*%
%TD*%
%TA.AperFunction,ComponentPad*%
%ADD17C,1.950000*%
%TD*%
%TA.AperFunction,ComponentPad*%
%ADD18R,1.950000X1.950000*%
%TD*%
%TA.AperFunction,ComponentPad*%
%ADD19C,1.800000*%
%TD*%
%TA.AperFunction,ComponentPad*%
%ADD20R,1.800000X1.800000*%
%TD*%
%ADD21RoundRect,0.250000X0.550000X0.550000X-0.550000X0.550000X-0.550000X-0.550000X0.550000X-0.550000X0*%
%ADD22C,1.600000*%
%ADD23C,2.400000*%
%ADD24C,2.154000*%
%ADD25RoundRect,0.102000X0.975000X0.975000X-0.975000X0.975000X-0.975000X-0.975000X0.975000X-0.975000X0*%
%ADD26C,1.800000*%
%ADD27R,1.800000X1.800000*%
%TA.AperFunction,SMDPad,CuDef*%
%ADD28RoundRect,0.150000X-0.150000X0.825000X-0.150000X-0.825000X0.150000X-0.825000X0.150000X0.825000X0*%
%TD*%
%TA.AperFunction,SMDPad,CuDef*%
%ADD29RoundRect,0.250000X0.250000X0.475000X-0.250000X0.475000X-0.250000X-0.475000X0.250000X-0.475000X0*%
%TD*%
%TA.AperFunction,SMDPad,CuDef*%
%ADD30RoundRect,0.250000X-0.250000X-0.475000X0.250000X-0.475000X0.250000X0.475000X-0.250000X0.475000X0*%
%TD*%
%TA.AperFunction,Conductor*%
%ADD31C,0.500000*%
%TD*%
%ADD32RoundRect,0.150000X-0.150000X0.825000X-0.150000X-0.825000X0.150000X-0.825000X0.150000X0.825000X0*%
%ADD33RoundRect,0.250000X0.250000X0.475000X-0.250000X0.475000X-0.250000X-0.475000X0.250000X-0.475000X0*%
%ADD34RoundRect,0.250000X-0.250000X-0.475000X0.250000X-0.475000X0.250000X0.475000X-0.250000X0.475000X0*%
%TA.AperFunction,Profile*%
%ADD35C,0.050000*%
%TD*%
G04 APERTURE END LIST*
D10*
X170756904Y-92814819D02*
X170756904Y-93624342D01*
X170756904Y-93624342D02*
X170709285Y-93719580D01*
X170709285Y-93719580D02*
X170661666Y-93767200D01*
X170661666Y-93767200D02*
X170566428Y-93814819D01*
X170566428Y-93814819D02*
X170375952Y-93814819D01*
X170375952Y-93814819D02*
X170280714Y-93767200D01*
X170280714Y-93767200D02*
X170233095Y-93719580D01*
X170233095Y-93719580D02*
X170185476Y-93624342D01*
X170185476Y-93624342D02*
X170185476Y-92814819D01*
X169756904Y-92910057D02*
X169709285Y-92862438D01*
X169709285Y-92862438D02*
X169614047Y-92814819D01*
X169614047Y-92814819D02*
X169375952Y-92814819D01*
X169375952Y-92814819D02*
X169280714Y-92862438D01*
X169280714Y-92862438D02*
X169233095Y-92910057D01*
X169233095Y-92910057D02*
X169185476Y-93005295D01*
X169185476Y-93005295D02*
X169185476Y-93100533D01*
X169185476Y-93100533D02*
X169233095Y-93243390D01*
X169233095Y-93243390D02*
X169804523Y-93814819D01*
X169804523Y-93814819D02*
X169185476Y-93814819D01*
X154374819Y-106183333D02*
X153898628Y-105850000D01*
X154374819Y-105611905D02*
X153374819Y-105611905D01*
X153374819Y-105611905D02*
X153374819Y-105992857D01*
X153374819Y-105992857D02*
X153422438Y-106088095D01*
X153422438Y-106088095D02*
X153470057Y-106135714D01*
X153470057Y-106135714D02*
X153565295Y-106183333D01*
X153565295Y-106183333D02*
X153708152Y-106183333D01*
X153708152Y-106183333D02*
X153803390Y-106135714D01*
X153803390Y-106135714D02*
X153851009Y-106088095D01*
X153851009Y-106088095D02*
X153898628Y-105992857D01*
X153898628Y-105992857D02*
X153898628Y-105611905D01*
X153708152Y-107040476D02*
X154374819Y-107040476D01*
X153327200Y-106802381D02*
X154041485Y-106564286D01*
X154041485Y-106564286D02*
X154041485Y-107183333D01*
X154374819Y-86183333D02*
X153898628Y-85850000D01*
X154374819Y-85611905D02*
X153374819Y-85611905D01*
X153374819Y-85611905D02*
X153374819Y-85992857D01*
X153374819Y-85992857D02*
X153422438Y-86088095D01*
X153422438Y-86088095D02*
X153470057Y-86135714D01*
X153470057Y-86135714D02*
X153565295Y-86183333D01*
X153565295Y-86183333D02*
X153708152Y-86183333D01*
X153708152Y-86183333D02*
X153803390Y-86135714D01*
X153803390Y-86135714D02*
X153851009Y-86088095D01*
X153851009Y-86088095D02*
X153898628Y-85992857D01*
X153898628Y-85992857D02*
X153898628Y-85611905D01*
X153374819Y-86516667D02*
X153374819Y-87135714D01*
X153374819Y-87135714D02*
X153755771Y-86802381D01*
X153755771Y-86802381D02*
X153755771Y-86945238D01*
X153755771Y-86945238D02*
X153803390Y-87040476D01*
X153803390Y-87040476D02*
X153851009Y-87088095D01*
X153851009Y-87088095D02*
X153946247Y-87135714D01*
X153946247Y-87135714D02*
X154184342Y-87135714D01*
X154184342Y-87135714D02*
X154279580Y-87088095D01*
X154279580Y-87088095D02*
X154327200Y-87040476D01*
X154327200Y-87040476D02*
X154374819Y-86945238D01*
X154374819Y-86945238D02*
X154374819Y-86659524D01*
X154374819Y-86659524D02*
X154327200Y-86564286D01*
X154327200Y-86564286D02*
X154279580Y-86516667D01*
X179666666Y-125374819D02*
X179999999Y-124898628D01*
X180238094Y-125374819D02*
X180238094Y-124374819D01*
X180238094Y-124374819D02*
X179857142Y-124374819D01*
X179857142Y-124374819D02*
X179761904Y-124422438D01*
X179761904Y-124422438D02*
X179714285Y-124470057D01*
X179714285Y-124470057D02*
X179666666Y-124565295D01*
X179666666Y-124565295D02*
X179666666Y-124708152D01*
X179666666Y-124708152D02*
X179714285Y-124803390D01*
X179714285Y-124803390D02*
X179761904Y-124851009D01*
X179761904Y-124851009D02*
X179857142Y-124898628D01*
X179857142Y-124898628D02*
X180238094Y-124898628D01*
X179285713Y-124470057D02*
X179238094Y-124422438D01*
X179238094Y-124422438D02*
X179142856Y-124374819D01*
X179142856Y-124374819D02*
X178904761Y-124374819D01*
X178904761Y-124374819D02*
X178809523Y-124422438D01*
X178809523Y-124422438D02*
X178761904Y-124470057D01*
X178761904Y-124470057D02*
X178714285Y-124565295D01*
X178714285Y-124565295D02*
X178714285Y-124660533D01*
X178714285Y-124660533D02*
X178761904Y-124803390D01*
X178761904Y-124803390D02*
X179333332Y-125374819D01*
X179333332Y-125374819D02*
X178714285Y-125374819D01*
X160666666Y-125374819D02*
X160999999Y-124898628D01*
X161238094Y-125374819D02*
X161238094Y-124374819D01*
X161238094Y-124374819D02*
X160857142Y-124374819D01*
X160857142Y-124374819D02*
X160761904Y-124422438D01*
X160761904Y-124422438D02*
X160714285Y-124470057D01*
X160714285Y-124470057D02*
X160666666Y-124565295D01*
X160666666Y-124565295D02*
X160666666Y-124708152D01*
X160666666Y-124708152D02*
X160714285Y-124803390D01*
X160714285Y-124803390D02*
X160761904Y-124851009D01*
X160761904Y-124851009D02*
X160857142Y-124898628D01*
X160857142Y-124898628D02*
X161238094Y-124898628D01*
X159714285Y-125374819D02*
X160285713Y-125374819D01*
X159999999Y-125374819D02*
X159999999Y-124374819D01*
X159999999Y-124374819D02*
X160095237Y-124517676D01*
X160095237Y-124517676D02*
X160190475Y-124612914D01*
X160190475Y-124612914D02*
X160285713Y-124660533D01*
X164521666Y-62750866D02*
X164521666Y-63750866D01*
X164521666Y-63750866D02*
X164588333Y-63950866D01*
X164588333Y-63950866D02*
X164721666Y-64084200D01*
X164721666Y-64084200D02*
X164921666Y-64150866D01*
X164921666Y-64150866D02*
X165055000Y-64150866D01*
X163921666Y-62884200D02*
X163854999Y-62817533D01*
X163854999Y-62817533D02*
X163721666Y-62750866D01*
X163721666Y-62750866D02*
X163388333Y-62750866D01*
X163388333Y-62750866D02*
X163254999Y-62817533D01*
X163254999Y-62817533D02*
X163188333Y-62884200D01*
X163188333Y-62884200D02*
X163121666Y-63017533D01*
X163121666Y-63017533D02*
X163121666Y-63150866D01*
X163121666Y-63150866D02*
X163188333Y-63350866D01*
X163188333Y-63350866D02*
X163988333Y-64150866D01*
X163988333Y-64150866D02*
X163121666Y-64150866D01*
X184021666Y-63088366D02*
X184021666Y-64088366D01*
X184021666Y-64088366D02*
X184088333Y-64288366D01*
X184088333Y-64288366D02*
X184221666Y-64421700D01*
X184221666Y-64421700D02*
X184421666Y-64488366D01*
X184421666Y-64488366D02*
X184555000Y-64488366D01*
X182621666Y-64488366D02*
X183421666Y-64488366D01*
X183021666Y-64488366D02*
X183021666Y-63088366D01*
X183021666Y-63088366D02*
X183154999Y-63288366D01*
X183154999Y-63288366D02*
X183288333Y-63421700D01*
X183288333Y-63421700D02*
X183421666Y-63488366D01*
X160468094Y-105994819D02*
X160468094Y-104994819D01*
X160468094Y-104994819D02*
X160229999Y-104994819D01*
X160229999Y-104994819D02*
X160087142Y-105042438D01*
X160087142Y-105042438D02*
X159991904Y-105137676D01*
X159991904Y-105137676D02*
X159944285Y-105232914D01*
X159944285Y-105232914D02*
X159896666Y-105423390D01*
X159896666Y-105423390D02*
X159896666Y-105566247D01*
X159896666Y-105566247D02*
X159944285Y-105756723D01*
X159944285Y-105756723D02*
X159991904Y-105851961D01*
X159991904Y-105851961D02*
X160087142Y-105947200D01*
X160087142Y-105947200D02*
X160229999Y-105994819D01*
X160229999Y-105994819D02*
X160468094Y-105994819D01*
X158944285Y-105994819D02*
X159515713Y-105994819D01*
X159229999Y-105994819D02*
X159229999Y-104994819D01*
X159229999Y-104994819D02*
X159325237Y-105137676D01*
X159325237Y-105137676D02*
X159420475Y-105232914D01*
X159420475Y-105232914D02*
X159515713Y-105280533D01*
D11*
%TO.C,U2*%
X172645000Y-94360000D02*
X172645000Y-104640000D01*
X172645000Y-104640000D02*
X167345000Y-104640000D01*
X170995000Y-94360000D02*
X172645000Y-94360000D01*
X167345000Y-94360000D02*
X168995000Y-94360000D01*
X167345000Y-104640000D02*
X167345000Y-94360000D01*
X170995000Y-94360000D02*
G75*
G02*
X168995000Y-94360000I-1000000J0D01*
G01*
%TO.C,R4*%
X149080000Y-101280000D02*
X149560000Y-101280000D01*
X152920000Y-101280000D02*
X152440000Y-101280000D01*
X149080000Y-111420000D02*
X149080000Y-101280000D01*
X149560000Y-111420000D02*
X149080000Y-111420000D01*
X152440000Y-111420000D02*
X152920000Y-111420000D01*
X152920000Y-111420000D02*
X152920000Y-101280000D01*
%TO.C,R3*%
X149080000Y-81280000D02*
X149560000Y-81280000D01*
X152920000Y-81280000D02*
X152440000Y-81280000D01*
X149080000Y-91420000D02*
X149080000Y-81280000D01*
X149560000Y-91420000D02*
X149080000Y-91420000D01*
X152440000Y-91420000D02*
X152920000Y-91420000D01*
X152920000Y-91420000D02*
X152920000Y-81280000D01*
%TO.C,R2*%
X184570000Y-120080000D02*
X184570000Y-120560000D01*
X184570000Y-123920000D02*
X184570000Y-123440000D01*
X174430000Y-120080000D02*
X184570000Y-120080000D01*
X174430000Y-120560000D02*
X174430000Y-120080000D01*
X174430000Y-123440000D02*
X174430000Y-123920000D01*
X174430000Y-123920000D02*
X184570000Y-123920000D01*
%TO.C,R1*%
X165570000Y-120080000D02*
X165570000Y-120560000D01*
X165570000Y-123920000D02*
X165570000Y-123440000D01*
X155430000Y-120080000D02*
X165570000Y-120080000D01*
X155430000Y-120560000D02*
X155430000Y-120080000D01*
X155430000Y-123440000D02*
X155430000Y-123920000D01*
X155430000Y-123920000D02*
X165570000Y-123920000D01*
D12*
%TO.C,J2*%
X165100000Y-74000000D02*
G75*
G02*
X164900000Y-74000000I-100000J0D01*
G01*
X164900000Y-74000000D02*
G75*
G02*
X165100000Y-74000000I100000J0D01*
G01*
D13*
X157500000Y-73000000D02*
X167500000Y-73000000D01*
X157500000Y-65400000D02*
X157500000Y-73000000D01*
X167500000Y-73000000D02*
X167500000Y-65400000D01*
X167500000Y-65400000D02*
X157500000Y-65400000D01*
D12*
%TO.C,J1*%
X184600000Y-74337500D02*
G75*
G02*
X184400000Y-74337500I-100000J0D01*
G01*
X184400000Y-74337500D02*
G75*
G02*
X184600000Y-74337500I100000J0D01*
G01*
D13*
X177000000Y-73337500D02*
X187000000Y-73337500D01*
X177000000Y-65737500D02*
X177000000Y-73337500D01*
X187000000Y-73337500D02*
X187000000Y-65737500D01*
X187000000Y-65737500D02*
X177000000Y-65737500D01*
D11*
%TO.C,D1*%
X162230000Y-109500000D02*
G75*
G02*
X157230000Y-109500000I-2500000J0D01*
G01*
X157230000Y-109500000D02*
G75*
G02*
X162230000Y-109500000I2500000J0D01*
G01*
X162290000Y-111044830D02*
G75*
G02*
X156740000Y-109500000I-2560000J1544830D01*
G01*
X156740000Y-109500000D02*
G75*
G02*
X162290000Y-107955170I2990000J0D01*
G01*
X162290000Y-107955000D02*
X162290000Y-111045000D01*
%TD*%
D14*
%TO.P,U2,1,NC*%
%TO.N,unconnected-(U2-NC-Pad1)*%
X173805000Y-95690000D03*
D15*
%TO.P,U2,2,VIN-*%
%TO.N,Net-(U1-VIOUT)*%
X173805000Y-98230000D03*
%TO.P,U2,3,VIN+*%
%TO.N,Net-(U2-VIN+)*%
X173805000Y-100770000D03*
%TO.P,U2,4,VSS*%
%TO.N,GND*%
X173805000Y-103310000D03*
%TO.P,U2,5,NC*%
%TO.N,unconnected-(U2-NC-Pad5)*%
X166185000Y-103310000D03*
%TO.P,U2,6,OUT*%
%TO.N,Net-(D1-K)*%
X166185000Y-100770000D03*
%TO.P,U2,7,VDD*%
%TO.N,3.3*%
X166185000Y-98230000D03*
%TO.P,U2,8,NC*%
%TO.N,unconnected-(U2-NC-Pad8)*%
X166185000Y-95690000D03*
%TD*%
D16*
%TO.P,R4,2*%
%TO.N,3.3*%
X151000000Y-100000000D03*
%TO.P,R4,1*%
%TO.N,Net-(D1-A)*%
X151000000Y-112700000D03*
%TD*%
%TO.P,R3,2*%
%TO.N,3.3*%
X151000000Y-80000000D03*
%TO.P,R3,1*%
%TO.N,Net-(D1-K)*%
X151000000Y-92700000D03*
%TD*%
%TO.P,R2,2*%
%TO.N,GND*%
X185850000Y-122000000D03*
%TO.P,R2,1*%
%TO.N,Net-(U2-VIN+)*%
X173150000Y-122000000D03*
%TD*%
%TO.P,R1,2*%
%TO.N,Net-(U2-VIN+)*%
X166850000Y-122000000D03*
%TO.P,R1,1*%
%TO.N,3.3*%
X154150000Y-122000000D03*
%TD*%
D17*
%TO.P,J2,2,Pin_2*%
%TO.N,Current-*%
X160000000Y-69500000D03*
D18*
%TO.P,J2,1,Pin_1*%
%TO.N,Current+*%
X165000000Y-69500000D03*
%TD*%
D17*
%TO.P,J1,2,Pin_2*%
%TO.N,GND*%
X179500000Y-69837500D03*
D18*
%TO.P,J1,1,Pin_1*%
%TO.N,3.3*%
X184500000Y-69837500D03*
%TD*%
D19*
%TO.P,D1,2,A*%
%TO.N,Net-(D1-A)*%
X158460000Y-109500000D03*
D20*
%TO.P,D1,1,K*%
%TO.N,Net-(D1-K)*%
X161000000Y-109500000D03*
%TD*%
D21*
%TO.C,U2*%
X173805000Y-95690000D03*
D22*
X173805000Y-98230000D03*
X173805000Y-100770000D03*
X173805000Y-103310000D03*
X166185000Y-103310000D03*
X166185000Y-100770000D03*
X166185000Y-98230000D03*
X166185000Y-95690000D03*
%TD*%
D23*
%TO.C,R4*%
X151000000Y-100000000D03*
X151000000Y-112700000D03*
%TD*%
%TO.C,R3*%
X151000000Y-80000000D03*
X151000000Y-92700000D03*
%TD*%
%TO.C,R2*%
X185850000Y-122000000D03*
X173150000Y-122000000D03*
%TD*%
%TO.C,R1*%
X166850000Y-122000000D03*
X154150000Y-122000000D03*
%TD*%
D24*
%TO.C,J2*%
X160000000Y-69500000D03*
D25*
X165000000Y-69500000D03*
%TD*%
D24*
%TO.C,J1*%
X179500000Y-69837500D03*
D25*
X184500000Y-69837500D03*
%TD*%
D26*
%TO.C,D1*%
X158460000Y-109500000D03*
D27*
X161000000Y-109500000D03*
%TD*%
D28*
%TO.P,U1,1,IP+*%
%TO.N,Current+*%
X164405000Y-78025000D03*
%TO.P,U1,2,IP+*%
X163135000Y-78025000D03*
%TO.P,U1,3,IP-*%
%TO.N,Current-*%
X161865000Y-78025000D03*
%TO.P,U1,4,IP-*%
X160595000Y-78025000D03*
%TO.P,U1,5,GND*%
%TO.N,GND*%
X160595000Y-82975000D03*
%TO.P,U1,6,~{FAULT}*%
%TO.N,unconnected-(U1-~{FAULT}-Pad6)*%
X161865000Y-82975000D03*
%TO.P,U1,7,VIOUT*%
%TO.N,Net-(U1-VIOUT)*%
X163135000Y-82975000D03*
%TO.P,U1,8,VCC*%
%TO.N,3.3*%
X164405000Y-82975000D03*
%TD*%
D14*
%TO.P,U2,1,NC*%
%TO.N,unconnected-(U2-NC-Pad1)*%
X173805000Y-95690000D03*
D15*
%TO.P,U2,2,VIN-*%
%TO.N,Net-(U1-VIOUT)*%
X173805000Y-98230000D03*
%TO.P,U2,3,VIN+*%
%TO.N,Net-(U2-VIN+)*%
X173805000Y-100770000D03*
%TO.P,U2,4,VSS*%
%TO.N,GND*%
X173805000Y-103310000D03*
%TO.P,U2,5,NC*%
%TO.N,unconnected-(U2-NC-Pad5)*%
X166185000Y-103310000D03*
%TO.P,U2,6,OUT*%
%TO.N,Net-(D1-K)*%
X166185000Y-100770000D03*
%TO.P,U2,7,VDD*%
%TO.N,3.3*%
X166185000Y-98230000D03*
%TO.P,U2,8,NC*%
%TO.N,unconnected-(U2-NC-Pad8)*%
X166185000Y-95690000D03*
%TD*%
D16*
%TO.P,R4,2*%
%TO.N,3.3*%
X151000000Y-100000000D03*
%TO.P,R4,1*%
%TO.N,Net-(D1-A)*%
X151000000Y-112700000D03*
%TD*%
%TO.P,R3,2*%
%TO.N,3.3*%
X151000000Y-80000000D03*
%TO.P,R3,1*%
%TO.N,Net-(D1-K)*%
X151000000Y-92700000D03*
%TD*%
%TO.P,R2,2*%
%TO.N,GND*%
X185850000Y-122000000D03*
%TO.P,R2,1*%
%TO.N,Net-(U2-VIN+)*%
X173150000Y-122000000D03*
%TD*%
%TO.P,R1,2*%
%TO.N,Net-(U2-VIN+)*%
X166850000Y-122000000D03*
%TO.P,R1,1*%
%TO.N,3.3*%
X154150000Y-122000000D03*
%TD*%
D17*
%TO.P,J2,2,Pin_2*%
%TO.N,Current-*%
X160000000Y-69500000D03*
D18*
%TO.P,J2,1,Pin_1*%
%TO.N,Current+*%
X165000000Y-69500000D03*
%TD*%
D17*
%TO.P,J1,2,Pin_2*%
%TO.N,GND*%
X179500000Y-69837500D03*
D18*
%TO.P,J1,1,Pin_1*%
%TO.N,3.3*%
X184500000Y-69837500D03*
%TD*%
D19*
%TO.P,D1,2,A*%
%TO.N,Net-(D1-A)*%
X158460000Y-109500000D03*
D20*
%TO.P,D1,1,K*%
%TO.N,Net-(D1-K)*%
X161000000Y-109500000D03*
%TD*%
D29*
%TO.P,C2,2*%
%TO.N,GND*%
X167550000Y-87000000D03*
%TO.P,C2,1*%
%TO.N,3.3*%
X169450000Y-87000000D03*
%TD*%
D30*
%TO.P,C1,2*%
%TO.N,3.3*%
X160500000Y-90000000D03*
%TO.P,C1,1*%
%TO.N,GND*%
X158600000Y-90000000D03*
%TD*%
D31*
%TO.N,3.3*%
X169450000Y-86275000D02*
X166150000Y-82975000D01*
X166150000Y-82975000D02*
X164405000Y-82975000D01*
X169450000Y-87000000D02*
X169450000Y-86275000D01*
%TO.N,Net-(U1-VIOUT)*%
X163135000Y-87560000D02*
X173805000Y-98230000D01*
X163135000Y-82975000D02*
X163135000Y-87560000D01*
%TO.N,3.3*%
X175250000Y-70250000D02*
X175250000Y-78750000D01*
X151000000Y-70000000D02*
X158500000Y-62500000D01*
X151000000Y-80000000D02*
X151000000Y-70000000D01*
X158500000Y-62500000D02*
X167500000Y-62500000D01*
X167500000Y-62500000D02*
X175250000Y-70250000D01*
X175250000Y-78750000D02*
X184162500Y-69837500D01*
%TO.N,Net-(D1-K)*%
X161000000Y-105955000D02*
X161000000Y-109500000D01*
X166185000Y-100770000D02*
X161000000Y-105955000D01*
%TO.N,3.3*%
X184162500Y-69837500D02*
X184500000Y-69837500D01*
X171025000Y-82975000D02*
X175250000Y-78750000D01*
X164405000Y-82975000D02*
X171025000Y-82975000D01*
X166185000Y-98230000D02*
X160500000Y-92545000D01*
X160500000Y-92545000D02*
X160500000Y-90000000D01*
X182950000Y-71387500D02*
X184500000Y-69837500D01*
%TO.N,Net-(U2-VIN+)*%
X172730000Y-100770000D02*
X173805000Y-100770000D01*
X171000000Y-102500000D02*
X172730000Y-100770000D01*
X171000000Y-119850000D02*
X171000000Y-102500000D01*
X173150000Y-122000000D02*
X171000000Y-119850000D01*
X166850000Y-122000000D02*
X173150000Y-122000000D01*
%TO.N,3.3*%
X147000000Y-119500000D02*
X147000000Y-100000000D01*
X149500000Y-122000000D02*
X147000000Y-119500000D01*
X154150000Y-122000000D02*
X149500000Y-122000000D01*
%TO.N,Net-(D1-A)*%
X155260000Y-112700000D02*
X158460000Y-109500000D01*
X151000000Y-112700000D02*
X155260000Y-112700000D01*
%TO.N,3.3*%
X147000000Y-100000000D02*
X151000000Y-100000000D01*
X146000000Y-99000000D02*
X147000000Y-100000000D01*
X146000000Y-85000000D02*
X146000000Y-99000000D01*
X151000000Y-80000000D02*
X146000000Y-85000000D01*
%TO.N,Net-(D1-K)*%
X161000000Y-102700000D02*
X161000000Y-109500000D01*
X151000000Y-92700000D02*
X161000000Y-102700000D01*
%TO.N,3.3*%
X160500000Y-89500000D02*
X160500000Y-90000000D01*
X151000000Y-80000000D02*
X160500000Y-89500000D01*
%TD*%
%TA.AperFunction,Conductor*%
%TO.N,GND*%
G36*
X190442539Y-61020185D02*
G01*
X190488294Y-61072989D01*
X190499500Y-61124500D01*
X190499500Y-126375500D01*
X190479815Y-126442539D01*
X190427011Y-126488294D01*
X190375500Y-126499500D01*
X144624500Y-126499500D01*
X144557461Y-126479815D01*
X144511706Y-126427011D01*
X144500500Y-126375500D01*
X144500500Y-84901577D01*
X144749500Y-84901577D01*
X144749500Y-99098422D01*
X144780290Y-99292826D01*
X144841117Y-99480030D01*
X144930476Y-99655405D01*
X145046172Y-99814646D01*
X145046174Y-99814648D01*
X145713181Y-100481655D01*
X145746666Y-100542978D01*
X145749500Y-100569336D01*
X145749500Y-119598422D01*
X145780290Y-119792826D01*
X145841117Y-119980030D01*
X145924067Y-120142826D01*
X145930476Y-120155405D01*
X146046172Y-120314646D01*
X148685354Y-122953828D01*
X148844595Y-123069524D01*
X148927454Y-123111742D01*
X149019969Y-123158882D01*
X149019971Y-123158882D01*
X149019974Y-123158884D01*
X149120318Y-123191487D01*
X149207173Y-123219709D01*
X149401578Y-123250500D01*
X149401583Y-123250500D01*
X149401584Y-123250500D01*
X149598417Y-123250500D01*
X152274722Y-123250500D01*
X152341761Y-123270185D01*
X152373098Y-123299014D01*
X152492024Y-123454002D01*
X152492030Y-123454009D01*
X152695990Y-123657969D01*
X152695997Y-123657975D01*
X152750765Y-123700000D01*
X152924844Y-123833575D01*
X152924851Y-123833579D01*
X153174647Y-123977800D01*
X153174663Y-123977808D01*
X153441139Y-124088185D01*
X153441145Y-124088186D01*
X153441155Y-124088191D01*
X153719783Y-124162849D01*
X154005772Y-124200500D01*
X154005779Y-124200500D01*
X154294221Y-124200500D01*
X154294228Y-124200500D01*
X154580217Y-124162849D01*
X154858845Y-124088191D01*
X154858857Y-124088185D01*
X154858860Y-124088185D01*
X155125336Y-123977808D01*
X155125339Y-123977806D01*
X155125345Y-123977804D01*
X155375156Y-123833575D01*
X155604004Y-123657974D01*
X155807974Y-123454004D01*
X155983575Y-123225156D01*
X156127804Y-122975345D01*
X156139751Y-122946504D01*
X156238185Y-122708860D01*
X156238185Y-122708857D01*
X156238191Y-122708845D01*
X156312849Y-122430217D01*
X156350500Y-122144228D01*
X156350500Y-121855772D01*
X156312849Y-121569783D01*
X156238191Y-121291155D01*
X156238186Y-121291145D01*
X156238185Y-121291139D01*
X156127808Y-121024663D01*
X156127800Y-121024647D01*
X155983579Y-120774851D01*
X155983575Y-120774844D01*
X155875534Y-120634042D01*
X155807975Y-120545997D01*
X155807969Y-120545990D01*
X155604009Y-120342030D01*
X155604002Y-120342024D01*
X155375164Y-120166431D01*
X155375162Y-120166429D01*
X155375156Y-120166425D01*
X155375151Y-120166422D01*
X155375148Y-120166420D01*
X155125352Y-120022199D01*
X155125336Y-120022191D01*
X154858860Y-119911814D01*
X154858848Y-119911810D01*
X154858845Y-119911809D01*
X154580217Y-119837151D01*
X154580211Y-119837150D01*
X154580206Y-119837149D01*
X154294238Y-119799501D01*
X154294233Y-119799500D01*
X154294228Y-119799500D01*
X154005772Y-119799500D01*
X154005766Y-119799500D01*
X154005761Y-119799501D01*
X153719793Y-119837149D01*
X153719786Y-119837150D01*
X153719783Y-119837151D01*
X153441155Y-119911809D01*
X153441139Y-119911814D01*
X153174663Y-120022191D01*
X153174647Y-120022199D01*
X152924851Y-120166420D01*
X152924835Y-120166431D01*
X152695997Y-120342024D01*
X152695990Y-120342030D01*
X152492030Y-120545990D01*
X152492024Y-120545997D01*
X152373098Y-120700986D01*
X152316670Y-120742189D01*
X152274722Y-120749500D01*
X150069336Y-120749500D01*
X150002297Y-120729815D01*
X149981655Y-120713181D01*
X148286819Y-119018345D01*
X148253334Y-118957022D01*
X148250500Y-118930664D01*
X148250500Y-101374500D01*
X148270185Y-101307461D01*
X148322989Y-101261706D01*
X148374500Y-101250500D01*
X149124722Y-101250500D01*
X149191761Y-101270185D01*
X149223098Y-101299014D01*
X149342024Y-101454002D01*
X149342030Y-101454009D01*
X149545990Y-101657969D01*
X149545996Y-101657974D01*
X149774844Y-101833575D01*
X149774851Y-101833579D01*
X150024647Y-101977800D01*
X150024663Y-101977808D01*
X150291139Y-102088185D01*
X150291145Y-102088186D01*
X150291155Y-102088191D01*
X150569783Y-102162849D01*
X150855772Y-102200500D01*
X150855779Y-102200500D01*
X151144221Y-102200500D01*
X151144228Y-102200500D01*
X151430217Y-102162849D01*
X151708845Y-102088191D01*
X151708857Y-102088185D01*
X151708860Y-102088185D01*
X151975336Y-101977808D01*
X151975339Y-101977806D01*
X151975345Y-101977804D01*
X152225156Y-101833575D01*
X152454004Y-101657974D01*
X152657974Y-101454004D01*
X152833575Y-101225156D01*
X152977804Y-100975345D01*
X153049595Y-100802026D01*
X153088185Y-100708860D01*
X153088185Y-100708857D01*
X153088191Y-100708845D01*
X153162849Y-100430217D01*
X153200500Y-100144228D01*
X153200500Y-99855772D01*
X153162849Y-99569783D01*
X153088191Y-99291155D01*
X153088186Y-99291145D01*
X153088185Y-99291139D01*
X152977808Y-99024663D01*
X152977800Y-99024647D01*
X152833579Y-98774851D01*
X152833575Y-98774844D01*
X152685612Y-98582014D01*
X152657975Y-98545997D01*
X152657969Y-98545990D01*
X152454009Y-98342030D01*
X152454002Y-98342024D01*
X152225164Y-98166431D01*
X152225162Y-98166429D01*
X152225156Y-98166425D01*
X152225151Y-98166422D01*
X152225148Y-98166420D01*
X151975352Y-98022199D01*
X151975336Y-98022191D01*
X151708860Y-97911814D01*
X151708848Y-97911810D01*
X151708845Y-97911809D01*
X151430217Y-97837151D01*
X151430211Y-97837150D01*
X151430206Y-97837149D01*
X151144238Y-97799501D01*
X151144233Y-97799500D01*
X151144228Y-97799500D01*
X150855772Y-97799500D01*
X150855766Y-97799500D01*
X150855761Y-97799501D01*
X150569793Y-97837149D01*
X150569786Y-97837150D01*
X150569783Y-97837151D01*
X150291155Y-97911809D01*
X150291139Y-97911814D01*
X150024663Y-98022191D01*
X150024647Y-98022199D01*
X149774851Y-98166420D01*
X149774835Y-98166431D01*
X149545997Y-98342024D01*
X149545990Y-98342030D01*
X149342030Y-98545990D01*
X149342024Y-98545997D01*
X149223098Y-98700986D01*
X149166670Y-98742189D01*
X149124722Y-98749500D01*
X147569336Y-98749500D01*
X147502297Y-98729815D01*
X147481655Y-98713181D01*
X147286819Y-98518345D01*
X147253334Y-98457022D01*
X147250500Y-98430664D01*
X147250500Y-85569335D01*
X147270185Y-85502296D01*
X147286814Y-85481659D01*
X150558217Y-82210255D01*
X150619538Y-82176772D01*
X150662077Y-82174999D01*
X150855772Y-82200500D01*
X150855779Y-82200500D01*
X151144221Y-82200500D01*
X151144228Y-82200500D01*
X151337919Y-82174999D01*
X151406951Y-82185764D01*
X151441783Y-82210257D01*
X157945524Y-88713998D01*
X157979009Y-88775321D01*
X157974025Y-88845013D01*
X157932153Y-88900946D01*
X157922942Y-88907216D01*
X157881658Y-88932680D01*
X157757684Y-89056654D01*
X157665643Y-89205875D01*
X157665641Y-89205880D01*
X157610494Y-89372302D01*
X157610493Y-89372309D01*
X157600000Y-89475013D01*
X157600000Y-89750000D01*
X158476000Y-89750000D01*
X158543039Y-89769685D01*
X158588794Y-89822489D01*
X158600000Y-89874000D01*
X158600000Y-90000000D01*
X158726000Y-90000000D01*
X158793039Y-90019685D01*
X158838794Y-90072489D01*
X158850000Y-90124000D01*
X158850000Y-91224999D01*
X158899972Y-91224999D01*
X158899986Y-91224998D01*
X159002695Y-91214506D01*
X159086495Y-91186737D01*
X159156324Y-91184335D01*
X159216366Y-91220066D01*
X159247559Y-91282587D01*
X159249500Y-91304443D01*
X159249500Y-92643422D01*
X159280290Y-92837826D01*
X159341117Y-93025030D01*
X159430476Y-93200405D01*
X159546172Y-93359646D01*
X159546174Y-93359648D01*
X164348181Y-98161655D01*
X164381666Y-98222978D01*
X164384500Y-98249336D01*
X164384500Y-98348004D01*
X164384501Y-98348020D01*
X164415306Y-98582010D01*
X164476394Y-98809993D01*
X164566714Y-99028045D01*
X164566719Y-99028056D01*
X164637677Y-99150957D01*
X164684727Y-99232450D01*
X164684729Y-99232453D01*
X164684730Y-99232454D01*
X164830879Y-99422920D01*
X164829720Y-99423808D01*
X164856537Y-99481662D01*
X164846983Y-99550876D01*
X164830385Y-99576701D01*
X164830879Y-99577080D01*
X164684730Y-99767545D01*
X164566719Y-99971943D01*
X164566714Y-99971954D01*
X164476394Y-100190006D01*
X164415306Y-100417989D01*
X164384501Y-100651979D01*
X164384500Y-100651995D01*
X164384500Y-100750664D01*
X164364815Y-100817703D01*
X164348181Y-100838345D01*
X162462181Y-102724345D01*
X162400858Y-102757830D01*
X162331166Y-102752846D01*
X162275233Y-102710974D01*
X162250816Y-102645510D01*
X162250500Y-102636664D01*
X162250500Y-102601577D01*
X162231022Y-102478602D01*
X162219709Y-102407174D01*
X162219708Y-102407170D01*
X162219708Y-102407169D01*
X162160391Y-102224612D01*
X162159329Y-102220847D01*
X162111304Y-102126593D01*
X162069524Y-102044595D01*
X161953829Y-101885355D01*
X153210257Y-93141783D01*
X153176772Y-93080460D01*
X153174999Y-93037921D01*
X153200500Y-92844228D01*
X153200500Y-92555772D01*
X153162849Y-92269783D01*
X153088191Y-91991155D01*
X153088186Y-91991145D01*
X153088185Y-91991139D01*
X152977808Y-91724663D01*
X152977800Y-91724647D01*
X152833579Y-91474851D01*
X152833575Y-91474844D01*
X152657974Y-91245996D01*
X152657969Y-91245990D01*
X152454009Y-91042030D01*
X152454002Y-91042024D01*
X152225164Y-90866431D01*
X152225162Y-90866429D01*
X152225156Y-90866425D01*
X152225151Y-90866422D01*
X152225148Y-90866420D01*
X151975352Y-90722199D01*
X151975336Y-90722191D01*
X151708860Y-90611814D01*
X151708848Y-90611810D01*
X151708845Y-90611809D01*
X151430217Y-90537151D01*
X151430211Y-90537150D01*
X151430206Y-90537149D01*
X151337818Y-90524986D01*
X157600001Y-90524986D01*
X157610494Y-90627697D01*
X157665641Y-90794119D01*
X157665643Y-90794124D01*
X157757684Y-90943345D01*
X157881654Y-91067315D01*
X158030875Y-91159356D01*
X158030880Y-91159358D01*
X158197302Y-91214505D01*
X158197309Y-91214506D01*
X158300019Y-91224999D01*
X158349999Y-91224998D01*
X158350000Y-91224998D01*
X158350000Y-90250000D01*
X157600001Y-90250000D01*
X157600001Y-90524986D01*
X151337818Y-90524986D01*
X151144238Y-90499501D01*
X151144233Y-90499500D01*
X151144228Y-90499500D01*
X150855772Y-90499500D01*
X150855766Y-90499500D01*
X150855761Y-90499501D01*
X150569793Y-90537149D01*
X150569786Y-90537150D01*
X150569783Y-90537151D01*
X150291155Y-90611809D01*
X150291139Y-90611814D01*
X150024663Y-90722191D01*
X150024647Y-90722199D01*
X149774851Y-90866420D01*
X149774835Y-90866431D01*
X149545997Y-91042024D01*
X149545990Y-91042030D01*
X149342030Y-91245990D01*
X149342024Y-91245997D01*
X149166431Y-91474835D01*
X149166420Y-91474851D01*
X149022199Y-91724647D01*
X149022191Y-91724663D01*
X148911814Y-91991139D01*
X148911809Y-91991155D01*
X148837152Y-92269780D01*
X148837149Y-92269793D01*
X148799501Y-92555761D01*
X148799500Y-92555778D01*
X148799500Y-92844221D01*
X148799501Y-92844238D01*
X148837149Y-93130206D01*
X148837150Y-93130211D01*
X148837151Y-93130217D01*
X148898627Y-93359648D01*
X148911809Y-93408844D01*
X148911814Y-93408860D01*
X149022191Y-93675336D01*
X149022199Y-93675352D01*
X149166420Y-93925148D01*
X149166431Y-93925164D01*
X149342024Y-94154002D01*
X149342030Y-94154009D01*
X149545990Y-94357969D01*
X149545996Y-94357974D01*
X149774844Y-94533575D01*
X149774851Y-94533579D01*
X150024647Y-94677800D01*
X150024663Y-94677808D01*
X150291139Y-94788185D01*
X150291145Y-94788186D01*
X150291155Y-94788191D01*
X150569783Y-94862849D01*
X150855772Y-94900500D01*
X150855779Y-94900500D01*
X151144221Y-94900500D01*
X151144228Y-94900500D01*
X151337919Y-94874999D01*
X151406951Y-94885764D01*
X151441783Y-94910257D01*
X159713181Y-103181655D01*
X159746666Y-103242978D01*
X159749500Y-103269336D01*
X159749500Y-107579186D01*
X159729815Y-107646225D01*
X159682912Y-107689094D01*
X159546595Y-107760300D01*
X159546593Y-107760301D01*
X159488999Y-107807263D01*
X159424602Y-107834371D01*
X159355773Y-107822361D01*
X159348640Y-107818548D01*
X159302373Y-107791836D01*
X159302371Y-107791835D01*
X159302361Y-107791830D01*
X159072207Y-107696498D01*
X158831561Y-107632017D01*
X158584575Y-107599501D01*
X158584570Y-107599500D01*
X158584565Y-107599500D01*
X158335435Y-107599500D01*
X158335429Y-107599500D01*
X158335424Y-107599501D01*
X158088438Y-107632017D01*
X157847792Y-107696498D01*
X157617638Y-107791830D01*
X157617623Y-107791837D01*
X157401873Y-107916400D01*
X157204225Y-108068060D01*
X157204218Y-108068066D01*
X157028066Y-108244218D01*
X157028060Y-108244225D01*
X156876400Y-108441873D01*
X156751837Y-108657623D01*
X156751830Y-108657638D01*
X156656498Y-108887792D01*
X156592017Y-109128438D01*
X156559501Y-109375424D01*
X156559500Y-109375441D01*
X156559500Y-109580663D01*
X156539815Y-109647702D01*
X156523181Y-109668344D01*
X154778345Y-111413181D01*
X154717022Y-111446666D01*
X154690664Y-111449500D01*
X152875278Y-111449500D01*
X152808239Y-111429815D01*
X152776902Y-111400986D01*
X152657975Y-111245997D01*
X152657969Y-111245990D01*
X152454009Y-111042030D01*
X152454002Y-111042024D01*
X152225164Y-110866431D01*
X152225162Y-110866429D01*
X152225156Y-110866425D01*
X152225151Y-110866422D01*
X152225148Y-110866420D01*
X151975352Y-110722199D01*
X151975336Y-110722191D01*
X151708860Y-110611814D01*
X151708848Y-110611810D01*
X151708845Y-110611809D01*
X151430217Y-110537151D01*
X151430211Y-110537150D01*
X151430206Y-110537149D01*
X151144238Y-110499501D01*
X151144233Y-110499500D01*
X151144228Y-110499500D01*
X150855772Y-110499500D01*
X150855766Y-110499500D01*
X150855761Y-110499501D01*
X150569793Y-110537149D01*
X150569786Y-110537150D01*
X150569783Y-110537151D01*
X150291155Y-110611809D01*
X150291139Y-110611814D01*
X150024663Y-110722191D01*
X150024647Y-110722199D01*
X149774851Y-110866420D01*
X149774835Y-110866431D01*
X149545997Y-111042024D01*
X149545990Y-111042030D01*
X149342030Y-111245990D01*
X149342024Y-111245997D01*
X149166431Y-111474835D01*
X149166420Y-111474851D01*
X149022199Y-111724647D01*
X149022191Y-111724663D01*
X148911814Y-111991139D01*
X148911809Y-111991155D01*
X148837152Y-112269780D01*
X148837149Y-112269793D01*
X148799501Y-112555761D01*
X148799500Y-112555778D01*
X148799500Y-112844221D01*
X148799501Y-112844238D01*
X148837149Y-113130206D01*
X148837150Y-113130211D01*
X148837151Y-113130217D01*
X148837152Y-113130219D01*
X148911809Y-113408844D01*
X148911814Y-113408860D01*
X149022191Y-113675336D01*
X149022199Y-113675352D01*
X149166420Y-113925148D01*
X149166431Y-113925164D01*
X149342024Y-114154002D01*
X149342030Y-114154009D01*
X149545990Y-114357969D01*
X149545996Y-114357974D01*
X149774844Y-114533575D01*
X149774851Y-114533579D01*
X150024647Y-114677800D01*
X150024663Y-114677808D01*
X150291139Y-114788185D01*
X150291145Y-114788186D01*
X150291155Y-114788191D01*
X150569783Y-114862849D01*
X150855772Y-114900500D01*
X150855779Y-114900500D01*
X151144221Y-114900500D01*
X151144228Y-114900500D01*
X151430217Y-114862849D01*
X151708845Y-114788191D01*
X151708857Y-114788185D01*
X151708860Y-114788185D01*
X151975336Y-114677808D01*
X151975339Y-114677806D01*
X151975345Y-114677804D01*
X152225156Y-114533575D01*
X152454004Y-114357974D01*
X152657974Y-114154004D01*
X152776902Y-113999014D01*
X152833330Y-113957811D01*
X152875278Y-113950500D01*
X155358422Y-113950500D01*
X155552826Y-113919709D01*
X155740026Y-113858884D01*
X155915405Y-113769524D01*
X156074646Y-113653828D01*
X158291654Y-111436818D01*
X158352977Y-111403334D01*
X158379335Y-111400500D01*
X158584558Y-111400500D01*
X158584565Y-111400500D01*
X158831565Y-111367982D01*
X159072207Y-111303502D01*
X159253137Y-111228557D01*
X159302364Y-111208168D01*
X159302367Y-111208166D01*
X159302373Y-111208164D01*
X159302379Y-111208160D01*
X159302384Y-111208158D01*
X159348638Y-111181453D01*
X159416537Y-111164979D01*
X159482565Y-111187831D01*
X159489001Y-111192737D01*
X159546593Y-111239698D01*
X159726951Y-111333909D01*
X159922582Y-111389886D01*
X160041963Y-111400500D01*
X161958036Y-111400499D01*
X162077418Y-111389886D01*
X162273049Y-111333909D01*
X162453407Y-111239698D01*
X162611109Y-111111109D01*
X162739698Y-110953407D01*
X162833909Y-110773049D01*
X162889886Y-110577418D01*
X162900500Y-110458037D01*
X162900499Y-108541964D01*
X162889886Y-108422582D01*
X162833909Y-108226951D01*
X162739698Y-108046593D01*
X162687684Y-107982803D01*
X162611109Y-107888890D01*
X162511000Y-107807263D01*
X162453407Y-107760302D01*
X162453404Y-107760300D01*
X162317088Y-107689094D01*
X162266781Y-107640608D01*
X162250500Y-107579186D01*
X162250500Y-106524335D01*
X162270185Y-106457296D01*
X162286814Y-106436659D01*
X164470278Y-104253194D01*
X164531599Y-104219711D01*
X164601291Y-104224695D01*
X164657224Y-104266567D01*
X164665337Y-104278866D01*
X164684726Y-104312448D01*
X164684733Y-104312458D01*
X164828406Y-104499697D01*
X164828412Y-104499704D01*
X164995295Y-104666587D01*
X164995301Y-104666592D01*
X165182550Y-104810273D01*
X165313918Y-104886118D01*
X165386943Y-104928280D01*
X165386948Y-104928282D01*
X165386951Y-104928284D01*
X165605007Y-105018606D01*
X165832986Y-105079693D01*
X166066989Y-105110500D01*
X166066996Y-105110500D01*
X166303004Y-105110500D01*
X166303011Y-105110500D01*
X166537014Y-105079693D01*
X166764993Y-105018606D01*
X166983049Y-104928284D01*
X167187450Y-104810273D01*
X167374699Y-104666592D01*
X167541592Y-104499699D01*
X167685273Y-104312450D01*
X167803284Y-104108049D01*
X167893606Y-103889993D01*
X167954693Y-103662014D01*
X167985500Y-103428011D01*
X167985500Y-103191989D01*
X167954693Y-102957986D01*
X167893606Y-102730007D01*
X167803284Y-102511951D01*
X167803282Y-102511948D01*
X167803280Y-102511943D01*
X167739563Y-102401583D01*
X167685273Y-102307550D01*
X167618744Y-102220847D01*
X167539121Y-102117080D01*
X167540286Y-102116185D01*
X167513469Y-102058381D01*
X167522998Y-101989165D01*
X167539619Y-101963302D01*
X167539121Y-101962920D01*
X167638370Y-101833575D01*
X167685273Y-101772450D01*
X167803284Y-101568049D01*
X167893606Y-101349993D01*
X167954693Y-101122014D01*
X167985500Y-100888011D01*
X167985500Y-100651989D01*
X167954693Y-100417986D01*
X167893606Y-100190007D01*
X167803284Y-99971951D01*
X167803282Y-99971948D01*
X167803280Y-99971943D01*
X167736208Y-99855772D01*
X167685273Y-99767550D01*
X167633805Y-99700476D01*
X167539121Y-99577080D01*
X167540286Y-99576185D01*
X167513469Y-99518381D01*
X167522998Y-99449165D01*
X167539619Y-99423302D01*
X167539121Y-99422920D01*
X167593814Y-99351641D01*
X167685273Y-99232450D01*
X167803284Y-99028049D01*
X167893606Y-98809993D01*
X167954693Y-98582014D01*
X167985500Y-98348011D01*
X167985500Y-98111989D01*
X167954693Y-97877986D01*
X167893606Y-97650007D01*
X167803284Y-97431951D01*
X167803282Y-97431948D01*
X167803280Y-97431943D01*
X167761118Y-97358918D01*
X167685273Y-97227550D01*
X167575421Y-97084388D01*
X167539121Y-97037080D01*
X167540286Y-97036185D01*
X167513469Y-96978381D01*
X167522998Y-96909165D01*
X167539619Y-96883302D01*
X167539121Y-96882920D01*
X167593814Y-96811641D01*
X167685273Y-96692450D01*
X167803284Y-96488049D01*
X167893606Y-96269993D01*
X167954693Y-96042014D01*
X167985500Y-95808011D01*
X167985500Y-95571989D01*
X167954693Y-95337986D01*
X167893606Y-95110007D01*
X167803284Y-94891951D01*
X167803282Y-94891948D01*
X167803280Y-94891943D01*
X167743378Y-94788191D01*
X167685273Y-94687550D01*
X167541592Y-94500301D01*
X167541587Y-94500295D01*
X167374704Y-94333412D01*
X167374697Y-94333406D01*
X167187454Y-94189730D01*
X167187453Y-94189729D01*
X167187450Y-94189727D01*
X167105957Y-94142677D01*
X166983056Y-94071719D01*
X166983045Y-94071714D01*
X166764993Y-93981394D01*
X166666131Y-93954904D01*
X166537014Y-93920307D01*
X166537013Y-93920306D01*
X166537010Y-93920306D01*
X166303020Y-93889501D01*
X166303017Y-93889500D01*
X166303011Y-93889500D01*
X166066989Y-93889500D01*
X166066983Y-93889500D01*
X166066979Y-93889501D01*
X165832989Y-93920306D01*
X165605006Y-93981394D01*
X165386954Y-94071714D01*
X165386943Y-94071719D01*
X165182545Y-94189730D01*
X164995302Y-94333406D01*
X164995295Y-94333412D01*
X164828412Y-94500295D01*
X164828406Y-94500302D01*
X164684733Y-94687541D01*
X164684723Y-94687556D01*
X164665343Y-94721123D01*
X164614775Y-94769338D01*
X164546168Y-94782559D01*
X164481304Y-94756590D01*
X164470276Y-94746802D01*
X161786819Y-92063345D01*
X161753334Y-92002022D01*
X161750500Y-91975664D01*
X161750500Y-91265465D01*
X161770185Y-91198426D01*
X161772552Y-91194877D01*
X161842007Y-91094626D01*
X161935096Y-90889683D01*
X161990096Y-90671412D01*
X162000500Y-90539217D01*
X162000499Y-89460784D01*
X161990096Y-89328588D01*
X161935096Y-89110317D01*
X161842007Y-88905374D01*
X161717389Y-88725499D01*
X161713825Y-88720354D01*
X161713822Y-88720350D01*
X161713819Y-88720346D01*
X161554654Y-88561181D01*
X161554650Y-88561178D01*
X161554645Y-88561174D01*
X161369632Y-88432997D01*
X161369630Y-88432995D01*
X161369626Y-88432993D01*
X161241170Y-88374646D01*
X161164681Y-88339903D01*
X161122592Y-88329297D01*
X161065211Y-88296737D01*
X153210257Y-80441783D01*
X153176772Y-80380460D01*
X153174999Y-80337921D01*
X153200500Y-80144228D01*
X153200500Y-79855772D01*
X153162849Y-79569783D01*
X153088191Y-79291155D01*
X153088186Y-79291145D01*
X153088185Y-79291139D01*
X152977808Y-79024663D01*
X152977800Y-79024647D01*
X152833579Y-78774851D01*
X152833575Y-78774844D01*
X152657974Y-78545996D01*
X152657969Y-78545990D01*
X152454009Y-78342030D01*
X152299013Y-78223097D01*
X152257811Y-78166669D01*
X152250500Y-78124721D01*
X152250500Y-70569336D01*
X152270185Y-70502297D01*
X152286819Y-70481655D01*
X158981656Y-63786819D01*
X159042979Y-63753334D01*
X159069337Y-63750500D01*
X166930664Y-63750500D01*
X166997703Y-63770185D01*
X167018345Y-63786819D01*
X173963181Y-70731655D01*
X173996666Y-70792978D01*
X173999500Y-70819336D01*
X173999500Y-78180664D01*
X173979815Y-78247703D01*
X173963181Y-78268345D01*
X170543345Y-81688181D01*
X170482022Y-81721666D01*
X170455664Y-81724500D01*
X165705583Y-81724500D01*
X165638544Y-81704815D01*
X165592789Y-81652011D01*
X165592149Y-81650587D01*
X165564409Y-81587763D01*
X165443911Y-81411858D01*
X165443906Y-81411852D01*
X165293147Y-81261093D01*
X165293134Y-81261082D01*
X165250386Y-81231799D01*
X165206203Y-81177673D01*
X165198297Y-81108252D01*
X165229178Y-81045577D01*
X165289041Y-81009547D01*
X165320463Y-81005500D01*
X165392456Y-81005500D01*
X165402024Y-81004813D01*
X165535990Y-80995202D01*
X165571032Y-80990148D01*
X165594379Y-80986501D01*
X165790562Y-80932610D01*
X165971880Y-80840332D01*
X166030624Y-80802504D01*
X166162697Y-80701051D01*
X166298603Y-80549653D01*
X166401250Y-80373997D01*
X166430218Y-80310415D01*
X166461603Y-80233196D01*
X166510603Y-80035735D01*
X167494148Y-73150921D01*
X167501725Y-73079987D01*
X167502971Y-73062451D01*
X167505500Y-72991186D01*
X167505500Y-72551244D01*
X167506009Y-72540018D01*
X167987428Y-67244403D01*
X167990062Y-67208180D01*
X167990550Y-67199241D01*
X167989956Y-67079645D01*
X167956375Y-66878986D01*
X167937930Y-66811595D01*
X167880809Y-66655148D01*
X167777200Y-66480058D01*
X167777198Y-66480055D01*
X167640468Y-66329408D01*
X167588509Y-66282680D01*
X167455878Y-66181953D01*
X167274055Y-66090672D01*
X167077579Y-66037861D01*
X167077575Y-66037860D01*
X167008601Y-66026641D01*
X166925870Y-66016683D01*
X166722478Y-66021365D01*
X166722465Y-66021366D01*
X162983905Y-66488685D01*
X162834218Y-66519087D01*
X162834202Y-66519091D01*
X162798096Y-66529333D01*
X162767067Y-66538678D01*
X162767055Y-66538682D01*
X162580475Y-66619770D01*
X162580465Y-66619775D01*
X162557849Y-66635672D01*
X162491683Y-66658117D01*
X162423886Y-66641226D01*
X162417596Y-66637285D01*
X162409238Y-66631693D01*
X162409231Y-66631690D01*
X162220828Y-66554916D01*
X162220822Y-66554914D01*
X162153793Y-66535233D01*
X162153795Y-66535233D01*
X162153790Y-66535232D01*
X162072906Y-66515083D01*
X162072902Y-66515082D01*
X162072903Y-66515082D01*
X161870501Y-66494500D01*
X161870500Y-66494500D01*
X157624000Y-66494500D01*
X157623347Y-66494503D01*
X157612420Y-66494566D01*
X157612406Y-66494567D01*
X157410254Y-66517481D01*
X157358753Y-66528685D01*
X157267058Y-66553217D01*
X157080475Y-66634306D01*
X157080468Y-66634310D01*
X156914033Y-66751294D01*
X156914020Y-66751305D01*
X156861225Y-66797052D01*
X156744819Y-66916169D01*
X156631693Y-67085261D01*
X156631690Y-67085268D01*
X156554916Y-67273671D01*
X156554914Y-67273677D01*
X156535233Y-67340706D01*
X156515082Y-67421597D01*
X156494500Y-67623998D01*
X156494500Y-72484749D01*
X156502032Y-72607571D01*
X156502033Y-72607582D01*
X156505735Y-72637656D01*
X156528222Y-72758671D01*
X156528224Y-72758678D01*
X158496757Y-80632811D01*
X158553825Y-80798274D01*
X158555711Y-80802506D01*
X158571340Y-80837572D01*
X158594997Y-80886984D01*
X158705661Y-81057703D01*
X158705663Y-81057705D01*
X158848428Y-81202654D01*
X158902241Y-81247217D01*
X159038869Y-81342452D01*
X159192424Y-81411852D01*
X159224263Y-81426242D01*
X159422712Y-81470995D01*
X159422718Y-81470995D01*
X159422729Y-81470998D01*
X159492093Y-81479394D01*
X159575187Y-81485972D01*
X159778223Y-81472999D01*
X159906000Y-81451702D01*
X159975359Y-81460097D01*
X160029173Y-81504660D01*
X160050351Y-81571243D01*
X160032170Y-81638706D01*
X160014064Y-81661696D01*
X159927318Y-81748442D01*
X159927314Y-81748447D01*
X159843717Y-81889803D01*
X159843716Y-81889806D01*
X159797900Y-82047504D01*
X159797899Y-82047510D01*
X159795000Y-82084350D01*
X159795000Y-82725000D01*
X160440500Y-82725000D01*
X160507539Y-82744685D01*
X160553294Y-82797489D01*
X160564500Y-82849000D01*
X160564500Y-83145138D01*
X160544815Y-83212177D01*
X160492011Y-83257932D01*
X160422853Y-83267876D01*
X160359297Y-83238851D01*
X160352819Y-83232819D01*
X160345000Y-83225000D01*
X159795000Y-83225000D01*
X159795000Y-83865649D01*
X159797899Y-83902489D01*
X159797900Y-83902495D01*
X159843716Y-84060193D01*
X159843717Y-84060196D01*
X159927314Y-84201552D01*
X159927321Y-84201561D01*
X160043438Y-84317678D01*
X160043447Y-84317685D01*
X160184801Y-84401281D01*
X160342514Y-84447100D01*
X160342511Y-84447100D01*
X160344998Y-84447295D01*
X160345000Y-84447295D01*
X160345000Y-84069039D01*
X160364685Y-84002000D01*
X160417489Y-83956245D01*
X160486647Y-83946301D01*
X160550203Y-83975326D01*
X160587977Y-84034104D01*
X160589706Y-84040649D01*
X160619465Y-84167176D01*
X160619467Y-84167182D01*
X160619468Y-84167185D01*
X160705591Y-84362237D01*
X160705592Y-84362238D01*
X160826088Y-84538141D01*
X160826093Y-84538147D01*
X160976852Y-84688906D01*
X160976858Y-84688911D01*
X161152763Y-84809409D01*
X161347815Y-84895532D01*
X161347821Y-84895533D01*
X161347823Y-84895534D01*
X161555359Y-84944347D01*
X161555364Y-84944347D01*
X161555370Y-84944349D01*
X161604602Y-84947766D01*
X161643984Y-84950500D01*
X161643988Y-84950500D01*
X161760500Y-84950500D01*
X161827539Y-84970185D01*
X161873294Y-85022989D01*
X161884500Y-85074500D01*
X161884500Y-87658422D01*
X161915290Y-87852826D01*
X161976117Y-88040030D01*
X162045937Y-88177058D01*
X162065476Y-88215405D01*
X162181172Y-88374646D01*
X162181174Y-88374648D01*
X171968181Y-98161655D01*
X172001666Y-98222978D01*
X172004500Y-98249336D01*
X172004500Y-98348004D01*
X172004501Y-98348020D01*
X172035306Y-98582010D01*
X172096394Y-98809993D01*
X172186714Y-99028045D01*
X172186719Y-99028056D01*
X172257677Y-99150957D01*
X172304727Y-99232450D01*
X172304729Y-99232453D01*
X172304730Y-99232454D01*
X172419564Y-99382109D01*
X172444758Y-99447278D01*
X172430720Y-99515723D01*
X172381906Y-99565712D01*
X172359508Y-99575526D01*
X172249969Y-99611118D01*
X172074591Y-99700478D01*
X172065375Y-99707173D01*
X172065376Y-99707174D01*
X171915352Y-99816173D01*
X170046174Y-101685351D01*
X170046174Y-101685352D01*
X170046172Y-101685354D01*
X169996485Y-101753741D01*
X169930476Y-101844594D01*
X169840669Y-102020851D01*
X169839608Y-102024612D01*
X169780291Y-102207169D01*
X169780291Y-102207172D01*
X169749500Y-102401577D01*
X169749500Y-119948422D01*
X169780290Y-120142826D01*
X169841117Y-120330030D01*
X169913478Y-120472045D01*
X169930476Y-120505405D01*
X169959967Y-120545996D01*
X169964776Y-120552614D01*
X169988256Y-120618420D01*
X169972431Y-120686474D01*
X169922326Y-120735169D01*
X169864458Y-120749500D01*
X168725278Y-120749500D01*
X168658239Y-120729815D01*
X168626902Y-120700986D01*
X168507975Y-120545997D01*
X168507969Y-120545990D01*
X168304009Y-120342030D01*
X168304002Y-120342024D01*
X168075164Y-120166431D01*
X168075162Y-120166429D01*
X168075156Y-120166425D01*
X168075151Y-120166422D01*
X168075148Y-120166420D01*
X167825352Y-120022199D01*
X167825336Y-120022191D01*
X167558860Y-119911814D01*
X167558848Y-119911810D01*
X167558845Y-119911809D01*
X167280217Y-119837151D01*
X167280211Y-119837150D01*
X167280206Y-119837149D01*
X166994238Y-119799501D01*
X166994233Y-119799500D01*
X166994228Y-119799500D01*
X166705772Y-119799500D01*
X166705766Y-119799500D01*
X166705761Y-119799501D01*
X166419793Y-119837149D01*
X166419786Y-119837150D01*
X166419783Y-119837151D01*
X166141155Y-119911809D01*
X166141139Y-119911814D01*
X165874663Y-120022191D01*
X165874647Y-120022199D01*
X165624851Y-120166420D01*
X165624835Y-120166431D01*
X165395997Y-120342024D01*
X165395990Y-120342030D01*
X165192030Y-120545990D01*
X165192024Y-120545997D01*
X165016431Y-120774835D01*
X165016420Y-120774851D01*
X164872199Y-121024647D01*
X164872191Y-121024663D01*
X164761814Y-121291139D01*
X164761809Y-121291155D01*
X164687152Y-121569780D01*
X164687149Y-121569793D01*
X164649501Y-121855761D01*
X164649500Y-121855778D01*
X164649500Y-122144221D01*
X164649501Y-122144238D01*
X164687149Y-122430206D01*
X164687150Y-122430211D01*
X164687151Y-122430217D01*
X164721688Y-122559111D01*
X164761809Y-122708844D01*
X164761814Y-122708860D01*
X164872191Y-122975336D01*
X164872199Y-122975352D01*
X165016420Y-123225148D01*
X165016431Y-123225164D01*
X165192024Y-123454002D01*
X165192030Y-123454009D01*
X165395990Y-123657969D01*
X165395997Y-123657975D01*
X165450765Y-123700000D01*
X165624844Y-123833575D01*
X165624851Y-123833579D01*
X165874647Y-123977800D01*
X165874663Y-123977808D01*
X166141139Y-124088185D01*
X166141145Y-124088186D01*
X166141155Y-124088191D01*
X166419783Y-124162849D01*
X166705772Y-124200500D01*
X166705779Y-124200500D01*
X166994221Y-124200500D01*
X166994228Y-124200500D01*
X167280217Y-124162849D01*
X167558845Y-124088191D01*
X167558857Y-124088185D01*
X167558860Y-124088185D01*
X167825336Y-123977808D01*
X167825339Y-123977806D01*
X167825345Y-123977804D01*
X168075156Y-123833575D01*
X168304004Y-123657974D01*
X168507974Y-123454004D01*
X168626902Y-123299014D01*
X168683330Y-123257811D01*
X168725278Y-123250500D01*
X171274722Y-123250500D01*
X171341761Y-123270185D01*
X171373098Y-123299014D01*
X171492024Y-123454002D01*
X171492030Y-123454009D01*
X171695990Y-123657969D01*
X171695997Y-123657975D01*
X171750765Y-123700000D01*
X171924844Y-123833575D01*
X171924851Y-123833579D01*
X172174647Y-123977800D01*
X172174663Y-123977808D01*
X172441139Y-124088185D01*
X172441145Y-124088186D01*
X172441155Y-124088191D01*
X172719783Y-124162849D01*
X173005772Y-124200500D01*
X173005779Y-124200500D01*
X173294221Y-124200500D01*
X173294228Y-124200500D01*
X173580217Y-124162849D01*
X173858845Y-124088191D01*
X173858857Y-124088185D01*
X173858860Y-124088185D01*
X174125336Y-123977808D01*
X174125339Y-123977806D01*
X174125345Y-123977804D01*
X174375156Y-123833575D01*
X174604004Y-123657974D01*
X174807974Y-123454004D01*
X174964128Y-123250500D01*
X174970254Y-123242517D01*
X174973993Y-123237643D01*
X174983575Y-123225156D01*
X175127804Y-122975345D01*
X175139751Y-122946504D01*
X175238185Y-122708860D01*
X175238185Y-122708857D01*
X175238191Y-122708845D01*
X175312849Y-122430217D01*
X175350500Y-122144228D01*
X175350500Y-121888575D01*
X184150000Y-121888575D01*
X184150000Y-122111424D01*
X184179085Y-122332354D01*
X184179088Y-122332367D01*
X184236763Y-122547618D01*
X184322045Y-122753502D01*
X184322054Y-122753520D01*
X184433464Y-122946491D01*
X184433473Y-122946504D01*
X184484040Y-123012403D01*
X184484043Y-123012403D01*
X185285387Y-122211059D01*
X185290889Y-122231591D01*
X185369881Y-122368408D01*
X185481592Y-122480119D01*
X185618409Y-122559111D01*
X185638940Y-122564612D01*
X184837595Y-123365955D01*
X184837595Y-123365956D01*
X184903507Y-123416533D01*
X185096485Y-123527949D01*
X185096497Y-123527954D01*
X185302381Y-123613236D01*
X185517632Y-123670911D01*
X185517645Y-123670914D01*
X185738575Y-123700000D01*
X185961425Y-123700000D01*
X186182354Y-123670914D01*
X186182367Y-123670911D01*
X186397618Y-123613236D01*
X186603502Y-123527954D01*
X186603514Y-123527949D01*
X186796498Y-123416530D01*
X186862403Y-123365957D01*
X186862404Y-123365956D01*
X186061059Y-122564612D01*
X186081591Y-122559111D01*
X186218408Y-122480119D01*
X186330119Y-122368408D01*
X186409111Y-122231591D01*
X186414612Y-122211059D01*
X187215956Y-123012404D01*
X187215957Y-123012403D01*
X187266530Y-122946498D01*
X187377949Y-122753514D01*
X187377954Y-122753502D01*
X187463236Y-122547618D01*
X187520911Y-122332367D01*
X187520914Y-122332354D01*
X187550000Y-122111424D01*
X187550000Y-121888575D01*
X187520914Y-121667645D01*
X187520911Y-121667632D01*
X187463236Y-121452381D01*
X187377954Y-121246497D01*
X187377949Y-121246485D01*
X187266533Y-121053507D01*
X187215956Y-120987595D01*
X187215955Y-120987595D01*
X186414612Y-121788939D01*
X186409111Y-121768409D01*
X186330119Y-121631592D01*
X186218408Y-121519881D01*
X186081591Y-121440889D01*
X186061058Y-121435387D01*
X186862403Y-120634043D01*
X186862403Y-120634040D01*
X186796504Y-120583473D01*
X186796491Y-120583464D01*
X186603520Y-120472054D01*
X186603502Y-120472045D01*
X186397618Y-120386763D01*
X186182367Y-120329088D01*
X186182354Y-120329085D01*
X185961425Y-120300000D01*
X185738575Y-120300000D01*
X185517645Y-120329085D01*
X185517632Y-120329088D01*
X185302381Y-120386763D01*
X185096497Y-120472045D01*
X185096479Y-120472054D01*
X184903511Y-120583462D01*
X184837595Y-120634042D01*
X185638941Y-121435387D01*
X185618409Y-121440889D01*
X185481592Y-121519881D01*
X185369881Y-121631592D01*
X185290889Y-121768409D01*
X185285387Y-121788940D01*
X184484042Y-120987595D01*
X184433462Y-121053511D01*
X184322054Y-121246479D01*
X184322045Y-121246497D01*
X184236763Y-121452381D01*
X184179088Y-121667632D01*
X184179085Y-121667645D01*
X184150000Y-121888575D01*
X175350500Y-121888575D01*
X175350500Y-121855772D01*
X175312849Y-121569783D01*
X175238191Y-121291155D01*
X175238186Y-121291145D01*
X175238185Y-121291139D01*
X175127808Y-121024663D01*
X175127800Y-121024647D01*
X174983579Y-120774851D01*
X174983575Y-120774844D01*
X174970251Y-120757480D01*
X174970251Y-120757479D01*
X174807975Y-120545997D01*
X174807969Y-120545990D01*
X174604009Y-120342030D01*
X174604002Y-120342024D01*
X174375164Y-120166431D01*
X174375162Y-120166429D01*
X174375156Y-120166425D01*
X174375151Y-120166422D01*
X174375148Y-120166420D01*
X174125352Y-120022199D01*
X174125336Y-120022191D01*
X173858860Y-119911814D01*
X173858848Y-119911810D01*
X173858845Y-119911809D01*
X173580217Y-119837151D01*
X173580211Y-119837150D01*
X173580206Y-119837149D01*
X173294238Y-119799501D01*
X173294233Y-119799500D01*
X173294228Y-119799500D01*
X173005772Y-119799500D01*
X173005771Y-119799500D01*
X172812081Y-119824999D01*
X172743046Y-119814233D01*
X172708215Y-119789741D01*
X172286819Y-119368345D01*
X172253334Y-119307022D01*
X172250500Y-119280664D01*
X172250500Y-103069335D01*
X172270185Y-103002296D01*
X172286815Y-102981658D01*
X172318743Y-102949729D01*
X172380065Y-102916246D01*
X172449757Y-102921230D01*
X172505690Y-102963102D01*
X172530107Y-103028566D01*
X172528896Y-103056810D01*
X172505000Y-103207682D01*
X172505000Y-103412317D01*
X172537009Y-103614417D01*
X172600244Y-103809031D01*
X172693141Y-103991350D01*
X172693147Y-103991359D01*
X172725523Y-104035921D01*
X172725524Y-104035922D01*
X173405000Y-103356446D01*
X173405000Y-103362661D01*
X173432259Y-103464394D01*
X173484920Y-103555606D01*
X173559394Y-103630080D01*
X173650606Y-103682741D01*
X173752339Y-103710000D01*
X173758553Y-103710000D01*
X173079076Y-104389474D01*
X173123650Y-104421859D01*
X173305968Y-104514755D01*
X173500582Y-104577990D01*
X173702683Y-104610000D01*
X173907317Y-104610000D01*
X174109417Y-104577990D01*
X174304031Y-104514755D01*
X174486349Y-104421859D01*
X174530921Y-104389474D01*
X173851447Y-103710000D01*
X173857661Y-103710000D01*
X173959394Y-103682741D01*
X174050606Y-103630080D01*
X174125080Y-103555606D01*
X174177741Y-103464394D01*
X174205000Y-103362661D01*
X174205000Y-103356447D01*
X174884474Y-104035921D01*
X174916859Y-103991349D01*
X175009755Y-103809031D01*
X175072990Y-103614417D01*
X175105000Y-103412317D01*
X175105000Y-103207682D01*
X175072990Y-103005582D01*
X175009755Y-102810968D01*
X174916859Y-102628650D01*
X174884474Y-102584077D01*
X174884474Y-102584076D01*
X174205000Y-103263551D01*
X174205000Y-103257339D01*
X174177741Y-103155606D01*
X174125080Y-103064394D01*
X174050606Y-102989920D01*
X173959394Y-102937259D01*
X173857661Y-102910000D01*
X173851446Y-102910000D01*
X174221955Y-102539490D01*
X174277538Y-102507398D01*
X174384993Y-102478606D01*
X174603049Y-102388284D01*
X174807450Y-102270273D01*
X174994699Y-102126592D01*
X175161592Y-101959699D01*
X175305273Y-101772450D01*
X175423284Y-101568049D01*
X175513606Y-101349993D01*
X175574693Y-101122014D01*
X175605500Y-100888011D01*
X175605500Y-100651989D01*
X175574693Y-100417986D01*
X175513606Y-100190007D01*
X175423284Y-99971951D01*
X175423282Y-99971948D01*
X175423280Y-99971943D01*
X175356208Y-99855772D01*
X175305273Y-99767550D01*
X175253805Y-99700476D01*
X175159121Y-99577080D01*
X175160286Y-99576185D01*
X175133469Y-99518381D01*
X175142998Y-99449165D01*
X175159619Y-99423302D01*
X175159121Y-99422920D01*
X175213814Y-99351641D01*
X175305273Y-99232450D01*
X175423284Y-99028049D01*
X175513606Y-98809993D01*
X175574693Y-98582014D01*
X175605500Y-98348011D01*
X175605500Y-98111989D01*
X175574693Y-97877986D01*
X175513606Y-97650007D01*
X175423284Y-97431951D01*
X175423282Y-97431948D01*
X175423280Y-97431943D01*
X175305277Y-97227557D01*
X175305273Y-97227550D01*
X175297945Y-97218000D01*
X175272751Y-97152833D01*
X175286789Y-97084388D01*
X175308643Y-97054830D01*
X175318819Y-97044654D01*
X175364733Y-96978381D01*
X175447007Y-96859626D01*
X175540096Y-96654683D01*
X175595096Y-96436412D01*
X175605500Y-96304217D01*
X175605499Y-95075784D01*
X175595096Y-94943588D01*
X175584238Y-94900499D01*
X175540097Y-94725321D01*
X175540096Y-94725318D01*
X175522941Y-94687550D01*
X175447007Y-94520374D01*
X175415297Y-94474603D01*
X175318825Y-94335354D01*
X175318822Y-94335350D01*
X175318819Y-94335346D01*
X175159654Y-94176181D01*
X175159650Y-94176178D01*
X175159645Y-94176174D01*
X174974632Y-94047997D01*
X174974630Y-94047995D01*
X174974626Y-94047993D01*
X174769683Y-93954904D01*
X174769681Y-93954903D01*
X174769678Y-93954902D01*
X174551420Y-93899905D01*
X174551413Y-93899904D01*
X174507347Y-93896436D01*
X174419217Y-93889500D01*
X174419215Y-93889500D01*
X173190791Y-93889500D01*
X173190776Y-93889501D01*
X173058586Y-93899904D01*
X173058579Y-93899905D01*
X172840321Y-93954902D01*
X172840318Y-93954903D01*
X172635377Y-94047991D01*
X172635367Y-94047997D01*
X172450354Y-94176174D01*
X172450342Y-94176184D01*
X172291184Y-94335342D01*
X172291174Y-94335354D01*
X172162997Y-94520367D01*
X172162991Y-94520377D01*
X172143576Y-94563122D01*
X172097929Y-94616020D01*
X172030930Y-94635841D01*
X171963850Y-94616293D01*
X171942996Y-94599522D01*
X164868460Y-87524986D01*
X166550001Y-87524986D01*
X166560494Y-87627697D01*
X166615641Y-87794119D01*
X166615643Y-87794124D01*
X166707684Y-87943345D01*
X166831654Y-88067315D01*
X166980875Y-88159356D01*
X166980880Y-88159358D01*
X167147302Y-88214505D01*
X167147309Y-88214506D01*
X167250019Y-88224999D01*
X167299999Y-88224998D01*
X167300000Y-88224998D01*
X167300000Y-87250000D01*
X166550001Y-87250000D01*
X166550001Y-87524986D01*
X164868460Y-87524986D01*
X164421819Y-87078345D01*
X164388334Y-87017022D01*
X164385500Y-86990664D01*
X164385500Y-85074500D01*
X164405185Y-85007461D01*
X164457989Y-84961706D01*
X164509500Y-84950500D01*
X164626016Y-84950500D01*
X164661459Y-84948039D01*
X164714630Y-84944349D01*
X164714636Y-84944347D01*
X164714640Y-84944347D01*
X164896458Y-84901583D01*
X164922185Y-84895532D01*
X165117237Y-84809409D01*
X165293142Y-84688911D01*
X165443911Y-84538142D01*
X165563096Y-84364152D01*
X165617221Y-84319971D01*
X165686642Y-84312065D01*
X165749317Y-84342945D01*
X165753076Y-84346550D01*
X167038738Y-85632212D01*
X167072223Y-85693535D01*
X167067239Y-85763227D01*
X167025367Y-85819160D01*
X166990064Y-85837598D01*
X166980882Y-85840640D01*
X166980875Y-85840643D01*
X166831654Y-85932684D01*
X166707684Y-86056654D01*
X166615643Y-86205875D01*
X166615641Y-86205880D01*
X166560494Y-86372302D01*
X166560493Y-86372309D01*
X166550000Y-86475013D01*
X166550000Y-86750000D01*
X167426000Y-86750000D01*
X167493039Y-86769685D01*
X167538794Y-86822489D01*
X167550000Y-86874000D01*
X167550000Y-87000000D01*
X167676000Y-87000000D01*
X167743039Y-87019685D01*
X167788794Y-87072489D01*
X167800000Y-87124000D01*
X167800000Y-88224999D01*
X167849972Y-88224999D01*
X167849986Y-88224998D01*
X167952697Y-88214505D01*
X168058457Y-88179460D01*
X168128285Y-88177058D01*
X168188327Y-88212790D01*
X168199389Y-88226549D01*
X168236180Y-88279653D01*
X168236181Y-88279654D01*
X168395346Y-88438819D01*
X168395350Y-88438822D01*
X168395354Y-88438825D01*
X168534603Y-88535297D01*
X168580374Y-88567007D01*
X168785317Y-88660096D01*
X168785321Y-88660097D01*
X169003579Y-88715094D01*
X169003581Y-88715094D01*
X169003588Y-88715096D01*
X169135783Y-88725500D01*
X169764216Y-88725499D01*
X169896412Y-88715096D01*
X169900770Y-88713998D01*
X169908959Y-88711934D01*
X170114683Y-88660096D01*
X170319626Y-88567007D01*
X170504654Y-88438819D01*
X170663819Y-88279654D01*
X170792007Y-88094626D01*
X170885096Y-87889683D01*
X170940096Y-87671412D01*
X170950500Y-87539217D01*
X170950499Y-86460784D01*
X170940096Y-86328588D01*
X170885096Y-86110317D01*
X170792007Y-85905374D01*
X170663819Y-85720346D01*
X170504654Y-85561181D01*
X170466458Y-85534719D01*
X170436758Y-85505678D01*
X170403829Y-85460354D01*
X169380656Y-84437181D01*
X169347171Y-84375858D01*
X169352155Y-84306166D01*
X169394027Y-84250233D01*
X169459491Y-84225816D01*
X169468337Y-84225500D01*
X171123422Y-84225500D01*
X171317826Y-84194709D01*
X171505026Y-84133884D01*
X171680405Y-84044524D01*
X171839646Y-83928828D01*
X176203828Y-79564646D01*
X183117427Y-72651045D01*
X183178748Y-72617562D01*
X183185680Y-72616259D01*
X183242826Y-72607209D01*
X183430026Y-72546384D01*
X183605405Y-72457024D01*
X183764646Y-72341328D01*
X184256655Y-71849317D01*
X184317978Y-71815833D01*
X184344336Y-71812999D01*
X185533028Y-71812999D01*
X185533036Y-71812999D01*
X185652418Y-71802386D01*
X185848049Y-71746409D01*
X186028407Y-71652198D01*
X186186109Y-71523609D01*
X186314698Y-71365907D01*
X186408909Y-71185549D01*
X186464886Y-70989918D01*
X186475500Y-70870537D01*
X186475499Y-68804464D01*
X186464886Y-68685082D01*
X186408909Y-68489451D01*
X186314698Y-68309093D01*
X186262684Y-68245303D01*
X186186109Y-68151390D01*
X186028409Y-68022804D01*
X186028410Y-68022804D01*
X186028407Y-68022802D01*
X185848049Y-67928591D01*
X185848048Y-67928590D01*
X185848045Y-67928589D01*
X185730829Y-67895050D01*
X185652418Y-67872614D01*
X185652415Y-67872613D01*
X185652413Y-67872613D01*
X185586102Y-67866717D01*
X185533037Y-67862000D01*
X185533032Y-67862000D01*
X183466971Y-67862000D01*
X183466965Y-67862000D01*
X183466964Y-67862001D01*
X183455316Y-67863036D01*
X183347584Y-67872613D01*
X183151954Y-67928589D01*
X183061772Y-67975696D01*
X182971593Y-68022802D01*
X182971591Y-68022803D01*
X182971590Y-68022804D01*
X182813890Y-68151390D01*
X182685304Y-68309090D01*
X182591089Y-68489454D01*
X182535114Y-68685083D01*
X182535113Y-68685086D01*
X182524500Y-68804466D01*
X182524500Y-69655663D01*
X182504815Y-69722702D01*
X182488181Y-69743344D01*
X176712181Y-75519344D01*
X176650858Y-75552829D01*
X176581166Y-75547845D01*
X176525233Y-75505973D01*
X176500816Y-75440509D01*
X176500500Y-75431663D01*
X176500500Y-70151577D01*
X176480784Y-70027098D01*
X176469709Y-69957174D01*
X176469708Y-69957170D01*
X176469708Y-69957169D01*
X176411319Y-69777469D01*
X176411318Y-69777468D01*
X176408884Y-69769975D01*
X176408884Y-69769974D01*
X176384139Y-69721409D01*
X178025000Y-69721409D01*
X178025000Y-69953590D01*
X178061318Y-70182893D01*
X178133065Y-70403705D01*
X178238465Y-70610564D01*
X178295238Y-70688707D01*
X178898958Y-70084987D01*
X178923978Y-70145390D01*
X178995112Y-70251851D01*
X179085649Y-70342388D01*
X179192110Y-70413522D01*
X179252510Y-70438541D01*
X178648791Y-71042259D01*
X178648791Y-71042260D01*
X178726935Y-71099034D01*
X178933794Y-71204434D01*
X179154606Y-71276181D01*
X179383910Y-71312500D01*
X179616090Y-71312500D01*
X179845393Y-71276181D01*
X180066205Y-71204434D01*
X180273071Y-71099030D01*
X180351207Y-71042262D01*
X180351208Y-71042260D01*
X179747488Y-70438541D01*
X179807890Y-70413522D01*
X179914351Y-70342388D01*
X180004888Y-70251851D01*
X180076022Y-70145390D01*
X180101041Y-70084988D01*
X180704760Y-70688708D01*
X180704762Y-70688707D01*
X180761530Y-70610571D01*
X180866934Y-70403705D01*
X180938681Y-70182893D01*
X180975000Y-69953590D01*
X180975000Y-69721409D01*
X180938681Y-69492106D01*
X180866934Y-69271294D01*
X180761534Y-69064435D01*
X180704760Y-68986291D01*
X180704759Y-68986291D01*
X180101041Y-69590010D01*
X180076022Y-69529610D01*
X180004888Y-69423149D01*
X179914351Y-69332612D01*
X179807890Y-69261478D01*
X179747487Y-69236457D01*
X180351207Y-68632738D01*
X180273064Y-68575965D01*
X180066205Y-68470565D01*
X179845393Y-68398818D01*
X179616090Y-68362500D01*
X179383910Y-68362500D01*
X179154606Y-68398818D01*
X178933794Y-68470565D01*
X178726925Y-68575970D01*
X178648791Y-68632737D01*
X178648791Y-68632738D01*
X179252511Y-69236458D01*
X179192110Y-69261478D01*
X179085649Y-69332612D01*
X178995112Y-69423149D01*
X178923978Y-69529610D01*
X178898958Y-69590011D01*
X178295238Y-68986291D01*
X178295237Y-68986291D01*
X178238470Y-69064425D01*
X178133065Y-69271294D01*
X178061318Y-69492106D01*
X178025000Y-69721409D01*
X176384139Y-69721409D01*
X176319524Y-69594595D01*
X176203828Y-69435354D01*
X168314646Y-61546172D01*
X168155405Y-61430476D01*
X167980030Y-61341117D01*
X167792826Y-61280290D01*
X167598422Y-61249500D01*
X167598417Y-61249500D01*
X158401583Y-61249500D01*
X158401578Y-61249500D01*
X158207173Y-61280290D01*
X158019969Y-61341117D01*
X157844591Y-61430478D01*
X157685360Y-61546165D01*
X157685355Y-61546169D01*
X150046174Y-69185351D01*
X150046172Y-69185354D01*
X149996485Y-69253741D01*
X149930476Y-69344594D01*
X149841117Y-69519969D01*
X149837985Y-69529610D01*
X149816871Y-69594594D01*
X149816870Y-69594596D01*
X149780290Y-69707173D01*
X149749500Y-69901577D01*
X149749500Y-78124721D01*
X149729815Y-78191760D01*
X149700987Y-78223097D01*
X149545990Y-78342030D01*
X149342030Y-78545990D01*
X149342024Y-78545997D01*
X149166431Y-78774835D01*
X149166420Y-78774851D01*
X149022199Y-79024647D01*
X149022191Y-79024663D01*
X148911814Y-79291139D01*
X148911809Y-79291155D01*
X148838528Y-79564646D01*
X148837152Y-79569780D01*
X148837149Y-79569793D01*
X148799501Y-79855761D01*
X148799500Y-79855778D01*
X148799500Y-80144221D01*
X148799501Y-80144238D01*
X148824999Y-80337917D01*
X148814233Y-80406952D01*
X148789741Y-80441783D01*
X145046174Y-84185351D01*
X145046172Y-84185354D01*
X144999034Y-84250233D01*
X144930476Y-84344594D01*
X144840669Y-84520851D01*
X144839608Y-84524612D01*
X144780291Y-84707169D01*
X144780291Y-84707172D01*
X144749500Y-84901577D01*
X144500500Y-84901577D01*
X144500500Y-61124500D01*
X144520185Y-61057461D01*
X144572989Y-61011706D01*
X144624500Y-61000500D01*
X190375500Y-61000500D01*
X190442539Y-61020185D01*
G37*
%TD.AperFunction*%
%TD*%
%TA.AperFunction,Conductor*%
%TO.N,Current+*%
G36*
X166916149Y-67030318D02*
G01*
X166968100Y-67077039D01*
X166986545Y-67144430D01*
X166986057Y-67153369D01*
X166500000Y-72500004D01*
X166500000Y-72991186D01*
X166498754Y-73008722D01*
X165515209Y-79893536D01*
X165486241Y-79957118D01*
X165427497Y-79994946D01*
X165392455Y-80000000D01*
X164000000Y-80000000D01*
X163124000Y-80000000D01*
X163056961Y-79980315D01*
X163011206Y-79927511D01*
X163000000Y-79876000D01*
X163000000Y-79486267D01*
X163019685Y-79419228D01*
X163021687Y-79416210D01*
X163024409Y-79412237D01*
X163110532Y-79217185D01*
X163159349Y-79009630D01*
X163165500Y-78921012D01*
X163165500Y-77128988D01*
X163159349Y-77040370D01*
X163159347Y-77040364D01*
X163159347Y-77040359D01*
X163110534Y-76832823D01*
X163110532Y-76832817D01*
X163110532Y-76832815D01*
X163024409Y-76637763D01*
X163021698Y-76633805D01*
X163000053Y-76567373D01*
X163000000Y-76563731D01*
X163000000Y-67609464D01*
X163019685Y-67542425D01*
X163072489Y-67496670D01*
X163108616Y-67486422D01*
X166847188Y-67019101D01*
X166916149Y-67030318D01*
G37*
%TD.AperFunction*%
%TD*%
%TA.AperFunction,Conductor*%
%TO.N,Current-*%
G36*
X161937539Y-67519685D02*
G01*
X161983294Y-67572489D01*
X161994500Y-67624000D01*
X161994500Y-76563703D01*
X161994551Y-76570788D01*
X161977050Y-76632016D01*
X161978380Y-76632757D01*
X161975591Y-76637763D01*
X161889467Y-76832817D01*
X161889465Y-76832823D01*
X161840652Y-77040359D01*
X161840650Y-77040375D01*
X161834500Y-77128984D01*
X161834500Y-78921015D01*
X161840650Y-79009624D01*
X161840652Y-79009640D01*
X161889465Y-79217176D01*
X161889467Y-79217182D01*
X161889468Y-79217185D01*
X161945724Y-79344595D01*
X161975595Y-79412245D01*
X161978382Y-79417249D01*
X161976263Y-79418428D01*
X161994676Y-79474917D01*
X161994572Y-79484835D01*
X161994500Y-79486259D01*
X161994500Y-79875989D01*
X161994566Y-79887579D01*
X161994567Y-79887595D01*
X162003189Y-79963660D01*
X161991180Y-80032490D01*
X161943865Y-80083901D01*
X161900364Y-80099938D01*
X159612919Y-80481180D01*
X159543555Y-80472784D01*
X159489742Y-80428221D01*
X159472235Y-80388941D01*
X159179295Y-79217182D01*
X157503702Y-72514808D01*
X157500000Y-72484734D01*
X157500000Y-67624000D01*
X157519685Y-67556961D01*
X157572489Y-67511206D01*
X157624000Y-67500000D01*
X161870500Y-67500000D01*
X161937539Y-67519685D01*
G37*
%TD.AperFunction*%
%TD*%
D32*
%TO.C,U1*%
X164405000Y-78025000D03*
X163135000Y-78025000D03*
X161865000Y-78025000D03*
X160595000Y-78025000D03*
X160595000Y-82975000D03*
X161865000Y-82975000D03*
X163135000Y-82975000D03*
X164405000Y-82975000D03*
%TD*%
D21*
%TO.C,U2*%
X173805000Y-95690000D03*
D22*
X173805000Y-98230000D03*
X173805000Y-100770000D03*
X173805000Y-103310000D03*
X166185000Y-103310000D03*
X166185000Y-100770000D03*
X166185000Y-98230000D03*
X166185000Y-95690000D03*
%TD*%
D23*
%TO.C,R4*%
X151000000Y-100000000D03*
X151000000Y-112700000D03*
%TD*%
%TO.C,R3*%
X151000000Y-80000000D03*
X151000000Y-92700000D03*
%TD*%
%TO.C,R2*%
X185850000Y-122000000D03*
X173150000Y-122000000D03*
%TD*%
%TO.C,R1*%
X166850000Y-122000000D03*
X154150000Y-122000000D03*
%TD*%
D24*
%TO.C,J2*%
X160000000Y-69500000D03*
D25*
X165000000Y-69500000D03*
%TD*%
D24*
%TO.C,J1*%
X179500000Y-69837500D03*
D25*
X184500000Y-69837500D03*
%TD*%
D26*
%TO.C,D1*%
X158460000Y-109500000D03*
D27*
X161000000Y-109500000D03*
%TD*%
D33*
%TO.C,C2*%
X167550000Y-87000000D03*
X169450000Y-87000000D03*
%TD*%
D34*
%TO.C,C1*%
X160500000Y-90000000D03*
X158600000Y-90000000D03*
%TD*%
D32*
%TO.C,U1*%
X164405000Y-78025000D03*
X163135000Y-78025000D03*
X161865000Y-78025000D03*
X160595000Y-78025000D03*
X160595000Y-82975000D03*
X161865000Y-82975000D03*
X163135000Y-82975000D03*
X164405000Y-82975000D03*
%TD*%
D33*
%TO.C,C2*%
X167550000Y-87000000D03*
X169450000Y-87000000D03*
%TD*%
D34*
%TO.C,C1*%
X160500000Y-90000000D03*
X158600000Y-90000000D03*
%TD*%
D10*
X165354819Y-81261904D02*
X166164342Y-81261904D01*
X166164342Y-81261904D02*
X166259580Y-81214285D01*
X166259580Y-81214285D02*
X166307200Y-81166666D01*
X166307200Y-81166666D02*
X166354819Y-81071428D01*
X166354819Y-81071428D02*
X166354819Y-80880952D01*
X166354819Y-80880952D02*
X166307200Y-80785714D01*
X166307200Y-80785714D02*
X166259580Y-80738095D01*
X166259580Y-80738095D02*
X166164342Y-80690476D01*
X166164342Y-80690476D02*
X165354819Y-80690476D01*
X166354819Y-79690476D02*
X166354819Y-80261904D01*
X166354819Y-79976190D02*
X165354819Y-79976190D01*
X165354819Y-79976190D02*
X165497676Y-80071428D01*
X165497676Y-80071428D02*
X165592914Y-80166666D01*
X165592914Y-80166666D02*
X165640533Y-80261904D01*
X168333333Y-89039580D02*
X168285714Y-89087200D01*
X168285714Y-89087200D02*
X168142857Y-89134819D01*
X168142857Y-89134819D02*
X168047619Y-89134819D01*
X168047619Y-89134819D02*
X167904762Y-89087200D01*
X167904762Y-89087200D02*
X167809524Y-88991961D01*
X167809524Y-88991961D02*
X167761905Y-88896723D01*
X167761905Y-88896723D02*
X167714286Y-88706247D01*
X167714286Y-88706247D02*
X167714286Y-88563390D01*
X167714286Y-88563390D02*
X167761905Y-88372914D01*
X167761905Y-88372914D02*
X167809524Y-88277676D01*
X167809524Y-88277676D02*
X167904762Y-88182438D01*
X167904762Y-88182438D02*
X168047619Y-88134819D01*
X168047619Y-88134819D02*
X168142857Y-88134819D01*
X168142857Y-88134819D02*
X168285714Y-88182438D01*
X168285714Y-88182438D02*
X168333333Y-88230057D01*
X168714286Y-88230057D02*
X168761905Y-88182438D01*
X168761905Y-88182438D02*
X168857143Y-88134819D01*
X168857143Y-88134819D02*
X169095238Y-88134819D01*
X169095238Y-88134819D02*
X169190476Y-88182438D01*
X169190476Y-88182438D02*
X169238095Y-88230057D01*
X169238095Y-88230057D02*
X169285714Y-88325295D01*
X169285714Y-88325295D02*
X169285714Y-88420533D01*
X169285714Y-88420533D02*
X169238095Y-88563390D01*
X169238095Y-88563390D02*
X168666667Y-89134819D01*
X168666667Y-89134819D02*
X169285714Y-89134819D01*
X159383333Y-88679580D02*
X159335714Y-88727200D01*
X159335714Y-88727200D02*
X159192857Y-88774819D01*
X159192857Y-88774819D02*
X159097619Y-88774819D01*
X159097619Y-88774819D02*
X158954762Y-88727200D01*
X158954762Y-88727200D02*
X158859524Y-88631961D01*
X158859524Y-88631961D02*
X158811905Y-88536723D01*
X158811905Y-88536723D02*
X158764286Y-88346247D01*
X158764286Y-88346247D02*
X158764286Y-88203390D01*
X158764286Y-88203390D02*
X158811905Y-88012914D01*
X158811905Y-88012914D02*
X158859524Y-87917676D01*
X158859524Y-87917676D02*
X158954762Y-87822438D01*
X158954762Y-87822438D02*
X159097619Y-87774819D01*
X159097619Y-87774819D02*
X159192857Y-87774819D01*
X159192857Y-87774819D02*
X159335714Y-87822438D01*
X159335714Y-87822438D02*
X159383333Y-87870057D01*
X160335714Y-88774819D02*
X159764286Y-88774819D01*
X160050000Y-88774819D02*
X160050000Y-87774819D01*
X160050000Y-87774819D02*
X159954762Y-87917676D01*
X159954762Y-87917676D02*
X159859524Y-88012914D01*
X159859524Y-88012914D02*
X159764286Y-88060533D01*
D11*
%TO.C,U1*%
X165060000Y-78440000D02*
X165060000Y-82560000D01*
X164965000Y-78440000D02*
X165060000Y-78440000D01*
X159940000Y-78440000D02*
X160035000Y-78440000D01*
X165060000Y-82560000D02*
X164965000Y-82560000D01*
X160035000Y-82560000D02*
X159940000Y-82560000D01*
X159940000Y-82560000D02*
X159940000Y-78440000D01*
X165300000Y-78140000D02*
X164970000Y-77900000D01*
X165300000Y-77660000D01*
X165300000Y-78140000D01*
G36*
X165300000Y-78140000D02*
G01*
X164970000Y-77900000D01*
X165300000Y-77660000D01*
X165300000Y-78140000D01*
G37*
%TO.C,C2*%
X168761252Y-86265000D02*
X168238748Y-86265000D01*
X168761252Y-87735000D02*
X168238748Y-87735000D01*
%TO.C,C1*%
X159288748Y-90735000D02*
X159811252Y-90735000D01*
X159288748Y-89265000D02*
X159811252Y-89265000D01*
%TD*%
D35*
X144000000Y-60500000D02*
X191000000Y-60500000D01*
X191000000Y-127000000D01*
X144000000Y-127000000D01*
X144000000Y-60500000D01*
M02*
