%TF.GenerationSoftware,KiCad,Pcbnew,10.0.6*%
%TF.CreationDate,2026-09-11T22:07:35-04:00*%
%TF.ProjectId,Lunabotic,4c756e61-626f-4746-9963-2e6b69636164,rev?*%
%TF.SameCoordinates,Original*%
%TF.FileFunction,Legend,Top*%
%TF.FilePolarity,Positive*%
%FSLAX46Y46*%
G04 Gerber Fmt 4.6, Leading zero omitted, Abs format (unit mm)*
G04 Created by KiCad (PCBNEW 10.0.6) date 2026-09-11 22:07:35*
%MOMM*%
%LPD*%
G01*
G04 APERTURE LIST*
%ADD10C,0.150000*%
%ADD11C,0.120000*%
G04 APERTURE END LIST*
D10*
X143354819Y-96261904D02*
X144164342Y-96261904D01*
X144164342Y-96261904D02*
X144259580Y-96214285D01*
X144259580Y-96214285D02*
X144307200Y-96166666D01*
X144307200Y-96166666D02*
X144354819Y-96071428D01*
X144354819Y-96071428D02*
X144354819Y-95880952D01*
X144354819Y-95880952D02*
X144307200Y-95785714D01*
X144307200Y-95785714D02*
X144259580Y-95738095D01*
X144259580Y-95738095D02*
X144164342Y-95690476D01*
X144164342Y-95690476D02*
X143354819Y-95690476D01*
X144354819Y-94690476D02*
X144354819Y-95261904D01*
X144354819Y-94976190D02*
X143354819Y-94976190D01*
X143354819Y-94976190D02*
X143497676Y-95071428D01*
X143497676Y-95071428D02*
X143592914Y-95166666D01*
X143592914Y-95166666D02*
X143640533Y-95261904D01*
X141179580Y-103666666D02*
X141227200Y-103714285D01*
X141227200Y-103714285D02*
X141274819Y-103857142D01*
X141274819Y-103857142D02*
X141274819Y-103952380D01*
X141274819Y-103952380D02*
X141227200Y-104095237D01*
X141227200Y-104095237D02*
X141131961Y-104190475D01*
X141131961Y-104190475D02*
X141036723Y-104238094D01*
X141036723Y-104238094D02*
X140846247Y-104285713D01*
X140846247Y-104285713D02*
X140703390Y-104285713D01*
X140703390Y-104285713D02*
X140512914Y-104238094D01*
X140512914Y-104238094D02*
X140417676Y-104190475D01*
X140417676Y-104190475D02*
X140322438Y-104095237D01*
X140322438Y-104095237D02*
X140274819Y-103952380D01*
X140274819Y-103952380D02*
X140274819Y-103857142D01*
X140274819Y-103857142D02*
X140322438Y-103714285D01*
X140322438Y-103714285D02*
X140370057Y-103666666D01*
X140370057Y-103285713D02*
X140322438Y-103238094D01*
X140322438Y-103238094D02*
X140274819Y-103142856D01*
X140274819Y-103142856D02*
X140274819Y-102904761D01*
X140274819Y-102904761D02*
X140322438Y-102809523D01*
X140322438Y-102809523D02*
X140370057Y-102761904D01*
X140370057Y-102761904D02*
X140465295Y-102714285D01*
X140465295Y-102714285D02*
X140560533Y-102714285D01*
X140560533Y-102714285D02*
X140703390Y-102761904D01*
X140703390Y-102761904D02*
X141274819Y-103333332D01*
X141274819Y-103333332D02*
X141274819Y-102714285D01*
X129383333Y-109179580D02*
X129335714Y-109227200D01*
X129335714Y-109227200D02*
X129192857Y-109274819D01*
X129192857Y-109274819D02*
X129097619Y-109274819D01*
X129097619Y-109274819D02*
X128954762Y-109227200D01*
X128954762Y-109227200D02*
X128859524Y-109131961D01*
X128859524Y-109131961D02*
X128811905Y-109036723D01*
X128811905Y-109036723D02*
X128764286Y-108846247D01*
X128764286Y-108846247D02*
X128764286Y-108703390D01*
X128764286Y-108703390D02*
X128811905Y-108512914D01*
X128811905Y-108512914D02*
X128859524Y-108417676D01*
X128859524Y-108417676D02*
X128954762Y-108322438D01*
X128954762Y-108322438D02*
X129097619Y-108274819D01*
X129097619Y-108274819D02*
X129192857Y-108274819D01*
X129192857Y-108274819D02*
X129335714Y-108322438D01*
X129335714Y-108322438D02*
X129383333Y-108370057D01*
X130335714Y-109274819D02*
X129764286Y-109274819D01*
X130050000Y-109274819D02*
X130050000Y-108274819D01*
X130050000Y-108274819D02*
X129954762Y-108417676D01*
X129954762Y-108417676D02*
X129859524Y-108512914D01*
X129859524Y-108512914D02*
X129764286Y-108560533D01*
%TO.C,U1*%
D11*
X143060000Y-93440000D02*
X143060000Y-97560000D01*
X142965000Y-93440000D02*
X143060000Y-93440000D01*
X137940000Y-93440000D02*
X138035000Y-93440000D01*
X143060000Y-97560000D02*
X142965000Y-97560000D01*
X138035000Y-97560000D02*
X137940000Y-97560000D01*
X137940000Y-97560000D02*
X137940000Y-93440000D01*
X142970000Y-92900000D02*
X143300000Y-92660000D01*
X143300000Y-93140000D01*
X142970000Y-92900000D01*
G36*
X143300000Y-93140000D02*
G01*
X142970000Y-92900000D01*
X143300000Y-92660000D01*
X143300000Y-93140000D01*
G37*
%TO.C,C2*%
X141765000Y-103761252D02*
X141765000Y-103238748D01*
X143235000Y-103761252D02*
X143235000Y-103238748D01*
%TO.C,C1*%
X129288748Y-109765000D02*
X129811252Y-109765000D01*
X129288748Y-111235000D02*
X129811252Y-111235000D01*
%TD*%
M02*
